<svg xmlns="http://www.w3.org/2000/svg" viewBox="0 0 251 101" xml:space="preserve"><path fill="#050505" d="M127.028,79.946C126.66,75.135 126.39,70.314 125.903,65.515C125.142,58.036 120.908,53.026 114.269,49.92C105.389,45.766 96.134,50.207 95.503,59.976C94.962,68.335 96.464,76.839 97.229,85.264C97.524,88.509 99.333,90.03 102.905,89.955C104.73,89.916 106.587,91.391 108.429,92.182C108.267,92.697 108.105,93.211 107.943,93.725C77.792,93.725 47.642,93.725 17.067,93.725C17.814,90.702 18.511,87.886 19.321,84.607C26.687,84.607 33.944,84.607 41.486,84.607C41.99,86.057 42.582,87.76 43.325,89.898C51.679,89.898 60.124,89.936 68.568,89.837C69.358,89.828 70.798,88.984 70.819,88.483C71.018,83.56 74.527,84.285 77.638,84.282C83.017,84.278 88.395,84.281 93.774,84.281C93.771,83.51 93.767,82.739 93.763,81.968C86.855,81.968 79.946,81.968 72.757,81.968C72.183,76.17 71.638,70.952 71.155,65.73C70.435,57.949 65.735,52.991 59.244,49.634C50.059,44.884 40.036,51.011 39.827,61.338C39.76,64.663 39.931,67.998 40.102,71.323C40.272,74.605 40.58,77.88 40.857,81.55C33.754,81.55 26.994,81.55 19.661,81.55C20.854,76.474 17.94,70.917 22.639,66.179C23.642,65.167 23.457,61.257 22.354,60.175C17.521,55.431 19.461,49.269 17.999,44.019C22.988,44.019 27.829,43.949 32.668,44.037C38.026,44.134 35.362,39.253 36.825,37.445C47.807,37.445 58.53,37.445 69.498,37.445C69.622,38.393 69.925,39.524 69.887,40.644C69.788,43.564 71.004,44.891 74.014,44.824C79.126,44.71 84.241,44.792 89.357,44.792C89.93,41.558 90.299,39.472 90.881,36.184C101.889,36.184 112.968,36.184 124.448,36.048C124.851,35.912 124.849,36.085 124.993,36.412C125.552,38.831 125.967,40.923 126.48,43.502C130.572,43.502 134.664,43.635 138.744,43.471C145.453,43.202 146.432,41.555 143.043,34.552C142.527,36.591 142.01,38.63 141.441,40.877C137.439,40.877 133.366,40.877 129.347,40.877C128.922,38.724 128.547,36.827 128.02,34.566C126.572,34.211 125.277,34.221 123.982,34.232C111.915,34.232 99.848,34.232 87.456,34.232C87.456,36.922 87.456,39.003 87.456,41.496C82.596,41.496 78.059,41.496 73.174,41.496C72.978,39.409 72.783,37.343 72.504,34.381C59.759,34.381 47.193,34.381 33.989,34.653C33.308,35.285 33.267,35.645 33.226,36.004C33.125,37.786 33.024,39.567 32.91,41.582C29.269,41.582 25.849,41.582 22.203,41.582C21.938,39.892 21.686,38.293 21.258,36.041C20.719,35.328 20.357,35.269 19.995,35.209C19.058,35.373 18.121,35.537 16.845,35.761C16.475,32.295 16.108,28.856 15.638,24.452C24.125,24.452 32.2,24.464 40.275,24.45C77.59,24.387 114.905,24.318 152.22,24.243C153.385,24.241 154.593,24.322 155.696,24.036C156.259,23.89 156.989,23.012 156.985,22.469C156.982,21.964 156.169,21.14 155.601,21.028C154.31,20.774 152.95,20.845 151.618,20.828C108.143,20.266 64.669,19.707 21.195,19.154C19.058,19.127 16.919,19.151 14.451,19.151C14.352,17.263 14.279,15.861 14.158,13.553C62.856,14.127 111.241,14.697 159.875,15.27C160.01,16.752 160.124,18.004 160.282,19.737C162.651,19.922 165.072,20.11 167.886,20.33C168.215,24.221 168.53,27.96 168.861,31.889C171.6,32.099 174.195,32.298 177.363,32.541C177.363,37.533 177.363,42.137 177.363,46.974C181.241,46.974 184.511,46.974 188.085,46.974C188.375,44.404 188.666,41.825 189.013,38.747C191.532,38.747 193.999,38.886 196.439,38.693C197.804,38.585 200.136,38.129 200.268,37.476C200.587,35.884 200.09,34.012 199.527,32.39C198.855,30.452 197.771,28.656 196.487,26.021C212.972,26.021 228.499,26.021 243.456,26.021C242.005,33.781 240.572,41.439 239.043,49.612C235.202,49.612 230.939,49.612 226.676,49.612C225.327,53.023 227.183,58.088 221.178,57.874C220.949,60.548 220.739,63.002 220.502,65.774C218.072,66.253 215.699,66.72 213.135,67.226C213.135,69.95 213.135,72.592 213.135,75.662C214.374,76.059 215.885,76.543 216.393,76.706C219.536,83.364 222.348,89.319 225.195,95.35C208.058,95.35 191.489,95.35 174.657,95.35C174.657,93.007 174.657,91.272 174.657,89.281C178.784,88.836 183.355,88.882 181.878,82.491C186.165,82.08 190.153,81.697 194.141,81.314C194.134,80.816 194.126,80.318 194.119,79.82C190.787,79.584 187.455,79.347 183.878,79.093C183.878,75.26 183.878,71.508 183.878,68.552C182.006,66.988 179.404,65.643 179.559,64.81C180.624,59.086 176.656,56.374 173.41,53.076C169.388,48.991 164.941,46.685 159.093,48.735C153.556,50.677 149.831,55.292 150.098,61.719C150.55,72.598 151.679,83.449 152.535,94.46C144.089,94.46 134.593,94.46 124.2,94.46C125.299,90.168 126.223,86.561 127.573,82.466C133.663,81.938 139.327,81.898 144.991,81.858C144.958,81.22 144.925,80.583 144.892,79.946C138.938,79.946 132.983,79.946 127.028,79.946z"/><path fill="#131313" d="M235.456,14.68C238.54,14.552 241.171,14.435 244.178,14.301C244.472,16.128 244.726,17.712 245.088,19.96C241.906,20.207 238.994,20.582 236.077,20.634C223.278,20.865 210.477,20.963 197.678,21.202C194.322,21.264 191.787,20.541 191.185,15.81C205.944,15.434 220.473,15.063 235.456,14.68z"/><path fill="#d1d1d0" d="M126.961,80.315C132.983,79.946 138.938,79.946 144.892,79.946C144.925,80.583 144.958,81.22 144.991,81.858C139.327,81.898 133.663,81.938 127.545,82.073C127.025,81.674 126.959,81.179 126.961,80.315z"/><path fill="#e3e4e4" d="M124.191,34.679C125.277,34.221 126.572,34.211 127.429,34.637C126.276,35.41 125.563,35.747 124.849,36.085C124.849,36.085 124.851,35.912 124.854,35.956C124.705,35.708 124.552,35.417 124.191,34.679z"/><path fill="#e3e4e4" d="M20.127,35.4C20.357,35.269 20.719,35.328 21.08,35.69C20.756,35.958 20.483,35.824 20.127,35.4z"/><path fill="#e3e4e4" d="M33.415,35.86C33.267,35.645 33.308,35.285 33.642,34.886C33.945,35.182 33.835,35.472 33.415,35.86z"/><path fill="#e3e4e4" d="M18.58,37.408C18.638,37.495 18.415,37.536 18.415,37.536C18.415,37.536 18.522,37.322 18.58,37.408z"/><path fill="#f9f9f9" d="M124.993,36.412C125.563,35.747 126.276,35.41 127.581,35.001C128.547,36.827 128.922,38.724 129.347,40.877C133.366,40.877 137.439,40.877 141.441,40.877C142.01,38.63 142.527,36.591 143.043,34.552C146.432,41.555 145.453,43.202 138.744,43.471C134.664,43.635 130.572,43.502 126.48,43.502C125.967,40.923 125.552,38.831 124.993,36.412z"/></svg>