<svg xmlns="http://www.w3.org/2000/svg" viewBox="0 0 189 209" xml:space="preserve"><path fill="#0b0b0b" d="M29.514,192.421C26.809,192.475 23.892,194.296 21.542,191.174C21.204,190.726 19.376,191.483 18.23,191.546C13.399,191.813 8.566,192.028 3.734,192.262C3.637,191.649 3.541,191.036 3.445,190.424C7.677,188.968 11.909,187.511 17.871,185.46C19.674,181.788 21.293,174.1 30.503,178.173C30.961,175.62 31.367,173.356 31.774,171.092C32.127,171.09 32.48,171.088 32.833,171.086C33.298,172.889 33.763,174.691 34.276,176.677C35.627,171.945 36.905,167.472 38.183,162.998C38.754,163.112 39.325,163.227 39.897,163.341C40.023,164.674 40.149,166.007 40.276,167.352C50.253,165.325 51.055,165.352 51.328,157.038C51.595,148.918 54.842,144.736 62.765,144.063C63.512,134.359 64.227,125.066 64.939,115.774C64.964,115.442 64.818,115.01 64.979,114.789C70.771,106.802 65.694,97.858 67.14,89.386C68.64,80.59 68.205,71.464 68.616,62.482C69.034,53.33 69.443,44.177 69.886,35.026C69.933,34.052 69.848,32.809 70.388,32.164C76.469,24.907 82.657,17.741 88.837,10.569C89.023,10.353 89.444,10.341 91.085,9.775C91.407,14.52 91.932,18.957 91.95,23.396C91.97,28.396 90.584,33.59 91.549,38.346C92.618,43.609 95.656,48.473 99.14,53.55C100.986,39.325 102.833,25.099 104.679,10.874C105.3,10.705 105.92,10.535 106.541,10.366C109.4,14.54 112.054,18.874 115.162,22.853C121.288,30.696 121.009,40.061 121.777,49.161C123.29,67.084 124.599,85.024 126.069,102.95C126.401,107 124.957,111.574 129.496,114.552C130.239,115.04 130.109,117.031 130.183,118.339C130.604,125.767 131,133.197 131.325,140.63C131.442,143.287 132.257,144.915 135.297,145.16C139.74,145.519 141.738,148.085 141.76,152.663C141.778,156.465 142.499,160.262 142.908,164.056C147.693,166.495 156.615,163.406 154.601,174.885C155.962,173.076 156.469,172.402 157.443,171.366C158.907,171.004 159.904,171.004 160.902,171.004C162.156,170.878 163.411,170.751 165.029,170.588C165.071,170.897 165.532,171.908 165.212,172.341C163.204,175.057 163.798,178.901 165.781,179.593C168.96,180.702 171.902,186.124 176.469,181.248C177.665,179.972 180.813,180.523 183.064,180.234C183.198,180.937 183.332,181.639 183.465,182.341C180.326,183.614 177.187,184.887 174.048,186.16C173.903,186.602 173.759,187.044 173.614,187.486C178.833,189.348 184.052,191.211 189.635,193.037C190,193 190,193.5 189.633,193.672C183.374,194.445 177.482,195.046 170.351,195.774C172.124,193.773 172.741,193.077 173.392,192.342C167.375,192.342 161.695,192.342 156.059,192.342C156.385,193.929 156.699,195.462 156.722,197.102C154.95,197.752 153.469,198.296 151.529,198.893C147.688,198.945 144.307,198.945 140.925,198.945C140.699,199.406 140.474,199.867 140.248,200.328C142.155,202.616 144.061,204.903 146.019,207.253C144.724,207.962 142.862,208.981 141,210C140.556,210 140.111,210 139.3,209.595C138.29,208.413 137.475,206.877 137.028,206.978C133.314,207.814 129.667,208.953 126,210C118.646,210 111.291,210 103.469,210C105.206,208.327 107.413,206.653 109.773,204.863C109.684,204.618 109.373,203.767 109.405,202.446C109.764,201.718 109.782,201.461 109.8,201.203C109.369,201.267 108.939,201.33 108.509,201.393C103.517,201.672 98.525,201.952 93.533,202.231C93.447,201.8 93.361,201.37 93.276,200.939C94.522,200.131 95.767,199.323 97.867,197.962C94.659,197.627 92.028,198.065 90.257,197.031C85.356,194.17 80.859,196.068 76.127,197.09C74.644,197.41 72.926,196.525 71.299,196.329C69.622,196.127 67.925,196.093 66.081,196.793C67.547,197.747 69.013,198.7 70.48,199.654C70.326,199.985 70.173,200.317 70.02,200.648C58.804,200.648 47.589,200.648 36.645,200.648C36.921,200.888 37.68,201.546 39.59,203.205C31.584,203.205 24.823,203.205 18.062,203.205C17.947,202.779 17.832,202.354 17.717,201.928C20.978,200.092 24.268,198.306 27.48,196.388C28.461,195.802 29.224,194.85 30.456,193.542C30.387,192.819 29.951,192.62 29.514,192.421M56.987,152.013C56.987,152.013 57.059,152.063 56.834,151.957C56.834,151.957 56.708,151.706 56.708,151.706C56.708,151.706 56.424,151.815 55.744,152.282C54.708,154.987 54.004,157.624 57.883,160.308C57.594,157.129 57.387,154.85 57.235,152.4C57.106,152.26 57.01,152.106 56.987,152.013M64.906,157.653C64.805,157.615 64.704,157.578 64.603,157.54C64.706,157.713 64.81,157.887 65.247,158.493C65.846,158.351 66.445,158.21 67.71,158.035C68.154,158.018 68.598,158.001 69.877,157.84C73.241,157.265 76.605,156.689 79.97,156.114C80.277,156.485 80.585,156.856 80.892,157.227C79.929,158.751 78.966,160.275 77.985,161.134C77.713,160.58 77.44,160.026 77.168,159.473C76.777,160.589 76.387,161.704 75.136,162.98C70.098,163.53 65.061,164.081 60.023,164.631C60.056,165.041 60.088,165.452 60.12,165.862C68.096,166.79 76.072,167.719 84.655,168.718C84.474,166.391 83.894,164.274 84.248,162.326C84.937,158.52 81.257,154.307 85.887,150.69C86.135,150.305 86.384,149.92 86.633,149.535C85.757,149.423 84.881,149.312 83.141,148.996C74.411,149.05 65.576,145.856 56.927,150.195C65.33,150.881 73.733,151.567 82.137,152.254C82.116,152.797 82.096,153.341 82.075,153.885C77.64,154.588 73.205,155.292 68.182,156.087C67.756,156.691 67.331,157.294 66.291,157.946C65.88,157.936 65.469,157.926 64.906,157.653M95.875,153.042C95.875,153.042 95.945,153.025 96.033,151.929C91.777,150.111 92.578,153.861 92.633,155.52C92.787,160.151 93.5,164.764 94.002,169.486C97.141,169.667 100.38,169.85 103.619,170.042C107.062,170.246 110.505,170.458 114.72,170.955C116.314,171.275 117.907,171.594 118.974,171.808C118.974,165.841 118.974,159.916 119.725,153.862C125.018,152.252 130.312,150.642 135.606,149.032C135.49,148.525 135.374,148.019 135.258,147.512C131.964,147.996 128.671,148.489 125.376,148.961C120.64,149.641 115.918,150.662 111.161,150.875C106.534,151.082 101.866,150.499 97.223,150.177C94.246,149.971 93.736,150.83 95.875,153.042M106.967,32.66C106.915,32.949 106.863,33.237 106.068,33.322C105.53,35.58 105.317,37.983 104.388,40.067C102.128,45.144 102.801,50.815 102.036,55.991C101.144,62.03 98.803,67.166 96.769,72.479C94.085,79.487 96.268,93.164 101.976,98.406C99.117,102.217 100.698,105.88 102.174,109.842C102.174,109.842 101.84,110.164 101.133,110.246C99.09,115.486 96.099,120.577 95.247,126.003C94.218,132.552 95.003,139.386 95.003,146.319C102.133,146.79 107.891,147.171 114.131,147.584C114.131,145.866 114.147,144.075 114.128,142.284C114.072,137.125 113.845,131.962 113.986,126.809C114.114,122.107 112.425,117.759 112.672,112.839C113.311,100.086 112.424,87.253 111.985,74.457C111.935,72.989 110.333,71.54 110.373,70.108C110.471,66.539 111.453,62.984 111.444,59.425C111.425,51.619 111.011,43.814 111.057,35.351C113.032,34.328 115.007,33.304 116.966,32.288C113.511,26.463 110.349,21.135 106.533,14.702C106.066,19.608 105.501,23.009 105.517,26.407C105.526,28.205 106.546,29.998 106.967,32.66M92.746,176.283C102.761,177.225 112.777,178.166 122.829,179.893C122.852,182.969 122.875,186.045 122.898,189.121C123.444,189.077 123.991,189.034 124.537,188.99C124.863,185.388 125.19,181.786 126.252,178.205C134.115,175.355 141.978,172.504 149.842,169.654C149.673,169.022 149.505,168.39 149.337,167.758C145.633,168.496 141.907,169.14 138.229,169.99C130.714,171.726 123.302,174.422 115.701,175.111C109.443,175.679 102.986,173.757 96.591,173.3C94.75,173.168 92.819,174.291 90.215,175.361C90.215,181.435 90.215,187.509 90.215,193.504C101.224,194.984 103.361,194.561 107.887,189.91C102.64,190.361 97.698,190.786 92.212,191.258C93.175,188.984 94.276,187.666 94.132,186.503C93.507,181.477 93.848,180.85 98.628,181.227C101.777,181.474 104.905,181.997 108.042,182.396C108.121,181.729 108.2,181.062 108.279,180.394C104.662,179.987 100.996,179.819 97.448,179.081C95.46,178.668 93.668,177.313 92.746,176.283M64.945,184.311C64.271,183.337 63.598,182.364 62.924,181.39C62.62,181.533 62.315,181.676 62.01,181.819C62.364,182.932 62.718,184.044 63.318,185.785C67.109,189.23 70.91,192.654 76.73,192.067C77.196,187.633 78.335,183.489 77.833,179.554C77.394,176.115 78.804,174.734 81.704,173.187C81.971,173.005 82.237,172.823 82.504,172.642C82.001,172.474 81.499,172.306 80.148,171.923C74.709,171.399 69.272,170.485 63.829,170.447C56.888,170.399 49.973,167.143 42.23,170.253C40.269,174.011 39.277,177.838 41.55,181.911C42.036,178.485 42.522,175.058 43.911,171.675C54.654,172.773 65.397,173.87 76.14,174.967C76.115,175.58 76.09,176.193 76.065,176.806C71.184,176.806 66.303,176.806 61.215,176.806C64.755,178.473 67.864,179.664 70.628,181.403C71.48,181.939 71.78,184.039 71.553,185.281C71.458,185.807 69.339,186.25 68.16,186.205C67.096,186.165 66.06,185.408 64.945,184.311M76.118,64.424C76.234,64.675 76.416,64.86 76.391,65.739C76.252,65.969 76.113,66.2 75.922,66.853C75.933,67.28 75.943,67.706 75.135,67.82C71.499,67.589 71.856,70.22 71.772,72.523C71.446,81.507 70.956,90.49 70.914,99.475C70.903,101.893 72.259,104.317 72.987,106.738C73.712,106.916 74.436,107.095 75.16,107.273C75.568,106.123 75.977,104.973 76.385,103.823C76.875,104.309 77.366,104.796 77.856,105.282C76.636,106.537 75.426,107.803 74.192,109.044C72.383,110.862 69.17,112.523 68.972,114.495C67.996,124.173 67.819,133.932 67.358,143.687C74.405,144.381 80.937,145.025 88.961,145.815C88.14,139.014 87.369,132.59 86.585,126.168C86.486,125.357 85.912,124.285 86.241,123.79C90.092,118.008 88.1,111.093 89.848,105.165C92.198,97.193 87.954,91.488 85.687,85.014C85.436,84.298 83.35,84.224 81.937,83.798C83.918,76.928 86.117,70.032 87.861,63.023C89.251,57.437 85.812,50.784 82.531,50.31C82.353,47.451 82.566,44.677 81.939,42.11C80.693,37.009 81.503,32.79 84.54,28.301C86.777,24.994 87.304,20.531 88.593,16.583C84.799,19.436 81.916,22.599 79.502,26.086C77.15,29.484 74.044,33.022 73.452,36.838C72.235,44.681 72.334,52.749 72.227,60.728C72.203,62.492 72.563,65.464 76.118,64.424M56.32,186.045C50.072,181.934 43.193,182.954 37.951,188.771C48.447,194.287 51.531,194.349 59.912,189.089C58.884,188.191 57.903,187.334 56.32,186.045M129.718,199.093C130.137,198.381 131.03,197.15 130.903,197.033C128.974,195.268 127.112,192.675 124.838,192.208C120.722,191.363 114.704,197.25 114.225,201.533C117.033,201.095 119.867,200.648 122.703,200.212C124.774,199.894 126.848,199.59 129.718,199.093M32.585,181.359C26.421,178.049 22.383,180.075 21.645,186.966C25.182,185.276 28.657,183.615 32.585,181.359M139.693,188.559C139.295,189.575 138.897,190.59 138.475,191.667C142.471,191.037 146.171,190.454 149.871,189.871C146.612,188.5 144.031,183.872 139.693,188.559M166.094,184.413C166.424,183.987 167.105,183.265 167.033,183.18C164.601,180.312 160.703,180.339 156.861,184.053C160.218,184.331 162.797,184.544 166.094,184.413M56.457,162.17C53.728,162.03 53.728,162.03 55.4,166.679C56.069,164.814 56.43,163.809 56.457,162.17M60.905,181.507C60.497,181.147 60.089,180.787 59.681,180.427C59.532,180.997 59.384,181.567 59.235,182.137C59.749,182.136 60.263,182.135 60.905,181.507M88.181,32.262C88.025,32.374 87.869,32.487 87.714,32.599C87.931,32.577 88.147,32.555 88.181,32.262z"/><path fill="#f3f3f3" d="M157.014,196.996C156.699,195.462 156.385,193.929 156.059,192.342C161.695,192.342 167.375,192.342 173.392,192.342C172.741,193.077 172.124,193.773 170.351,195.774C177.482,195.046 183.374,194.445 189.633,193.922C190,199.297 190,204.594 190,210C173.979,210 157.958,210 141.469,210C142.862,208.981 144.724,207.962 146.019,207.253C144.061,204.903 142.155,202.616 140.248,200.328C140.474,199.867 140.699,199.406 140.925,198.945C144.307,198.945 147.688,198.945 151.87,199.081C152.372,200.061 152.074,200.904 151.731,201.876C157.504,202.384 163.051,204.496 169.009,200.887C165.247,197.51 161.519,196.134 157.014,196.996z"/><path fill="#e8e9e9" d="M126.463,210C129.667,208.953 133.314,207.814 137.028,206.978C137.475,206.877 138.29,208.413 138.967,209.595C134.975,210 130.951,210 126.463,210z"/><path fill="#29292a" d="M51.049,207.047C50.169,206.574 49.704,206.117 49.24,205.66C51.349,203.821 60.093,204.083 64,207.062C58.971,207.062 55.218,207.062 51.049,207.047z"/><path fill="#161516" d="M161.122,170.693C159.904,171.004 158.907,171.004 157.535,171.007C158.714,167.6 160.268,164.192 161.821,160.783C162.389,160.964 162.957,161.145 163.525,161.327C162.798,164.345 162.07,167.363 161.122,170.693z"/><path fill="#f0f0f0" d="M75.973,66.43C76.113,66.2 76.252,65.969 76.722,65.141C76.908,64.185 76.762,63.827 76.617,63.469C76.415,63.66 76.214,63.851 76.012,64.042C72.563,65.464 72.203,62.492 72.227,60.728C72.334,52.749 72.235,44.681 73.452,36.838C74.044,33.022 77.15,29.484 79.502,26.086C81.916,22.599 84.799,19.436 88.593,16.583C87.304,20.531 86.777,24.994 84.54,28.301C81.503,32.79 80.693,37.009 81.939,42.11C82.566,44.677 82.353,47.451 82.531,50.31C85.812,50.784 89.251,57.437 87.861,63.023C86.117,70.032 83.918,76.928 81.937,83.798C83.35,84.224 85.436,84.298 85.687,85.014C87.954,91.488 92.198,97.193 89.848,105.165C88.1,111.093 90.092,118.008 86.241,123.79C85.912,124.285 86.486,125.357 86.585,126.168C87.369,132.59 88.14,139.014 88.961,145.815C80.937,145.025 74.405,144.381 67.358,143.687C67.819,133.932 67.996,124.173 68.972,114.495C69.17,112.523 72.383,110.862 74.192,109.044C75.426,107.803 76.636,106.537 77.856,105.282C77.366,104.796 76.875,104.309 76.385,103.823C75.977,104.973 75.568,106.123 75.16,107.273C74.436,107.095 73.712,106.916 72.987,106.738C72.259,104.317 70.903,101.893 70.914,99.475C70.956,90.49 71.446,81.507 71.772,72.523C71.856,70.22 71.499,67.589 75.562,68.348C76.276,69.14 76.564,69.404 76.852,69.668C76.559,68.588 76.266,67.509 75.973,66.43M77.804,136.938C77.804,132.037 77.804,127.136 77.804,122.235C77.581,122.208 77.358,122.181 77.136,122.155C76.895,123.151 76.653,124.148 75.738,125.198C75.581,125.806 75.425,126.414 75.053,127.892C75.053,130.457 75.053,133.023 75.053,135.588C74.785,135.6 74.516,135.611 74.248,135.622C73.832,133.219 73.417,130.816 73.001,128.414C72.667,128.488 72.333,128.562 71.999,128.636C71.217,133.058 70.436,137.48 69.492,142.818C71.502,141.998 72.747,141.489 74.74,141.048C79.672,142.119 75.642,137.991 77.804,136.938M77.034,34.611C77.881,34.792 78.729,34.974 79.576,35.155C79.626,34.866 79.676,34.577 79.726,34.289C79.015,34.206 78.303,34.124 77.034,34.611z"/><path fill="#f0f0f0" d="M102.518,109.53C100.698,105.88 99.117,102.217 101.976,98.406C96.268,93.164 94.085,79.487 96.769,72.479C98.803,67.166 101.144,62.03 102.036,55.991C102.801,50.815 102.128,45.144 104.388,40.067C105.317,37.983 105.53,35.58 106.533,33.69C107.907,34.659 108.817,35.26 109.982,35.917C110.411,35.985 110.585,35.997 110.759,36.009C111.011,43.814 111.425,51.619 111.444,59.425C111.453,62.984 110.471,66.539 110.373,70.108C110.333,71.54 111.935,72.989 111.985,74.457C112.424,87.253 113.311,100.086 112.672,112.839C112.425,117.759 114.114,122.107 113.986,126.809C113.845,131.962 114.072,137.125 114.128,142.284C114.147,144.075 114.131,145.866 114.131,147.584C107.891,147.171 102.133,146.79 95.003,146.319C95.003,139.386 94.218,132.552 95.247,126.003C96.099,120.577 99.09,115.486 101.604,110.515C102.449,110.734 102.823,110.686 103.197,110.637C102.971,110.268 102.744,109.899 102.518,109.53M107.977,136.492C107.614,137.222 107.136,138.623 106.905,138.584C102.455,137.825 104.323,141.441 103.195,143.048C105.98,143.744 108.31,144.327 112.372,145.343C110.645,141.326 109.461,138.572 107.977,136.492z"/><path fill="#e8e9e9" d="M81.122,173.295C78.804,174.734 77.394,176.115 77.833,179.554C78.335,183.489 77.196,187.633 76.73,192.067C70.91,192.654 67.109,189.23 63.514,185.406C64.144,185.007 64.578,184.987 65.011,184.968C66.06,185.408 67.096,186.165 68.16,186.205C69.339,186.25 71.458,185.807 71.553,185.281C71.78,184.039 71.48,181.939 70.628,181.403C67.864,179.664 64.755,178.473 61.215,176.806C66.303,176.806 71.184,176.806 76.065,176.806C76.09,176.193 76.115,175.58 76.14,174.967C65.397,173.87 54.654,172.773 43.469,171.412C43.022,170.826 43.016,170.504 43.007,170.182C49.973,167.143 56.888,170.399 63.829,170.447C69.272,170.485 74.709,171.399 80.595,172.321C81.069,172.911 81.095,173.103 81.122,173.295z"/><path fill="#e5e6e5" d="M85.332,150.873C81.257,154.307 84.937,158.52 84.248,162.326C83.894,164.274 84.474,166.391 84.655,168.718C76.072,167.719 68.096,166.79 60.12,165.862C60.088,165.452 60.056,165.041 60.023,164.631C65.061,164.081 70.098,163.53 75.865,162.912C77.064,162.495 77.533,162.147 78.003,161.799C78.966,160.275 79.929,158.751 80.892,157.227C80.585,156.856 80.277,156.485 79.97,156.114C76.605,156.689 73.241,157.265 69.284,157.61C68.718,156.919 68.744,156.457 68.77,155.996C73.205,155.292 77.64,154.588 82.075,153.885C82.096,153.341 82.116,152.797 82.137,152.254C73.733,151.567 65.33,150.881 56.927,150.195C65.576,145.856 74.411,149.05 83.84,149.567C84.803,150.383 85.068,150.628 85.332,150.873z"/><path fill="#e0e1e0" d="M90.93,174.838C92.819,174.291 94.75,173.168 96.591,173.3C102.986,173.757 109.443,175.679 115.701,175.111C123.302,174.422 130.714,171.726 138.229,169.99C141.907,169.14 145.633,168.496 149.337,167.758C149.505,168.39 149.673,169.022 149.842,169.654C141.978,172.504 134.115,175.355 125.51,178.156C124.11,178.44 123.451,178.774 122.793,179.108C112.777,178.166 102.761,177.225 92.145,176.146C91.34,175.619 91.135,175.228 90.93,174.838z"/><path fill="#e7e8e8" d="M113.948,170.666C110.505,170.458 107.062,170.246 103.619,170.042C100.38,169.85 97.141,169.667 94.002,169.486C93.5,164.764 92.787,160.151 92.633,155.52C92.578,153.861 91.777,150.111 95.554,152.589C96.423,154.073 97.696,155.419 99.132,155.623C103.041,156.179 107.019,156.252 110.922,156.732C110.925,157.236 110.957,157.527 110.662,157.97C110.243,158.764 110.129,159.408 109.64,159.975C104.923,159.698 100.583,159.498 96.402,159.305C96.402,161.409 96.402,163.339 96.402,165.948C100.44,165.948 104.217,165.948 108.329,166.206C108.698,170.751 112.509,167.676 113.958,169.433C113.89,170.009 113.891,170.337 113.948,170.666z"/><path fill="#edeeed" d="M56.621,186.261C57.903,187.334 58.884,188.191 59.912,189.089C51.531,194.349 48.447,194.287 37.951,188.771C43.193,182.954 50.072,181.934 56.621,186.261z"/><path fill="#dcdddd" d="M90.572,175.1C91.135,175.228 91.34,175.619 91.667,176.196C93.668,177.313 95.46,178.668 97.448,179.081C100.996,179.819 104.662,179.987 108.279,180.394C108.2,181.062 108.121,181.729 108.042,182.396C104.905,181.997 101.777,181.474 98.628,181.227C93.848,180.85 93.507,181.477 94.132,186.503C94.276,187.666 93.175,188.984 92.212,191.258C97.698,190.786 102.64,190.361 107.887,189.91C103.361,194.561 101.224,194.984 90.215,193.504C90.215,187.509 90.215,181.435 90.572,175.1z"/><path fill="#e3e3e3" d="M110.908,35.68C110.585,35.997 110.411,35.985 110.04,35.591C108.933,34.07 108.021,32.932 107.11,31.793C106.546,29.998 105.526,28.205 105.517,26.407C105.501,23.009 106.066,19.608 106.533,14.702C110.349,21.135 113.511,26.463 116.966,32.288C115.007,33.304 113.032,34.328 110.908,35.68z"/><path fill="#e7e8e8" d="M95.803,153.044C93.736,150.83 94.246,149.971 97.223,150.177C101.866,150.499 106.534,151.082 111.161,150.875C115.918,150.662 120.64,149.641 125.376,148.961C128.671,148.489 131.964,147.996 135.258,147.512C135.374,148.019 135.49,148.525 135.606,149.032C130.312,150.642 125.018,152.252 119.08,153.977C117.979,154.389 117.524,154.687 116.721,154.759C109.518,154.037 102.66,153.541 95.803,153.044z"/><path fill="#f0f0f0" d="M129.319,199.187C126.848,199.59 124.774,199.894 122.703,200.212C119.867,200.648 117.033,201.095 114.225,201.533C114.704,197.25 120.722,191.363 124.838,192.208C127.112,192.675 128.974,195.268 130.903,197.033C131.03,197.15 130.137,198.381 129.319,199.187z"/><path fill="#1a1a1a" d="M156.722,197.102C161.519,196.134 165.247,197.51 169.009,200.887C163.051,204.496 157.504,202.384 151.731,201.876C152.074,200.904 152.372,200.061 152.329,199.029C153.469,198.296 154.95,197.752 156.722,197.102z"/><path fill="#c9cac9" d="M117.068,154.985C117.524,154.687 117.979,154.389 118.705,154.041C118.974,159.916 118.974,165.841 118.974,171.808C117.907,171.594 116.314,171.275 114.334,170.811C113.891,170.337 113.89,170.009 114.378,169.375C119.254,166.86 115.769,163.22 116.079,160.322C116.148,159.678 112.763,158.664 110.968,157.82C110.957,157.527 110.925,157.236 111.289,156.652C113.491,155.899 115.28,155.442 117.068,154.985z"/><path fill="#1a1a1a" d="M116.721,154.759C115.28,155.442 113.491,155.899 111.336,156.437C107.019,156.252 103.041,156.179 99.132,155.623C97.696,155.419 96.423,154.073 95.51,153.137C95.945,153.025 95.875,153.042 95.839,153.043C102.66,153.541 109.518,154.037 116.721,154.759z"/><path fill="#e2e3e2" d="M32.359,181.656C28.657,183.615 25.182,185.276 21.645,186.966C22.383,180.075 26.421,178.049 32.359,181.656z"/><path fill="#e2e3e2" d="M139.919,188.215C144.031,183.872 146.612,188.5 149.871,189.871C146.171,190.454 142.471,191.037 138.475,191.667C138.897,190.59 139.295,189.575 139.919,188.215z"/><path fill="#d8d8d8" d="M165.735,184.585C162.797,184.544 160.218,184.331 156.861,184.053C160.703,180.339 164.601,180.312 167.033,183.18C167.105,183.265 166.424,183.987 165.735,184.585z"/><path fill="#c9cac9" d="M122.811,179.5C123.451,178.774 124.11,178.44 125.142,178.145C125.19,181.786 124.863,185.388 124.537,188.99C123.991,189.034 123.444,189.077 122.898,189.121C122.875,186.045 122.852,182.969 122.811,179.5z"/><path fill="#0e0e0e" d="M57.181,152.571C57.387,154.85 57.594,157.129 57.883,160.308C54.004,157.624 54.708,154.987 56.288,151.995C56.832,151.707 57.059,152.063 57.059,152.063C57.059,152.063 56.987,152.013 57.14,152.091C57.293,152.168 57.181,152.571 57.181,152.571z"/><path fill="#e2e3e2" d="M42.618,170.218C43.016,170.504 43.022,170.826 43.017,171.39C42.522,175.058 42.036,178.485 41.55,181.911C39.277,177.838 40.269,174.011 42.618,170.218z"/><path fill="#0e0e0e" d="M56.624,162.487C56.43,163.809 56.069,164.814 55.4,166.679C53.728,162.03 53.728,162.03 56.624,162.487z"/><path fill="#272727" d="M107.038,32.227C108.021,32.932 108.933,34.07 109.785,35.535C108.817,35.26 107.907,34.659 106.904,33.792C106.863,33.237 106.915,32.949 107.038,32.227z"/><path fill="#161516" d="M64.978,184.639C64.578,184.987 64.144,185.007 63.39,185.091C62.718,184.044 62.364,182.932 62.01,181.819C62.315,181.676 62.62,181.533 62.924,181.39C63.598,182.364 64.271,183.337 64.978,184.639z"/><path fill="#0e0e0e" d="M77.994,161.467C77.533,162.147 77.064,162.495 76.295,162.832C76.387,161.704 76.777,160.589 77.168,159.473C77.44,160.026 77.713,160.58 77.994,161.467z"/><path fill="#161516" d="M60.84,181.821C60.263,182.135 59.749,182.136 59.235,182.137C59.384,181.567 59.532,180.997 59.681,180.427C60.089,180.787 60.497,181.147 60.84,181.821z"/><path fill="#0e0e0e" d="M68.476,156.042C68.744,156.457 68.718,156.919 68.867,157.682C68.598,158.001 68.154,158.018 67.343,158.008C66.977,157.981 66.905,157.897 66.905,157.897C67.331,157.294 67.756,156.691 68.476,156.042z"/><path fill="#161516" d="M75.948,66.642C76.266,67.509 76.559,68.588 76.852,69.668C76.564,69.404 76.276,69.14 75.971,68.504C75.943,67.706 75.933,67.28 75.948,66.642z"/><path fill="#e2e3e2" d="M85.609,150.781C85.068,150.628 84.803,150.383 84.272,149.669C84.881,149.312 85.757,149.423 86.632,149.535C86.384,149.92 86.135,150.305 85.609,150.781z"/><path fill="#161516" d="M88.273,32.397C88.147,32.555 87.931,32.577 87.714,32.599C87.869,32.487 88.025,32.374 88.273,32.397z"/><path fill="#0e0e0e" d="M67.01,158.024C66.445,158.21 65.846,158.351 65.119,158.243C64.992,157.994 65.058,157.916 65.058,157.916C65.469,157.926 65.88,157.936 66.598,157.922C66.905,157.897 66.977,157.981 67.01,158.024z"/><path fill="#e2e3e2" d="M81.413,173.241C81.095,173.103 81.069,172.911 81.019,172.429C81.499,172.306 82.001,172.474 82.504,172.642C82.237,172.823 81.971,173.005 81.413,173.241z"/><path fill="#161516" d="M76.065,64.233C76.214,63.851 76.415,63.66 76.617,63.469C76.762,63.827 76.908,64.185 76.859,64.761C76.416,64.86 76.234,64.675 76.065,64.233z"/><path fill="#fbfbfb" d="M29.72,192.665C29.951,192.62 30.387,192.819 30.598,193.192C30.224,193.213 30.075,193.061 29.72,192.665z"/><path fill="#fbfbfb" d="M108.666,201.595C108.939,201.33 109.369,201.267 109.8,201.203C109.782,201.461 109.764,201.718 109.46,202.072C109.056,202.045 108.94,201.921 108.666,201.595z"/><path fill="#e2e3e2" d="M56.947,152.01C57.059,152.063 56.832,151.707 56.628,151.761C56.424,151.815 56.708,151.706 56.708,151.706C56.708,151.706 56.834,151.957 56.947,152.01z"/><path fill="#0e0e0e" d="M64.953,158.027C64.81,157.887 64.706,157.713 64.603,157.54C64.704,157.578 64.805,157.615 64.982,157.785C65.058,157.916 64.992,157.994 64.953,158.027z"/><path fill="#e2e3e2" d="M57.208,152.485C57.181,152.571 57.293,152.168 57.119,152.052C57.01,152.106 57.106,152.26 57.208,152.485z"/><path fill="#29292a" d="M76.412,125.144C76.653,124.148 76.895,123.151 77.136,122.155C77.358,122.181 77.581,122.208 77.804,122.235C77.804,127.136 77.804,132.037 77.051,136.971C75.529,138.329 74.761,139.655 73.993,140.981C72.747,141.489 71.502,141.998 69.492,142.818C70.436,137.48 71.217,133.058 71.999,128.636C72.333,128.562 72.667,128.488 73.001,128.414C73.417,130.816 73.832,133.219 74.248,135.622C74.516,135.611 74.785,135.6 75.053,135.588C75.053,133.023 75.053,130.457 75.421,127.437C75.997,126.369 76.204,125.757 76.412,125.144z"/><path fill="#373738" d="M74.366,141.014C74.761,139.655 75.529,138.329 76.684,137.016C75.642,137.991 79.672,142.119 74.366,141.014z"/><path fill="#373738" d="M76.075,125.171C76.204,125.757 75.997,126.369 75.529,127.001C75.425,126.414 75.581,125.806 76.075,125.171z"/><path fill="#161516" d="M77.312,34.326C78.303,34.124 79.015,34.206 79.726,34.289C79.676,34.577 79.626,34.866 79.576,35.155C78.729,34.974 77.881,34.792 77.312,34.326z"/><path fill="#252425" d="M108.127,136.155C109.461,138.572 110.645,141.326 112.372,145.343C108.31,144.327 105.98,143.744 103.195,143.048C104.323,141.441 102.455,137.825 106.905,138.584C107.136,138.623 107.614,137.222 108.127,136.155z"/><path fill="#0b0b0b" d="M102.346,109.686C102.744,109.899 102.971,110.268 103.197,110.637C102.823,110.686 102.449,110.734 101.958,110.474C101.84,110.164 102.174,109.842 102.346,109.686z"/><path fill="#131313" d="M107.994,165.948C104.217,165.948 100.44,165.948 96.402,165.948C96.402,163.339 96.402,161.409 96.402,159.305C100.583,159.498 104.923,159.698 109.625,160.324C109.654,162.058 109.322,163.366 108.743,164.845C108.31,165.342 108.124,165.666 107.968,166.001C107.998,166.012 107.994,165.948 107.994,165.948z"/><path fill="#1a1a1a" d="M108.99,164.674C109.322,163.366 109.654,162.058 110,160.401C110.129,159.408 110.243,158.764 110.662,157.97C112.763,158.664 116.148,159.678 116.079,160.322C115.769,163.22 119.254,166.86 114.388,169.127C112.509,167.676 108.698,170.751 108.329,166.206C107.994,165.948 107.998,166.012 108.208,166.348C108.608,166.015 108.799,165.344 108.99,164.674z"/><path fill="#e7e8e8" d="M108.743,164.845C108.799,165.344 108.608,166.015 108.177,166.338C108.124,165.666 108.31,165.342 108.743,164.845z"/></svg>