<svg xmlns="http://www.w3.org/2000/svg" viewBox="0 0 216 177" xml:space="preserve"><path fill="#070707" d="M132.103,135.725C140.04,141.27 147.978,146.815 156.122,152.503C153.771,152.887 150.746,153.694 147.699,153.791C144.437,153.895 141.155,153.33 136.403,152.934C139.447,155.546 141.486,157.295 144.606,159.97C136.415,159.97 129.71,160.415 123.092,159.842C116.853,159.301 110.707,157.687 103.574,156.37C104.841,158.941 105.61,160.5 106.568,162.442C105.191,162.761 104.06,163.023 101.873,163.53C104.262,165.179 106.011,166.386 108.931,168.401C106.456,168.401 105.037,168.595 103.689,168.369C95.297,166.96 86.876,165.67 78.564,163.876C75.456,163.205 72.07,161.9 69.758,159.826C63.397,154.121 56.464,153.187 48.056,155.469C43.99,157.175 41.018,156.471 38.206,153.829C37.629,153.287 36.409,153.429 35.486,153.256C26.879,152.415 18.271,151.575 10.512,150.817C15.324,143.751 20.121,137.116 24.461,130.196C27.525,125.309 26.414,119.999 24.69,114.849C22.138,107.228 20.345,99.558 23.976,91.774C24.65,90.329 25.584,88.308 26.813,87.941C31.584,86.516 32.116,82.664 32.802,78.804C33.302,75.992 32.973,73.764 29.618,72.617C25.691,71.274 25.263,68.905 27.947,65.99C33.938,59.482 33.938,59.482 27.204,54.552C34.118,51.701 35.968,45.006 38.977,39.131C39.823,37.479 41.143,35.536 42.722,34.889C48.395,32.566 54.658,31.554 57.781,25.075C58.718,23.129 60.625,23.353 61.688,25.922C63.021,29.14 64.186,32.83 66.588,35.06C68.209,36.564 71.844,35.897 75.103,36.696C78.485,38.694 77.906,36.482 77.999,34.998C78.323,30.733 77.892,26.238 79.111,22.246C83.043,9.366 92.834,5.569 105.875,9.541C124.135,15.103 122.977,34.48 114.323,44.8C112.788,46.631 110.413,47.757 108.024,49.504C116.843,53.3 121.047,59.74 122.316,69.355C123.303,76.836 127.056,83.953 129.88,92.097C133.845,90.235 136.95,88.777 140.396,87.159C141.591,89.443 143.237,92.589 145.485,96.885C147.836,94.972 150.518,92.79 153.211,90.599C159.991,101.022 167.085,111.928 174.181,122.833C181.604,134.24 194.184,138.957 205.191,145.714C205.037,146.418 204.884,147.123 204.73,147.827C193.098,147.887 181.466,147.946 169.156,147.735C166.704,147.183 164.929,146.901 163.154,146.619C157.98,143.23 152.819,139.819 147.626,136.46C143.914,134.058 140.254,131.55 136.383,129.431C134.315,128.299 132.368,128.615 132.563,132.269C131.182,132.475 130.161,132.269 127.702,131.773C129.855,133.707 130.979,134.716 132.103,135.725M157.12,123.678C156.911,132.894 167.178,138.373 177.286,133.674C171.655,129.951 166.374,126.46 161.056,122.191C158.171,115.59 155.395,108.936 152.264,102.454C151.863,101.625 149.306,101.029 148.287,101.497C146.746,102.206 144.362,104.348 144.618,105.184C146.796,112.308 149.598,119.202 157.12,123.678M101.567,76.505C104.305,78.907 107.044,81.308 110.25,84.121C111.588,79.706 113.286,75.557 114.065,71.242C116.075,60.099 105.152,51.288 94.358,55.062C91.208,62.526 98.9,62.377 102.066,65.496C95.259,68.474 92.157,67.294 88.076,61.549C83.849,55.598 79.155,49.973 74.513,44.331C74.015,43.726 72.496,43.961 70.045,43.597C72.205,47.972 73.67,51.406 75.537,54.604C78.09,58.976 74.727,65.721 69.676,65.955C68.349,66.017 66.902,65.652 65.717,66.07C64.32,66.564 62.139,67.628 62.077,68.564C61.919,70.941 61.165,73.775 64.86,75.091C74.14,78.394 83.204,77.952 92.521,75.192C95.049,74.443 98.154,75.642 101.567,76.505M95.35,50.982C96.964,50.269 98.579,49.556 100.193,48.843C99.823,48.606 99.453,48.368 99.083,48.13C99.633,46.498 99.866,44.648 100.803,43.281C102.58,40.685 104.775,38.377 106.771,35.929C110.155,31.778 113.751,27.392 110.932,21.749C108.246,16.374 102.654,13.842 97.262,13.263C88.101,12.281 80.919,22.813 83.675,32.334C84.263,34.363 85.453,37.274 87.005,37.769C91.593,39.23 91.786,43.122 93.088,46.483C93.658,47.953 94.063,49.487 95.35,50.982M77.971,88.079C79.895,88.479 81.825,88.849 83.739,89.292C84.846,89.548 85.926,89.921 87.018,90.242C86.027,91.088 85.16,92.395 84.023,92.702C78.572,94.173 73.049,95.374 67.449,96.695C71.022,98.663 73.276,103.62 78.892,100.554C84.965,97.239 91.435,94.658 97.609,91.517C99.99,90.306 102.035,88.437 104.429,86.728C101.02,83.086 98.888,79.535 93.561,80.119C83.863,81.184 74.093,81.594 63.41,82.343C64.584,83.676 65.485,85.627 66.885,86.101C70.199,87.224 73.749,87.645 77.971,88.079M64.053,45.418C63.689,44.329 63.307,43.246 62.965,42.15C61.716,38.154 59.942,36.62 55.012,37.633C47.145,39.251 44.125,45.729 39.475,50.585C36.793,53.385 37.933,56.448 41.74,56.861C45.407,57.258 49.151,56.947 53.116,56.947C51.779,52.693 50.659,49.132 49.539,45.57C50.106,45.355 50.673,45.139 51.24,44.924C53.628,48.232 55.669,51.895 58.544,54.705C60.074,56.2 63.049,56.217 65.371,56.901C65.604,55.03 66.144,53.132 65.979,51.296C65.822,49.544 64.93,47.858 64.053,45.418M31.079,147.993C32.783,147.636 35,147.827 36.09,146.811C38.707,144.37 40.795,141.362 43.715,137.836C47.351,145.778 54.364,147.238 62.977,148.795C57.627,141.53 53.127,135.11 48.266,128.976C46.398,126.619 38.729,126.078 37.892,128.121C35.348,134.33 33.442,140.799 31.079,147.993M118.106,127.48C122.888,127.937 125.304,124.615 126.958,121.131C128.522,117.836 127.392,114.742 124.239,112.361C122.069,110.723 120.067,108.699 118.477,106.496C116.649,103.964 114.38,101.954 111.767,104.069C109.227,106.125 108.382,109.358 111.596,112.192C112.368,112.873 113.437,114.171 113.236,114.849C111.698,120.043 115.051,123.311 118.106,127.48M33.888,93.055C26.793,96.894 26.942,102.618 30.673,112.648C33.211,112.435 35.816,112.218 38.421,111.998C38.917,111.956 39.421,111.95 39.907,111.854C46.646,110.536 46.656,110.529 43.924,104.341C42.994,102.234 41.786,100.226 41.08,98.051C40.034,94.831 38.208,92.902 33.888,93.055M53.113,109.402C54.245,115.414 55.377,121.427 56.689,128.398C65.43,108.035 65.066,104.809 53.368,93.988C50.854,94.781 49.536,95.911 50.702,98.996C51.852,102.039 52.285,105.353 53.113,109.402M102.282,140.682C100.313,141.295 98.345,141.907 96.398,142.513C103.573,150.592 117.614,155.087 127.037,152.23C122.94,148.809 118.083,146.007 115.057,141.866C112.149,137.886 109.157,138.9 105.769,139.286C104.81,139.395 103.898,139.909 102.282,140.682M88.534,122.081C90.683,122.181 92.895,122.652 94.967,122.298C98.358,121.719 102.541,121.562 101.953,116.749C94.673,115.522 87.688,114.475 80.758,113.141C73.259,111.696 73.281,111.579 70.382,117.122C76.476,121.6 80.72,122.818 88.534,122.081M108.612,130.987C107.431,129.667 106.249,128.347 105.016,126.97C95.961,129.914 86.994,130.328 77.474,125.249C84.986,138.021 96.441,141.147 108.612,130.987M94.651,153.872C90.839,151.66 87.027,149.447 83.052,147.14C82.09,148.249 80.868,149.354 80.019,150.694C77.352,154.904 78.973,158.027 83.917,157.954C88.538,157.886 93.151,157.401 98.571,157.046C96.944,155.795 96.059,155.113 94.651,153.872M39.928,78.654C37.046,80.338 37.077,82.672 39.174,84.69C41.596,87.022 44.462,88.892 46.614,90.559C53.041,87.705 50.278,83.517 49.691,79.673C46.568,79.343 43.641,79.033 39.928,78.654M133.693,118.989C134.944,118.321 136.276,117.766 137.421,116.95C138.377,116.268 139.841,115.267 139.826,114.43C139.75,110.071 138.907,105.893 134.419,102.771C132.572,107.993 130.504,112.703 129.341,117.627C128.801,119.91 130.5,121.547 133.693,118.989M44.601,73.039C50.779,72.803 52.621,70.188 50.223,65.666C48.059,61.586 44.878,62.888 42.176,63.994C40.365,64.735 39.15,66.934 37.668,68.48C39.694,70.022 41.72,71.564 44.601,73.039M41.822,122.142C43.2,121.445 44.768,120.961 45.881,119.968C46.492,119.423 46.693,117.892 46.394,117.048C46.204,116.515 44.73,116.131 43.87,116.194C39.67,116.504 35.483,116.986 31.292,117.419C32.507,122.218 30.697,121.557 41.822,122.142M92.249,108.358C94.441,108.672 96.633,108.986 98.825,109.301C99.127,108.846 99.429,108.392 99.73,107.937C98.226,106.337 96.76,103.423 95.211,103.378C90.255,103.235 85.268,104.155 80.292,104.665C80.364,104.928 80.435,105.191 80.506,105.454C84.147,106.342 87.789,107.231 92.249,108.358M80.585,27.516C80.585,27.516 80.477,27.58 80.585,27.516z"/><path fill="#232323" d="M35.616,153.586C36.409,153.429 37.629,153.287 38.206,153.829C41.018,156.471 43.99,157.175 47.661,155.443C50.372,157.697 52.855,159.724 56.154,162.417C48.316,162.417 41.357,162.417 34.296,162.417C34.844,159.199 35.295,156.558 35.616,153.586z"/><path fill="#131212" d="M167.006,155.904C168.896,155.385 170.765,154.758 172.681,154.366C178.67,153.144 183.31,155.272 187.074,161.079C179.26,160.574 171.832,160.095 163.701,159.571C164.958,158.124 165.529,157.467 166.402,156.489C166.704,156.168 167.006,155.904 167.006,155.904z"/><path fill="#f0f1f1" d="M166.942,155.562C167.006,155.904 166.704,156.168 166.505,156.144C164.124,154.766 161.941,153.413 160.065,152.249C160.967,150.81 162.021,149.13 163.114,147.034C164.929,146.901 166.704,147.183 168.735,147.746C166.505,149.901 162.944,151.459 166.942,155.562z"/><path fill="#f0f1f1" d="M132.163,135.332C130.979,134.716 129.855,133.707 127.702,131.773C130.161,132.269 131.182,132.475 132.54,132.667C132.659,133.416 132.442,134.177 132.163,135.332z"/><path fill="#0f0f0f" d="M77.779,35.163C77.906,36.482 78.485,38.694 75.412,37.005C75.983,36.322 76.771,35.825 77.779,35.163z"/><path fill="#f5f6f6" d="M101.28,76.226C98.154,75.642 95.049,74.443 92.521,75.192C83.204,77.952 74.14,78.394 64.86,75.091C61.165,73.775 61.919,70.941 62.077,68.564C62.139,67.628 64.32,66.564 65.717,66.07C66.902,65.652 68.349,66.017 69.676,65.955C74.727,65.721 78.09,58.976 75.537,54.604C73.67,51.406 72.205,47.972 70.045,43.597C72.496,43.961 74.015,43.726 74.513,44.331C79.155,49.973 83.849,55.598 88.076,61.549C92.157,67.294 95.259,68.474 102.066,65.496C98.9,62.377 91.208,62.526 94.358,55.062C105.152,51.288 116.075,60.099 114.065,71.242C113.286,75.557 111.588,79.706 110.25,84.121C107.044,81.308 104.305,78.907 101.28,76.226z"/><path fill="#f6f7f7" d="M94.946,50.987C94.063,49.487 93.658,47.953 93.088,46.483C91.786,43.122 91.593,39.23 87.005,37.769C85.453,37.274 84.263,34.363 83.675,32.334C80.919,22.813 88.101,12.281 97.262,13.263C102.654,13.842 108.246,16.374 110.932,21.749C113.751,27.392 110.155,31.778 106.771,35.929C104.775,38.377 102.58,40.685 100.803,43.281C99.866,44.648 99.633,46.498 99.083,48.13C99.453,48.368 99.823,48.606 100.193,48.843C98.579,49.556 96.964,50.269 94.946,50.987M98.235,34.882C103.708,33.09 103.389,28.901 102.655,24.174C98.595,23.957 94.132,22.108 91.899,27.265C90.512,30.468 93.239,33.874 98.235,34.882z"/><path fill="#f0f1f1" d="M77.587,88.214C73.749,87.645 70.199,87.224 66.885,86.101C65.485,85.627 64.584,83.676 63.41,82.343C74.093,81.594 83.863,81.184 93.561,80.119C98.888,79.535 101.02,83.086 104.429,86.728C102.035,88.437 99.99,90.306 97.609,91.517C91.435,94.658 84.965,97.239 78.892,100.554C73.276,103.62 71.022,98.663 67.449,96.695C73.049,95.374 78.572,94.173 84.023,92.702C85.16,92.395 86.027,91.088 87.018,90.242C85.926,89.921 84.846,89.548 83.739,89.292C81.825,88.849 79.895,88.479 77.587,88.214z"/><path fill="#f6f6f6" d="M64.207,45.78C64.93,47.858 65.822,49.544 65.979,51.296C66.144,53.132 65.604,55.03 65.371,56.901C63.049,56.217 60.074,56.2 58.544,54.705C55.669,51.895 53.628,48.232 51.24,44.924C50.673,45.139 50.106,45.355 49.539,45.57C50.659,49.132 51.779,52.693 53.116,56.947C49.151,56.947 45.407,57.258 41.74,56.861C37.933,56.448 36.793,53.385 39.475,50.585C44.125,45.729 47.145,39.251 55.012,37.633C59.942,36.62 61.716,38.154 62.965,42.15C63.307,43.246 63.689,44.329 64.207,45.78z"/><path fill="#f2f3f3" d="M31.183,147.58C33.442,140.799 35.348,134.33 37.892,128.121C38.729,126.078 46.398,126.619 48.266,128.976C53.127,135.11 57.627,141.53 62.977,148.795C54.364,147.238 47.351,145.778 43.715,137.836C40.795,141.362 38.707,144.37 36.09,146.811C35,147.827 32.783,147.636 31.183,147.58z"/><path fill="#f4f5f5" d="M117.868,127.196C115.051,123.311 111.698,120.043 113.236,114.849C113.437,114.171 112.368,112.873 111.596,112.192C108.382,109.358 109.227,106.125 111.767,104.069C114.38,101.954 116.649,103.964 118.477,106.496C120.067,108.699 122.069,110.723 124.239,112.361C127.392,114.742 128.522,117.836 126.958,121.131C125.304,124.615 122.888,127.937 117.868,127.196z"/><path fill="#f5f5f5" d="M34.276,93.026C38.208,92.902 40.034,94.831 41.08,98.051C41.786,100.226 42.994,102.234 43.924,104.341C46.656,110.529 46.646,110.536 39.907,111.854C39.421,111.95 38.917,111.956 38.421,111.998C35.816,112.218 33.211,112.435 30.673,112.648C26.942,102.618 26.793,96.894 34.276,93.026z"/><path fill="#f1f1f1" d="M53.073,108.975C52.285,105.353 51.852,102.039 50.702,98.996C49.536,95.911 50.854,94.781 53.368,93.988C65.066,104.809 65.43,108.035 56.689,128.398C55.377,121.427 54.245,115.414 53.073,108.975z"/><path fill="#f7f7f7" d="M102.623,140.46C103.898,139.909 104.81,139.395 105.769,139.286C109.157,138.9 112.149,137.886 115.057,141.866C118.083,146.007 122.94,148.809 127.037,152.23C117.614,155.087 103.573,150.592 96.398,142.513C98.345,141.907 100.313,141.295 102.623,140.46z"/><path fill="#f4f5f5" d="M88.116,122.085C80.72,122.818 76.476,121.6 70.382,117.122C73.281,111.579 73.259,111.696 80.758,113.141C87.688,114.475 94.673,115.522 101.953,116.749C102.541,121.562 98.358,121.719 94.967,122.298C92.895,122.652 90.683,122.181 88.116,122.085z"/><path fill="#f4f5f5" d="M108.783,131.326C96.441,141.147 84.986,138.021 77.474,125.249C86.994,130.328 95.961,129.914 105.016,126.97C106.249,128.347 107.431,129.667 108.783,131.326z"/><path fill="#f6f7f6" d="M156.646,123.133C149.598,119.202 146.796,112.308 144.618,105.184C144.362,104.348 146.746,102.206 148.287,101.497C149.306,101.029 151.863,101.625 152.264,102.454C155.395,108.936 158.171,115.59 160.629,122.579C159.017,123.022 157.831,123.078 156.646,123.133z"/><path fill="#efefef" d="M156.883,123.405C157.831,123.078 159.017,123.022 160.648,122.968C166.374,126.46 171.655,129.951 177.286,133.674C167.178,138.373 156.911,132.894 156.883,123.405z"/><path fill="#f3f4f4" d="M94.913,154.152C96.059,155.113 96.944,155.795 98.571,157.046C93.151,157.401 88.538,157.886 83.917,157.954C78.973,158.027 77.352,154.904 80.019,150.694C80.868,149.354 82.09,148.249 83.052,147.14C87.027,149.447 90.839,151.66 94.913,154.152z"/><path fill="#ededed" d="M40.321,78.688C43.641,79.033 46.568,79.343 49.691,79.673C50.278,83.517 53.041,87.705 46.614,90.559C44.462,88.892 41.596,87.022 39.174,84.69C37.077,82.672 37.046,80.338 40.321,78.688z"/><path fill="#efefef" d="M133.371,119.159C130.5,121.547 128.801,119.91 129.341,117.627C130.504,112.703 132.572,107.993 134.419,102.771C138.907,105.893 139.75,110.071 139.826,114.43C139.841,115.267 138.377,116.268 137.421,116.95C136.276,117.766 134.944,118.321 133.371,119.159z"/><path fill="#f6f6f6" d="M44.174,73.072C41.72,71.564 39.694,70.022 37.668,68.48C39.15,66.934 40.365,64.735 42.176,63.994C44.878,62.888 48.059,61.586 50.223,65.666C52.621,70.188 50.779,72.803 44.174,73.072z"/><path fill="#f0f1f0" d="M41.441,122.216C30.697,121.557 32.507,122.218 31.292,117.413C35.483,116.986 39.67,116.504 43.87,116.194C44.73,116.131 46.204,116.515 46.394,117.048C46.693,117.892 46.492,119.423 45.881,119.968C44.768,120.961 43.2,121.445 41.441,122.216z"/><path fill="#ececec" d="M91.84,108.239C87.789,107.231 84.147,106.342 80.506,105.454C80.435,105.191 80.364,104.928 80.292,104.665C85.268,104.155 90.255,103.235 95.211,103.378C96.76,103.423 98.226,106.337 99.73,107.937C99.429,108.392 99.127,108.846 98.825,109.301C96.633,108.986 94.441,108.672 91.84,108.239z"/><path fill="#0f0f0f" d="M80.531,27.548C80.477,27.58 80.585,27.516 80.531,27.548z"/><path fill="#080808" d="M97.839,34.885C93.239,33.874 90.512,30.468 91.899,27.265C94.132,22.108 98.595,23.957 102.655,24.174C103.389,28.901 103.708,33.09 97.839,34.885z"/></svg>