<svg xmlns="http://www.w3.org/2000/svg" viewBox="0 0 274 89" xml:space="preserve"><path fill="#080808" d="M90.001,84.93C61.956,84.166 34.41,83.416 6.865,82.666C6.808,82.003 6.751,81.341 6.693,80.679C11.43,79.693 16.167,78.707 21.211,77.657C21.211,70.853 21.211,64.028 21.211,58.118C17.693,56.531 15.052,55.34 11.583,53.774C15.295,50.366 18.126,47.599 21.133,45.038C30.969,36.661 39.558,27.27 45.936,15.923C46.685,14.59 48.893,13.196 50.348,13.274C70.956,14.372 91.55,15.72 112.92,17.056C112.92,21.43 112.92,25.65 112.92,29.854C118.405,29.917 118.612,29.153 117.667,14.408C115.971,14.408 114.183,14.618 112.486,14.318C111.663,14.172 110.478,13.106 110.427,12.388C110.375,11.65 111.484,10.167 112.121,10.147C117.687,9.967 123.261,10.043 129.388,10.043C128.866,11.658 128.527,12.374 128.409,13.124C127.714,17.574 127.15,21.663 131.844,24.93C141.533,31.675 150.872,38.925 160.338,45.989C162.819,47.84 165.24,49.769 168.286,52.124C166.16,53.21 164.783,53.914 162.347,55.159C164.36,56.296 165.882,57.869 167.249,57.744C168.87,57.596 171.357,56.23 171.671,54.951C172.156,52.977 173.505,50.393 170.241,48.474C164.993,45.388 160.164,41.59 154.587,37.695C158.094,35.374 161.074,33.402 164.648,31.037C164.731,30.234 164.897,28.626 165.096,26.704C163.77,26.262 162.383,25.8 160.995,25.338C161.037,24.937 161.08,24.536 161.122,24.135C166.309,24.135 171.495,24.135 176.46,24.135C175.708,26.291 174.97,28.405 173.757,31.877C193.27,31.877 211.384,31.773 229.494,32.008C231.758,32.037 234.585,33.303 236.151,34.948C243.716,42.894 250.939,51.165 258.572,59.64C256.632,60.08 254.843,60.487 252.912,60.925C252.912,65.865 252.912,70.633 252.912,75.448C259.117,76.557 265.084,77.624 271.05,78.691C271.013,79.332 270.977,79.972 270.94,80.613C210.854,84.031 150.705,85.394 90.001,84.93M61.983,23.013C73.547,23.137 85.112,23.261 97.376,23.752C98.229,23.436 99.081,23.119 99.934,22.803C99.861,22.578 99.787,22.354 99.714,22.129C98.776,22.129 97.837,22.129 95.978,22.073C84.361,21.828 72.743,21.583 60.478,21.063C60.063,21.319 59.647,21.574 59.232,21.83C59.849,22.157 60.466,22.485 61.983,23.013M48.641,38.824C48.618,41.153 48.817,43.516 48.478,45.799C48.314,46.907 47.145,47.867 46.431,48.894C45.844,47.92 44.858,46.99 44.745,45.964C44.369,42.536 44.305,39.073 44.122,35.624C43.477,35.582 42.832,35.539 42.188,35.497C41.803,38.886 41.176,42.27 41.104,45.666C41.034,48.949 39.855,49.781 36.989,48.63C36.615,46.713 36.277,44.979 35.939,43.245C35.651,43.208 35.364,43.172 35.076,43.135C33.997,46.239 32.918,49.343 31.679,52.906C46.545,52.906 60.783,52.906 75.42,52.906C75.162,49.557 75.808,46.085 70.603,48.713C68.192,49.931 67.548,48.165 67.254,46.043C66.965,43.954 66.318,41.914 65.686,39.254C62.483,42.604 66.499,48.116 60.589,49.253C59.06,43.536 61.389,37.954 57.128,33.596C56.344,37.747 56.459,41.846 56.262,45.93C56.214,46.936 55.152,47.894 54.555,48.873C53.95,47.936 52.9,47.035 52.821,46.056C52.568,42.911 52.787,39.731 52.612,36.576C52.409,32.931 51.981,29.298 51.651,25.66C50.845,25.665 50.038,25.67 49.232,25.675C49.025,29.763 48.818,33.851 48.641,38.824M197.23,69.71C197.973,61.913 203.404,67.686 206.644,65.386C206.87,70.085 207.042,73.665 207.222,77.408C209.42,77.408 211.189,77.408 213.312,77.408C213.312,71.893 213.312,66.533 213.312,61.03C196.957,61.03 181.029,61.03 164.9,61.03C164.9,62.194 164.797,63.946 164.915,63.961C169.394,64.531 173.892,64.942 178.926,65.425C178.926,69.292 178.926,73.04 178.926,76.701C181.023,76.701 182.555,76.701 184.55,76.701C184.55,72.948 184.55,69.544 184.55,66.232C187.446,66.232 189.864,66.232 192.22,66.232C194.025,76.762 194.025,76.762 197.198,76.535C197.198,74.591 197.198,72.614 197.23,69.71M111.515,71.757C108.05,71.757 104.585,71.757 101.254,71.757C99.905,76.352 102.624,76.124 105.218,76.061C121.203,75.674 137.189,75.303 153.174,74.889C154.219,74.862 155.256,74.528 156.297,74.337C156.295,73.6 156.292,72.863 156.29,72.125C141.727,71.404 127.104,71.919 111.515,71.757M229.475,47.773C230.965,48.163 232.76,48.154 233.888,49.016C237.419,51.712 240.698,54.738 244.074,57.635C244.461,57.221 244.848,56.807 245.235,56.392C240.699,50.476 236.164,44.559 231.294,38.206C225.316,45.598 219.718,52.521 214.12,59.444C214.381,59.813 214.641,60.182 214.902,60.551C216.629,59.616 218.644,58.986 220.026,57.684C223.167,54.726 225.997,51.438 229.475,47.773M225.187,66.003C225.187,69.874 225.187,73.745 225.187,77.604C229.193,77.604 232.406,77.604 235.558,77.604C235.558,72.733 235.558,68.211 235.558,62.555C231.725,63.501 228.474,64.304 225.187,66.003M91.248,46.627C90.473,46.866 89.699,47.104 88.924,47.342C88.969,47.661 89.013,47.98 89.058,48.298C106.923,48.298 124.789,48.298 142.654,48.298C142.66,47.629 142.666,46.961 142.672,46.292C125.839,45.879 109.003,45.623 91.248,46.627M101.824,41.298C111.679,41.014 121.534,40.729 131.389,40.445C131.37,40.011 131.352,39.577 131.333,39.144C114.223,39.144 97.112,39.144 80.001,39.144C79.99,39.865 79.98,40.586 79.969,41.307C86.941,41.307 93.913,41.307 101.824,41.298M82.546,33.728C91.331,33.474 100.116,33.22 108.9,32.965C108.891,32.488 108.883,32.012 108.874,31.535C96.109,31.535 83.344,31.535 70.58,31.535C70.53,32.012 70.479,32.49 70.429,32.967C74.145,33.223 77.861,33.479 82.546,33.728M102.104,67.224C105.028,67.992 107.951,68.759 111.112,69.589C111.112,65.339 111.112,62.432 111.112,59.314C108.13,59.314 105.424,59.314 102.09,59.314C102.09,61.786 102.09,64.048 102.104,67.224M154.697,67.916C154.697,65.316 154.697,62.717 154.697,59.787C152.121,59.61 150.193,59.477 147.888,59.319C147.888,62.56 147.888,65.453 147.888,68.777C150.091,68.634 152.04,68.507 154.697,67.916M62.214,71.216C65.642,71.337 69.071,71.457 72.5,71.579C75.883,71.699 76.15,69.834 75.443,66.899C70.883,66.899 66.494,66.899 61.836,66.899C61.836,68.139 61.836,69.275 62.214,71.216M40.363,79.774C41.805,79.699 43.248,79.625 44.812,79.544C44.812,77.845 44.812,76.469 44.812,75.006C39.975,75.006 35.405,75.006 30.487,75.006C30.749,76.68 30.963,78.04 31.233,79.768C34.162,79.768 36.799,79.768 40.363,79.774M122.175,63.592C122.045,62.17 121.915,60.749 121.806,59.553C119.384,59.553 117.492,59.553 115.699,59.553C115.699,62.841 115.699,65.763 115.699,68.656C117.981,68.656 119.908,68.656 122.187,68.656C122.187,67.11 122.187,65.814 122.175,63.592M130.393,59.162C128.993,59.247 127.593,59.331 126.329,59.408C126.329,62.891 126.329,65.805 126.329,68.761C128.718,68.761 130.787,68.761 134.049,68.761C133.032,65.221 132.163,62.199 130.393,59.162M75.712,78.16C75.013,77.103 74.386,75.198 73.603,75.132C69.836,74.812 66.027,74.988 62.127,74.988C62.127,76.677 62.127,78.066 62.127,80.27C66.769,79.826 71.093,79.413 75.712,78.16M141.255,68.928C146.184,66.488 142.112,62.59 143.388,59.547C140.909,59.547 139.034,59.547 136.946,59.547C136.946,61.872 137.112,63.854 136.907,65.795C136.609,68.598 137.977,69.252 141.255,68.928M31.319,67.28C31.02,68.323 30.72,69.366 30.27,70.934C35.377,71.176 40.037,71.396 45.07,71.634C44.952,69.566 44.864,68.013 44.766,66.294C40.282,66.537 36.196,66.758 31.319,67.28M70.397,63.229C71.85,63.142 73.304,63.056 74.912,62.961C74.912,61.485 74.912,60.241 74.912,58.686C70.527,58.686 66.318,58.686 61.751,58.686C61.901,60.372 62.023,61.736 62.157,63.24C64.849,63.24 67.142,63.24 70.397,63.229M197.542,41.05C204.432,40.675 211.459,41.943 218.159,39.448C208.111,39.448 198.063,39.448 188.016,39.448C188.011,39.982 188.005,40.517 188,41.051C190.851,41.051 193.703,41.051 197.542,41.05M33.763,58.589C33.091,59.871 32.419,61.154 31.375,63.148C36.696,63.148 40.639,63.148 44.835,63.148C44.835,61.809 44.835,60.409 44.835,58.557C41.299,58.557 38.005,58.557 33.763,58.589M88.207,78.708C88.66,77.354 89.745,75.771 89.364,74.72C89.06,73.883 86.883,73.186 85.695,73.382C84.779,73.533 84.106,75.166 83.326,76.14C84.706,77.068 86.087,77.996 88.207,78.708M24.811,51.766C24.798,54.233 24.715,56.703 24.818,59.166C24.845,59.827 25.296,60.66 25.822,61.042C26.164,61.29 27.532,60.852 27.529,60.745C27.435,57.152 27.231,53.562 27.043,49.972C26.347,50.261 25.651,50.549 24.811,51.766M83.243,58.61C83.483,59.213 83.609,60.245 83.982,60.344C85.518,60.751 87.153,61.101 88.694,60.938C89.066,60.899 89.826,58.292 89.368,57.761C87.557,55.66 85.421,55.666 83.243,58.61M84.782,65.139C82.81,67.38 83.502,69.289 86.048,69.937C87.08,70.2 89.57,68.731 89.699,67.812C90.094,64.988 88.03,64.369 84.782,65.139z"/><path fill="#ebebeb" d="M48.626,38.381C48.818,33.851 49.025,29.763 49.232,25.675C50.038,25.67 50.845,25.665 51.651,25.66C51.981,29.298 52.409,32.931 52.612,36.576C52.787,39.731 52.568,42.911 52.821,46.056C52.9,47.035 53.95,47.936 54.555,48.873C55.152,47.894 56.214,46.936 56.262,45.93C56.459,41.846 56.344,37.747 57.128,33.596C61.389,37.954 59.06,43.536 60.589,49.253C66.499,48.116 62.483,42.604 65.686,39.254C66.318,41.914 66.965,43.954 67.254,46.043C67.548,48.165 68.192,49.931 70.603,48.713C75.808,46.085 75.162,49.557 75.42,52.906C60.783,52.906 46.545,52.906 31.679,52.906C32.918,49.343 33.997,46.239 35.076,43.135C35.364,43.172 35.651,43.208 35.939,43.245C36.277,44.979 36.615,46.713 36.989,48.63C39.855,49.781 41.034,48.949 41.104,45.666C41.176,42.27 41.803,38.886 42.188,35.497C42.832,35.539 43.477,35.582 44.122,35.624C44.305,39.073 44.369,42.536 44.745,45.964C44.858,46.99 45.844,47.92 46.431,48.894C47.145,47.867 48.314,46.907 48.478,45.799C48.817,43.516 48.618,41.153 48.626,38.381z"/><path fill="#eff0ef" d="M197.214,70.174C197.198,72.614 197.198,74.591 197.198,76.535C194.025,76.762 194.025,76.762 192.22,66.232C189.864,66.232 187.446,66.232 184.55,66.232C184.55,69.544 184.55,72.948 184.55,76.701C182.555,76.701 181.023,76.701 178.926,76.701C178.926,73.04 178.926,69.292 178.926,65.425C173.892,64.942 169.394,64.531 164.915,63.961C164.797,63.946 164.9,62.194 164.9,61.03C181.029,61.03 196.957,61.03 213.312,61.03C213.312,66.533 213.312,71.893 213.312,77.408C211.189,77.408 209.42,77.408 207.222,77.408C207.042,73.665 206.87,70.085 206.644,65.386C203.404,67.686 197.973,61.913 197.214,70.174z"/><path fill="#f4f5f5" d="M112.014,71.773C127.104,71.919 141.727,71.404 156.29,72.125C156.292,72.863 156.295,73.6 156.297,74.337C155.256,74.528 154.219,74.862 153.174,74.889C137.189,75.303 121.203,75.674 105.218,76.061C102.624,76.124 99.905,76.352 101.254,71.757C104.585,71.757 108.05,71.757 112.014,71.773z"/><path fill="#edeced" d="M229.214,48.028C225.997,51.438 223.167,54.726 220.026,57.684C218.644,58.986 216.629,59.616 214.902,60.551C214.641,60.182 214.381,59.813 214.12,59.444C219.718,52.521 225.316,45.598 231.294,38.206C236.164,44.559 240.699,50.476 245.235,56.392C244.848,56.807 244.461,57.221 244.074,57.635C240.698,54.738 237.419,51.712 233.888,49.016C232.76,48.154 230.965,48.163 229.214,48.028z"/><path fill="#ececec" d="M225.205,65.554C228.474,64.304 231.725,63.501 235.558,62.555C235.558,68.211 235.558,72.733 235.558,77.604C232.406,77.604 229.193,77.604 225.187,77.604C225.187,73.745 225.187,69.874 225.205,65.554z"/><path fill="#dcdcdc" d="M91.697,46.581C109.003,45.623 125.839,45.879 142.672,46.292C142.666,46.961 142.66,47.629 142.654,48.298C124.789,48.298 106.923,48.298 89.058,48.298C89.013,47.98 88.969,47.661 88.924,47.342C89.699,47.104 90.473,46.866 91.697,46.581z"/><path fill="#dadbda" d="M101.354,41.303C93.913,41.307 86.941,41.307 79.969,41.307C79.98,40.586 79.99,39.865 80.001,39.144C97.112,39.144 114.223,39.144 131.333,39.144C131.352,39.577 131.37,40.011 131.389,40.445C121.534,40.729 111.679,41.014 101.354,41.303z"/><path fill="#e1e1e1" d="M82.062,33.731C77.861,33.479 74.145,33.223 70.429,32.967C70.479,32.49 70.53,32.012 70.58,31.535C83.344,31.535 96.109,31.535 108.874,31.535C108.883,32.012 108.891,32.488 108.9,32.965C100.116,33.22 91.331,33.474 82.062,33.731z"/><path fill="#efeeef" d="M102.097,66.767C102.09,64.048 102.09,61.786 102.09,59.314C105.424,59.314 108.13,59.314 111.112,59.314C111.112,62.432 111.112,65.339 111.112,69.589C107.951,68.759 105.028,67.992 102.097,66.767z"/><path fill="#fbfbfa" d="M96.676,23.386C85.112,23.261 73.547,23.137 61.58,22.666C61.16,21.992 61.143,21.665 61.126,21.338C72.743,21.583 84.361,21.828 96.447,22.323C96.651,22.789 96.571,23.06 96.676,23.386z"/><path fill="#e2e2e2" d="M154.344,68.148C152.04,68.507 150.091,68.634 147.888,68.777C147.888,65.453 147.888,62.56 147.888,59.319C150.193,59.477 152.121,59.61 154.697,59.787C154.697,62.717 154.697,65.316 154.344,68.148z"/><path fill="#e4e5e5" d="M62.025,70.813C61.836,69.275 61.836,68.139 61.836,66.899C66.494,66.899 70.883,66.899 75.443,66.899C76.15,69.834 75.883,71.699 72.5,71.579C69.071,71.457 65.642,71.337 62.025,70.813z"/><path fill="#e9e9ea" d="M39.9,79.771C36.799,79.768 34.162,79.768 31.233,79.768C30.963,78.04 30.749,76.68 30.487,75.006C35.405,75.006 39.975,75.006 44.812,75.006C44.812,76.469 44.812,77.845 44.812,79.544C43.248,79.625 41.805,79.699 39.9,79.771z"/><path fill="#e0e0e0" d="M122.181,64.055C122.187,65.814 122.187,67.11 122.187,68.656C119.908,68.656 117.981,68.656 115.699,68.656C115.699,65.763 115.699,62.841 115.699,59.553C117.492,59.553 119.384,59.553 121.806,59.553C121.915,60.749 122.045,62.17 122.181,64.055z"/><path fill="#ececed" d="M130.844,59.169C132.163,62.199 133.032,65.221 134.049,68.761C130.787,68.761 128.718,68.761 126.329,68.761C126.329,65.805 126.329,62.891 126.329,59.408C127.593,59.331 128.993,59.247 130.844,59.169z"/><path fill="#edeced" d="M75.565,78.58C71.093,79.413 66.769,79.826 62.127,80.27C62.127,78.066 62.127,76.677 62.127,74.988C66.027,74.988 69.836,74.812 73.603,75.132C74.386,75.198 75.013,77.103 75.565,78.58z"/><path fill="#e8e8e8" d="M140.812,68.925C137.977,69.252 136.609,68.598 136.907,65.795C137.112,63.854 136.946,61.872 136.946,59.547C139.034,59.547 140.909,59.547 143.388,59.547C142.112,62.59 146.184,66.488 140.812,68.925z"/><path fill="#eeefef" d="M31.714,67.13C36.196,66.758 40.282,66.537 44.766,66.294C44.864,68.013 44.952,69.566 45.07,71.634C40.037,71.396 35.377,71.176 30.27,70.934C30.72,69.366 31.02,68.323 31.714,67.13z"/><path fill="#eaeaea" d="M69.916,63.234C67.142,63.24 64.849,63.24 62.157,63.24C62.023,61.736 61.901,60.372 61.751,58.686C66.318,58.686 70.527,58.686 74.912,58.686C74.912,60.241 74.912,61.485 74.912,62.961C73.304,63.056 71.85,63.142 69.916,63.234z"/><path fill="#f6f6f5" d="M197.048,41.051C193.703,41.051 190.851,41.051 188,41.051C188.005,40.517 188.011,39.982 188.016,39.448C198.063,39.448 208.111,39.448 218.159,39.448C211.459,41.943 204.432,40.675 197.048,41.051z"/><path fill="#f7f8f8" d="M34.237,58.573C38.005,58.557 41.299,58.557 44.835,58.557C44.835,60.409 44.835,61.809 44.835,63.148C40.639,63.148 36.696,63.148 31.375,63.148C32.419,61.154 33.091,59.871 34.237,58.573z"/><path fill="#e4e4e5" d="M87.837,78.816C86.087,77.996 84.706,77.068 83.326,76.14C84.106,75.166 84.779,73.533 85.695,73.382C86.883,73.186 89.06,73.883 89.364,74.72C89.745,75.771 88.66,77.354 87.837,78.816z"/><path fill="#f3f3f2" d="M24.883,51.302C25.651,50.549 26.347,50.261 27.043,49.972C27.231,53.562 27.435,57.152 27.529,60.745C27.532,60.852 26.164,61.29 25.822,61.042C25.296,60.66 24.845,59.827 24.818,59.166C24.715,56.703 24.798,54.233 24.883,51.302z"/><path fill="#dfdfe0" d="M83.401,58.287C85.421,55.666 87.557,55.66 89.368,57.761C89.826,58.292 89.066,60.899 88.694,60.938C87.153,61.101 85.518,60.751 83.982,60.344C83.609,60.245 83.483,59.213 83.401,58.287z"/><path fill="#ececec" d="M85.179,64.969C88.03,64.369 90.094,64.988 89.699,67.812C89.57,68.731 87.08,70.2 86.048,69.937C83.502,69.289 82.81,67.38 85.179,64.969z"/><path fill="#828484" d="M97.026,23.569C96.571,23.06 96.651,22.789 96.907,22.352C97.837,22.129 98.776,22.129 99.714,22.129C99.787,22.354 99.861,22.578 99.934,22.803C99.081,23.119 98.229,23.436 97.026,23.569z"/><path fill="#aeafb0" d="M60.802,21.201C61.143,21.665 61.16,21.992 61.13,22.566C60.466,22.485 59.849,22.157 59.232,21.83C59.647,21.574 60.063,21.319 60.802,21.201z"/></svg>