<svg xmlns="http://www.w3.org/2000/svg" viewBox="0 0 180 79" xml:space="preserve"><path fill="#090909" d="M85.993,73.971C61.123,72.989 36.751,72.012 12.378,71.036C12.319,70.314 12.259,69.593 12.2,68.872C15.291,67.941 18.33,66.676 21.489,66.179C24.402,65.72 25.392,64.577 25.299,61.661C25.108,55.679 25.242,49.687 25.242,43.305C24.11,43.189 23.016,43.226 22.008,42.947C18.487,41.973 17.263,38.412 19.714,35.85C26.388,28.873 33.055,21.877 40.049,15.229C41.583,13.771 44.471,13.106 46.718,13.143C55.649,13.29 64.574,13.859 73.98,14.295C74.124,17.408 74.298,21.176 74.497,25.463C76.39,25.322 77.92,25.208 79.48,25.092C79.48,20.259 79.48,15.699 79.48,11.293C76.623,10.7 74.178,10.193 71.734,9.686C71.821,9.01 71.908,8.334 71.995,7.659C76.556,7.378 81.118,7.097 86.064,6.793C85.649,9.993 85.381,12.057 85.033,14.741C90.997,14.741 96.601,14.528 102.173,14.864C103.979,14.973 106.582,16.061 107.32,17.482C113.826,29.995 124.029,34.372 137.573,32.05C143.839,30.976 148.634,33.485 153.163,37.698C157.63,41.854 162.719,45.341 168.238,49.673C166.13,50.939 164.342,52.014 162.512,53.114C162.512,58.339 162.512,63.875 162.512,69.412C162.835,69.463 163.157,69.514 163.479,69.565C163.908,68.17 164.338,66.775 165.014,64.577C169.373,65.887 173.603,67.157 177.833,68.428C166.357,72.61 155.057,73.925 143.339,72.387C138.947,71.811 134.314,73.258 129.777,73.551C125.131,73.852 120.468,73.965 115.811,73.991C106.039,74.045 96.265,73.987 85.993,73.971M60.405,45.146C61.969,45.409 63.567,46.019 65.092,45.872C70.42,45.357 75.723,44.581 80.926,44.604C79.068,46.148 77.21,47.693 74.884,49.627C81.943,51.561 87.369,51.139 92.226,46.959C93.812,45.595 95.869,44.778 98.019,44.018C98.019,44.018 98.327,44.326 98.117,44.964C96.598,46.823 95.08,48.682 93.44,50.689C102.554,53.293 106.35,44.708 113.34,42.717C111.044,45.561 108.748,48.405 106.452,51.249C108.577,51.707 110.461,51.552 111.93,50.69C115.616,48.524 119.116,46.039 123.215,44.154C123.398,44.302 123.581,44.45 123.363,45.147C121.479,47.206 119.595,49.264 117.183,51.9C119.542,52.151 121.717,53.064 122.573,52.364C128.376,47.617 133.901,42.53 139.515,37.553C126.71,36.05 114.486,35.696 102.273,35.129C100.031,35.025 97.829,34.057 94.52,33.209C93.839,33.731 92.168,35.05 90.458,36.317C87.305,38.654 84.13,40.961 80.406,42.652C78.429,42.481 76.375,41.878 74.487,42.213C66.26,43.673 60.884,40.403 56.735,33.309C53.7,28.119 49.472,23.626 45.226,18.107C38.525,25.241 32.462,31.695 26.399,38.15C26.843,38.613 27.287,39.075 27.73,39.538C33.573,34.878 39.416,30.217 45.329,25.502C48.001,28.943 50.476,31.856 52.635,34.986C54.832,38.172 56.719,41.571 57.851,44.703C50.114,44.703 42.376,44.703 34.874,44.703C34.874,52.67 34.874,59.882 34.874,67.268C37.165,67.401 38.911,67.502 41.175,67.634C41.175,63.627 41.161,60.001 41.179,56.375C41.197,52.538 43.621,51.009 46.974,51.02C50.237,51.03 53.357,51.638 53.408,56.103C53.453,60.035 53.75,63.964 53.936,67.879C56.018,67.879 57.617,67.879 59.512,67.879C59.512,60.072 59.512,52.485 60.405,45.146M95.298,58.072C95.298,61.644 95.298,65.216 95.298,69.115C97.828,69.231 99.858,69.324 101.894,69.417C101.894,64.839 101.894,60.664 101.894,55.888C99.42,56.397 97.446,56.803 95.298,58.072M152.704,52.021C151.617,52.652 149.639,53.221 149.59,53.924C149.296,58.154 149.444,62.414 149.444,66.642C151.618,66.642 153.324,66.642 155.308,66.642C155.308,62.847 155.46,59.372 155.231,55.922C155.143,54.593 154.19,53.321 152.704,52.021M112.61,55.45C112.238,59.233 111.789,63.011 111.517,66.801C111.271,70.23 113.282,70.33 115.749,69.717C115.749,66.022 115.956,62.567 115.64,59.16C115.524,57.916 114.164,56.788 112.61,55.45M74.997,60.685C77.551,60.685 80.106,60.685 82.665,60.685C82.665,58.738 82.665,57.314 82.665,55.56C79.746,55.56 77.049,55.56 74.007,55.56C74.122,57.249 74.219,58.691 74.997,60.685M139.829,47.101C144.072,47.778 148.316,48.455 152.559,49.132C147.697,43.59 145.639,43.365 139.829,47.101M126.986,56.857C126.986,60.838 126.986,64.818 126.986,68.798C127.587,68.843 128.188,68.887 128.789,68.931C131.282,63.956 129.827,58.483 130.165,53.236C129.725,53.067 129.286,52.898 128.846,52.729C128.232,53.799 127.617,54.869 126.986,56.857M78.518,64.059C74.236,63.467 73.325,65.306 74.705,68.875C77.527,68.875 80.083,68.875 82.528,68.875C83.545,65.623 83.1,63.682 78.518,64.059M145.98,54.562C144.966,49.347 141.399,53.159 139.104,52.145C139.104,54.335 139.104,56.059 139.104,58.504C141.478,56.602 145.305,60.496 145.98,54.562M111.968,30.406C106.678,30.406 101.388,30.406 96.098,30.406C96.135,31.039 96.172,31.672 96.209,32.304C101.428,31.978 106.647,31.652 111.968,30.406z"/><path fill="#f3f3f4" d="M122.69,43.682C119.116,46.039 115.616,48.524 111.93,50.69C110.461,51.552 108.577,51.707 106.452,51.249C108.748,48.405 111.044,45.561 113.34,42.717C106.35,44.708 102.554,53.293 93.44,50.689C95.08,48.682 96.598,46.823 98.458,44.484C98.773,43.742 98.747,43.48 98.72,43.217C98.384,43.382 98.047,43.546 97.71,43.711C95.869,44.778 93.812,45.595 92.226,46.959C87.369,51.139 81.943,51.561 74.884,49.627C77.21,47.693 79.068,46.148 80.996,44.094C81.067,43.585 80.964,43.281 80.964,43.281C84.13,40.961 87.305,38.654 90.458,36.317C92.168,35.05 93.839,33.731 94.52,33.209C97.829,34.057 100.031,35.025 102.273,35.129C114.486,35.696 126.71,36.05 139.515,37.553C133.901,42.53 128.376,47.617 122.573,52.364C121.717,53.064 119.542,52.151 117.183,51.9C119.595,49.264 121.479,47.206 123.802,44.692C124.357,43.884 124.472,43.531 124.587,43.178C123.955,43.346 123.322,43.514 122.69,43.682z"/><path fill="#f6f6f6" d="M59.512,44.897C59.512,52.485 59.512,60.072 59.512,67.879C57.617,67.879 56.018,67.879 53.936,67.879C53.75,63.964 53.453,60.035 53.408,56.103C53.357,51.638 50.237,51.03 46.974,51.02C43.621,51.009 41.197,52.538 41.179,56.375C41.161,60.001 41.175,63.627 41.175,67.634C38.911,67.502 37.165,67.401 34.874,67.268C34.874,59.882 34.874,52.67 34.874,44.703C42.376,44.703 50.114,44.703 58.487,44.856C59.124,45.008 59.512,44.897 59.512,44.897z"/><path fill="#e4e4e5" d="M59.958,45.022C59.512,44.897 59.124,45.008 58.933,44.942C56.719,41.571 54.832,38.172 52.635,34.986C50.476,31.856 48.001,28.943 45.329,25.502C39.416,30.217 33.573,34.878 27.73,39.538C27.287,39.075 26.843,38.613 26.399,38.15C32.462,31.695 38.525,25.241 45.226,18.107C49.472,23.626 53.7,28.119 56.735,33.309C60.884,40.403 66.26,43.673 74.487,42.213C76.375,41.878 78.429,42.481 80.685,42.966C80.964,43.281 81.067,43.585 81.051,43.745C75.723,44.581 70.42,45.357 65.092,45.872C63.567,46.019 61.969,45.409 59.958,45.022z"/><path fill="#eaeaeb" d="M95.385,57.641C97.446,56.803 99.42,56.397 101.894,55.888C101.894,60.664 101.894,64.839 101.894,69.417C99.858,69.324 97.828,69.231 95.298,69.115C95.298,65.216 95.298,61.644 95.385,57.641z"/><path fill="#eeeeee" d="M153.167,52.022C154.19,53.321 155.143,54.593 155.231,55.922C155.46,59.372 155.308,62.847 155.308,66.642C153.324,66.642 151.618,66.642 149.444,66.642C149.444,62.414 149.296,58.154 149.59,53.924C149.639,53.221 151.617,52.652 153.167,52.022z"/><path fill="#dcdcdc" d="M112.991,55.529C114.164,56.788 115.524,57.916 115.64,59.16C115.956,62.567 115.749,66.022 115.749,69.717C113.282,70.33 111.271,70.23 111.517,66.801C111.789,63.011 112.238,59.233 112.991,55.529z"/><path fill="#d5d5d5" d="M74.657,60.409C74.219,58.691 74.122,57.249 74.007,55.56C77.049,55.56 79.746,55.56 82.665,55.56C82.665,57.314 82.665,58.738 82.665,60.685C80.106,60.685 77.551,60.685 74.657,60.409z"/><path fill="#dadadb" d="M140.123,46.91C145.639,43.365 147.697,43.59 152.559,49.132C148.316,48.455 144.072,47.778 140.123,46.91z"/><path fill="#f4f4f4" d="M126.995,56.398C127.617,54.869 128.232,53.799 128.846,52.729C129.286,52.898 129.725,53.067 130.165,53.236C129.827,58.483 131.282,63.956 128.789,68.931C128.188,68.887 127.587,68.843 126.986,68.798C126.986,64.818 126.986,60.838 126.995,56.398z"/><path fill="#e4e4e4" d="M78.963,64.065C83.1,63.682 83.545,65.623 82.528,68.875C80.083,68.875 77.527,68.875 74.705,68.875C73.325,65.306 74.236,63.467 78.963,64.065z"/><path fill="#eeefef" d="M145.981,55.013C145.305,60.496 141.478,56.602 139.104,58.504C139.104,56.059 139.104,54.335 139.104,52.145C141.399,53.159 144.966,49.347 145.981,55.013z"/><path fill="#aeaead" d="M111.917,30.866C106.647,31.652 101.428,31.978 96.209,32.304C96.172,31.672 96.135,31.039 96.098,30.406C101.388,30.406 106.678,30.406 111.917,30.866z"/><path fill="#090909" d="M122.953,43.918C123.322,43.514 123.955,43.346 124.587,43.178C124.472,43.531 124.357,43.884 124.003,44.418C123.581,44.45 123.398,44.302 122.953,43.918z"/><path fill="#090909" d="M97.865,43.864C98.047,43.546 98.384,43.382 98.72,43.217C98.747,43.48 98.773,43.742 98.563,44.166C98.327,44.326 98.019,44.018 97.865,43.864z"/></svg>