<svg xmlns="http://www.w3.org/2000/svg" viewBox="0 0 214 155" xml:space="preserve"><path fill="#070707" d="M117.023,143.931C118.929,145.049 120.834,146.167 122.845,148.055C122.938,149.132 122.924,149.439 122.911,149.745C116.331,148.229 109.752,146.713 102.721,145.093C105.894,140.824 108.805,136.909 111.716,132.994C111.306,132.581 110.896,132.168 110.486,131.755C103.866,132.302 99.473,137.019 94.018,141.102C92.8,142.123 92.221,142.987 91.642,143.851C83.594,149.914 74.087,148.799 64.452,148.802C64.005,147.606 64.01,146.891 64.423,146.109C71.307,145.87 88.7,134.234 91.019,127.977C88.036,127.977 85.289,128.081 82.552,127.957C75.122,127.623 74.428,128.177 71.406,134.934C69.426,139.361 66.73,143.277 60.993,143.105C54.426,143.701 47.862,144.34 41.289,144.867C39.245,145.031 37.177,144.893 34.822,143.806C38.353,142.026 41.883,140.245 45.414,138.465C45.258,137.881 45.103,137.297 44.947,136.714C32.103,136.714 19.26,136.714 6.416,136.714C6.314,136.182 6.212,135.65 6.11,135.118C11.298,133.045 16.485,130.972 22.059,128.745C20.77,126.851 19.727,125.319 18.684,123.788C18.857,123.403 19.031,123.018 19.205,122.634C22.083,123.455 24.962,124.277 29.594,125.598C28.245,121.105 27.242,117.762 25.735,112.741C29.57,115.166 32.477,116.935 35.3,118.829C36.252,119.467 36.858,120.736 37.858,121.161C39.409,121.82 41.162,122.002 42.83,122.386C43.1,121.108 43.677,119.807 43.584,118.556C43.247,113.992 42.535,109.454 42.257,104.889C42.027,101.109 42.21,97.304 42.21,92.761C37.095,94.654 32.585,96.322 27.763,98.107C27.341,91.137 22.034,90.224 17.293,89.117C24.003,84.321 31.086,80.239 36.938,74.827C44.174,68.134 50.427,60.373 57.014,52.992C58.54,51.282 59.74,49.271 61.014,47.348C64.538,42.027 64.27,41.301 57.625,39.447C69.13,34.894 72.058,24.16 76.271,14.832C77.015,14.554 77.396,14.262 77.608,14.355C81.608,16.109 85.614,17.615 89.921,18.715C97.437,20.636 100.268,28.202 105.006,33.43C111.073,40.124 117.508,46.071 126.971,47.282C127.57,47.358 128.217,47.061 129.711,46.766C128.493,41.263 127.323,35.98 125.87,29.422C130.808,29.24 137.386,27.192 141.97,29.361C146.172,31.348 149.709,34.19 154.717,34.158C155.441,34.154 156.798,35.973 156.798,36.948C156.797,40.881 156.378,44.814 156.097,48.985C153.461,49.109 150.924,49.229 147.84,49.374C148.228,51.162 148.704,52.232 148.647,53.273C148.279,60.044 152.422,63.051 158.15,64.402C163.383,65.637 166.053,68.651 169.14,73.282C175.512,82.842 181.77,93.296 193.828,97.393C194.811,97.726 195.518,98.871 196.608,99.873C192.621,104.63 188.262,107.524 181.784,106.625C178.415,106.158 174.865,106.415 171.485,106.93C170.227,107.122 168.465,108.846 168.243,110.104C167.524,114.157 167.416,118.318 166.996,123.345C169.672,121.573 171.784,120.174 174.551,118.904C176.887,118.709 178.567,118.386 180.246,118.062C178.805,120.387 177.287,122.67 175.961,125.059C175.472,125.94 175.433,127.071 175.189,128.088C175.602,128.184 176.014,128.279 176.427,128.374C177.908,127.073 179.232,125.505 180.899,124.52C186.206,121.384 187.284,122.037 188.046,128.059C188.424,131.048 189.726,132.884 193.379,133.106C197.284,133.344 201.12,134.725 205.384,135.698C200.882,139.803 191.394,141.219 172.287,140.675C167.767,138.014 163.909,135.637 160.05,133.26C159.848,133.651 159.646,134.042 159.444,134.434C159.681,135.145 159.919,135.856 159.895,135.783C153.187,140.599 149.257,134.853 144.279,132.397C140.004,130.287 136.637,133.189 132.93,135.043C141.585,140.541 150.137,144.597 160.182,144.129C160.685,144.106 161.244,145.289 161.778,145.91C152.4,145.994 143.006,146.421 133.657,145.946C130.998,145.811 128.637,142.505 125.836,141.665C123.379,140.929 120.497,141.61 117.104,141.879C116.036,142.772 115.666,143.451 115.296,144.13C115.872,144.064 116.448,143.997 117.023,143.931M125.996,90.228C125.908,88.857 125.819,87.487 125.7,85.639C133.292,86.509 132.857,98.587 142.146,95.865C141.499,90.163 139.936,84.517 134.776,82.179C128.369,79.276 122.379,76.638 117.667,70.918C115.707,68.539 115.314,67.372 116.138,64.63C122.4,67.535 125.782,75.184 134.129,74.295C129.631,68.472 125.555,63.195 120.863,57.121C119.265,58.366 117.29,59.906 115.377,61.397C111.646,59.145 107.692,56.759 103.137,54.011C107.644,67.213 117.725,76.419 119.31,89.709C119.453,90.906 122.237,91.906 123.933,92.699C124.275,92.858 125.25,91.661 125.996,90.228M69.029,86.652C74.703,81.511 80.443,80.135 87.204,85.163C90.198,87.388 94.156,88.947 97.783,85.542C91.783,77.038 91.782,77.041 81.453,75.495C80.966,75.422 80.508,75.166 80.025,75.043C69.771,72.445 60.519,76.259 54.56,85.786C56.688,86.313 59.192,86.226 60.597,87.427C63.593,89.987 65.898,89.488 69.029,86.652M81.998,34.582C86.469,52.605 96.15,68.173 105.455,83.883C107.656,87.599 110.003,91.74 115.577,92.95C105.037,73.062 94.892,53.881 84.643,34.756C84.314,34.14 82.928,34.09 81.998,34.582M69.013,46.478C68.485,47.119 67.913,47.729 67.435,48.405C59.315,59.885 53.353,73.117 40.836,81.042C40.204,81.442 40.14,82.741 39.717,83.876C44.202,84.846 47.575,83.131 49.828,79.926C57.996,68.305 66.006,56.569 73.853,44.728C75.874,41.678 77.078,38.087 78.657,34.744C78.253,34.557 77.85,34.37 77.446,34.182C74.793,38.101 72.141,42.02 69.013,46.478M51.735,97.52C51.735,99.791 51.735,102.063 51.735,104.548C56.607,105.086 61.067,105.579 66.086,106.133C66.465,101.394 66.785,97.412 67.14,92.971C62.564,92.971 58.789,93.036 55.018,92.948C52.383,92.887 51.417,94.098 51.735,97.52M106.148,97.437C105.086,96.177 104.26,94.456 102.907,93.763C100.763,92.664 98.297,92.104 95.905,91.621C94.952,91.429 93.835,92.049 93.756,92.068C95.267,97.359 96.575,101.94 97.984,106.876C100.448,106.541 103.181,106.169 106.224,105.755C106.224,103.22 106.224,100.751 106.148,97.437M77.19,62.96C71.707,62.742 71.803,67.972 69.116,70.143C74.437,70.884 79.314,71.66 84.218,72.187C85.655,72.342 87.168,71.793 88.646,71.566C88.291,70.22 88.269,68.63 87.506,67.58C86.183,65.762 84.448,64.228 82.799,62.667C81.212,61.165 79.52,60.938 77.19,62.96M85.992,105.408C86.021,103.255 85.281,100.65 86.229,99.036C88.607,94.987 85.162,93.937 83.182,93.267C80.467,92.347 77.051,92.147 76.914,96.85C76.815,100.214 76.49,103.571 76.234,107.419C79.793,107.012 82.837,106.663 85.992,105.408M135.441,54.715C135.172,61.52 136.721,67.541 143.599,71.501C142.293,63.284 140.986,55.066 139.68,46.849C139.18,46.783 138.68,46.717 138.18,46.651C137.233,49.057 136.285,51.464 135.441,54.715M154.2,88.349C151.43,86.885 148.695,85.341 145.84,84.068C145.514,83.922 143.911,85.301 143.913,85.969C143.94,92.631 149.745,96.923 157.392,95.795C156.468,93.473 155.572,91.224 154.2,88.349M154.296,111.918C154.546,109.883 154.795,107.847 155.031,105.925C149.271,104.273 148.105,107.104 148.781,111.331C146.901,111.662 145.509,111.908 144.307,112.12C143.025,116.86 145.573,117.818 149.176,118.11C153.259,118.44 154.503,116.418 154.296,111.918M158.452,80.858C157.996,81.506 157,82.451 157.167,82.757C159.282,86.608 161.054,90.865 164.038,93.922C165.358,95.275 169.217,94.15 171.923,94.15C172.164,93.638 172.405,93.126 172.645,92.614C170.298,90.284 168.074,87.811 165.565,85.672C163.588,83.986 161.26,82.712 158.452,80.858M54.283,112.585C54.955,114.724 55.074,118.129 56.422,118.717C58.661,119.693 61.968,119.514 64.276,118.532C65.582,117.976 65.793,114.848 66.77,112.114C62.083,112.114 58.562,112.114 54.283,112.585M129.002,114.06C125.74,114.384 122.479,114.709 118.888,115.066C121.426,120.8 123.681,121.748 129.561,119.905C131.108,119.42 132.38,118.058 133.778,117.099C132.462,116.118 131.146,115.138 129.002,114.06M105.347,119.019C105.986,117.23 106.625,115.442 107.526,112.921C103.011,112.921 99.661,112.921 96.158,112.921C96.158,115.387 96.158,117.448 96.158,120.219C99.197,119.95 101.907,119.711 105.347,119.019M79.52,120.996C81.927,120.612 84.333,120.228 88.394,119.58C85.769,117.067 84.297,114.818 82.244,113.963C80.656,113.301 77.322,113.709 76.573,114.84C75.228,116.869 73.985,120.267 79.52,120.996M96.68,40.636C97.621,41.982 98.667,43.267 99.48,44.686C101.318,47.895 103.58,48.903 108.757,47.876C104.408,44.38 100.655,41.363 96.902,38.345C96.662,38.918 96.421,39.49 96.68,40.636M66.426,128.533C66.243,128.021 66.088,127.073 65.872,127.059C61.207,126.756 56.502,126.498 55.621,132.921C59.33,132.668 63.511,133.457 66.426,128.533M121.823,104.919C120.734,105.683 119.645,106.446 118.556,107.21C122.168,108.388 124.982,108.663 127.711,108.299C129.784,108.023 134.127,110.058 132.793,104.84C129.314,104.84 126.037,104.84 121.823,104.919z"/><path fill="#080808" d="M162.192,13.005C163.228,15.241 164.299,17.066 164.805,19.036C164.902,19.411 162.786,20.868 161.653,20.914C160.251,20.971 158.81,20.078 156.343,19.241C152.266,22.583 148.351,29.867 140.289,25.705C138.321,17.886 139.109,10.841 147.65,8.015C153.049,6.228 158.293,7.813 162.192,13.005z"/><path fill="#f1f1f1" d="M162.18,145.945C161.244,145.289 160.685,144.106 160.182,144.129C150.137,144.597 141.585,140.541 132.93,135.043C136.637,133.189 140.004,130.287 144.279,132.397C149.257,134.853 153.187,140.599 159.895,135.783C159.919,135.856 159.681,135.145 159.444,134.434C159.646,134.042 159.848,133.651 160.05,133.26C163.909,135.637 167.767,138.014 171.82,140.672C168.87,142.628 165.727,144.304 162.18,145.945z"/><path fill="#f0f0f0" d="M60.964,143.435C66.73,143.277 69.426,139.361 71.406,134.934C74.428,128.177 75.122,127.623 82.552,127.957C85.289,128.081 88.036,127.977 91.019,127.977C88.7,134.234 71.307,145.87 64.072,146.017C62.197,146.292 61.08,146.592 59.963,146.892C60.287,145.849 60.611,144.807 60.964,143.435z"/><path fill="#eeefef" d="M92.027,143.933C92.221,142.987 92.8,142.123 93.698,141.245C96.075,141.712 98.132,142.194 100.138,142.665C98.466,146.017 98.466,146.017 92.027,143.933z"/><path fill="#212121" d="M180.561,117.931C178.567,118.386 176.887,118.709 174.896,118.901C176.344,117.753 178.103,116.737 179.862,115.72C180.2,116.413 180.538,117.106 180.561,117.931z"/><path fill="#181817" d="M59.972,147.173C61.08,146.592 62.197,146.292 63.664,146.083C64.01,146.891 64.005,147.606 63.998,148.679C62.936,149.027 61.875,149.017 60.386,148.733C59.958,148.46 59.798,147.987 59.798,147.987C59.859,147.81 59.92,147.632 59.972,147.173z"/><path fill="#1b1b1b" d="M117.003,143.613C116.448,143.997 115.872,144.064 115.296,144.13C115.666,143.451 116.036,142.772 116.733,142.059C117.034,142.448 117.009,142.872 117.003,143.613z"/><path fill="#f0f0f0" d="M59.521,148.028C59.798,147.987 59.958,148.46 59.987,148.707C59.527,149.114 59.038,149.272 58.548,149.431C58.78,148.977 59.012,148.523 59.521,148.028z"/><path fill="#1b1b1b" d="M123.179,149.856C122.924,149.439 122.938,149.132 122.984,148.366C123.161,148.593 123.304,149.28 123.179,149.856z"/><path fill="#f0f0f0" d="M56.468,146.45C56.525,146.416 56.41,146.484 56.468,146.45z"/><path fill="#f2f3f2" d="M125.965,90.659C125.25,91.661 124.275,92.858 123.933,92.699C122.237,91.906 119.453,90.906 119.31,89.709C117.725,76.419 107.644,67.213 103.137,54.011C107.692,56.759 111.646,59.145 115.377,61.397C117.29,59.906 119.265,58.366 120.863,57.121C125.555,63.195 129.631,68.472 134.129,74.295C125.782,75.184 122.4,67.535 116.138,64.63C115.314,67.372 115.707,68.539 117.667,70.918C122.379,76.638 128.369,79.276 134.776,82.179C139.936,84.517 141.499,90.163 142.146,95.865C132.857,98.587 133.292,86.509 125.7,85.639C125.819,87.487 125.908,88.857 125.965,90.659z"/><path fill="#f4f5f5" d="M68.706,86.854C65.898,89.488 63.593,89.987 60.597,87.427C59.192,86.226 56.688,86.313 54.56,85.786C60.519,76.259 69.771,72.445 80.025,75.043C80.508,75.166 80.966,75.422 81.453,75.495C91.782,77.041 91.783,77.038 97.783,85.542C94.156,88.947 90.198,87.388 87.204,85.163C80.443,80.135 74.703,81.511 68.706,86.854z"/><path fill="#f1f2f2" d="M82.017,34.18C82.928,34.09 84.314,34.14 84.643,34.756C94.892,53.881 105.037,73.062 115.577,92.95C110.003,91.74 107.656,87.599 105.455,83.883C96.15,68.173 86.469,52.605 82.017,34.18z"/><path fill="#eceded" d="M69.251,46.209C72.141,42.02 74.793,38.101 77.446,34.182C77.85,34.37 78.253,34.557 78.657,34.744C77.078,38.087 75.874,41.678 73.853,44.728C66.006,56.569 57.996,68.305 49.828,79.926C47.575,83.131 44.202,84.846 39.717,83.876C40.14,82.741 40.204,81.442 40.836,81.042C53.353,73.117 59.315,59.885 67.435,48.405C67.913,47.729 68.485,47.119 69.251,46.209z"/><path fill="#f1f2f2" d="M51.763,97.058C51.417,94.098 52.383,92.887 55.018,92.948C58.789,93.036 62.564,92.971 67.14,92.971C66.785,97.412 66.465,101.394 66.086,106.133C61.067,105.579 56.607,105.086 51.735,104.548C51.735,102.063 51.735,99.791 51.763,97.058z"/><path fill="#f2f2f2" d="M106.186,97.859C106.224,100.751 106.224,103.22 106.224,105.755C103.181,106.169 100.448,106.541 97.984,106.876C96.575,101.94 95.267,97.359 93.756,92.068C93.835,92.049 94.952,91.429 95.905,91.621C98.297,92.104 100.763,92.664 102.907,93.763C104.26,94.456 105.086,96.177 106.186,97.859z"/><path fill="#efefef" d="M77.538,62.818C79.52,60.938 81.212,61.165 82.799,62.667C84.448,64.228 86.183,65.762 87.506,67.58C88.269,68.63 88.291,70.22 88.646,71.566C87.168,71.793 85.655,72.342 84.218,72.187C79.314,71.66 74.437,70.884 69.116,70.143C71.803,67.972 71.707,62.742 77.538,62.818z"/><path fill="#f4f5f5" d="M85.937,105.861C82.837,106.663 79.793,107.012 76.234,107.419C76.49,103.571 76.815,100.214 76.914,96.85C77.051,92.147 80.467,92.347 83.182,93.267C85.162,93.937 88.607,94.987 86.229,99.036C85.281,100.65 86.021,103.255 85.937,105.861z"/><path fill="#eeefee" d="M135.389,54.292C136.285,51.464 137.233,49.057 138.18,46.651C138.68,46.717 139.18,46.783 139.68,46.849C140.986,55.066 142.293,63.284 143.599,71.501C136.721,67.541 135.172,61.52 135.389,54.292z"/><path fill="#f0f0ef" d="M154.438,88.662C155.572,91.224 156.468,93.473 157.392,95.795C149.745,96.923 143.94,92.631 143.913,85.969C143.911,85.301 145.514,83.922 145.84,84.068C148.695,85.341 151.43,86.885 154.438,88.662z"/><path fill="#efefef" d="M154.206,112.339C154.503,116.418 153.259,118.44 149.176,118.11C145.573,117.818 143.025,116.86 144.307,112.12C145.509,111.908 146.901,111.662 148.781,111.331C148.105,107.104 149.271,104.273 155.031,105.925C154.795,107.847 154.546,109.883 154.206,112.339z"/><path fill="#f1f2f1" d="M158.77,81.057C161.26,82.712 163.588,83.986 165.565,85.672C168.074,87.811 170.298,90.284 172.645,92.614C172.405,93.126 172.164,93.638 171.923,94.15C169.217,94.15 165.358,95.275 164.038,93.922C161.054,90.865 159.282,86.608 157.167,82.757C157,82.451 157.996,81.506 158.77,81.057z"/><path fill="#ebebeb" d="M54.662,112.349C58.562,112.114 62.083,112.114 66.77,112.114C65.793,114.848 65.582,117.976 64.276,118.532C61.968,119.514 58.661,119.693 56.422,118.717C55.074,118.129 54.955,114.724 54.662,112.349z"/><path fill="#e7e7e7" d="M129.416,114.108C131.146,115.138 132.462,116.118 133.778,117.099C132.38,118.058 131.108,119.42 129.561,119.905C123.681,121.748 121.426,120.8 118.888,115.066C122.479,114.709 125.74,114.384 129.416,114.108z"/><path fill="#f1f1f1" d="M104.982,119.245C101.907,119.711 99.197,119.95 96.158,120.219C96.158,117.448 96.158,115.387 96.158,112.921C99.661,112.921 103.011,112.921 107.526,112.921C106.625,115.442 105.986,117.23 104.982,119.245z"/><path fill="#f1f1f1" d="M79.085,120.939C73.985,120.267 75.228,116.869 76.573,114.84C77.322,113.709 80.656,113.301 82.244,113.963C84.297,114.818 85.769,117.067 88.394,119.58C84.333,120.228 81.927,120.612 79.085,120.939z"/><path fill="#dadbdb" d="M96.43,40.349C96.421,39.49 96.662,38.918 96.902,38.345C100.655,41.363 104.408,44.38 108.757,47.876C103.58,48.903 101.318,47.895 99.48,44.686C98.667,43.267 97.621,41.982 96.43,40.349z"/><path fill="#e9e9e9" d="M66.173,128.847C63.511,133.457 59.33,132.668 55.621,132.921C56.502,126.498 61.207,126.756 65.872,127.059C66.088,127.073 66.243,128.021 66.173,128.847z"/><path fill="#f2f1f1" d="M122.291,104.879C126.037,104.84 129.314,104.84 132.793,104.84C134.127,110.058 129.784,108.023 127.711,108.299C124.982,108.663 122.168,108.388 118.556,107.21C119.645,106.446 120.734,105.683 122.291,104.879z"/></svg>