<svg xmlns="http://www.w3.org/2000/svg" viewBox="0 0 195 98" xml:space="preserve"><path fill="#0a0a0a" d="M129.062,29.999C129.062,24.577 129.062,19.155 129.062,13.482C124.78,13.482 120.833,13.482 116.153,13.482C116.373,11.133 116.563,9.106 116.809,6.485C125.361,7.133 133.878,4.618 140.661,8.101C140.163,13.847 139.788,18.163 139.519,21.271C143.162,23.774 146.098,25.241 148.332,27.425C156.663,35.572 164.864,43.858 172.863,52.329C174.467,54.027 176.401,57.696 175.669,58.82C174.334,60.87 171.126,61.709 168.681,63.018C168.266,63.241 167.758,63.292 167.052,63.489C167.343,65.303 167.624,67.062 167.963,69.178C172.71,68.749 176.322,69.76 176.664,75.396C176.707,76.091 178.957,76.727 180.24,77.255C183.768,78.707 187.327,80.087 190.637,82.197C183.923,82.801 177.304,85.561 171.128,80.358C169.393,78.897 165.836,79.598 162.443,79.235C163.098,81.574 163.476,82.925 163.888,84.395C163.508,84.621 162.943,85.161 162.737,85.047C160.932,84.057 159.238,82.863 157.42,81.901C155.157,80.705 152.883,79.091 150.47,78.781C148.946,78.585 146.733,80.129 145.692,81.532C145.252,82.125 146.805,84.556 147.864,85.802C148.985,87.119 150.595,88.021 151.842,89.633C135.251,89.585 119.46,79.943 102.348,86.408C106.551,87.608 110.754,88.807 114.957,90.007C114.882,90.334 114.807,90.661 114.732,90.989C113.828,91.038 112.883,91.286 112.027,91.107C78.383,84.056 44.186,84.32 9.986,84.619C9.954,83.908 9.923,83.197 9.891,82.486C13.823,81.778 17.755,81.07 21.859,80.331C22.067,78.269 22.08,76.107 22.571,74.06C22.845,72.92 23.913,71.97 24.624,70.935C25.7,71.839 27.359,72.552 27.731,73.686C28.484,75.987 28.541,78.515 28.872,80.86C35.011,82.63 35.809,76.592 39.24,74.493C34.792,68.858 34.688,67.008 38.374,62.65C34.306,61.26 30.157,60.002 26.135,58.421C22.493,56.988 21.61,50.949 24.87,47.668C36.129,36.336 47.549,25.161 59.005,14.027C64.201,8.977 70.621,9.032 77.262,10.101C91.048,12.321 104.853,14.417 118.851,16.595C121.077,21.575 116.573,30.768 127.92,30.896C128.751,30.643 128.907,30.321 129.062,29.999M63.07,18.278C62.117,19.208 61.154,20.127 60.212,21.068C50.679,30.601 41.126,40.114 31.66,49.713C30.86,50.524 29.993,52.229 30.338,52.961C30.764,53.86 32.617,54.858 33.524,54.61C36.042,53.922 39.105,53.227 40.66,51.421C44.213,47.295 47.099,43.013 52.094,39.902C57.315,36.649 61.051,31.012 65.95,25.877C68.139,28.337 70.24,32.475 72.014,32.339C76.362,32.006 76.766,34.872 78.379,37.198C79.841,39.306 81.937,42.913 83.378,42.739C88.033,42.18 88.858,45.373 90.686,48.021C92.278,50.328 94.139,52.482 96.092,54.498C99.011,57.511 102.124,59.877 105.022,54.348C107.589,56.178 109.804,57.757 112.258,59.506C113.46,57.677 114.349,56.327 114.643,55.88C117.962,56.728 121.437,58.33 121.978,57.638C125.339,53.341 128.195,55.89 131.038,57.906C133.897,55.79 136.31,52.879 139.92,56.028C143.856,59.461 147.862,62.31 151.37,55.609C154.489,57.444 156.931,60.447 160.008,56.623C160.351,56.198 162.081,56.846 163.154,57.061C164.668,57.364 166.17,57.728 168.184,58.179C164.375,51.01 145.087,32.067 140.095,30.414C140.095,33.273 140.095,36.049 140.095,39.949C134.492,37.773 129.313,36.139 124.516,33.74C122.116,32.54 120.39,29.967 118.402,27.973C116.412,25.977 114.726,22.538 112.472,22.13C98.737,19.643 84.896,17.7 71.043,15.944C68.708,15.649 66.146,17.148 63.07,18.278M50.745,53.938C49.111,54.625 47.477,55.311 45.843,55.998C47.497,56.574 49.145,57.624 50.805,57.645C58.606,57.741 66.409,57.537 74.213,57.476C78.797,57.44 83.382,57.469 87.966,57.469C88.088,56.839 88.21,56.209 88.331,55.579C86.582,55.021 84.839,54.005 83.083,53.981C72.624,53.837 62.161,53.922 50.745,53.938M126.242,63.071C119.504,65.013 124.535,70.028 122.744,73.261C123.335,73.589 123.926,73.917 124.517,74.245C125.87,72.611 127.223,70.978 128.756,69.128C129.284,70.681 129.828,72.277 130.317,73.714C132.556,73.714 134.63,73.714 137.11,73.714C136.918,70.008 136.744,66.651 136.529,62.513C133.021,64.453 130.069,67.598 126.242,63.071M50.64,68.118C53.407,68.118 56.174,68.118 59.125,68.118C59.125,66.238 59.125,64.715 59.125,63.086C54.51,63.086 50.127,63.086 45.452,63.086C45.322,64.714 45.21,66.112 45.072,67.836C46.799,67.939 48.241,68.025 50.64,68.118M84.419,68.167C86.175,68.167 87.931,68.167 89.774,68.167C89.774,66.158 89.774,64.778 89.774,63.174C85.14,63.174 80.762,63.174 76.279,63.174C76.279,64.893 76.279,66.406 76.279,68.172C78.89,68.172 81.176,68.172 84.419,68.167M59.361,75.447C58.556,74.57 57.8,72.995 56.938,72.936C53.015,72.663 49.062,72.816 44.877,72.816C45.028,74.815 45.133,76.225 45.275,78.11C49.019,78.11 52.475,78.249 55.909,78.034C57.074,77.961 58.184,76.996 59.361,75.447M78.775,78.206C82.343,78.206 85.91,78.206 89.702,78.206C89.702,76.326 89.702,74.925 89.702,73.248C85.264,73.248 80.916,73.248 75.367,73.248C76.388,75.291 77.117,76.748 78.775,78.206M66.379,47.757C68.887,47.617 71.394,47.478 73.902,47.339C73.877,46.802 73.852,46.266 73.827,45.729C67.859,44.692 61.892,43.894 55.937,46.015C55.918,46.596 55.9,47.176 55.881,47.757C59.07,47.757 62.259,47.757 66.379,47.757M98,76.65C100.033,76.742 102.086,76.994 104.076,76.744C104.363,76.708 104.936,73.753 104.329,73.038C103.458,72.013 100.985,70.945 100.336,71.428C99.01,72.414 98.443,74.422 98,76.65M102.174,67.839C103.027,66.454 104.064,65.131 104.567,63.629C104.661,63.35 102.472,61.665 101.563,61.836C99.986,62.132 98.587,63.371 97.113,64.214C98.541,65.45 99.97,66.686 102.174,67.839z"/><path fill="#f5f5f5" d="M128.848,30.067C128.907,30.321 128.751,30.643 128.304,30.864C128.15,30.484 128.357,30.274 128.848,30.067z"/><path fill="#f9f9f9" d="M63.379,18.048C66.146,17.148 68.708,15.649 71.043,15.944C84.896,17.7 98.737,19.643 112.472,22.13C114.726,22.538 116.412,25.977 118.402,27.973C120.39,29.967 122.116,32.54 124.516,33.74C129.313,36.139 134.492,37.773 140.095,39.949C140.095,36.049 140.095,33.273 140.095,30.414C145.087,32.067 164.375,51.01 168.184,58.179C166.17,57.728 164.668,57.364 163.154,57.061C162.081,56.846 160.351,56.198 160.008,56.623C156.931,60.447 154.489,57.444 151.37,55.609C147.862,62.31 143.856,59.461 139.92,56.028C136.31,52.879 133.897,55.79 131.038,57.906C128.195,55.89 125.339,53.341 121.978,57.638C121.437,58.33 117.962,56.728 114.643,55.88C114.349,56.327 113.46,57.677 112.258,59.506C109.804,57.757 107.589,56.178 105.022,54.348C102.124,59.877 99.011,57.511 96.092,54.498C94.139,52.482 92.278,50.328 90.686,48.021C88.858,45.373 88.033,42.18 83.378,42.739C81.937,42.913 79.841,39.306 78.379,37.198C76.766,34.872 76.362,32.006 72.014,32.339C70.24,32.475 68.139,28.337 65.95,25.877C61.051,31.012 57.315,36.649 52.094,39.902C47.099,43.013 44.213,47.295 40.66,51.421C39.105,53.227 36.042,53.922 33.524,54.61C32.617,54.858 30.764,53.86 30.338,52.961C29.993,52.229 30.86,50.524 31.66,49.713C41.126,40.114 50.679,30.601 60.212,21.068C61.154,20.127 62.117,19.208 63.379,18.048z"/><path fill="#eaeaea" d="M51.222,53.934C62.161,53.922 72.624,53.837 83.083,53.981C84.839,54.005 86.582,55.021 88.331,55.579C88.21,56.209 88.088,56.839 87.966,57.469C83.382,57.469 78.797,57.44 74.213,57.476C66.409,57.537 58.606,57.741 50.805,57.645C49.145,57.624 47.497,56.574 45.843,55.998C47.477,55.311 49.111,54.625 51.222,53.934z"/><path fill="#ededed" d="M126.598,63.302C130.069,67.598 133.021,64.453 136.529,62.513C136.744,66.651 136.918,70.008 137.11,73.714C134.63,73.714 132.556,73.714 130.317,73.714C129.828,72.277 129.284,70.681 128.756,69.128C127.223,70.978 125.87,72.611 124.517,74.245C123.926,73.917 123.335,73.589 122.744,73.261C124.535,70.028 119.504,65.013 126.598,63.302z"/><path fill="#f7f7f7" d="M50.162,68.114C48.241,68.025 46.799,67.939 45.072,67.836C45.21,66.112 45.322,64.714 45.452,63.086C50.127,63.086 54.51,63.086 59.125,63.086C59.125,64.715 59.125,66.238 59.125,68.118C56.174,68.118 53.407,68.118 50.162,68.114z"/><path fill="#f6f6f6" d="M83.941,68.17C81.176,68.172 78.89,68.172 76.279,68.172C76.279,66.406 76.279,64.893 76.279,63.174C80.762,63.174 85.14,63.174 89.774,63.174C89.774,64.778 89.774,66.158 89.774,68.167C87.931,68.167 86.175,68.167 83.941,68.17z"/><path fill="#fbfbfb" d="M59.34,75.943C58.184,76.996 57.074,77.961 55.909,78.034C52.475,78.249 49.019,78.11 45.275,78.11C45.133,76.225 45.028,74.815 44.877,72.816C49.062,72.816 53.015,72.663 56.938,72.936C57.8,72.995 58.556,74.57 59.34,75.943z"/><path fill="#f2f2f2" d="M78.31,78.205C77.117,76.748 76.388,75.291 75.367,73.248C80.916,73.248 85.264,73.248 89.702,73.248C89.702,74.925 89.702,76.326 89.702,78.206C85.91,78.206 82.343,78.206 78.31,78.205z"/><path fill="#d2d3d3" d="M65.914,47.757C62.259,47.757 59.07,47.757 55.881,47.757C55.9,47.176 55.918,46.596 55.937,46.015C61.892,43.894 67.859,44.692 73.827,45.729C73.852,46.266 73.877,46.802 73.902,47.339C71.394,47.478 68.887,47.617 65.914,47.757z"/><path fill="#e8e8e8" d="M97.782,76.33C98.443,74.422 99.01,72.414 100.336,71.428C100.985,70.945 103.458,72.013 104.329,73.038C104.936,73.753 104.363,76.708 104.076,76.744C102.086,76.994 100.033,76.742 97.782,76.33z"/><path fill="#eaeaea" d="M101.786,67.88C99.97,66.686 98.541,65.45 97.113,64.214C98.587,63.371 99.986,62.132 101.563,61.836C102.472,61.665 104.661,63.35 104.567,63.629C104.064,65.131 103.027,66.454 101.786,67.88z"/></svg>