<svg xmlns="http://www.w3.org/2000/svg" viewBox="0 0 150 152" xml:space="preserve"><path fill="#0d0d0e" d="M67.227,143.062C66.198,142.637 65.184,141.899 64.136,141.844C61.002,141.681 57.854,141.786 55.822,141.786C53.741,143.221 52.421,144.601 50.817,145.155C44.902,147.196 39.086,146.19 32.128,143.805C34.998,140.286 37.468,137.26 40.075,134.063C38.069,134.063 35.341,133.571 32.885,134.179C29.23,135.084 26.088,135.978 23.398,132.147C22.78,131.268 20.487,131.565 18.965,131.321C18.907,132.55 18.849,133.779 18.762,135.618C16.156,135.618 13.248,135.618 10.34,135.618C15.198,134.036 16.124,125.03 23.406,128.852C28.617,114.894 29.66,108.733 44.843,114.707C45.456,102.616 45.474,102.58 53.912,96.461C48.12,87.798 49.98,81.696 61.074,74.036C56.046,71.332 55.252,67.131 55.978,61.915C56.797,56.024 60.862,54.075 64.716,52.965C63.544,48.847 61.621,45.016 61.568,41.159C61.502,36.37 65.666,34.355 70.387,33.008C66.508,26.195 70.057,20.942 74.023,15.975C77.393,11.753 81.185,11.854 84.264,16.273C87.574,21.024 91.136,25.903 88.012,32.206C97.423,37.433 98.484,41.943 92.466,50.79C101.359,59.427 102.47,63.838 97.8,71.959C107.862,78.312 109.309,83.865 103.795,94.963C112.094,101.421 114.628,108.103 111.881,116.903C113.024,117.818 114.271,118.816 115.479,119.784C125.715,114.686 128.925,116.644 132.19,130.149C129.794,132.479 127.275,134.365 123.361,133.176C122.393,132.882 120.553,133.358 120,134.121C113.896,142.546 104.855,141.884 96.107,141.967C94.006,141.987 91.897,141.189 89.662,140.741C88.625,146.639 84.174,145.338 79.985,145.039C81.512,142.593 83.541,140.709 85.611,138.789C80.835,132.772 73.529,134.138 70.322,141.663C73.47,142.849 76.633,144.041 79.797,145.233C76.12,145.172 72.443,145.112 68.376,144.684C67.733,143.898 67.48,143.48 67.227,143.062M78.465,40.133C82.807,40.133 87.149,40.133 92.381,40.133C88.017,34.543 74.321,34.542 68.136,39.001C64.753,38.434 64.374,41.128 64.927,42.958C65.591,45.154 67.195,48.329 68.902,48.693C72.827,49.53 77.061,48.927 81.169,48.877C81.288,48.876 81.404,48.534 81.538,48.325C80.669,47.98 79.879,47.665 78.846,47.254C82.882,44.364 82.468,42.321 78.465,40.133M90.915,106.353C96.7,106.929 101.877,105.11 107.29,102.803C104.203,99.262 101.249,98.658 97.145,99.447C88.127,101.182 78.955,102.111 69.031,103.558C67.669,103.766 66.306,103.974 64.819,103.585C64.886,103.392 64.952,103.2 65.772,102.931C66.821,102.463 67.87,101.995 68.92,101.527C64.132,101.312 59.567,97.284 54.354,101.18C54.46,101.633 54.566,102.085 55.371,102.778C55.879,103.102 56.386,103.427 56.894,103.751C56.362,104.167 55.768,104.993 55.309,104.924C53.723,104.685 52.185,104.134 50.5,103.666C50.025,105.033 49.547,106.089 49.292,107.197C47.673,114.255 50.31,117.508 57.682,117.897C60.531,118.048 63.351,118.681 66.197,118.956C72.995,119.612 79.803,120.597 86.604,120.58C89.128,120.573 93.766,118.095 93.741,116.817C93.681,113.811 91.394,110.849 90.06,107.198C90.071,106.973 90.081,106.749 90.915,106.353M67.239,135.649C68.761,134.781 70.245,133.834 71.82,133.074C72.706,132.647 73.74,132.526 74.845,132.635C75.131,132.687 75.417,132.739 75.702,132.792C75.697,132.364 75.692,131.937 75.368,130.898C74.372,129.583 73.511,128.133 72.356,126.977C68.365,122.985 63.588,120 57.869,121.428C51.473,123.025 45.959,126.337 44.658,133.658C46.575,134.38 48.56,134.776 50.153,135.789C56.525,139.84 56.997,139.87 61.903,135.617C62.281,136.761 62.659,137.906 63.163,139.431C64.83,137.461 65.869,136.235 67.239,135.649M79.111,55.904C79.111,55.904 79.262,55.775 79.54,54.904C76.035,54.464 72.53,54.025 68.663,53.539C69.884,61.545 64.355,58.478 60.584,59.264C60.332,61.88 59.54,64.702 60.075,67.246C60.283,68.231 63.952,68.092 65.258,69.309C71.182,74.832 78.034,71.151 85.501,72.32C83.715,70.918 82.897,70.275 82.348,69.844C83.392,68.455 84.388,67.128 85.527,65.613C82.408,64.199 79.857,63.043 77.699,62.064C83.701,61.39 89.712,60.714 95.723,60.039C95.783,59.127 95.843,58.215 95.902,57.303C93.1,56.513 90.336,55.326 87.483,55.046C84.768,54.779 81.96,55.46 79.111,55.904M77.423,85.009C75.983,84.763 74.543,84.524 73.105,84.27C67.527,83.284 61.949,82.293 56.287,81.289C56.04,83.058 55.986,83.713 55.854,84.352C54.228,92.267 54.589,93.163 62.448,94.916C67.404,96.021 72.522,96.563 77.597,96.901C80.516,97.096 84.241,97.649 84.585,92.892C85.051,86.45 84.587,85.872 77.423,85.009M111.066,126.675C112.025,126.221 112.984,125.767 114.001,125.285C108.336,115.759 100.327,122.389 93.616,122.309C87.89,122.241 84.642,127.045 83.101,132.747C84.582,133.53 86.728,133.948 87.492,135.205C89.747,138.917 93.299,138.819 96.768,139.122C101.22,139.51 103.152,137.577 102.86,133.057C102.782,131.842 102.322,130.651 102.102,129.727C105.073,128.757 107.728,127.891 111.066,126.675M68.607,76.653C66.928,76.786 65.248,76.918 62.71,77.118C72.295,84.118 94.368,87.873 102.137,79.814C99.53,76.461 96.613,75.004 91.941,75.583C84.561,76.496 77.043,76.3 68.607,76.653M29.271,123.996C23.723,135.069 33.308,129.157 36.339,130.369C37.444,127.306 38.55,124.243 39.752,120.914C41.617,121.306 43.717,121.748 45.817,122.189C46.004,121.806 46.191,121.422 46.378,121.039C43.845,119.373 41.517,117.078 38.737,116.172C32.659,114.192 31.337,119.167 29.271,123.996M72.19,25.905C71.842,29.351 73.248,32.303 76.656,32.173C78.172,32.115 79.699,28.764 80.956,26.743C81.854,25.3 82.311,23.582 83.321,21.116C82.433,19.907 80.932,17.863 78.649,14.754C76.23,18.858 74.363,22.024 72.19,25.905M38.137,140.821C42.471,146.099 45.706,142.178 49.151,139.565C45.113,135.993 43.096,136.133 38.137,140.821M124.248,120.754C122.165,121.204 120.082,121.654 117.707,122.168C120.362,124.976 122.337,127.065 124.942,129.821C124.942,126.365 124.942,123.787 124.248,120.754M80.789,128.005C80.018,127.226 79.246,126.447 78.475,125.668C78.181,126.017 77.887,126.366 77.593,126.715C78.533,127.317 79.473,127.919 80.789,128.005z"/><path fill="#282929" d="M129.279,138.572C127.566,142.431 125.26,142.752 119.263,140.303C121.197,138.597 122.937,136.558 125.143,135.422C125.813,135.077 127.768,137.227 129.279,138.572z"/><path fill="#1f1f1f" d="M133.908,131.809C137.216,128.374 139.503,130.29 142.005,132.634C139.067,136.008 136.037,134.799 132.996,133.442C133.23,133.01 133.463,132.578 133.908,131.809z"/><path fill="#1c1c1c" d="M66.981,143.199C67.48,143.48 67.733,143.898 68,144.572C67.587,144.33 67.161,143.833 66.981,143.199z"/><path fill="#f4f4f4" d="M90.008,107.869C91.394,110.849 93.681,113.811 93.741,116.817C93.766,118.095 89.128,120.573 86.604,120.58C79.803,120.597 72.995,119.612 66.197,118.956C63.351,118.681 60.531,118.048 57.682,117.897C50.31,117.508 47.673,114.255 49.292,107.197C49.547,106.089 50.025,105.033 50.5,103.666C52.185,104.134 53.723,104.685 55.309,104.924C55.768,104.993 56.362,104.167 56.894,103.751C56.386,103.427 55.879,103.102 55.147,102.308C54.953,101.593 54.983,101.347 55.014,101.102C59.567,97.284 64.132,101.312 68.92,101.527C67.87,101.995 66.821,102.463 64.978,102.952C62.195,103.369 60.206,103.766 58.217,104.163C58.411,104.807 58.605,105.45 58.799,106.093C60.848,105.456 62.896,104.819 64.944,104.182C66.306,103.974 67.669,103.766 69.53,103.784C70.325,104.332 70.621,104.654 70.978,105.385C77.362,106.485 83.685,107.177 90.008,107.869z"/><path fill="#f0f1f1" d="M79.193,55.724C81.96,55.46 84.768,54.779 87.483,55.046C90.336,55.326 93.1,56.513 95.902,57.303C95.843,58.215 95.783,59.127 95.723,60.039C89.712,60.714 83.701,61.39 77.699,62.064C79.857,63.043 82.408,64.199 85.527,65.613C84.388,67.128 83.392,68.455 82.348,69.844C82.897,70.275 83.715,70.918 85.501,72.32C78.034,71.151 71.182,74.832 65.258,69.309C63.952,68.092 60.283,68.231 60.075,67.246C59.54,64.702 60.332,61.88 60.584,59.264C64.355,58.478 69.884,61.545 68.663,53.539C72.53,54.025 76.035,54.464 79.027,55.412C75.828,56.242 73.142,56.565 70.456,56.887C71.922,58.527 73.883,60.072 75.456,59.746C76.917,59.444 77.964,57.144 79.193,55.724z"/><path fill="#f4f4f4" d="M77.851,85.03C84.587,85.872 85.051,86.45 84.585,92.892C84.241,97.649 80.516,97.096 77.597,96.901C72.522,96.563 67.404,96.021 62.448,94.916C54.589,93.163 54.228,92.267 55.854,84.352C55.986,83.713 56.04,83.058 56.287,81.289C61.949,82.293 67.527,83.284 73.105,84.27C74.543,84.524 75.983,84.763 77.851,85.03z"/><path fill="#efefef" d="M110.724,126.85C107.728,127.891 105.073,128.757 102.102,129.727C102.322,130.651 102.782,131.842 102.86,133.057C103.152,137.577 101.22,139.51 96.768,139.122C93.299,138.819 89.747,138.917 87.492,135.205C86.728,133.948 84.582,133.53 83.101,132.747C84.642,127.045 87.89,122.241 93.616,122.309C100.327,122.389 108.336,115.759 114.001,125.285C112.984,125.767 112.025,126.221 110.724,126.85z"/><path fill="#f1f1f1" d="M61.751,134.82C56.997,139.87 56.525,139.84 50.153,135.789C48.56,134.776 46.575,134.38 44.658,133.658C45.959,126.337 51.473,123.025 57.869,121.428C63.588,120 68.365,122.985 72.356,126.977C73.511,128.133 74.372,129.583 75.277,131.386C75.027,132.005 74.867,132.136 74.707,132.267C73.74,132.526 72.706,132.647 71.82,133.074C70.245,133.834 68.761,134.781 67.099,135.032C66.829,133.705 66.699,132.995 66.898,132.132C67.718,130.981 68.208,129.982 68.698,128.983C67.088,129.572 65.477,130.16 63.582,130.977C63.205,132.167 63.112,133.129 62.743,134.073C62.226,134.316 61.985,134.576 61.764,134.856C61.784,134.876 61.751,134.82 61.751,134.82z"/><path fill="#f3f3f3" d="M69.096,76.614C77.043,76.3 84.561,76.496 91.941,75.583C96.613,75.004 99.53,76.461 102.137,79.814C94.368,87.873 72.295,84.118 62.71,77.118C65.248,76.918 66.928,76.786 69.096,76.614z"/><path fill="#ecedec" d="M70.916,104.977C70.621,104.654 70.325,104.332 69.937,103.689C78.955,102.111 88.127,101.182 97.145,99.447C101.249,98.658 104.203,99.262 107.29,102.803C101.877,105.11 96.7,106.929 90.12,106.316C83.189,105.845 77.053,105.411 70.916,104.977z"/><path fill="#efefef" d="M29.472,123.652C31.337,119.167 32.659,114.192 38.737,116.172C41.517,117.078 43.845,119.373 46.378,121.039C46.191,121.422 46.004,121.806 45.817,122.189C43.717,121.748 41.617,121.306 39.752,120.914C38.55,124.243 37.444,127.306 36.339,130.369C33.308,129.157 23.723,135.069 29.472,123.652z"/><path fill="#f4f4f3" d="M78.163,40.931C82.468,42.321 82.882,44.364 78.846,47.254C79.879,47.665 80.669,47.98 81.538,48.325C81.404,48.534 81.288,48.876 81.169,48.877C77.061,48.927 72.827,49.53 68.902,48.693C67.195,48.329 65.591,45.154 64.927,42.958C64.374,41.128 64.753,38.434 68.777,39.255C72.333,39.983 75.248,40.457 78.163,40.931z"/><path fill="#f3f3f3" d="M72.343,25.548C74.363,22.024 76.23,18.858 78.649,14.754C80.932,17.863 82.433,19.907 83.321,21.116C82.311,23.582 81.854,25.3 80.956,26.743C79.699,28.764 78.172,32.115 76.656,32.173C73.248,32.303 71.842,29.351 72.343,25.548z"/><path fill="#f0f1f1" d="M79.812,145.204C76.633,144.041 73.47,142.849 70.322,141.663C73.529,134.138 80.835,132.772 85.611,138.789C83.541,140.709 81.512,142.593 79.653,144.865C79.823,145.253 79.827,145.176 79.812,145.204z"/><path fill="#e5e6e6" d="M78.314,40.532C75.248,40.457 72.333,39.983 69.197,39.222C74.321,34.542 88.017,34.543 92.381,40.133C87.149,40.133 82.807,40.133 78.314,40.532z"/><path fill="#e2e3e3" d="M38.379,140.532C43.096,136.133 45.113,135.993 49.151,139.565C45.706,142.178 42.471,146.099 38.379,140.532z"/><path fill="#171716" d="M70.978,105.385C77.053,105.411 83.189,105.845 89.708,106.402C90.081,106.749 90.071,106.973 90.034,107.533C83.685,107.177 77.362,106.485 70.978,105.385z"/><path fill="#e8e8e8" d="M124.595,120.982C124.942,123.787 124.942,126.365 124.942,129.821C122.337,127.065 120.362,124.976 117.707,122.168C120.082,121.654 122.165,121.204 124.595,120.982z"/><path fill="#1c1c1c" d="M66.569,132.284C66.699,132.995 66.829,133.705 66.933,134.712C65.869,136.235 64.83,137.461 63.163,139.431C62.659,137.906 62.281,136.761 61.827,135.219C61.751,134.82 61.784,134.876 62.02,134.817C62.51,134.535 62.764,134.313 63.019,134.091C63.112,133.129 63.205,132.167 63.821,131.302C65.086,131.693 65.827,131.989 66.569,132.284z"/><path fill="#dddede" d="M64.882,103.883C62.896,104.819 60.848,105.456 58.799,106.093C58.605,105.45 58.411,104.807 58.217,104.163C60.206,103.766 62.195,103.369 64.601,102.99C64.952,103.2 64.886,103.392 64.882,103.883z"/><path fill="#1c1c1c" d="M80.601,128.263C79.473,127.919 78.533,127.317 77.593,126.715C77.887,126.366 78.181,126.017 78.475,125.668C79.246,126.447 80.018,127.226 80.601,128.263z"/><path fill="#f1f1f1" d="M75.437,131.692C75.692,131.937 75.697,132.364 75.702,132.792C75.417,132.739 75.131,132.687 74.776,132.451C74.867,132.136 75.027,132.005 75.437,131.692z"/><path fill="#dddede" d="M54.684,101.141C54.983,101.347 54.953,101.593 54.797,102.188C54.566,102.085 54.46,101.633 54.684,101.141z"/><path fill="#dadcdb" d="M79.152,55.814C77.964,57.144 76.917,59.444 75.456,59.746C73.883,60.072 71.922,58.527 70.456,56.887C73.142,56.565 75.828,56.242 78.888,55.847C79.262,55.775 79.111,55.904 79.152,55.814z"/><path fill="#0d0d0e" d="M66.898,132.132C65.827,131.989 65.086,131.693 64.106,131.073C65.477,130.16 67.088,129.572 68.698,128.983C68.208,129.982 67.718,130.981 66.898,132.132z"/><path fill="#0d0d0e" d="M62.743,134.073C62.764,134.313 62.51,134.535 62,134.796C61.985,134.576 62.226,134.316 62.743,134.073z"/></svg>