<svg xmlns="http://www.w3.org/2000/svg" viewBox="0 0 236 130" xml:space="preserve"><path fill="#111111" d="M136.308,112.654C135.696,111.515 135.083,110.376 134.135,108.614C136.064,109.103 137.49,109.464 138.783,109.792C139.083,103.763 139.383,97.734 139.683,91.706C140.576,91.719 141.468,91.732 142.361,91.745C142.422,93.564 142.889,95.48 142.48,97.185C139.688,108.814 147.93,119.787 159.568,120.015C165.178,120.125 168.52,117.315 171.209,112.308C172.337,111.978 173.022,111.941 173.706,111.904C176.247,109.794 180.059,108.159 181.059,105.476C183.054,100.122 180.807,94.806 177.947,89.942C176.845,88.069 176.101,85.985 175.226,84.068C164.191,79.611 153.646,83.163 143.317,89.065C145.103,84.317 148.626,82.037 152.759,80.947C155.694,80.173 156.632,78.623 157.003,75.841C157.88,69.268 159.057,62.734 160.419,55.608C160.867,54.944 160.998,54.819 161.151,54.781C161.268,54.752 161.528,54.831 161.528,54.863C161.547,57.762 161.772,60.683 161.499,63.556C161.025,68.545 160.243,73.504 159.575,78.587C163.475,78.253 163.728,77.841 163.196,74.657C162.933,73.078 162.694,71.364 163.03,69.842C163.85,66.128 165.222,62.531 165.951,58.804C166.325,56.887 164.944,54.212 165.843,52.892C168.326,49.244 166.517,46.982 164.805,45.035C163.668,47.207 162.44,49.552 161.213,51.896C160.555,46.402 163.21,40.579 159.692,35.398C158.964,34.327 157.704,32.967 156.612,32.895C147.017,32.26 137.404,31.887 127.883,31.441C126.215,35.383 126.912,37.918 129.479,40.818C132.463,44.191 136.443,48.449 136.423,52.304C136.393,58.232 139.456,62.924 140.07,68.352C140.593,72.97 137.571,78.15 132.726,79.643C128.848,80.838 124.553,81.525 120.53,81.235C110.22,80.49 103.128,74.821 108.286,61.705C109.429,58.797 108.565,55.064 109.826,52.248C111.728,47.998 114.455,44.049 117.268,40.298C119.397,37.459 120.558,34.804 118.942,31.128C109.846,30.729 100.743,30.33 90.709,29.891C89.925,35.241 88.966,40.379 88.459,45.561C87.572,54.634 86.858,63.727 86.288,72.825C86.063,76.408 87.38,78.218 91.582,76.757C93.06,76.243 95.233,77.575 97.04,78.203C98.863,78.838 100.626,79.646 102.614,81.616C95.451,82.753 88.311,84.09 81.115,84.945C77.387,85.387 78.06,87.435 78.195,89.771C91.834,88.694 107.296,100.856 106.047,112.205C108.717,113.469 111.334,114.706 113.951,115.944C110.05,117.205 107.244,121.422 102.167,117.555C100.183,116.044 94.763,119.044 90.909,119.99C91.016,120.48 91.123,120.969 91.23,121.459C92.447,122.022 93.664,122.584 96.202,123.757C88.051,124.757 81.456,128.409 74.622,124.321C69.981,121.544 66.226,125.017 62.632,126.475C54.28,129.863 48.148,126.234 41.608,121.493C41.519,120.532 41.767,119.791 42.13,118.644C42.97,113.105 39.626,111.103 35.569,109.942C31.46,108.767 26.982,110.963 25.145,114.696C24.43,116.15 23.691,117.591 22.963,119.038C22.111,117.904 21.259,116.77 21.003,116.429C16.962,117.404 13.223,118.307 9.484,119.21C9.299,118.627 9.115,118.044 8.931,117.461C9.65,117.134 10.368,116.808 12.13,116.008C8.914,114.943 6.447,114.125 5.115,113.684C6.225,110.791 7.481,108.448 8.011,105.95C9.195,100.369 11.402,98.702 17.492,99.931C17.998,92.914 22.445,90.902 27.971,91.835C29.64,87.278 31.042,83.134 32.676,79.084C34.219,75.26 36.008,71.535 38.061,66.931C38.586,68.133 39.428,70.059 39.986,71.336C43.112,66.451 45.129,62.337 48.038,59.003C51.582,54.942 55.348,51.275 53.889,43.854C60.098,49.479 62.581,54.769 62.158,61.819C61.916,65.841 63.205,69.955 63.805,74.028C64.415,74.023 65.025,74.018 65.636,74.013C66.887,71.305 68.139,68.598 69.713,65.194C71.55,69.488 73.12,73.157 75.277,78.199C77.009,65.693 78.537,54.654 80.069,43.615C80.297,41.97 80.586,40.333 80.77,38.684C81.404,32.995 79.154,30.082 74.033,29.051C72.643,28.771 71.547,27.032 70.317,25.962C71.745,24.579 73.173,23.196 74.918,21.505C74.177,20.525 72.788,19.071 71.886,17.36C71.306,16.26 71.443,14.783 71.259,13.474C72.653,13.441 74.447,12.836 75.364,13.481C78.064,15.375 80.4,17.784 82.915,19.948C83.491,20.443 84.212,20.768 85.172,21.36C86.759,15.587 88.243,10.188 89.728,4.789C90.346,4.891 90.964,4.993 91.581,5.096C95.111,10.438 91.998,16.301 92.173,23.117C113.185,23.733 134.212,24.348 155.965,24.985C154.092,20.676 152.354,17.372 151.278,13.864C150.84,12.437 151.361,10.104 152.362,9.072C152.985,8.43 155.325,9.454 156.344,9.634C155.498,12.3 154.876,14.26 154.254,16.22C157.762,13.771 159.391,14.517 161.148,17.342C162.447,19.429 164.34,21.145 165.968,23.027C167.038,20.762 168.004,18.44 169.207,16.248C170.492,13.903 169.988,9.257 174.316,10.379C178.609,11.492 177.156,15.241 176.398,18.324C175.889,20.397 175.495,22.498 175.008,24.777C177.749,24.934 180.416,24.568 182.649,25.386C184.318,25.998 186.73,28.428 186.484,29.53C186.096,31.271 183.97,33.422 182.195,33.867C179.596,34.517 176.657,33.813 173.811,33.684C171.716,38.129 171.13,42.35 172.58,47.117C175.128,55.494 177.113,64.042 179.537,73.292C185.086,71.007 190.259,69.378 194.95,66.853C209.605,58.965 222.195,72.451 222.837,85.59C223.09,90.784 221.272,96.079 220.368,101.502C221.809,100.518 223.919,99.077 226.611,97.239C226.805,98.846 226.909,99.707 227.051,100.888C228.024,100.589 229.091,100.262 230.717,99.764C229.983,101.124 229.56,101.907 229.085,102.788C230.774,103.245 232.336,103.667 233.898,104.089C233.919,104.579 233.94,105.069 233.961,105.56C227.151,106.051 220.34,106.542 213.53,107.034C213.447,107.294 213.364,107.555 213.281,107.816C215.098,108.523 216.915,109.229 218.733,109.935C218.687,110.411 218.641,110.886 218.596,111.362C212.85,111.362 207.103,111.362 201.357,111.362C201.354,111.805 201.351,112.248 201.348,112.691C204,113.166 206.652,113.641 209.304,114.116C209.308,114.493 209.312,114.869 209.315,115.246C202.862,115.246 196.409,115.246 189.956,115.246C189.92,115.656 189.884,116.065 189.849,116.475C191.39,116.889 192.932,117.303 194.474,117.717C194.462,118.02 194.45,118.323 194.438,118.626C190.164,118.626 185.89,118.626 181.616,118.626C181.568,118.96 181.521,119.295 181.473,119.629C183.014,120.164 184.555,120.699 186.096,121.234C186.063,121.499 186.03,121.764 185.997,122.029C181.275,122.029 176.552,122.029 171.213,122.029C172.122,123.519 172.657,124.396 173.187,125.266C165.395,125.266 157.803,125.266 150.212,125.266C150.143,124.874 150.074,124.482 150.005,124.09C151.016,123.549 152.026,123.007 154.056,121.919C149.81,122.154 146.625,122.33 142.301,122.57C143.907,121.478 144.662,120.965 145.417,120.451C145.489,120.032 145.56,119.613 145.632,119.194C139.621,118.794 133.609,118.395 127.597,117.996C127.525,117.681 127.453,117.366 127.381,117.051C129.257,116.506 131.133,115.96 133.113,115.384C132.844,114.598 132.557,113.759 132.156,112.583C133.267,112.884 134.029,113.09 135.391,113.597C136.447,113.867 136.903,113.836 137.36,113.804C137.009,113.421 136.659,113.038 136.308,112.654M43.001,102.928C43.266,102.861 43.531,102.793 43.796,102.725C43.643,102.372 43.489,102.019 43.209,100.839C43.446,97.896 43.684,94.953 43.921,92.01C44.393,92.015 44.865,92.019 45.336,92.024C45.683,92.883 46.03,93.741 46.619,95.2C49.599,90.274 52.234,85.917 54.796,81.682C56.788,86.64 58.955,92.034 61.521,98.421C62.986,95.85 63.71,94.578 65.162,92.028C65.823,96.561 66.307,99.881 66.783,103.151C74.894,101.141 79.694,90.727 69.332,73.158C68.164,76.249 67.036,79.234 65.559,83.146C64.047,79.955 63.229,77.577 61.892,75.54C58.848,70.899 57.291,66.252 58.774,60.517C59.425,58.004 58.143,54.992 57.734,52.18C55.175,55.431 53.255,58.212 50.986,60.673C47.588,64.36 45.038,68.191 46.037,73.567C46.867,78.034 44.517,81.144 40.722,84.242C40.22,80.828 39.781,77.852 39.291,74.523C29.813,88.141 31.025,97.727 43.001,102.928M194.978,75.095C186.633,71.091 180.188,76.494 172.361,79.105C174.727,80.109 176.659,80.342 177.587,81.43C180.554,84.911 183.096,88.75 185.931,92.349C186.514,93.089 187.653,93.391 188.535,93.894C188.899,93.097 189.614,92.278 189.568,91.505C189.355,87.883 191.641,86.858 194.51,85.711C199.202,83.836 201.069,86.754 203.51,90.207C204.369,88.44 205.275,86.239 204.547,85.29C201.873,81.806 198.657,78.737 194.978,75.095M210.329,69.884C203.935,66.716 202.346,66.8 196.473,70.648C205.354,73.961 210.271,80.423 212.052,89.616C212.311,90.955 214.013,92.015 215.047,93.204C216.171,92.2 217.926,91.397 218.318,90.162C220.997,81.73 216.961,75.596 210.329,69.884M62.427,114.936C58.005,111.913 53.304,111.525 48.986,114.643C47.379,115.804 46.391,118.434 46.116,120.525C46.006,121.362 48.446,123.097 49.959,123.467C53.047,124.223 56.293,124.331 60.097,124.78C59.227,122.589 58.774,121.448 58.094,119.733C60.875,120.15 63.289,120.512 67.355,121.122C65.473,118.591 64.281,116.988 62.427,114.936M69.423,117.198C71.785,121.377 76.991,123.574 81.133,121.901C82.142,121.494 83.043,120.346 83.57,119.321C84.493,117.526 85.089,115.563 86.075,113.014C81.149,107.887 73.096,109.023 69.423,117.198M197.32,102.831C195.597,101.548 193.909,100.216 192.142,98.998C190.77,98.053 189.299,97.252 187.316,96.049C187.316,100.208 187.316,102.832 187.316,105.161C193.001,109.825 198.268,108.248 202.909,104.162C206.775,100.757 207.927,96.301 205.162,90.067C203.94,92.899 203.312,94.856 202.295,96.584C201.053,98.695 199.485,100.615 197.32,102.831M89.389,104.575C88.167,105.998 86.946,107.421 85.987,108.539C87.999,110.436 89.976,111.603 90.908,113.333C92.545,116.367 94.972,116.507 97.597,115.834C102.029,114.697 101.578,110.834 100.818,107.852C100.348,106.006 98.126,103.966 96.239,103.308C94.477,102.694 92.119,103.791 89.389,104.575M16.528,102.084C12.558,102.191 12.166,105.427 10.994,108.161C9.694,111.196 11.408,112.532 13.666,113.462C16.096,114.463 18.175,114.194 19.058,111.113C19.399,109.926 20.246,108.884 20.835,107.826C22.4,108.214 23.635,108.52 24.87,108.826C25.134,108.312 25.397,107.798 25.661,107.284C22.878,105.559 20.095,103.833 16.528,102.084M117.578,62.092C119.185,57.52 115.188,59.847 114.001,58.592C108.436,68.445 109.065,74.442 115.337,75.768C115.98,71.485 116.625,67.188 117.578,62.092M80.691,76.121C81.974,64.599 83.257,53.077 84.54,41.556C83.967,41.497 83.395,41.437 82.823,41.378C81.147,54.873 79.472,68.369 77.796,81.864C78.353,81.947 78.91,82.03 79.466,82.112C79.842,80.408 80.217,78.704 80.691,76.121M170.186,62.515C169.809,61.355 169.433,60.195 168.62,57.689C167.798,65.051 167.138,70.954 166.384,77.706C169.063,76.722 171.085,75.98 173.228,75.193C172.222,70.871 171.335,67.056 170.186,62.515M121.398,48.095C124.21,48.31 127.022,48.525 129.881,48.744C129.001,43.386 126.152,40.51 121.201,41.895C119.169,42.463 117.795,45.382 115.3,48.14C118.204,48.14 119.345,48.14 121.398,48.095M95.437,98.03C91.91,94.796 88.597,95.771 85.306,98.464C87.982,101.472 93.349,102.515 96.469,100.576C96.653,100.462 96.166,99.267 95.437,98.03M25.673,94.772C23.676,96.065 21.679,97.357 19.014,99.083C21.867,100.329 23.432,101.013 24.996,101.696C24.839,101.281 24.681,100.865 24.524,100.45C26.496,99.15 28.469,97.851 30.933,96.227C29.497,95.729 27.984,95.205 25.673,94.772M161.541,24.983C160.278,22.505 159.014,20.026 157.38,16.818C155.299,22.346 160.186,24.966 160.867,28.839C161.045,29.852 162.367,30.663 163.164,31.567C163.5,31.347 163.837,31.127 164.173,30.907C163.412,29.149 162.651,27.39 161.541,24.983M176.259,27.652C174.517,27.813 172.776,27.974 171.034,28.135C176.802,31.479 180.611,31.207 182.021,28.111C180.347,27.986 178.722,27.866 176.259,27.652M146.758,29.016C150.079,29.016 153.401,29.016 156.722,29.016C156.696,28.423 156.669,27.83 156.643,27.236C151.607,27.236 146.57,27.236 141.534,27.236C141.491,27.59 141.448,27.944 141.404,28.298C142.887,28.528 144.37,28.757 146.758,29.016M78.856,93.759C80.053,95.171 81.25,96.583 82.508,98.067C84.373,96.355 85.61,95.219 87.874,93.14C84.129,93.14 81.748,93.14 78.856,93.759M165.161,33.229C164.596,33.375 164.03,33.52 163.464,33.666C163.661,34.04 163.859,34.414 164.057,34.788C164.575,34.422 165.093,34.055 165.161,33.229M139.97,110.383C139.6,110.315 139.229,110.247 138.859,110.178C138.934,110.569 138.948,110.991 139.124,111.329C139.172,111.422 139.706,111.262 139.97,110.383M163.485,37.615C163.485,37.615 163.585,37.441 163.585,37.441C163.585,37.441 163.388,37.465 163.485,37.615z"/><path fill="#f2f2f2" d="M22.957,119.223C23.691,117.591 24.43,116.15 25.145,114.696C26.982,110.963 31.46,108.767 35.569,109.942C39.626,111.103 42.97,113.105 41.739,118.684C40.51,118.095 39.789,117.06 38.973,115.888C38.353,116.329 37.552,116.589 37.346,117.092C35.481,121.659 32.324,121.246 28.474,119.893C26.896,119.339 24.884,120.016 23.069,120.133C22.995,119.897 22.956,119.655 22.957,119.223z"/><path fill="#f4f4f3" d="M160.904,52.135C162.44,49.552 163.668,47.207 164.805,45.035C166.517,46.982 168.326,49.244 165.843,52.892C164.944,54.212 166.325,56.887 165.951,58.804C165.222,62.531 163.85,66.128 163.03,69.842C162.694,71.364 162.933,73.078 163.196,74.657C163.728,77.841 163.475,78.253 159.575,78.587C160.243,73.504 161.025,68.545 161.499,63.556C161.772,60.683 161.547,57.762 161.528,54.863C161.528,54.831 161.268,54.752 161.151,54.781C160.998,54.819 160.867,54.944 160.436,55.215C160.296,54.39 160.445,53.382 160.904,52.135z"/><path fill="#1f1f1f" d="M173.452,111.639C173.022,111.941 172.337,111.978 171.392,112.013C171.071,108.933 171.417,105.78 170.873,102.79C169.134,93.239 162.219,89.403 151.311,91.862C150.328,91.279 150.043,90.844 149.757,90.408C153.03,87.576 156.59,87.77 160.38,89.226C161.199,89.54 162.293,89.135 163.614,88.432C171.413,93.911 174.191,101.866 173.452,111.639z"/><path fill="#151515" d="M23.249,120.407C24.884,120.016 26.896,119.339 28.474,119.893C32.324,121.246 35.481,121.659 37.346,117.092C37.552,116.589 38.353,116.329 38.973,115.888C39.789,117.06 40.51,118.095 41.622,119.09C41.767,119.791 41.519,120.532 41.302,121.664C36.307,125.204 31.055,126.912 24.553,124.673C25.834,123.795 26.666,123.226 27.581,122.599C26.072,121.902 24.75,121.291 23.249,120.407z"/><path fill="#e9eaea" d="M152.018,104.015C152.018,104.015 152.001,103.545 152.048,102.979C152.742,101.082 153.389,99.751 154.406,98.261C158.02,97.365 159.841,98.474 159.475,101.941C157.874,101.898 156.608,101.898 155.343,101.898C155.283,102.329 155.223,102.761 155.164,103.193C155.938,103.625 156.847,103.922 157.449,104.526C158.107,105.185 158.479,106.128 158.887,107.261C158.843,107.787 158.888,108 158.944,108.42C158.955,108.628 159.043,109.034 159.043,109.034C159.043,109.034 159.002,109 158.652,108.981C156.857,108.317 155.412,107.672 153.967,107.027C153.967,107.027 154,107 153.996,106.661C153.334,105.552 152.676,104.784 152.018,104.015z"/><path fill="#1d1d1d" d="M159.811,101.984C159.841,98.474 158.02,97.365 154.059,98.206C152.886,98.225 152.429,98.139 151.973,98.054C154.601,93.471 157.679,94.385 161.348,97.357C161.775,97.389 161.819,97.503 161.819,97.503C161.766,100.879 161.714,104.255 161.001,107.865C159.872,108.137 159.403,108.175 158.934,108.213C158.888,108 158.843,107.787 159.23,107.079C159.712,105.051 159.761,103.517 159.811,101.984z"/><path fill="#1e1d1e" d="M57.576,39.429C57.927,37.15 58.47,35.189 59.013,33.229C59.636,33.212 60.258,33.196 60.881,33.179C61.49,36.656 62.099,40.132 62.708,43.608C62.042,43.853 61.377,44.097 60.711,44.342C59.73,42.811 58.749,41.279 57.576,39.429z"/><path fill="#1f1f1f" d="M162.096,112.789C162.967,112.091 163.399,111.533 163.969,111.258C164.304,111.096 164.857,111.385 165.683,111.542C164.779,115.464 161.764,116.379 158.737,116.551C155.852,116.715 152.75,116.402 150.589,113.047C154.842,113.047 158.279,113.047 162.096,112.789z"/><path fill="#1f1f1f" d="M165.654,111.783C165.06,110.969 164.918,110.119 164.913,109.268C164.888,105.46 164.902,101.651 164.902,98.149C168.495,101.761 168.954,105.778 165.654,111.783z"/><path fill="#1f1f1f" d="M146.771,108.04C144.907,104.5 144.282,100.957 147.241,97.334C147.532,100.127 147.824,102.92 148,106.434C147.513,107.45 147.142,107.745 146.771,108.04z"/><path fill="#dbdbdc" d="M151.812,98.356C152.429,98.139 152.886,98.225 153.689,98.365C153.389,99.751 152.742,101.082 152.042,102.743C147.981,101.901 150.811,100.203 151.812,98.356z"/><path fill="#dbdbdc" d="M153.952,107.408C155.412,107.672 156.857,108.317 158.659,109.003C156.974,111.697 155.432,111.316 153.952,107.408z"/><path fill="#dbdbdc" d="M151.882,104.317C152.676,104.784 153.334,105.552 153.981,106.676C153.229,106.227 152.488,105.423 151.882,104.317z"/><path fill="#242425" d="M149.479,90.53C150.043,90.844 150.328,91.279 150.947,91.925C150.796,92.692 150.312,93.249 149.258,93.759C148.406,93.321 148.125,92.929 147.844,92.537C148.296,91.909 148.749,91.281 149.479,90.53z"/><path fill="#1f1f1f" d="M147.53,92.853C148.125,92.929 148.406,93.321 149.009,93.889C148.753,95.264 148.177,96.464 147.6,97.664C147.147,97.521 146.695,97.377 146.243,97.234C146.567,95.879 146.891,94.525 147.53,92.853z"/><path fill="#242425" d="M150.001,110C150.074,110.786 150.147,111.573 150.22,112.359C149.495,111.916 148.769,111.472 148.001,110.537C147.958,110.046 148.112,109.921 148.426,109.954C149.16,109.991 149.58,109.996 150.001,110z"/><path fill="#242425" d="M146.796,108.351C147.142,107.745 147.513,107.45 148.044,106.83C148.523,107.075 148.844,107.644 148.975,108.651C148.561,109.366 148.337,109.643 148.112,109.921C148.112,109.921 147.958,110.046 147.881,110.109C147.477,109.669 147.149,109.166 146.796,108.351z"/><path fill="#dbdbdc" d="M158.944,108.42C159.403,108.175 159.872,108.137 160.69,108.158C160.534,108.546 160.028,108.873 159.283,109.117C159.043,109.034 158.955,108.628 158.944,108.42z"/><path fill="#1f1f1f" d="M148.426,109.954C148.337,109.643 148.561,109.366 149.036,108.979C149.63,108.963 149.846,109.181 149.968,109.763C149.58,109.996 149.16,109.991 148.426,109.954z"/><path fill="#e9eaea" d="M161.714,97.391C161.794,97.143 161.936,96.893 162.077,96.643C162.101,96.829 162.126,97.015 161.984,97.352C161.819,97.503 161.775,97.389 161.714,97.391z"/><path fill="#f6f6f6" d="M42.507,102.65C31.025,97.727 29.813,88.141 39.291,74.523C39.781,77.852 40.22,80.828 40.722,84.242C44.517,81.144 46.867,78.034 46.037,73.567C45.038,68.191 47.588,64.36 50.986,60.673C53.255,58.212 55.175,55.431 57.734,52.18C58.143,54.992 59.425,58.004 58.774,60.517C57.291,66.252 58.848,70.899 61.892,75.54C63.229,77.577 64.047,79.955 65.559,83.146C67.036,79.234 68.164,76.249 69.332,73.158C79.694,90.727 74.894,101.141 66.783,103.151C66.307,99.881 65.823,96.561 65.162,92.028C63.71,94.578 62.986,95.85 61.521,98.421C58.955,92.034 56.788,86.64 54.796,81.682C52.234,85.917 49.599,90.274 46.619,95.2C46.03,93.741 45.683,92.883 45.336,92.024C44.865,92.019 44.393,92.015 43.921,92.01C43.684,94.953 43.446,97.896 43.053,101.489C42.767,102.309 42.637,102.479 42.507,102.65z"/><path fill="#eeeeee" d="M195.311,75.303C198.657,78.737 201.873,81.806 204.547,85.29C205.275,86.239 204.369,88.44 203.51,90.207C201.069,86.754 199.202,83.836 194.51,85.711C191.641,86.858 189.355,87.883 189.568,91.505C189.614,92.278 188.899,93.097 188.535,93.894C187.653,93.391 186.514,93.089 185.931,92.349C183.096,88.75 180.554,84.911 177.587,81.43C176.659,80.342 174.727,80.109 172.361,79.105C180.188,76.494 186.633,71.091 195.311,75.303z"/><path fill="#f4f4f4" d="M210.667,70.062C216.961,75.596 220.997,81.73 218.318,90.162C217.926,91.397 216.171,92.2 215.047,93.204C214.013,92.015 212.311,90.955 212.052,89.616C210.271,80.423 205.354,73.961 196.473,70.648C202.346,66.8 203.935,66.716 210.667,70.062z"/><path fill="#f1f1f1" d="M62.758,115.16C64.281,116.988 65.473,118.591 67.355,121.122C63.289,120.512 60.875,120.15 58.094,119.733C58.774,121.448 59.227,122.589 60.097,124.78C56.293,124.331 53.047,124.223 49.959,123.467C48.446,123.097 46.006,121.362 46.116,120.525C46.391,118.434 47.379,115.804 48.986,114.643C53.304,111.525 58.005,111.913 62.758,115.16z"/><path fill="#f1f1f1" d="M69.322,116.841C73.096,109.023 81.149,107.887 86.075,113.014C85.089,115.563 84.493,117.526 83.57,119.321C83.043,120.346 82.142,121.494 81.133,121.901C76.991,123.574 71.785,121.377 69.322,116.841z"/><path fill="#e8e8e8" d="M197.689,102.724C199.485,100.615 201.053,98.695 202.295,96.584C203.312,94.856 203.94,92.899 205.162,90.067C207.927,96.301 206.775,100.757 202.909,104.162C198.268,108.248 193.001,109.825 187.316,105.161C187.316,102.832 187.316,100.208 187.316,96.049C189.299,97.252 190.77,98.053 192.142,98.998C193.909,100.216 195.597,101.548 197.689,102.724z"/><path fill="#eff0f0" d="M89.706,104.354C92.119,103.791 94.477,102.694 96.239,103.308C98.126,103.966 100.348,106.006 100.818,107.852C101.578,110.834 102.029,114.697 97.597,115.834C94.972,116.507 92.545,116.367 90.908,113.333C89.976,111.603 87.999,110.436 85.987,108.539C86.946,107.421 88.167,105.998 89.706,104.354z"/><path fill="#eeeeef" d="M16.92,102.096C20.095,103.833 22.878,105.559 25.661,107.284C25.397,107.798 25.134,108.312 24.87,108.826C23.635,108.52 22.4,108.214 20.835,107.826C20.246,108.884 19.399,109.926 19.058,111.113C18.175,114.194 16.096,114.463 13.666,113.462C11.408,112.532 9.694,111.196 10.994,108.161C12.166,105.427 12.558,102.191 16.92,102.096z"/><path fill="#e7e7e8" d="M117.424,62.492C116.625,67.188 115.98,71.485 115.337,75.768C109.065,74.442 108.436,68.445 114.001,58.592C115.188,59.847 119.185,57.52 117.424,62.492z"/><path fill="#dcdcdc" d="M80.642,76.56C80.217,78.704 79.842,80.408 79.466,82.112C78.91,82.03 78.353,81.947 77.796,81.864C79.472,68.369 81.147,54.873 82.823,41.378C83.395,41.437 83.967,41.497 84.54,41.556C83.257,53.077 81.974,64.599 80.642,76.56z"/><path fill="#e1e1e1" d="M170.316,62.877C171.335,67.056 172.222,70.871 173.228,75.193C171.085,75.98 169.063,76.722 166.384,77.706C167.138,70.954 167.798,65.051 168.62,57.689C169.433,60.195 169.809,61.355 170.316,62.877z"/><path fill="#eeeeee" d="M120.942,48.118C119.345,48.14 118.204,48.14 115.3,48.14C117.795,45.382 119.169,42.463 121.201,41.895C126.152,40.51 129.001,43.386 129.881,48.744C127.022,48.525 124.21,48.31 120.942,48.118z"/><path fill="#e6e6e6" d="M95.714,98.302C96.166,99.267 96.653,100.462 96.469,100.576C93.349,102.515 87.982,101.472 85.306,98.464C88.597,95.771 91.91,94.796 95.714,98.302z"/><path fill="#e2e2e2" d="M26.071,94.726C27.984,95.205 29.497,95.729 30.933,96.227C28.469,97.851 26.496,99.15 24.524,100.45C24.681,100.865 24.839,101.281 24.996,101.696C23.432,101.013 21.867,100.329 19.014,99.083C21.679,97.357 23.676,96.065 26.071,94.726z"/><path fill="#1f1f20" d="M161.715,25.307C162.651,27.39 163.412,29.149 164.173,30.907C163.837,31.127 163.5,31.347 163.164,31.567C162.367,30.663 161.045,29.852 160.867,28.839C160.186,24.966 155.299,22.346 157.38,16.818C159.014,20.026 160.278,22.505 161.715,25.307z"/><path fill="#dcdddc" d="M176.678,27.699C178.722,27.866 180.347,27.986 182.021,28.111C180.611,31.207 176.802,31.479 171.034,28.135C172.776,27.974 174.517,27.813 176.678,27.699z"/><path fill="#d5d6d5" d="M146.305,29.001C144.37,28.757 142.887,28.528 141.404,28.298C141.448,27.944 141.491,27.59 141.534,27.236C146.57,27.236 151.607,27.236 156.643,27.236C156.669,27.83 156.696,28.423 156.722,29.016C153.401,29.016 150.079,29.016 146.305,29.001z"/><path fill="#e1e1e1" d="M79.111,93.449C81.748,93.14 84.129,93.14 87.874,93.14C85.61,95.219 84.373,96.355 82.508,98.067C81.25,96.583 80.053,95.171 79.111,93.449z"/><path fill="#1f1f20" d="M165.387,33.459C165.093,34.055 164.575,34.422 164.057,34.788C163.859,34.414 163.661,34.04 163.464,33.666C164.03,33.52 164.596,33.375 165.387,33.459z"/><path fill="#fbfbfb" d="M139.993,110.801C139.706,111.262 139.172,111.422 139.124,111.329C138.948,110.991 138.934,110.569 138.859,110.178C139.229,110.247 139.6,110.315 139.993,110.801z"/><path fill="#fbfbfb" d="M136.11,112.882C136.659,113.038 137.009,113.421 137.36,113.804C136.903,113.836 136.447,113.867 135.758,113.736C135.653,113.419 135.782,113.264 136.11,112.882z"/><path fill="#1f1f20" d="M163.436,37.54C163.388,37.465 163.585,37.441 163.585,37.441C163.585,37.441 163.485,37.615 163.436,37.54z"/><path fill="#f6f6f6" d="M43.117,101.902C43.489,102.019 43.643,102.372 43.796,102.725C43.531,102.793 43.266,102.861 42.754,102.789C42.637,102.479 42.767,102.309 43.117,101.902z"/><path fill="#dbdbdc" d="M159.475,101.941C159.761,103.517 159.712,105.051 159.319,106.765C158.479,106.128 158.107,105.185 157.449,104.526C156.847,103.922 155.938,103.625 155.164,103.193C155.223,102.761 155.283,102.329 155.343,101.898C156.608,101.898 157.874,101.898 159.475,101.941z"/></svg>