<svg xmlns="http://www.w3.org/2000/svg" viewBox="0 0 157 164" xml:space="preserve"><path fill="#080809" d="M75.893 158.958c-9.085-.63-18.163-1.415-27.257-1.849-10.588-.505-21.19-.676-31.785-1.052-3.092-.11-6.178-.421-9.367-1.737 4.784-1.44 9.728-2.507 14.29-4.464 2.685-1.151 5.65-3.255 6.937-5.736 3.107-5.99 7.317-10.24 13.342-13.341 3.654-1.881 6.713-4.844 8.108-9.442 1.935-6.373 5.821-12.253 7.109-18.697 1.535-7.684 3.321-16.43 1.04-23.426-1.958-6.004-2.75-11.676-3.315-17.696-.298-3.19.821-5.05 4.382-6.19.93-.93 1.305-1.556 1.68-2.182 1.23-3.135.566-5.055-3.738-5.323-.834-.899-1.128-1.458-1.423-2.018C60.723 34.143 65.595 22.5 70.34 10.803c.9-2.222 1.296-4.649 2.602-7.168 5.179 17.057 12.468 32.966 24.253 47.831l-7.216-.417 1.607 7.325c6.663.287 4.914 5.835 4.717 9.814-.118 2.397-2.33 4.69-4.423 6.778-.818 12.794-.274 25.797 2.854 38.745-.856 1.78-1.755 3.352-1.656 4.858.293 4.432 1 8.835 1.508 13.254.317 2.758.568 5.524.849 8.287q.84-.09 1.682-.177c2.378-8.754-.205-17.223-2.096-25.732.465-.123 1.21-.495 1.354-.333 4.46 5.023 10.528 8.552 12.92 15.521 1.414 4.122 4.247 7.772 6.545 11.572 2.776 4.589 7.852 5.344 12.07 1.89 4.854 9.392 14.558 9.368 23.299 11.214l-.288 1.832h-46.96l-.215 1.854 11.302 3.667.026 1.277c-1.326 0-2.71.25-3.97-.042-6.233-1.449-12.417-3.109-18.654-4.54-1.732-.397-3.585-.264-5.824-.677-.695-1.018-.741-2.135-1.234-2.39-4.685-2.426-9.472-4.656-14.18-7.041-4.218-2.138-8.906-3.765-12.457-6.731-9.87-8.247-21.026-5.668-25.292 6.353 3.209 1.496 5.76 1.44 8.913-1.123 5.15-4.187 8.736-3.325 13.399 1.334 1.54 1.54 3.498 2.89 5.519 3.674 5.119 1.988 10.381 3.607 15.824 5.454zm-6.533-90h17.3c.597-4.79 1.175-8.859-5.088-9.965-.321 2.454-.63 4.802-1.01 7.712-1.682-.753-4.04-1.254-4.086-1.919-.326-4.614-.172-9.262-.172-14.428l-7.582.672c3.253 3.395 3.075 11.322-.545 15.475-.712-1.472-1.363-2.979-2.159-4.404-.552-.99-1.305-1.866-1.968-2.794-.87.945-2.258 1.776-2.497 2.86-.472 2.141-.308 4.422-.407 6.667 2.756 0 5.051 0 8.214.124m9.868 68.022c.202.977.367 1.963.615 2.928.549 2.136.527 5.429 3.735 4.449 1.48-.452 2.845-3.378 3.086-5.328.445-3.592-.157-7.3.001-10.945.227-5.218-.483-9.338-7.282-8.397-.323.045-.764-.758-.662-.65l7.21-3.836-4.032-4.208c1.05-1.387 3.023-2.876 3.23-4.58.211-1.754-1.298-3.716-2.238-6.042 1.84-1.662 2.438-13.194.597-25.187-4.96 0-9.91.02-14.862-.006-4.324-.022-5.745 1.548-3.85 5.856.747 1.697.392 3.914.397 5.895.04 16.116-.044 32.233.153 48.347.033 2.68 1.248 5.345 2.076 8.653 4.36-4.37 4.703-10.425 1.185-15.014h10.239c.127 2.893.222 5.045.402 8.065m-16.95-93.939c.678.583 1.452 1.745 2.02 1.651 2.811-.461 6.482-.21 6.673-4.366.237-5.17.057-10.358.057-16.84-3.22 7.121-5.86 12.959-8.75 19.555"/><path fill="#f5f5f5" d="M76.317 158.976c-.017-.68.39-1.342.8-2.01-5.443-1.847-10.705-3.466-15.824-5.454-2.02-.784-3.979-2.134-5.52-3.674-4.662-4.659-8.247-5.52-13.398-1.334-3.154 2.563-5.704 2.619-8.913 1.123 4.266-12.021 15.422-14.6 25.292-6.353 3.55 2.966 8.239 4.593 12.458 6.73 4.707 2.386 9.494 4.616 14.18 7.042.492.255.538 1.372.81 2.478-3.14.75-6.301 1.11-9.885 1.452"/><path fill="#242424" d="M55.62 45.933c.57.432.865.991 1.28 1.843-.439-.376-.998-1.046-1.28-1.843m5.188 7.364c-.126.475-.502 1.102-1.18 1.739.109-.522.52-1.054 1.18-1.739"/><path fill="#f6f6f6" d="M79.185 136.547a793 793 0 0 1-.36-7.632H68.588c3.518 4.589 3.176 10.644-1.185 15.014-.828-3.308-2.043-5.973-2.076-8.653-.197-16.114-.113-32.231-.153-48.347-.005-1.98.35-4.198-.397-5.895-1.895-4.308-.474-5.878 3.85-5.856 4.951.026 9.902.006 14.862.006 1.841 11.993 1.244 23.525-.597 25.187.94 2.326 2.45 4.288 2.237 6.043-.206 1.703-2.18 3.192-3.229 4.579l4.032 4.208-7.21 3.835c-.102-.107.34.696.662.651 6.8-.941 7.509 3.179 7.282 8.397-.158 3.645.444 7.353 0 10.945-.242 1.95-1.608 4.876-3.087 5.328-3.208.98-3.186-2.313-3.735-4.45-.248-.964-.413-1.95-.658-3.36m-1.199-50.29-.245-5.318-6.275.346L73.518 92.5l2.232.113c.706-1.834 1.41-3.668 2.236-6.355"/><path fill="#e8e9e9" d="M69.01 66.457c2.787-4.105 2.965-12.032-.288-15.427l7.582-.672c0 5.166-.154 9.814.172 14.428.047.665 2.404 1.166 4.085 1.92l1.011-7.713c6.263 1.106 5.685 5.174 5.088 9.965-5.827 0-11.564 0-17.588-.443-.213-.982-.138-1.52-.062-2.058"/><path fill="#ececec" d="M62.403 42.662c2.765-6.217 5.405-12.055 8.625-19.177 0 6.483.18 11.671-.057 16.84-.191 4.158-3.862 3.906-6.674 4.367-.567.094-1.341-1.068-1.894-2.03"/><path fill="#e9e9e9" d="M95.05 114.24c1.861 8.47 4.444 16.939 2.066 25.693l-1.682.177c-.28-2.763-.532-5.529-.85-8.287-.507-4.419-1.214-8.822-1.507-13.254-.1-1.506.8-3.077 1.66-4.423.419.196.344.132.314.094"/><path fill="#e7e7e7" d="M68.593 66.48c.341.515.266 1.053.046 1.973-2.442.381-4.737.381-7.493.381.1-2.245-.065-4.526.407-6.667.24-1.084 1.628-1.915 2.497-2.86.663.928 1.416 1.805 1.968 2.794.796 1.425 1.447 2.932 2.575 4.38"/><path fill="#131313" d="M77.926 86.684c-.765 2.26-1.47 4.094-2.176 5.928l-2.232-.113c-.65-3.546-1.298-7.092-2.052-11.214l6.275-.346c.097 2.113.171 3.715.185 5.745"/></svg>