<svg xmlns="http://www.w3.org/2000/svg" viewBox="0 0 252 119" xml:space="preserve"><path fill="#060606" d="M116.986 103.184c-17.959-1.34-35.906-2.885-53.882-3.952-12.047-.714-24.133-.752-36.889-1.153-1.533.65-2.38 1.362-3.226 2.073H9.602c1.314-1.65 1.574-2.295 2.035-2.51 7.33-3.42 11.51-9.445 13.252-17.024 1.531-6.66 5.238-11.406 10.177-15.935 2.829-2.593 4.293-6.861 5.88-10.585 4.23-9.924 10.038-18.447 19.75-23.748.99-.54 2.3-1.119 3.305-.914 6.407 1.306 10.292-2.926 13.57-6.907 6.347-7.708 13.814-12.38 24-12.084.325.01.69-.047.976-.191 11.336-5.732 21.006-.005 30.338 5.07 9.166 4.983 18.69 7.867 28.84 10.055 5.317 1.147 9.95 6.056 14.577 9.668 5.601 4.371 10.863 9.176 16.293 13.768.621.525 1.353 1.196 2.086 1.268 7.679.755 9.861 6.403 11.938 12.608 2.973 8.881 8.413 15.954 16.272 21.365 2.682 1.847 5.022 5.11 6.07 8.215 2.032 6.02 5.59 9.57 11.787 10.723 1.467.273 2.824 1.142 4.232 1.737l-.246 1.542h-26.338l-.246 1.51 10.357 4.334-.104 1.143c-18.413.763-36.826 1.527-55.676 1.501.826-1.43 2.05-2.172 3.36-2.695 3.002-1.198 6.047-2.29 9.074-3.425l-.572-1.423-8.226-1.413c5.83-3.198 12.159-4.613 12.68-11.958 4.222 3.084 2.475 10.987 10.74 11.234-2.679-4.462-4.617-8.087-6.93-11.455-4.172-6.078-7.42-6.915-13.368-2.813-7.142 4.924-13.89 10.419-20.904 15.533-1.145.835-2.79.984-4.203 1.45l1.955 1.802c4.547.744 9.131 1.324 13.612 2.353 1.076.248 1.809 1.99 2.7 3.045-9.912.01-19.823.02-30.315-.304-.834-.804-1.086-1.274-.95-1.864 3.525-1.112 6.663-2.103 9.801-3.095l-.481-1.642c-5.531 0-11.063 0-16.967-.018-1.162.45-1.95.92-2.738 1.39-2.366.063-4.732.127-7.576-.131-1.11-1.335-1.74-2.348-2.372-3.362 0 0-.408-.056-.648-.422 1.121-4.876-2.364-1.684-3.413-2.364m-51.743-69.26c-1.174.903-2.29 1.896-3.533 2.693-8.097 5.195-13.883 11.827-16.242 21.618-.964 4.004-4.105 7.873-7.16 10.886-4.003 3.947-6.376 8.353-7.163 13.758-.899 6.169.44 9.264 4.254 10.101 4.036.886 5.511-.917 7.389-7.856 2.091-7.733 5.437-14.81 12.02-19.872-2.26 7.945-5.002 15.661-7.403 23.482-.37 1.206.476 3.807 1.367 4.14 1.343.501 3.805.129 4.747-.864 1.885-1.988 3.221-4.566 4.497-7.048 2.198-4.278 4.176-8.669 6.247-13.013l1.022.41c-2.08 6.935-4.162 13.869-6.231 20.763l7.812.835c1.639-5.84 2.792-11.54 4.864-16.884 2.058-5.308 5.08-10.238 7.587-15.38.643-1.32.936-2.81 1.568-4.69l-.24-.707c-.25.198-.5.396-1.494.632l-8.545 4.478c.405-1.19.421-1.98.81-2.268 5.096-3.774 10.287-7.42 15.365-11.217 3.316-2.478 5.922-2.3 7.336 1.078l5.956-9.493 10.273 6.868 2.04-6.877 1.276-.59c.239.62.31 1.415.743 1.835 7.11 6.89 14.183 13.823 21.442 20.556 4.473 4.148 5.906 6.303 5.526 10.075l-7.946-5.324 2.16 18.634c-2.133 1.72-6.905 1.49-5.826 6.241.84 3.697.018 6.765-2.163 9.755-.552.757-.675 2.475-.179 3.159.456.628 2.014.626 3.082.609 4.68-.076 4.464-3.943 4.734-6.94 2.223 1.691 3.975 3.375 6.035 4.486 1.825.984 3.993 1.33 6.01 1.958.072-2.106.29-4.22.182-6.318-.146-2.803.1-7.716-.944-8.032-5.636-1.712-.361-3.054-.771-4.906 3.86 2.747 6.854 5.608 10.418 7.168 2.552 1.116 6.496 1.55 8.631.284 1.54-.912 1.971-5.315 1.4-7.82-1.102-4.84-3.261-9.438-4.982-14.136l1.353-.872 13.505 19.137c.591-1.656 1.885-3.374 1.567-4.708-1.515-6.36-2.783-12.922-5.429-18.835-3.81-8.517-8.658-16.578-13.257-24.725-.837-1.484-2.599-2.446-3.938-3.652l1.596 10.59c-5.203-4.829-9.163-10.062-13.186-15.246-2.308-2.975-4.62-4.4-7.15-.045-.506.872-2.046 1.144-4.203 2.256 3.158 3.388 5.857 6.847 9.119 9.653 5.26 4.526 9.01 9.673 9.702 17.59-7.038-8.374-13.359-16.286-20.121-23.8-4.554-5.059-8.206-11.654-16.095-12.339-3.502-.304-7.052-.051-10.58-.051l-.06-1.44c8.165-4.032 16.547-6.736 26.058-3.454-3.368-2.208-6.858-3.559-10.144-5.297-7.711-4.078-14.753 1.17-22.145 1.47-3.019.124-6.732.679-8.837 2.517-6.69 5.844-13.26 11.975-18.937 18.78-4.792 5.743-8.304 12.56-12.3 18.953-.573.915-.686 2.116-1.012 3.185L54.348 58.1c.882-3.061 1.275-6.386 2.751-9.127 2.729-5.065 6.092-9.789 9.645-14.949l-.108-.758c-.229.227-.457.455-1.393.658M179.942 57.96l-.35-3.176 1.147-.548 15.683 13.082c-1.57-4.987-21.348-24.008-26.819-26.478.841 10.452 6.265 18.855 10.42 27.687 1.044 2.22 2.676 4.218 4.314 6.074.495.562 1.919.305 2.917.424-.143-.814-.115-1.71-.458-2.428-2.202-4.617-4.486-9.195-6.854-14.637M75.998 94.208l1.145 1.758c.607-.789 1.535-1.495 1.763-2.38.772-3.003 1.3-6.069 1.914-9.112.563-2.794 1.117-5.59 1.675-8.384l-1.275-.335c-3.701 5.188-5.362 11.07-5.222 18.453m130.733-3.466 7.08 6.142 1.346-1.479-11.36-14.677-1.504.888c1.336 2.841 2.672 5.683 4.438 9.126m-75.624-70.256.578.025c-.093-.089-.185-.178-.578-.025"/><path fill="#f5f5f5" d="M172.617 114.954c-.863-1.013-1.596-2.755-2.672-3.003-4.48-1.03-9.065-1.609-13.612-2.353l-1.955-1.803c1.413-.465 3.058-.614 4.203-1.449 7.015-5.114 13.762-10.609 20.904-15.533 5.949-4.102 9.196-3.265 13.369 2.813 2.312 3.368 4.25 6.993 6.93 11.455-8.266-.247-6.52-8.15-10.74-11.234-.522 7.345-6.85 8.76-12.681 11.958 3.288.565 5.757.99 8.226 1.413l.572 1.423c-3.027 1.135-6.072 2.227-9.074 3.425-1.31.523-2.534 1.264-3.774 2.42.023.512.277.426.304.468"/><path fill="#191a1a" d="M61.126 106.258c3.99-.375 7.98-.749 12.59-.972.617.151 1.108.14 1.108.14.532.167 1.065.334 2.203.525 1.052.049 1.498.073 1.944.098 0 0 .018-.055.06.349-.146 1.405-.336 2.406-.526 3.408-5.513-.276-11.025-.552-16.99-1.186-.43-1.026-.41-1.694-.389-2.362"/><path fill="#1f2020" d="M48.145 107.414c-5.37-.617-10.738-1.235-16.36-2.441.57-1.387 1.391-2.184 2.212-2.981 3.998.047 7.996.094 12.682.573.947 1.904 1.206 3.377 1.466 4.85"/><path fill="#e5e5e5" d="M134.106 108.091H150.7l.481 1.642c-3.138.992-6.276 1.983-10.184 3.096-1.514.136-2.256.15-2.998.164.002-.71.004-1.419.226-2.69-1.226-1.111-2.673-1.661-4.119-2.212"/><path fill="#3d3e3d" d="M103.149 109.461c3.228-.031 6.456-.063 9.88-.002-.07.497-.336.9-.603 1.304-5.01 3.08-10.331 2.858-16.027 1.005 2.073-1.089 4.412-1.698 6.75-2.307"/><path fill="#efefef" d="M48.438 107.628c-.553-1.686-.812-3.16-1.316-4.945.095-.63.434-.946.773-1.262 3.283 4.335 8.364 3.162 12.984 4.497.226 1.008.206 1.676.206 2.691-1.176-.072-3.415 2.783-3.733-.87-.024-.286-2.256-.56-3.452-.522-1.728.056-3.446.403-5.462.411m54.482 1.467c-2.11.975-4.448 1.584-6.926 2.556-1.198.255-2.257.149-4.735-.1l4.889-2.077c-.694-.381-1.248-.686-1.975-1.232-.173-.242-.175-.24-.175-.24 2.898.243 5.795.485 8.922 1.093m-23.997.777c-.228-1.068-.038-2.069.087-3.454 1.354-.385 2.772-.385 4.19-.385l.726 1.688c-1.529.74-3.058 1.478-5.003 2.151"/><path fill="#646464" d="M121.11 106.33c.568.654 1.2 1.667 1.923 2.896-1.945.331-3.981.446-6.312.345.009-.616.312-1.016.615-1.416 1.28-.49 2.559-.978 3.774-1.826"/><path fill="#efefef" d="M33.818 101.712c-.642 1.077-1.463 1.874-2.41 3.012-.777-1.038-1.43-2.416-2.083-3.794l1.357-.731c.986.41 1.971.822 3.136 1.513M23.03 100.44a8.9 8.9 0 0 1 2.781-2.333c.739 1.414 1.195 2.74 1.65 4.066-1.463-.481-2.926-.962-4.43-1.732m70.971 7.557c-.956.498-1.94 1.445-2.865 1.391-1.397-.08-2.753-.86-4.126-1.343l.467-1.643c2.013.349 4.027.698 6.28 1.323.24.277.242.274.244.272"/><path fill="#646464" d="M133.733 108.073c1.82.569 3.266 1.119 4.477 1.876-2.358.135-4.48.062-6.909-.249.482-.707 1.27-1.176 2.432-1.627"/><path fill="#101010" d="M137.88 113.245c.861-.266 1.603-.28 2.728-.296.636.469.888.939 1.26 1.648a12.8 12.8 0 0 1-3.989-1.352"/><path fill="#efefef" d="M117.037 103.523c.998.34 4.483-2.85 3.156 2.019-1.012-.32-2.058-1-3.156-2.019m-.119 4.573c.115.459-.188.86-.636 1.465a12.8 12.8 0 0 1-3.44 1.271c-.15-.472.117-.876.626-1.348 1.171-.528 2.101-.987 3.45-1.388m-37.974-2.34c-.419.268-.865.244-1.635.134.033-.545.39-1.004.748-1.464.287.346.574.691.887 1.33m-4.077-.606c-.043.276-.534.287-.697.104-.016-.561.132-.94.28-1.32.153.314.307.627.417 1.216"/><path fill="#f9f9f9" d="M80.706 57.472c-.453 1.411-.746 2.902-1.39 4.221-2.506 5.142-5.528 10.072-7.586 15.38-2.072 5.344-3.225 11.044-4.864 16.884l-7.812-.835 6.231-20.762-1.022-.41c-2.07 4.343-4.05 8.734-6.247 13.012-1.276 2.482-2.612 5.06-4.497 7.048-.942.993-3.404 1.365-4.747.864-.89-.333-1.738-2.934-1.367-4.14 2.401-7.82 5.143-15.537 7.403-23.482-6.583 5.063-9.929 12.14-12.02 19.872-1.878 6.939-3.353 8.742-7.39 7.856-3.813-.837-5.152-3.932-4.253-10.1.787-5.406 3.16-9.812 7.163-13.759 3.055-3.013 6.196-6.882 7.16-10.886 2.359-9.79 8.145-16.423 16.242-21.618 1.242-.797 2.359-1.79 3.972-2.59.44.105.607.292.607.292-3.098 4.865-6.461 9.589-9.19 14.654-1.476 2.741-1.869 6.066-2.75 9.127l2.371 1.758c.326-1.069.44-2.27 1.011-3.185 3.997-6.393 7.51-13.21 12.3-18.953C75.71 30.915 82.28 24.784 88.97 18.94c2.105-1.838 5.818-2.393 8.837-2.516 7.392-.302 14.434-5.55 22.145-1.47 3.286 1.737 6.776 3.088 10.144 5.296-9.51-3.282-17.893-.578-26.057 3.453l.059 1.441c3.528 0 7.078-.253 10.58.051 7.89.685 11.541 7.28 16.095 12.34 6.762 7.513 13.083 15.425 20.121 23.799-.693-7.917-4.442-13.064-9.702-17.59-3.262-2.806-5.96-6.265-9.119-9.653 2.157-1.112 3.697-1.384 4.203-2.256 2.53-4.355 4.842-2.93 7.15.045 4.023 5.184 7.983 10.417 13.186 15.246l-1.596-10.59c1.34 1.206 3.1 2.168 3.938 3.652 4.599 8.147 9.446 16.208 13.257 24.725 2.646 5.913 3.914 12.475 5.43 18.835.317 1.334-.977 3.052-1.568 4.708l-13.505-19.137-1.353.872c1.721 4.698 3.88 9.296 4.982 14.135.571 2.506.14 6.909-1.4 7.82-2.135 1.266-6.079.833-8.631-.283-3.564-1.56-6.558-4.421-10.418-7.168.41 1.852-4.865 3.194.771 4.906 1.043.316.798 5.23.944 8.032.108 2.097-.11 4.212-.183 6.318-2.016-.628-4.184-.974-6.009-1.958-2.06-1.111-3.812-2.795-6.035-4.486-.27 2.997-.053 6.864-4.734 6.94-1.068.017-2.626.019-3.082-.61-.496-.683-.373-2.401.18-3.158 2.18-2.99 3.003-6.058 2.162-9.755-1.08-4.75 3.693-4.52 5.827-6.24l-2.16-18.635 7.945 5.324c.38-3.772-1.053-5.927-5.526-10.075-7.259-6.733-14.332-13.665-21.442-20.556-.434-.42-.504-1.215-.743-1.835l-1.276.59-2.04 6.877-10.273-6.868-5.956 9.493c-1.414-3.377-4.02-3.556-7.336-1.078-5.078 3.797-10.269 7.443-15.365 11.217-.389.287-.405 1.078-.81 2.268 3.26-1.708 5.902-3.093 9.107-4.334.706.23.85.314.993.4m8.13-27.278L77.874 38.02l1.207 1.767c3.394-2.075 6.853-4.058 10.116-6.322.513-.355.14-1.985-.361-3.27"/><path fill="#efefef" d="M179.998 58.385c2.312 5.016 4.596 9.594 6.798 14.21.343.72.315 1.615.458 2.429-.998-.119-2.422.138-2.917-.424-1.638-1.856-3.27-3.854-4.315-6.074-4.154-8.832-9.578-17.235-10.419-27.687 5.47 2.47 25.25 21.491 26.82 26.478l-15.684-13.082-1.147.548c.117 1.059.233 2.118.406 3.602"/><path fill="#eee" d="M75.996 93.762c-.138-6.938 1.523-12.819 5.224-18.007l1.275.335c-.558 2.795-1.112 5.59-1.675 8.384-.614 3.043-1.142 6.109-1.914 9.111-.228.886-1.156 1.592-1.763 2.38-.381-.585-.763-1.171-1.147-2.203"/><path fill="#ebecec" d="M206.516 90.442c-1.551-3.143-2.887-5.985-4.223-8.826l1.505-.888 11.359 14.677-1.347 1.48c-2.36-2.048-4.719-4.095-7.294-6.443"/><path fill="#f9f9f9" d="M80.085 57.053c.06-.36.31-.559.56-.757.08.236.16.472.15.942-.232.148-.376.063-.71-.185M66.036 34.04c.143-.32.371-.547.6-.774.036.253.072.506-.12.905-.227.148-.394-.04-.48-.131m65.221-13.675c.243-.032.335.057.428.146-.193-.008-.385-.017-.428-.146"/><path fill="#1a1a1b" d="M89.105 30.317c.232 1.163.605 2.793.092 3.148-3.263 2.264-6.722 4.247-10.116 6.322l-1.207-1.767c3.654-2.609 7.308-5.217 11.23-7.703"/></svg>