<svg xmlns="http://www.w3.org/2000/svg" viewBox="0 0 261 144" xml:space="preserve"><path fill="#060607" d="M167.048,133.879C156.909,128.596 145.729,128.893 134.906,128.863C119.671,128.82 104.435,130.233 89.195,130.928C85.252,131.107 81.293,130.93 76.767,131.361C75.379,132.166 74.565,132.526 73.75,132.886C69.583,133.661 65.416,134.437 61.239,135.959C61.729,136.927 62.229,137.148 63.024,137.499C61.775,138.011 60.872,138.381 59.969,138.751C51.875,138.194 43.77,137.76 35.694,137.018C32.632,136.736 29.661,135.585 26.604,135.116C22.194,134.438 22.111,132.5 24.736,129.599C19.46,124.756 10.586,130.472 6.709,124.015C11.311,116.292 15.484,108.956 20.005,101.841C22.315,98.207 25.685,95.211 27.756,91.473C29.298,88.689 29.526,85.176 30.332,81.986C32.084,75.052 35.878,69.285 40.981,64.456C43.455,62.115 43.204,60.184 41.747,57.548C39.352,53.218 37.184,48.757 35.036,44.295C29.938,33.706 34.159,24.387 39.949,15.914C43.287,11.029 48.395,7.354 52.707,3.134C53.251,3.434 53.795,3.734 54.339,4.034C54.244,5.474 54.434,7.004 54.009,8.338C50.862,18.21 54.55,25.484 64.441,29.61C80.299,36.227 92.571,30.801 105.155,22.499C107.435,20.994 110.745,19.831 113.327,20.214C123.593,21.734 133.716,24.211 143.978,25.774C150.746,26.805 156.733,29.038 161.955,33.447C162.79,34.152 164.158,35.043 164.989,34.81C172.217,32.782 179.99,32.482 186.165,27.152C190.952,23.021 192.479,18.213 191.643,12.198C191.337,10.001 191.593,7.725 191.593,5.504C209.578,10.82 224.478,37.199 201.474,62.361C219.855,66.672 220.168,83.066 224.264,96.903C230.757,93.531 231.989,94.221 235.607,99.694C240.239,106.702 245.147,113.59 250.598,119.965C252.989,122.763 257.015,124.163 260.299,126.198C260.289,126.678 260.28,127.159 260.27,127.639C256.691,128.093 253.081,129.066 249.542,128.853C246.16,128.65 243.149,129.286 239.888,129.863C230.064,131.602 220.083,132.453 209.97,133.674C209.933,133.547 210.248,134.631 210.667,136.071C207.776,135.343 205.232,134.702 202.688,134.061C202.542,134.469 202.396,134.876 202.25,135.284C203.638,136.416 205.026,137.548 206.414,138.68C206.162,139.378 205.91,140.076 205.658,140.774C199.652,139.63 193.645,138.486 187.094,137.118C185.694,136.726 184.839,136.559 183.983,136.391C182.277,136.262 180.571,136.133 178.06,135.907C175.871,136.121 174.487,136.434 173.102,136.746C173.153,136.422 173.205,136.097 173.256,135.772C171.187,135.141 169.117,134.51 167.048,133.879M195.947,13.432C195.72,13.467 195.492,13.502 195.265,13.537C195.288,13.675 195.301,13.927 195.335,13.93C195.576,13.951 195.822,13.921 195.652,14.644C195.685,19.37 198.651,20.667 202.297,21.169C202.611,20.799 202.925,20.429 203.238,20.058C200.818,18.047 198.398,16.035 195.947,13.432M197.799,117.951C197.857,118.448 197.971,118.944 197.965,119.44C197.936,121.876 198.025,124.802 201.307,124.01C202.664,123.682 203.957,120.729 204.218,118.824C204.53,116.539 203.709,114.099 203.372,111.679C207.329,109.653 208.491,112.877 209.845,115.085C211.04,117.032 211.524,119.401 212.592,121.442C214.427,124.95 217.565,124.451 220.351,123.174C222.89,122.011 223.492,119.982 221.893,117.191C220.788,115.26 220.521,112.827 219.994,110.591C217.611,100.495 215.795,90.227 212.756,80.334C210.035,71.477 207.221,70.64 197.64,73.648C200.846,82.516 204.044,91.366 207.243,100.216C206.764,100.521 206.285,100.825 205.807,101.129C203.982,99.507 201.497,98.223 200.459,96.198C197.658,90.733 195.662,84.861 193.006,79.314C187.2,67.19 181.017,55.335 169.146,47.709C166.133,45.773 163.727,44.961 161.171,49.827C159.408,46.862 157.38,44.886 157.083,42.677C156.291,36.77 154.57,34.223 148.479,33.197C141.4,32.005 134.258,31.19 126.22,30.085C129.841,36.017 132.988,41.173 136.804,47.425C134.482,46.853 133.686,46.769 132.984,46.466C127.222,43.982 125.427,38.288 122.961,33.365C120.75,28.948 118.055,26.196 112.891,25.895C107.453,25.578 106.353,30.051 104.053,33.22C102.644,35.163 101.462,37.269 99.904,39.733C99.544,37.504 99.344,36.265 99.143,35.026C97.904,35.454 96.259,35.52 95.498,36.374C92.667,39.55 89.385,42.639 87.626,46.395C83.5,55.202 82.651,60.36 93.114,62.026C93.343,62.063 93.51,62.489 93.245,62.159C86.212,63.621 78.872,65.225 71.486,66.569C70.703,66.711 69.643,65.328 69.336,65.105C72.736,61.409 76.534,58.421 78.763,54.534C80.971,50.683 81.598,45.926 83.188,40.675C73.688,44.548 66.853,49.988 62.711,58.23C54.965,73.643 49.451,89.882 45.398,107.196C49.488,107.196 53.264,107.413 57.004,107.143C62.03,106.781 63.525,103.869 61.37,99.234C58.644,93.373 63.755,86.103 70.92,86.112C66.503,95.294 67.668,104.253 72.197,113.303C74.178,109.567 75.63,105.712 76.774,101.766C82.252,82.867 92.83,67.575 108.689,55.882C113.278,52.498 118.123,51.987 123.17,54.067C127.129,55.698 130.859,57.882 134.576,59.762C136.085,57.696 137.492,55.771 138.821,53.953C150.097,66.429 161.024,78.518 171.973,90.631C171.973,89.87 172.106,89.017 171.954,88.218C169.388,74.778 164.052,63.132 151.937,55.372C148.175,52.962 145.22,49.293 141.896,46.201C154.835,50.961 170.655,63.828 177.999,79.505C181.743,87.498 184.785,95.887 189.231,103.458C191.919,108.035 196.958,111.218 197.799,117.951M122.518,126.216C136.382,125.16 150.258,124.223 164.096,122.897C165.846,122.729 168.164,120.855 168.909,119.186C171.813,112.681 164.515,98.833 157.646,97.314C156.817,97.13 155.844,97.603 154.753,97.806C159.886,104.307 160.186,111.478 159.915,119.672C139.957,119.672 120.441,119.672 100.926,119.672C100.729,120.3 100.532,120.929 100.335,121.557C102.43,122.693 104.418,124.459 106.641,124.837C111.54,125.668 116.558,125.798 122.518,126.216M112.919,71.811C114.591,68.62 116.263,65.43 117.935,62.24C117.498,61.805 117.061,61.371 116.624,60.937C113.298,63.64 109.734,66.099 106.69,69.089C95.997,79.594 87.924,91.721 84.684,106.616C83.805,110.66 83.875,114.633 87.218,118.491C90.215,102.692 94.367,87.602 107.115,75.397C107.115,80.931 107.115,85.444 107.115,89.958C107.723,90.018 108.331,90.078 108.939,90.139C110.232,84.301 111.525,78.463 112.919,71.811M51.378,128.074C53.013,126.525 54.649,124.976 56.491,123.231C59.695,128.004 63.936,129.81 70.058,126.812C68.903,124.912 68.22,122.614 66.68,121.504C63.712,119.364 58.813,119.239 59.621,113.683C59.646,113.512 58.831,113.02 58.402,113.014C50.818,112.9 42.559,110.496 37.111,118.403C34.715,121.879 32.828,125.705 30.711,129.373C31.055,129.801 31.399,130.23 31.743,130.658C34.866,129.161 37.989,127.664 41.304,126.074C40.329,124.569 39.714,123.619 39.637,123.501C40.49,121.295 41.203,119.451 41.916,117.606C42.65,118.033 43.385,118.46 44.119,118.887C44.927,122.453 45.734,126.018 46.668,130.144C47.866,129.656 49.298,129.073 51.378,128.074M177.707,106.199C177.138,109.105 176.933,112.145 175.927,114.891C173.816,120.65 178.65,122.82 181.49,125.722C182.755,127.015 185.611,126.75 188.441,127.337C186.378,117.759 188.611,107.458 177.966,101.787C177.966,103.222 177.966,104.306 177.707,106.199M40.137,74.931C36.854,85.422 35.436,96.096 36.864,108.647C38.603,105.237 40.056,103.217 40.7,100.965C42.355,95.168 43.068,89.038 45.27,83.483C47.137,78.773 47.384,74.942 43.701,70.644C42.612,71.887 41.571,73.073 40.137,74.931M52.867,42.403C47.953,49.602 48.188,54.34 52.958,57.272C57.513,51.017 62.023,44.823 66.579,38.564C61.03,35.487 57.14,38.651 52.867,42.403M204,44.053C204.807,38.544 201.655,35.329 197.341,32.969C195.062,31.721 192.656,29.469 189.339,32.783C195.867,37.389 201.491,42.517 199.74,51.517C201.116,49.292 202.492,47.067 204,44.053M187.629,48.999C189.133,52.115 190.637,55.231 192.301,58.677C196.099,51.74 194.718,47.149 187.017,40.63C185.007,38.929 182.655,36.341 179.706,39.566C182.305,42.683 184.714,45.571 187.629,48.999M22.574,120.983C25.861,121.736 26.107,119.316 26.388,117.169C26.989,112.59 27.518,107.999 27.915,103.399C28.003,102.38 27.424,101.304 27.11,100.095C21.927,104.249 19.677,113.494 22.574,120.983M47.988,38.478C50.265,36.656 52.541,34.835 55.257,32.662C50.807,28.759 47.703,32.633 44.649,34.473C40.887,36.74 39.768,40.012 42.87,44.309C44.521,42.406 46.001,40.7 47.988,38.478M228.005,107.384C228.816,109.329 229.468,111.361 230.471,113.202C232.338,116.626 234.463,117.212 236.738,113.296C233.512,109.688 232.951,103.903 226.893,101.82C227.355,103.846 227.669,105.221 228.005,107.384M207.267,33.061C207.8,32.847 208.817,32.542 208.796,32.431C208.066,28.499 203.365,25.453 196.983,24.798C198.063,30.101 203.405,30.25 207.267,33.061M47.154,24.56C41.414,25.174 39.959,26.681 40.374,31.498C43.578,30.005 46.797,28.505 50.366,26.842C49.291,25.911 48.58,25.296 47.154,24.56z"/><path fill="#0e0e0e" d="M112.989,135.972C127.376,136.308 141.764,136.58 156.145,137.065C157.85,137.123 159.514,138.347 160.881,139.95C144.917,139.95 128.954,139.95 112.621,139.62C112.497,138.184 112.743,137.078 112.989,135.972z"/><path fill="#111212" d="M72.793,138.378C80.443,138.609 88.092,138.841 96.306,139.364C97.194,140.083 97.517,140.511 97.841,140.938C93.332,141.564 88.826,142.657 84.314,142.683C79.838,142.708 75.357,141.658 70.527,140.69C71.049,139.659 71.921,139.019 72.793,138.378z"/><path fill="#f5f5f5" d="M98.258,140.95C97.517,140.511 97.194,140.083 96.718,139.409C101.153,138.867 105.739,138.572 110.618,138.258C110.203,137.176 109.733,135.95 108.963,133.941C110.682,134.652 111.647,135.052 112.801,135.712C112.743,137.078 112.497,138.184 112.159,139.573C110.582,140.221 109.11,140.813 107.609,140.899C104.639,141.068 101.654,140.958 98.258,140.95z"/><path fill="#f5f5f5" d="M167.035,134.297C169.117,134.51 171.187,135.141 173.256,135.772C173.205,136.097 173.153,136.422 173.102,136.746C174.487,136.434 175.871,136.121 177.63,135.95C174.996,137.319 171.988,138.547 168.981,139.774C168.328,138.088 167.675,136.401 167.035,134.297z"/><path fill="#f5f5f5" d="M72.385,138.265C71.921,139.019 71.049,139.659 70.142,140.63C66.809,140.442 63.51,139.924 60.09,139.079C60.872,138.381 61.775,138.011 63.024,137.499C62.229,137.148 61.729,136.927 61.204,136.349C61.834,136.05 62.758,135.851 63.101,136.208C65.657,138.875 68.785,138.594 72.385,138.265z"/><path fill="#f5f5f5" d="M74.067,133.024C74.565,132.526 75.379,132.166 76.532,131.74C76.041,132.17 75.213,132.666 74.067,133.024z"/><path fill="#f5f5f5" d="M184.104,136.741C184.839,136.559 185.694,136.726 186.721,137.184C186.003,137.347 185.114,137.218 184.104,136.741z"/><path fill="#f8f9f9" d="M197.715,117.541C196.958,111.218 191.919,108.035 189.231,103.458C184.785,95.887 181.743,87.498 177.999,79.505C170.655,63.828 154.835,50.961 141.896,46.201C145.22,49.293 148.175,52.962 151.937,55.372C164.052,63.132 169.388,74.778 171.954,88.218C172.106,89.017 171.973,89.87 171.973,90.631C161.024,78.518 150.097,66.429 138.821,53.953C137.492,55.771 136.085,57.696 134.576,59.762C130.859,57.882 127.129,55.698 123.17,54.067C118.123,51.987 113.278,52.498 108.689,55.882C92.83,67.575 82.252,82.867 76.774,101.766C75.63,105.712 74.178,109.567 72.197,113.303C67.668,104.253 66.503,95.294 70.92,86.112C63.755,86.103 58.644,93.373 61.37,99.234C63.525,103.869 62.03,106.781 57.004,107.143C53.264,107.413 49.488,107.196 45.398,107.196C49.451,89.882 54.965,73.643 62.711,58.23C66.853,49.988 73.688,44.548 83.188,40.675C81.598,45.926 80.971,50.683 78.763,54.534C76.534,58.421 72.736,61.409 69.336,65.105C69.643,65.328 70.703,66.711 71.486,66.569C78.872,65.225 86.212,63.621 93.245,62.159C93.51,62.489 93.343,62.063 93.114,62.026C82.651,60.36 83.5,55.202 87.626,46.395C89.385,42.639 92.667,39.55 95.498,36.374C96.259,35.52 97.904,35.454 99.143,35.026C99.344,36.265 99.544,37.504 99.904,39.733C101.462,37.269 102.644,35.163 104.053,33.22C106.353,30.051 107.453,25.578 112.891,25.895C118.055,26.196 120.75,28.948 122.961,33.365C125.427,38.288 127.222,43.982 132.984,46.466C133.686,46.769 134.482,46.853 136.804,47.425C132.988,41.173 129.841,36.017 126.22,30.085C134.258,31.19 141.4,32.005 148.479,33.197C154.57,34.223 156.291,36.77 157.083,42.677C157.38,44.886 159.408,46.862 161.171,49.827C163.727,44.961 166.133,45.773 169.146,47.709C181.017,55.335 187.2,67.19 193.006,79.314C195.662,84.861 197.658,90.733 200.459,96.198C201.497,98.223 203.982,99.507 205.807,101.129C206.285,100.825 206.764,100.521 207.243,100.216C204.044,91.366 200.846,82.516 197.64,73.648C207.221,70.64 210.035,71.477 212.756,80.334C215.795,90.227 217.611,100.495 219.994,110.591C220.521,112.827 220.788,115.26 221.893,117.191C223.492,119.982 222.89,122.011 220.351,123.174C217.565,124.451 214.427,124.95 212.592,121.442C211.524,119.401 211.04,117.032 209.845,115.085C208.491,112.877 207.329,109.653 203.372,111.679C203.709,114.099 204.53,116.539 204.218,118.824C203.957,120.729 202.664,123.682 201.307,124.01C198.025,124.802 197.936,121.876 197.965,119.44C197.971,118.944 197.857,118.448 197.715,117.541z"/><path fill="#f3f4f3" d="M122.023,126.216C116.558,125.798 111.54,125.668 106.641,124.837C104.418,124.459 102.43,122.693 100.335,121.557C100.532,120.929 100.729,120.3 100.926,119.672C120.441,119.672 139.957,119.672 159.915,119.672C160.186,111.478 159.886,104.307 154.753,97.806C155.844,97.603 156.817,97.13 157.646,97.314C164.515,98.833 171.813,112.681 168.909,119.186C168.164,120.855 165.846,122.729 164.096,122.897C150.258,124.223 136.382,125.16 122.023,126.216z"/><path fill="#f0f1f1" d="M112.868,72.218C111.525,78.463 110.232,84.301 108.939,90.139C108.331,90.078 107.723,90.018 107.115,89.958C107.115,85.444 107.115,80.931 107.115,75.397C94.367,87.602 90.215,102.692 87.218,118.491C83.875,114.633 83.805,110.66 84.684,106.616C87.924,91.721 95.997,79.594 106.69,69.089C109.734,66.099 113.298,63.64 116.624,60.937C117.061,61.371 117.498,61.805 117.935,62.24C116.263,65.43 114.591,68.62 112.868,72.218z"/><path fill="#f4f5f4" d="M51.054,128.282C49.298,129.073 47.866,129.656 46.668,130.144C45.734,126.018 44.927,122.453 44.119,118.887C43.385,118.46 42.65,118.033 41.916,117.606C41.203,119.451 40.49,121.295 39.637,123.501C39.714,123.619 40.329,124.569 41.304,126.074C37.989,127.664 34.866,129.161 31.743,130.658C31.399,130.23 31.055,129.801 30.711,129.373C32.828,125.705 34.715,121.879 37.111,118.403C42.559,110.496 50.818,112.9 58.402,113.014C58.831,113.02 59.646,113.512 59.621,113.683C58.813,119.239 63.712,119.364 66.68,121.504C68.22,122.614 68.903,124.912 70.058,126.812C63.936,129.81 59.695,128.004 56.491,123.231C54.649,124.976 53.013,126.525 51.054,128.282z"/><path fill="#f7f8f8" d="M177.837,105.795C177.966,104.306 177.966,103.222 177.966,101.787C188.611,107.458 186.378,117.759 188.441,127.337C185.611,126.75 182.755,127.015 181.49,125.722C178.65,122.82 173.816,120.65 175.927,114.891C176.933,112.145 177.138,109.105 177.837,105.795z"/><path fill="#f3f4f4" d="M40.334,74.596C41.571,73.073 42.612,71.887 43.701,70.644C47.384,74.942 47.137,78.773 45.27,83.483C43.068,89.038 42.355,95.168 40.7,100.965C40.056,103.217 38.603,105.237 36.864,108.647C35.436,96.096 36.854,85.422 40.334,74.596z"/><path fill="#f1f2f2" d="M53.052,42.084C57.14,38.651 61.03,35.487 66.579,38.564C62.023,44.823 57.513,51.017 52.958,57.272C48.188,54.34 47.953,49.602 53.052,42.084z"/><path fill="#eeeeee" d="M203.934,44.448C202.492,47.067 201.116,49.292 199.74,51.517C201.491,42.517 195.867,37.389 189.339,32.783C192.656,29.469 195.062,31.721 197.341,32.969C201.655,35.329 204.807,38.544 203.934,44.448z"/><path fill="#eff0ef" d="M187.376,48.729C184.714,45.571 182.305,42.683 179.706,39.566C182.655,36.341 185.007,38.929 187.017,40.63C194.718,47.149 196.099,51.74 192.301,58.677C190.637,55.231 189.133,52.115 187.376,48.729z"/><path fill="#e9eae9" d="M22.236,120.718C19.677,113.494 21.927,104.249 27.11,100.095C27.424,101.304 28.003,102.38 27.915,103.399C27.518,107.999 26.989,112.59 26.388,117.169C26.107,119.316 25.861,121.736 22.236,120.718z"/><path fill="#eff0ef" d="M47.735,38.736C46.001,40.7 44.521,42.406 42.87,44.309C39.768,40.012 40.887,36.74 44.649,34.473C47.703,32.633 50.807,28.759 55.257,32.662C52.541,34.835 50.265,36.656 47.735,38.736z"/><path fill="#edefee" d="M227.994,106.99C227.669,105.221 227.355,103.846 226.893,101.82C232.951,103.903 233.512,109.688 236.738,113.296C234.463,117.212 232.338,116.626 230.471,113.202C229.468,111.361 228.816,109.329 227.994,106.99z"/><path fill="#e8e9e9" d="M206.902,33.002C203.405,30.25 198.063,30.101 196.983,24.798C203.365,25.453 208.066,28.499 208.796,32.431C208.817,32.542 207.8,32.847 206.902,33.002z"/><path fill="#eeeeee" d="M47.512,24.62C48.58,25.296 49.291,25.911 50.366,26.842C46.797,28.505 43.578,30.005 40.374,31.498C39.959,26.681 41.414,25.174 47.512,24.62z"/><path fill="#dadbdb" d="M195.978,14.023C198.398,16.035 200.818,18.047 203.238,20.058C202.925,20.429 202.611,20.799 202.297,21.169C198.651,20.667 195.685,19.37 195.839,14.305C196.025,13.967 195.978,14.023 195.978,14.023z"/><path fill="#dadbdb" d="M196.046,13.937C195.822,13.921 195.576,13.951 195.335,13.93C195.301,13.927 195.288,13.675 195.265,13.537C195.492,13.502 195.72,13.467 195.963,13.727C195.978,14.023 196.025,13.967 196.046,13.937z"/></svg>