<svg xmlns="http://www.w3.org/2000/svg" viewBox="0 0 224 196" xml:space="preserve"><path fill="#080808" d="M150.998,118.692C147.478,121.051 143.957,123.409 140.245,126.449C139.719,129.049 139.386,130.967 139.035,133.291C139.663,135.134 140.309,136.573 141.325,137.998C145.587,137.148 146.843,134.352 147.054,130.777C148.49,131.52 149.926,132.263 151.132,133.554C150.902,135.353 150.902,136.603 150.902,137.853C151.359,137.82 151.816,137.788 152.273,137.755C152.51,136.564 152.747,135.373 152.985,134.182C154.127,134.313 155.544,134.054 156.366,134.637C161.794,138.484 168.068,137.778 174.617,138.649C175.455,139.405 175.81,139.733 176.165,140.061C176.165,140.061 176.301,140.364 176.328,140.832C176.73,141.573 177.105,141.847 177.48,142.12C177.48,142.12 177.729,142.194 177.383,142.768C176.818,143.687 176.599,144.034 176.381,144.381C171.042,139.922 165.294,142.274 159.832,143.759C156.35,144.707 156.745,147.294 158.863,149.394C152.325,151.722 145.74,154.066 139.541,156.273C143.151,159.072 146.392,161.683 149.756,164.125C150.607,164.742 151.833,164.944 152.921,165.111C154.892,165.414 156.957,165.291 158.86,165.804C162.663,166.829 167.097,166.808 168.645,171.873C169.025,173.115 171.097,173.84 172.575,175.212C172.511,176.017 172.263,176.413 172.016,176.809C168.701,176.283 165.188,176.658 163.966,171.903C163.616,170.539 159.753,169.213 157.589,169.342C150.951,169.738 145.107,167.905 139.206,165.147C137.021,164.126 133.953,164.822 131.307,165.008C128.676,165.193 126.078,165.934 123.449,166.043C120.313,166.172 119.031,167.222 120.642,170.328C115.638,172.295 110.823,174.189 105.703,176.202C109.296,178.559 112.347,180.56 115.653,182.728C111.081,185.218 107.114,187.378 102.508,189.303C101.634,188.847 101.4,188.626 101.165,188.406C101.911,187.549 102.657,186.692 103.821,185.355C94.863,182.265 86.342,179.277 76.967,180.74C75.987,180.893 74.979,180.99 73.992,180.948C70.844,180.814 67.804,180.469 65.951,184.113C65.446,185.106 63.345,185.287 61.528,185.396C61.053,184.669 61.028,184.386 61.002,184.104C63.966,179.569 67.9,177.726 73.542,177.373C76.635,177.18 79.504,173.381 83.044,171.35C84.398,172.339 85.181,173.186 85.952,174.34C85.987,175.371 86.036,176.095 86.084,176.819C86.525,176.717 86.967,176.615 87.408,176.512C86.95,175.667 86.492,174.821 86.021,173.61C85.645,172.101 85.283,170.957 84.921,169.812C79.612,168.421 74.358,166.648 68.96,165.859C67.209,165.603 65.082,167.922 63.127,169.063C62.709,168.67 62.291,168.277 61.872,167.884C63.602,165.947 64.981,163.044 67.13,162.263C72.595,160.276 78.399,159.219 84.079,157.842C85.154,157.582 86.288,157.564 87.365,157.438C87.18,151.558 93.62,153.494 96.482,150.888C97.219,152.765 97.565,154.364 97.89,156.38C97.813,157.906 97.757,159.016 97.51,160.312C97.451,161.29 97.581,162.082 97.822,163.269C98.455,165.93 98.977,168.196 99.5,170.462C99.965,165.59 100.086,160.794 99.913,156.008C99.828,153.658 99.198,151.328 98.814,148.989C98.78,148.19 99.002,146.827 98.672,146.676C93.052,144.113 88.335,139.324 81.41,139.867C79.726,139.998 77.302,139.477 76.323,138.321C71.59,132.736 65.436,133.627 59.381,134.137C58.055,134.248 56.625,135.217 55.577,136.162C51.428,139.9 47.071,140.233 41.794,137.043C43.019,136.482 43.909,135.726 44.796,135.729C48.526,135.743 51.39,134.44 53.9,131.551C55.046,130.232 57.294,129.499 59.147,129.232C66.73,128.14 72.137,122.908 78.739,120.152C79.558,122.062 80.115,123.287 80.673,124.511C81.339,124.264 82.006,124.016 82.673,123.769C81.788,121.178 80.902,118.586 80.017,115.995C75.26,112.616 70.591,109.384 64.112,110.423C61.798,110.794 59.596,109.667 57.797,106.987C55.251,103.193 50.689,102.873 46.114,103.369C42.38,103.773 38.558,103.361 34.394,102.929C34.013,102.547 34.005,102.083 34.005,102.083C36.101,100.227 35.343,98.779 33.101,98.19C29.365,97.209 25.533,96.595 21.748,95.797C21.321,95.707 20.932,95.43 20.21,93.803C22.739,93.275 25.865,91.552 27.678,92.458C31.878,94.558 37.57,93.298 40.63,98.467C41.292,99.585 45.562,99.409 47.729,98.619C52.232,96.978 56.46,97.623 59.668,100.402C64.42,104.518 69.644,103.988 75.053,103.659C81.446,103.27 87.838,102.846 94.588,103.176C95.299,110.95 95.653,117.983 96.123,125.267C96.732,125.726 97.224,125.935 97.716,126.143C97.538,125.455 97.361,124.766 97.095,123.617C97.086,119.103 97.166,115.051 97.597,110.993C100.261,109.989 102.574,108.993 104.924,108.39C105.146,110.023 105.33,111.262 105.515,112.5C106.061,112.473 106.608,112.445 107.154,112.417C107.437,108.278 107.72,104.139 108.233,99.999C108.464,99.999 108.925,99.997 108.951,100.465C108.984,107.518 108.846,114.109 109.098,120.684C109.166,122.435 110.428,124.14 111.142,125.866C111.432,125.667 111.722,125.469 112.012,125.271C112.012,121.187 112.012,117.103 112.35,112.817C113.126,110.784 113.893,108.961 113.942,107.12C114.128,100.034 114.043,100.032 121.089,100.166C121.449,100.222 121.719,100.114 121.995,100.003C122,100 122.007,99.989 122.249,99.822C122.661,99.104 122.83,98.553 123.356,97.94C124.345,97.154 124.886,96.312 125.631,95.732C126.873,94.767 128.246,93.971 129.564,93.104C130.368,94.692 131.776,96.268 131.807,97.871C131.839,99.501 130.152,101.105 129.899,102.82C129.706,104.132 130.574,105.601 130.98,107.428C131.292,110.258 131.594,112.66 131.764,115.294C131.212,116.013 130.793,116.5 130.373,116.987C130.765,117.144 131.158,117.301 131.55,117.458C131.715,116.629 131.88,115.8 132.257,114.68C132.976,113.431 133.685,112.525 133.952,111.504C134.687,108.683 135.237,105.814 135.86,102.964C136.184,103.057 136.508,103.15 136.832,103.243C137.004,105.99 137.177,108.736 137.349,111.482C137.682,111.475 138.015,111.467 138.347,111.46C138.916,109.971 139.484,108.482 140.402,106.924C140.834,104.903 140.916,102.951 140.999,100.624C140.999,99.5 140.999,98.75 141.139,97.68C141.187,95.904 141.094,94.449 141.002,92.75C141.002,92.505 141.003,92.016 141.275,91.811C143.025,89.069 144.503,86.533 145.966,83.7C145.636,82.936 145.321,82.468 145.005,81.763C145.005,81.526 145.005,81.052 145.37,80.962C146.157,79.248 146.579,77.624 147.355,75.934C148.139,74.595 148.57,73.321 149,72.047C149.752,72.025 150.504,72.002 151.702,72.393C153.863,75.191 159.279,74.155 158.087,79.229C157.989,79.625 157.892,80.022 157.613,80.962C157.2,82.35 156.968,83.196 156.374,84.145C155.077,87.68 152.93,91.267 157.418,94.405C157.386,97.19 157.207,99.589 156.763,102.195C156.333,103.268 156.167,104.134 156,105.25C156,105.498 156.001,105.995 155.734,106.229C155.648,107.986 155.828,109.509 156.007,111.264C156.004,111.495 156.002,111.959 155.762,112.133C155.347,112.86 155.172,113.413 154.654,114.011C153.207,115.602 152.102,117.147 150.998,118.692M105.009,124.381C105.752,125.103 106.496,125.825 107.24,126.548C107.137,124.533 107.034,122.518 106.931,120.504C106.463,120.514 105.995,120.525 105.527,120.535C105.351,121.558 105.175,122.581 105.009,124.381M98.734,128.998C97.923,128.981 97.111,128.965 96.3,128.948C96.377,130.232 96.454,131.516 96.531,132.8C97.059,132.854 97.588,132.908 98.116,132.962C98.387,131.888 98.658,130.814 98.734,128.998M90.052,108.163C89.322,108.479 88.592,108.794 88.216,108.957C89.356,110.529 90.384,111.947 91.412,113.365C91.7,113.276 91.988,113.187 92.276,113.098C91.767,111.463 91.258,109.829 90.052,108.163M106.634,129.091C106.941,130.589 107.247,132.087 107.554,133.584C108.159,133.325 108.764,133.066 109.368,132.807C108.63,131.407 107.891,130.007 106.634,129.091M140.991,150.529C141.164,149.543 141.337,148.558 141.51,147.573C141.255,147.492 140.999,147.411 140.744,147.33C139.817,148.906 138.89,150.482 137.963,152.058C138.255,152.288 138.547,152.518 138.839,152.748C139.495,152.232 140.15,151.715 140.991,150.529M150.776,139.757C150.208,140.881 149.641,142.004 149.073,143.128C149.748,143.299 150.423,143.47 151.097,143.642C151.214,142.338 151.33,141.035 150.776,139.757M111.061,129.696C111.274,130.655 111.487,131.615 111.699,132.574C112.091,132.541 112.483,132.507 112.874,132.473C112.874,131.07 112.874,129.666 112.874,128.262C112.324,128.513 111.774,128.764 111.061,129.696M87.176,160.878C87.461,161.689 87.746,162.501 88.031,163.313C88.465,163.064 88.898,162.815 89.331,162.567C88.704,161.814 88.076,161.061 87.176,160.878M112.297,138.26C113.046,138.64 113.795,139.02 114.543,139.399C114.638,138.898 114.733,138.397 114.829,137.896C113.928,137.824 113.028,137.752 112.297,138.26M81.472,134.063C81.682,134.448 81.891,134.834 82.1,135.22C82.334,134.483 82.786,133.72 82.7,133.022C82.662,132.714 81.531,132.541 80.896,132.307C81.082,132.715 81.268,133.123 81.472,134.063M97.926,137.187C98.213,136.806 98.499,136.425 98.785,136.044C98.414,135.869 98.044,135.694 97.673,135.519C97.625,135.947 97.578,136.376 97.926,137.187M145.136,145.956C144.69,146.472 144.244,146.988 143.797,147.504C144.143,147.684 144.489,147.864 144.835,148.044C145.102,147.308 145.369,146.571 145.136,145.956M105.802,179.403C105.798,179.789 105.794,180.176 105.789,180.563C105.95,180.565 106.25,180.577 106.251,180.567C106.281,180.182 106.283,179.794 105.802,179.403M76.402,126.198C76.79,126.202 77.177,126.207 77.564,126.211C77.566,126.05 77.578,125.75 77.567,125.749C77.182,125.719 76.795,125.717 76.402,126.198M114.583,147.516C114.583,147.516 114.478,147.578 114.583,147.516M138.484,159.583C138.484,159.583 138.421,159.477 138.484,159.583z"/><path fill="#080808" d="M111.358,89.203C106.498,87.296 101.77,84.809 96.737,83.667C92.78,82.768 88.447,83.529 83.565,83.264C82.619,82.774 82.387,82.572 82.156,82.371C84.984,80.241 87.811,78.111 92.02,74.941C86.433,72.968 82.109,71.442 77.377,69.563C76.715,68.827 76.461,68.446 76.207,68.064C72.979,66.862 69.827,65.039 66.503,64.633C63.144,64.224 59.617,65.256 56.156,65.58C54.883,65.7 53.589,65.6 52.17,64.476C53.413,63.988 54.656,63.501 57.028,62.571C53.004,60.389 49.789,58.645 46.238,56.251C45.701,55.101 45.501,54.602 45.302,54.103C49.849,55.653 54.402,57.185 58.938,58.767C60.004,59.139 61.015,60.092 62.045,60.082C71.156,59.996 80.267,59.752 90.098,59.682C91.188,60.182 91.557,60.555 91.593,61.017C91.31,63.974 91.361,66.842 91.412,69.711C92.247,69.6 93.081,69.49 93.915,69.379C93.309,66.613 92.702,63.846 92.326,60.857C92.374,59.432 92.192,58.229 92.01,57.027C95.452,55.721 98.895,54.416 102.772,53.448C103.176,59.176 103.144,64.565 102.86,70.135C103.361,71.455 104.114,72.596 104.867,73.736C105.258,73.433 105.649,73.129 106.039,72.826C105.661,72.201 105.282,71.577 104.923,70.487C104.893,63.658 104.843,57.295 104.794,50.932C100.754,48.718 96.889,46.053 92.631,44.404C87.151,42.282 81.378,40.897 75.689,39.349C73.014,38.621 70.24,38.255 68.374,37.892C72.277,35.105 76.611,32.009 81.142,28.773C72.062,23.023 58.504,26.456 54.418,11.874C57.343,13.587 60.516,14.418 61.873,16.457C64.61,20.573 68.912,19.929 72.494,20.783C79.104,22.359 85.97,22.836 92.689,24C94.832,24.371 96.85,25.465 98.445,26.052C94.797,28.886 91.182,31.693 86.465,35.357C95.833,36.5 103.126,39.892 111.312,39.981C114.612,40.017 117.52,43.361 121.681,42.633C126.846,41.729 132.643,43.248 136.328,37.825C136.604,37.419 137.527,37.311 138.151,37.305C145.172,37.238 152.309,37.748 158.747,33.216C159.484,34.025 159.74,34.485 159.995,34.946C155.755,38.361 151.096,40.085 145.489,40.526C141.789,40.818 138.277,43.496 133.82,45.491C138.901,46.946 143.145,48.161 148.385,49.662C142.635,51.043 138.044,51.721 133.781,53.29C129.641,54.814 125.792,57.173 121.938,59.38C121.392,59.693 121.545,61.225 121.066,62.818C121.122,69.963 121.485,76.482 121.494,83.01C119.944,83.989 118.837,85.103 117.534,85.9C115.546,87.116 113.424,88.113 111.358,89.203M115.418,53.729C116.149,53.318 116.881,52.907 117.613,52.495C116.384,51.699 115.155,50.902 113.926,50.106C113.736,50.401 113.545,50.696 113.354,50.991C113.928,51.732 114.502,52.473 115.418,53.729M100.499,64.36C100.667,62.958 100.836,61.555 101.004,60.153C100.628,60.138 100.252,60.123 99.876,60.107C99.876,61.58 99.876,63.054 100.499,64.36M105.179,76.269C105.026,76.38 104.874,76.491 104.721,76.602C104.933,76.58 105.144,76.558 105.179,76.269M105.484,78.582C105.484,78.582 105.422,78.477 105.484,78.582z"/><path fill="#080807" d="M111.452,89.483C113.424,88.113 115.546,87.116 117.534,85.9C118.837,85.103 119.944,83.989 121.727,83.358C123.383,76.698 124.361,69.703 121.284,62.908C122.35,63.031 123.417,63.155 124.826,64.019C126.341,65.099 127.513,65.437 128.685,65.776C131.413,66.244 134.141,66.712 136.491,67.626C135.794,74.877 135.464,81.681 135.231,88.489C135.226,88.631 136.339,88.812 137.336,88.981C142.416,87.833 143.473,84.387 140.077,79.807C139.274,82.416 138.565,84.719 137.723,86.59C137.771,83.772 137.952,81.386 138.369,78.981C138.846,78.803 139.088,78.644 139.329,78.485C138.924,78.323 138.52,78.161 137.98,77.632C137.811,75.724 137.777,74.184 137.914,72.303C138.736,71.637 139.389,71.311 140.041,70.985C140.4,71.033 140.759,71.081 140.915,71.488C140.312,72.238 139.912,72.629 139.512,73.02C139.731,73.164 140.13,73.445 140.142,73.43C140.573,72.865 140.97,72.272 141.37,71.683C143.652,71.676 145.933,71.669 148.607,71.855C148.57,73.321 148.139,74.595 147.063,75.97C145.946,77.732 145.476,79.392 145.005,81.052C145.005,81.052 145.005,81.526 145.023,82.059C145.355,83.06 145.668,83.528 145.981,83.997C144.503,86.533 143.025,89.069 141.109,91.895C140.782,92.455 140.892,92.724 141.002,92.994C141.094,94.449 141.187,95.904 140.809,97.528C139.142,95.981 137.946,94.263 136.625,92.369C134.736,97.256 132.853,102.128 130.971,107C130.574,105.601 129.706,104.132 129.899,102.82C130.152,101.105 131.839,99.501 131.807,97.871C131.776,96.268 130.368,94.692 129.564,93.104C128.246,93.971 126.873,94.767 125.631,95.732C124.886,96.312 124.345,97.154 123.113,98.107C122.345,98.888 122.176,99.438 122.007,99.989C122.007,99.989 122,100 121.747,100.001C121.495,100.002 121,100.003 121,100.003C114.043,100.032 114.128,100.034 113.942,107.12C113.893,108.961 113.126,110.784 112.056,112.518C111.175,107.148 110.926,101.877 110.677,96.605C110.296,96.585 109.914,96.566 109.533,96.546C109.33,97.696 109.128,98.847 108.925,99.997C108.925,99.997 108.464,99.999 108.084,99.708C107.056,99.091 106.408,98.765 105.76,98.439C105.505,99.292 105.25,100.146 104.699,101.04C104.088,101.486 103.773,101.892 103.458,102.297C103.97,102.532 104.483,102.766 104.997,103.417C104.961,105.221 104.924,106.609 104.887,107.996C102.574,108.993 100.261,109.989 97.511,110.586C96.971,107.789 96.869,105.392 96.767,102.995C96.359,101.439 95.952,99.883 95.546,98.333C99.605,96.627 104.284,94.66 109.371,92.901C110.215,93.388 110.651,93.666 111.088,93.945C111.375,92.918 111.663,91.892 111.95,90.865C111.816,90.498 111.681,90.131 111.452,89.483M127.834,82.127C128.43,81.453 129.026,80.778 130.303,79.334C127.968,79.939 126.661,80.277 124.405,80.861C125.982,81.688 126.651,82.039 127.834,82.127M123.771,92.312C123.424,91.795 123.076,91.278 122.728,90.761C122.097,91.782 121.465,92.803 120.834,93.824C121.134,94.035 121.434,94.246 121.734,94.456C122.312,93.932 122.891,93.407 123.771,92.312M129.55,70.76C129.598,70.086 129.645,69.412 129.693,68.738C129.266,68.808 128.839,68.878 128.412,68.948C128.654,69.69 128.896,70.431 129.55,70.76M128.852,87.507C128.428,87.207 128.005,86.907 127.581,86.607C127.468,87.051 127.355,87.495 127.242,87.939C127.738,87.992 128.233,88.045 128.852,87.507z"/><path fill="#080807" d="M151.356,118.771C152.102,117.147 153.207,115.602 154.948,113.993C155.725,113.272 155.863,112.616 156.002,111.959C156.002,111.959 156.004,111.495 156.378,111.173C157.489,107.869 158.228,104.887 159.022,101.492C159.514,98.228 157.983,94.493 162.496,93.774C160.172,91.034 158.679,88.498 161.755,85.833C162.082,86.52 162.318,86.868 162.554,87.215C162.69,86.82 162.826,86.425 162.969,86.03C162.977,86.029 162.949,86.051 162.949,86.051C164.906,86.791 168.13,84.254 168.35,88.777C165.884,92.064 163.871,94.889 161.804,97.792C163.747,98.441 165.25,98.943 167.269,99.618C168.581,96.401 169.907,93.149 171.233,89.897C177.961,90.304 184.514,90.869 190.535,94.745C192.674,96.122 196.196,95.403 199.092,95.535C201.51,95.646 203.936,95.604 206.54,96.072C206.173,96.846 205.625,97.177 205.077,97.507C202.304,98.105 199.532,98.703 196.336,99.661C195.43,100.069 194.948,100.118 194.465,100.166C193.048,99.768 191.63,99.374 190.214,98.972C178.813,95.739 178.813,95.739 168.478,102.828C170.272,103.955 171.803,104.917 173.666,106.298C173.999,107.098 173.999,107.479 173.999,107.86C168.992,108.538 163.58,108.14 160.107,113.762C160.029,114.932 160.014,115.405 159.999,115.877C157.238,116.868 154.476,117.859 151.356,118.771M161.383,105.229C161.862,105.103 162.341,104.976 162.821,104.85C162.648,104.475 162.476,104.1 162.303,103.725C161.973,104.044 161.643,104.364 161.383,105.229z"/><path fill="#080807" d="M158.442,79.174C159.279,74.155 153.863,75.191 152.074,72.455C154.46,71.139 156.877,70.042 159.393,69.257C160.89,68.79 162.567,68.527 164.117,68.671C168.031,69.034 171.574,68.703 174.793,66.005C179.727,61.869 185.246,64.4 190.554,65.12C191.753,65.282 192.899,65.836 194.227,67.263C193.261,67.463 192.219,68.005 191.341,67.808C185.331,66.462 179.309,64.733 175.124,71.454C174.964,71.711 174.582,72.04 174.346,72.009C167.674,71.145 164.086,76.994 158.442,79.174z"/><path fill="#d2d2d2" d="M136.931,88.975C136.339,88.812 135.226,88.631 135.231,88.489C135.464,81.681 135.794,74.877 136.507,67.943C136.936,68.28 136.972,68.746 136.965,69.927C137.195,71.309 137.469,71.976 137.743,72.644C137.777,74.184 137.811,75.724 137.928,77.883C138.052,78.668 138.093,78.834 138.134,79.001C137.952,81.386 137.771,83.772 137.559,86.807C137.329,87.963 137.13,88.469 136.931,88.975z"/><path fill="#090909" d="M170.97,89.639C169.907,93.149 168.581,96.401 167.269,99.618C165.25,98.943 163.747,98.441 161.804,97.792C163.871,94.889 165.884,92.064 168.209,89.167C169.251,89.191 169.979,89.286 170.97,89.639z"/><path fill="#292829" d="M146.909,130.535C146.843,134.352 145.587,137.148 141.325,137.62C141.526,135.905 142.096,134.554 142.679,133.173C141.571,133.085 140.312,132.986 139.053,132.886C139.386,130.967 139.719,129.049 140.246,126.747C141.245,126.684 142.05,127.004 142.737,127.803C142.876,129.056 143.133,129.83 143.389,130.603C144.001,130.273 144.614,129.943 145.226,129.613C145.738,129.839 146.251,130.066 146.909,130.535z"/><path fill="#f2f1f1" d="M161.663,85.494C158.679,88.498 160.172,91.034 162.496,93.774C157.983,94.493 159.514,98.228 158.7,101.532C157.891,101.987 157.46,101.988 157.028,101.989C157.207,99.589 157.386,97.19 157.556,93.968C157.502,90.096 157.457,87.047 158.014,83.872C159.236,83.807 159.856,83.868 160.477,83.929C160.68,83.777 160.904,83.731 161.123,84.114C161.331,84.762 161.565,85.087 161.769,85.44C161.74,85.468 161.663,85.494 161.663,85.494z"/><path fill="#c6c6c6" d="M96.335,102.988C96.869,105.392 96.971,107.789 97.159,110.592C97.166,115.051 97.086,119.103 96.82,123.651C96.424,124.437 96.215,124.727 96.006,125.017C95.653,117.983 95.299,110.95 94.994,103.448C95.329,102.98 95.617,102.98 96.335,102.988z"/><path fill="#dbdbdb" d="M121.316,62.929C124.361,69.703 123.383,76.698 122.082,83.35C121.485,76.482 121.122,69.963 121.085,63.22C121.41,62.996 121.348,62.951 121.316,62.929z"/><path fill="#bfbfbf" d="M103.112,69.954C103.144,64.565 103.176,59.176 103.112,53.316C103.413,52.232 103.808,51.617 104.499,50.967C104.843,57.295 104.893,63.658 104.66,70.441C103.956,70.558 103.534,70.256 103.112,69.954z"/><path fill="#979897" d="M97.7,160.126C97.757,159.016 97.813,157.906 98.231,156.231C98.035,153.733 97.478,151.801 96.92,149.868C97.356,149.513 97.791,149.158 98.52,148.896C99.198,151.328 99.828,153.658 99.913,156.008C100.086,160.794 99.965,165.59 99.5,170.462C98.977,168.196 98.455,165.93 98.145,163.184C98.138,161.844 97.919,160.985 97.7,160.126z"/><path fill="#090909" d="M40.995,56.557C35.615,56.557 30.234,56.557 24.854,56.557C24.854,55.909 24.854,55.261 24.855,54.613C29.927,54.613 34.999,54.613 40.537,54.954C41.001,55.716 40.998,56.136 40.995,56.557z"/><path fill="#090909" d="M80.029,116.389C80.902,118.586 81.788,121.178 82.673,123.769C82.006,124.016 81.339,124.264 80.673,124.511C80.115,123.287 79.558,122.062 79,120.467C79.347,118.992 79.694,117.888 80.029,116.389z"/><path fill="#080808" d="M177.445,142.881C180.231,143.278 182.609,144.135 184.986,144.991C184.938,145.443 184.89,145.895 184.842,146.348C182.16,145.878 179.478,145.407 176.589,144.659C176.599,144.034 176.818,143.687 177.445,142.881z"/><path fill="#131313" d="M15.064,96.063C16.25,95.212 17.844,94.413 19.439,93.614C19.649,94.334 19.858,95.054 20.068,95.774C18.536,95.888 17.005,96.002 15.064,96.063z"/><path fill="#090909" d="M152.761,134.065C152.747,135.373 152.51,136.564 152.273,137.755C151.816,137.788 151.359,137.82 150.902,137.853C150.902,136.603 150.902,135.353 151.232,133.901C151.887,133.783 152.212,133.865 152.761,134.065z"/><path fill="#090909" d="M60.636,184.092C61.028,184.386 61.053,184.669 61.122,185.374C59.223,186.306 57.281,186.814 55.339,187.322C55.244,187.019 55.149,186.716 55.054,186.412C56.793,185.635 58.532,184.857 60.636,184.092z"/><path fill="#090909" d="M96.844,149.965C97.478,151.801 98.035,153.733 98.251,155.814C97.565,154.364 97.219,152.765 96.819,150.736C96.764,150.306 96.768,150.061 96.844,149.965z"/><path fill="#090909" d="M174.361,107.963C173.999,107.479 173.999,107.098 173.999,106.432C175.467,106.51 176.935,106.873 178.403,107.237C178.368,107.459 178.334,107.682 178.3,107.904C177.108,107.958 175.915,108.013 174.361,107.963z"/><path fill="#090909" d="M172.362,176.959C172.263,176.413 172.511,176.017 172.865,175.413C174.109,175.677 175.247,176.149 176.385,176.621C176.232,177.05 176.08,177.478 175.928,177.906C174.855,177.641 173.782,177.375 172.362,176.959z"/><path fill="#090909" d="M85.965,174.034C85.181,173.186 84.398,172.339 83.381,171.278C83.57,170.721 83.991,170.378 84.667,169.923C85.283,170.957 85.645,172.101 86.003,173.624C85.998,174.003 85.965,174.034 85.965,174.034z"/><path fill="#404040" d="M160.618,83.577C159.856,83.868 159.236,83.807 157.849,83.957C157.084,84.168 156.735,84.041 156.735,84.041C156.968,83.196 157.2,82.35 157.658,81.265C158.842,81.759 159.8,82.493 160.618,83.577z"/><path fill="#090909" d="M160.376,34.997C159.74,34.485 159.484,34.025 159.119,33.324C160.582,33.084 162.153,33.084 164.862,33.084C162.852,34.046 161.805,34.547 160.376,34.997z"/><path fill="#090909" d="M145.089,129.372C144.614,129.943 144.001,130.273 143.389,130.603C143.133,129.83 142.876,129.056 142.888,128.096C143.754,128.317 144.354,128.724 145.089,129.372z"/><path fill="#090909" d="M91.926,60.928C91.557,60.555 91.188,60.182 90.497,59.576C90.576,58.583 90.979,57.822 91.695,57.044C92.192,58.229 92.374,59.432 92.282,60.82C92.009,61.006 91.926,60.928 91.926,60.928z"/><path fill="#090909" d="M111.715,90.9C111.663,91.892 111.375,92.918 111.088,93.945C110.651,93.666 110.215,93.388 109.74,92.729C110.295,91.877 110.888,91.405 111.715,90.9z"/><path fill="#080808" d="M41.377,56.626C40.998,56.136 41.001,55.716 41.007,54.979C42.083,54.426 43.157,54.189 44.441,54.308C44.431,55.138 44.208,55.612 43.986,56.086C43.244,56.289 42.502,56.492 41.377,56.626z"/><path fill="#080808" d="M39.268,135.947C40.414,136.103 41.106,136.239 41.798,136.375C41.714,136.784 41.631,137.193 41.548,137.601C40.058,137.417 38.568,137.233 37.078,137.049C37.096,136.743 37.114,136.437 37.131,136.131C37.692,136.063 38.253,135.996 39.268,135.947z"/><path fill="#090909" d="M160.376,115.991C160.014,115.405 160.029,114.932 160.069,114.106C161.065,114.128 162.036,114.503 164.366,115.403C162.246,115.815 161.499,115.96 160.376,115.991z"/><path fill="#090909" d="M205.407,97.705C205.625,97.177 206.173,96.846 206.851,96.312C207.554,96.628 208.127,97.147 208.699,97.666C207.712,97.745 206.724,97.823 205.407,97.705z"/><path fill="#0e0d0d" d="M128.446,65.52C127.513,65.437 126.341,65.099 125.087,64.372C126.073,64.411 127.14,64.838 128.446,65.52z"/><path fill="#090909" d="M176.382,139.902C175.81,139.733 175.455,139.405 175.044,138.83C175.526,138.969 176.063,139.356 176.382,139.902z"/><path fill="#090909" d="M44.311,56.201C44.208,55.612 44.431,55.138 44.982,54.439C45.311,54.213 45.286,54.181 45.294,54.142C45.501,54.602 45.701,55.101 45.956,56C45.553,56.372 45.094,56.344 44.311,56.201z"/><path fill="#090909" d="M75.995,68.193C76.461,68.446 76.715,68.827 76.986,69.449C76.597,69.233 76.19,68.777 75.995,68.193z"/><path fill="#090909" d="M137.914,72.303C137.469,71.976 137.195,71.309 136.953,70.278C137.84,70.119 138.695,70.323 139.796,70.757C139.389,71.311 138.736,71.637 137.914,72.303z"/><path fill="#080808" d="M60.453,170.221C60.326,169.651 60.556,168.997 60.993,168.798C61.285,168.666 61.872,169.183 62.326,169.409C61.85,169.716 61.374,170.023 60.453,170.221z"/><path fill="#090909" d="M83.174,83.302C82.432,83.781 81.366,83.934 80.3,84.086C80.23,83.86 80.16,83.634 80.09,83.408C80.587,83.164 81.083,82.919 81.868,82.523C82.387,82.572 82.619,82.774 83.174,83.302z"/><path fill="#090909" d="M102.181,189.435C101.892,189.455 101.291,189.108 100.927,188.583C101.4,188.626 101.634,188.847 102.181,189.435z"/><path fill="#080807" d="M161.799,85.413C161.565,85.087 161.331,84.762 161.289,84.174C161.991,84.375 162.502,84.84 162.981,85.677C162.949,86.051 162.977,86.029 162.649,85.931C162.147,85.693 161.973,85.553 161.799,85.413z"/><path fill="#090909" d="M47.786,140.588C47.097,140.8 46.686,140.672 46.276,140.544C46.386,140.31 46.525,139.866 46.601,139.877C47.096,139.945 47.578,140.113 47.786,140.588z"/><path fill="#090909" d="M194.669,100.455C194.948,100.118 195.43,100.069 196.276,100.008C196.05,100.244 195.461,100.494 194.669,100.455z"/><path fill="#090909" d="M177.326,141.806C177.105,141.847 176.73,141.573 176.237,140.97C176.47,140.925 176.821,141.209 177.326,141.806z"/><path fill="#131313" d="M33.715,102.109C34.005,102.083 34.013,102.547 34.006,102.779C33.808,102.72 33.616,102.428 33.715,102.109z"/><path fill="#090909" d="M130.98,107.428C132.853,102.128 134.736,97.256 136.625,92.369C137.946,94.263 139.142,95.981 140.669,97.849C140.999,98.75 140.999,99.5 140.686,100.676C140.265,103.066 140.158,105.029 140.052,106.993C139.484,108.482 138.916,109.971 138.347,111.46C138.015,111.467 137.682,111.475 137.349,111.482C137.177,108.736 137.004,105.99 136.832,103.243C136.508,103.15 136.184,103.057 135.86,102.964C135.237,105.814 134.687,108.683 133.952,111.504C133.685,112.525 132.976,113.431 132.22,114.704C131.971,115.018 131.896,115.062 131.896,115.062C131.594,112.66 131.292,110.258 130.98,107.428z"/><path fill="#090909" d="M108.951,100.465C109.128,98.847 109.33,97.696 109.533,96.546C109.914,96.566 110.296,96.585 110.677,96.605C110.926,101.877 111.175,107.148 111.718,112.719C112.012,117.103 112.012,121.187 112.012,125.271C111.722,125.469 111.432,125.667 111.142,125.866C110.428,124.14 109.166,122.435 109.098,120.684C108.846,114.109 108.984,107.518 108.951,100.465z"/><path fill="#090909" d="M104.995,101C105.25,100.146 105.505,99.292 105.76,98.439C106.408,98.765 107.056,99.091 107.853,99.709C107.72,104.139 107.437,108.278 107.154,112.417C106.608,112.445 106.061,112.473 105.515,112.5C105.33,111.262 105.146,110.023 104.924,108.39C104.924,106.609 104.961,105.221 104.998,103.084C104.997,101.889 104.996,101.444 104.995,101z"/><path fill="#080807" d="M156.374,84.145C156.735,84.041 157.084,84.168 157.248,84.083C157.457,87.047 157.502,90.096 157.408,93.583C152.93,91.267 155.077,87.68 156.374,84.145z"/><path fill="#090909" d="M156.763,102.195C157.46,101.988 157.891,101.987 158.644,101.946C158.228,104.887 157.489,107.869 156.38,110.941C155.828,109.509 155.648,107.986 155.898,106.141C156.219,105.546 156.11,105.273 156.001,105.001C156.167,104.134 156.333,103.268 156.763,102.195z"/><path fill="#090909" d="M105.004,123.993C105.175,122.581 105.351,121.558 105.527,120.535C105.995,120.525 106.463,120.514 106.931,120.504C107.034,122.518 107.137,124.533 107.24,126.548C106.496,125.825 105.752,125.103 105.004,123.993z"/><path fill="#090909" d="M98.831,129.369C98.658,130.814 98.387,131.888 98.116,132.962C97.588,132.908 97.059,132.854 96.531,132.8C96.454,131.516 96.377,130.232 96.3,128.948C97.111,128.965 97.923,128.981 98.831,129.369z"/><path fill="#090909" d="M90.401,108.179C91.258,109.829 91.767,111.463 92.276,113.098C91.988,113.187 91.7,113.276 91.412,113.365C90.384,111.947 89.356,110.529 88.216,108.957C88.592,108.794 89.322,108.479 90.401,108.179z"/><path fill="#090909" d="M106.893,128.849C107.891,130.007 108.63,131.407 109.368,132.807C108.764,133.066 108.159,133.325 107.554,133.584C107.247,132.087 106.941,130.589 106.893,128.849z"/><path fill="#090909" d="M140.898,150.864C140.15,151.715 139.495,152.232 138.839,152.748C138.547,152.518 138.255,152.288 137.963,152.058C138.89,150.482 139.817,148.906 140.744,147.33C140.999,147.411 141.255,147.492 141.51,147.573C141.337,148.558 141.164,149.543 140.898,150.864z"/><path fill="#090909" d="M139.035,133.291C140.312,132.986 141.571,133.085 142.679,133.173C142.096,134.554 141.526,135.905 140.956,137.633C140.309,136.573 139.663,135.134 139.035,133.291z"/><path fill="#080807" d="M140.402,106.924C140.158,105.029 140.265,103.066 140.685,101.05C140.916,102.951 140.834,104.903 140.402,106.924z"/><path fill="#090909" d="M151.111,139.744C151.33,141.035 151.214,142.338 151.097,143.642C150.423,143.47 149.748,143.299 149.073,143.128C149.641,142.004 150.208,140.881 151.111,139.744z"/><path fill="#090909" d="M111.142,129.355C111.774,128.764 112.324,128.513 112.874,128.262C112.874,129.666 112.874,131.07 112.874,132.473C112.483,132.507 112.091,132.541 111.699,132.574C111.487,131.615 111.274,130.655 111.142,129.355z"/><path fill="#090909" d="M145.37,80.962C145.476,79.392 145.946,77.732 146.709,76.036C146.579,77.624 146.157,79.248 145.37,80.962z"/><path fill="#090909" d="M87.312,160.593C88.076,161.061 88.704,161.814 89.331,162.567C88.898,162.815 88.465,163.064 88.031,163.313C87.746,162.501 87.461,161.689 87.312,160.593z"/><path fill="#090909" d="M112.213,137.971C113.028,137.752 113.928,137.824 114.829,137.896C114.733,138.397 114.638,138.898 114.543,139.399C113.795,139.02 113.046,138.64 112.213,137.971z"/><path fill="#090909" d="M81.463,133.797C81.268,133.123 81.082,132.715 80.896,132.307C81.531,132.541 82.662,132.714 82.7,133.022C82.786,133.72 82.334,134.483 82.1,135.22C81.891,134.834 81.682,134.448 81.463,133.797z"/><path fill="#090909" d="M86.016,173.989C86.492,174.821 86.95,175.667 87.408,176.512C86.967,176.615 86.525,176.717 86.084,176.819C86.036,176.095 85.987,175.371 85.952,174.34C85.965,174.034 85.998,174.003 86.016,173.989z"/><path fill="#090909" d="M97.51,160.312C97.919,160.985 98.138,161.844 98.034,162.789C97.581,162.082 97.451,161.29 97.51,160.312z"/><path fill="#090909" d="M132.008,114.994C131.88,115.8 131.715,116.629 131.55,117.458C131.158,117.301 130.765,117.144 130.373,116.987C130.793,116.5 131.212,116.013 131.764,115.294C131.896,115.062 131.971,115.018 132.008,114.994z"/><path fill="#090909" d="M97.729,136.996C97.578,136.376 97.625,135.947 97.673,135.519C98.044,135.694 98.414,135.869 98.785,136.044C98.499,136.425 98.213,136.806 97.729,136.996z"/><path fill="#090909" d="M96.123,125.267C96.215,124.727 96.424,124.437 96.908,124.113C97.361,124.766 97.538,125.455 97.716,126.143C97.224,125.935 96.732,125.726 96.123,125.267z"/><path fill="#090909" d="M145.386,145.895C145.369,146.571 145.102,147.308 144.835,148.044C144.489,147.864 144.143,147.684 143.797,147.504C144.244,146.988 144.69,146.472 145.386,145.895z"/><path fill="#090909" d="M106.045,179.405C106.283,179.794 106.281,180.182 106.251,180.567C106.25,180.577 105.95,180.565 105.789,180.563C105.794,180.176 105.798,179.789 106.045,179.405z"/><path fill="#090909" d="M155.762,112.133C155.863,112.616 155.725,113.272 155.291,113.947C155.172,113.413 155.347,112.86 155.762,112.133z"/><path fill="#090909" d="M76.405,125.955C76.795,125.717 77.182,125.719 77.567,125.749C77.578,125.75 77.566,126.05 77.564,126.211C77.177,126.207 76.79,126.202 76.405,125.955z"/><path fill="#090909" d="M145.966,83.7C145.668,83.528 145.355,83.06 145.024,82.296C145.321,82.468 145.636,82.936 145.966,83.7z"/><path fill="#090909" d="M122.249,99.822C122.176,99.438 122.345,98.888 122.757,98.169C122.83,98.553 122.661,99.104 122.249,99.822z"/><path fill="#090909" d="M114.53,147.547C114.478,147.578 114.583,147.516 114.53,147.547z"/><path fill="#090909" d="M138.453,159.53C138.421,159.477 138.484,159.583 138.453,159.53z"/><path fill="#090909" d="M141.002,92.75C140.892,92.724 140.782,92.455 140.837,92.1C141.003,92.016 141.002,92.505 141.002,92.75z"/><path fill="#090909" d="M121.089,100.166C121,100.003 121.495,100.002 121.742,100.005C121.719,100.114 121.449,100.222 121.089,100.166z"/><path fill="#080807" d="M156,105.25C156.11,105.273 156.219,105.546 156.164,105.907C156.001,105.995 156,105.498 156,105.25z"/><path fill="#090909" d="M92.053,61.042C92.702,63.846 93.309,66.613 93.915,69.379C93.081,69.49 92.247,69.6 91.412,69.711C91.361,66.842 91.31,63.974 91.593,61.017C91.926,60.928 92.009,61.006 92.053,61.042z"/><path fill="#090909" d="M115.247,53.472C114.502,52.473 113.928,51.732 113.354,50.991C113.545,50.696 113.736,50.401 113.926,50.106C115.155,50.902 116.384,51.699 117.613,52.495C116.881,52.907 116.149,53.318 115.247,53.472z"/><path fill="#090909" d="M102.86,70.135C103.534,70.256 103.956,70.558 104.641,70.906C105.282,71.577 105.661,72.201 106.039,72.826C105.649,73.129 105.258,73.433 104.867,73.736C104.114,72.596 103.361,71.455 102.86,70.135z"/><path fill="#090909" d="M100.188,64.443C99.876,63.054 99.876,61.58 99.876,60.107C100.252,60.123 100.628,60.138 101.004,60.153C100.836,61.555 100.667,62.958 100.188,64.443z"/><path fill="#090909" d="M105.268,76.402C105.144,76.558 104.933,76.58 104.721,76.602C104.874,76.491 105.026,76.38 105.268,76.402z"/><path fill="#090909" d="M105.453,78.53C105.422,78.477 105.484,78.582 105.453,78.53z"/><path fill="#090909" d="M137.336,88.981C137.13,88.469 137.329,87.963 137.692,87.24C138.565,84.719 139.274,82.416 140.077,79.807C143.473,84.387 142.416,87.833 137.336,88.981z"/><path fill="#0e0d0d" d="M127.577,82.258C126.651,82.039 125.982,81.688 124.405,80.861C126.661,80.277 127.968,79.939 130.303,79.334C129.026,80.778 128.43,81.453 127.577,82.258z"/><path fill="#090909" d="M123.62,92.597C122.891,93.407 122.312,93.932 121.734,94.456C121.434,94.246 121.134,94.035 120.834,93.824C121.465,92.803 122.097,91.782 122.728,90.761C123.076,91.278 123.424,91.795 123.62,92.597z"/><path fill="#0e0d0d" d="M129.344,70.966C128.896,70.431 128.654,69.69 128.412,68.948C128.839,68.878 129.266,68.808 129.693,68.738C129.645,69.412 129.598,70.086 129.344,70.966z"/><path fill="#090909" d="M128.79,87.803C128.233,88.045 127.738,87.992 127.242,87.939C127.355,87.495 127.468,87.051 127.581,86.607C128.005,86.907 128.428,87.207 128.79,87.803z"/><path fill="#080808" d="M104.699,101.04C104.996,101.444 104.997,101.889 104.997,102.667C104.483,102.766 103.97,102.532 103.458,102.297C103.773,101.892 104.088,101.486 104.699,101.04z"/><path fill="#090909" d="M141.326,71.707C140.97,72.272 140.573,72.865 140.142,73.43C140.13,73.445 139.731,73.164 139.512,73.02C139.912,72.629 140.312,72.238 141.022,71.745C141.332,71.642 141.281,71.73 141.326,71.707z"/><path fill="#090909" d="M138.369,78.981C138.093,78.834 138.052,78.668 138.063,78.251C138.52,78.161 138.924,78.323 139.329,78.485C139.088,78.644 138.846,78.803 138.369,78.981z"/><path fill="#090909" d="M161.348,104.956C161.643,104.364 161.973,104.044 162.303,103.725C162.476,104.1 162.648,104.475 162.821,104.85C162.341,104.976 161.862,105.103 161.348,104.956z"/><path fill="#404040" d="M161.769,85.44C161.973,85.553 162.147,85.693 162.642,85.932C162.826,86.425 162.69,86.82 162.554,87.215C162.318,86.868 162.082,86.52 161.755,85.833C161.663,85.494 161.74,85.468 161.769,85.44z"/></svg>