<svg xmlns="http://www.w3.org/2000/svg" viewBox="0 0 237 128" xml:space="preserve"><path fill="#080808" d="M104.033,85.987C98.606,85.663 93.182,85.275 87.751,85.039C84.613,84.903 81.464,85.015 77.92,85.015C77.92,87.358 77.92,89.41 77.92,91.795C73.762,91.795 70,91.795 65.851,91.795C65.561,89.624 65.258,87.359 64.878,84.513C59.849,84.513 54.782,84.513 48.929,84.513C48.929,82.017 49.19,80.055 48.842,78.207C48.587,76.856 47.486,75.679 46.847,74.382C46.25,73.172 45.395,71.933 45.304,70.661C45.08,67.54 45.231,64.393 45.231,60.174C53.398,60.872 60.863,61.352 68.264,62.325C69.276,62.458 70.503,64.975 70.7,66.507C71.201,70.401 71.174,74.364 71.369,78.532C75.443,78.322 79.03,78.138 82.932,77.937C83.074,74.956 83.205,72.206 83.353,69.092C87.747,69.092 91.85,69.092 96.31,69.092C96.469,67.338 96.597,65.934 96.786,63.844C93.538,63.844 90.605,63.852 87.673,63.841C84.719,63.831 81.265,62.982 81.7,67.856C79.31,67.856 77.381,67.856 75.958,67.856C72.966,58.262 70.216,48.948 73.435,40.154C77.916,40.517 82.335,40.875 87.57,41.299C87.763,45.32 87.965,49.537 88.183,54.098C90.115,54.199 91.872,54.29 93.814,54.391C93.814,44.893 93.814,35.662 93.814,27.875C98.933,20.016 103.54,12.944 108.255,5.705C112.416,13.373 115.867,21.777 124.067,26.465C119.326,33.977 123.125,41.996 121.674,49.692C125.473,49.7 125.473,49.7 126.212,41.27C129.407,41.27 132.649,41.27 136.059,41.27C136.324,43.828 136.594,46.436 136.896,49.357C139.891,49.357 142.652,49.357 145.389,49.357C147.386,41.831 147.386,41.831 156.064,42.481C155.018,47.024 158.514,52.17 153.443,56.122C153.149,56.352 153.143,57.058 153.141,57.543C153.122,63.274 153.129,69.006 153.129,74.947C154.581,74.947 156.381,74.947 158.803,74.947C158.975,71.093 159.148,67.206 159.333,63.055C162.693,63.055 165.623,63.055 169.068,63.055C169.068,66.754 169.068,70.517 169.068,74.622C170.928,74.795 172.318,74.923 174.404,75.117C173.984,73.507 174.05,71.781 173.329,71.339C170.079,69.345 171.765,67.888 173.349,65.928C175.701,63.018 177.657,59.792 179.918,56.805C180.989,55.39 182.399,53.175 183.613,53.202C185.044,53.234 186.755,55.074 187.775,56.529C190.867,60.944 193.684,65.551 196.49,69.9C191.683,74.115 194.666,79.589 194.218,84.42C194.159,85.059 195.959,85.871 197.409,87.001C196.86,78.185 205.004,76.204 207.469,69.909C211.669,74.323 215.421,78.267 218.816,81.836C218.228,84.166 217.694,86.281 217.026,88.93C220.4,88.93 222.693,88.93 225.636,88.93C225.83,92.581 226.011,95.98 226.207,99.676C229.16,100.601 232.12,101.528 235.08,102.455C235.104,102.855 235.128,103.256 235.152,103.656C224.808,104.559 214.463,105.462 204.119,106.365C204.075,106.818 204.031,107.271 203.987,107.723C205.329,107.97 206.663,108.336 208.017,108.438C210.84,108.651 213.699,108.547 216.491,108.944C217.61,109.102 218.59,110.237 219.634,110.927C218.604,111.45 217.6,112.362 216.54,112.432C209.423,112.905 202.294,113.198 194.747,113.57C194.859,115.73 194.94,117.284 195.073,119.857C192.07,119.857 189.132,120.161 186.279,119.797C179.409,118.92 173.433,124.182 166.296,122.165C160.083,120.409 153.594,119.642 147.25,118.326C146.058,118.079 144.976,117.305 143.944,116.14C152.31,115.632 160.583,111.275 169.046,117.324C169.385,114.364 169.621,112.313 169.878,110.066C151.465,110.066 133.319,109.848 115.189,110.264C111.881,110.34 108.633,112.999 105.357,114.466C105.585,114.999 105.813,115.533 106.041,116.066C116.906,116.066 127.772,116.066 138.637,116.066C138.683,116.541 138.729,117.015 138.774,117.49C128.285,118.598 117.796,119.706 107.306,120.815C107.328,121.098 107.349,121.381 107.37,121.664C113.644,122.556 119.917,123.448 126.19,124.34C126.141,124.775 126.092,125.209 126.043,125.643C101.766,127.784 78.467,118.909 54.346,119.281C54.321,118.678 54.296,118.074 54.271,117.471C60.416,116.884 66.562,116.297 72.707,115.71C61.145,110.863 73.091,108.255 73.369,104.899C72.775,104.652 72.138,104.214 71.979,104.347C67.56,108.048 62.328,106.903 57.354,106.668C41.741,105.93 26.138,104.989 10.53,104.126C10.438,103.672 10.347,103.218 10.255,102.764C12.31,102.12 14.365,101.476 16.847,100.698C16.847,97.093 16.847,93.332 16.847,89.682C26.593,87.243 27.213,87.645 28.402,97.118C29.707,97.314 31.112,97.526 33.729,97.921C33.729,93.952 34.841,89.803 33.363,87.039C32.26,84.977 27.811,84.703 24.208,83.399C24.208,81.18 24.208,77.929 24.208,73.942C26.037,73.942 28.13,73.942 30.222,73.942C32.194,73.942 34.165,73.942 36.376,73.942C36.703,75.893 36.971,77.482 37.321,79.569C40.02,79.764 42.766,79.962 45.61,80.168C45.963,86.287 46.281,92.178 46.761,98.055C46.773,98.2 48.568,98.198 49.82,98.285C50.441,94.905 49.311,90.747 55.381,91.121C62.243,91.544 58.555,96.85 60.753,100.016C64.308,100.016 68.36,100.016 72.773,100.016C72.937,98.489 73.105,96.923 73.304,95.075C75.889,94.906 78.319,94.746 81.022,94.569C81.172,93.03 81.306,91.661 81.461,90.07C87.528,90.07 93.317,90.07 99.438,90.07C99.689,91.438 99.94,92.803 100.355,95.063C110.147,95.063 120.001,95.063 130.145,95.063C130.433,92.169 130.708,89.406 131.013,86.342C134.15,86.201 137.116,86.068 140.457,85.918C140.457,79.759 140.457,73.711 140.457,66.934C135.933,66.934 131.649,66.698 127.428,67.107C126.427,67.204 124.92,69.435 124.869,70.733C124.609,77.375 124.749,84.032 124.749,91.063C121.775,91.063 119.017,91.063 115.558,91.063C115.299,85.808 115.041,80.572 114.767,75.032C109.537,75.032 104.478,75.032 99.179,75.032C99.179,76.706 99.179,78.28 99.179,80.106C102.254,80.106 105.17,80.106 108.763,80.106C108.563,82.104 108.393,83.8 107.535,85.7C105.908,85.932 104.971,85.96 104.033,85.987M188.923,96.064C188.783,97.302 188.643,98.539 188.494,99.856C191.132,100.32 193.385,100.715 194.273,100.871C196.188,104.546 197.591,107.241 198.995,109.935C199.341,109.81 199.688,109.685 200.034,109.56C200.363,107.181 200.692,104.803 201.049,102.221C205.134,102.01 208.9,101.814 212.612,101.622C213.393,97.888 211.819,96.898 208.631,96.982C202.859,97.134 197.08,97.025 191.387,97.025C190.423,89.62 183.165,86.484 174.439,89.499C173.389,91.231 172.158,92.839 170.541,93.799C165.905,96.553 165.154,98.506 166.908,103.53C168.99,102.276 171.192,100.952 174.111,99.195C174.18,98.672 174.388,97.099 174.633,95.244C179.485,95.244 184.084,95.244 188.923,96.064M102.846,110.318C102.846,107.045 102.846,103.771 102.846,100.203C94.092,100.203 86.309,100.203 78.791,100.203C76.64,109.885 77.714,113.273 82.043,112.55C82.256,110.264 82.469,107.978 82.736,105.116C84.704,105.405 87.195,105.112 87.653,105.942C91.03,112.057 92.074,106.959 93.891,104.69C95.231,104.882 96.672,105.089 98.349,105.329C98.602,107.911 98.84,110.342 99.215,114.16C100.911,112.792 101.875,112.014 102.846,110.318M160.045,90.891C162.399,90.224 164.783,89.644 167.093,88.849C168.123,88.495 169.003,87.708 169.952,87.118C169.05,86.427 168.188,85.21 167.24,85.138C163.778,84.877 160.282,84.876 156.809,85.022C154.956,85.101 153.124,85.682 151.282,86.036C152.105,87.331 153.069,88.561 153.696,89.944C154.082,90.793 154.015,91.874 154.038,92.854C154.084,94.804 154.052,96.755 154.052,98.88C156.209,98.88 157.779,98.88 159.973,98.88C159.973,96.358 159.973,94.075 160.045,90.891M137.846,99.917C141.267,99.917 144.689,99.917 148.171,99.917C148.171,97.925 148.171,96.365 148.171,94.592C144.282,94.592 140.735,94.592 136.833,94.592C136.942,96.439 137.028,97.903 137.846,99.917M179.889,73.844C179.889,75.758 179.889,77.671 179.889,79.775C182.462,79.775 184.507,79.775 186.626,79.775C186.626,77.227 186.626,74.911 186.626,72.128C184.173,72.449 182.14,72.714 179.889,73.844M111.272,35.313C111.272,33.539 111.272,31.766 111.272,29.627C108.96,29.627 107.11,29.627 105.091,29.627C105.091,32.056 105.091,34.243 105.091,37.036C107.301,36.711 109.141,36.441 111.272,35.313M179.989,111.781C179.989,109.393 179.989,107.004 179.989,104.616C179.496,104.298 179.003,103.98 178.51,103.662C177.503,104.861 175.74,106.008 175.653,107.271C175.491,109.617 174.4,113.496 179.989,111.781M188.261,105.026C183.677,103.891 184.685,107.241 184.527,109.671C184.312,112.987 185.944,113.54 188.898,112.496C188.898,110.221 188.898,107.962 188.261,105.026M207.486,87.904C212.03,88.441 210.97,85.576 210.701,82.906C208.734,82.906 207.028,82.906 204.132,82.906C205.164,85.007 205.873,86.452 207.486,87.904M106.048,51.894C107.422,51.894 108.796,51.894 110.405,51.894C110.187,49.984 110.026,48.578 109.884,47.329C106.048,46.417 104.48,47.542 106.048,51.894z"/><path fill="#2d2d2d" d="M49.965,112.906C46.487,112.792 43.49,112.743 40.503,112.55C37.762,112.374 35.031,112.044 32.321,110.704C42.161,110.704 52.002,110.704 61.842,110.704C61.874,111.173 61.906,111.642 61.937,112.111C58.108,112.377 54.279,112.643 49.965,112.906z"/><path fill="#1c1c1b" d="M104.057,86.368C104.971,85.96 105.908,85.932 107.197,85.928C108.222,87.7 108.896,89.448 109.869,91.969C107.225,92.094 105.4,92.18 102.996,92.294C103.427,90.089 103.754,88.419 104.057,86.368z"/><path fill="#eaebeb" d="M188.803,95.654C184.084,95.244 179.485,95.244 174.633,95.244C174.388,97.099 174.18,98.672 174.111,99.195C171.192,100.952 168.99,102.276 166.908,103.53C165.154,98.506 165.905,96.553 170.541,93.799C172.158,92.839 173.389,91.231 174.439,89.499C183.165,86.484 190.423,89.62 191.387,97.025C197.08,97.025 202.859,97.134 208.631,96.982C211.819,96.898 213.393,97.888 212.612,101.622C208.9,101.814 205.134,102.01 201.049,102.221C200.692,104.803 200.363,107.181 200.034,109.56C199.688,109.685 199.341,109.81 198.995,109.935C197.591,107.241 196.188,104.546 194.273,100.871C193.385,100.715 191.132,100.32 188.494,99.856C188.643,98.539 188.783,97.302 188.803,95.654z"/><path fill="#f0f0f1" d="M102.842,110.777C101.875,112.014 100.911,112.792 99.215,114.16C98.84,110.342 98.602,107.911 98.349,105.329C96.672,105.089 95.231,104.882 93.891,104.69C92.074,106.959 91.03,112.057 87.653,105.942C87.195,105.112 84.704,105.405 82.736,105.116C82.469,107.978 82.256,110.264 82.042,112.551C77.714,113.273 76.64,109.885 78.791,100.203C86.309,100.203 94.092,100.203 102.846,100.203C102.846,103.771 102.846,107.045 102.842,110.777z"/><path fill="#ecebec" d="M160.009,91.342C159.973,94.075 159.973,96.358 159.973,98.88C157.779,98.88 156.209,98.88 154.052,98.88C154.052,96.755 154.084,94.804 154.038,92.854C154.015,91.874 154.082,90.793 153.696,89.944C153.069,88.561 152.105,87.331 151.282,86.036C153.124,85.682 154.956,85.101 156.809,85.022C160.282,84.876 163.778,84.877 167.24,85.138C168.188,85.21 169.05,86.427 169.952,87.118C169.003,87.708 168.123,88.495 167.093,88.849C164.783,89.644 162.399,90.224 160.009,91.342z"/><path fill="#e6e7e7" d="M137.48,99.642C137.028,97.903 136.942,96.439 136.833,94.592C140.735,94.592 144.282,94.592 148.171,94.592C148.171,96.365 148.171,97.925 148.171,99.917C144.689,99.917 141.267,99.917 137.48,99.642z"/><path fill="#e8e8e8" d="M179.998,73.412C182.14,72.714 184.173,72.449 186.626,72.128C186.626,74.911 186.626,77.227 186.626,79.775C184.507,79.775 182.462,79.775 179.889,79.775C179.889,77.671 179.889,75.758 179.998,73.412z"/><path fill="#e8e8e8" d="M111.126,35.742C109.141,36.441 107.301,36.711 105.091,37.036C105.091,34.243 105.091,32.056 105.091,29.627C107.11,29.627 108.96,29.627 111.272,29.627C111.272,31.766 111.272,33.539 111.126,35.742z"/><path fill="#e6e6e7" d="M179.695,112.066C174.4,113.496 175.491,109.617 175.653,107.271C175.74,106.008 177.503,104.861 178.51,103.662C179.003,103.98 179.496,104.298 179.989,104.616C179.989,107.004 179.989,109.393 179.695,112.066z"/><path fill="#f2f2f3" d="M188.58,105.365C188.898,107.962 188.898,110.221 188.898,112.496C185.944,113.54 184.312,112.987 184.527,109.671C184.685,107.241 183.677,103.891 188.58,105.365z"/><path fill="#ededed" d="M207.034,87.9C205.873,86.452 205.164,85.007 204.132,82.906C207.028,82.906 208.734,82.906 210.701,82.906C210.97,85.576 212.03,88.441 207.034,87.9z"/><path fill="#dddddd" d="M105.761,51.569C104.48,47.542 106.048,46.417 109.884,47.329C110.026,48.578 110.187,49.984 110.405,51.894C108.796,51.894 107.422,51.894 105.761,51.569z"/></svg>