<svg xmlns="http://www.w3.org/2000/svg" viewBox="0 0 276 104" xml:space="preserve"><path fill="#080808" d="M120.072,98.13C123.379,98.896 126.285,99.588 129.192,100.28C129.069,100.901 128.946,101.522 128.823,102.143C116.862,100.142 104.9,98.14 92.939,96.139C92.781,96.813 92.622,97.488 92.464,98.162C95.417,98.934 98.37,99.706 101.323,100.477C101.247,100.863 101.17,101.248 101.094,101.633C68.585,97.672 36.075,93.712 3.147,89.7C6.165,88.66 9.022,87.675 12.472,86.487C12.472,80.865 12.472,75.092 12.472,69.2C17.227,69.2 21.37,69.2 26.111,69.2C26.375,73.138 26.635,77.031 26.919,81.286C34.575,81.286 42.129,81.286 49.996,81.286C50.249,77.787 50.483,74.534 50.736,71.037C53.928,71.037 56.87,71.037 60.25,71.037C60.494,73.569 60.725,75.978 60.981,78.637C63.752,78.637 66.353,78.637 69.365,78.637C69.365,74.888 69.365,71.183 69.365,67.146C60.87,67.146 52.755,67.146 44.04,67.146C44.04,68.732 43.424,70.8 44.15,72.144C46.781,77.017 43.795,77.061 40.395,77.042C37.099,77.024 33.802,77.038 30.034,77.038C30.034,70.625 30.034,64.74 30.034,58.565C33.944,58.325 37.814,58.087 41.684,57.849C41.778,57.399 41.872,56.948 41.965,56.498C40.511,55.922 39.056,55.346 37.322,54.659C37.322,53.248 37.322,51.654 37.322,49.635C41.597,49.635 45.682,49.635 50.161,49.635C50.548,52.149 50.947,54.742 51.408,57.738C54.743,57.738 58.135,57.738 61.253,57.738C61.552,53.399 61.968,49.121 62.102,44.835C62.196,41.819 63.485,40.593 66.441,41.058C66.766,41.109 67.106,41.065 67.439,41.064C76.992,41.025 79.913,45.092 77.111,54.892C78.08,55.021 79.009,55.207 79.944,55.249C80.75,55.285 81.563,55.156 83.324,55.035C82.503,52.181 81.784,49.679 81.269,47.888C84.728,41.859 88.064,36.045 91.179,30.617C94.553,35.71 98.135,40.989 101.537,46.382C102.093,47.265 102.023,48.662 101.943,49.801C101.789,51.991 101.421,54.166 101.089,56.754C106.722,56.754 111.626,56.754 116.541,56.754C116.612,54.008 116.612,54.008 109.586,52.84C109.173,45.013 109.608,36.915 108.066,29.213C106.831,23.045 108.598,19.39 112.998,15.791C116.076,13.272 118.705,10.202 121.943,6.97C127.262,11.908 132.594,16.858 137.433,21.35C137.433,27.171 137.433,32.381 137.433,37.978C140.578,37.978 143.507,37.978 146.895,37.978C147.03,35.983 147.183,33.727 147.377,30.861C151.218,30.861 155.055,30.861 159.532,30.861C159.532,37.929 159.532,45.192 159.532,52.775C161.512,52.775 162.873,52.775 164.891,52.775C164.891,50.067 165.139,47.415 164.834,44.827C164.341,40.638 166.365,39.618 170.05,39.774C174.183,39.95 178.329,39.815 182.779,39.815C183.598,45.315 184.351,50.368 185.156,55.777C186.979,55.777 189.057,55.777 191.454,55.777C191.705,54.151 191.975,52.413 192.296,50.337C196.766,50.337 201.188,50.337 205.949,50.337C206.289,54.332 206.635,58.393 207.008,62.759C209.451,62.759 211.564,62.759 212.935,62.759C216.636,65.193 212.054,71.723 218.971,72.218C218.971,68.035 218.971,64.434 218.971,60.545C216.249,60.251 213.623,59.967 210.996,59.683C210.999,59.051 211.002,58.419 211.006,57.788C217.57,56.309 224.327,57.106 231.706,56.774C231.706,62.36 231.706,67.46 231.706,72.818C233.778,72.818 235.18,72.818 236.939,72.818C237.04,70.68 237.139,68.59 237.263,65.952C242.2,65.952 246.927,65.952 252.106,65.952C252.349,68.905 252.615,72.141 252.897,75.581C255.497,75.805 257.773,76.001 260.647,76.249C260.647,79.744 260.647,83.163 260.647,86.653C265.65,87.993 270.107,89.187 274.564,90.382C274.572,90.882 274.58,91.383 274.588,91.884C257.387,92.684 240.185,93.484 221.928,94.333C225.193,95.528 227.545,96.389 229.898,97.251C229.854,97.661 229.81,98.072 229.766,98.483C227.349,98.483 224.821,98.95 222.535,98.404C211.144,95.684 199.74,93.871 188.038,96.148C186.592,96.43 185.127,96.611 183.552,97.687C190.205,99.195 196.858,100.702 203.511,102.209C203.426,102.821 203.341,103.432 203.256,104.044C183.552,102.279 163.849,100.514 144.145,98.748C144.169,98.181 144.193,97.613 144.217,97.045C151.602,96.337 158.987,95.63 166.904,94.871C157.087,91.743 122.92,92.165 112.776,95.552C115.388,96.501 117.53,97.279 120.072,98.13M72.299,88.758C69.971,89.035 67.642,89.311 64.331,89.703C84.882,95.834 104.232,94.523 123.579,90.228C106.924,85.705 90.029,88.089 72.299,88.758M113.018,83.373C116.406,84.078 119.793,84.784 123.648,85.586C123.648,80.188 123.648,75.808 123.648,70.677C117.546,71.09 111.72,71.485 105.994,71.873C105.994,75.553 105.994,78.588 105.994,81.37C108.54,81.834 110.612,82.211 113.018,83.373M144.265,56.871C140.531,56.871 136.797,56.871 133.194,56.871C133.194,61.606 133.194,65.654 133.194,69.807C135.901,69.807 138.184,69.807 139.031,69.807C141.714,67.201 143.564,65.404 146.181,62.862C145.987,61.697 145.594,59.349 144.265,56.871M99.049,68.749C100.699,68.25 102.349,67.752 103.979,67.26C103.979,65.549 103.979,63.924 103.979,62.08C98.549,63.413 93.349,64.69 88.306,65.929C88.306,68.738 88.306,71.653 88.306,74.76C91.926,74.76 95.162,74.76 98.889,74.76C98.889,72.868 98.889,71.252 99.049,68.749M165.644,80.141C167.291,75.31 170.62,78.497 173.206,78.134C174.222,83.067 174.222,83.067 177.851,82.123C177.851,79.154 177.851,76.249 177.851,73.292C173.491,73.292 169.511,73.292 165.531,73.292C165.636,73.5 165.741,73.708 165.846,73.916C162.937,74.902 160.028,75.887 157.153,76.862C157.153,78.435 157.153,80.168 157.153,82.662C160.168,82.049 162.765,81.52 165.644,80.141M187.682,78.978C186.72,79.758 185.039,80.447 184.929,81.332C184.573,84.183 184.796,87.105 184.796,89.783C188.45,89.783 191.496,89.783 193.627,89.783C195.634,85.931 197.248,82.835 199.283,78.929C194.862,78.929 191.754,78.929 187.682,78.978M211.233,80.404C211.493,81.782 211.753,83.16 211.864,83.75C217.616,83.246 222.71,82.8 228.2,82.32C228.2,80.769 228.2,79.12 228.2,77.331C223.294,77.331 218.816,77.187 214.359,77.434C213.281,77.494 212.274,78.842 211.233,80.404M133.103,77.584C132.581,80.994 133.917,82.444 137.459,82.111C138.573,82.006 139.863,82.655 140.912,83.244C142.446,84.107 143.836,85.227 146.226,86.891C146.226,82.075 146.226,79.185 146.226,75.628C141.669,76.006 137.479,76.355 133.103,77.584M165.615,70.419C166.154,67.143 166.694,63.866 167.259,60.435C161.76,60.435 157.42,60.435 152.767,60.435C152.918,62.255 153.034,63.653 153.143,64.961C156.148,65.231 158.761,65.466 160.039,65.581C162.14,67.719 163.423,69.025 165.615,70.419M197.183,66.823C197.065,68.382 196.946,69.94 196.832,71.435C201.136,71.435 204.855,71.435 208.953,71.435C208.727,69.378 208.557,67.824 208.392,66.316C204.577,66.316 201.259,66.316 197.183,66.823M183.338,62.062C182.016,62.061 180.686,62.157 179.374,62.041C175.414,61.689 174.936,63.566 176.135,66.808C180.17,66.808 184.048,66.808 187.805,66.808C188.533,63.523 187.881,61.578 183.338,62.062M240.746,79.269C239.342,80.097 237.938,80.924 236.535,81.752C237.964,82.383 239.343,83.337 240.834,83.566C242.879,83.88 245.008,83.644 247.122,83.644C248.103,77.782 244.052,79.647 240.746,79.269M140.029,49.013C140.732,47.634 141.436,46.255 142.437,44.293C138.465,44.293 135.908,44.293 133.122,44.293C133.122,45.894 133.122,47.262 133.122,49.044C135.289,49.044 137.216,49.044 140.029,49.013M119.542,25.204C117.727,24.995 115.912,24.786 113.776,24.539C113.936,27.07 114.046,28.819 114.159,30.614C116.105,30.614 117.667,30.614 119.458,30.614C119.568,28.905 119.661,27.447 119.542,25.204M125.511,28.295C126.986,29.361 128.46,30.427 130.862,32.163C130.862,28.47 130.862,26.637 130.862,24.41C128.55,25.185 125.143,22.872 125.511,28.295M73.982,78.576C75.891,79.264 77.8,79.952 79.709,80.64C80.113,79.955 80.518,79.271 80.923,78.587C79.266,77.08 77.61,75.573 75.953,74.067C75.297,75.275 74.64,76.484 73.982,78.576z"/><path fill="#f1f1f1" d="M72.748,88.723C90.029,88.089 106.924,85.705 123.579,90.228C104.232,94.523 84.882,95.834 64.331,89.703C67.642,89.311 69.971,89.035 72.748,88.723z"/><path fill="#e6e6e6" d="M112.851,82.981C110.612,82.211 108.54,81.834 105.994,81.37C105.994,78.588 105.994,75.553 105.994,71.873C111.72,71.485 117.546,71.09 123.648,70.677C123.648,75.808 123.648,80.188 123.648,85.586C119.793,84.784 116.406,84.078 112.851,82.981z"/><path fill="#fafafa" d="M144.733,56.936C145.594,59.349 145.987,61.697 146.181,62.862C143.564,65.404 141.714,67.201 139.031,69.807C138.184,69.807 135.901,69.807 133.194,69.807C133.194,65.654 133.194,61.606 133.194,56.871C136.797,56.871 140.531,56.871 144.733,56.936z"/><path fill="#f5f5f5" d="M98.969,69.193C98.889,71.252 98.889,72.868 98.889,74.76C95.162,74.76 91.926,74.76 88.306,74.76C88.306,71.653 88.306,68.738 88.306,65.929C93.349,64.69 98.549,63.413 103.979,62.08C103.979,63.924 103.979,65.549 103.979,67.26C102.349,67.752 100.699,68.25 98.969,69.193z"/><path fill="#f0f0f0" d="M165.503,80.566C162.765,81.52 160.168,82.049 157.153,82.662C157.153,80.168 157.153,78.435 157.153,76.862C160.028,75.887 162.937,74.902 165.846,73.916C165.741,73.708 165.636,73.5 165.531,73.292C169.511,73.292 173.491,73.292 177.851,73.292C177.851,76.249 177.851,79.154 177.851,82.123C174.222,83.067 174.222,83.067 173.206,78.134C170.62,78.497 167.291,75.31 165.503,80.566z"/><path fill="#f8f8f8" d="M188.164,78.954C191.754,78.929 194.862,78.929 199.283,78.929C197.248,82.835 195.634,85.931 193.627,89.783C191.496,89.783 188.45,89.783 184.796,89.783C184.796,87.105 184.573,84.183 184.929,81.332C185.039,80.447 186.72,79.758 188.164,78.954z"/><path fill="#d5d5d6" d="M211.234,80.001C212.274,78.842 213.281,77.494 214.359,77.434C218.816,77.187 223.294,77.331 228.2,77.331C228.2,79.12 228.2,80.769 228.2,82.32C222.71,82.8 217.616,83.246 211.864,83.75C211.753,83.16 211.493,81.782 211.234,80.001z"/><path fill="#ebebeb" d="M133.196,77.144C137.479,76.355 141.669,76.006 146.226,75.628C146.226,79.185 146.226,82.075 146.226,86.891C143.836,85.227 142.446,84.107 140.912,83.244C139.863,82.655 138.573,82.006 137.459,82.111C133.917,82.444 132.581,80.994 133.196,77.144z"/><path fill="#eceded" d="M165.16,70.375C163.423,69.025 162.14,67.719 160.039,65.581C158.761,65.466 156.148,65.231 153.143,64.961C153.034,63.653 152.918,62.255 152.767,60.435C157.42,60.435 161.76,60.435 167.259,60.435C166.694,63.866 166.154,67.143 165.16,70.375z"/><path fill="#dfdfdf" d="M197.562,66.57C201.259,66.316 204.577,66.316 208.392,66.316C208.557,67.824 208.727,69.378 208.953,71.435C204.855,71.435 201.136,71.435 196.832,71.435C196.946,69.94 197.065,68.382 197.562,66.57z"/><path fill="#f1f1f1" d="M183.804,62.065C187.881,61.578 188.533,63.523 187.805,66.808C184.048,66.808 180.17,66.808 176.135,66.808C174.936,63.566 175.414,61.689 179.374,62.041C180.686,62.157 182.016,62.061 183.804,62.065z"/><path fill="#c8c8c9" d="M241.16,79.268C244.052,79.647 248.103,77.782 247.122,83.644C245.008,83.644 242.879,83.88 240.834,83.566C239.343,83.337 237.964,82.383 236.535,81.752C237.938,80.924 239.342,80.097 241.16,79.268z"/><path fill="#e8e8e8" d="M139.586,49.028C137.216,49.044 135.289,49.044 133.122,49.044C133.122,47.262 133.122,45.894 133.122,44.293C135.908,44.293 138.465,44.293 142.437,44.293C141.436,46.255 140.732,47.634 139.586,49.028z"/><path fill="#e3e3e4" d="M119.648,25.597C119.661,27.447 119.568,28.905 119.458,30.614C117.667,30.614 116.105,30.614 114.159,30.614C114.046,28.819 113.936,27.07 113.776,24.539C115.912,24.786 117.727,24.995 119.648,25.597z"/><path fill="#e2e1e2" d="M125.481,27.905C125.143,22.872 128.55,25.185 130.862,24.41C130.862,26.637 130.862,28.47 130.862,32.163C128.46,30.427 126.986,29.361 125.481,27.905z"/><path fill="#ededec" d="M73.983,78.134C74.64,76.484 75.297,75.275 75.953,74.067C77.61,75.573 79.266,77.08 80.923,78.587C80.518,79.271 80.113,79.955 79.709,80.64C77.8,79.952 75.891,79.264 73.983,78.134z"/></svg>