<svg xmlns="http://www.w3.org/2000/svg" viewBox="0 0 223 215" xml:space="preserve"><path fill="#0d0d0d" d="M60.618,199.626C62.444,198.098 64.27,196.57 66.385,194.801C60.654,193.164 56.211,193.345 51.747,197.201C49.61,199.046 45.589,198.711 42.956,199.253C46.528,195.309 50.134,191.105 54.023,187.18C55.087,186.106 57.046,185.247 58.512,185.36C64.695,185.835 69.028,182.981 72.669,178.17C70.328,178.339 68.073,178.501 65.051,178.719C65.873,177.167 66.377,176.217 66.88,175.268C66.65,174.914 66.419,174.56 66.189,174.207C64.638,175.232 61.954,176.065 61.742,177.317C61.018,181.594 57.875,182.4 54.711,183.258C47.416,185.235 40.075,187.04 32.752,188.916C32.587,188.484 32.421,188.052 32.256,187.621C34.526,186.33 36.795,185.04 40.315,183.039C29.88,183.039 20.948,183.039 12.015,183.039C11.93,182.704 11.845,182.37 11.759,182.035C15.289,180.695 18.856,179.441 22.324,177.956C23.269,177.551 24.081,176.557 24.671,175.649C27.633,171.098 31.067,168.241 37.033,170.457C41.029,171.94 43.628,169.476 45.458,166.148C45.768,165.586 45.766,164.861 45.991,164.242C49.426,154.75 51.355,153.51 61.59,154.058C62.727,154.119 64.535,154.352 64.918,153.77C68.05,149.022 72.107,149.451 77.22,149.795C83.473,150.215 85.595,144.053 87.69,139.214C89.485,135.067 89.819,130.948 85.673,127.474C82.396,124.728 79.924,121.256 81.219,116.569C82.562,111.706 80.845,108.134 76.848,105.523C73.9,103.597 72.944,101.093 72.977,97.573C73.05,89.698 70.52,87.223 62.758,86.978C59.723,86.882 57.525,83.428 53.563,86.019C49.969,88.369 47.544,90.3 48.026,94.838C48.167,96.172 47.487,97.592 46.292,98.975C45.822,97.18 45.351,95.384 44.983,93.983C41.852,94.636 38.87,95.257 35.132,96.037C34.71,99.961 34.221,104.512 33.422,109.483C32.777,109.93 32.441,109.956 32.106,109.982C31.837,105.574 31.671,101.157 31.231,96.766C31.111,95.565 30.413,93.763 29.543,93.45C28.239,92.981 26.424,93.264 25.054,93.804C22.861,94.669 20.854,96.007 18.385,97.073C18,97 18.004,97.006 18.004,97.006C20.378,94.765 22.58,92.285 25.208,90.397C26.283,89.624 28.374,89.747 29.837,90.117C38.97,92.425 39.757,92.01 44.767,84.636C46.275,82.418 49.017,81.04 51.602,78.946C50.709,77.897 49.736,76.605 48.61,75.465C46.417,73.243 45.149,71.14 46.633,67.701C48.046,64.428 47.415,61.402 42.826,60.947C41.966,60.861 41.18,60.024 40.278,59.485C42.546,58.935 44.631,58.429 47.037,57.845C47.353,61.404 52.894,64.138 50.149,69.402C49.933,69.816 50.957,71.119 51.652,71.727C56.484,75.96 61.731,78.621 68.492,76.67C72.294,75.572 80.184,80.535 80.83,84.35C81.744,89.748 84.716,93.327 90.04,95.8C91.318,93.916 92.539,91.995 93.89,90.17C94.845,88.879 95.765,87.392 97.063,86.55C105.494,81.081 105.13,68.623 96.861,63.232C93.365,60.953 91.115,56.763 87.618,52.639C85.245,54.451 82.543,56.515 79.999,58.459C79.476,53.382 75.755,55.335 72.284,55.164C77.831,53.062 83.377,50.96 89.037,48.815C89.037,45.919 89.171,43.095 89.003,40.289C88.796,36.852 84.573,33.458 81.82,35.13C73.628,40.105 66.225,35.844 58.627,33.895C57.516,33.61 56.086,31.917 55.989,30.776C55.458,24.503 52.488,20.769 44.99,20.582C51.642,17.545 55.984,19.351 57.543,25.122C58.36,28.147 59.818,29.444 63.034,30.386C67.987,31.836 72.501,32.707 77.703,30.119C79.38,30.682 80.484,31.048 82.016,31.556C82.016,29.736 82.016,28.481 82.016,27.225C87.399,24.732 97.268,30.486 96.857,36.318C96.192,45.74 99.582,52.021 108.283,56.25C112,58.056 113.577,57.33 115.593,54.685C117.682,51.946 128.178,44.655 131.935,43.684C138.307,42.036 141.99,32.169 138.561,27.194C137.739,26.002 137.982,24.101 137.636,22.548C137.329,21.164 136.885,19.81 136.42,18.153C137.201,17.688 138.367,16.993 139.695,16.202C140.528,20.1 141.377,24.071 142.113,27.512C146.339,26.599 149.755,26.22 152.877,25.055C154.807,24.335 157.823,22.292 157.721,21.061C157.143,14.082 163.241,13.804 167.266,11.347C166.551,12.304 166.029,13.567 165.086,14.163C161.818,16.227 160.632,18.547 161.029,22.778C161.2,24.595 157.075,27.827 154.349,28.71C146.582,31.226 145.671,31.943 145.724,40.438C145.745,43.765 140.53,49.216 136.264,50.455C134.2,51.054 132.044,51.593 130.207,52.644C128.7,53.506 126.975,54.869 126.452,56.39C125.317,59.689 124.463,63.21 124.294,66.679C124.133,70.006 124.982,73.382 125.343,76.377C128.269,76.625 130.597,76.475 132.717,77.069C138.288,78.63 142.555,76.832 145.243,71.401C148.252,65.325 151.12,64.024 157.619,64.977C161.547,65.553 165.856,65.895 168.737,62.384C170.235,60.557 170.983,58.032 171.753,55.717C172.359,53.896 172.479,51.913 172.815,50.002C173.391,50.054 173.967,50.105 174.543,50.157C174.439,51.928 174.237,53.7 174.255,55.471C174.276,57.634 175.138,60.049 174.429,61.89C173.659,63.887 171.5,65.348 169.984,67.003C175.996,74.678 181.886,75.407 189.511,69.992C190.929,68.984 193.064,68.857 194.907,68.609C196.956,68.333 199.05,68.383 200.12,68.336C202.74,70.855 205.077,73.1 207.904,75.818C206.362,75.567 204.131,75.861 202.903,74.888C198.202,71.167 194.667,71.013 189.819,74.716C188.156,75.986 186.171,76.836 184.196,77.955C183.738,82.48 183.259,87.212 182.78,91.944C182.36,91.993 181.94,92.042 181.52,92.091C181.006,87.765 180.491,83.44 179.872,78.235C177.07,78.561 174.656,78.842 172.206,79.127C171.169,71.48 160.547,71.475 155.391,75.076C154.358,75.798 154.034,77.935 153.897,79.466C153.425,84.759 153.206,90.074 152.822,95.376C152.765,96.162 152.338,96.922 151.357,97.788C150.735,93.097 150.113,88.406 149.427,83.231C148.66,84.234 148.073,85.095 147.393,85.876C144.61,89.071 141.943,91.414 136.841,90.088C130.867,88.535 127.378,91.373 125.033,97.11C123.638,100.521 121.114,103.501 119.927,106.959C118.39,111.434 122.481,120.881 126.619,122.941C131.944,125.592 134.381,129.772 134.901,135.567C135.646,143.878 142.152,148.532 150.252,146.26C155.303,144.844 159.977,143.918 163.99,148.161C165.561,149.821 167.339,151.707 167.929,153.798C169.886,160.738 173.091,162.935 179.838,161.205C186.915,159.391 186.805,159.454 190.424,165.853C191.91,168.48 193.988,170.772 196.539,172.437C196.757,174.024 196.502,175.992 197.364,177.058C197.904,177.726 200.122,177.039 201.116,177.634C204.268,179.393 207.421,181.153 210.574,182.912C210.555,183.276 210.536,183.64 210.517,184.004C207.305,183.697 204.089,183.114 200.882,183.161C197.634,183.208 194.394,183.879 191.151,184.277C191.117,184.69 191.083,185.102 191.049,185.515C194.043,187.076 197.036,188.638 200.029,190.199C193.235,190.037 186.238,191.159 180.714,185.848C180.063,185.222 178.931,184.836 178.005,184.804C174.48,184.685 170.948,184.756 166.716,184.756C171.298,190.826 176.203,195.527 183.337,197.631C172.499,198.251 162.527,196.249 153.342,190.932C152.214,194.278 152.214,194.278 157.026,199.673C153.161,198.108 149.209,200.961 146.549,196.619C146.286,196.189 141.851,198.317 139.352,199.257C139.038,200.038 138.724,200.818 138.41,201.599C140.934,202.853 143.458,204.107 145.982,205.361C145.419,206.119 144.856,206.877 144.293,207.635C141.645,206.44 138.708,205.638 136.412,203.961C132.564,201.149 129.958,201.388 127.005,205.136C125.883,206.559 123.931,207.329 121.638,208.884C125.067,199.348 133.944,196.206 138.096,188.209C136.689,187.165 135.321,185.48 133.617,185.004C127.124,183.193 127.083,183.339 129.988,176.895C128.839,177.134 127.92,177.259 127.044,177.526C126.128,177.806 125.253,178.222 123.857,178.78C123.145,177.113 122.459,175.504 121.678,173.676C120.814,174.665 119.928,175.681 119.159,176.562C119.985,178.1 120.742,179.508 121.499,180.916C121.097,181.269 120.695,181.622 120.293,181.975C121.466,182.079 122.64,182.184 123.814,182.288C123.518,182.621 123.223,182.954 122.927,183.287C124.532,185.664 126.136,188.041 127.266,189.713C123.273,191.778 118.641,193.183 115.38,196.114C111.429,199.664 106.98,200.246 102.306,201.159C101.141,201.387 97.386,200.497 99.629,204.25C99.675,204.327 97.874,206.012 96.836,206.139C93.648,206.526 90.412,206.521 86.475,206.701C88.894,204.042 91.004,201.723 93.473,199.603C94.039,200.692 94.246,201.582 94.453,202.472C94.945,202.586 95.438,202.701 95.93,202.815C96.955,200.117 97.979,197.419 99.004,194.721C101.163,193.505 103.321,192.289 105.48,191.073C105.23,190.554 104.98,190.035 104.73,189.516C102.254,189.935 99.778,190.354 95.928,191.005C98.077,188.518 99.517,186.851 101.835,184.167C98.641,184.542 96.456,184.798 93.898,185.098C93.898,184.126 93.898,183.198 93.898,181.79C92.485,182.991 91.525,183.805 89.896,184.816C88.392,186.38 87.74,187.914 86.683,189.082C84.495,191.497 82.092,193.718 79.613,196.116C79.245,196.379 79.099,196.585 79.011,196.832C77.124,197.634 75.236,198.437 73.348,199.239C72.919,198.637 72.489,198.034 72.06,197.432C73.019,196.943 73.978,196.454 75.393,195.569C76.002,194.833 76.157,194.493 76.312,194.154C75.713,194.241 75.114,194.328 74.516,194.416C70.391,196.388 66.266,198.36 61.583,200.181C60.889,199.896 60.753,199.761 60.618,199.626M105.817,60.028C106.095,60.193 106.395,60.279 106.835,60.668C106.835,60.668 106.989,61.035 107.283,61.471C107.595,61.616 107.906,61.761 108.599,61.883C108.599,61.883 108.98,61.923 109.307,62.521C110.981,63.568 112.656,64.615 114.33,65.662C114.685,64.927 115.04,64.192 115.395,63.457C113.446,62.639 111.497,61.821 109.34,60.213C108.648,59.792 107.956,59.371 107.092,58.723C106.951,58.576 106.778,58.503 106.022,58.037C105.378,58.224 104.733,58.41 104.089,58.597C104.556,58.961 105.023,59.324 105.817,60.028M107.067,122.777C105.401,122.716 103.735,122.655 101.635,121.984C101.874,119.769 102.113,117.554 102.504,115.409C102.504,115.409 102.645,115.503 102.324,116.174C103.101,117.196 103.878,118.218 104.656,119.24C105.107,118.793 105.558,118.347 106.672,117.994C108.157,118.85 109.642,119.706 111.126,120.561C105.103,115.689 103.852,109.286 105.143,101.91C104.683,101.92 104.223,101.931 103.763,101.941C102.579,105.856 101.395,109.771 100.015,114.516C99.646,116.257 99.63,118.185 98.83,119.699C97.358,122.486 98.295,123.975 101.243,125.599C102.476,126.543 103.71,127.486 105.087,128.988C105.718,129.324 106.349,129.66 107,130.765C111.591,141.874 111.076,144.368 102.481,153.048C99.24,156.32 96.039,159.632 92.057,162.983C91.1,163.261 90.155,163.597 89.184,163.809C81.331,165.522 77.001,169.977 76.086,177.597C75.994,178.356 77.019,179.25 77.742,180.438C79,178.065 80.53,176.349 80.778,174.464C81.281,170.641 85.779,165.642 88.949,166.82C92.651,168.195 94.872,166.757 97.832,164.201C100.237,161.937 102.641,159.673 104.852,158.178C100.161,167.436 100.161,167.436 101.85,172.046C101.357,162.122 112.234,159.355 115.092,151.574C111.555,153.648 108.257,155.582 104.991,156.745C105.766,155.792 106.374,154.594 107.346,153.929C111.755,150.912 113.126,146.623 112.899,141.57C112.814,139.677 112.749,137.783 113.408,135.943C114.144,135.567 114.881,135.191 115.618,134.815C114.503,134.209 113.387,133.603 112.059,132.361C111.717,131.547 111.376,130.734 111.025,129.265C110.391,128.181 109.757,127.098 108.86,125.359C108.254,124.723 107.647,124.088 107.067,122.777M93.551,100.504C90.585,99.081 87.619,97.658 84.652,96.235C84.418,96.668 84.183,97.101 83.948,97.535C86.678,99.696 89.409,101.858 91.991,104.81C92.256,108.466 94.283,107.733 95.571,105.817C96.731,104.089 96.896,101.692 97.878,98.279C95.699,99.836 94.842,100.447 93.551,100.504M102.703,94.736C105.055,93.003 107.613,91.484 109.691,89.47C111.311,87.9 112.335,85.715 113.624,83.804C113.352,83.726 113.08,83.649 112.808,83.571C108.073,86.995 103.338,90.419 98.051,94.489C98.451,95.935 98.851,97.381 99.251,98.827C100.2,97.563 101.149,96.299 102.703,94.736M171.014,173.606C171.242,173.607 171.471,173.609 171.699,173.61C171.551,173.316 171.404,173.022 171.097,172.054C167.741,167.521 164.415,162.966 161.018,158.464C159.268,156.144 157.259,155.097 154.183,156.505C151.327,157.811 148.18,158.483 146.02,159.163C147.704,161.972 149.229,164.673 150.925,167.264C151.557,168.23 152.904,169.807 153.387,169.631C159.991,167.22 165.061,172.078 171.014,173.606M176.859,170.304C178.515,175.704 183.22,174.622 186.911,175.138C190.678,171.248 188.277,168.431 185.25,166.018C183.882,164.928 177.084,167.994 176.859,170.304M58.596,163.402C54.388,164.607 52.752,167.806 51.124,172.694C56.758,169.978 61.232,167.82 66.442,165.308C63.445,164.628 61.362,164.156 58.596,163.402M85.355,153.992C80.276,153.238 75.182,151.996 70.164,153.229C70.177,153.735 70.189,154.24 70.202,154.746C75.382,154.746 80.562,154.746 85.355,153.992M108.69,182.512C109.025,181.972 109.361,181.432 109.697,180.891C109.425,180.758 109.153,180.625 108.882,180.492C108.678,181.021 108.475,181.55 108.69,182.512M106.709,176.558C106.989,176.29 107.269,176.023 107.55,175.755C107.439,175.639 107.328,175.523 107.217,175.406C106.937,175.674 106.656,175.942 106.709,176.558M103.403,174.197C103.79,174.201 104.177,174.206 104.564,174.21C104.566,174.049 104.578,173.749 104.568,173.748C104.182,173.718 103.795,173.716 103.403,174.197M68.973,174.497C68.695,173.969 68.417,173.441 68.139,172.913C67.603,173.564 67.066,174.214 66.53,174.865C67.057,174.929 67.585,174.993 68.973,174.497M105.925,178.531C105.405,178.357 104.885,178.183 104.365,178.009C104.291,178.239 104.218,178.47 104.144,178.7C104.744,178.875 105.343,179.049 105.925,178.531M82.534,98.564C82.475,98.804 82.417,99.044 82.358,99.284C82.507,99.129 82.657,98.975 82.534,98.564M102.726,196.176C102.617,196.023 102.508,195.87 102.398,195.717C102.42,195.93 102.441,196.143 102.726,196.176M87.387,104.526C87.155,104.467 86.922,104.408 86.69,104.349C86.84,104.495 86.989,104.641 87.387,104.526M87.831,107.251C87.885,107.412 87.938,107.574 87.992,107.735C88.044,107.572 88.097,107.409 87.831,107.251M105.73,195.178C105.62,195.026 105.509,194.874 105.399,194.722C105.421,194.933 105.443,195.144 105.73,195.178M78.515,32.37C78.515,32.37 78.409,32.552 78.409,32.552C78.409,32.552 78.625,32.527 78.515,32.37M119.418,149.484C119.418,149.484 119.522,149.423 119.418,149.484M84.614,101.514C84.614,101.514 84.476,101.603 84.614,101.514z"/><path fill="#d4d6d6" d="M79.777,196.019C82.092,193.718 84.495,191.497 86.683,189.082C87.74,187.914 88.392,186.38 89.624,185.031C89.951,188.428 90.085,191.827 89.749,195.179C89.455,198.11 83.542,199.388 80.202,196.893C79.929,196.461 79.777,196.019 79.777,196.019z"/><path fill="#1b1c1c" d="M24.435,193.277C28.73,189.101 33.512,189.686 38.478,191.267C33.591,191.395 29.621,196.154 24.435,193.277z"/><path fill="#2b2b2b" d="M32.076,110.422C32.441,109.956 32.777,109.93 33.365,109.924C33.617,114.744 33.617,119.545 33.617,124.345C33.093,124.342 32.569,124.34 32.045,124.337C32.045,119.845 32.045,115.354 32.076,110.422z"/><path fill="#19191a" d="M98.979,194.713C97.979,197.419 96.955,200.117 95.93,202.815C95.438,202.701 94.945,202.586 94.453,202.472C94.246,201.582 94.039,200.692 93.779,199.387C94.471,198.093 95.217,197.212 96.88,196C98.164,195.347 98.533,195.027 98.902,194.707C98.902,194.707 98.954,194.704 98.979,194.713z"/><path fill="#191919" d="M81.707,27.256C82.016,28.481 82.016,29.736 82.016,31.556C80.484,31.048 79.38,30.682 78.086,30.028C79.063,28.923 80.23,28.105 81.707,27.256z"/><path fill="#0d0d0d" d="M98.745,194.448C98.533,195.027 98.164,195.347 97.091,195.872C97.12,195.447 97.855,194.818 98.745,194.448z"/><path fill="#0d0d0d" d="M61.224,200.237C61.049,200.556 60.675,200.667 60.301,200.779C60.264,200.516 60.227,200.254 60.404,199.809C60.753,199.761 60.889,199.896 61.224,200.237z"/><path fill="#0d0d0d" d="M18,97C17.817,97.195 17.635,97.39 17.452,97.585C17.498,97.313 17.543,97.041 17.797,96.888C18.004,97.006 18,97 18,97z"/><path fill="#0d0d0d" d="M79.613,196.116C79.777,196.019 79.929,196.461 79.892,196.692C79.855,196.923 79.424,196.963 79.218,196.897C79.099,196.585 79.245,196.379 79.613,196.116z"/><path fill="#f1f1f1" d="M170.899,173.105C165.061,172.078 159.991,167.22 153.387,169.631C152.904,169.807 151.557,168.23 150.925,167.264C149.229,164.673 147.704,161.972 146.02,159.163C148.18,158.483 151.327,157.811 154.183,156.505C157.259,155.097 159.268,156.144 161.018,158.464C164.415,162.966 167.741,167.521 171.088,172.486C171.079,172.917 170.899,173.105 170.899,173.105z"/><path fill="#e9eaea" d="M111.034,129.921C111.376,130.734 111.717,131.547 112.147,132.999C112.381,134.389 112.528,135.139 112.675,135.89C112.749,137.783 112.814,139.677 112.899,141.57C113.126,146.623 111.755,150.912 107.346,153.929C106.374,154.594 105.766,155.792 105.005,157.112C105.02,157.479 105.046,157.409 105.046,157.409C102.641,159.673 100.237,161.937 97.448,163.994C95.649,163.499 94.234,163.212 92.82,162.925C96.039,159.632 99.24,156.32 102.481,153.048C111.076,144.368 111.591,141.874 107.397,130.346C108.874,129.925 109.954,129.923 111.034,129.921z"/><path fill="#dddede" d="M92.438,162.954C94.234,163.212 95.649,163.499 97.107,164.105C94.872,166.757 92.651,168.195 88.949,166.82C85.779,165.642 81.281,170.641 80.778,174.464C80.53,176.349 79,178.065 77.742,180.438C77.019,179.25 75.994,178.356 76.086,177.597C77.001,169.977 81.331,165.522 89.184,163.809C90.155,163.597 91.1,163.261 92.438,162.954z"/><path fill="#ededed" d="M176.609,170.016C177.084,167.994 183.882,164.928 185.25,166.018C188.277,168.431 190.678,171.248 186.911,175.138C183.22,174.622 178.515,175.704 176.609,170.016z"/><path fill="#bebfbf" d="M100.211,113.687C101.395,109.771 102.579,105.856 103.763,101.941C104.223,101.931 104.683,101.92 105.143,101.91C103.852,109.286 105.103,115.689 111.126,120.561C109.642,119.706 108.157,118.85 106.123,117.718C104.598,116.796 103.621,116.149 102.645,115.503C102.645,115.503 102.504,115.409 102.35,115.102C101.533,114.426 100.872,114.056 100.211,113.687z"/><path fill="#d9dada" d="M104.949,157.794C105.046,157.409 105.02,157.479 104.989,157.498C108.257,155.582 111.555,153.648 115.092,151.574C112.234,159.355 101.357,162.122 101.85,172.046C100.161,167.436 100.161,167.436 104.949,157.794z"/><path fill="#e4e5e5" d="M58.937,163.542C61.362,164.156 63.445,164.628 66.442,165.308C61.232,167.82 56.758,169.978 51.124,172.694C52.752,167.806 54.388,164.607 58.937,163.542z"/><path fill="#e4e4e5" d="M98.602,93.843C103.338,90.419 108.073,86.995 112.808,83.571C113.08,83.649 113.352,83.726 113.624,83.804C112.335,85.715 111.311,87.9 109.691,89.47C107.613,91.484 105.055,93.003 102.032,94.837C100.441,94.573 99.521,94.208 98.602,93.843z"/><path fill="#bbbdbc" d="M85.549,154.369C80.562,154.746 75.382,154.746 70.202,154.746C70.189,154.24 70.177,153.735 70.164,153.229C75.182,151.996 80.276,153.238 85.549,154.369z"/><path fill="#cacccc" d="M92.139,104.02C89.409,101.858 86.678,99.696 83.948,97.535C84.183,97.101 84.418,96.668 84.652,96.235C87.619,97.658 90.585,99.081 93.784,101.121C93.391,102.498 92.765,103.259 92.139,104.02z"/><path fill="#363538" d="M100.113,114.101C100.872,114.056 101.533,114.426 102.273,115.067C102.113,117.554 101.874,119.769 101.758,122.633C101.539,123.868 101.197,124.453 100.855,125.039C98.295,123.975 97.358,122.486 98.83,119.699C99.63,118.185 99.646,116.257 100.113,114.101z"/><path fill="#313132" d="M111.03,129.593C109.954,129.923 108.874,129.925 107.387,129.961C106.349,129.66 105.718,129.324 105.213,128.332C105.613,126.46 105.887,125.245 106.208,124.321C107.21,125.079 108.166,125.547 109.123,126.014C109.757,127.098 110.391,128.181 111.03,129.593z"/><path fill="#e4e4e5" d="M92.065,104.415C92.765,103.259 93.391,102.498 94.002,101.398C94.842,100.447 95.699,99.836 97.878,98.279C96.896,101.692 96.731,104.089 95.571,105.817C94.283,107.733 92.256,108.466 92.065,104.415z"/><path fill="#515252" d="M106.162,124.029C105.887,125.245 105.613,126.46 105.141,128.053C103.71,127.486 102.476,126.543 101.049,125.319C101.197,124.453 101.539,123.868 101.974,122.938C103.735,122.655 105.401,122.716 106.867,123.308C106.498,123.903 106.33,123.966 106.162,124.029z"/><path fill="#1b1c1c" d="M109.547,61.004C111.497,61.821 113.446,62.639 115.395,63.457C115.04,64.192 114.685,64.927 114.33,65.662C112.656,64.615 110.981,63.568 109.213,61.947C109.261,61.25 109.404,61.127 109.547,61.004z"/><path fill="#e7e8e8" d="M98.326,94.166C99.521,94.208 100.441,94.573 101.729,94.986C101.149,96.299 100.2,97.563 99.251,98.827C98.851,97.381 98.451,95.935 98.326,94.166z"/><path fill="#363538" d="M102.484,115.838C103.621,116.149 104.598,116.796 105.791,117.672C105.558,118.347 105.107,118.793 104.656,119.24C103.878,118.218 103.101,117.196 102.484,115.838z"/><path fill="#0d0d0d" d="M113.041,135.916C112.528,135.139 112.381,134.389 112.253,133.318C113.387,133.603 114.503,134.209 115.618,134.815C114.881,135.191 114.144,135.567 113.041,135.916z"/><path fill="#0d0d0d" d="M108.481,182.296C108.475,181.55 108.678,181.021 108.882,180.492C109.153,180.625 109.425,180.758 109.697,180.891C109.361,181.432 109.025,181.972 108.481,182.296z"/><path fill="#c6c5c6" d="M106.208,124.321C106.33,123.966 106.498,123.903 106.854,123.646C107.647,124.088 108.254,124.723 108.991,125.686C108.166,125.547 107.21,125.079 106.208,124.321z"/><path fill="#0d0d0d" d="M106.542,176.384C106.656,175.942 106.937,175.674 107.217,175.406C107.328,175.523 107.439,175.639 107.55,175.755C107.269,176.023 106.989,176.29 106.542,176.384z"/><path fill="#0d0d0d" d="M103.405,173.954C103.795,173.716 104.182,173.718 104.568,173.748C104.578,173.749 104.566,174.049 104.564,174.21C104.177,174.206 103.79,174.201 103.405,173.954z"/><path fill="#fafafa" d="M68.543,174.777C67.585,174.993 67.057,174.929 66.53,174.865C67.066,174.214 67.603,173.564 68.139,172.913C68.417,173.441 68.695,173.969 68.543,174.777z"/><path fill="#c1c1c1" d="M109.443,60.608C109.404,61.127 109.261,61.25 109.049,61.648C108.98,61.923 108.599,61.883 108.296,61.641C107.658,61.278 107.323,61.157 106.989,61.035C106.989,61.035 106.835,60.668 106.95,60.158C107.131,59.415 107.197,59.183 107.264,58.95C107.956,59.371 108.648,59.792 109.443,60.608z"/><path fill="#f1f1f1" d="M105.934,178.877C105.343,179.049 104.744,178.875 104.144,178.7C104.218,178.47 104.291,178.239 104.365,178.009C104.885,178.183 105.405,178.357 105.934,178.877z"/><path fill="#181718" d="M82.671,98.692C82.657,98.975 82.507,99.129 82.358,99.284C82.417,99.044 82.475,98.804 82.671,98.692z"/><path fill="#19191a" d="M102.594,196.266C102.441,196.143 102.42,195.93 102.398,195.717C102.508,195.87 102.617,196.023 102.594,196.266z"/><path fill="#181718" d="M87.263,104.657C86.989,104.641 86.84,104.495 86.69,104.349C86.922,104.408 87.155,104.467 87.263,104.657z"/><path fill="#181718" d="M87.99,107.249C88.097,107.409 88.044,107.572 87.992,107.735C87.938,107.574 87.885,107.412 87.99,107.249z"/><path fill="#0d0d0d" d="M105.597,195.267C105.443,195.144 105.421,194.933 105.399,194.722C105.509,194.874 105.62,195.026 105.597,195.267z"/><path fill="#c1c1c1" d="M105.49,59.688C105.023,59.324 104.556,58.961 104.089,58.597C104.733,58.41 105.378,58.224 106.016,58.556C105.837,59.28 105.664,59.484 105.49,59.688z"/><path fill="#fafafa" d="M74.714,194.656C75.114,194.328 75.713,194.241 76.312,194.154C76.157,194.493 76.002,194.833 75.582,195.271C75.182,195.211 75.047,195.054 74.714,194.656z"/><path fill="#191919" d="M78.57,32.448C78.625,32.527 78.409,32.552 78.409,32.552C78.409,32.552 78.515,32.37 78.57,32.448z"/><path fill="#c1c1c1" d="M106.293,58.789C106.778,58.503 106.951,58.576 107.178,58.836C107.197,59.183 107.131,59.415 106.891,59.967C106.395,60.279 106.095,60.193 105.654,59.858C105.664,59.484 105.837,59.28 106.293,58.789z"/><path fill="#0d0d0d" d="M119.47,149.453C119.522,149.423 119.418,149.484 119.47,149.453z"/><path fill="#1b1c1c" d="M107.136,61.253C107.323,61.157 107.658,61.278 108.105,61.653C107.906,61.761 107.595,61.616 107.136,61.253z"/><path fill="#181718" d="M84.545,101.559C84.476,101.603 84.614,101.514 84.545,101.559z"/><path fill="#f1f1f1" d="M171.168,172.822C171.404,173.022 171.551,173.316 171.699,173.61C171.471,173.609 171.242,173.607 170.957,173.355C170.899,173.105 171.079,172.917 171.168,172.822z"/></svg>