<svg xmlns="http://www.w3.org/2000/svg" viewBox="0 0 218 151" xml:space="preserve"><path fill="#070707" d="M17.674,82.275C19.81,81.559 21.969,80.902 24.075,80.107C25.495,79.571 26.841,78.839 28.771,78.317C29.825,78.274 30.329,78.11 30.832,77.945C30.31,77.293 29.788,76.641 29.266,75.99C26.095,73.029 22.924,70.069 19.325,66.616C20.212,65.785 21.527,65.175 22.842,65.176C24.569,65.176 26.296,65.657 28.063,66.191C28.382,66.64 28.662,66.831 29.001,67.285C29.37,67.642 29.679,67.736 30.308,67.956C34.979,72.321 38.489,78.06 46.337,76.708C47.095,76.441 47.501,76.134 47.908,75.826C47.29,75.506 46.672,75.186 46.001,74.526C42.285,70.121 38.62,66.055 35.242,61.879C35.688,61.187 35.847,60.605 36.365,60.107C41.822,62.03 46.162,64.662 48.238,70.107C49.501,73.42 51.839,75.985 55.445,76.697C56.904,76.985 58.81,76.679 60.01,75.884C60.586,75.503 60.422,73.132 59.854,72.052C57.937,68.408 55.838,64.837 53.528,61.428C50.806,57.411 47.236,54.653 41.97,54.967C38.988,55.144 35.995,55.117 32.678,55.131C31.907,55.037 31.466,54.994 31.025,54.951C30.047,54.215 29.068,53.478 27.961,52.645C32.406,48.788 25.894,47.586 26.293,44.24C26.766,43.604 26.92,43.369 26.996,43.083C30.737,44.407 34.478,45.732 38.617,47.468C40.132,49.054 41.248,50.229 42.365,51.403C42.806,51.069 43.247,50.734 43.689,50.4C40.986,49.249 46.676,45.16 41.152,44.996C40.165,42.244 38.923,39.551 38.27,36.722C37.737,34.415 36.958,31.284 40.705,30.859C44.018,30.483 44.022,33.142 44.172,35.579C44.475,40.483 49.065,45.769 53.667,46.342C54.467,46.667 54.809,46.859 55.011,47.402C58.347,52.806 61.685,57.966 65.423,62.817C66.116,63.716 68.567,63.825 69.927,63.401C70.581,63.198 70.837,60.905 70.838,59.559C70.838,55.026 70.643,50.492 70.5,45.974C70.478,45.988 70.445,45.955 70.437,46.349C70.93,46.818 71.432,46.893 72.171,47.01C72.408,47.05 72.883,46.977 73.054,47.311C74.288,50.502 75.351,53.359 76.864,57.427C79.738,55.031 82.259,52.979 84.723,50.861C86.944,48.952 86.981,47.279 85.296,44.52C81.691,38.618 76.468,35.971 70.029,34.93C69.07,34.2 68.111,33.471 67.136,32.186C67.125,31.228 67.13,30.825 67.136,30.422C66.716,30.733 66.296,31.044 65.876,31.355C65.318,31.285 64.76,31.215 63.679,31.377C62.422,31.53 61.687,31.451 60.953,31.373C59.698,28.092 58.443,24.812 57.188,21.531C57.742,21.233 58.297,20.934 58.851,20.636C63.605,21.993 63.652,30.754 70.576,28.7C72.263,14.389 72.263,14.389 79.804,5.825C83.2,7.556 83.158,10.827 80.916,12.44C76.443,15.658 77.049,18.446 80.027,21.969C81.269,23.438 82.296,25.088 83.782,27.143C83.892,28.851 83.641,30.071 83.402,31.23C86.408,34.574 89.478,37.987 92.519,41.37C100.525,37.165 100.958,34.838 94.997,28.424C94.459,27.846 93.72,27.455 93.075,26.978C92.658,23.598 90.128,20.102 93.67,16.71C98.255,22.223 102.724,27.638 107.267,32.989C107.693,33.492 108.591,33.594 109.779,34.316C112.189,34.842 114.089,34.933 116.093,35.368C115.787,36.465 115.405,37.859 114.963,37.879C104.4,38.337 100.298,45.635 96.632,54.092C95.154,57.503 92.067,60.707 88.909,62.785C84.287,65.826 78.849,67.594 73.938,70.239C70.284,72.207 69.039,76.344 71.61,79.019C77.611,85.262 80.78,92.629 82.406,100.975C82.781,102.898 84.671,104.525 85.733,106.096C86.623,102.07 87.168,98.867 88.058,95.762C89.142,91.978 88.562,89.124 85.085,86.708C82.717,85.063 80.921,82.595 78.307,79.918C87.901,80.198 89.135,79.174 91.18,71.404C91.591,69.843 93.222,68.603 94.469,66.983C98.756,73.103 99.092,78.85 95.675,83.957C93.369,87.404 93.238,90.275 94.354,93.846C94.943,95.727 94.912,97.793 95.308,99.746C96.272,104.501 98.141,108.704 102.775,111.711C102.421,106.885 101.925,102.657 101.918,98.428C101.915,97.218 103.33,96.005 104.094,94.793C105.063,95.893 106.5,96.847 106.895,98.123C107.58,100.336 107.62,102.749 107.872,104.634C109.652,103.838 111.058,102.663 112.245,102.854C113.162,103.001 113.859,104.827 114.555,105.967C115.941,108.239 117.26,110.553 118.607,112.85C120.665,110.631 121.174,109.117 121.819,107.664C123.917,102.938 126.519,98.336 123.432,92.942C123.161,92.467 125.363,89.749 125.708,89.884C127.673,90.653 130.324,91.552 131.08,93.179C133.58,98.56 135.369,104.272 137.404,109.784C146.29,102.461 149.474,92.007 140.964,82.919C138.249,80.019 135.539,77.113 132.832,74.205C127.198,68.152 122.147,67.078 114.27,69.991C111.754,70.921 109.06,71.372 106.448,72.042C106.304,71.489 106.159,70.936 106.015,70.383C111.917,65.082 119.024,62.501 126.879,61.663C130.867,61.237 134.303,61.385 136.872,65.64C138.231,67.892 141.506,69.607 144.732,67.317C149.557,63.89 151.525,50.678 147.671,46.125C143.934,41.711 139.823,37.616 135.989,33.281C130.098,26.62 122.088,25.743 114,24.999C113.388,20.026 116.732,19.587 120.191,20.017C127.582,20.936 127.831,20.79 125.868,14.136C125.698,13.559 125.764,12.914 125.689,11.865C130.734,13.074 133.535,16.041 135.951,20.046C137.859,23.21 140.817,25.742 143.309,28.555C143.635,28.263 143.96,27.972 144.286,27.68C144.521,29.464 144.628,31.276 145.019,33.024C145.754,36.302 147.821,37.851 151.208,37.077C154.539,36.316 156.599,34.322 155.824,30.711C154.891,26.365 153.608,22.094 152.986,17.382C154.26,16.989 155.022,17.004 155.785,17.019C156.701,18.845 157.617,20.672 158.767,23.101C159.658,24.472 160.315,25.241 160.972,26.01C161.668,28.084 162.363,30.158 162.957,32.932C161.431,36.051 159.9,38.415 158.623,40.909C157.896,42.33 157.585,43.964 157.087,45.503C159.178,46.024 161.346,47.166 163.343,46.919C166.162,46.571 168.854,45.197 171.678,44.235C172.138,41.525 172.606,38.777 173.073,36.029C175.71,32.911 175.925,27.407 182.959,27.449C181.842,32.112 180.762,36.623 179.518,41.741C179.173,42.89 178.993,43.432 178.813,43.974C178.177,45.751 176.579,47.847 180.777,48.28C181.902,48.269 182.466,48.183 183.03,48.097C187.133,46.779 191.235,45.46 196.062,43.962C197.548,43.557 198.31,43.332 199.072,43.107C199.875,43.479 200.678,43.852 201.689,44.321C201.489,45.489 201.264,46.805 200.643,48.645C197.451,50.07 194.702,51.168 191.851,51.84C181.287,54.332 174.845,64.714 177.28,75.628C181.472,75.25 184.69,73.527 186.5,69.482C188.546,64.913 191.944,61.907 197.02,61.062C200.928,61.328 204.835,61.594 208.743,61.86C208.924,62.426 209.105,62.992 209.286,63.558C206.271,64.959 203.252,66.352 200.242,67.765C198.201,68.723 195.863,69.359 194.24,70.796C193.014,71.881 191.698,74.558 192.233,75.54C193.027,76.999 195.34,78.159 197.153,78.419C200.322,78.873 203.603,78.546 206.985,78.546C203.657,81.776 200.844,84.507 197.941,87.885C197.569,89.02 197.289,89.508 197.009,89.996C196.278,89.459 195.548,88.923 194.272,88.106C192.855,87.461 191.983,87.095 191.112,86.729C191.079,86.355 190.884,86.112 190.209,85.606C185.741,82.289 180.803,81.751 177.615,85.37C172.491,91.184 168.489,97.994 164.118,104.455C163.623,105.185 163.477,106.483 163.759,107.318C164.079,108.268 165.083,109.677 165.754,109.657C166.774,109.628 168.34,108.755 168.672,107.866C171.052,101.492 175.31,96.783 180.929,93.161C179.623,96.539 178.038,99.84 177.082,103.315C175.954,107.416 177.783,109.15 182.067,108.536C182.868,108.421 183.642,108.125 185.022,107.532C186.321,107.3 187.028,107.448 187.735,107.596C187.643,107.95 187.552,108.305 187.728,109.212C187.942,110.486 187.888,111.207 187.834,111.928C186.993,114.111 184.876,117.601 185.537,118.248C188.138,120.79 191.364,123.291 196.054,120.957C197.038,120.067 197.588,119.721 198.138,119.374C198.495,120.247 198.853,121.12 199.638,122.387C201.385,124.109 202.704,125.438 204.024,126.767C205.087,126.791 206.15,126.814 207.637,127.193C208.375,127.645 208.69,127.742 209.005,127.838C210.227,128.365 211.448,128.892 212.798,129.907C212.926,130.395 212.968,130.774 212.968,130.774C207.957,130.801 202.945,130.829 197.216,130.611C185.8,129.916 178.235,123.2 170.868,116.089C170.374,116.833 169.879,117.578 169.384,118.322C175.033,130.118 186.307,135.264 196.907,140.087C196.907,141.519 196.907,142.65 196.907,143.78C190.583,142.755 184.258,141.73 177.302,140.397C175.128,138.953 173.576,136.837 172.046,136.852C165.816,136.916 164.273,131.803 161.714,128.031C159.644,124.979 158.364,121.39 156.733,118.04C156.045,118.263 155.357,118.486 154.668,118.709C156.21,124.708 157.376,130.846 159.506,136.629C160.211,138.545 163.238,139.925 165.489,140.877C168.979,142.353 168.469,143.739 165.98,145.584C159.222,144.924 154.146,140.928 148.684,136.507C148.345,132.184 148.345,128.38 148.345,124.312C138.862,132.595 138.862,132.595 142.076,140.005C142.112,140.824 142.148,141.642 142.238,143.685C138.035,141.868 134.213,140.117 130.305,138.584C129.075,138.102 127.605,138.007 126.263,138.078C122.155,138.295 118.056,138.679 113.466,138.576C120.021,133.78 127.327,129.772 134.026,124.925C140.154,120.491 145.681,115.213 151.328,110.146C152.215,109.351 152.336,107.702 152.812,106.447C141.238,117.422 129.179,124.661 112.663,123.618C103.559,123.043 96.756,120.161 91.525,113.019C90.139,111.127 88.91,109.118 87.608,107.163C87.023,107.681 86.437,108.198 85.852,108.715C86.106,109.8 86.291,110.906 86.625,111.965C89.524,121.159 96.326,126.664 104.45,131.009C105.283,131.454 105.513,133.026 106.023,134.075C95.851,131.902 85.678,129.729 74.546,127.35C76.351,133.655 82.27,134.429 85.875,139.311C82.376,138.714 79.708,138.915 77.796,137.809C72.198,134.571 66.695,135.03 61.282,137.606C52.842,141.623 44.288,142.04 35.239,138.77C38.153,137.334 41.461,136.889 44.389,135.588C58.933,129.125 68.633,117.996 74.407,103.344C75.439,100.725 76.101,97.793 73.421,96.378C69.582,102.955 66.802,110.066 62.01,115.355C55.419,122.63 47.69,129.059 37.708,131.815C35.975,132.294 34.524,133.793 32.942,134.821C31.531,135.527 30.12,136.233 28.154,137.217C26.953,128.726 19.03,132.658 14.43,129.654C20.554,127.42 26.705,125.583 32.438,122.865C34.461,121.906 35.524,118.832 36.904,116.647C37.679,115.42 38.206,114.036 39.246,112.337C42.284,113.211 44.922,114.469 48.072,115.972C49.526,114.198 51.664,111.59 53.802,108.981C55.08,107.078 56.588,105.289 57.592,103.251C60.647,97.044 61.053,95.682 55.604,91.392C55.145,91.45 55.143,91.379 55.143,91.379C54.435,86.874 51.388,85.813 47.291,84.949C40.991,83.62 35.434,84.6 29.412,86.594C26.409,87.588 22.27,85.154 18.266,83.666C17.816,82.799 17.745,82.537 17.674,82.275M173.908,53.028C169.655,53.028 165.402,53.028 160.878,53.028C161.566,60.972 161.163,68.06 155.343,73.574C158.163,77.453 160.994,81.347 163.824,85.242C164.563,85.217 165.301,85.192 166.039,85.168C167.602,81.196 171.262,76.595 170.297,73.383C168.221,66.476 171.31,62.391 174.811,57.683C175.521,56.728 174.815,54.719 173.908,53.028M157.17,100.604C159.512,95.783 158.527,93.904 153.165,93.305C153.387,96.67 153.606,99.998 153.861,103.872C155.167,102.672 155.967,101.937 157.17,100.604z"/><path fill="#f7f7f7" d="M113.985,25.367C122.088,25.743 130.098,26.62 135.989,33.281C139.823,37.616 143.934,41.711 147.671,46.125C151.525,50.678 149.557,63.89 144.732,67.317C141.506,69.607 138.231,67.892 136.872,65.64C134.303,61.385 130.867,61.237 126.879,61.663C119.024,62.501 111.917,65.082 106.015,70.383C106.159,70.936 106.304,71.489 106.448,72.042C109.06,71.372 111.754,70.921 114.27,69.991C122.147,67.078 127.198,68.152 132.832,74.205C135.539,77.113 138.249,80.019 140.964,82.919C149.474,92.007 146.29,102.461 137.404,109.784C135.369,104.272 133.58,98.56 131.08,93.179C130.324,91.552 127.673,90.653 125.708,89.884C125.363,89.749 123.161,92.467 123.432,92.942C126.519,98.336 123.917,102.938 121.819,107.664C121.174,109.117 120.665,110.631 118.607,112.85C117.26,110.553 115.941,108.239 114.555,105.967C113.859,104.827 113.162,103.001 112.245,102.854C111.058,102.663 109.652,103.838 107.872,104.634C107.62,102.749 107.58,100.336 106.895,98.123C106.5,96.847 105.063,95.893 104.094,94.793C103.33,96.005 101.915,97.218 101.918,98.428C101.925,102.657 102.421,106.885 102.775,111.711C98.141,108.704 96.272,104.501 95.308,99.746C94.912,97.793 94.943,95.727 94.354,93.846C93.238,90.275 93.369,87.404 95.675,83.957C99.092,78.85 98.756,73.103 94.469,66.983C93.222,68.603 91.591,69.843 91.18,71.404C89.135,79.174 87.901,80.198 78.307,79.918C80.921,82.595 82.717,85.063 85.085,86.708C88.562,89.124 89.142,91.978 88.058,95.762C87.168,98.867 86.623,102.07 85.733,106.096C84.671,104.525 82.781,102.898 82.406,100.975C80.78,92.629 77.611,85.262 71.61,79.019C69.039,76.344 70.284,72.207 73.938,70.239C78.849,67.594 84.287,65.826 88.909,62.785C92.067,60.707 95.154,57.503 96.632,54.092C100.298,45.635 104.4,38.337 114.963,37.879C115.405,37.859 115.787,36.465 116.108,34.996C115.673,33.161 115.328,32.041 114.982,30.921C114.987,30.501 114.992,30.081 114.894,29.111C114.522,28.355 114.253,28.149 113.983,27.942C113.979,27.206 113.974,26.47 113.985,25.367M111.815,48.258C109.737,51.247 107.658,54.236 105.216,57.748C111.064,58.035 116.053,58.904 118.276,52.231C116.408,50.878 114.464,49.471 111.815,48.258M130.323,53.053C131.869,53.34 133.414,53.627 134.96,53.914C132.051,50.388 129.684,46.343 124.449,47.219C124.145,51.362 125.701,53.269 130.323,53.053M107.106,82.097C109.063,84.719 111.02,87.341 112.976,89.963C113.872,89.244 114.768,88.526 115.266,88.126C113.534,86.268 112.274,84.697 110.779,83.397C109.94,82.667 108.713,82.384 107.106,82.097M121.016,88.625C122.163,86.353 123.311,84.082 124.458,81.81C123.758,81.439 123.057,81.068 122.357,80.698C120.66,83.592 118.963,86.487 117.266,89.382C117.653,89.669 118.04,89.956 118.427,90.243C119.116,89.91 119.805,89.578 121.016,88.625z"/><path fill="#f1f1f1" d="M106.18,134.393C105.513,133.026 105.283,131.454 104.45,131.009C96.326,126.664 89.524,121.159 86.625,111.965C86.291,110.906 86.106,109.8 85.852,108.715C86.437,108.198 87.023,107.681 87.608,107.163C88.91,109.118 90.139,111.127 91.525,113.019C96.756,120.161 103.559,123.043 112.663,123.618C129.179,124.661 141.238,117.422 152.812,106.447C152.336,107.702 152.215,109.351 151.328,110.146C145.681,115.213 140.154,120.491 134.026,124.925C127.327,129.772 120.021,133.78 113.01,138.518C112.456,139.871 111.873,140.858 111.289,141.846C110.514,140.92 109.658,140.048 108.982,139.054C108.03,137.654 107.212,136.164 106.18,134.393z"/><path fill="#f1f2f2" d="M34.956,61.989C38.62,66.055 42.285,70.121 45.985,74.826C46.009,75.867 45.997,76.267 45.986,76.668C38.489,78.06 34.979,72.321 30.182,67.765C29.52,67.212 29.256,67.07 28.941,67.021C28.662,66.831 28.382,66.64 28.095,65.88C28.392,64.541 28.696,63.772 29,63.002C29.331,61.586 29.663,60.17 30.287,58.257C31.388,56.901 32.198,56.042 33.007,55.182C35.995,55.117 38.988,55.144 41.97,54.967C47.236,54.653 50.806,57.411 53.528,61.428C55.838,64.837 57.937,68.408 59.854,72.052C60.422,73.132 60.586,75.503 60.01,75.884C58.81,76.679 56.904,76.985 55.445,76.697C51.839,75.985 49.501,73.42 48.238,70.107C46.162,64.662 41.822,62.03 36.306,59.759C35.028,59.161 34.167,58.996 33.306,58.832C33.856,59.884 34.406,60.936 34.956,61.989z"/><path fill="#f1f1f1" d="M32.961,135.208C34.524,133.793 35.975,132.294 37.708,131.815C47.69,129.059 55.419,122.63 62.01,115.355C66.802,110.066 69.582,102.955 73.421,96.378C76.101,97.793 75.439,100.725 74.407,103.344C68.633,117.996 58.933,129.125 44.389,135.588C41.461,136.889 38.153,137.334 35,138.587C34.313,137.866 33.646,136.73 32.961,135.208z"/><path fill="#f3f4f3" d="M196.894,60.745C191.944,61.907 188.546,64.913 186.5,69.482C184.69,73.527 181.472,75.25 177.28,75.628C174.845,64.714 181.287,54.332 191.851,51.84C194.702,51.168 197.451,50.07 200.603,49.032C200.065,50.764 199.024,52.579 198.319,54.515C197.625,56.421 197.271,58.452 196.894,60.745z"/><path fill="#eceded" d="M196.989,144.166C196.907,142.65 196.907,141.519 196.907,140.087C186.307,135.264 175.033,130.118 169.384,118.322C169.879,117.578 170.374,116.833 170.868,116.089C178.235,123.2 185.8,129.916 196.756,130.65C196.248,132.107 195.48,133.281 194.55,134.703C197.414,137.745 200.428,140.946 203.441,144.147C203.13,144.768 202.819,145.389 202.508,146.009C200.695,145.523 198.883,145.037 196.989,144.166z"/><path fill="#f1f2f2" d="M181.09,92.905C175.31,96.783 171.052,101.492 168.672,107.866C168.34,108.755 166.774,109.628 165.754,109.657C165.083,109.677 164.079,108.268 163.759,107.318C163.477,106.483 163.623,105.185 164.118,104.455C168.489,97.994 172.491,91.184 177.615,85.37C180.803,81.751 185.741,82.289 189.963,85.601C188.454,87.114 186.852,88.208 185.306,89.377C183.921,90.424 182.6,91.555 181.09,92.905z"/><path fill="#f3f3f3" d="M70.522,45.959C70.643,50.492 70.838,55.026 70.838,59.559C70.837,60.905 70.581,63.198 69.927,63.401C68.567,63.825 66.116,63.716 65.423,62.817C61.685,57.966 58.347,52.806 55.391,47.443C58.318,45.752 60.726,44.372 63.133,42.991C63.839,42.989 64.545,42.986 65.656,43.301C66.691,44.085 67.321,44.551 68.3,45.146C69.274,45.503 69.898,45.731 70.522,45.959z"/><path fill="#f4f5f5" d="M69.868,35.247C76.468,35.971 81.691,38.618 85.296,44.52C86.981,47.279 86.944,48.952 84.723,50.861C82.259,52.979 79.738,55.031 76.864,57.427C75.351,53.359 74.288,50.502 73.45,47.209C75.506,46.467 77.336,46.16 79.371,45.82C77.118,41.516 77.169,41.659 73.806,42.841C72.717,43.223 71.288,42.639 69.971,42.213C69.288,41.624 68.649,41.319 68.009,41.014C66.976,40.11 65.942,39.205 64.677,38.098C66.305,37.278 68.006,36.421 69.868,35.247z"/><path fill="#f3f3f3" d="M166.085,145.88C168.469,143.739 168.979,142.353 165.489,140.877C163.238,139.925 160.211,138.545 159.506,136.629C157.376,130.846 156.21,124.708 154.668,118.709C155.357,118.486 156.045,118.263 156.733,118.04C158.364,121.39 159.644,124.979 161.714,128.031C164.273,131.803 165.816,136.916 172.046,136.852C173.576,136.837 175.128,138.953 176.888,140.366C176.283,142.751 175.462,144.859 174.496,147.336C173.652,145.886 172.908,144.609 171.417,142.05C170.853,144.702 170.54,146.171 170.16,147.957C168.789,147.343 167.489,146.76 166.085,145.88z"/><path fill="#f1f1f1" d="M172.663,36.009C172.606,38.777 172.138,41.525 171.678,44.235C168.854,45.197 166.162,46.571 163.343,46.919C161.346,47.166 159.178,46.024 157.087,45.503C157.585,43.964 157.896,42.33 158.623,40.909C159.9,38.415 161.431,36.051 163.04,33.311C166.233,33.989 169.243,34.989 172.663,36.009z"/><path fill="#f1f2f2" d="M92.621,26.984C93.72,27.455 94.459,27.846 94.997,28.424C100.958,34.838 100.525,37.165 92.519,41.37C89.478,37.987 86.408,34.574 83.402,31.23C83.641,30.071 83.892,28.851 84.085,27.311C86.74,26.99 89.454,26.99 92.621,26.984z"/><path fill="#eeeeee" d="M142.419,139.943C138.862,132.595 138.862,132.595 148.345,124.312C148.345,128.38 148.345,132.184 148.355,136.418C146.498,137.859 144.631,138.87 142.419,139.943z"/><path fill="#ebebeb" d="M53.459,108.975C51.664,111.59 49.526,114.198 48.072,115.972C44.922,114.469 42.284,113.211 39.32,111.968C40.325,110.435 41.657,108.885 43.22,107.066C46.355,107.669 49.736,108.319 53.459,108.975z"/><path fill="#181818" d="M189.064,36.98C191.926,33.285 194.788,29.59 197.65,25.896C198.114,26.189 198.578,26.481 199.042,26.774C199.319,31.223 198.343,35.202 193.655,38.404C191.762,38.203 190.413,37.592 189.064,36.98z"/><path fill="#29292a" d="M62.901,42.695C60.726,44.372 58.318,45.752 55.531,47.092C54.809,46.859 54.467,46.667 54.046,46.18C56.867,44.723 59.768,43.561 62.901,42.695z"/><path fill="#eaeaea" d="M28.6,62.996C28.696,63.772 28.392,64.541 28.056,65.621C26.296,65.657 24.569,65.176 22.842,65.176C21.527,65.175 20.212,65.785 18.99,66.545C18.441,66.077 17.8,65.189 17.159,64.301C18.109,63.857 19.038,63.092 20.011,63.031C22.731,62.862 25.469,62.983 28.6,62.996z"/><path fill="#313132" d="M197.134,90.339C197.289,89.508 197.569,89.02 197.936,88.245C200.437,89.525 202.851,91.091 205.835,93.027C201.478,95.274 199.193,93.545 197.134,90.339z"/><path fill="#e9e9e9" d="M187.864,107.223C187.028,107.448 186.321,107.3 185.301,107.239C180.623,105.477 185.68,103.624 184.992,101.387C185,101 184.997,101.005 184.997,101.005C188.663,101.586 189.248,103.747 187.864,107.223z"/><path fill="#0d0d0d" d="M41.044,45.298C46.676,45.16 40.986,49.249 43.689,50.4C43.247,50.734 42.806,51.069 42.365,51.403C41.248,50.229 40.132,49.054 39.005,47.523C39.642,46.644 40.288,46.122 41.044,45.298z"/><path fill="#ebeceb" d="M188.775,37.205C190.413,37.592 191.762,38.203 193.455,38.662C193.121,39.591 192.205,41.679 191.804,41.585C189.83,41.119 186.875,40.921 188.775,37.205z"/><path fill="#e9e9e9" d="M204.036,126.392C202.704,125.438 201.385,124.109 200.023,122.419C204.62,120.004 203.377,123.993 204.036,126.392z"/><path fill="#e6e7e7" d="M114.71,31.131C115.328,32.041 115.673,33.161 116.004,34.653C114.089,34.933 112.189,34.842 110.146,34.367C111.482,33.103 112.96,32.222 114.71,31.131z"/><path fill="#e9e9e9" d="M188.173,111.973C187.888,111.207 187.942,110.486 187.961,109.388C190.773,108.913 192.416,109.906 191.684,113.319C190.546,112.852 189.529,112.435 188.173,111.973z"/><path fill="#ebeceb" d="M199.064,42.796C198.31,43.332 197.548,43.557 196.383,43.787C196.297,42.669 196.614,41.545 196.93,40.421C197.638,41.109 198.347,41.797 199.064,42.796z"/><path fill="#e2e2e2" d="M60.947,31.694C61.687,31.451 62.422,31.53 63.466,31.565C63.838,32.38 63.901,33.237 63.727,34.536C63.489,34.977 63.004,34.986 63.004,34.986C62.317,33.996 61.629,33.006 60.947,31.694z"/><path fill="#f1f2f2" d="M191.086,87.132C191.983,87.095 192.855,87.461 193.941,88.019C193.514,88.713 192.873,89.214 192.231,89.716C191.841,88.988 191.45,88.261 191.086,87.132z"/><path fill="#161717" d="M155.713,16.68C155.022,17.004 154.26,16.989 153.116,16.966C152.887,16.026 153.039,15.093 153.324,13.353C154.398,14.738 155.019,15.539 155.713,16.68z"/><path fill="#eaeaea" d="M32.678,55.131C32.198,56.042 31.388,56.901 30.285,57.885C30.242,57.145 30.492,56.28 30.883,55.183C31.466,54.994 31.907,55.037 32.678,55.131z"/><path fill="#0f0f0f" d="M29.172,76.308C29.788,76.641 30.31,77.293 30.832,77.945C30.329,78.11 29.825,78.274 29.15,78.193C29.011,77.507 29.045,77.066 29.172,76.308z"/><path fill="#e9e9e9" d="M185.002,100.998C184.108,100.764 183.212,100.533 182.315,100.302C182.444,99.988 182.573,99.675 182.702,99.361C183.376,99.72 184.049,100.079 184.86,100.721C184.997,101.005 185,101 185.002,100.998z"/><path fill="#181818" d="M160.958,25.683C160.315,25.241 159.658,24.472 159,23.351C159.648,23.784 160.296,24.57 160.958,25.683z"/><path fill="#ebebeb" d="M54.904,91.691C55.143,91.379 55.145,91.45 55.171,91.424C55.135,92.498 55.074,93.597 55.012,94.697C54.758,94.664 54.505,94.632 54.251,94.599C54.389,93.733 54.527,92.868 54.904,91.691z"/><path fill="#ebeceb" d="M182.886,47.857C182.466,48.183 181.902,48.269 181.157,48.22C181.565,47.929 182.153,47.773 182.886,47.857z"/><path fill="#e2e2e2" d="M68.006,41.336C68.649,41.319 69.288,41.624 69.736,42.39C69.25,43.113 68.957,43.375 68.484,43.463C68.304,43.291 67.945,42.945 67.945,42.945C67.964,42.516 67.983,42.087 68.006,41.336z"/><path fill="#eeeeee" d="M145.163,142.007C145.805,141.92 146.228,141.958 146.651,141.997C146.148,142.289 145.653,142.596 145.134,142.855C145.066,142.889 144.799,142.699 144.764,142.573C144.729,142.453 144.876,142.281 145.163,142.007z"/><path fill="#f1f1f1" d="M30.955,139.603C30.715,139.209 30.717,138.816 30.747,138.426C30.748,138.416 31.193,138.421 31.193,138.431C31.213,138.821 31.205,139.213 30.955,139.603z"/><path fill="#ebeceb" d="M179.129,43.949C178.993,43.432 179.173,42.89 179.561,42.139C179.66,42.595 179.553,43.26 179.129,43.949z"/><path fill="#e9e9e9" d="M193.809,116.012C193.639,116.353 193.269,116.621 192.856,116.751C192.774,116.777 192.526,116.278 192.354,116.021C192.767,115.977 193.181,115.934 193.809,116.012z"/><path fill="#e9e9e9" d="M198.1,119.134C197.588,119.721 197.038,120.067 196.205,120.592C196.175,120.059 196.428,119.347 196.839,118.314C196.998,117.991 197.103,117.874 197.103,117.874C197.423,118.214 197.742,118.554 198.1,119.134z"/><path fill="#e2e2e2" d="M67.95,45.017C67.321,44.551 66.691,44.085 66.009,43.298C66.399,42.977 66.842,42.977 67.615,42.961C67.945,42.945 68.304,43.291 68.306,43.672C68.189,44.375 68.069,44.696 67.95,45.017z"/><path fill="#161515" d="M65.965,31.575C66.296,31.044 66.716,30.733 67.136,30.422C67.13,30.825 67.125,31.228 67.023,31.89C66.606,32.103 66.315,31.985 65.965,31.575z"/><path fill="#0f0f0f" d="M17.375,82.363C17.745,82.537 17.816,82.799 17.944,83.465C17.463,83.737 16.924,83.605 16.385,83.473C16.616,83.133 16.846,82.793 17.375,82.363z"/><path fill="#232324" d="M213.275,130.867C212.968,130.774 212.926,130.395 212.959,130.208C213.188,130.334 213.385,130.647 213.275,130.867z"/><path fill="#e9e9e9" d="M208.884,127.649C208.69,127.742 208.375,127.645 208.033,127.273C208.315,127.058 208.567,127.211 208.884,127.649z"/><path fill="#e6e7e7" d="M114.088,28.179C114.253,28.149 114.522,28.355 114.899,28.796C114.735,28.826 114.464,28.621 114.088,28.179z"/><path fill="#e9e9e9" d="M196.94,118.044C196.782,117.903 196.683,117.709 196.583,117.515C196.694,117.548 196.805,117.582 197.009,117.745C197.103,117.874 196.998,117.991 196.94,118.044z"/><path fill="#0d0d0d" d="M26.673,42.963C26.92,43.369 26.766,43.604 26.346,43.888C26.221,43.606 26.286,43.225 26.673,42.963z"/><path fill="#f4f5f5" d="M63.091,35.157C63.004,34.986 63.489,34.977 63.731,34.967C63.709,35.08 63.443,35.204 63.091,35.157z"/><path fill="#ebebeb" d="M54.548,102.473C54.579,102.526 54.517,102.419 54.548,102.473z"/><path fill="#ebeceb" d="M186.473,36.453C186.525,36.423 186.42,36.483 186.473,36.453z"/><path fill="#f7f7f7" d="M174.335,53.112C174.815,54.719 175.521,56.728 174.811,57.683C171.31,62.391 168.221,66.476 170.297,73.383C171.262,76.595 167.602,81.196 166.039,85.168C165.301,85.192 164.563,85.217 163.824,85.242C160.994,81.347 158.163,77.453 155.343,73.574C161.163,68.06 161.566,60.972 160.878,53.028C165.402,53.028 169.655,53.028 174.335,53.112z"/><path fill="#deddde" d="M156.968,100.903C155.967,101.937 155.167,102.672 153.861,103.872C153.606,99.998 153.387,96.67 153.165,93.305C158.527,93.904 159.512,95.783 156.968,100.903z"/><path fill="#232324" d="M68.3,45.146C68.069,44.696 68.189,44.375 68.486,43.845C68.957,43.375 69.25,43.113 69.779,42.674C71.288,42.639 72.717,43.223 73.806,42.841C77.169,41.659 77.118,41.516 79.371,45.82C77.336,46.16 75.506,46.467 73.279,46.875C72.883,46.977 72.408,47.05 72.097,46.671C71.339,46.18 70.892,46.067 70.445,45.955C70.445,45.955 70.478,45.988 70.5,45.974C69.898,45.731 69.274,45.503 68.3,45.146z"/><path fill="#eaeaea" d="M35.242,61.879C34.406,60.936 33.856,59.884 33.306,58.832C34.167,58.996 35.028,59.161 35.948,59.674C35.847,60.605 35.688,61.187 35.242,61.879z"/><path fill="#eaeaea" d="M46.337,76.708C45.997,76.267 46.009,75.867 46.037,75.166C46.672,75.186 47.29,75.506 47.908,75.826C47.501,76.134 47.095,76.441 46.337,76.708z"/><path fill="#e2e2e2" d="M70.437,46.349C70.892,46.067 71.339,46.18 71.86,46.631C71.432,46.893 70.93,46.818 70.437,46.349z"/><path fill="#eaeaea" d="M29.001,67.285C29.256,67.07 29.52,67.212 29.861,67.639C29.679,67.736 29.37,67.642 29.001,67.285z"/><path fill="#111112" d="M112.168,48.161C114.464,49.471 116.408,50.878 118.276,52.231C116.053,58.904 111.064,58.035 105.216,57.748C107.658,54.236 109.737,51.247 112.168,48.161z"/><path fill="#161717" d="M129.914,53.074C125.701,53.269 124.145,51.362 124.449,47.219C129.684,46.343 132.051,50.388 134.96,53.914C133.414,53.627 131.869,53.34 129.914,53.074z"/><path fill="#1d1d1e" d="M107.383,81.998C108.713,82.384 109.94,82.667 110.779,83.397C112.274,84.697 113.534,86.268 115.266,88.126C114.768,88.526 113.872,89.244 112.976,89.963C111.02,87.341 109.063,84.719 107.383,81.998z"/><path fill="#161515" d="M120.755,88.935C119.805,89.578 119.116,89.91 118.427,90.243C118.04,89.956 117.653,89.669 117.266,89.382C118.963,86.487 120.66,83.592 122.357,80.698C123.057,81.068 123.758,81.439 124.458,81.81C123.311,84.082 122.163,86.353 120.755,88.935z"/></svg>