<svg xmlns="http://www.w3.org/2000/svg" viewBox="0 0 203 143" xml:space="preserve"><path fill="#0d0d0d" d="M119.181,76.914C120.984,75.961 122.787,75.008 124.99,73.843C123.301,72.83 122.055,72.083 120.644,71.236C122.578,68.864 124.275,66.742 126.016,64.656C129.367,60.637 133.601,61.428 137.185,63.581C141.702,66.295 145.136,64.557 148.809,62.318C149.791,61.719 150.826,61.208 152.212,60.451C148.64,59.1 145.474,57.902 142.307,56.704C142.362,56.389 142.416,56.075 142.47,55.76C144.546,56.084 146.66,56.259 148.688,56.771C150.9,57.329 153.632,59.418 155.087,58.703C159.324,56.622 163.037,53.472 166.955,50.742C166.749,50.214 166.542,49.686 166.335,49.158C160.976,47.313 155.616,45.468 149.007,43.192C152.643,43.001 154.925,42.881 157.207,42.761C157.317,42.459 157.428,42.157 157.538,41.855C154.137,40.756 150.757,39.584 147.331,38.572C139.844,36.359 132.394,33.958 124.797,32.213C122.301,31.64 119.402,32.914 116.675,33.225C115.363,33.375 114.02,33.251 112.654,32.703C116.982,29.351 120.934,26.671 127.008,28.868C137.11,32.523 147.583,35.15 159.619,38.719C158.581,33.877 157.079,30.248 157.206,26.676C157.397,21.333 157.692,15.535 159.913,10.868C161.679,7.154 166.842,7.877 170.878,8.985C174.46,9.969 174.496,12.615 174.493,15.659C174.49,17.999 175.371,20.33 175.75,22.683C175.932,23.817 176.09,25.04 175.857,26.137C175.366,28.455 174.345,30.682 174.035,33.011C173.71,35.454 173.962,37.973 173.962,40.71C174.785,40.842 175.414,40.862 175.99,41.046C183.846,43.561 187.772,48.791 183.669,55.546C177.408,65.857 182.725,76.092 180.229,86.022C183.102,86.484 185.259,86.832 187.417,87.179C187.416,87.665 187.416,88.152 187.415,88.639C185.463,88.767 183.51,88.894 181.318,89.038C181.092,90.591 180.863,92.173 180.432,95.149C173.388,94.599 166.353,93.994 159.308,93.566C158.289,93.504 157.13,94.149 156.186,94.718C152.484,96.947 148.701,99.088 145.244,101.658C143.782,102.745 143.05,104.813 141.986,106.436C143.547,107.26 145.1,108.099 146.672,108.9C147.076,109.107 147.541,109.196 148.649,109.559C145.191,111.14 142.237,112.49 139.283,113.841C139.375,114.159 139.467,114.477 139.559,114.796C140.718,114.889 141.878,114.982 143.037,115.075C143.029,115.597 143.021,116.119 143.013,116.641C139.507,116.641 135.984,116.852 132.497,116.584C128.573,116.283 124.689,115.495 120.773,115.044C119.88,114.941 118.797,115.125 118.025,115.567C111.533,119.28 105.035,122.991 98.688,126.942C97.432,127.724 96.818,129.536 95.52,131.442C98.493,132.026 100.375,132.396 102.257,132.765C102.357,133.093 102.456,133.42 102.555,133.747C97.702,135.756 92.849,137.764 87.447,139.392C86.858,135.935 86.649,132.847 86.826,129.781C86.994,126.871 87.566,123.985 87.962,121.54C88.197,126.565 88.43,131.137 88.662,135.71C89.167,135.952 89.672,136.195 90.177,136.437C91.165,134.849 92.943,133.292 93.006,131.668C93.307,123.947 93.14,116.208 93.14,108.476C92.753,108.421 92.365,108.367 91.978,108.312C91.485,111.042 90.993,113.773 90.359,117.292C90.054,114.611 89.837,112.694 89.619,110.778C89.302,110.768 88.985,110.757 88.667,110.747C88.324,111.6 87.981,112.453 87.323,113.546C84.475,113.166 81.941,112.546 79.228,111.883C79.228,119.222 79.228,126.877 79.228,133.105C81.69,135.654 83.365,137.389 85.041,139.123C79.316,138.072 73.592,137.021 67.868,135.97C67.912,135.39 67.957,134.809 68.002,134.229C70.529,133.52 73.057,132.81 77.041,131.692C74.198,130.117 72.577,128.921 70.761,128.265C63.12,125.509 55.538,122.444 47.686,120.493C44.579,119.72 40.824,121.553 36.867,122.589C35.728,123.468 35.087,123.958 34.446,124.448C34.649,124.75 34.851,125.053 35.054,125.355C36.069,124.714 37.083,124.072 38.098,123.431C39.898,123.669 41.699,123.908 44.252,124.246C39.353,126.872 35.36,127.125 30.69,125.087C24.709,122.476 18.324,120.789 11.039,118.343C13.879,117.74 16.403,117.933 17.588,116.767C19.044,115.334 19.985,112.795 20.09,110.682C20.402,104.376 20.334,98.038 20.089,91.725C20.034,90.299 19,88.331 17.82,87.656C15.763,86.48 13.291,85.969 13.972,82.857C14.797,79.087 11.284,73.922 17.509,71.812C18.268,71.555 19.305,70.518 19.296,69.855C19.247,66.271 20.394,63.201 24.167,62.993C28.607,62.749 33.215,63.051 37.532,64.053C40.036,64.634 42.111,67.058 44.53,69.139C44.294,69.865 43.907,70.104 43.521,70.343C39.55,68.517 36.215,69.514 32.918,72.206C31.978,72.973 29.978,72.382 28.477,72.536C26.761,72.713 25.058,73.028 23.211,74.139C40.726,80.232 58.242,86.325 74.621,92.023C77.645,88.81 79.948,86.363 82.25,83.916C82.128,83.309 82.005,82.701 81.883,82.093C86.966,84.019 92.05,85.946 97.993,88.198C100.986,86.587 105.161,84.341 109.645,81.928C108.636,81.237 108.062,80.844 107.822,80.68C110.663,79.921 113.688,79.114 117.315,78.032C118.338,77.477 118.759,77.195 119.181,76.914M165.443,57.497C162.382,59.393 159.32,61.289 155.921,63.394C155.82,64.425 155.662,66.035 155.409,68.609C160.597,65.694 165.098,63.165 169.598,60.635C169.38,60.23 169.162,59.825 168.945,59.42C167.775,59.177 166.605,58.934 165.482,58.714C165.482,58.714 165.522,58.703 165.999,58.508C165.995,58.336 165.99,58.165 166.429,57.783C166.353,57.617 166.276,57.451 166.2,57.286C166.099,57.344 165.904,57.421 165.912,57.459C165.951,57.666 166.04,57.863 165.443,57.497M170.742,74.549C170.548,73.785 170.354,73.021 169.827,70.944C169.281,73.167 169.069,74.031 168.038,75.016C167.29,78.921 166.503,82.82 165.805,86.735C165.107,90.645 166.928,92.112 170.408,91.771C170.408,86.106 170.408,80.645 170.742,74.549M121.065,80.05C120.041,80.993 119.016,81.936 117.193,82.895C111.845,82.887 114.016,87.414 112.204,89.765C111.736,88.478 111.268,87.191 110.514,85.12C105.869,90.252 96.442,89.473 97.366,99.863C103.25,96.478 108.768,93.303 114.972,90.025C119.423,87.538 123.873,85.051 128.888,82.249C128.888,84.743 128.888,86.348 128.161,88.33C127.743,89.498 127.004,90.655 126.963,91.836C126.772,97.309 126.534,102.802 126.847,108.257C126.947,109.993 128.694,111.634 129.687,113.319C130.119,113.065 130.551,112.81 130.983,112.556C131.202,109.08 131.421,105.605 131.64,102.129C132.032,102.135 132.423,102.141 132.814,102.146C132.99,105.742 133.166,109.338 133.353,113.148C138.587,110.396 138.673,110.396 138.696,105.976C138.735,98.675 138.65,91.372 138.856,83.204C138.807,81.117 138.759,79.03 138.83,76.178C138.538,74.086 138.246,71.994 137.962,69.195C136.779,65.255 133.235,64.619 127.43,67.337C127.612,68.544 127.796,69.767 127.385,71.144C128.255,72.426 129.125,73.707 129.476,75.101C129.649,75.404 129.822,75.708 130.069,76.501C130.069,76.501 129.996,76.99 129.477,77.102C129.653,77.398 129.828,77.695 130.105,78.741C130.075,79.496 130.045,80.25 129.287,81.262C124.898,83.423 127.868,78.689 125.563,77.911C124.645,78.404 123.18,79.191 121.065,80.05M65.328,100.17C71.132,102.125 76.936,104.081 82.98,106.118C82.98,103.388 82.98,100.971 82.98,97.498C73.369,95.338 63.697,93.459 54.207,90.906C49.559,89.654 45.388,86.996 41.109,84.568C33.824,80.436 25.349,78.4 17.026,75.356C17.7,78.092 18.268,80.399 19.152,83.984C33.385,88.978 48.984,94.451 65.328,100.17M42.652,95.793C41.772,95.483 40.891,95.173 39.602,94.719C39.602,100.949 39.602,106.648 39.602,112.359C43.451,111.347 47.033,110.405 50.264,109.556C50.096,105.106 55.349,106.604 57.58,103.104C55.559,101.686 53.629,99.973 51.399,98.866C48.888,97.62 46.106,96.92 42.652,95.793M145.428,79.3C150.866,81.137 156.304,82.973 162.07,84.92C162.07,79.407 162.07,74.249 162.07,68.092C155.888,71.922 150.359,75.346 145.428,79.3M176.946,81.415C176.946,76.52 176.946,71.625 176.946,66.588C175.966,67.139 175.262,67.535 174.441,67.996C174.093,66.199 173.819,64.783 173.545,63.366C173.312,63.402 173.08,63.438 172.847,63.473C172.847,72.601 172.847,81.728 172.847,91.29C179.141,89.907 176.196,85.376 176.946,81.415M167.548,18.529C168.462,16.548 169.376,14.566 170.55,12.022C168.388,11.907 165.895,11.774 162.793,11.609C162.442,15.656 162.131,19.24 161.796,23.112C164.085,23.249 165.605,23.34 167.321,23.443C167.385,21.995 167.444,20.683 167.548,18.529M85.545,105.606C96.019,102.54 95.109,100.778 93.516,94.27C85.311,97.914 85.311,97.914 85.545,105.606M147.009,68.647C143.712,69.827 140.581,71.117 142.37,75.661C153.086,69.965 153.086,69.965 152.38,64.742C150.646,65.86 149.012,66.915 147.009,68.647M161.941,41.948C162.595,42.952 163.248,43.956 163.901,44.96C164.504,44.468 165.705,43.78 165.618,43.512C164.222,39.227 167.342,33.843 161.942,29.776C161.942,33.953 161.942,37.511 161.941,41.948M91.952,89.452C88.112,86.79 84.308,87.591 80.383,89.467C84.25,92.496 88.99,92.774 91.952,89.452M175.925,56.336C176.274,56.746 176.769,57.571 176.948,57.507C181.114,56.019 181.743,53.028 180.636,49.356C180.075,49.137 179.514,48.918 178.953,48.699C177.968,51 176.982,53.301 175.925,56.336M175.999,44.089C173.539,44.515 171.08,44.941 168.621,45.367C172.435,47.818 176.025,49.409 179.203,45.38C178.262,44.964 177.527,44.639 175.999,44.089M33.826,65.581C30.645,65.581 27.463,65.581 24.282,65.581C24.298,66.119 24.314,66.658 24.33,67.196C27.768,68.722 31.186,69.857 33.826,65.581z"/><path fill="#1c1c1c" d="M73.766,54.247C85.385,58.171 96.62,61.993 107.854,65.815C107.755,66.238 107.655,66.66 107.556,67.082C105.355,66.66 103.093,66.434 100.962,65.782C91.282,62.82 81.674,59.618 71.96,56.777C69.26,55.988 66.286,56.139 63.438,55.859C63.318,56.322 63.198,56.786 63.078,57.249C64.297,57.982 65.516,58.715 67.77,60.071C62.887,59.468 59.183,59.01 55.479,58.553C55.364,59.076 55.249,59.599 55.134,60.121C67.738,64.676 80.342,69.231 92.946,73.786C92.828,74.23 92.711,74.673 92.594,75.117C91.029,74.802 89.413,74.641 87.907,74.147C77.184,70.627 66.524,66.91 55.748,63.564C53.019,62.716 49.944,62.98 46.102,62.655C46.56,63.564 46.139,62.881 46.202,62.832C50.53,59.52 48.4,51.442 55.393,50.191C61.177,49.157 66.668,49.832 71.471,53.646C71.942,54.02 72.736,53.988 73.766,54.247z"/><path fill="#191919" d="M97.585,50.428C101.163,51.8 104.374,53.022 107.586,54.244C107.377,54.774 107.167,55.304 106.958,55.835C96.362,53.99 86.86,47.301 76.96,49.078C77.924,45.8 78.617,42.824 79.708,40.001C80.251,38.595 81.27,37.069 82.509,36.292C87.075,33.43 92.203,35.08 97.276,38.301C102.339,41.514 108.322,43.379 114.048,45.422C120.762,47.816 127.644,49.735 134.431,51.93C135.818,52.379 137.103,53.14 138.436,53.756C138.257,54.225 138.078,54.694 137.899,55.163C136.304,54.713 134.696,54.302 133.115,53.807C122.206,50.389 111.339,46.829 100.367,43.626C98.123,42.971 95.105,40.291 93.022,44.79C92.635,45.626 88.893,44.91 86.699,44.91C86.645,45.493 86.591,46.077 86.538,46.66C90.098,47.866 93.659,49.073 97.585,50.428z"/><path fill="#dedede" d="M87.961,121.088C87.566,123.985 86.994,126.871 86.826,129.781C86.649,132.847 86.858,135.935 87.07,139.447C86.641,139.789 86.039,139.697 85.239,139.364C83.365,137.389 81.69,135.654 79.228,133.105C79.228,126.877 79.228,119.222 79.228,111.883C81.941,112.546 84.475,113.166 87.439,114.027C87.901,116.541 87.931,118.814 87.961,121.088z"/><path fill="#212221" d="M104.744,40.215C103.676,36.785 106.786,32.806 110.127,33.824C119.174,36.583 128.111,39.705 137.071,42.744C137.557,42.909 137.856,43.628 138.882,44.853C137.166,44.647 136.332,44.664 135.57,44.438C127.61,42.067 119.725,39.393 111.666,37.431C109.463,36.895 105.626,34.124 104.519,39.655C104.745,40.137 104.744,40.215 104.744,40.215z"/><path fill="#383839" d="M43.782,70.605C43.907,70.104 44.294,69.865 44.836,69.323C48.679,70.185 52.366,71.351 56.054,72.517C55.909,73.105 55.764,73.693 55.619,74.28C51.76,73.143 47.902,72.005 43.782,70.605z"/><path fill="#303030" d="M159.325,99.353C162.217,94.637 165.514,97.008 168.771,98.244C168.785,98.734 168.798,99.224 168.811,99.714C165.705,99.714 162.598,99.714 159.325,99.353z"/><path fill="#1c1c1c" d="M127.844,118.001C126.532,121.461 126.367,121.513 119.188,120.731C121.223,117.051 124.18,116.999 127.844,118.001z"/><path fill="#3a3b3b" d="M37.985,123.261C37.083,124.072 36.069,124.714 35.054,125.355C34.851,125.053 34.649,124.75 34.446,124.448C35.087,123.958 35.728,123.468 36.721,122.982C37.35,122.93 37.617,122.965 37.985,123.261z"/><path fill="#1b1b1c" d="M118.959,76.634C118.759,77.195 118.338,77.477 117.702,77.899C117.075,77.496 116.661,76.953 115.953,76.024C117.106,76.161 117.922,76.257 118.959,76.634z"/><path fill="#212221" d="M104.706,40.133C104.882,40.28 105.085,40.453 105.318,40.567C105.368,40.591 105.522,40.401 105.628,40.31C105.427,40.184 105.225,40.058 104.883,40.073C104.744,40.215 104.745,40.137 104.706,40.133z"/><path fill="#191919" d="M139.493,55.506C139.493,55.487 139.493,55.526 139.493,55.506z"/><path fill="#e8e9e8" d="M64.955,100.047C48.984,94.451 33.385,88.978 19.152,83.984C18.268,80.399 17.7,78.092 17.026,75.356C25.349,78.4 33.824,80.436 41.109,84.568C45.388,86.996 49.559,89.654 54.207,90.906C63.697,93.459 73.369,95.338 82.98,97.498C82.98,100.971 82.98,103.388 82.98,106.118C76.936,104.081 71.132,102.125 64.955,100.047z"/><path fill="#f1f1f1" d="M129.996,74.989C129.125,73.707 128.255,72.426 128.062,71.128C129.761,71.112 130.784,71.112 131.895,71.53C132.104,74.101 132.226,76.254 132.347,78.408C132.76,78.391 133.172,78.374 133.584,78.357C133.836,75.982 134.088,73.608 134.677,71.024C135.994,70.511 136.974,70.207 137.955,69.903C138.246,71.994 138.538,74.086 138.411,76.586C137.136,78.598 135.999,80.137 135.605,81.848C135.494,82.332 137.554,83.315 138.618,84.07C138.65,91.372 138.735,98.675 138.696,105.976C138.673,110.396 138.587,110.396 133.353,113.148C133.166,109.338 132.99,105.742 132.814,102.146C132.423,102.141 132.032,102.135 131.64,102.129C131.421,105.605 131.202,109.08 130.983,112.556C130.551,112.81 130.119,113.065 129.687,113.319C128.694,111.634 126.947,109.993 126.847,108.257C126.534,102.802 126.772,97.309 126.963,91.836C127.004,90.655 127.743,89.498 128.903,88.081C129.768,85.557 129.891,83.281 130.014,81.004C130.045,80.25 130.075,79.496 130.059,78.116C130.007,77.324 130.002,77.157 129.996,76.99C129.996,76.99 130.069,76.501 130.039,76C130.005,75.33 130,75.159 129.996,74.989z"/><path fill="#ededed" d="M43.047,95.888C46.106,96.92 48.888,97.62 51.399,98.866C53.629,99.973 55.559,101.686 57.58,103.104C55.349,106.604 50.096,105.106 50.264,109.556C47.033,110.405 43.451,111.347 39.602,112.359C39.602,106.648 39.602,100.949 39.602,94.719C40.891,95.173 41.772,95.483 43.047,95.888z"/><path fill="#f2f2f2" d="M145.129,79.036C150.359,75.346 155.888,71.922 162.07,68.092C162.07,74.249 162.07,79.407 162.07,84.92C156.304,82.973 150.866,81.137 145.129,79.036z"/><path fill="#f2f2f2" d="M87.962,121.54C87.931,118.814 87.901,116.541 87.754,113.787C87.981,112.453 88.324,111.6 88.667,110.747C88.985,110.757 89.302,110.768 89.619,110.778C89.837,112.694 90.054,114.611 90.359,117.292C90.993,113.773 91.485,111.042 91.978,108.312C92.365,108.367 92.753,108.421 93.14,108.476C93.14,116.208 93.307,123.947 93.006,131.668C92.943,133.292 91.165,134.849 90.177,136.437C89.672,136.195 89.167,135.952 88.662,135.71C88.43,131.137 88.197,126.565 87.962,121.54z"/><path fill="#e6e6e6" d="M176.947,81.897C176.196,85.376 179.141,89.907 172.847,91.29C172.847,81.728 172.847,72.601 172.847,63.473C173.08,63.438 173.312,63.402 173.545,63.366C173.819,64.783 174.093,66.199 174.441,67.996C175.262,67.535 175.966,67.139 176.946,66.588C176.946,71.625 176.946,76.52 176.947,81.897z"/><path fill="#e0e1e0" d="M114.287,90.128C108.768,93.303 103.25,96.478 97.366,99.863C96.442,89.473 105.869,90.252 110.514,85.12C111.268,87.191 111.736,88.478 112.905,89.903C113.833,90.07 114.06,90.099 114.287,90.128z"/><path fill="#e1e2e2" d="M114.629,90.076C114.06,90.099 113.833,90.07 113.265,90.007C114.016,87.414 111.845,82.887 117.863,83.18C119.593,82.302 120.654,81.14 121.715,79.977C123.18,79.191 124.645,78.404 125.563,77.911C127.868,78.689 124.898,83.423 129.651,81.133C129.891,83.281 129.768,85.557 129.266,87.893C128.888,86.348 128.888,84.743 128.888,82.249C123.873,85.051 119.423,87.538 114.629,90.076z"/><path fill="#e0e1e1" d="M167.525,18.95C167.444,20.683 167.385,21.995 167.321,23.443C165.605,23.34 164.085,23.249 161.796,23.112C162.131,19.24 162.442,15.656 162.793,11.609C165.895,11.774 168.388,11.907 170.55,12.022C169.376,14.566 168.462,16.548 167.525,18.95z"/><path fill="#f2f2f2" d="M170.408,75.184C170.408,80.645 170.408,86.106 170.408,91.771C166.928,92.112 165.107,90.645 165.805,86.735C166.503,82.82 167.29,78.921 168.709,74.994C169.723,75.042 170.065,75.113 170.408,75.184M168.525,78.44C168.579,78.198 168.633,77.956 168.687,77.715C168.554,77.867 168.422,78.019 168.525,78.44z"/><path fill="#ebebec" d="M85.412,105.239C85.311,97.914 85.311,97.914 93.516,94.27C95.109,100.778 96.019,102.54 85.412,105.239z"/><path fill="#d6d6d6" d="M165.435,58.691C166.605,58.934 167.775,59.177 168.945,59.42C169.162,59.825 169.38,60.23 169.598,60.635C165.098,63.165 160.597,65.694 155.409,68.609C155.662,66.035 155.82,64.425 155.921,63.394C159.32,61.289 162.382,59.393 165.745,57.764C166.046,58.032 165.985,57.993 165.985,57.993C165.99,58.165 165.995,58.336 165.713,58.873C165.477,59.383 165.528,59.527 165.579,59.672C165.738,59.517 165.897,59.362 166.055,59.208C165.848,59.035 165.642,58.863 165.435,58.691z"/><path fill="#d9d9d9" d="M147.193,68.308C149.012,66.915 150.646,65.86 152.38,64.742C153.086,69.965 153.086,69.965 142.37,75.661C140.581,71.117 143.712,69.827 147.193,68.308z"/><path fill="#cbcccb" d="M137.958,69.549C136.974,70.207 135.994,70.511 134.256,70.955C132.934,71.101 132.371,71.107 131.807,71.113C130.784,71.112 129.761,71.112 128.359,71.051C127.796,69.767 127.612,68.544 127.43,67.337C133.235,64.619 136.779,65.255 137.958,69.549z"/><path fill="#f2f2f2" d="M161.941,41.508C161.942,37.511 161.942,33.953 161.942,29.776C167.342,33.843 164.222,39.227 165.618,43.512C165.705,43.78 164.504,44.468 163.901,44.96C163.248,43.956 162.595,42.952 161.941,41.508z"/><path fill="#e8e9e8" d="M91.995,89.85C88.99,92.774 84.25,92.496 80.383,89.467C84.308,87.591 88.112,86.79 91.995,89.85z"/><path fill="#dcdddd" d="M175.961,55.969C176.982,53.301 177.968,51 178.953,48.699C179.514,48.918 180.075,49.137 180.636,49.356C181.743,53.028 181.114,56.019 176.948,57.507C176.769,57.571 176.274,56.746 175.961,55.969z"/><path fill="#e9eae9" d="M176.396,44.201C177.527,44.639 178.262,44.964 179.203,45.38C176.025,49.409 172.435,47.818 168.621,45.367C171.08,44.941 173.539,44.515 176.396,44.201z"/><path fill="#dadada" d="M34.094,65.906C31.186,69.857 27.768,68.722 24.33,67.196C24.314,66.658 24.298,66.119 24.282,65.581C27.463,65.581 30.645,65.581 34.094,65.906z"/><path fill="#cbcccb" d="M138.737,83.637C137.554,83.315 135.494,82.332 135.605,81.848C135.999,80.137 137.136,78.598 138.351,76.968C138.759,79.03 138.807,81.117 138.737,83.637z"/><path fill="#1b1b1c" d="M121.39,80.014C120.654,81.14 119.593,82.302 118.262,83.172C119.016,81.936 120.041,80.993 121.39,80.014z"/><path fill="#aaabab" d="M170.575,74.866C170.065,75.113 169.723,75.042 169.119,74.933C169.069,74.031 169.281,73.167 169.827,70.944C170.354,73.021 170.548,73.785 170.575,74.866z"/><path fill="#d6d6d6" d="M166.079,58.047C166.04,57.863 165.951,57.666 165.912,57.459C165.904,57.421 166.099,57.344 166.2,57.286C166.276,57.451 166.353,57.617 166.207,57.888C165.985,57.993 166.046,58.032 166.079,58.047z"/><path fill="#e1e2e2" d="M129.737,77.046C130.002,77.157 130.007,77.324 130.008,77.741C129.828,77.695 129.653,77.398 129.737,77.046z"/><path fill="#e1e2e2" d="M129.736,75.045C130,75.159 130.005,75.33 130.003,75.756C129.822,75.708 129.649,75.404 129.736,75.045z"/><path fill="#cecfce" d="M131.895,71.53C132.371,71.107 132.934,71.101 133.919,71.164C134.088,73.608 133.836,75.982 133.584,78.357C133.172,78.374 132.76,78.391 132.347,78.408C132.226,76.254 132.104,74.101 131.895,71.53z"/><path fill="#aaabab" d="M168.407,78.305C168.422,78.019 168.554,77.867 168.687,77.715C168.633,77.956 168.579,78.198 168.407,78.305z"/><path fill="#0d0d0d" d="M165.458,58.702C165.642,58.863 165.848,59.035 166.055,59.208C165.897,59.362 165.738,59.517 165.579,59.672C165.528,59.527 165.477,59.383 165.474,58.971C165.522,58.703 165.482,58.714 165.458,58.702z"/></svg>