<svg xmlns="http://www.w3.org/2000/svg" viewBox="0 0 224 192" xml:space="preserve"><path fill="#000000" opacity="1.000000" stroke="none" 
	d="
M225.000000,170.550018 
	C223.652939,170.418457 222.341003,170.350815 221.434143,171.689102 
	C220.283829,173.386642 218.431946,173.672562 216.997604,173.029663 
	C212.740250,171.121460 209.333298,173.022659 205.826447,174.912811 
	C204.620941,176.447098 207.759491,176.818954 206.301498,178.783875 
	C202.638107,180.241898 198.873764,179.499344 194.995270,176.164505 
	C194.363068,182.796921 189.700684,183.185211 185.212448,183.071762 
	C180.662415,182.956726 176.310181,182.461075 171.907639,180.025681 
	C168.456696,178.116699 163.488678,178.615509 159.302277,180.210663 
	C156.341537,181.338806 153.489273,181.390167 150.682663,179.879807 
	C150.328873,177.595306 152.832077,178.229034 153.640198,176.917679 
	C150.821075,173.357300 147.662735,173.100586 144.248199,175.743134 
	C140.183426,178.888931 135.135345,179.210556 129.129333,175.972748 
	C136.049744,174.344986 142.816467,174.104172 147.676529,169.132553 
	C130.768646,171.761566 113.689384,171.049957 96.183090,169.853333 
	C96.162727,171.512909 98.334114,171.908524 97.395241,173.678070 
	C94.389748,173.922806 91.750992,177.094223 89.351624,177.487686 
	C80.736794,178.900375 73.240723,185.145309 63.948231,183.302216 
	C61.842785,182.884613 59.670635,182.832016 57.887051,181.628693 
	C57.075798,179.581070 59.638180,178.274124 58.675648,176.017868 
	C55.990673,175.411331 53.406525,176.292755 50.579868,177.236511 
	C51.468937,179.079208 52.132885,180.903229 49.308762,181.078690 
	C44.749706,181.361938 40.122734,181.954208 35.762058,179.573898 
	C36.662083,177.063171 39.186569,177.434509 40.921638,175.969452 
	C37.250740,174.283401 33.140907,174.085739 30.008148,171.478516 
	C28.642744,170.342163 27.294773,171.322830 26.132915,172.507248 
	C23.667196,175.020859 18.376562,175.964355 17.709730,174.399734 
	C15.384236,168.943253 10.156982,171.577515 6.379984,169.023193 
	C10.653041,165.246048 11.414419,159.564468 15.370433,155.600052 
	C19.528578,151.433075 17.963316,145.225250 19.597927,140.090759 
	C20.046524,138.681671 20.330572,137.146423 20.310339,135.674301 
	C20.209129,128.310303 24.274450,123.660408 30.174725,120.155045 
	C33.320374,118.286201 34.522045,115.573158 34.793037,111.897652 
	C35.269417,105.436447 36.465828,99.031357 37.072086,92.575661 
	C37.477467,88.259010 39.262142,84.819382 42.931999,82.759224 
	C50.805298,78.339355 52.354145,71.052757 52.714523,62.971584 
	C52.909168,58.606911 52.884434,54.120476 55.470718,48.833286 
	C60.541630,55.724163 60.834721,63.635464 64.919518,70.140495 
	C69.396988,66.278282 73.436119,63.313736 72.140457,56.100552 
	C70.812943,48.710056 72.365120,41.396416 78.401009,35.490005 
	C84.231277,29.784809 85.978966,22.031906 87.125710,14.141191 
	C87.398621,12.263332 86.768402,9.060644 89.576935,8.734132 
	C92.460480,8.398898 92.998291,11.554813 93.896706,13.531598 
	C97.768356,22.050385 98.050072,30.853800 95.723259,39.874565 
	C94.650681,44.032867 94.682922,48.112465 98.945068,50.997402 
	C101.456833,48.995052 100.482704,44.990955 103.523506,43.565414 
	C107.023476,44.465443 107.055450,48.783096 110.367241,50.217163 
	C115.109886,42.002911 114.892189,31.962973 120.438347,22.987707 
	C125.890427,31.848186 126.621376,41.503521 130.447525,50.016201 
	C133.537872,48.562183 133.938263,44.994274 137.091766,43.959541 
	C140.238754,45.301487 139.451263,49.097118 141.498260,51.588974 
	C145.896683,48.584541 146.846451,44.546970 145.538498,39.628304 
	C143.056137,30.293322 143.317886,21.193590 148.033691,12.512637 
	C149.087097,10.573533 149.087219,10.573600 151.740112,8.666392 
	C154.027039,9.819654 154.071182,12.074152 154.285858,14.175919 
	C155.249283,23.608255 159.079315,31.619057 165.348541,38.768784 
	C170.682632,44.852028 169.603851,52.409569 168.444366,59.635223 
	C167.348328,66.465393 167.956818,68.223434 174.331985,72.184937 
	C178.297150,66.522125 178.242004,58.966545 182.475967,53.496353 
	C185.338409,54.245667 185.044678,56.307915 185.219803,58.039639 
	C186.289627,68.618820 187.332535,79.200806 188.347534,89.785393 
	C188.609207,92.514130 189.150879,95.287758 191.276810,97.030670 
	C198.801956,103.200096 200.299759,111.839287 201.165375,120.671402 
	C201.523911,124.329750 202.746216,127.003525 206.063156,128.699890 
	C212.712021,132.100281 215.917648,137.573120 216.474136,145.040329 
	C216.953354,151.470825 219.439987,157.203751 224.766479,161.759262 
	C225.000000,164.700012 225.000000,167.400024 225.000000,170.550018 
M161.753403,136.581924 
	C159.547012,140.066803 159.348923,154.638306 161.574875,158.724854 
	C164.180771,155.023346 161.844284,150.022079 164.746384,146.737747 
	C166.837021,146.276047 166.530319,148.407013 167.602066,148.951706 
	C169.287460,143.437698 169.220428,141.721970 167.009979,136.635223 
	C165.341278,137.144333 163.541489,137.225311 161.931137,135.233444 
	C161.990387,133.640060 161.242966,131.966324 162.358002,130.468124 
	C164.535263,130.410995 163.743546,134.075287 166.871231,133.387131 
	C166.454453,125.671875 164.549118,118.695541 157.846573,113.093170 
	C158.071655,116.161026 158.981140,118.889503 157.069626,121.776779 
	C154.570923,118.884644 152.506851,115.933640 147.458755,114.794144 
	C152.963257,121.143021 156.386246,127.278641 158.810822,133.973938 
	C159.305237,135.339203 160.686859,135.756134 161.753403,136.581924 
M170.913773,82.285233 
	C170.373367,80.571976 171.363510,78.254906 168.858673,76.993385 
	C167.773407,78.547188 166.799606,79.941376 165.825821,81.335571 
	C168.361282,80.015701 169.852707,80.959282 170.773148,83.678040 
	C170.444687,84.794029 170.340073,86.048790 169.749115,87.002045 
	C167.153244,91.189461 167.583359,94.932304 170.501526,98.883492 
	C171.813080,100.659332 173.463104,102.840508 172.515427,105.889458 
	C168.556778,103.969322 167.374680,99.405762 163.530014,97.846336 
	C161.658035,99.051964 159.902466,100.262054 158.817581,102.282608 
	C159.866852,105.848282 162.803284,107.348770 165.773056,108.588913 
	C165.248062,113.994789 167.108749,118.918243 170.645081,121.723633 
	C172.548035,120.199921 171.685806,116.919838 174.698685,115.270012 
	C176.240204,121.603943 170.778778,127.207626 173.870377,132.923248 
	C175.600876,133.633850 176.547943,130.377518 178.630463,132.531006 
	C174.994232,140.561203 172.107513,148.992294 170.863602,157.870758 
	C174.885681,159.391220 174.885956,159.391418 176.961746,156.456894 
	C178.308670,154.552750 179.390030,152.369736 181.048019,150.792816 
	C187.407806,144.744049 191.183182,141.788132 199.185181,146.700851 
	C203.336227,149.249329 206.532227,152.390640 209.279663,157.105438 
	C209.193161,152.660767 206.895737,149.056961 208.763885,145.510025 
	C211.516510,140.283829 210.658951,137.433167 205.376160,135.566895 
	C202.921539,138.236267 206.453537,141.623932 204.433868,144.773499 
	C200.826218,142.433914 199.050003,138.983368 196.893799,135.948990 
	C192.577499,129.874664 191.518845,123.297615 194.320312,116.179695 
	C195.806091,112.404678 193.567322,106.920479 189.896439,104.386147 
	C185.744659,115.260658 186.270020,126.010605 190.887589,136.674164 
	C191.520569,138.135910 192.631348,140.041214 190.620316,141.384644 
	C189.426376,141.197998 188.859604,140.623032 188.639206,139.756149 
	C185.769180,128.467712 182.421600,117.321281 178.958862,106.201569 
	C178.142609,103.580383 179.086960,100.887108 182.016708,98.650314 
	C182.218857,101.371323 182.375092,103.474167 182.605240,106.571960 
	C183.762924,89.478462 182.678253,86.549644 173.979172,81.742004 
	C174.127884,84.925728 177.399704,87.869179 174.976379,92.718651 
	C173.337982,88.761086 172.152924,85.898575 170.913773,82.285233 
M148.307388,80.378044 
	C152.802719,75.386993 151.481064,69.995865 147.850708,63.710468 
	C152.643967,65.551796 153.046585,69.471390 156.009293,71.085991 
	C159.282288,68.535133 162.243851,65.636292 161.699692,61.245239 
	C161.131958,56.663887 157.755844,54.172054 153.467239,52.803558 
	C148.347076,51.169712 145.976562,54.981598 143.041367,57.599831 
	C143.334534,59.800293 146.719955,59.938297 145.817398,62.721001 
	C145.349960,62.721001 144.856400,62.831116 144.433487,62.704773 
	C135.604507,60.067173 134.972351,60.343334 129.617859,68.025185 
	C128.263184,69.968681 127.222328,72.482979 122.996681,72.903610 
	C126.951675,67.789940 124.499931,63.201267 123.522034,58.522881 
	C122.978554,55.922829 121.348976,52.684566 122.306183,50.798149 
	C125.188309,45.118206 121.541389,40.902637 120.487167,36.068909 
	C118.744385,40.888489 117.773643,45.823410 116.042526,50.475380 
	C113.550690,57.171593 112.471306,63.562664 116.992790,69.826141 
	C117.373940,70.354149 117.307487,71.083733 116.466049,71.576279 
	C114.081451,70.874435 113.024307,68.781410 111.790497,66.827126 
	C107.898170,60.661842 104.612137,59.751625 98.351303,62.977715 
	C97.529083,63.401386 96.645401,64.193390 95.631065,63.235783 
	C94.886955,60.781471 98.268791,60.342957 98.087021,57.880047 
	C95.469490,54.570271 92.517883,51.060902 87.486496,52.834457 
	C83.306740,54.307823 79.825386,57.119236 78.919151,61.843796 
	C78.318863,64.973312 82.825523,70.493027 87.157196,72.508774 
	C89.013916,70.119453 88.818993,66.103188 92.689964,65.219330 
	C93.613525,66.578224 92.934830,67.456909 92.460335,68.287125 
	C90.242821,72.167061 89.456627,75.925545 92.403358,79.929443 
	C93.616341,81.577606 93.574638,83.664375 92.335678,85.584229 
	C89.614372,89.801071 89.167992,93.909096 93.176376,97.214798 
	C93.260338,99.466095 90.728409,99.982170 91.216675,102.835884 
	C95.879295,102.177147 101.406837,98.920860 104.529411,105.688416 
	C107.188217,102.253616 109.673248,99.759178 108.895065,95.884026 
	C99.925827,94.404312 99.369888,93.887688 96.984573,85.490547 
	C96.674950,84.400536 96.169777,83.326942 95.562965,82.367287 
	C92.969398,78.265678 93.398628,75.592384 97.300323,72.678680 
	C97.547562,72.494049 98.160500,72.799103 98.560005,72.868782 
	C98.995842,74.564140 96.773514,75.536201 97.882881,77.518715 
	C100.993011,79.098053 104.205978,81.106522 106.559959,84.263161 
	C107.942879,86.117615 109.242874,88.085724 111.290428,89.355133 
	C113.855392,90.945328 115.121346,87.279198 118.660706,87.817307 
	C113.621452,92.827530 114.718590,98.354256 116.950462,105.607018 
	C111.459854,101.206497 109.266502,103.946114 107.422600,106.908775 
	C105.960884,109.257370 105.073570,112.492935 107.632721,114.113014 
	C110.179726,115.725426 110.308685,117.544006 110.354095,119.890182 
	C110.381958,121.329712 110.163361,122.936066 111.930931,123.757202 
	C113.665024,123.026443 112.113266,120.305458 114.341316,119.847931 
	C117.072678,121.432022 117.540169,126.012657 120.927254,126.137184 
	C124.217957,126.258156 124.351295,121.192307 127.853561,120.106094 
	C128.177643,122.056290 128.458710,123.747604 128.882263,126.296402 
	C129.744461,124.828178 130.336288,124.195778 130.508148,123.464653 
	C131.392166,119.704109 130.073349,115.409737 134.462646,112.524925 
	C135.743576,111.683052 135.502670,107.836151 132.352219,105.816605 
	C131.278137,110.264618 129.198105,113.616669 124.915833,115.729271 
	C122.294945,110.084595 126.956345,107.203125 128.750458,103.470642 
	C127.371773,102.965027 126.152985,105.411301 124.533440,103.466339 
	C125.330269,101.076012 126.038261,98.530258 127.025055,96.097580 
	C128.290482,92.978020 123.734047,91.438866 125.188507,87.946228 
	C129.701157,91.469635 131.755142,88.286743 134.045074,84.978836 
	C135.243469,83.247734 136.938492,81.683372 138.739899,80.587021 
	C141.660858,78.809296 144.630020,77.334656 142.592514,72.039375 
	C146.700562,74.748459 148.377884,77.297279 147.416946,81.367981 
	C145.845840,82.343346 144.450455,83.294373 144.302185,85.508690 
	C143.931122,91.050644 140.921906,94.470207 135.376602,95.240181 
	C131.880493,95.725632 131.813675,97.940247 132.724197,100.284668 
	C133.464203,102.190063 134.391281,104.279907 136.689133,105.166000 
	C138.907181,104.251160 138.806839,101.325638 141.192245,100.291382 
	C143.656357,103.197395 146.795853,103.200882 150.059265,102.094734 
	C150.584366,99.642189 147.810440,99.454460 147.722076,97.106445 
	C151.839920,93.897865 151.029343,89.746513 148.895157,85.349998 
	C148.261856,84.045357 148.256042,82.436111 148.307388,80.378044 
M35.695335,138.087006 
	C34.272648,141.681366 34.014381,145.878754 30.381870,148.489380 
	C32.015091,141.029831 31.814848,133.626312 31.722542,126.055847 
	C28.216221,127.474823 27.072639,130.104385 25.804756,133.428833 
	C23.216568,140.215149 27.657984,147.784653 22.625971,153.969391 
	C24.620094,155.698288 26.291044,157.279922 28.637127,157.165955 
	C30.648388,155.940079 30.528154,150.807968 34.495697,154.378906 
	C35.700302,152.381882 36.819351,150.326965 38.124348,148.397858 
	C43.704342,140.149246 53.752079,138.946915 60.664436,145.758057 
	C63.519222,148.571060 66.145844,151.615616 69.182205,154.884216 
	C68.875793,147.844513 68.792648,141.340927 66.407501,135.172989 
	C65.764702,133.510712 65.440323,131.428345 63.109650,131.253281 
	C61.046616,131.098343 59.825569,132.535522 58.592216,133.949265 
	C57.175724,135.572952 56.733212,138.218964 53.978382,138.765640 
	C53.773827,129.694778 64.727615,129.952576 66.605240,122.882797 
	C68.223320,122.356087 68.061981,125.175629 70.522202,124.269348 
	C72.849831,116.394341 75.919617,108.232162 83.636581,103.168411 
	C81.757263,100.425545 79.651260,99.146049 77.562149,97.840225 
	C72.531044,100.418083 70.468040,105.542137 66.763657,110.383957 
	C66.139534,104.629128 68.467873,100.764435 70.869690,97.147057 
	C72.966042,93.989754 74.049706,91.322670 71.987602,87.609764 
	C70.828979,85.523621 69.828972,82.739151 71.445320,80.315971 
	C73.795334,79.829071 74.708847,82.328476 76.816978,82.091942 
	C75.807533,78.613754 73.978889,76.040657 70.725250,74.538940 
	C69.563774,77.192757 69.135498,80.067223 66.938217,81.957726 
	C64.969307,81.018425 67.016098,79.348862 65.951454,78.355659 
	C60.240582,85.066422 59.450218,93.255844 58.354786,101.344757 
	C59.943356,102.018669 60.718456,99.867493 62.686451,101.927101 
	C55.712322,109.579079 55.381920,120.404297 50.848633,129.606918 
	C50.701294,114.109177 55.809067,98.860367 50.783848,83.605507 
	C41.853313,89.278664 41.859901,89.277206 44.075748,99.317078 
	C44.326309,100.452354 44.255089,101.691498 44.667084,102.752823 
	C46.870789,108.429703 47.155140,113.191139 42.709068,118.672554 
	C38.606194,123.730835 38.335918,131.119003 35.695335,138.087006 
M59.944191,166.109650 
	C58.869808,161.997650 55.856705,158.334961 56.638271,152.990326 
	C61.514584,156.474777 61.026184,161.948212 63.422363,165.881760 
	C66.861366,164.558548 66.748352,162.302063 65.455498,159.792908 
	C63.061710,155.147079 59.515125,151.439316 55.850494,147.767029 
	C52.958607,144.869125 50.451794,145.910416 47.350792,147.269958 
	C44.206345,148.648544 43.785000,150.696991 44.347656,153.590942 
	C45.036549,157.134140 44.403484,160.113022 40.423378,161.727478 
	C39.384983,159.145767 41.693932,157.102890 41.284386,153.779480 
	C39.250637,158.179810 37.585339,161.599945 36.090183,165.092926 
	C35.308987,166.917938 34.354862,169.224197 36.905807,170.272293 
	C39.352821,171.277664 42.222267,172.938629 44.347485,169.364090 
	C45.190804,167.945679 46.320789,166.685501 47.402493,165.423767 
	C49.152561,163.382416 50.732414,163.371155 51.906235,165.997543 
	C52.448605,167.211075 52.881973,168.473328 53.424980,169.686554 
	C54.707497,172.552063 56.870567,171.439529 58.965527,170.941040 
	C61.900768,170.242630 60.964787,168.502472 59.944191,166.109650 
M80.385643,128.880630 
	C79.228554,131.303421 79.055275,135.299545 76.294685,135.560120 
	C71.725929,135.991348 72.568832,138.511444 73.147522,141.044678 
	C73.656631,143.273361 74.728088,145.373581 75.622856,147.718307 
	C76.941849,147.293869 76.299637,144.719452 78.845055,145.676270 
	C78.926788,149.857346 76.683907,154.782990 80.944977,158.594757 
	C81.115173,151.048660 82.901741,143.460541 80.037292,136.844742 
	C85.451813,130.914398 85.764984,122.667900 91.786926,116.931648 
	C87.546455,117.039589 86.354637,120.405098 83.204468,121.213501 
	C82.100288,116.435028 87.530685,116.447502 88.308060,113.294716 
	C83.772018,109.626892 81.751183,113.910309 79.813240,116.448540 
	C74.301262,123.667824 73.249634,129.192368 76.205666,131.703995 
	C78.475838,131.569687 76.648399,126.855453 80.385643,128.880630 
M184.895218,168.628830 
	C187.225418,169.405472 189.555634,170.182114 192.005524,170.998642 
	C197.487091,166.227539 195.825165,158.587128 199.443130,153.206573 
	C193.896454,148.480911 190.647964,148.367340 186.238678,152.541077 
	C179.664246,158.764374 179.199539,162.364227 184.895218,168.628830 
M174.734589,172.714096 
	C177.131775,170.970291 178.931274,168.761108 176.005356,166.348389 
	C172.914398,163.799591 168.979492,161.968491 164.989548,163.243347 
	C160.641678,164.632568 157.728073,167.951157 156.720490,172.786652 
	C161.535919,174.634842 165.783798,176.531708 168.445938,170.114746 
	C169.190689,168.319534 171.334457,166.997971 173.778763,167.100403 
	C174.864899,169.266418 173.559479,170.818207 172.867645,172.659119 
	C172.307022,174.150879 173.692551,173.217560 174.734589,172.714096 
M162.329926,43.313679 
	C155.007782,38.975159 151.128601,40.902706 150.460434,49.353577 
	C155.047943,50.541161 159.692612,51.725838 163.590607,55.879826 
	C163.759933,51.339329 164.354736,47.585114 162.329926,43.313679 
M87.133705,50.769180 
	C89.596245,50.302505 91.665131,49.675262 90.539986,46.310848 
	C89.588631,43.466167 88.535049,40.933235 84.925903,41.137348 
	C81.082169,41.354733 78.094727,42.944004 77.471367,47.043095 
	C77.059280,49.752941 76.865395,52.568501 77.749214,55.727135 
	C80.210701,52.949100 83.426399,52.166946 87.133705,50.769180 
M85.314896,170.105072 
	C78.131699,163.441208 73.055397,163.363892 68.908318,170.126190 
	C71.655334,171.549271 74.414452,172.908401 76.949188,174.748611 
	C79.529007,176.621567 82.768959,175.330307 85.489273,174.122925 
	C87.144455,173.388290 86.355057,171.892014 85.314896,170.105072 
M90.834404,21.403460 
	C89.051308,26.841257 87.197052,32.249840 83.475189,37.267502 
	C86.279396,38.055859 88.284851,38.619659 90.813988,39.330685 
	C92.284447,33.052750 93.980095,27.379774 90.834404,21.403460 
M153.350006,38.419937 
	C154.479813,37.584648 156.441925,38.373158 157.163910,36.354794 
	C153.881195,31.400496 151.569733,25.913284 150.194717,19.118664 
	C148.516861,25.254578 148.595703,30.508215 149.448166,35.756542 
	C149.719284,37.425682 149.830902,39.763435 153.350006,38.419937 
M57.103077,68.548241 
	C55.954651,73.741638 56.605347,78.972771 56.428078,84.454254 
	C62.779736,79.685310 60.741600,72.666412 57.352772,67.055763 
	C57.281689,67.199463 57.185863,67.336723 57.146351,67.488632 
	C57.105419,67.646011 57.119080,67.817581 57.103077,68.548241 
M23.905811,163.654633 
	C24.490810,162.918579 25.829817,162.906189 25.868929,161.640366 
	C19.891987,157.799316 16.980288,159.192505 16.197458,166.175644 
	C19.686537,169.143829 21.444242,166.282120 23.905811,163.654633 
M203.543365,170.206360 
	C206.784042,169.841431 207.374252,167.994583 206.164963,165.308945 
	C204.939941,162.588272 203.585938,159.925705 201.998596,156.637253 
	C201.471359,160.138657 204.785614,162.160599 203.581421,164.958023 
	C201.218781,165.410370 201.598083,162.243820 199.585358,162.514328 
	C199.234314,165.774292 199.891556,168.486481 203.543365,170.206360 
M186.598984,177.015717 
	C187.459717,176.789810 188.889328,176.879562 187.764267,175.358871 
	C186.608459,173.796600 184.964951,173.078323 183.027328,173.335266 
	C180.721085,173.641083 179.207520,174.855713 178.762207,177.298065 
	C181.348572,179.072037 183.708160,179.373245 186.598984,177.015717 
M160.320953,91.971359 
	C161.282791,90.890129 162.244644,89.808899 163.434341,88.471527 
	C153.291412,90.185501 153.291412,90.185501 154.220886,94.932037 
	C156.601196,95.245956 158.186737,93.767738 160.320953,91.971359 
M86.569496,93.511635 
	C87.008011,86.430962 81.185944,89.952530 78.382469,88.347397 
	C80.382431,91.137009 82.063148,94.345055 86.569496,93.511635 
M113.080177,165.979172 
	C111.842346,165.979172 110.604515,165.979172 109.366684,165.979172 
	C125.966545,168.548599 126.944107,168.518555 130.747818,165.986862 
	C125.411354,165.986862 119.670654,165.986862 113.080177,165.979172 
M181.536575,74.958534 
	C181.371460,73.078659 181.206345,71.198792 181.041229,69.318916 
	C180.619324,72.836952 176.080124,76.315941 180.439270,80.388733 
	C182.090546,78.635902 181.476547,77.105148 181.536575,74.958534 
M217.701599,161.919312 
	C217.173355,161.571213 216.675079,160.989151 216.111496,160.917007 
	C214.073715,160.656036 212.508102,161.635925 211.924164,163.513367 
	C211.611404,164.518921 212.045349,165.927551 213.376907,166.295532 
	C215.793823,166.963486 215.704956,164.612823 216.603348,163.444702 
	C216.899750,163.059357 217.301239,162.754837 217.701599,161.919312 
M67.148827,178.772339 
	C68.302551,178.839401 69.847893,180.168564 70.317833,177.940399 
	C70.590233,176.648880 70.026741,175.634399 68.629898,175.383865 
	C66.917061,175.076660 65.048080,175.128403 64.376228,176.964340 
	C63.702995,178.804062 65.570999,178.398911 67.148827,178.772339 
M42.771660,108.293839 
	C42.610729,107.520271 42.615078,106.643425 41.317600,106.339066 
	C40.039005,108.721542 39.731583,111.104149 40.827023,113.801453 
	C43.274502,112.591354 42.917976,110.726845 42.771660,108.293839 
z"/><path fill="#000000" opacity="1.000000" stroke="none" 
	d="
M109.630692,177.398132 
	C105.041328,178.714890 100.941856,178.356873 96.483833,176.926041 
	C100.073334,173.981049 107.822952,173.356842 110.667542,175.574661 
	C111.715073,176.391373 110.763809,176.922867 109.630692,177.398132 
z"/><path fill="#000000" opacity="1.000000" stroke="none" 
	d="
M116.746735,109.388062 
	C118.034554,111.754463 118.508949,113.749733 116.452888,115.764015 
	C113.705833,115.003204 112.439026,112.501221 110.845856,110.543381 
	C109.555313,108.957413 108.942825,106.674530 111.124565,105.300858 
	C113.227448,103.976837 114.400459,105.884804 115.481529,107.374367 
	C115.870964,107.910950 116.195587,108.494583 116.746735,109.388062 
z"/><path fill="#000000" opacity="1.000000" stroke="none" 
	d="
M111.908630,75.231979 
	C113.534302,77.598289 115.681259,79.401497 115.269920,82.905937 
	C111.227623,80.887596 109.840958,77.446571 107.729942,74.519386 
	C109.680817,73.119598 110.658440,74.134285 111.908630,75.231979 
z"/><path fill="#000000" opacity="1.000000" stroke="none" 
	d="
M133.320953,73.223175 
	C134.966568,72.912544 136.600418,73.417046 135.343735,74.679352 
	C133.165039,76.867813 131.695572,80.000511 128.014206,81.316673 
	C127.700859,77.033348 130.213318,75.117874 133.320953,73.223175 
z"/></svg>