<svg xmlns="http://www.w3.org/2000/svg" viewBox="0 0 237 158" xml:space="preserve"><path fill="#050505" d="M134.883,150.821C124.61,150.826 114.823,150.826 104.054,150.826C104.727,132.19 105.385,113.988 106.074,94.93C100.429,95.252 95.041,95.56 89.652,95.868C77.036,96.588 77.04,96.589 74.985,109.19C74.369,112.967 73.727,116.74 73.052,120.782C77.444,121.66 80.063,120.338 80.568,115.615C80.887,112.64 81.438,109.691 81.87,106.728C81.966,106.07 81.922,105.385 82.069,104.741C82.746,101.772 91.218,99.358 97.171,100.243C101.592,100.901 101.09,103.882 100.709,106.978C99.108,119.963 97.553,132.954 95.946,145.938C95.765,147.407 95.362,148.848 95.103,150.106C82.593,150.106 70.349,150.106 57.675,150.106C58.202,146.171 58.806,142.919 58.99,139.643C59.06,138.395 58.166,137.092 57.711,135.814C56.356,136.529 54.408,136.904 53.764,138.027C52.21,140.739 51.414,143.876 49.999,146.684C49.444,147.785 48.062,149.202 47.036,149.219C36.093,149.403 25.146,149.333 13.596,149.333C13.967,147.623 14.207,145.717 14.814,143.937C15.455,142.06 16.696,140.373 17.238,138.479C19.101,131.957 21.636,126.954 29.946,126.813C34.43,126.737 37.575,123.261 36.827,117.768C35.949,111.332 38.064,104.438 33.37,98.546C32.651,97.644 33.71,95.095 34.289,93.427C37.639,83.763 41.091,74.134 43.842,66.377C46.785,74.215 50.668,84.252 54.228,94.403C54.706,95.767 53.591,97.71 53.153,99.369C52.652,101.267 52.083,103.146 51.471,105.285C57.92,105.201 62.605,101.032 62.682,95.699C62.815,86.538 64.245,77.026 62.309,68.287C59.001,53.35 68.335,41.654 69.238,28.016C69.886,27.957 70.534,27.898 71.182,27.839C74.5,39.586 77.819,51.333 81.205,63.321C85.255,61.719 90.374,62.433 91.215,56.457C91.299,55.862 93.08,55.151 94.101,55.105C97.748,54.941 101.406,55.041 105.462,55.041C105.741,63.58 114.718,61.251 119.604,66.942C119.604,58.303 119.491,51.089 119.66,43.882C119.727,40.988 120.021,37.983 120.893,35.246C123.214,27.965 125.806,20.763 128.526,13.62C129.15,11.984 130.727,10.71 131.865,9.269C132.7,10.712 133.895,12.058 134.309,13.613C136.619,22.29 138.886,30.985 140.819,39.751C141.282,41.848 140.225,44.235 140.202,46.492C140.116,55.109 140.168,63.728 140.168,72.889C142.685,72.889 144.806,72.836 146.924,72.898C155.086,73.138 155.489,73.504 155.764,81.821C155.896,85.803 155.787,89.792 155.787,93.83C163.68,92.903 164.038,92.558 163.845,85.499C163.631,77.694 161.711,69.499 163.48,62.187C165.696,53.022 170.877,44.567 174.966,35.893C175.106,35.595 177.584,35.876 178.374,36.569C179.043,37.155 178.95,38.725 179.014,39.869C180.085,59.162 181.116,78.457 182.196,97.75C182.324,100.043 182.689,102.323 182.979,104.923C185.322,105.074 187.399,105.209 190.778,105.427C189.541,102.678 188.479,100.929 187.98,99.032C187.491,97.176 186.673,94.434 187.557,93.349C192.725,87.005 193.998,79.626 194.38,71.86C194.444,70.574 194.863,69.306 195.287,67.182C196.507,68.277 197.564,68.792 197.92,69.612C201.766,78.447 205.54,87.313 209.215,96.22C209.664,97.308 209.97,99.337 209.399,99.824C204.57,103.944 207.72,109.057 207.308,113.721C206.545,122.348 210.968,126.739 218.787,128.648C222.582,129.574 224.539,131.809 225.171,135.87C225.838,140.162 227.433,144.31 228.778,149.072C226.491,149.291 225.397,149.488 224.302,149.486C211.98,149.461 199.654,149.216 187.338,149.479C183.782,149.556 181.746,148.881 180.754,145.335C179.997,142.627 178.753,140.057 177.744,137.418C174.504,128.949 172.946,128.053 163.214,129.328C163.569,130.102 163.838,131.354 164.202,131.382C171.123,131.915 171.534,137.407 172.752,142.338C173.306,144.577 174.019,146.777 174.859,149.684C161.455,150.068 148.412,150.443 134.883,150.821M127.476,107.277C127.476,95.219 127.476,83.16 127.476,71.101C126.934,70.921 126.393,70.741 125.852,70.562C125.286,71.989 124.282,73.4 124.227,74.847C123.94,82.495 123.853,90.152 123.775,97.807C123.712,103.901 123.762,109.996 123.762,116.079C127.27,115.101 127.27,115.101 127.476,107.277M80.974,68.861C80.635,70.877 80.296,72.893 79.983,74.757C84.632,74.757 88.69,74.757 92.753,74.757C93.43,70.676 94.037,67.026 94.832,62.236C89.681,64.482 85.496,66.307 80.974,68.861M157.969,116.574C156.802,113.348 158.761,107.861 152.251,108.053C152.58,113.299 153.06,118.048 153.119,122.801C153.169,126.736 154.889,128.016 159.108,127.235C158.745,123.901 158.394,120.671 157.969,116.574M172.778,92.898C172.411,91.48 172.043,90.062 171.676,88.645C171.378,88.735 171.08,88.824 170.782,88.914C170.782,97.249 170.782,105.585 170.782,113.92C171.465,113.919 172.148,113.919 172.831,113.918C172.831,107.224 172.831,100.53 172.778,92.898M124.317,46.83C124.367,49.973 124.364,53.117 124.483,56.257C124.592,59.137 124.831,62.012 125.013,64.889C125.573,64.84 126.134,64.792 126.694,64.743C126.694,57.238 126.694,49.733 126.694,42.228C126.284,42.134 125.875,42.039 125.465,41.945C125.089,43.27 124.713,44.595 124.317,46.83M147.406,84.568C148.53,88.847 146.5,93.941 150.418,98.135C150.418,92.797 150.55,88.17 150.334,83.558C150.273,82.25 149.2,80.989 148.59,79.707C148.16,81.051 147.73,82.395 147.406,84.568M189.758,123.261C189.992,118.228 191.148,113.091 188.048,108.415C186.931,113.462 185.778,118.494 189.758,123.261M69.083,80.362C68.952,75.96 68.822,71.557 68.691,67.154C68.213,67.198 67.734,67.241 67.256,67.284C67.256,73.184 67.256,79.084 67.256,84.984C67.7,85.024 68.144,85.065 68.589,85.105C68.752,83.842 68.916,82.58 69.083,80.362M101.663,85.243C106.162,87.074 107.053,86.093 106.364,79.777C104.654,79.864 102.932,79.952 101.056,80.047C101.202,81.895 101.306,83.205 101.663,85.243M197.847,93.242C198.536,91.812 199.226,90.382 199.948,88.884C195.487,87.792 193.448,90.464 194.317,96.269C195.474,95.337 196.434,94.564 197.847,93.242M57.639,116.733C57.54,114.097 57.44,111.461 57.341,108.825C56.755,108.863 56.169,108.901 55.584,108.939C55.584,112.476 55.584,116.012 55.584,119.549C55.901,119.579 56.219,119.609 56.536,119.639C56.839,118.936 57.141,118.232 57.639,116.733M208.134,127.821C207.435,127.107 206.736,126.393 206.037,125.678C205.58,125.941 205.123,126.204 204.666,126.466C205.332,130.068 205.998,133.67 206.664,137.272C207.183,137.205 207.703,137.138 208.222,137.071C208.222,134.288 208.222,131.505 208.134,127.821M39.813,91.244C39.656,92.425 39.499,93.607 39.341,94.789C39.827,94.942 40.312,95.096 40.797,95.25C42.417,92.708 44.036,90.165 45.656,87.623C45.134,87.193 44.612,86.764 44.09,86.335C42.748,87.727 41.406,89.118 39.813,91.244z"/><path fill="#dcdddc" d="M127.465,107.742C127.27,115.101 127.27,115.101 123.762,116.079C123.762,109.996 123.712,103.901 123.775,97.807C123.853,90.152 123.94,82.495 124.227,74.847C124.282,73.4 125.286,71.989 125.852,70.562C126.393,70.741 126.934,70.921 127.476,71.101C127.476,83.16 127.476,95.219 127.465,107.742z"/><path fill="#f3f3f3" d="M81.142,68.497C85.496,66.307 89.681,64.482 94.832,62.236C94.037,67.026 93.43,70.676 92.753,74.757C88.69,74.757 84.632,74.757 79.983,74.757C80.296,72.893 80.635,70.877 81.142,68.497z"/><path fill="#e9e9e9" d="M158.006,117.008C158.394,120.671 158.745,123.901 159.108,127.235C154.889,128.016 153.169,126.736 153.119,122.801C153.06,118.048 152.58,113.299 152.251,108.053C158.761,107.861 156.802,113.348 158.006,117.008z"/><path fill="#d7d7d8" d="M172.805,93.367C172.831,100.53 172.831,107.224 172.831,113.918C172.148,113.919 171.465,113.919 170.782,113.92C170.782,105.585 170.782,97.249 170.782,88.914C171.08,88.824 171.378,88.735 171.676,88.645C172.043,90.062 172.411,91.48 172.805,93.367z"/><path fill="#d6d6d7" d="M124.327,46.375C124.713,44.595 125.089,43.27 125.465,41.945C125.875,42.039 126.284,42.134 126.694,42.228C126.694,49.733 126.694,57.238 126.694,64.743C126.134,64.792 125.573,64.84 125.013,64.889C124.831,62.012 124.592,59.137 124.483,56.257C124.364,53.117 124.367,49.973 124.327,46.375z"/><path fill="#d3d3d3" d="M147.353,84.154C147.73,82.395 148.16,81.051 148.59,79.707C149.2,80.989 150.273,82.25 150.334,83.558C150.55,88.17 150.418,92.797 150.418,98.135C146.5,93.941 148.53,88.847 147.353,84.154z"/><path fill="#e5e5e5" d="M189.36,123.265C185.778,118.494 186.931,113.462 188.048,108.415C191.148,113.091 189.992,118.228 189.36,123.265z"/><path fill="#f1f0f1" d="M69.082,80.84C68.916,82.58 68.752,83.842 68.589,85.105C68.144,85.065 67.7,85.024 67.256,84.984C67.256,79.084 67.256,73.184 67.256,67.284C67.734,67.241 68.213,67.198 68.691,67.154C68.822,71.557 68.952,75.96 69.082,80.84z"/><path fill="#e7e8e8" d="M101.536,84.879C101.306,83.205 101.202,81.895 101.056,80.047C102.932,79.952 104.654,79.864 106.364,79.777C107.053,86.093 106.162,87.074 101.536,84.879z"/><path fill="#dcdddd" d="M197.62,93.517C196.434,94.564 195.474,95.337 194.317,96.269C193.448,90.464 195.487,87.792 199.948,88.884C199.226,90.382 198.536,91.812 197.62,93.517z"/><path fill="#cbcccb" d="M57.542,117.131C57.141,118.232 56.839,118.936 56.536,119.639C56.219,119.609 55.901,119.579 55.584,119.549C55.584,116.012 55.584,112.476 55.584,108.939C56.169,108.901 56.755,108.863 57.341,108.825C57.44,111.461 57.54,114.097 57.542,117.131z"/><path fill="#dadbdb" d="M208.178,128.271C208.222,131.505 208.222,134.288 208.222,137.071C207.703,137.138 207.183,137.205 206.664,137.272C205.998,133.67 205.332,130.068 204.666,126.466C205.123,126.204 205.58,125.941 206.037,125.678C206.736,126.393 207.435,127.107 208.178,128.271z"/><path fill="#dfe0e0" d="M39.939,90.877C41.406,89.118 42.748,87.727 44.09,86.335C44.612,86.764 45.134,87.193 45.656,87.623C44.036,90.165 42.417,92.708 40.797,95.25C40.312,95.096 39.827,94.942 39.341,94.789C39.499,93.607 39.656,92.425 39.939,90.877z"/></svg>