<svg xmlns="http://www.w3.org/2000/svg" viewBox="0 0 217 234" xml:space="preserve"><path fill="#090909" d="M75.505,221.396C68.201,223.394 60.982,226.53 52.281,223.098C54.946,221.315 56.909,220.001 59.183,218.092C61.55,216.662 63.617,215.856 65.656,214.983C66.413,214.659 67.411,214.352 67.764,213.733C68.65,212.176 70.26,209.762 69.71,208.934C68.695,207.405 66.378,206.013 64.535,205.921C61.246,205.756 55.171,213.276 54.985,216.962C54.031,216.962 53.076,216.962 51.671,216.962C52.427,215.135 52.977,213.808 54.113,211.063C50.594,213.029 48.168,215.093 45.41,215.736C42.309,216.46 38.909,215.903 35.638,215.903C35.453,215.448 35.268,214.993 35.082,214.537C37.453,213.463 39.825,212.39 41.751,211.517C38.517,207.122 34.902,202.209 31.797,197.989C25.014,197.414 18.848,196.89 12.682,196.367C12.656,196.073 12.631,195.779 12.606,195.485C16.639,193.531 20.672,191.577 24.925,189.517C24.087,188.006 23.175,186.362 22.263,184.718C22.527,184.435 22.79,184.151 23.054,183.868C24.516,185.093 25.977,186.318 28.201,188.181C28.201,184.344 28.467,180.952 28.135,177.62C27.7,173.266 29.265,170.913 34.146,170.8C34.146,157.567 34.326,144.481 34.045,131.405C33.951,127.01 34.923,124.284 39.785,124.134C40.495,109.963 41.371,96.015 41.78,82.054C41.894,78.163 42.749,75.072 45.301,72.155C47.593,69.537 49.655,66.651 51.411,63.646C53.623,59.859 55.355,60.51 58.289,63.104C63.38,67.604 66.278,72.879 65.768,79.991C66.238,79.914 66.708,79.837 67.178,79.759C67.361,77.122 67.619,74.487 67.713,71.846C68.052,62.367 68.196,52.877 68.749,43.411C68.869,41.372 69.908,38.93 71.344,37.498C79.837,29.029 88.66,20.893 97.171,12.441C99.675,9.955 101.772,9.521 104.439,11.788C110.911,17.29 117.849,22.345 123.659,28.472C126.037,30.981 126.383,35.734 126.953,39.569C127.852,45.617 129.193,51.217 135.065,54.912C137.161,51.492 139.198,48.17 141.862,43.824C147.065,49.249 151.701,53.951 156.136,58.835C156.889,59.664 156.961,61.265 157.04,62.528C157.716,73.244 158.321,83.964 158.986,95.359C163.116,91.121 165.2,85.014 171.791,84.819C172.577,96.71 171.753,108.592 174.541,119.554C177.309,130.433 175.064,141.42 178.109,152.308C179.981,150.61 181.711,148.867 183.621,147.35C186.287,145.234 188.388,145.74 188.871,149.269C190.049,157.871 190.909,166.517 192.128,175.112C192.542,178.029 193.647,180.848 194.647,184.476C197.35,181.174 199.336,178.748 201.322,176.322C201.675,176.53 202.028,176.737 202.382,176.945C201.552,179.509 200.722,182.073 199.744,185.095C200.935,185.013 201.827,184.951 203.413,184.84C202.826,186.069 202.389,186.983 201.61,188.613C205.406,190.384 209.188,192.149 213.368,194.099C206.31,195.94 199.713,197.66 192.781,199.468C195.072,203.053 197.28,206.507 199.835,210.506C198.481,211.045 196.596,212.448 194.739,212.413C188.929,212.301 183.109,211.805 177.338,211.095C175.779,210.903 174.406,209.369 172.894,208.551C172.215,208.184 171.332,207.732 170.663,207.877C152.097,211.923 133.548,216.04 113.712,220.43C117.429,222.126 119.893,223.251 122.357,224.375C122.178,225.005 121.998,225.635 121.819,226.265C116.127,224.929 110.436,223.593 103.501,221.965C104.7,224.03 105.13,224.771 105.908,226.111C98.331,225.576 92.419,233.932 84.284,227.522C84.217,227.985 84.149,228.449 84.081,228.913C84.542,229.769 85.003,230.624 85.875,232.245C81.383,232.245 77.198,232.245 73.013,232.245C72.858,231.629 72.703,231.013 72.547,230.397C75.141,229.056 77.734,227.714 80.269,226.402C79.619,224.495 75.156,226.826 76.361,222.431C76.344,221.796 75.924,221.596 75.505,221.396M124.55,147.21C124.566,147.581 124.581,147.953 124.597,148.325C124.759,147.904 124.921,147.483 125.34,146.908C125.208,146.915 125.077,146.921 124.55,147.21M79.475,167.179C79.701,166.922 79.927,166.665 80.154,166.408C79.735,166.317 79.317,166.227 78.356,165.844C79.32,164.568 80.284,163.291 81.976,161.925C83.148,161.681 84.32,161.436 85.564,161.872C86.22,162.99 87.335,164.073 87.425,165.235C87.562,167.02 87.645,169.514 86.602,170.552C83.396,173.741 75.125,174.12 71.164,172C68.721,170.692 68.032,169.231 70.561,167.07C70.79,166.824 71.019,166.578 71.248,166.331C70.823,166.307 70.398,166.283 69.218,166.254C66.347,165.472 63.471,164.713 60.635,163.821C60.536,163.79 60.848,162.447 61.354,161.736C61.429,161.271 61.504,160.806 61.579,160.342C61.365,160.439 61.152,160.537 60.121,160.584C58.045,160.98 55.969,161.377 53.331,161.87C53.559,162.235 53.786,162.6 54.374,163.532C57.41,165.426 60.446,167.319 63.611,169.276C63.611,169.276 63.641,169.417 63.62,170.107C69.773,174.728 75.926,179.349 82.131,184.878C81.674,188.493 81.216,192.107 80.617,196.841C84.162,196.146 88.119,195.37 92.075,194.594C91.975,194.011 91.875,193.429 91.774,192.847C89.022,193.221 86.271,193.594 83.054,194.031C83.241,190.472 83.403,187.396 84.315,184.2C89.457,182.725 94.53,180.905 99.758,179.869C105.554,178.72 111.575,178.678 117.351,177.46C129.18,174.965 140.853,171.724 152.7,169.335C160.876,167.686 169.236,166.952 177.514,165.808C177.576,165.427 177.638,165.046 177.701,164.664C171.513,160.894 165.326,157.123 159.865,153.795C158.447,155.824 157.884,157.602 156.809,158.001C151.814,159.858 145.024,160.098 141.122,154.584C142.15,153.309 143.213,151.989 144.476,150.423C133.707,150.653 133.707,150.653 130.35,160.416C131.633,161.271 132.926,162.132 134.227,162.999C127.785,171.937 109.093,170.537 103.675,166.313C102.862,165.679 102.4,164.173 102.363,163.051C102.287,160.743 102.608,158.422 102.776,155.954C98.601,156.401 95.8,156.7 92.189,156.96C90.803,157.242 89.418,157.523 87.632,157.886C88.921,159.586 89.606,160.489 89.576,161.483C88.384,161.32 87.192,161.157 86.001,160.386C85.319,156.288 83.741,159.691 82.396,159.131C82.479,156.681 82.386,154.208 82.687,151.785C83.11,148.364 81.692,147.259 78.484,147.831C77.362,148.032 76.215,148.095 75.033,147.402C74.652,145.92 74.271,144.438 74.109,142.335C75.255,139.391 74.601,138.35 71.454,139.743C70.75,140.054 69.673,140.422 69.156,140.113C65.141,137.718 64.849,139.813 64.914,143.204C65.023,148.836 64.802,154.474 64.253,160.611C65.069,161.404 65.884,162.197 66.7,162.99C67.468,162.031 68.236,161.073 69.736,159.66C69.875,156.443 70.013,153.226 70.755,149.995C72.008,149.976 73.262,149.956 74.86,150.804C74.483,156.887 74.106,162.971 73.666,170.06C75.346,169.744 77.161,169.403 79.009,168.453C79.037,168.047 79.066,167.642 78.919,167.15C78.919,167.15 78.967,166.961 79.475,167.179M112.718,91.449C111.804,92.656 110.89,93.864 109.124,95.205C107.427,95.016 105.73,94.826 103.991,93.975C103.668,92.708 103.346,91.441 103.899,90.139C104.577,87.716 105.255,85.293 105.933,82.869C104.937,82.667 103.942,82.464 102.211,82.185C95.459,79.371 95.011,78.482 96.991,71.929C97.079,71.639 96.976,71.291 97.648,70.989C98.676,69.754 99.704,68.518 100.617,67.42C99.093,64.446 97.644,61.617 96.194,58.788C95.955,58.929 95.716,59.069 95.477,59.21C96.001,63.157 96.526,67.105 96.335,71.099C95.268,73.452 94.201,75.804 93.134,78.157C92.272,77.575 91.409,76.994 90.547,76.413C93.725,79.28 96.904,82.147 99.426,84.931C97.778,87.627 97.56,89.96 100.935,92.024C100.871,93.742 98.917,96.446 103.697,96.278C104.762,98.052 106.248,99.709 106.776,101.631C107.309,103.571 106.894,105.772 106.894,107.859C107.18,107.807 107.467,107.754 107.753,107.701C108.845,103.799 109.936,99.896 111.725,95.927C112.822,94.28 113.918,92.632 114.957,90.397C114.641,89.932 114.326,89.466 114.398,88.518C115.547,88.349 116.697,88.179 117.847,88.01C117.568,87.315 117.289,86.619 116.69,85.509C116.126,85.672 115.563,85.834 114.529,85.659C114.703,84.756 114.876,83.853 115.368,82.355C116.63,81.057 117.893,79.758 119.816,78.709C122.847,76.717 125.727,74.619 126.188,69.133C122.799,72.738 120.307,75.39 117.147,78.072C116.065,79.629 114.982,81.186 113.178,82.837C111.826,82.837 110.474,82.837 109.326,82.837C109.673,85.327 109.988,87.595 110.273,89.639C111.048,89.465 112.009,89.251 112.994,89.685C112.991,90.118 112.989,90.552 112.718,91.449M85.423,33.59C88.716,30.881 92.009,28.173 95.302,25.464C94.841,24.815 94.38,24.166 93.919,23.517C90.534,25.566 87.149,27.615 83.764,29.663C84.316,30.035 84.868,30.406 85.42,30.778C85.42,31.962 85.42,33.146 84.912,34.409C84.532,34.46 84.153,34.51 83.774,34.56C83.784,34.6 83.795,34.64 83.806,34.68C84.33,34.572 84.854,34.465 85.423,33.59M135.299,84.016C135.747,98.25 136.196,112.484 136.645,126.719C137.284,126.69 137.922,126.662 138.561,126.634C138.003,112.117 137.445,97.601 137.02,82.145C137.02,77.155 137.02,72.166 137.02,67.176C136.713,67.164 136.406,67.151 136.098,67.139C135.844,72.495 135.59,77.852 135.299,84.016M134.412,199.894C122.873,202.578 111.335,205.261 98.893,208.155C103.501,210.04 106.06,213.291 111.411,211.746C125.057,207.806 139.015,204.937 152.867,201.722C160.18,200.024 167.533,198.498 174.867,196.894C174.938,196.453 175.009,196.011 175.08,195.57C172.661,194.625 170.042,192.543 167.857,192.928C156.924,194.851 146.104,197.421 134.412,199.894M133.661,191.086C144.957,188.418 156.254,185.751 167.551,183.083C165.403,181.378 162.635,179.538 160.285,179.971C144.295,182.916 128.389,186.32 112.465,189.619C106.524,190.849 100.607,192.194 94.238,193.583C98.862,198.027 98.874,198.081 103.681,197.077C110.644,195.622 117.559,193.917 124.556,192.664C126.957,192.234 129.542,192.84 132.557,193C132.521,193.103 132.786,192.348 133.661,191.086M146.449,139.669C146.449,144.308 146.449,148.947 146.449,153.488C147.721,153.995 149.039,154.52 150.731,155.194C151.034,151.498 151.127,147.926 156.119,148.588C156.119,143.973 156.283,139.645 156.08,135.334C155.794,129.266 149.049,137.955 148.505,132.137C147.717,133.172 146.627,134.106 146.23,135.274C145.887,136.286 146.328,137.565 146.449,139.669M78.172,93.854C78.06,84.626 77.948,75.399 77.83,65.673C73.142,73.718 76.812,81.089 76.838,88.511C76.877,99.796 76.894,111.082 76.964,122.367C76.972,123.655 77.261,124.941 77.42,126.227C77.73,126.174 78.039,126.121 78.349,126.068C78.349,115.62 78.349,105.171 78.172,93.854M98.537,218.016C90.785,211.446 86.898,211.279 81.752,218.045C85.356,220.105 89.061,222.222 92.593,224.24C90.745,218.972 96.459,220.529 98.537,218.016M76.459,47.507C76.214,51.731 76.961,56.377 75.405,60.046C74.194,62.899 74.905,63.539 78.016,65.885C78.016,56.392 78.016,48.018 78.016,39.418C76.939,39.53 74.781,39.756 73.75,39.864C74.82,42.531 75.637,44.566 76.459,47.507M188.883,204.655C189.866,204.247 190.849,203.839 191.92,203.395C184.894,197.123 183.044,197.177 178.332,203.589C180.736,204.372 183.123,205.285 185.588,205.874C186.352,206.057 187.326,205.36 188.883,204.655M109.101,133.393C109.466,127.644 109.832,121.894 110.22,115.773C108.545,116.024 107.339,116.204 105.957,116.411C106.843,122.464 107.689,128.248 109.101,133.393M108.115,64.13C107.774,58.132 107.434,52.134 107.094,46.136C106.412,46.179 105.731,46.222 105.049,46.265C105.049,51.786 104.996,57.307 105.143,62.823C105.156,63.299 106.494,63.74 108.115,64.13M35.003,178.53C37.295,182.33 40.902,181.922 45.17,181.785C41.746,178.764 38.832,176.192 36.066,173.751C34.642,174.37 33.507,174.865 32.249,175.413C33.039,176.28 33.804,177.119 35.003,178.53M138.94,142.893C138.94,137.924 138.94,132.956 138.94,127.987C138.237,127.994 137.533,128.002 136.83,128.009C137.085,133.414 137.34,138.818 137.595,144.223C138.026,144.068 138.456,143.913 138.94,142.893M50.289,112.994C50.289,110.398 50.289,107.803 50.289,105.207C49.79,105.206 49.291,105.205 48.792,105.203C48.792,113.97 48.792,122.736 48.792,131.502C49.299,131.51 49.806,131.517 50.314,131.525C50.314,125.637 50.314,119.749 50.289,112.994M93.966,107.431C96.142,105.278 97.97,103.084 94.846,100.128C93.166,103.339 91.575,106.381 89.983,109.424C90.205,109.623 90.428,109.821 90.65,110.02C91.585,109.32 92.519,108.62 93.966,107.431M71.866,134.961C71.506,132.149 71.147,129.337 70.787,126.526C70.387,126.5 69.987,126.474 69.587,126.449C69.049,129.526 68.51,132.603 67.865,136.295C69.713,135.506 70.464,135.185 71.866,134.961M98.451,110.784C97.984,113.524 97.517,116.263 97.051,119.002C97.533,119.126 98.016,119.249 98.498,119.373C99.705,116.366 100.912,113.359 102.345,109.789C100.609,109.886 99.685,109.937 98.451,110.784M109.073,154.331C110.17,154.493 111.267,154.656 112.363,154.819C112.443,154.33 112.522,153.841 112.601,153.352C109.837,152.794 107.072,152.235 104.154,151.646C104.367,153.725 104.527,155.275 104.773,157.664C106.39,156.222 107.41,155.312 109.073,154.331M127.762,147.876C127.183,149.723 126.604,151.569 125.791,154.162C127.577,153.195 129.244,152.292 130.911,151.389C130.033,150.127 129.155,148.864 127.762,147.876M79.048,134.27C79.048,131.648 79.048,129.026 79.048,126.404C78.618,126.446 78.188,126.488 77.758,126.53C77.758,130.02 77.758,133.511 77.758,137.001C78.06,137.001 78.361,137 78.663,137C78.785,136.398 78.907,135.797 79.048,134.27M104.46,148.37C104.051,148.813 103.642,149.257 102.611,150.374C105.162,150.092 106.841,149.906 108.52,149.72C108.511,149.289 108.502,148.857 108.493,148.426C107.367,148.324 106.241,148.221 104.46,148.37M120.372,154.373C121.338,154.858 122.304,155.343 123.27,155.828C123.419,155.249 123.567,154.67 123.716,154.091C122.625,153.965 121.533,153.839 120.372,154.373M83.761,166.136C83.618,165.57 83.475,165.003 83.332,164.437C82.959,164.634 82.587,164.831 82.214,165.028C82.578,165.547 82.943,166.066 83.761,166.136M111.699,148.569C111.985,148.296 112.27,148.023 112.556,147.75C112.443,147.632 112.238,147.405 112.23,147.412C111.929,147.666 111.646,147.942 111.699,148.569M81.522,168.618C81.466,168.837 81.41,169.057 81.354,169.276C81.493,169.135 81.632,168.993 81.522,168.618M106.487,91.618C106.487,91.618 106.586,91.453 106.586,91.453C106.586,91.453 106.39,91.474 106.487,91.618z"/><path fill="#141414" d="M156.5,220.13C158.08,217.963 159.675,215.83 161.721,214.3C166.409,210.794 173.399,212.1 176.327,217.145C177.109,218.493 176.445,220.679 176.445,222.907C170.018,222.103 163.369,221.271 156.5,220.13z"/><path fill="#ececec" d="M55.205,217.25C55.171,213.276 61.246,205.756 64.535,205.921C66.378,206.013 68.695,207.405 69.71,208.934C70.26,209.762 68.65,212.176 67.764,213.733C67.411,214.352 66.413,214.659 65.656,214.983C63.617,215.856 61.55,216.662 59.246,217.748C57.807,217.846 56.616,217.692 55.205,217.25z"/><path fill="#161617" d="M21.488,207.726C20.198,207.266 19.263,206.972 18.313,206.673C23.053,198.422 28.178,197.99 33.807,205.6C30.412,209.519 26.209,209.079 21.488,207.726z"/><path fill="#1c1c1c" d="M202.142,205.199C201.405,204.536 201.052,203.909 200.699,203.283C202.429,202.644 204.167,201.515 205.889,201.54C207.029,201.557 208.145,203.228 210.577,205.235C206.929,205.235 204.727,205.235 202.142,205.199z"/><path fill="#1c1c1c" d="M122.681,225.202C122.679,225.486 122.458,225.555 122.237,225.624C122.312,225.412 122.387,225.199 122.681,225.202z"/><path fill="#efefef" d="M82.078,183.97C75.926,179.349 69.773,174.728 63.824,169.657C64.048,169.023 64.069,168.838 64.09,168.654C63.887,168.84 63.685,169.026 63.482,169.213C60.446,167.319 57.41,165.426 54.183,162.949C53.959,162.168 53.926,161.971 53.894,161.774C55.969,161.377 58.045,160.98 60.506,160.88C60.917,161.357 60.943,161.536 60.968,161.716C60.848,162.447 60.536,163.79 60.635,163.821C63.471,164.713 66.347,165.472 69.576,166.448C69.935,166.643 70.009,167.021 70.009,167.021C68.032,169.231 68.721,170.692 71.164,172C75.125,174.12 83.396,173.741 86.602,170.552C87.645,169.514 87.562,167.02 87.425,165.235C87.335,164.073 86.22,162.99 85.691,161.574C85.817,161.275 86,160.994 86,160.994C87.192,161.157 88.384,161.32 90.195,161.638C91.986,161.475 93.157,161.156 94.662,160.798C95.509,160.382 96.022,160.004 96.931,159.335C95.564,159.112 94.804,158.988 93.943,158.582C93.561,157.866 93.28,157.433 93,157C95.8,156.7 98.601,156.401 102.776,155.954C102.608,158.422 102.287,160.743 102.363,163.051C102.4,164.173 102.862,165.679 103.675,166.313C109.093,170.537 127.785,171.937 134.227,162.999C132.926,162.132 131.633,161.271 130.35,160.416C133.707,150.653 133.707,150.653 144.476,150.423C143.213,151.989 142.15,153.309 141.122,154.584C145.024,160.098 151.814,159.858 156.809,158.001C157.884,157.602 158.447,155.824 159.865,153.795C165.326,157.123 171.513,160.894 177.701,164.664C177.638,165.046 177.576,165.427 177.514,165.808C169.236,166.952 160.876,167.686 152.7,169.335C140.853,171.724 129.18,174.965 117.351,177.46C111.575,178.678 105.554,178.72 99.758,179.869C94.53,180.905 89.457,182.725 83.578,184.13C82.587,184.03 82.333,184 82.078,183.97M92.344,176.1C87.48,173.638 84.168,177.251 80.305,178.721C82.975,179.371 85.647,180.108 88.059,179.604C89.89,179.221 91.391,177.259 93.71,175.397C97.57,175.397 101.43,175.397 105.289,175.397C103.664,173.533 101.963,172.363 100.15,172.151C97.069,171.792 93.781,171.798 92.344,176.1M169.725,164.03C169.727,163.394 169.957,162.319 169.699,162.185C164.998,159.747 160.554,161.595 156.039,162.317C156.049,162.912 156.06,163.507 156.07,164.101C160.332,164.101 164.594,164.101 169.725,164.03z"/><path fill="#ededed" d="M134.828,199.829C146.104,197.421 156.924,194.851 167.857,192.928C170.042,192.543 172.661,194.625 175.08,195.57C175.009,196.011 174.938,196.453 174.867,196.894C167.533,198.498 160.18,200.024 152.867,201.722C139.015,204.937 125.057,207.806 111.411,211.746C106.06,213.291 103.501,210.04 98.893,208.155C111.335,205.261 122.873,202.578 134.828,199.829z"/><path fill="#ececec" d="M133.356,191.339C132.786,192.348 132.521,193.103 132.557,193C129.542,192.84 126.957,192.234 124.556,192.664C117.559,193.917 110.644,195.622 103.681,197.077C98.874,198.081 98.862,198.027 94.238,193.583C100.607,192.194 106.524,190.849 112.465,189.619C128.389,186.32 144.295,182.916 160.285,179.971C162.635,179.538 165.403,181.378 167.551,183.083C156.254,185.751 144.957,188.418 133.356,191.339z"/><path fill="#e7e7e7" d="M146.436,139.198C146.328,137.565 145.887,136.286 146.23,135.274C146.627,134.106 147.717,133.172 148.505,132.137C149.049,137.955 155.794,129.266 156.08,135.334C156.283,139.645 156.119,143.973 156.119,148.588C151.127,147.926 151.034,151.498 150.731,155.194C149.039,154.52 147.721,153.995 146.449,153.488C146.449,148.947 146.449,144.308 146.436,139.198z"/><path fill="#ededed" d="M78.975,169.062C77.161,169.403 75.346,169.744 73.666,170.06C74.106,162.971 74.483,156.887 74.785,150.084C74.833,148.984 74.956,148.603 75.079,148.221C76.215,148.095 77.362,148.032 78.484,147.831C81.692,147.259 83.11,148.364 82.687,151.785C82.386,154.208 82.479,156.681 82.114,159.627C81.638,160.753 81.443,161.383 81.248,162.014C80.284,163.291 79.32,164.568 78.648,166.196C78.94,166.548 78.967,166.961 78.967,166.961C78.967,166.961 78.919,167.15 78.695,167.146C78.639,167.782 78.807,168.422 78.975,169.062z"/><path fill="#dddddd" d="M64.72,160.109C64.802,154.474 65.023,148.836 64.914,143.204C64.849,139.813 65.141,137.718 69.156,140.113C69.673,140.422 70.75,140.054 71.454,139.743C74.601,138.35 75.255,139.391 73.65,142.719C72.178,145.405 71.165,147.707 70.152,150.009C70.013,153.226 69.875,156.443 69.082,159.675C67.192,159.829 65.956,159.969 64.72,160.109z"/><path fill="#e4e3e3" d="M78.261,94.288C78.349,105.171 78.349,115.62 78.349,126.068C78.039,126.121 77.73,126.174 77.42,126.227C77.261,124.941 76.972,123.655 76.964,122.367C76.894,111.082 76.877,99.796 76.838,88.511C76.812,81.089 73.142,73.718 77.83,65.673C77.948,75.399 78.06,84.626 78.261,94.288z"/><path fill="#f0f0f0" d="M98.704,218.352C96.459,220.529 90.745,218.972 92.593,224.24C89.061,222.222 85.356,220.105 81.752,218.045C86.898,211.279 90.785,211.446 98.704,218.352z"/><path fill="#e7e7e7" d="M136.888,83.084C137.445,97.601 138.003,112.117 138.561,126.634C137.922,126.662 137.284,126.69 136.645,126.719C136.196,112.484 135.747,98.25 135.579,83.623C136.202,83.182 136.545,83.133 136.888,83.084z"/><path fill="#dbdbdb" d="M76.457,47.054C75.637,44.566 74.82,42.531 73.75,39.864C74.781,39.756 76.939,39.53 78.016,39.418C78.016,48.018 78.016,56.392 78.016,65.885C74.905,63.539 74.194,62.899 75.405,60.046C76.961,56.377 76.214,51.731 76.457,47.054z"/><path fill="#e8e8e8" d="M188.543,204.861C187.326,205.36 186.352,206.057 185.588,205.874C183.123,205.285 180.736,204.372 178.332,203.589C183.044,197.177 184.894,197.123 191.92,203.395C190.849,203.839 189.866,204.247 188.543,204.861z"/><path fill="#cacaca" d="M108.818,133.712C107.689,128.248 106.843,122.464 105.957,116.411C107.339,116.204 108.545,116.024 110.22,115.773C109.832,121.894 109.466,127.644 108.818,133.712z"/><path fill="#e7e7e7" d="M107.665,64.164C106.494,63.74 105.156,63.299 105.143,62.823C104.996,57.307 105.049,51.786 105.049,46.265C105.731,46.222 106.412,46.179 107.094,46.136C107.434,52.134 107.774,58.132 107.665,64.164z"/><path fill="#dbdbdb" d="M96.961,70.969C96.976,71.291 97.079,71.639 96.991,71.929C95.011,78.482 95.459,79.371 102.547,82.539C101.95,83.601 101.016,84.308 100.082,85.015C96.904,82.147 93.725,79.28 90.547,76.413C91.409,76.994 92.272,77.575 93.134,78.157C94.201,75.804 95.268,73.452 96.667,71.059C96.999,71.018 96.961,70.969 96.961,70.969z"/><path fill="#f0f0f0" d="M34.786,178.244C33.804,177.119 33.039,176.28 32.249,175.413C33.507,174.865 34.642,174.37 36.066,173.751C38.832,176.192 41.746,178.764 45.17,181.785C40.902,181.922 37.295,182.33 34.786,178.244z"/><path fill="#dddddd" d="M85.42,34.329C85.42,33.146 85.42,31.962 85.42,30.778C84.868,30.406 84.316,30.035 83.764,29.663C87.149,27.615 90.534,25.566 93.919,23.517C94.38,24.166 94.841,24.815 95.302,25.464C92.009,28.173 88.716,30.881 85.393,33.941C85.362,34.292 85.42,34.329 85.42,34.329z"/><path fill="#b7b8b8" d="M99.754,84.973C101.016,84.308 101.95,83.601 102.915,82.577C103.942,82.464 104.937,82.667 105.933,82.869C105.255,85.293 104.577,87.716 103.101,90.074C101.887,90.457 101.47,90.905 101.054,91.352C97.56,89.96 97.778,87.627 99.754,84.973z"/><path fill="#d5d5d5" d="M82.105,184.424C82.333,184 82.587,184.03 83.203,184.19C83.403,187.396 83.241,190.472 83.054,194.031C86.271,193.594 89.022,193.221 91.774,192.847C91.875,193.429 91.975,194.011 92.075,194.594C88.119,195.37 84.162,196.146 80.617,196.841C81.216,192.107 81.674,188.493 82.105,184.424z"/><path fill="#d1d3d2" d="M104.033,94.637C105.73,94.826 107.427,95.016 109.629,95.379C110.432,95.7 110.73,95.847 111.028,95.994C109.936,99.896 108.845,103.799 107.753,107.701C107.467,107.754 107.18,107.807 106.894,107.859C106.894,105.772 107.309,103.571 106.776,101.631C106.248,99.709 104.762,98.052 103.359,95.808C103.359,95.105 103.696,94.871 104.033,94.637z"/><path fill="#1b1b1b" d="M112.97,89.036C112.009,89.251 111.048,89.465 110.273,89.639C109.988,87.595 109.673,85.327 109.326,82.837C110.474,82.837 111.826,82.837 113.823,82.861C114.663,82.906 114.857,82.928 115.05,82.95C114.876,83.853 114.703,84.756 114.915,86.052C115.87,86.272 116.44,86.098 117.009,85.924C117.289,86.619 117.568,87.315 117.847,88.01C116.697,88.179 115.547,88.349 113.944,88.765C113.316,89.02 113.143,89.028 112.97,89.036z"/><path fill="#989999" d="M138.914,143.325C138.456,143.913 138.026,144.068 137.595,144.223C137.34,138.818 137.085,133.414 136.83,128.009C137.533,128.002 138.237,127.994 138.94,127.987C138.94,132.956 138.94,137.924 138.914,143.325z"/><path fill="#ececec" d="M50.301,113.428C50.314,119.749 50.314,125.637 50.314,131.525C49.806,131.517 49.299,131.51 48.792,131.502C48.792,122.736 48.792,113.97 48.792,105.203C49.291,105.205 49.79,105.206 50.289,105.207C50.289,107.803 50.289,110.398 50.301,113.428z"/><path fill="#cacaca" d="M117.815,78.042C120.307,75.39 122.799,72.738 126.188,69.133C125.727,74.619 122.847,76.717 119.292,78.439C118.461,78.041 118.144,77.999 117.815,78.042z"/><path fill="#dddddd" d="M97.025,71.035C96.526,67.105 96.001,63.157 95.477,59.21C95.716,59.069 95.955,58.929 96.194,58.788C97.644,61.617 99.093,64.446 100.617,67.42C99.704,68.518 98.676,69.754 97.305,70.979C96.961,70.969 96.999,71.018 97.025,71.035z"/><path fill="#d1d3d2" d="M93.71,107.675C92.519,108.62 91.585,109.32 90.65,110.02C90.428,109.821 90.205,109.623 89.983,109.424C91.575,106.381 93.166,103.339 94.846,100.128C97.97,103.084 96.142,105.278 93.71,107.675z"/><path fill="#bfc0c0" d="M71.54,134.913C70.464,135.185 69.713,135.506 67.865,136.295C68.51,132.603 69.049,129.526 69.587,126.449C69.987,126.474 70.387,126.5 70.787,126.526C71.147,129.337 71.506,132.149 71.54,134.913z"/><path fill="#d1d3d2" d="M98.606,110.386C99.685,109.937 100.609,109.886 102.345,109.789C100.912,113.359 99.705,116.366 98.498,119.373C98.016,119.249 97.533,119.126 97.051,119.002C97.517,116.263 97.984,113.524 98.606,110.386z"/><path fill="#0d0d0d" d="M108.752,154.367C107.41,155.312 106.39,156.222 104.773,157.664C104.527,155.275 104.367,153.725 104.154,151.646C107.072,152.235 109.837,152.794 112.601,153.352C112.522,153.841 112.443,154.33 112.363,154.819C111.267,154.656 110.17,154.493 108.752,154.367z"/><path fill="#131313" d="M70.453,150.002C71.165,147.707 72.178,145.405 73.54,143.03C74.271,144.438 74.652,145.92 75.056,147.812C74.956,148.603 74.833,148.984 74.613,149.651C73.262,149.956 72.008,149.976 70.453,150.002z"/><path fill="#808181" d="M136.954,82.614C136.545,83.133 136.202,83.182 135.598,83.219C135.59,77.852 135.844,72.495 136.098,67.139C136.406,67.151 136.713,67.164 137.02,67.176C137.02,72.166 137.02,77.155 136.954,82.614z"/><path fill="#131313" d="M92.594,156.98C93.28,157.433 93.561,157.866 93.99,159.078C94.202,160.184 94.265,160.511 94.328,160.837C93.157,161.156 91.986,161.475 90.553,161.593C89.606,160.489 88.921,159.586 87.632,157.886C89.418,157.523 90.803,157.242 92.594,156.98z"/><path fill="#0d0d0d" d="M128.02,147.739C129.155,148.864 130.033,150.127 130.911,151.389C129.244,152.292 127.577,153.195 125.791,154.162C126.604,151.569 127.183,149.723 128.02,147.739z"/><path fill="#afafb0" d="M79.038,134.733C78.907,135.797 78.785,136.398 78.663,137C78.361,137 78.06,137.001 77.758,137.001C77.758,133.511 77.758,130.02 77.758,126.53C78.188,126.488 78.618,126.446 79.048,126.404C79.048,129.026 79.048,131.648 79.038,134.733z"/><path fill="#1b1b1b" d="M104.012,94.306C103.696,94.871 103.359,95.105 103.015,95.668C98.917,96.446 100.871,93.742 100.994,91.688C101.47,90.905 101.887,90.457 102.663,90.092C103.346,91.441 103.668,92.708 104.012,94.306z"/><path fill="#131313" d="M64.486,160.36C65.956,159.969 67.192,159.829 68.716,159.902C68.236,161.073 67.468,162.031 66.7,162.99C65.884,162.197 65.069,161.404 64.486,160.36z"/><path fill="#131313" d="M117.481,78.057C118.144,77.999 118.461,78.041 118.962,78.314C117.893,79.758 116.63,81.057 115.209,82.653C114.857,82.928 114.663,82.906 114.184,82.814C114.982,81.186 116.065,79.629 117.481,78.057z"/><path fill="#1b1b1b" d="M111.377,95.96C110.73,95.847 110.432,95.7 110.055,95.312C110.89,93.864 111.804,92.656 113.19,91.214C114.113,90.98 114.563,90.982 115.014,90.984C113.918,92.632 112.822,94.28 111.377,95.96z"/><path fill="#0d0d0d" d="M104.788,148.245C106.241,148.221 107.367,148.324 108.493,148.426C108.502,148.857 108.511,149.289 108.52,149.72C106.841,149.906 105.162,150.092 102.611,150.374C103.642,149.257 104.051,148.813 104.788,148.245z"/><path fill="#131313" d="M81.612,161.97C81.443,161.383 81.638,160.753 82.184,160.047C83.741,159.691 85.319,156.288 86.001,160.69C86,160.994 85.817,161.275 85.655,161.233C84.32,161.436 83.148,161.681 81.612,161.97z"/><path fill="#0d0d0d" d="M120.407,154.043C121.533,153.839 122.625,153.965 123.716,154.091C123.567,154.67 123.419,155.249 123.27,155.828C122.304,155.343 121.338,154.858 120.407,154.043z"/><path fill="#131313" d="M83.534,166.36C82.943,166.066 82.578,165.547 82.214,165.028C82.587,164.831 82.959,164.634 83.332,164.437C83.475,165.003 83.618,165.57 83.534,166.36z"/><path fill="#0d0d0d" d="M111.53,148.392C111.646,147.942 111.929,147.666 112.23,147.412C112.238,147.405 112.443,147.632 112.556,147.75C112.27,148.023 111.985,148.296 111.53,148.392z"/><path fill="#131313" d="M116.85,85.716C116.44,86.098 115.87,86.272 115.15,86.221C115.563,85.834 116.126,85.672 116.85,85.716z"/><path fill="#131313" d="M114.986,90.691C114.563,90.982 114.113,90.98 113.324,90.982C112.989,90.552 112.991,90.118 112.982,89.36C113.143,89.028 113.316,89.02 113.75,89.007C114.326,89.466 114.641,89.932 114.986,90.691z"/><path fill="#dddddd" d="M85.37,34.325C84.854,34.465 84.33,34.572 83.806,34.68C83.795,34.64 83.784,34.6 83.774,34.56C84.153,34.51 84.532,34.46 85.166,34.369C85.42,34.329 85.362,34.292 85.37,34.325z"/><path fill="#dbdbdb" d="M61.161,161.726C60.943,161.536 60.917,161.357 60.915,160.905C61.152,160.537 61.365,160.439 61.579,160.342C61.504,160.806 61.429,161.271 61.161,161.726z"/><path fill="#131313" d="M78.992,168.757C78.807,168.422 78.639,167.782 78.783,167.189C79.066,167.642 79.037,168.047 78.992,168.757z"/><path fill="#131313" d="M81.647,168.735C81.632,168.993 81.493,169.135 81.354,169.276C81.41,169.057 81.466,168.837 81.647,168.735z"/><path fill="#808181" d="M79.221,167.07C78.967,166.961 78.94,166.548 78.92,166.342C79.317,166.227 79.735,166.317 80.154,166.408C79.927,166.665 79.701,166.922 79.221,167.07z"/><path fill="#dbdbdb" d="M70.285,167.046C70.009,167.021 69.935,166.643 69.954,166.451C70.398,166.283 70.823,166.307 71.248,166.331C71.019,166.578 70.79,166.824 70.285,167.046z"/><path fill="#0d0d0d" d="M125.083,147.062C124.921,147.483 124.759,147.904 124.597,148.325C124.581,147.953 124.566,147.581 124.78,147.104C125.01,146.999 125.083,147.062 125.083,147.062z"/><path fill="#fafafa" d="M75.688,221.622C75.924,221.596 76.344,221.796 76.516,222.132C76.136,222.128 76.003,221.987 75.688,221.622z"/><path fill="#1b1b1b" d="M106.439,91.546C106.39,91.474 106.586,91.453 106.586,91.453C106.586,91.453 106.487,91.618 106.439,91.546z"/><path fill="#0d0d0d" d="M124.977,146.963C125.077,146.921 125.208,146.915 125.211,146.985C125.083,147.062 125.01,146.999 124.977,146.963z"/><path fill="#dbdbdb" d="M53.612,161.822C53.926,161.971 53.959,162.168 54.003,162.665C53.786,162.6 53.559,162.235 53.612,161.822z"/><path fill="#212121" d="M93.039,175.999C91.391,177.259 89.89,179.221 88.059,179.604C85.647,180.108 82.975,179.371 80.305,178.721C84.168,177.251 87.48,173.638 92.726,176.058C93.108,176.017 93.039,175.999 93.039,175.999z"/><path fill="#1c1c1c" d="M169.29,164.066C164.594,164.101 160.332,164.101 156.07,164.101C156.06,163.507 156.049,162.912 156.039,162.317C160.554,161.595 164.998,159.747 169.699,162.185C169.957,162.319 169.727,163.394 169.29,164.066z"/><path fill="#272828" d="M93.115,176.052C93.781,171.798 97.069,171.792 100.15,172.151C101.963,172.363 103.664,173.533 105.289,175.397C101.43,175.397 97.57,175.397 93.375,175.698C93.039,175.999 93.108,176.017 93.115,176.052z"/><path fill="#090909" d="M94.662,160.798C94.265,160.511 94.202,160.184 94.092,159.361C94.804,158.988 95.564,159.112 96.931,159.335C96.022,160.004 95.509,160.382 94.662,160.798z"/><path fill="#dbdbdb" d="M63.546,169.245C63.685,169.026 63.887,168.84 64.09,168.654C64.069,168.838 64.048,169.023 63.834,169.312C63.641,169.417 63.611,169.276 63.546,169.245z"/></svg>