<svg xmlns="http://www.w3.org/2000/svg" viewBox="0 0 225 141" xml:space="preserve"><path fill="#040404" d="M167,133.811C113.568,133.811 60.636,133.811 7.705,133.811C7.421,133.37 7.137,132.928 6.853,132.487C16.536,127.863 16.246,118.956 16.868,110.68C17.172,106.627 18.602,104.539 22.522,103.993C26.834,103.393 28.485,101.099 28.277,96.563C27.973,89.922 28.745,83.232 28.46,76.589C28.254,71.8 30.052,69.498 34.666,68.991C36.1,68.833 37.5,68.361 39.371,67.928C39.702,70.151 39.986,72.055 40.306,74.203C43.462,74.583 45.27,73.606 44.919,70.017C44.617,66.928 46.271,65.671 49.121,66.029C52.006,66.392 55.671,65.14 56.775,69.636C57.204,71.381 58.276,72.968 59.056,74.628C59.626,74.438 60.196,74.249 60.767,74.059C60.949,72.347 61.132,70.636 61.358,68.512C65.021,69.464 70.099,66.905 71.36,72.455C72.217,76.226 71.524,80.348 71.524,84.462C75.303,84.462 78.285,84.462 81.693,84.462C81.693,81.507 81.693,78.45 81.693,75.717C80.146,74.478 77.717,73.523 77.297,72.01C76.095,67.684 80.052,67.46 82.561,67.432C87.407,67.379 88.323,64.982 88.029,60.851C87.782,57.372 88.006,53.858 88.065,50.359C88.144,45.704 94.388,41.438 98.153,43.94C99.492,44.83 99.176,48.211 99.704,50.902C106.861,52.873 103.278,45.843 105.447,42.781C107.52,42.626 110.045,42.007 112.382,42.428C113.759,42.676 114.926,44.498 116.027,45.753C117.099,46.974 117.967,48.374 118.925,49.696C119.392,49.41 119.858,49.124 120.325,48.839C120.325,47.122 120.325,45.405 120.325,43.745C128.542,42.081 130.45,43.395 131.547,51.201C132.314,56.653 137.376,55.376 140.692,57.667C140.692,51.348 140.697,45.724 140.684,40.1C140.683,39.604 140.758,38.919 140.479,38.641C135.331,33.517 139.768,29.715 142.25,25.678C145.388,20.577 148.528,15.474 151.803,10.462C152.946,8.712 154.495,7.227 156.442,4.935C161.502,14.728 166.203,23.786 170.84,32.878C171.184,33.553 171.382,34.582 171.124,35.243C166.414,47.318 171.193,59.53 169.629,72.023C175.252,72.469 180.013,72.847 184.248,73.183C187.087,75.395 183.752,81.972 190.716,80.377C190.716,78.321 190.716,76.245 190.716,73.872C192.359,73.789 193.816,73.619 195.268,73.659C201.4,73.825 202.087,74.559 202.16,80.647C202.194,83.478 201.947,86.371 202.457,89.119C202.837,91.162 204.25,93.008 205.167,94.959C205.779,96.262 206.675,97.552 206.849,98.923C207.626,105.033 208.689,111.17 208.68,117.296C208.672,122.756 210.58,126.481 215.135,129.177C216.2,129.808 217.018,130.857 219.031,132.708C201.013,133.093 184.257,133.452 167,133.811M109.356,113.246C109.898,117.452 110.441,121.659 110.995,125.954C113.894,125.954 116.179,125.954 118.71,125.954C117.179,117.775 115.542,109.851 114.28,101.867C113.815,98.925 112.576,97.874 109.748,98.001C103.27,98.291 96.783,98.719 90.307,98.604C85.125,98.512 83.497,100.501 82.642,105.699C81.239,114.224 83.362,124.483 72.459,129.804C82.723,130.178 85.803,127.764 87.105,119.078C87.499,116.447 88.135,113.82 88.202,111.179C88.344,105.593 91.338,103.635 96.504,103.972C97.494,104.036 98.497,103.896 99.494,103.855C107.943,103.508 108.318,103.837 109.356,113.246M131.831,92.039C125.921,92.527 125.506,93.322 127.211,100.239C132.57,100.239 137.802,100.239 142.904,100.239C142.904,97.157 142.904,94.758 142.904,92.017C139.308,92.017 136.031,92.017 131.831,92.039M108.373,65.817C110.513,65.721 112.652,65.625 115.237,65.509C115.116,63.823 115.021,62.491 114.9,60.81C111.463,60.81 108.481,60.787 105.498,60.817C102.836,60.844 100.17,61.047 97.512,60.961C93.507,60.832 93.206,62.816 94.299,65.844C98.792,65.844 103.098,65.844 108.373,65.817M71.227,90.289C68.33,90.289 65.433,90.289 62.059,90.289C62.286,93.42 62.455,95.736 62.632,98.181C66.47,97.993 69.682,97.836 73.737,97.637C73.125,94.875 72.629,92.637 71.227,90.289M178.472,96.427C177.65,95.556 176.896,94.029 175.993,93.935C173.211,93.644 170.329,93.634 167.574,94.069C166.383,94.256 165.406,95.8 164.333,96.728C165.448,97.817 166.426,99.597 167.706,99.85C170.431,100.39 173.337,100.364 176.117,100.071C176.97,99.981 177.653,98.271 178.472,96.427M147.732,24.272C146.854,26.022 145.975,27.772 145.046,29.623C153.65,30.637 155.799,26.979 153.354,15.659C151.508,18.435 149.786,21.023 147.732,24.272M104.803,78.517C104.016,77.463 103.317,75.601 102.427,75.505C99.724,75.215 96.947,75.608 93.139,75.783C94.109,78.03 94.776,80.782 95.379,80.768C98.505,80.697 101.616,79.919 104.803,78.517M37.078,103.951C39.841,103.706 42.604,103.46 45.772,103.179C45.596,101.545 45.455,100.228 45.299,98.778C42.867,98.778 40.906,98.751 38.946,98.784C35.046,98.85 34.414,100.69 37.078,103.951M154.959,43.953C155.755,42.887 157.367,41.029 157.221,40.879C155.865,39.483 153.968,37.229 152.697,37.492C151.206,37.8 150.182,40.371 148.956,41.96C150.682,42.639 152.408,43.318 154.959,43.953M36.205,89.714C34.401,92.402 34.473,93.064 36.956,93.265C39.397,93.463 41.921,93.358 44.324,92.922C45.178,92.768 45.785,91.251 47.063,89.662C42.916,89.662 39.993,89.662 36.205,89.714M130.46,76.864C131.495,81.593 134.732,78.466 137.279,79.129C137.279,77.189 137.279,75.675 137.279,72.601C134.448,74.024 132.4,75.053 130.46,76.864M169.094,81.565C170.691,81.462 172.288,81.359 173.806,81.261C173.806,79.194 173.806,77.515 173.806,75.645C171.489,75.846 169.592,76.01 167.093,76.227C167.596,78.305 167.962,79.819 169.094,81.565z"/><path fill="#f0f0f0" d="M109.289,112.807C108.318,103.837 107.943,103.508 99.494,103.855C98.497,103.896 97.494,104.036 96.504,103.972C91.338,103.635 88.344,105.593 88.202,111.179C88.135,113.82 87.499,116.447 87.105,119.078C85.803,127.764 82.723,130.178 72.459,129.804C83.362,124.483 81.239,114.224 82.642,105.699C83.497,100.501 85.125,98.512 90.307,98.604C96.783,98.719 103.27,98.291 109.748,98.001C112.576,97.874 113.815,98.925 114.28,101.867C115.542,109.851 117.179,117.775 118.71,125.954C116.179,125.954 113.894,125.954 110.995,125.954C110.441,121.659 109.898,117.452 109.289,112.807z"/><path fill="#f1f1f2" d="M132.292,92.028C136.031,92.017 139.308,92.017 142.904,92.017C142.904,94.758 142.904,97.157 142.904,100.239C137.802,100.239 132.57,100.239 127.211,100.239C125.506,93.322 125.921,92.527 132.292,92.028z"/><path fill="#eeeeee" d="M107.888,65.83C103.098,65.844 98.792,65.844 94.299,65.844C93.206,62.816 93.507,60.832 97.512,60.961C100.17,61.047 102.836,60.844 105.498,60.817C108.481,60.787 111.463,60.81 114.9,60.81C115.021,62.491 115.116,63.823 115.237,65.509C112.652,65.625 110.513,65.721 107.888,65.83z"/><path fill="#e7e7e7" d="M71.68,90.344C72.629,92.637 73.125,94.875 73.737,97.637C69.682,97.836 66.47,97.993 62.632,98.181C62.455,95.736 62.286,93.42 62.059,90.289C65.433,90.289 68.33,90.289 71.68,90.344z"/><path fill="#f2f2f2" d="M178.443,96.865C177.653,98.271 176.97,99.981 176.117,100.071C173.337,100.364 170.431,100.39 167.706,99.85C166.426,99.597 165.448,97.817 164.333,96.728C165.406,95.8 166.383,94.256 167.574,94.069C170.329,93.634 173.211,93.644 175.993,93.935C176.896,94.029 177.65,95.556 178.443,96.865z"/><path fill="#ededed" d="M147.898,23.942C149.786,21.023 151.508,18.435 153.354,15.659C155.799,26.979 153.65,30.637 145.046,29.623C145.975,27.772 146.854,26.022 147.898,23.942z"/><path fill="#e6e7e6" d="M104.767,78.952C101.616,79.919 98.505,80.697 95.379,80.768C94.776,80.782 94.109,78.03 93.139,75.783C96.947,75.608 99.724,75.215 102.427,75.505C103.317,75.601 104.016,77.463 104.767,78.952z"/><path fill="#e2e2e2" d="M36.666,103.892C34.414,100.69 35.046,98.85 38.946,98.784C40.906,98.751 42.867,98.778 45.299,98.778C45.455,100.228 45.596,101.545 45.772,103.179C42.604,103.46 39.841,103.706 36.666,103.892z"/><path fill="#e9e9e9" d="M154.546,43.975C152.408,43.318 150.682,42.639 148.956,41.96C150.182,40.371 151.206,37.8 152.697,37.492C153.968,37.229 155.865,39.483 157.221,40.879C157.367,41.029 155.755,42.887 154.546,43.975z"/><path fill="#e4e4e4" d="M36.637,89.688C39.993,89.662 42.916,89.662 47.063,89.662C45.785,91.251 45.178,92.768 44.324,92.922C41.921,93.358 39.397,93.463 36.956,93.265C34.473,93.064 34.401,92.402 36.637,89.688z"/><path fill="#e9e9e9" d="M130.406,76.473C132.4,75.053 134.448,74.024 137.279,72.601C137.279,75.675 137.279,77.189 137.279,79.129C134.732,78.466 131.495,81.593 130.406,76.473z"/><path fill="#ededed" d="M168.711,81.449C167.962,79.819 167.596,78.305 167.093,76.227C169.592,76.01 171.489,75.846 173.806,75.645C173.806,77.515 173.806,79.194 173.806,81.261C172.288,81.359 170.691,81.462 168.711,81.449z"/></svg>