<svg xmlns="http://www.w3.org/2000/svg" viewBox="0 0 228 172" xml:space="preserve"><path fill="#080808" d="M91.976,8.876C98.178,8.484 104.375,7.906 110.583,7.739C123.355,7.395 136.133,7.119 148.909,7.116C156,7.114 163.364,6.711 170.05,8.53C172.837,9.288 174.226,15.336 176.132,19.039C176.46,19.677 175.914,20.769 176.247,21.4C178.749,26.131 181.237,30.878 183.983,35.469C188.883,43.66 194.06,51.686 198.884,59.92C199.893,61.643 199.526,64.136 200.412,65.977C201.637,68.522 203.158,71.052 205.06,73.121C212.14,80.823 208.188,89.437 206.834,97.592C206.594,99.039 201.595,99.696 198.034,100.994C198.371,103.975 198.97,107.854 199.193,111.755C199.331,114.176 198.927,116.631 198.699,119.064C198.656,119.525 198.008,120.053 198.121,120.386C199.885,125.57 201.727,130.728 203.595,136.015C206.453,133.124 209.423,130.12 212.394,127.116C212.858,127.265 213.322,127.415 213.786,127.565C212.455,133.266 211.123,138.968 209.813,144.575C212.601,142.996 215.879,141.14 219.156,139.285C219.41,139.646 219.664,140.007 219.918,140.368C217.9,142.193 215.883,144.019 213.667,146.024C217.205,149.117 220.374,151.888 224.143,155.183C218.326,155.183 213.063,155.183 207.377,154.615C206.74,151.148 206.528,148.25 206.315,145.352C205.745,145.388 205.176,145.425 204.606,145.461C204.606,148.46 204.606,151.46 204.606,154.459C202.467,155.451 200.355,156.507 198.176,157.399C197.371,157.729 196.364,157.906 195.524,157.748C192.591,157.196 189.718,156.12 186.772,155.889C182.58,155.561 178.343,155.806 174.125,155.806C174.081,156.336 174.037,156.866 173.993,157.396C177.316,158.784 180.639,160.171 183.963,161.558C183.839,162.164 183.715,162.769 183.592,163.374C180.09,163.206 175.282,164.418 173.35,162.591C168.936,158.415 164.523,159.745 159.677,159.716C156.938,159.699 154.286,157.216 151.452,156.267C149.804,155.715 147.848,155.754 146.079,155.957C141.699,156.459 139.329,155.455 140.75,150.374C141.18,148.836 140.816,147.076 140.816,144.614C145.665,144.614 150.437,144.614 156.008,144.526C157.4,145.365 157.992,146.292 157.89,146.132C166.945,143.463 175.043,145.103 183.201,144.745C180.387,141.615 177.859,141.394 155.985,142.095C155.077,140.969 154.169,139.843 153.216,138.662C150.112,144.458 144.484,140.862 139.171,141.871C139.838,127.03 140.476,112.837 141.138,98.131C145.57,98.131 149.78,98.131 153.989,98.131C154.005,97.689 154.02,97.246 154.036,96.804C149.982,96.804 145.927,96.804 141.512,96.804C141.512,91.888 141.512,87.051 141.512,82.189C148.351,79.758 156.46,85.317 161.428,80.268C170.12,80.812 177.565,81.335 185.019,81.676C185.978,81.72 187.324,81.077 187.899,80.309C189.794,77.78 191.113,77.304 193.04,80.418C193.565,81.266 195.981,81.061 197.537,81.126C200.018,81.229 202.506,81.154 205.087,81.154C203.652,74.819 198.119,73.874 192.173,71.495C195.209,71.495 196.933,71.495 198.658,71.495C198.834,71.142 199.01,70.79 199.186,70.437C197.742,69.484 196.297,68.53 194.852,67.583C199.387,56.027 187.826,57.582 182.345,52.786C185.655,53.154 187.954,53.409 190.252,53.664C190.522,53.311 190.792,52.958 191.062,52.605C188.43,50.503 185.799,48.401 183.167,46.299C182.664,46.571 182.161,46.843 181.658,47.115C181.899,45.146 182.14,43.177 182.382,41.208C183.061,40.98 183.741,40.751 184.421,40.523C180.757,37.684 177.093,34.844 173.243,31.86C174.592,31.394 176.194,30.841 178.854,29.923C176.053,26.285 173.535,23.013 171.017,19.742C171.449,19.453 171.88,19.163 172.312,18.874C170.291,17.814 168.27,16.754 165.803,15.46C167.352,14.73 168.565,14.159 170.927,13.047C168.873,12.132 167.663,11.201 166.384,11.094C161.702,10.704 156.993,10.377 152.301,10.447C149.391,10.49 146.504,11.532 143.585,11.672C141.349,11.779 139.084,10.973 136.825,10.926C130.164,10.788 123.5,10.845 116.838,10.789C110.843,10.738 104.846,10.516 98.855,10.628C96.8,10.667 94.76,11.487 92.338,11.601C91.967,10.461 91.972,9.669 91.976,8.876z"/><path fill="#090909" d="M68.819,143.387C70.538,143.825 72.238,144.5 73.982,144.645C76.565,144.861 79.18,144.701 81.685,144.701C81.685,148.246 81.685,151.355 81.685,154.839C78.069,154.839 74.643,154.839 70.408,154.839C71.464,156.371 72.076,157.258 72.743,158.225C72.262,158.361 71.81,158.627 71.382,158.59C65.87,158.119 60.581,157.82 55.478,161.189C53.388,162.569 49.968,161.935 47.152,162.218C46.978,161.609 46.804,161 46.63,160.392C49.714,159.066 52.798,157.741 55.719,156.487C49.286,153.152 42.701,154.748 36.035,156.195C34.688,156.487 33.065,155.3 31.53,154.991C29.139,154.511 26.699,153.802 24.309,153.898C19.695,154.085 15.101,154.766 10.499,155.242C10.384,154.693 10.269,154.145 10.154,153.597C13.111,151.534 16.068,149.471 19.195,147.289C18.045,145.749 16.897,144.212 14.821,141.432C17.688,142.221 19.19,142.635 21.127,143.168C20.02,139.379 18.978,135.813 17.935,132.247C18.249,132.062 18.562,131.878 18.876,131.693C20.646,134.078 22.417,136.462 24.084,138.707C29.335,136.675 28.728,131.855 29.374,127.667C30.773,118.593 32.087,109.507 33.377,100.816C32.168,100.111 31.913,99.845 31.633,99.816C23.944,99.031 24.289,98.963 22.665,91.131C21.267,84.394 21.767,78.655 26.411,73.102C29.016,69.986 30.041,65.599 32.138,61.995C35.324,56.519 38.823,51.226 42.6,46.184C43.042,46.755 43.073,46.998 43.104,47.242C42.941,48.362 42.777,49.483 42.558,50.983C44.808,50.842 46.8,50.717 49.622,50.539C44.955,53.731 40.34,55.727 37.478,59.177C34.689,62.54 33.694,67.39 31.807,71.833C34.537,71.833 37.081,71.833 40.32,71.833C35.041,74.597 30.237,77.113 25.434,79.628C25.667,80.414 25.901,81.2 26.134,81.986C32.42,81.119 38.705,80.252 45.328,79.338C45.381,80.114 45.454,81.18 45.564,82.793C51.84,81.496 58.045,80.213 65.011,78.772C63.988,79.858 63.45,80.429 62.413,81.529C68.935,81.529 74.878,81.529 81.264,81.529C81.264,86.413 81.28,90.947 81.208,95.479C81.205,95.67 80.387,95.847 79.047,96.025C68.008,96.128 57.871,96.237 47.734,96.346C47.745,96.865 47.756,97.383 47.768,97.902C58.181,97.902 68.595,97.902 79.008,97.902C80.114,98.088 81.22,98.274 82.914,98.559C82.914,112.674 82.914,126.636 82.914,141.108C79.649,141.108 76.323,141.108 72.736,141.108C72.418,139.446 72.094,137.747 71.598,135.158C70.784,137.666 70.252,139.305 68.96,141.033C61.066,141.619 53.931,142.117 46.796,142.615C46.855,143.352 46.915,144.089 46.974,144.825C53.124,144.338 59.274,143.837 65.426,143.378C66.551,143.294 67.688,143.379 68.819,143.387z"/><path fill="#0b0b0b" d="M107.373,109.187C105.438,100.514 103.659,92.285 101.853,84.062C101.792,83.784 101.459,83.565 101.035,83.059C96.81,85.953 97.32,90.655 97.146,94.615C96.586,107.402 96.607,120.214 96.292,133.013C96.251,134.678 95.549,136.327 94.667,137.927C88.331,121.387 97.407,103.242 88.161,87.041C88.161,92.591 88.161,98.142 88.161,103.693C87.715,103.723 87.268,103.753 86.821,103.783C86.566,102.127 86.29,100.473 86.06,98.813C85.354,93.728 84.464,88.656 84.097,83.546C83.989,82.044 84.958,79.741 86.166,79.005C89.653,76.879 93.513,75.364 97.226,73.609C97.262,73.116 97.297,72.622 97.333,72.129C93.636,71.526 89.946,70.875 86.24,70.334C82.866,69.841 79.271,70.026 76.149,68.885C73.064,67.758 72.354,65.161 75.657,62.928C78.411,61.068 80.996,59.988 84.838,60.517C89.013,61.092 93.86,60.191 97.793,58.494C110.73,52.916 123.173,53.405 135.793,59.355C138.076,60.431 141.162,60.1 143.852,59.952C149.256,59.656 154.626,59.076 157.376,66.249C150.065,72.575 139.176,67.517 131.826,73.597C131.908,73.91 131.903,74.402 132.098,74.501C138.181,77.597 141.608,81.27 137.449,88.669C136.006,91.235 137.155,95.213 136.934,98.533C136.824,100.176 136.292,101.791 135.95,103.419C135.335,103.409 134.719,103.399 134.104,103.389C133.688,97.612 133.271,91.835 132.855,86.058C132.342,85.965 131.828,85.872 131.314,85.779C130.559,88.312 129.328,90.811 129.136,93.387C128.445,102.672 128.092,111.983 127.638,121.286C127.387,126.43 127.259,131.581 126.915,136.718C126.838,137.866 126.085,138.968 125.085,140.024C121.927,121.354 124.27,102.106 118.653,83.897C118.089,83.833 117.526,83.769 116.962,83.705C115.996,86.836 114.387,89.923 114.174,93.104C113.218,107.36 112.523,121.638 112.041,135.919C111.896,140.205 112.941,144.52 113.045,148.832C113.093,150.793 112.177,152.777 111.699,154.75C111.11,154.837 110.522,154.923 109.934,155.009C109.166,153.444 107.933,151.935 107.737,150.301C107.425,147.695 107.907,145.005 107.87,142.354C107.75,133.753 107.528,125.153 107.39,116.552C107.353,114.247 107.474,111.938 107.373,109.187M112.68,60.939C114.982,60.508 117.284,60.077 119.586,59.646C114.939,59.514 109.708,56.832 105.666,63.485C109.025,64.346 111.987,65.104 115.339,66.401C117.457,66.014 119.574,65.628 121.692,65.241C121.639,64.671 121.586,64.101 121.533,63.531C119.671,63.726 117.81,63.92 115.162,64.008C114.113,63.894 113.064,63.779 112.025,63.116C112.025,62.566 112.024,62.017 112.68,60.939z"/><path fill="#0f0e0f" d="M85.895,31.005C87.338,31.539 89.059,31.742 90.168,32.673C92.871,34.943 94.336,33.871 95.269,31.151C96.497,27.572 97.537,23.928 98.752,20.01C97.507,19.576 96.368,19.18 95.11,18.741C95.366,18.114 95.423,17.431 95.743,17.27C99.137,15.563 102.226,15.005 106.456,15.781C113.091,16.999 120.269,16.469 127.017,15.407C131.082,14.768 133.927,15.603 137.109,17.569C133.654,20.851 133.746,21.69 139.066,36.463C141.784,36.142 144.653,35.608 147.533,35.541C149.163,35.503 150.812,36.231 152.623,37.083C152.528,37.917 152.263,38.282 151.586,38.708C147.478,39.229 143.781,39.689 139.58,40.212C140.473,42.65 140.648,45.636 142.044,46.405C144.742,47.891 149.267,49.719 150.963,48.507C153.482,46.707 154.202,42.388 155.914,39.077C156.441,38.9 156.702,38.727 156.923,38.495C158.203,38.004 159.483,37.512 161.09,36.895C156.853,30.134 157.313,19.865 144.986,21.817C152.352,14.441 159.47,14.962 164.469,21.367C162.939,21.704 161.6,22 160.096,22.331C160.472,23.42 160.722,24.553 161.232,25.553C167.53,37.916 173.832,50.277 180.246,62.579C180.898,63.828 182.483,64.563 183.285,65.769C184.194,67.136 184.708,68.766 185.394,70.281C183.522,70.927 181.56,72.289 179.796,72.069C176.07,71.604 172.218,70.513 174.476,65.09C174.658,64.652 174.116,63.87 173.829,63.288C170.159,55.863 166.475,48.445 161.999,39.424C160.27,42.012 158.458,43.614 158.073,45.505C156.816,51.691 150.661,55.521 144.635,53.403C142.612,52.692 140.621,51.89 138.595,51.187C135.709,50.187 131.463,50.661 134.663,45.023C135.637,43.307 132.889,39.478 131.727,36.29C133.261,31.409 130.001,26.497 128.454,21.666C127.971,20.156 122.966,20.094 119.187,19.161C119.435,24.515 119.858,28.484 119.634,32.416C119.578,33.404 117.445,34.274 116.266,35.197C115.675,33.836 114.672,32.504 114.577,31.109C114.379,28.188 115.038,25.168 114.547,22.327C114.363,21.26 111.878,19.757 110.598,19.895C108.351,20.137 104.924,17.677 103.905,21.86C102.755,26.581 101.837,31.358 100.699,36.081C100.494,36.933 99.546,37.584 99.229,38.435C98.423,40.594 96.518,43.536 97.29,44.885C100.726,50.886 96.143,50.476 92.812,51.38C88.155,52.645 83.528,54.019 78.246,55.53C75.159,51.555 76.744,43.49 69,40.835C65.177,48.437 61.446,55.815 57.776,63.222C57.445,63.89 57.336,64.77 57.414,65.521C57.897,70.185 53.301,73.91 49.017,72.108C47.928,71.65 46.354,70.229 46.467,69.468C46.71,67.828 47.73,66.202 48.749,64.802C50.326,62.637 52.587,60.89 53.826,58.575C60.165,46.729 66.269,34.758 72.675,22.406C71.052,22.053 69.917,21.807 68.895,21.585C68.426,19.022 77.627,14.889 80.131,16.306C82.027,17.379 83.817,18.637 86.331,20.247C84.099,21.085 82.205,21.796 80.318,22.504C82.225,25.051 84.215,27.709 85.776,30.796C82.56,29.286 79.774,27.348 76.658,25.181C74.746,29.248 72.66,33.689 71.02,37.178C75.42,41.173 79.21,44.615 83,48.056C82.768,48.958 83.253,49.022 83.738,49.022C87.9,49.027 90.33,47.068 91.831,43.067C93.496,38.632 90.896,36.389 88.311,33.849C87.428,32.98 86.696,31.958 85.895,31.005z"/><path fill="#131313" d="M43.417,47.07C43.073,46.998 43.042,46.755 42.972,46.146C45.932,38.918 48.78,31.984 51.979,25.216C54.573,19.728 57.569,14.429 60.448,9.08C60.721,8.573 61.436,7.966 61.941,7.971C71.438,8.057 80.935,8.229 90.588,8.897C90.163,9.965 89.581,10.519 88.999,11.074C83.133,11.342 77.269,11.645 71.402,11.844C70.367,11.879 69.304,11.532 68.278,11.268C65.163,10.467 62.41,10.5 60.918,14.558C62.515,14.779 64.022,14.988 66.633,15.351C64.583,16.513 63.063,17.036 62.007,18.045C59.993,19.972 58.244,22.176 56.384,24.264C58.216,25.488 60.047,26.711 62.366,28.261C58.033,31.501 50.015,30.91 49.61,39.123C50.701,39.573 52.266,40.22 54.218,41.027C50.38,43.176 47.055,45.037 43.417,47.07z"/><path fill="#141313" d="M92.988,154.707C93.553,150.826 94.076,147.358 94.599,143.891C97.265,149.651 94.368,157.767 103.539,159.855C98.06,164.723 91.995,165.012 86.039,160.942C88.403,158.95 90.675,157.036 92.988,154.707z"/><path fill="#151515" d="M118.539,160.464C125.249,157.882 122.914,151.232 125.565,146.651C126.136,153.169 126.823,159.498 135.153,160.668C130.135,166.126 121.337,165.805 118.539,160.464z"/><path fill="#cecece" d="M156.082,142.277C177.859,141.394 180.387,141.615 183.201,144.745C175.043,145.103 166.945,143.463 157.89,146.132C157.992,146.292 157.4,145.365 156.44,144.318C156.109,143.619 156.144,143.038 156.082,142.277z"/><path fill="#eaeae8" d="M79.011,97.616C68.595,97.902 58.181,97.902 47.768,97.902C47.756,97.383 47.745,96.865 47.734,96.346C57.871,96.237 68.008,96.128 78.579,96.104C79.014,96.569 79.014,96.95 79.011,97.616z"/><path fill="#e1e2e1" d="M68.884,143.045C67.688,143.379 66.551,143.294 65.426,143.378C59.274,143.837 53.124,144.338 46.974,144.825C46.915,144.089 46.855,143.352 46.796,142.615C53.931,142.117 61.066,141.619 68.618,141.219C69.006,141.779 68.978,142.241 68.884,143.045z"/><path fill="#262526" d="M155.345,73.004C158.49,72.545 161.3,72.212 164.109,71.88C164.144,72.371 164.179,72.863 164.214,73.355C159.915,76.873 156.658,76.794 155.345,73.004z"/><path fill="#1e1f1f" d="M120.721,48.664C117.74,50.609 114.99,52.502 112.763,47.991C113.963,46.846 115.134,45.729 116.599,44.331C118.048,45.673 119.513,47.029 120.721,48.664z"/><path fill="#1e1e1e" d="M122.479,40.088C124.67,39.032 126.57,38.185 128.471,37.339C128.808,37.984 129.145,38.629 129.482,39.274C126.761,40.916 124.04,42.557 121.32,44.198C120.976,43.726 120.632,43.253 120.288,42.78C120.921,41.953 121.555,41.126 122.479,40.088z"/><path fill="#979999" d="M205.01,154.586C204.606,151.46 204.606,148.46 204.606,145.461C205.176,145.425 205.745,145.388 206.315,145.352C206.528,148.25 206.74,151.148 207.024,154.482C206.534,154.849 205.974,154.781 205.01,154.586z"/><path fill="#101011" d="M156.672,38.242C156.702,38.727 156.441,38.9 155.539,39.072C153.957,38.969 152.978,38.808 151.999,38.647C152.263,38.282 152.528,37.917 152.887,37.348C154.127,37.424 155.274,37.706 156.672,38.242z"/><path fill="#222222" d="M89.284,11.302C89.581,10.519 90.163,9.965 90.892,9.142C91.038,8.873 91.507,8.785 91.742,8.831C91.972,9.669 91.967,10.461 91.978,11.649C91.185,11.874 90.377,11.702 89.284,11.302z"/><path fill="#ededed" d="M114.949,65.863C111.987,65.104 109.025,64.346 105.666,63.485C109.708,56.832 114.939,59.514 119.586,59.646C117.284,60.077 114.982,60.508 112.064,61.285C111.637,62.31 111.826,62.987 112.015,63.665C113.064,63.779 114.113,63.894 115.507,64.319C115.551,65.041 115.25,65.452 114.949,65.863z"/><path fill="#121212" d="M115.144,66.132C115.25,65.452 115.551,65.041 115.9,64.372C117.81,63.92 119.671,63.726 121.533,63.531C121.586,64.101 121.639,64.671 121.692,65.241C119.574,65.628 117.457,66.014 115.144,66.132z"/><path fill="#121212" d="M112.02,63.39C111.826,62.987 111.637,62.31 111.736,61.55C112.024,62.017 112.025,62.566 112.02,63.39z"/><path fill="#f2f2f2" d="M85.919,31.047C86.696,31.958 87.428,32.98 88.311,33.849C90.896,36.389 93.496,38.632 91.831,43.067C90.33,47.068 87.9,49.027 83.738,49.022C83.253,49.022 82.768,48.958 83,48.056C79.21,44.615 75.42,41.173 71.02,37.178C72.66,33.689 74.746,29.248 76.658,25.181C79.774,27.348 82.56,29.286 85.686,31.182C86.026,31.14 85.943,31.089 85.919,31.047z"/><path fill="#ececec" d="M151.586,38.708C152.978,38.808 153.957,38.969 155.312,39.136C154.202,42.388 153.482,46.707 150.963,48.507C149.267,49.719 144.742,47.891 142.044,46.405C140.648,45.636 140.473,42.65 139.58,40.212C143.781,39.689 147.478,39.229 151.586,38.708z"/></svg>