<svg xmlns="http://www.w3.org/2000/svg" viewBox="0 0 225 125" xml:space="preserve"><path fill="#f5f6f6" d="M187.914,30.806C187.947,31.045 187.98,31.285 188.012,32.187C187.583,33.531 187.155,34.214 186.383,34.923C182.344,37.525 178.649,40.101 174.468,43.016C178.279,45.842 181.729,48.4 185.143,51.219C185.4,51.583 185.693,51.686 186.356,51.886C187.798,52.919 189.944,54.359 189.779,54.71C188.167,58.126 190.73,59.419 192.597,61.178C194.99,63.432 197.535,65.601 199.498,68.197C200.263,69.208 199.623,71.281 199.623,72.871C199.106,72.939 198.589,73.008 198.072,73.076C196.502,71.198 194.828,69.395 193.38,67.427C187.781,59.817 182.057,58.577 173.722,63.213C173.257,63.401 173.049,63.703 172.514,64.146C168.942,67.117 165.698,69.948 162.631,72.624C176.365,86.127 190.428,83.084 205.127,75.718C203.693,79.262 201.996,82.324 199.981,85.16C198.261,87.579 197.595,89.63 198.712,91.496C199.194,92.647 199.6,93.445 200.005,94.242C199.173,95.746 202.942,98.993 197.477,98.912C189.465,95.203 192.775,90.104 195.778,85.176C191.023,85.176 187.206,85.179 183.39,85.176C176.639,85.17 175.136,86.32 172.978,92.893C172.477,94.42 172.015,96.209 170.927,97.232C169.671,98.413 167.744,98.878 166.108,99.654C165.786,99.183 165.465,98.712 165.144,98.241C163.194,100.688 161.106,103.039 159.338,105.611C157.738,107.938 156.488,110.506 154.997,112.589C153.311,106.57 151.711,100.929 149.786,94.141C146.97,95.706 144.34,97.168 141.562,98.711C139.938,97.807 137.999,96.728 137.182,96.273C132.418,103.261 128.055,109.661 123.691,116.06C123.691,116.06 123.314,116.171 122.886,116.132C122.291,116.086 122.123,116.08 121.955,116.074C121.731,116.041 121.507,116.008 120.987,115.52C122.424,108.848 120.58,103.026 115.504,100.929C114.313,105.577 113.148,110.121 111.983,114.665C111.99,114.887 111.996,115.109 111.672,115.665C110.902,115.999 110.461,115.999 109.964,115.641C107.332,110.143 104.876,104.937 102.08,99.92C101.539,98.95 99.649,98.189 98.419,98.241C93.18,98.459 87.956,99.018 82.024,99.511C82.312,101.702 82.783,103.891 82.831,106.089C82.867,107.773 82.915,110.042 81.934,110.973C81.175,111.695 78.832,110.75 77.034,110.222C75.378,105.623 73.881,101.349 72.331,96.921C65.205,98.036 60.62,96.253 60.247,88.467C60.194,87.359 58.251,85.538 57.06,85.433C52.848,85.059 48.582,85.287 44.117,85.287C43.703,88.791 43.347,91.794 42.872,95.812C35.353,89.842 29.656,83.7 26.15,75.713C24.779,72.591 25.498,70.179 28.435,67.995C30.376,66.551 32.931,64 32.81,62.098C32.512,57.436 35.243,56.781 38.427,56.301C42.915,55.624 46.899,55.159 49.016,49.783C50.484,46.055 50.292,43.982 47.237,41.821C45.034,40.262 42.913,38.584 40.756,36.96C40.961,36.595 41.167,36.231 41.373,35.866C44.334,36.645 47.255,37.704 50.266,38.127C53.505,38.582 56.828,38.441 60.476,38.673C61.56,38.312 62.283,37.837 63.384,37.224C67.149,36.876 70.539,36.711 73.922,36.448C84.054,35.661 84.053,35.646 87.281,26.024C87.692,26.023 87.906,25.956 88.436,25.884C95.58,27.624 102.382,29.286 109.106,31.45C104.855,34.297 105.364,38.421 104.927,42.291C104.656,44.69 103.76,47.019 103.144,49.38C102.528,49.304 101.911,49.229 101.294,49.153C100.331,46.463 99.367,43.773 98.337,40.897C92.922,40.897 87.488,40.764 82.07,40.99C80.697,41.048 79.373,42.252 78.028,43.213C78.267,43.99 78.505,44.483 78.759,45.327C77.88,47.18 76.985,48.682 75.615,50.979C73.954,48.824 72.635,47.445 71.715,45.838C70.511,43.731 71.099,40.1 67.137,40.497C64.515,40.76 61.057,40.467 59.523,41.987C57.212,44.275 55.649,47.818 55.047,51.065C54.829,52.238 58.079,54.516 60.12,55.559C66.127,58.629 72.38,57.634 78.926,57.056C94.149,55.711 109.478,55.172 124.766,55.134C132.465,55.114 140.286,56.351 147.842,57.987C160.832,60.799 168.207,60.739 182.291,55.871C177.814,53.679 173.903,51.764 169.916,49.681C169.708,49.297 169.528,49.134 169.23,48.633C167.548,41.451 162.818,38.625 156.426,41.029C155.413,41.41 155.052,43.623 154.472,45.023C153.84,46.549 153.303,48.113 152.724,49.661C149.525,41.111 149.028,40.681 140.738,40.4C139.252,40.35 137.619,41.038 136.288,40.626C131.329,39.092 128.928,40.99 127.86,45.816C127.637,46.824 125.82,48.083 124.711,48.109C123.731,48.133 122.064,46.747 121.835,45.728C121.172,42.784 121.308,39.664 120.667,36.713C120.376,35.37 119.236,33.795 118.041,33.18C116.854,32.57 115.115,33.033 113.526,32.476C113.803,31.638 114.143,31.147 114.546,31.089C121.87,30.034 129.18,28.679 136.545,28.201C139.221,28.028 142.602,29.31 144.671,31.083C149.493,35.216 154.406,38.357 161.266,37.681C161.489,37.787 161.962,37.646 162.384,37.734C170.492,36.815 178.919,38.47 185.275,31.537C186.35,31.221 187.132,31.013 187.914,30.806M74.613,83.209C74.408,83.483 74.203,83.756 73.448,84.454C74.421,86.056 75.005,88.348 76.428,89.15C86.743,94.962 98.034,94.688 109.232,93.245C114.332,92.587 115.607,85.792 112.009,81.083C102.202,68.246 83.592,69.209 74.613,83.209M145.578,93.007C152.642,91.412 159.705,89.816 167.685,88.014C164.546,84.481 162.221,82.402 160.557,79.885C156.086,73.124 149.716,70.712 141.969,71.047C134.029,71.39 126.94,73.726 121.98,80.344C118.008,85.643 119.441,90.849 125.737,91.965C131.923,93.062 138.365,92.715 145.578,93.007M60.016,83.032C61.839,82.546 63.743,82.254 65.464,81.528C67.849,80.521 70.099,79.193 72.401,77.992C73.236,77.556 74.748,77.069 74.737,76.637C74.711,75.663 74.155,74.456 73.414,73.791C69.861,70.603 66.549,66.858 62.43,64.667C58.242,62.439 52.918,60.13 48.624,60.884C43.442,61.795 38.668,65.662 34.034,68.728C32.269,69.896 30.152,72.598 30.426,74.225C30.728,76.014 33.39,78.299 35.387,78.749C43.25,80.519 51.256,81.652 60.016,83.032M101.998,33.281C102.16,33.017 102.322,32.754 102.483,32.49C102.221,32.655 101.958,32.819 101.998,33.281M35.475,64.366C35.529,64.157 35.583,63.948 35.637,63.738C35.505,63.873 35.372,64.007 35.475,64.366M36.483,58.588C36.483,58.588 36.417,58.477 36.483,58.588z"/><path fill="#080808" d="M60.114,38.559C56.828,38.441 53.505,38.582 50.266,38.127C47.255,37.704 44.334,36.645 41.373,35.866C41.167,36.231 40.961,36.595 40.756,36.96C42.913,38.584 45.034,40.262 47.237,41.821C50.292,43.982 50.484,46.055 49.016,49.783C46.899,55.159 42.915,55.624 38.427,56.301C35.243,56.781 32.512,57.436 32.81,62.098C32.931,64 30.376,66.551 28.435,67.995C25.498,70.179 24.779,72.591 26.15,75.713C29.656,83.7 35.353,89.842 42.872,95.812C43.347,91.794 43.703,88.791 44.117,85.287C48.582,85.287 52.848,85.059 57.06,85.433C58.251,85.538 60.194,87.359 60.247,88.467C60.62,96.253 65.205,98.036 72.331,96.921C73.881,101.349 75.378,105.623 76.806,110.576C75.719,112.141 74.701,113.029 73.683,113.917C73.232,113.743 72.782,113.569 72.152,112.813C71.721,111.849 71.47,111.466 71.219,111.084C70.326,108.246 69.433,105.407 68.541,102.569C68.121,102.578 67.702,102.586 67.282,102.595C66.49,105.528 68.31,110.245 62.434,109.579C60.379,106.901 58.705,104.607 57.03,102.313C56.681,102.561 56.331,102.808 55.982,103.056C56.612,105.35 57.242,107.643 57.873,109.937C51.726,111.793 48.305,110.546 44.38,105.123C44.029,104.638 43.277,104.445 42.205,103.819C38.096,96.834 32.553,92.968 24.995,92.028C16.389,91.299 10.324,84.204 10.989,75.642C15.344,76.55 18.247,73.559 17.296,69.415C17.022,68.223 17.259,66.365 18.037,65.583C20.304,63.304 22.963,61.415 25.469,59.373C25.291,58.797 25.113,58.22 24.935,57.644C20.637,56.712 16.291,55.955 12.051,54.808C6.113,53.2 4.536,48.687 9.103,45.31C16.938,39.518 23.881,31.973 34.962,31.742C37.418,31.691 40.268,28.324 42.122,25.868C46.761,19.722 53.586,17.341 60.362,16.197C64.226,15.544 68.739,18.306 72.87,19.78C77.069,21.278 81.159,23.082 85.762,25.084C86.522,25.624 86.816,25.832 87.111,26.039C84.053,35.646 84.054,35.661 73.922,36.448C70.539,36.711 67.149,36.876 63.046,37.219C61.591,37.755 60.852,38.157 60.114,38.559M30.531,48.209C31.462,46.696 32.393,45.183 33.324,43.67C31.4,42.502 29.477,41.333 26.422,39.476C26.077,43.674 25.857,46.349 25.637,49.025C27.085,48.916 28.534,48.808 30.531,48.209M52.867,30.955C58.026,31.979 56.655,27.392 57.796,24.682C55.524,25.126 53.522,26.015 51.64,27.108C49.073,28.598 50.046,29.826 52.867,30.955M75.406,30.166C75.309,28.411 75.212,26.657 75.115,24.902C74.63,24.897 74.146,24.891 73.661,24.886C72.28,26.625 70.899,28.364 69.517,30.103C69.816,30.444 70.114,30.786 70.412,31.127C71.82,30.873 73.228,30.62 75.406,30.166z"/><path fill="#030303" d="M198.635,91.143C197.595,89.63 198.261,87.579 199.981,85.16C201.996,82.324 203.693,79.262 205.127,75.718C190.428,83.084 176.365,86.127 162.631,72.624C165.698,69.948 168.942,67.117 172.737,64.096C173.58,63.787 173.81,63.595 173.979,63.328C182.057,58.577 187.781,59.817 193.38,67.427C194.828,69.395 196.502,71.198 198.072,73.076C198.589,73.008 199.106,72.939 199.623,72.871C199.623,71.281 200.263,69.208 199.498,68.197C197.535,65.601 194.99,63.432 192.597,61.178C190.73,59.419 188.167,58.126 189.779,54.71C189.944,54.359 187.798,52.919 186.264,51.711C185.639,51.221 185.431,51.062 185.179,50.958C181.729,48.4 178.279,45.842 174.468,43.016C178.649,40.101 182.344,37.525 186.787,34.949C190.502,35.413 191.25,33.799 191.002,31.25C193.414,30.631 195.826,30.012 198.617,29.822C198.722,36.368 203.437,33.172 206.316,34.142C207.519,34.56 208.401,34.837 209.283,35.114C211.413,37.544 213.246,40.356 215.752,42.3C218.506,44.437 218.666,46.697 217.112,49.683C214.341,50.861 212.18,51.9 210.019,52.939C209.569,52.966 209.12,52.992 208.239,52.574C203.588,51.626 199.367,51.123 194.74,50.572C194.74,53.683 194.74,55.672 194.74,58.337C197.353,58.086 199.745,57.857 202.138,57.627C202.304,57.659 202.47,57.69 202.895,58.09C203.298,58.711 203.507,58.887 203.779,58.987C205.206,61.064 206.633,63.14 207.808,65.811C207.251,69.404 205.254,72.701 209.066,74.975C209.368,74.956 209.651,75.021 209.999,75.781C210.826,77.587 211.31,79.166 212.374,79.885C213.956,80.955 215.948,81.417 217.765,82.138C216.754,84.014 215.743,85.89 214.026,87.847C211.441,87.708 209.135,85.227 207.998,88.932C207.665,89.375 207.331,89.819 206.606,90.639C205.233,91.718 204.252,92.421 203.111,92.683C201.512,91.876 200.073,91.509 198.635,91.143M198.074,44.533C199.295,45.29 200.435,46.416 201.758,46.703C203.239,47.025 204.885,46.588 206.46,46.48C206.306,45.01 206.698,42.87 205.886,42.208C204.125,40.773 201.748,40.095 199.624,39.108C199.256,40.72 198.889,42.333 198.074,44.533M182.892,69.918C182.469,68.938 181.86,67.071 181.652,67.115C179.378,67.592 177.166,68.368 174.938,69.062C175.13,69.883 175.322,70.703 175.515,71.523C177.79,71.185 180.065,70.846 182.892,69.918z"/><path fill="#040404" d="M161.044,37.574C154.406,38.357 149.493,35.216 144.671,31.083C142.602,29.31 139.221,28.028 136.545,28.201C129.18,28.679 121.87,30.034 114.546,31.089C114.143,31.147 113.803,31.638 113.571,32.468C113.708,33.008 113.528,33.054 113.836,32.567C112.578,31.699 111.012,31.317 109.385,30.935C109.325,30.936 109.184,30.948 109.184,30.948C102.382,29.286 95.58,27.624 88.411,25.367C87.991,24.084 87.938,23.396 87.884,22.708C91.423,19.482 94.693,15.875 98.578,13.142C102.135,10.64 106.356,9.082 110.635,7.633C111.028,9.856 111.068,11.552 111.117,13.608C110.602,14.307 109.76,14.544 109.613,15.003C109.185,16.34 108.366,18.515 108.913,19.003C110.14,20.098 112.098,20.817 113.761,20.822C114.841,20.826 115.925,19.301 117.007,18.46C116.045,17.375 115.133,16.238 114.101,15.222C113.413,14.544 112.555,14.038 111.983,13.132C113.797,11.913 115.4,11.019 117.002,10.124C120.108,11.747 123.214,13.37 126.655,15.487C127.086,17.081 127.183,18.182 127.231,18.732C130.082,19.208 132.465,19.607 134.849,20.005C142.852,28.7 144.887,26.224 151.373,22.125C154.131,20.383 157.18,19.101 160.65,17.857C163.797,18.085 166.391,18.066 168.985,18.048C172.902,20.093 176.82,22.137 180.929,24.824C182.408,27.525 183.696,29.585 184.983,31.644C178.919,38.47 170.492,36.815 162.303,37.607C161.499,37.21 161.247,37.271 161.044,37.574M160.764,25.946C156.45,23.458 154.881,26.717 152.684,29.376C158.592,32.25 160.535,31.542 160.764,25.946M173.903,29.442C174.398,29.793 174.892,30.145 175.387,30.496C174.969,28.638 174.552,26.781 174.135,24.924C173.443,24.947 172.751,24.97 172.059,24.993C171.143,26.65 170.227,28.307 169.311,29.964C169.744,30.184 170.176,30.404 170.608,30.624C171.648,30.041 172.688,29.458 173.903,29.442z"/><path fill="#0b0b0b" d="M155.084,112.967C156.488,110.506 157.738,107.938 159.338,105.611C161.106,103.039 163.194,100.688 165.144,98.241C165.465,98.712 165.786,99.183 166.108,99.654C167.744,98.878 169.671,98.413 170.927,97.232C172.015,96.209 172.477,94.42 172.978,92.893C175.136,86.32 176.639,85.17 183.39,85.176C187.206,85.179 191.023,85.176 195.778,85.176C192.775,90.104 189.465,95.203 197.141,98.885C197.598,100.474 197.671,101.987 197.785,104.359C192.291,106.413 186.236,108.677 179.658,111.137C179.235,109.177 178.943,107.826 178.391,105.272C176.2,108.062 174.457,110.282 172.166,113.199C171.11,112.702 169.177,112.2 167.772,111.052C163.899,107.886 161.172,107.854 159.525,112.436C158.402,115.561 156.8,114.918 154.439,114.671C154.391,113.901 154.737,113.434 155.084,112.967z"/><path fill="#090909" d="M73.824,114.265C74.701,113.029 75.719,112.141 76.965,110.899C78.832,110.75 81.175,111.695 81.934,110.973C82.915,110.042 82.867,107.773 82.831,106.089C82.783,103.891 82.312,101.702 82.024,99.511C87.956,99.018 93.18,98.459 98.419,98.241C99.649,98.189 101.539,98.95 102.08,99.92C104.876,104.937 107.332,110.143 109.782,115.813C109.658,116.343 109.513,116.821 109.513,116.821C97.564,117.696 85.712,116.997 73.824,114.265z"/><path fill="#070707" d="M154.997,112.589C154.737,113.434 154.391,113.901 154.019,114.673C146.309,115.508 138.627,116.083 130.938,116.541C128.828,116.666 126.696,116.44 124.133,116.218C128.055,109.661 132.418,103.261 137.182,96.273C137.999,96.728 139.938,97.807 141.562,98.711C144.34,97.168 146.97,95.706 149.786,94.141C151.711,100.929 153.311,106.57 154.997,112.589z"/><path fill="#0e0f0f" d="M112.357,114.749C113.148,110.121 114.313,105.577 115.504,100.929C120.58,103.026 122.424,108.848 120.653,115.459C117.62,118.343 115.17,116.626 112.357,114.749z"/><path fill="#1e1e1e" d="M40.197,106.033C38.431,108.79 36.85,110.708 34.222,106.538C31.838,102.756 28.861,99.348 26.529,95.53C33.584,96.093 36.386,101.686 40.197,106.033z"/><path fill="#e1e1e1" d="M40.494,106.008C36.386,101.686 33.584,96.093 26.566,95.186C25.816,94.305 25.411,93.522 25.001,92.383C32.553,92.968 38.096,96.834 41.836,103.842C41.58,104.769 41.186,105.376 40.494,106.008z"/><path fill="#0a0b0b" d="M201.953,57.342C199.745,57.857 197.353,58.086 194.74,58.337C194.74,55.672 194.74,53.683 194.74,50.572C199.367,51.123 203.588,51.626 207.905,52.517C204.139,53.088 200.276,53.272 196.413,53.456C196.383,53.796 196.353,54.136 196.324,54.476C198.138,55.336 199.953,56.196 201.953,57.342z"/><path fill="#0a0b0b" d="M217.904,81.874C215.948,81.417 213.956,80.955 212.374,79.885C211.31,79.166 210.826,77.587 210.127,75.96C212.177,76.129 214.429,76.358 216.1,77.465C217.186,78.185 217.424,80.185 217.904,81.874z"/><path fill="#040404" d="M205.995,34.001C203.437,33.172 198.722,36.368 198.996,29.856C201.164,30.203 203.334,30.946 205.742,32.251C205.985,33.209 205.99,33.605 205.995,34.001z"/><path fill="#e6e6e6" d="M58.185,110.086C57.242,107.643 56.612,105.35 55.982,103.056C56.331,102.808 56.681,102.561 57.03,102.313C58.705,104.607 60.379,106.901 62.04,109.559C60.851,110.027 59.674,110.131 58.185,110.086z"/><path fill="#0a0b0b" d="M209.013,74.576C205.254,72.701 207.251,69.404 207.885,66.151C208.462,68.658 208.711,71.417 209.013,74.576z"/><path fill="#0b0b0b" d="M116.742,9.908C115.4,11.019 113.797,11.913 111.796,13.148C111.399,13.488 111.108,13.249 111.108,13.249C111.068,11.552 111.028,9.856 110.988,7.736C112.819,8.106 114.65,8.899 116.742,9.908z"/><path fill="#0b0b0b" d="M185.275,31.537C183.696,29.585 182.408,27.525 181.108,25.112C182.238,25.363 183.382,25.968 184.838,27.106C185.724,27.917 186.299,28.195 186.874,28.473C187.148,29.093 187.422,29.713 187.805,30.569C187.132,31.013 186.35,31.221 185.275,31.537z"/><path fill="#0b0b0b" d="M134.897,19.639C132.465,19.607 130.082,19.208 127.231,18.732C127.183,18.182 127.086,17.081 126.99,15.612C129.642,16.586 132.294,17.929 134.897,19.639z"/><path fill="#0b0b0b" d="M168.743,17.789C166.391,18.066 163.797,18.085 161.004,17.728C163.37,17.412 165.936,17.471 168.743,17.789z"/><path fill="#0a0b0b" d="M208.318,89.131C209.135,85.227 211.441,87.708 213.693,87.976C212.731,90.435 211.499,93.272 208.318,89.131z"/><path fill="#0a0b0b" d="M210.278,53.141C212.18,51.9 214.341,50.861 216.792,49.919C214.901,51.126 212.719,52.234 210.278,53.141z"/><path fill="#f5f6f6" d="M203.271,93.125C204.252,92.421 205.233,91.718 206.578,90.934C205.943,92.395 206.381,95.434 203.051,94.101C203.263,93.534 203.343,93.366 203.271,93.125z"/><path fill="#0a0b0b" d="M203.111,92.683C203.343,93.366 203.263,93.534 203.005,93.781C202.816,93.891 202.653,93.851 201.967,93.737C201.298,93.811 201.152,93.958 201.006,94.105C200.835,94.099 200.665,94.093 200.249,94.164C199.6,93.445 199.194,92.647 198.712,91.496C200.073,91.509 201.512,91.876 203.111,92.683z"/><path fill="#040404" d="M190.681,31.197C191.25,33.799 190.502,35.413 187.132,34.922C187.155,34.214 187.583,33.531 188.056,32.547C188.854,31.878 189.607,31.511 190.681,31.197z"/><path fill="#0a0b0b" d="M206.316,34.142C205.99,33.605 205.985,33.209 205.985,32.515C207.27,33.161 208.549,34.104 209.556,35.081C208.401,34.837 207.519,34.56 206.316,34.142z"/><path fill="#0b0b0b" d="M87.61,22.832C87.938,23.396 87.991,24.084 88.069,25.289C87.906,25.956 87.692,26.023 87.281,26.024C86.816,25.832 86.522,25.624 86.101,25.174C86.428,24.273 86.882,23.615 87.61,22.832z"/><path fill="#090909" d="M70.942,111.105C71.47,111.466 71.721,111.849 71.989,112.471C71.559,112.183 71.113,111.655 70.942,111.105z"/><path fill="#f4f5f5" d="M186.823,28.142C186.299,28.195 185.724,27.917 185.103,27.318C185.627,27.268 186.199,27.54 186.823,28.142z"/><path fill="#f4f5f5" d="M109.865,116.861C109.513,116.821 109.658,116.343 109.839,116.172C110.461,115.999 110.902,115.999 111.673,115.998C111.407,116.298 110.812,116.6 109.865,116.861z"/><path fill="#f4f5f5" d="M122.038,116.233C122.123,116.08 122.291,116.086 122.694,116.176C122.66,116.303 122.39,116.348 122.038,116.233z"/><path fill="#f5f6f6" d="M201.113,94.26C201.152,93.958 201.298,93.811 201.723,93.802C201.741,94.098 201.481,94.257 201.113,94.26z"/><path fill="#0a0b0b" d="M203.87,58.722C203.507,58.887 203.298,58.711 203.079,58.265C203.323,58.199 203.642,58.328 203.87,58.722z"/><path fill="#060606" d="M113.528,33.054C113.528,33.054 113.708,33.008 113.663,33.016C115.115,33.033 116.854,32.57 118.041,33.18C119.236,33.795 120.376,35.37 120.667,36.713C121.308,39.664 121.172,42.784 121.835,45.728C122.064,46.747 123.731,48.133 124.711,48.109C125.82,48.083 127.637,46.824 127.86,45.816C128.928,40.99 131.329,39.092 136.288,40.626C137.619,41.038 139.252,40.35 140.738,40.4C149.028,40.681 149.525,41.111 152.724,49.661C153.303,48.113 153.84,46.549 154.472,45.023C155.052,43.623 155.413,41.41 156.426,41.029C162.818,38.625 167.548,41.451 169.136,48.876C169.404,49.624 169.698,49.737 169.992,49.85C173.903,51.764 177.814,53.679 182.291,55.871C168.207,60.739 160.832,60.799 147.842,57.987C140.286,56.351 132.465,55.114 124.766,55.134C109.478,55.172 94.149,55.711 78.926,57.056C72.38,57.634 66.127,58.629 60.12,55.559C58.079,54.516 54.829,52.238 55.047,51.065C55.649,47.818 57.212,44.275 59.523,41.987C61.057,40.467 64.515,40.76 67.137,40.497C71.099,40.1 70.511,43.731 71.715,45.838C72.635,47.445 73.954,48.824 75.615,50.979C76.985,48.682 77.88,47.18 78.867,45.03C78.647,43.898 78.337,43.413 78.026,42.929C79.373,42.252 80.697,41.048 82.07,40.99C87.488,40.764 92.922,40.897 98.337,40.897C99.367,43.773 100.331,46.463 101.294,49.153C101.911,49.229 102.528,49.304 103.144,49.38C103.76,47.019 104.656,44.69 104.927,42.291C105.364,38.421 104.855,34.297 109.106,31.45C109.184,30.948 109.325,30.936 109.21,31.429C110.573,32.299 112.05,32.677 113.528,33.054z"/><path fill="#080808" d="M145.136,93.005C138.365,92.715 131.923,93.062 125.737,91.965C119.441,90.849 118.008,85.643 121.98,80.344C126.94,73.726 134.029,71.39 141.969,71.047C149.716,70.712 156.086,73.124 160.557,79.885C162.221,82.402 164.546,84.481 167.685,88.014C159.705,89.816 152.642,91.412 145.136,93.005M150.58,79.58C145.244,75.67 145.695,83.598 142.208,84.596C146.135,84.918 150.061,85.24 153.987,85.561C154.191,84.981 154.395,84.401 154.599,83.821C153.5,82.536 152.4,81.251 150.58,79.58M129.934,83.461C131.8,84.122 133.666,84.783 135.837,85.552C136.415,83.011 136.805,81.293 137.226,79.446C133.489,78.272 131.047,78.956 129.934,83.461z"/><path fill="#080809" d="M59.613,83.027C51.256,81.652 43.25,80.519 35.387,78.749C33.39,78.299 30.728,76.014 30.426,74.225C30.152,72.598 32.269,69.896 34.034,68.728C38.668,65.662 43.442,61.795 48.624,60.884C52.918,60.13 58.242,62.439 62.43,64.667C66.549,66.858 69.861,70.603 73.414,73.791C74.155,74.456 74.711,75.663 74.737,76.637C74.748,77.069 73.236,77.556 72.401,77.992C70.099,79.193 67.849,80.521 65.464,81.528C63.743,82.254 61.839,82.546 59.613,83.027M51.622,73.074C54.235,75.019 56.47,73.916 57.742,71.624C58.301,70.614 57.442,67.506 56.866,67.405C54.325,66.959 51.653,67.261 47.78,67.307C49.529,70.129 50.287,71.353 51.622,73.074z"/><path fill="#070808" d="M75.087,82.993C83.592,69.209 102.202,68.246 112.009,81.083C115.607,85.792 114.332,92.587 109.232,93.245C98.034,94.688 86.743,94.962 76.428,89.15C75.005,88.348 74.421,86.056 74.034,84.265C74.775,83.715 74.931,83.354 75.087,82.993M91.06,84.622C93.178,84.615 95.305,84.716 97.411,84.554C98.452,84.474 99.456,83.908 100.476,83.562C100.041,82.368 99.894,80.927 99.121,80.022C95.164,75.391 88.208,77.215 86.136,83.334C86.217,83.454 86.282,83.664 86.381,83.681C87.673,83.904 88.969,84.1 91.06,84.622z"/><path fill="#f4f5f5" d="M60.476,38.673C60.852,38.157 61.591,37.755 62.668,37.358C62.283,37.837 61.56,38.312 60.476,38.673z"/><path fill="#f4f5f5" d="M101.847,33.132C101.958,32.819 102.221,32.655 102.483,32.49C102.322,32.754 102.16,33.017 101.847,33.132z"/><path fill="#f4f5f5" d="M78.028,43.213C78.337,43.413 78.647,43.898 78.85,44.68C78.505,44.483 78.267,43.99 78.028,43.213z"/><path fill="#f4f5f5" d="M35.357,64.254C35.372,64.007 35.505,63.873 35.637,63.738C35.583,63.948 35.529,64.157 35.357,64.254z"/><path fill="#f4f5f5" d="M74.85,83.101C74.931,83.354 74.775,83.715 74.308,84.053C74.203,83.756 74.408,83.483 74.85,83.101z"/><path fill="#0a0b0b" d="M173.722,63.213C173.81,63.595 173.58,63.787 173.065,63.956C173.049,63.703 173.257,63.401 173.722,63.213z"/><path fill="#f4f5f5" d="M36.45,58.533C36.417,58.477 36.483,58.588 36.45,58.533z"/><path fill="#0a0b0b" d="M185.143,51.219C185.431,51.062 185.639,51.221 185.895,51.613C185.693,51.686 185.4,51.583 185.143,51.219z"/><path fill="#f4f5f5" d="M169.916,49.681C169.698,49.737 169.404,49.624 169.205,49.267C169.528,49.134 169.708,49.297 169.916,49.681z"/><path fill="#0b0b0b" d="M161.266,37.681C161.247,37.271 161.499,37.21 161.881,37.519C161.962,37.646 161.489,37.787 161.266,37.681z"/><path fill="#ebeceb" d="M30.257,48.454C28.534,48.808 27.085,48.916 25.637,49.025C25.857,46.349 26.077,43.674 26.422,39.476C29.477,41.333 31.4,42.502 33.324,43.67C32.393,45.183 31.462,46.696 30.257,48.454z"/><path fill="#e3e4e4" d="M52.475,30.904C50.046,29.826 49.073,28.598 51.64,27.108C53.522,26.015 55.524,25.126 57.796,24.682C56.655,27.392 58.026,31.979 52.475,30.904z"/><path fill="#eeefef" d="M75.021,30.266C73.228,30.62 71.82,30.873 70.412,31.127C70.114,30.786 69.816,30.444 69.517,30.103C70.899,28.364 72.28,26.625 73.661,24.886C74.146,24.891 74.63,24.897 75.115,24.902C75.212,26.657 75.309,28.411 75.021,30.266z"/><path fill="#eff0f0" d="M198.298,44.239C198.889,42.333 199.256,40.72 199.624,39.108C201.748,40.095 204.125,40.773 205.886,42.208C206.698,42.87 206.306,45.01 206.46,46.48C204.885,46.588 203.239,47.025 201.758,46.703C200.435,46.416 199.295,45.29 198.298,44.239z"/><path fill="#e9e9ea" d="M182.616,70.213C180.065,70.846 177.79,71.185 175.515,71.523C175.322,70.703 175.13,69.883 174.938,69.062C177.166,68.368 179.378,67.592 181.652,67.115C181.86,67.071 182.469,68.938 182.616,70.213z"/><path fill="#eceded" d="M111.117,13.608C111.108,13.249 111.399,13.488 111.586,13.472C112.555,14.038 113.413,14.544 114.101,15.222C115.133,16.238 116.045,17.375 117.007,18.46C115.925,19.301 114.841,20.826 113.761,20.822C112.098,20.817 110.14,20.098 108.913,19.003C108.366,18.515 109.185,16.34 109.613,15.003C109.76,14.544 110.602,14.307 111.117,13.608z"/><path fill="#eff0f0" d="M160.845,26.347C160.535,31.542 158.592,32.25 152.684,29.376C154.881,26.717 156.45,23.458 160.845,26.347z"/><path fill="#0b0b0b" d="M173.816,29.159C172.688,29.458 171.648,30.041 170.608,30.624C170.176,30.404 169.744,30.184 169.311,29.964C170.227,28.307 171.143,26.65 172.059,24.993C172.751,24.97 173.443,24.947 174.135,24.924C174.552,26.781 174.969,28.638 175.387,30.496C174.892,30.145 174.398,29.793 173.816,29.159z"/><path fill="#f5f6f6" d="M113.836,32.567C112.05,32.677 110.573,32.299 109.27,31.428C111.012,31.317 112.578,31.699 113.836,32.567z"/><path fill="#eeefef" d="M150.94,79.773C152.4,81.251 153.5,82.536 154.599,83.821C154.395,84.401 154.191,84.981 153.987,85.561C150.061,85.24 146.135,84.918 142.208,84.596C145.695,83.598 145.244,75.67 150.94,79.773z"/><path fill="#f2f2f2" d="M129.961,83.049C131.047,78.956 133.489,78.272 137.226,79.446C136.805,81.293 136.415,83.011 135.837,85.552C133.666,84.783 131.8,84.122 129.961,83.049z"/><path fill="#f2f2f2" d="M51.334,72.826C50.287,71.353 49.529,70.129 47.78,67.307C51.653,67.261 54.325,66.959 56.866,67.405C57.442,67.506 58.301,70.614 57.742,71.624C56.47,73.916 54.235,75.019 51.334,72.826z"/><path fill="#e3e4e4" d="M90.662,84.462C88.969,84.1 87.673,83.904 86.381,83.681C86.282,83.664 86.217,83.454 86.136,83.334C88.208,77.215 95.164,75.391 99.121,80.022C99.894,80.927 100.041,82.368 100.476,83.562C99.456,83.908 98.452,84.474 97.411,84.554C95.305,84.716 93.178,84.615 90.662,84.462z"/></svg>