<svg xmlns="http://www.w3.org/2000/svg" viewBox="0 0 189 197" xml:space="preserve"><path fill="#060606" d="M156.758,80.9C156.458,82.947 156.159,84.993 155.86,87.04C156.245,87.331 156.63,87.621 157.015,87.911C160.237,85.373 163.458,82.834 166.679,80.295C167.091,80.635 167.503,80.975 167.916,81.315C167.757,84.057 168.311,87.105 167.294,89.479C165.15,94.479 167.99,97.018 171.344,99.176C177.206,102.948 183.31,106.345 189.656,109.95C190,113.361 190,116.723 190,120.542C186.655,125.994 183.269,130.961 179.982,135.993C178.224,138.685 176.638,141.49 174.357,145.266C172.772,141.751 171.698,139.372 170.507,136.731C168.875,138.632 167.479,140.259 165.63,142.371C164.285,144.501 163.393,146.145 162.336,147.806C161.95,147.92 161.82,148.088 161.431,148.379C160.06,148.956 159.038,149.483 158.016,150.009C151.947,149.49 149.405,153.702 146.701,158.759C145.472,159.577 144.604,159.816 143.884,159.763C142.888,158.567 141.742,157.664 140.597,156.762C136.499,153.815 132.4,150.868 127.488,147.336C123.942,154.326 120.461,161.189 116.635,168.543C114.86,170.342 113.432,171.65 112.003,172.958C109.864,174.686 107.725,176.413 104.799,178.775C101.153,173.688 96.32,168.182 88.496,165.586C86.21,163.892 84.533,162.427 82.683,161.228C77.724,158.017 75.122,150.18 66.985,153.147C63.774,151.082 60.563,149.018 56.961,146.408C55.677,145.591 54.784,145.32 53.891,145.049C49.807,141.368 45.722,137.688 42.007,134.339C41.32,137.587 40.567,141.147 39.814,144.707C39.295,144.708 38.775,144.709 38.256,144.711C30.457,133.041 22.659,121.371 14.414,109.032C20.965,104.983 27.211,101.123 34.112,97.105C37.581,96.056 40.742,95.707 43.139,94.167C48.662,90.62 48.511,90.385 52.092,96.387C55.559,95.29 59.154,94.044 62.816,93.043C64.495,92.584 67.285,91.802 67.892,92.543C71.186,96.562 74.731,93.472 78.149,93.511C83.07,93.567 84.598,89.823 84.776,86.425C85.138,79.519 78.12,78.521 74.086,75.293C72.359,73.911 68.49,72.842 67.108,73.805C61.351,77.814 56.101,76.405 50.941,73.37C47.334,71.249 45.221,71.637 42.894,75.268C41.012,78.203 39.811,82.464 34.986,82.31C34.319,81.742 33.652,81.174 32.911,80.075C32.567,79.699 32.296,79.854 32.025,80.009C27.415,75.96 22.707,72.014 18.271,67.782C17.297,66.853 17.289,64.909 16.663,62.867C14.764,61.722 11.984,60.339 9.54,58.508C5.258,55.298 5.182,51.33 9.281,47.974C10.911,46.64 12.994,45.875 14.748,44.673C15.902,43.882 17.677,42.822 17.738,41.798C18.197,34.052 24.356,33.436 29.699,32.23C33.112,31.46 35.223,30.232 37.194,27.052C39.042,24.069 42.521,21.56 45.838,20.167C49.506,18.626 53.794,18.51 57.834,17.919C61.455,17.39 64.481,17.153 67.631,13.838C71.696,9.558 77.735,8.501 84.057,11.582C88.439,13.718 92.965,15.734 98.665,14.469C102.233,13.676 106.899,15.556 110.452,17.42C119.097,21.956 127.941,24.662 137.817,24.222C140.214,24.115 143.615,25.258 144.96,27.034C148.377,31.548 153.493,32.165 158.03,34.129C158.783,34.455 159.898,33.844 160.754,34.049C162.917,34.565 165.234,34.94 167.117,36.021C170.876,38.179 174.414,40.731 177.989,43.198C180.816,45.148 184.005,46.818 186.244,49.319C189.898,53.401 188.655,56.608 183.523,58.512C182.262,58.98 180.861,59.973 180.238,61.114C175.516,69.756 166.767,72.839 158.77,76.976C158.625,77.051 158.454,77.077 157.726,77.569C155.704,77.489 154.213,77.045 152.8,76.425C148.984,74.75 145.201,73.001 141.47,71.311C138.227,77.651 138.109,77.744 134.219,77.631C134.056,75.761 133.896,73.89 133.692,71.495C125.894,75.477 121.057,81.666 117.412,88.381C114.308,94.098 117.305,98.455 123.714,100.034C127.956,101.078 131.891,102.747 135.019,107.141C126.708,108.616 119.303,111.383 112.331,104.775C112.091,108.001 111.946,109.963 111.807,111.833C105.783,113.042 106.433,108.421 105.553,104.383C100.213,108.601 95.882,114.809 87.523,111.078C89.42,108.153 91.273,105.296 93.898,101.249C84.853,104.963 77.177,108.738 68.458,106.773C70.563,104.269 72.453,102.021 74.626,99.436C70.51,99.101 67.419,98.438 64.429,98.746C62.293,98.967 60.275,100.457 58.237,101.446C56.544,102.267 54.932,103.859 53.225,103.946C43.937,104.422 34.287,102.543 26.236,108.917C31.086,109.896 36.273,110.593 41.236,112.054C45.372,113.273 49.096,116.047 53.261,116.976C63.747,119.315 74.324,121.398 84.964,122.863C105.858,125.74 126.549,122.966 147.065,119.193C154.175,117.885 160.932,114.762 167.988,113.028C172.168,112.001 176.618,112.067 180.946,111.641C172.613,105.218 162.51,104.386 153.015,101.979C143.493,99.565 134.085,95.55 123.319,98.585C124.739,94.613 125.877,91.431 127.227,87.658C130.969,89.309 134.327,90.79 137.913,92.371C139.221,90.919 141.06,88.877 143.081,86.633C144.534,88.856 145.362,90.49 146.548,91.801C147.297,92.629 148.772,93.611 149.577,93.37C150.555,93.078 151.591,91.668 151.843,90.569C152.202,88.998 151.587,87.214 151.9,85.622C152.401,83.066 152.841,80.091 156.758,80.9M134.648,34.37C132.556,33.988 130.463,33.605 128.973,33.333C127.551,31.811 126.593,30.201 125.177,29.393C122.389,27.8 119.383,26.561 116.389,25.368C115.37,24.962 113.588,24.601 113.06,25.127C109.449,28.732 105.519,28.197 101.283,26.704C100.628,26.474 99.612,27.269 98.582,27.659C103.37,34.872 110.512,33.861 117.065,33.537C122.526,33.267 126.335,35.308 129.346,39.428C132.112,43.213 134.274,42.926 136.812,37.611C136.206,36.741 135.601,35.871 134.648,34.37M89.163,143.113C89.08,142.118 89.015,141.121 88.912,140.127C87.675,128.108 87.674,128.106 75.887,128.042C75.393,128.039 74.9,128.108 74.206,128.158C77.078,139.033 83.85,147.434 90.13,156.13C90.564,155.952 90.999,155.774 91.434,155.596C90.739,151.722 90.045,147.847 89.163,143.113M101.901,57.614C101.016,56.349 100.13,55.083 99.245,53.818C98.714,54.052 98.183,54.287 97.652,54.522C98.741,60.042 95.623,66.252 100.734,71.213C109.82,67.807 115.033,61.746 111.193,55.985C108.974,58.576 106.72,61.209 103.985,64.403C102.93,61.201 102.466,59.792 101.901,57.614M92.331,36.821C87.177,40.383 82.022,43.945 76.986,47.425C80.275,47.856 83.2,48.428 86.14,48.528C87.277,48.566 88.481,47.588 89.6,46.972C92.744,45.242 95.859,43.459 99.691,41.299C100.087,36.098 98.617,34.714 92.331,36.821M76.875,59.068C73.553,57.066 70.231,55.064 66.909,53.061C66.538,53.601 66.168,54.14 65.797,54.679C71.923,62.167 81.983,66.08 85.628,75.933C88.418,65.611 86.159,60.995 76.875,59.068M116.034,132.388C116.487,131.253 116.94,130.117 117.688,128.241C113.303,128.472 109.64,128.665 105.797,128.867C106.34,135.382 106.849,141.477 107.366,147.675C110.266,145.418 109.039,140.338 113.501,139.015C114.118,137.383 114.923,135.256 116.034,132.388M149.827,137.194C151.2,133.289 152.572,129.385 154.485,123.943C150.66,125.61 146.634,126.176 146.166,127.78C144.418,133.771 143.836,140.102 142.817,146.306C143.244,146.502 143.67,146.699 144.097,146.895C145.936,143.905 147.775,140.915 149.827,137.194M52.856,32.2C58.32,27.756 64.996,28.636 71.32,28.069C73.973,27.83 76.521,27.791 76.87,24.213C59.83,23.25 50.183,26.852 46.617,36.686C49.194,34.831 50.721,33.732 52.856,32.2M59.004,133.592C62.303,138.222 65.603,142.853 68.903,147.483C69.292,147.208 69.681,146.933 70.07,146.658C68.1,141.366 66.385,135.954 64.003,130.855C63.289,129.325 60.383,127.474 59.051,127.841C55.662,128.774 57.98,131.107 59.004,133.592M94.351,94.577C93.983,96.298 93.616,98.02 93.248,99.742C93.623,100.035 93.997,100.329 94.372,100.623C96.881,97.314 100.791,94.275 101.498,90.617C102.185,87.065 99.968,82.678 95.958,78.647C95.43,84.596 95.023,89.175 94.351,94.577M142.802,43.483C145.579,45.187 148.356,46.89 151.133,48.594C151.49,48.115 151.848,47.636 152.206,47.157C147.505,43.245 146.395,35.983 139.465,34.02C138.461,35.903 137.595,37.527 136.347,39.867C138.116,40.89 140.103,42.039 142.802,43.483M66.883,66.678C62.21,62.497 56.82,61.362 50.093,62.443C55.246,67.445 60.107,70.542 66.883,66.678M126.372,62.832C128.918,61.546 131.463,60.259 134.009,58.973C126.798,58.402 121.086,60.252 118.75,68.173C121.611,66.755 125.528,67.757 126.372,62.832M108.238,76.812C106.445,79.46 106.592,81.603 110.501,83.555C112.274,80.246 113.94,77.138 115.606,74.031C114.998,73.491 114.391,72.951 113.783,72.411C112.09,73.677 110.397,74.943 108.238,76.812M171.026,57.048C172.26,57.283 173.493,57.517 174.966,57.796C171.544,52.189 166.779,51.19 160.036,54.668C163.632,55.506 166.92,56.272 171.026,57.048M39.066,72.515C37.889,70.891 36.712,69.266 35.535,67.642C34.943,67.982 34.351,68.323 33.759,68.664C34.221,71.596 34.683,74.529 35.145,77.462C35.62,77.586 36.095,77.71 36.57,77.833C37.385,76.324 38.2,74.815 39.066,72.515M157.529,71.08C159.294,69.932 161.059,68.785 162.824,67.637C162.589,67.164 162.355,66.691 162.12,66.218C159.197,66.218 156.274,66.218 151.839,66.218C154.032,68.443 155.369,69.799 157.529,71.08M156.319,142.963C158.507,140.273 160.695,137.584 162.883,134.894C162.296,134.429 161.71,133.964 161.124,133.499C158.827,136.378 156.523,139.252 154.301,142.188C154.271,142.228 155.278,143.053 156.319,142.963z"/><path fill="#f5f6f6" d="M157.05,80.799C152.841,80.091 152.401,83.066 151.9,85.622C151.587,87.214 152.202,88.998 151.843,90.569C151.591,91.668 150.555,93.078 149.577,93.37C148.772,93.611 147.297,92.629 146.548,91.801C145.362,90.49 144.534,88.856 143.081,86.633C141.06,88.877 139.221,90.919 137.913,92.371C134.327,90.79 130.969,89.309 127.227,87.658C125.877,91.431 124.739,94.613 123.319,98.585C134.085,95.55 143.493,99.565 153.015,101.979C162.51,104.386 172.613,105.218 180.946,111.641C176.618,112.067 172.168,112.001 167.988,113.028C160.932,114.762 154.175,117.885 147.065,119.193C126.549,122.966 105.858,125.74 84.964,122.863C74.324,121.398 63.747,119.315 53.261,116.976C49.096,116.047 45.372,113.273 41.236,112.054C36.273,110.593 31.086,109.896 26.236,108.917C34.287,102.543 43.937,104.422 53.225,103.946C54.932,103.859 56.544,102.267 58.237,101.446C60.275,100.457 62.293,98.967 64.429,98.746C67.419,98.438 70.51,99.101 74.626,99.436C72.453,102.021 70.563,104.269 68.458,106.773C77.177,108.738 84.853,104.963 93.898,101.249C91.273,105.296 89.42,108.153 87.523,111.078C95.882,114.809 100.213,108.601 105.553,104.383C106.433,108.421 105.783,113.042 111.807,111.833C111.946,109.963 112.091,108.001 112.331,104.775C119.303,111.383 126.708,108.616 135.019,107.141C131.891,102.747 127.956,101.078 123.714,100.034C117.305,98.455 114.308,94.098 117.412,88.381C121.057,81.666 125.894,75.477 133.692,71.495C133.896,73.89 134.056,75.761 134.219,77.631C138.109,77.744 138.227,77.651 141.47,71.311C145.201,73.001 148.984,74.75 152.8,76.425C154.213,77.045 155.704,77.489 157.533,77.886C157.718,78.739 157.53,79.719 157.05,80.799z"/><path fill="#f4f5f5" d="M35.042,82.611C39.811,82.464 41.012,78.203 42.894,75.268C45.221,71.637 47.334,71.249 50.941,73.37C56.101,76.405 61.351,77.814 67.108,73.805C68.49,72.842 72.359,73.911 74.086,75.293C78.12,78.521 85.138,79.519 84.776,86.425C84.598,89.823 83.07,93.567 78.149,93.511C74.731,93.472 71.186,96.562 67.892,92.543C67.285,91.802 64.495,92.584 62.816,93.043C59.154,94.044 55.559,95.29 52.092,96.387C48.511,90.385 48.662,90.62 43.139,94.167C40.742,95.707 37.581,96.056 34.38,96.885C35.147,94.748 36.303,92.672 37.558,90.42C36.82,88.168 35.958,85.54 35.042,82.611M59.386,86.806C61.922,85.979 64.459,85.152 66.996,84.325C66.919,83.824 66.843,83.322 66.766,82.821C62.058,82.563 57.344,82.077 52.648,82.217C51.575,82.249 50.566,84.439 48.88,86.38C52.964,86.579 55.77,86.716 59.386,86.806z"/><path fill="#0d0d0d" d="M80.029,170.003C77.979,175.731 78.568,182.578 72.602,187.324C67.713,178.861 64.451,170.623 68.766,160.784C71.641,162.344 74.478,164.144 77.085,166.231C78.296,167.201 79.062,168.728 80.029,170.003z"/><path fill="#eaebea" d="M80.437,169.995C79.062,168.728 78.296,167.201 77.085,166.231C74.478,164.144 71.641,162.344 68.542,160.434C67.795,158.28 67.404,156.118 66.999,153.551C75.122,150.18 77.724,158.017 82.683,161.228C84.533,162.427 86.21,163.892 88.15,165.542C85.837,167.228 83.341,168.608 80.437,169.995z"/><path fill="#111112" d="M153.84,159.984C156.014,158.005 158.189,156.025 160.993,153.909C161.835,153.833 162.047,153.892 162.258,153.952C161.875,157.049 161.851,160.25 160.992,163.209C160.322,165.518 158.614,167.526 157.367,169.668C156.251,167.687 155.136,165.707 154.026,163.002C153.968,161.514 153.904,160.749 153.84,159.984z"/><path fill="#1a191a" d="M125.055,175.83C126.506,175.789 127.957,175.748 129.845,176.147C131.171,177.098 132.061,177.61 132.95,178.121C129.317,180.839 125.684,183.557 121.907,186.383C119.967,183.541 118.48,180.442 121.92,176.466C123.346,175.946 124.201,175.888 125.055,175.83z"/><path fill="#1e1e1e" d="M54.084,145.463C54.784,145.32 55.677,145.591 56.742,146.092C56.467,146.94 55.55,147.646 55.647,148.161C56.226,151.224 57.178,154.218 57.731,157.284C58.166,159.691 58.995,162.503 55.253,163.284C50.923,157.529 50.802,153.796 54.599,147.891C54.873,147.465 54.401,146.56 54.084,145.463z"/><path fill="#f1f2f1" d="M125.06,175.472C124.201,175.888 123.346,175.946 122.199,176.169C121.248,174.012 120.589,171.69 119.882,169.198C121.061,168.359 122.002,167.295 123.151,166.973C124.555,166.579 126.134,166.808 127.637,166.767C127.141,167.983 126.549,169.17 126.172,170.422C125.709,171.958 125.426,173.548 125.06,175.472z"/><path fill="#ebecec" d="M162.648,153.993C162.047,153.892 161.835,153.833 161.296,153.724C160.15,152.573 159.33,151.47 158.263,150.188C159.038,149.483 160.06,148.956 161.487,148.764C162.147,149.937 162.399,150.776 162.652,151.614C163.204,151.379 163.756,151.144 164.308,150.908C163.705,149.869 163.103,148.83 162.501,147.79C163.393,146.145 164.285,144.501 165.485,142.675C165.86,145.105 166.267,147.771 165.86,150.305C165.642,151.664 164.024,152.799 162.648,153.993z"/><path fill="#f1f2f1" d="M111.995,173.341C113.432,171.65 114.86,170.342 116.589,168.887C115.949,172.503 115.009,176.265 114.07,180.028C113.707,180.01 113.344,179.992 112.982,179.975C112.65,177.891 112.319,175.808 111.995,173.341z"/><path fill="#f1f2f1" d="M140.232,156.905C141.742,157.664 142.888,158.567 143.719,159.754C143.406,160.038 143.08,160.089 142.741,160.095C141.939,160.764 141.476,161.428 141.013,162.091C140.13,162.233 139.248,162.375 138.183,162.021C138,161.356 138,161.187 137.999,161.019C138.622,159.695 139.245,158.372 140.232,156.905z"/><path fill="#ebecec" d="M153.46,159.991C153.904,160.749 153.968,161.514 153.924,162.648C152.608,162.559 151.399,162.1 150.19,161.641C151.154,161.093 152.117,160.545 153.46,159.991z"/><path fill="#ebecec" d="M143.08,160.089C143.08,160.089 143.406,160.038 143.571,160.047C144.604,159.816 145.472,159.577 146.639,159.099C147.141,160.49 148.525,163.12 144.2,161.237C143.42,161.067 143.222,161.066 143.024,161.065C143.024,161.065 142.969,161.074 142.994,160.817C143.02,160.56 143.08,160.089 143.08,160.089z"/><path fill="#f1f2f1" d="M132.921,177.774C132.061,177.61 131.171,177.098 130.198,176.273C131.042,176.448 131.967,176.937 132.921,177.774z"/><path fill="#e5e5e5" d="M136.999,161.001C135.663,161.001 134.326,161.001 132.989,161.001C133.008,160.674 133.027,160.347 133.046,160.021C134.215,160.168 135.385,160.316 136.777,160.732C137,161 136.999,161.001 136.999,161.001z"/><path fill="#f1f2f1" d="M128.389,162.46C127.943,162.345 127.672,162.062 127.401,161.778C127.518,161.666 127.732,161.45 127.74,161.456C128.027,161.722 128.295,162.008 128.389,162.46z"/><path fill="#e5e5e5" d="M142.741,160.095C143.08,160.089 143.02,160.56 142.978,160.795C142.462,161.307 141.989,161.585 141.265,161.977C141.476,161.428 141.939,160.764 142.741,160.095z"/><path fill="#e5e5e5" d="M137.75,161.01C138,161.187 138,161.356 137.999,161.777C137.667,161.93 137.4,161.739 137.098,161.229C136.999,161.001 137,161 137,161C137.001,160.999 137.5,161.001 137.75,161.01z"/><path fill="#e5e5e5" d="M143.112,161.238C143.222,161.066 143.42,161.067 143.911,161.118C143.87,161.249 143.535,161.33 143.112,161.238z"/><path fill="#f4f5f5" d="M32.188,80.019C32.296,79.854 32.567,79.699 32.758,79.78C32.678,80.015 32.351,80.029 32.188,80.019z"/><path fill="#f1f2f1" d="M130.463,159.445C130.524,159.408 130.403,159.483 130.463,159.445z"/><path fill="#f2f3f2" d="M89.257,143.543C90.045,147.847 90.739,151.722 91.434,155.596C90.999,155.774 90.564,155.952 90.13,156.13C83.85,147.434 77.078,139.033 74.206,128.158C74.9,128.108 75.393,128.039 75.887,128.042C87.674,128.106 87.675,128.108 88.912,140.127C89.015,141.121 89.08,142.118 89.257,143.543z"/><path fill="#edeeee" d="M136.949,38.258C134.274,42.926 132.112,43.213 129.346,39.428C126.335,35.308 122.526,33.267 117.065,33.537C110.512,33.861 103.37,34.872 98.582,27.659C99.612,27.269 100.628,26.474 101.283,26.704C105.519,28.197 109.449,28.732 113.06,25.127C113.588,24.601 115.37,24.962 116.389,25.368C119.383,26.561 122.389,27.8 125.177,29.393C126.593,30.201 127.551,31.811 128.973,33.333C130.463,33.605 132.556,33.988 134.434,34.693C133.238,35.968 132.257,36.92 131.276,37.872C132.405,38.227 133.515,38.741 134.67,38.878C135.395,38.964 136.187,38.484 136.949,38.258z"/><path fill="#f4f4f4" d="M101.951,57.999C102.466,59.792 102.93,61.201 103.985,64.403C106.72,61.209 108.974,58.576 111.193,55.985C115.033,61.746 109.82,67.807 100.734,71.213C95.623,66.252 98.741,60.042 97.652,54.522C98.183,54.287 98.714,54.052 99.245,53.818C100.13,55.083 101.016,56.349 101.951,57.999z"/><path fill="#ebeced" d="M92.624,36.613C98.617,34.714 100.087,36.098 99.691,41.299C95.859,43.459 92.744,45.242 89.6,46.972C88.481,47.588 87.277,48.566 86.14,48.528C83.2,48.428 80.275,47.856 76.986,47.425C82.022,43.945 87.177,40.383 92.624,36.613z"/><path fill="#eff0f0" d="M77.244,59.199C86.159,60.995 88.418,65.611 85.628,75.933C81.983,66.08 71.923,62.167 65.797,54.679C66.168,54.14 66.538,53.601 66.909,53.061C70.231,55.064 73.553,57.066 77.244,59.199z"/><path fill="#eeeeef" d="M115.88,132.759C114.923,135.256 114.118,137.383 113.501,139.015C109.039,140.338 110.266,145.418 107.366,147.675C106.849,141.477 106.34,135.382 105.797,128.867C109.64,128.665 113.303,128.472 117.688,128.241C116.94,130.117 116.487,131.253 115.88,132.759z"/><path fill="#eaebeb" d="M149.721,137.559C147.775,140.915 145.936,143.905 144.097,146.895C143.67,146.699 143.244,146.502 142.817,146.306C143.836,140.102 144.418,133.771 146.166,127.78C146.634,126.176 150.66,125.61 154.485,123.943C152.572,129.385 151.2,133.289 149.721,137.559z"/><path fill="#f0f0f0" d="M52.553,32.416C50.721,33.732 49.194,34.831 46.617,36.686C50.183,26.852 59.83,23.25 76.87,24.213C76.521,27.791 73.973,27.83 71.32,28.069C64.996,28.636 58.32,27.756 52.553,32.416z"/><path fill="#eff0f0" d="M58.882,133.252C57.98,131.107 55.662,128.774 59.051,127.841C60.383,127.474 63.289,129.325 64.003,130.855C66.385,135.954 68.1,141.366 70.07,146.658C69.681,146.933 69.292,147.208 68.903,147.483C65.603,142.853 62.303,138.222 58.882,133.252z"/><path fill="#ebeced" d="M94.484,94.165C95.023,89.175 95.43,84.596 95.958,78.647C99.968,82.678 102.185,87.065 101.498,90.617C100.791,94.275 96.881,97.314 94.372,100.623C93.997,100.329 93.623,100.035 93.248,99.742C93.616,98.02 93.983,96.298 94.484,94.165z"/><path fill="#edeeee" d="M142.446,43.335C140.103,42.039 138.116,40.89 136.347,39.867C137.595,37.527 138.461,35.903 139.465,34.02C146.395,35.983 147.505,43.245 152.206,47.157C151.848,47.636 151.49,48.115 151.133,48.594C148.356,46.89 145.579,45.187 142.446,43.335z"/><path fill="#e4e4e4" d="M66.81,67.06C60.107,70.542 55.246,67.445 50.093,62.443C56.82,61.362 62.21,62.497 66.81,67.06z"/><path fill="#e5e5e5" d="M125.996,62.956C125.528,67.757 121.611,66.755 118.75,68.173C121.086,60.252 126.798,58.402 134.009,58.973C131.463,60.259 128.918,61.546 125.996,62.956z"/><path fill="#eaebeb" d="M108.471,76.511C110.397,74.943 112.09,73.677 113.783,72.411C114.391,72.951 114.998,73.491 115.606,74.031C113.94,77.138 112.274,80.246 110.501,83.555C106.592,81.603 106.445,79.46 108.471,76.511z"/><path fill="#dddedd" d="M170.617,57.043C166.92,56.272 163.632,55.506 160.036,54.668C166.779,51.19 171.544,52.189 174.966,57.796C173.493,57.517 172.26,57.283 170.617,57.043z"/><path fill="#e5e5e5" d="M39.04,72.911C38.2,74.815 37.385,76.324 36.57,77.833C36.095,77.71 35.62,77.586 35.145,77.462C34.683,74.529 34.221,71.596 33.759,68.664C34.351,68.323 34.943,67.982 35.535,67.642C36.712,69.266 37.889,70.891 39.04,72.911z"/><path fill="#eaebea" d="M157.117,71.117C155.369,69.799 154.032,68.443 151.839,66.218C156.274,66.218 159.197,66.218 162.12,66.218C162.355,66.691 162.589,67.164 162.824,67.637C161.059,68.785 159.294,69.932 157.117,71.117z"/><path fill="#d3d3d3" d="M156.06,143.237C155.278,143.053 154.271,142.228 154.301,142.188C156.523,139.252 158.827,136.378 161.124,133.499C161.71,133.964 162.296,134.429 162.883,134.894C160.695,137.584 158.507,140.273 156.06,143.237z"/><path fill="#eff0f0" d="M136.88,37.935C136.187,38.484 135.395,38.964 134.67,38.878C133.515,38.741 132.405,38.227 131.276,37.872C132.257,36.92 133.238,35.968 134.607,35.009C135.601,35.871 136.206,36.741 136.88,37.935z"/><path fill="#fdfdfd" d="M162.336,147.806C163.103,148.83 163.705,149.869 164.308,150.908C163.756,151.144 163.204,151.379 162.652,151.614C162.399,150.776 162.147,149.937 161.837,148.713C161.82,148.088 161.95,147.92 162.336,147.806z"/><path fill="#1b1c1d" d="M58.981,86.83C55.77,86.716 52.964,86.579 48.88,86.38C50.566,84.439 51.575,82.249 52.648,82.217C57.344,82.077 62.058,82.563 66.766,82.821C66.843,83.322 66.919,83.824 66.996,84.325C64.459,85.152 61.922,85.979 58.981,86.83z"/></svg>