<svg xmlns="http://www.w3.org/2000/svg" viewBox="0 0 181 192" xml:space="preserve"><path fill="#0e0e0e" d="M46.21,128.941C43.716,126.824 40.917,124.973 38.799,122.53C35.418,118.631 32.384,114.414 29.398,110.194C25.542,104.744 27.576,96.595 34.629,94.201C43.561,91.17 53.084,89.882 62.306,88.469C60.708,89.795 59.213,90.691 57.593,91.157C50.502,93.194 43.197,94.631 36.316,97.211C30.642,99.337 30.576,101.914 34.905,106.326C34.579,106.828 34.332,107.145 33.725,107.556C34.363,108.98 35.108,110.702 36.418,111.545C38.326,112.773 40.585,113.555 42.79,114.203C65.189,120.783 88.09,121.798 111.119,119.44C121.434,118.384 131.62,115.97 141.818,113.936C143.978,113.506 145.933,112.048 149.232,110.463C146.742,110.1 145.926,109.981 145.086,109.432C145.043,108.714 145.024,108.427 145.291,107.935C147.695,105.813 149.813,103.897 151.931,101.981C149.619,100.013 147.608,97.128 144.937,96.249C136.938,93.617 128.766,91.298 120.491,89.79C115.36,88.855 109.92,89.616 104.619,89.616C104.561,90.031 104.503,90.445 104.446,90.86C109.283,91.556 114.121,92.253 118.884,92.939C118.884,95.565 118.884,97.681 118.884,99.775C117.478,99.987 116.279,100.168 113.67,100.561C116.094,102.591 117.549,103.811 119.371,105.161C121.431,105.387 123.126,105.482 124.82,105.577C124.823,105.131 124.825,104.686 124.828,104.24C122.949,104.033 121.071,103.826 119.255,103.309C120.19,102.658 121.063,102.316 122.309,102.01C124.785,102.702 126.888,103.357 129.049,104.151C129.199,104.337 129.289,104.384 129.38,104.43C129.258,104.283 129.136,104.135 129.024,103.667C126.665,101.85 124.296,100.354 121.929,98.4C121.997,96.476 122.063,95.01 122.172,92.609C128.009,94.475 133.509,95.764 138.589,98.007C142.576,99.768 142.453,102.362 138.633,104.399C136.027,105.789 133.163,106.899 130.282,107.543C108.577,112.391 86.658,112.417 64.722,109.686C58.686,108.935 52.731,107.164 46.902,105.338C44.999,104.742 43.615,102.488 41.994,100.992C43.56,99.642 44.916,97.688 46.732,97.058C51.51,95.4 56.488,94.318 61.636,92.94C61.884,95.399 62.065,97.194 62.21,99.306C62.103,100.044 62.032,100.464 61.563,100.895C60.113,100.986 59.06,101.065 57.631,101.09C56.903,101.563 56.131,102.258 56.264,102.59C57.824,106.468 61.234,106.033 64.8,105.985C66.688,106.027 68.251,106.027 69.814,106.027C70.034,105.445 70.255,104.863 70.476,104.281C68.332,103.145 66.188,102.008 64.01,100.56C63.957,99.831 63.938,99.413 64.109,98.604C64.386,96.469 64.473,94.727 64.563,92.918C69.61,92.199 74.34,91.524 79.07,90.85C79.018,90.315 78.966,89.781 78.915,89.246C76.42,89.397 73.915,89.772 71.435,89.642C68.501,89.488 65.59,88.898 62.669,88.497C62.945,88.567 63.222,88.638 63.918,88.258C64.636,87.658 64.855,87.43 64.992,87.125C68.93,86.72 72.869,86.003 76.805,86.021C79.419,86.032 80.475,84.881 80.748,82.776C81.449,77.38 81.949,71.957 82.348,68.229C75.646,64.116 70.659,61.056 65.409,57.834C64.923,61.662 64.501,64.982 64.08,68.303C60.487,63.699 63.118,59.723 64.316,55.311C64.03,54.982 63.965,55.038 64.258,55.202C64.687,55.19 64.825,55.014 65.375,54.641C74.16,55.522 82.533,56.599 90.906,57.675C90.924,57.906 90.942,58.136 90.96,58.367C89.031,58.897 87.102,59.426 84.541,60.13C94.092,64.856 94.092,64.856 99.213,59.725C97.277,59.429 95.49,59.155 93.703,58.881C93.692,58.423 93.681,57.964 93.671,57.506C95.3,57.3 96.946,57.187 98.554,56.874C104.802,55.659 111.038,54.38 117.51,53.498C118.18,54.255 118.617,54.638 119.055,55.021C119.047,55.433 119.04,55.844 118.924,56.808C118.532,57.578 118.249,57.796 117.965,58.014C116.795,58.413 115.476,58.586 114.483,59.25C110.695,61.784 107.012,64.475 101.737,68.205C102.092,72.816 102.585,79.231 103.015,84.823C115.259,86.674 126.303,88.108 137.243,90.116C141.419,90.883 145.607,92.499 149.347,94.54C157.53,99.006 157.952,107.29 150.671,113.056C149.785,113.758 148.948,114.595 148.308,115.522C144.896,120.456 141.553,125.439 138.154,130.454C138.297,130.487 139.623,130.731 140.917,131.088C147.466,132.895 154.182,134.265 160.512,136.655C173.546,141.576 177.269,148.169 175.055,161.911C174.672,164.282 172.926,167.103 170.947,168.413C166.157,171.585 161.116,174.768 155.716,176.556C138.531,182.245 120.673,184.207 102.632,184.468C100.695,184.496 97.506,185.69 98.521,181.3C108.76,180.263 118.078,179.669 127.365,178.76C128.451,178.654 129.977,176.941 130.221,175.751C130.597,173.923 130.038,171.904 129.951,169.809C129.687,169.486 129.346,169.319 128.57,169.086C119.423,169.301 110.713,169.582 102.001,169.667C102.001,169.471 102,169.079 102,169.079C105.065,168.747 108.129,168.415 111.854,168.051C112.677,167.95 112.841,167.883 113.274,167.873C114.074,167.823 114.605,167.715 115.543,167.685C119.291,167.348 122.631,166.933 126.26,166.574C126.662,166.094 126.775,165.559 127.255,164.863C132.125,164.703 136.627,164.703 141.13,164.703C141.238,165.168 141.345,165.633 141.453,166.098C139.83,166.678 138.221,167.701 136.58,167.753C131.897,167.904 131.627,170.571 132.457,174.112C132.683,175.076 132.914,176.039 133.113,177.265C133.385,177.603 133.685,177.68 134.39,177.826C146.453,175.704 158.156,173.635 168.057,166.294C166.626,164.008 165.456,162.141 164.377,160.418C160.735,161.203 157.243,161.956 153.837,162.319C153.949,161.666 153.975,161.402 154.3,160.965C156.061,160.195 157.524,159.598 159.264,158.983C160.03,158.5 160.52,158.033 161.365,157.429C166.017,156.194 170.477,153.721 170.318,149.547C170.212,146.761 166.233,142.874 163.141,141.688C154.37,138.322 145.173,136.06 136.11,133.481C135.524,133.314 134.655,134.14 132.677,135.115C135.551,136.043 137.244,136.46 138.832,137.129C142.638,138.734 146.661,140.037 150.106,142.231C155.081,145.399 155.022,149.67 150.09,152.854C147.356,154.618 144.194,156.142 141.03,156.741C130.071,158.815 119.026,160.436 107.675,162.153C106.885,162.153 106.434,162.229 105.983,162.305C96.614,162.257 87.244,162.208 77.115,162.118C75.907,162.117 75.459,162.159 74.681,162.102C73.897,162.057 73.444,162.11 72.575,162.061C69.019,161.604 65.819,161.518 62.749,160.842C54.362,158.996 45.885,157.341 37.75,154.675C34.772,153.699 30.685,150.092 30.685,147.684C30.684,145.125 34.664,142.219 37.407,140.119C39.428,138.571 42.198,137.873 44.736,137.161C48.253,136.176 51.866,135.533 56.528,134.503C53.793,133.78 52.122,132.792 50.659,133.039C39.363,134.943 27.907,136.599 17.978,142.834C15.741,144.238 12.694,147.933 13.229,149.406C14.263,152.248 17.457,154.414 20.031,156.525C20.887,157.226 22.585,156.898 23.963,157.27C24.028,157.5 23.898,157.959 23.667,157.974C23.436,157.988 23.01,158.171 22.65,158.177C20.932,159.446 19.574,160.709 18.123,162.285C17.371,162.392 16.713,162.187 16.003,161.565C15.301,159.283 14.65,157.417 13.999,155.551C13.175,155.868 12.351,156.185 11.528,156.503C12.521,159.366 13.514,162.228 14.525,165.078C14.542,165.064 14.504,165.081 14.672,165.321C15.904,166.009 16.968,166.457 18.016,166.933C18,166.961 18.058,166.989 18.118,167.333C22.132,169.49 26.086,171.302 30.25,173.353C31.076,173.689 31.691,173.786 32.673,173.932C48.08,178.938 63.733,179.771 79.347,180.975C82.821,181.243 84.849,180.023 86.096,177.292C87.576,179.231 88.977,180.81 90.379,182.389C90.775,182.133 91.171,181.876 91.568,181.62C91.35,178.596 91.133,175.572 91.058,172.01C92.191,171.132 93.181,170.792 94.171,170.452C93.741,174.992 93.312,179.532 92.898,183.9C85.086,183.9 76.808,184.419 68.618,183.79C52.528,182.553 36.542,180.372 21.499,173.979C18.766,172.817 16.1,171.382 13.635,169.727C9.314,166.826 8.015,162.87 7.894,157.424C7.603,144.436 14.915,138.472 25.983,135.358C32.196,133.61 38.535,132.311 45.433,130.853C46.553,130.611 47.058,130.326 47.563,130.04C47.112,129.674 46.661,129.307 46.21,128.941M135.992,121.006C135.992,121.006 135.96,120.975 135.483,120.664C132.969,118.266 133.318,120.717 133.042,122.598C133.042,122.598 132.753,122.995 132.173,122.996C131.786,122.998 131.399,123.001 131.047,122.336C130.404,121.678 129.667,120.381 129.133,120.46C124.405,121.16 119.712,122.103 114.484,122.47C95.632,123.843 76.812,123.941 57.116,121.171C56.805,121.252 56.493,121.334 55.599,121.042C52.795,120.696 49.991,120.35 46.449,119.946C45.348,120.067 44.248,120.188 43.147,120.309C43.595,121.421 43.747,122.886 44.557,123.566C45.851,124.651 47.582,125.215 49.768,126.244C53.507,128.15 57.246,130.055 61.599,132.456C62.166,131.742 62.734,131.027 64.046,130.69C67.234,131.823 70.38,133.105 73.63,134.019C75.019,134.41 76.658,133.821 78.126,134.051C81.478,134.575 84.854,136.091 88.112,135.834C95.46,135.255 102.742,133.844 110.207,133.59C114.669,132.678 119.13,131.766 124.422,130.919C125.095,130.112 125.767,129.305 126.536,128.532C126.536,128.532 126.526,128.431 127.355,128.766C127.946,128.827 128.537,128.887 129.772,128.899C129.864,128.582 129.955,128.264 129.97,127.985C129.97,127.985 129.922,128.057 130.479,128.702C133.842,125.792 137.212,122.891 140.499,119.898C140.544,119.856 139.542,118.665 138.287,118.016C137.518,118.999 136.75,119.981 135.992,121.006M167.965,159.488C167.658,159.227 167.35,158.966 167.043,158.705C166.912,158.984 166.78,159.262 166.649,159.541C167.098,159.695 167.546,159.85 168.273,160.643C168.812,161.651 169.35,162.66 169.889,163.668C170.334,163.258 170.779,162.847 171.223,162.436C170.151,161.623 169.078,160.809 167.965,159.488M119.92,154.283C118.942,153.512 117.963,152.74 116.984,151.968C116.696,152.503 116.408,153.037 116.119,153.571C117.408,154.052 118.696,154.534 119.988,155.704C119.976,156.163 119.963,156.621 119.098,156.988C117.389,156.883 115.68,156.777 113.781,156.386C113.62,156.21 113.422,156.102 113.218,155.435C113.063,155.059 112.908,154.682 113.092,154.072C113.197,153.997 113.302,153.922 113.407,153.847C113.142,153.958 112.876,154.069 111.802,154.157C98.869,154.351 85.936,154.545 72.865,154.103C71.916,154.419 70.967,154.735 69.783,155.719C68.172,155.852 66.561,155.985 65.392,155.549C66.636,154.945 67.88,154.341 70.323,153.155C67.014,152.437 65.23,152.05 63.349,151.642C63.603,153.268 63.8,154.536 63.25,155.908C61.162,155.285 59.074,154.661 56.93,153.428C56.231,152.765 55.532,152.101 54.833,151.438C54.626,151.597 54.419,151.757 54.212,151.917C54.474,152.603 54.735,153.289 54.23,154.132C51.123,152.102 48.015,150.071 45.422,148.185C45.853,148.012 46.285,147.839 46.716,147.667C46.411,147.341 46.106,147.016 45.802,146.691C45.518,147.155 45.234,147.618 44.184,147.948C42.03,148.67 39.877,149.391 37.723,150.113C37.646,150.628 37.568,151.142 37.49,151.657C43.905,153.399 50.251,155.482 56.755,156.773C61.712,157.757 66.869,157.737 72.37,158.894C81.657,159.169 90.955,159.846 100.226,159.582C106.808,159.395 113.354,157.938 120.644,157.03C121.943,157.151 123.242,157.271 124.542,157.392C124.613,156.945 124.685,156.499 124.756,156.052C123.176,155.696 121.595,155.34 119.92,154.283M82.686,140.298C81.713,140.254 80.74,140.21 79.767,140.165C79.783,140.498 79.799,140.831 79.816,141.164C80.914,141.019 82.012,140.874 82.907,141.664C89.034,141.664 95.162,141.664 101.29,141.664C101.29,141.401 101.29,141.138 101.29,140.876C95.213,140.876 89.135,140.876 82.686,140.298M133.316,153.1C131.406,153.806 129.496,154.511 127.281,155.329C130.376,157.433 132.984,158.091 135.824,154.042C138.981,153.318 142.138,152.594 145.295,151.87C145.295,151.338 145.294,150.805 145.294,150.273C143.686,149.274 142.078,148.275 140.007,147.115C139.944,147.469 139.881,147.823 139.982,148.896C137.987,150.263 135.992,151.631 133.316,153.1M76.16,148.596C76.037,147.704 75.914,146.812 75.71,145.336C74.626,146.559 73.955,147.316 72.965,148.432C74.437,148.85 75.341,149.107 76.666,149.932C86.681,154.612 96.786,153.128 107.521,150.883C105.07,147.605 104.107,142.845 98.847,146.985C98.602,146.994 98.357,146.998 97.528,146.36C92.385,146.645 87.243,146.931 82.632,146.96C82.412,146.407 82.191,145.854 81.304,145.101C79.63,146.507 77.956,147.913 76.16,148.596M100.013,98.311C101.389,97.564 102.764,96.817 104.672,95.781C95.83,95.781 87.983,95.781 78.902,95.781C81.078,97.052 82.443,97.849 84.791,99.221C82.253,99.221 80.866,99.221 78.259,99.221C79.43,101.18 79.945,103.199 80.873,103.411C87.89,105.012 94.991,106.311 102.972,102.176C100.825,101.024 99.643,100.39 98.46,99.755C98.751,99.376 99.042,98.997 100.013,98.311M87.417,93.105C90.199,93.105 94.223,94.28 95.537,92.892C100.105,88.063 94.055,83.705 93.647,78.919C93.536,77.614 91.764,76.45 90.007,74.311C89.159,79.178 88.589,82.449 88.019,85.72C87.679,85.669 87.339,85.618 86.999,85.567C86.999,82.514 86.999,79.46 86.999,76.406C85.148,80.504 83.874,84.694 83.007,88.966C82.494,91.498 83.662,93.166 87.417,93.105M133.849,134.77C131.875,132.462 131.875,132.462 128.876,134.784C130.298,135.02 131.736,135.258 133.849,134.77M104.202,141.605C104.207,141.21 104.212,140.816 104.217,140.421C104.053,140.421 103.747,140.408 103.746,140.42C103.715,140.813 103.713,141.207 104.202,141.605M58.475,151.365C58.529,151.157 58.582,150.948 58.636,150.74C58.504,150.874 58.372,151.008 58.475,151.365M40.244,118.174C40.413,118.118 40.581,118.063 40.75,118.007C40.58,117.952 40.411,117.898 40.244,118.174M129.588,151.517C129.588,151.517 129.476,151.583 129.588,151.517M48.483,146.59C48.483,146.59 48.416,146.478 48.483,146.59M42.59,117.519C42.59,117.519 42.477,117.588 42.59,117.519z"/><path fill="#edeeed" d="M119.005,105.03C117.549,103.811 116.094,102.591 113.67,100.561C116.279,100.168 117.478,99.987 118.884,99.775C118.884,97.681 118.884,95.565 118.884,92.939C114.121,92.253 109.283,91.556 104.446,90.86C104.503,90.445 104.561,90.031 104.619,89.616C109.92,89.616 115.36,88.855 120.491,89.79C128.766,91.298 136.938,93.617 144.937,96.249C147.608,97.128 149.619,100.013 151.931,101.981C149.813,103.897 147.695,105.813 144.937,107.949C143.281,108.603 142.266,109.039 141.25,109.474C141.32,109.719 141.389,109.964 141.459,110.209C142.676,110.094 143.893,109.978 145.11,109.862C145.926,109.981 146.742,110.1 149.232,110.463C145.933,112.048 143.978,113.506 141.818,113.936C131.62,115.97 121.434,118.384 111.119,119.44C88.09,121.798 65.189,120.783 42.79,114.203C40.585,113.555 38.326,112.773 36.418,111.545C35.108,110.702 34.363,108.98 33.982,107.818C35.367,108.209 36.134,108.432 36.902,108.655C36.263,107.818 35.624,106.98 34.984,106.142C30.576,101.914 30.642,99.337 36.316,97.211C43.197,94.631 50.502,93.194 57.593,91.157C59.213,90.691 60.708,89.795 62.636,88.813C63.012,88.53 62.771,88.489 62.72,88.493C65.59,88.898 68.501,89.488 71.435,89.642C73.915,89.772 76.42,89.397 78.915,89.246C78.966,89.781 79.018,90.315 79.07,90.85C74.34,91.524 69.61,92.199 64.563,92.918C64.473,94.727 64.386,96.469 63.83,98.604C62.989,98.993 62.618,98.991 62.246,98.988C62.065,97.194 61.884,95.399 61.636,92.94C56.488,94.318 51.51,95.4 46.732,97.058C44.916,97.688 43.56,99.642 41.994,100.992C43.615,102.488 44.999,104.742 46.902,105.338C52.731,107.164 58.686,108.935 64.722,109.686C86.658,112.417 108.577,112.391 130.282,107.543C133.163,106.899 136.027,105.789 138.633,104.399C142.453,102.362 142.576,99.768 138.589,98.007C133.509,95.764 128.009,94.475 122.172,92.609C122.063,95.01 121.997,96.476 121.666,98.564C121.578,100.116 121.757,101.045 121.935,101.974C121.063,102.316 120.19,102.658 119.188,103.66C119.04,104.556 119.023,104.793 119.005,105.03z"/><path fill="#fefefe" d="M133.142,177.003C132.914,176.039 132.683,175.076 132.457,174.112C131.627,170.571 131.897,167.904 136.58,167.753C138.221,167.701 139.83,166.678 141.453,166.098C141.345,165.633 141.238,165.168 141.13,164.703C136.627,164.703 132.125,164.703 127.292,164.9C126.961,165.097 127.063,165.067 127.172,164.749C126.693,164.34 126.105,164.25 125.518,164.159C125.675,164.495 125.832,164.83 125.976,165.391C125.926,165.917 125.929,166.218 125.971,166.518C122.631,166.933 119.291,167.348 115.488,167.413C114.352,167.315 113.679,167.565 113.005,167.816C112.841,167.883 112.677,167.95 112.257,167.948C110.382,166.842 108.764,165.806 107.309,164.266C107.653,163.251 107.833,162.74 108.014,162.23C119.026,160.436 130.071,158.815 141.03,156.741C144.194,156.142 147.356,154.618 150.09,152.854C155.022,149.67 155.081,145.399 150.106,142.231C146.661,140.037 142.638,138.734 138.832,137.129C137.244,136.46 135.551,136.043 132.677,135.115C134.655,134.14 135.524,133.314 136.11,133.481C145.173,136.06 154.37,138.322 163.141,141.688C166.233,142.874 170.212,146.761 170.318,149.547C170.477,153.721 166.017,156.194 161.069,157.245C159.939,157.799 159.463,158.4 158.986,159C157.524,159.598 156.061,160.195 154.053,160.918C153.338,161.029 153.171,161.015 152.685,161.009C151.476,161.459 150.586,161.901 149.696,162.342C149.785,162.553 149.874,162.764 149.963,162.975C150.893,162.883 151.823,162.79 153.002,162.716C153.418,162.726 153.584,162.717 153.751,162.708C157.243,161.956 160.735,161.203 164.377,160.418C165.456,162.141 166.626,164.008 168.057,166.294C158.156,173.635 146.453,175.704 134.294,177.656C133.618,177.213 133.401,177.075 133.142,177.003M144.023,166.304C145.11,165.961 146.197,165.617 147.285,165.273C147.206,164.766 147.127,164.258 147.048,163.75C145.467,163.831 143.639,163.434 142.358,164.097C140.045,165.294 140.56,166.394 144.023,166.304z"/><path fill="#0e0e0e" d="M64.066,54.959C60.519,56.63 58.911,55.067 59.096,51.544C59.318,47.336 62.049,44.823 65.915,43.981C71.076,42.858 76.343,42.225 82.416,41.243C82.711,36.1 83.035,30.468 83.35,24.836C83.358,24.701 83.271,24.555 83.211,24.422C82.275,22.333 79.985,19.504 80.649,18.295C82.678,14.595 85.702,11.385 88.653,8.283C89.498,7.394 91.489,7.035 92.813,7.26C98.45,8.219 103.034,17.844 101.875,23.463C100.689,29.215 100.976,35.27 100.622,41.124C106.81,42.107 112.328,42.455 117.475,44.022C120.095,44.82 122.674,47.439 124.14,49.907C125.852,52.789 124.184,54.746 120.3,54.363C119.724,52.495 119.501,51.354 119.474,50.014C117.148,44.67 112.484,46.341 108.406,46.138C108.846,46.717 109.471,46.824 109.955,47.144C110.546,47.534 111.019,48.103 112.53,49.521C98.182,51.893 85.086,52.113 72.024,49.473C71.982,48.993 71.939,48.512 71.897,48.031C72.923,47.62 73.949,47.208 75.304,46.856C76.301,46.883 76.968,46.851 78.005,46.87C79.444,46.371 80.513,45.822 81.582,45.273C81.373,44.816 81.165,44.36 80.956,43.903C79.952,44.319 78.948,44.734 77.631,45.107C76.525,45.266 75.732,45.468 74.518,45.59C70.678,46.314 67.259,47.12 63.839,47.925C63.892,48.477 63.945,49.028 63.997,49.58C65.985,50.059 67.972,50.538 70.062,51.268C70.183,51.698 70.201,51.877 70.031,52.355C67.92,53.107 65.996,53.561 63.83,54.247C63.713,54.666 63.839,54.852 63.965,55.038C63.965,55.038 64.03,54.982 64.066,54.959M90.993,29.795C91.004,30.22 91.015,30.644 90.982,31.763C90.01,32.544 89.038,33.326 87.98,33.511C87.573,33.181 87.167,32.852 86.76,32.522C86.672,32.79 86.462,33.263 86.515,33.294C87.021,33.594 87.571,33.82 88.056,34.866C86.943,39.114 85.83,43.362 84.55,48.253C89.302,48.253 92.928,48.506 96.496,48.164C98.85,47.938 99.188,46.736 95.97,45.248C95.701,45.165 95.432,45.081 95.22,44.266C95.625,43.181 96.029,42.095 97.058,40.836C96.762,39.556 96.465,38.276 96.103,36.199C95.733,35.092 95.363,33.984 94.781,32.491C94.59,32.256 94.35,32.093 93.71,31.534C93.478,31.01 93.245,30.486 93.022,29.623C93.022,29.623 93.012,29.284 93.728,28.889C94.882,28.498 96.036,28.107 97.488,27.615C93.201,24.852 89.688,24.944 86.762,27.98C88.332,28.417 89.663,28.788 90.993,29.795M85.691,21.002C86.389,21.004 87.088,21.006 88.147,21.71C92.382,23.98 96.004,22.121 100.586,19.918C97.67,16.26 95.097,13.032 92.136,9.318C88.845,12.999 86.181,15.913 83.666,18.95C83.51,19.137 84.522,20.292 85.691,21.002M105.492,46.065C105.241,46.215 104.99,46.364 104.739,46.514C104.998,46.653 105.322,46.958 105.5,46.888C105.716,46.803 105.809,46.404 105.492,46.065M101.825,45.242C101.881,45.41 101.937,45.577 101.992,45.745C102.047,45.576 102.101,45.407 101.825,45.242M63.484,51.585C63.484,51.585 63.419,51.475 63.484,51.585z"/><path fill="#fefefe" d="M75.012,162.2C75.459,162.159 75.907,162.117 76.678,162.18C75.709,163.918 74.417,165.552 72.655,167.566C62.456,166.902 52.727,165.858 42.867,164.627C42.522,164.204 42.257,164.065 41.551,163.945C40.106,163.845 39.052,163.822 37.881,163.615C37.569,163.2 37.323,163.053 36.619,162.934C33.473,162.184 30.735,161.492 27.882,160.618C27.573,160.206 27.33,160.061 26.76,159.907C25.306,159.804 24.126,159.795 22.98,159.518C23.012,158.89 23.011,158.531 23.01,158.171C23.01,158.171 23.436,157.988 24.015,157.994C25.395,157.666 26.196,157.331 27.393,156.997C29.045,156.839 30.301,156.681 31.558,156.524C31.33,155.905 31.102,155.286 30.875,154.667C29.584,155.446 28.293,156.225 26.615,156.997C25.45,157.008 24.674,157.024 23.898,157.041C22.585,156.898 20.887,157.226 20.031,156.525C17.457,154.414 14.263,152.248 13.229,149.406C12.694,147.933 15.741,144.238 17.978,142.834C27.907,136.599 39.363,134.943 50.659,133.039C52.122,132.792 53.793,133.78 56.528,134.503C51.866,135.533 48.253,136.176 44.736,137.161C42.198,137.873 39.428,138.571 37.407,140.119C34.664,142.219 30.684,145.125 30.685,147.684C30.685,150.092 34.772,153.699 37.75,154.675C45.885,157.341 54.362,158.996 62.749,160.842C65.819,161.518 69.019,161.604 72.617,162.342C73.393,163.023 73.71,163.321 74.027,163.619C74.355,163.146 74.683,162.673 75.012,162.2M57.768,164.789C57.947,164.653 58.126,164.516 58.304,164.38C58.054,164.412 57.803,164.444 57.768,164.789z"/><path fill="#fefefe" d="M102.002,169.863C110.713,169.582 119.423,169.301 128.665,169.27C129.372,169.744 129.598,169.893 129.875,169.966C130.038,171.904 130.597,173.923 130.221,175.751C129.977,176.941 128.451,178.654 127.365,178.76C118.078,179.669 108.76,180.263 98.963,180.876C94.604,176.867 96.042,173.676 100.265,170.407C101.107,169.952 101.554,169.907 102.002,169.863z"/><path fill="#151514" d="M22.947,159.786C24.126,159.795 25.306,159.804 26.79,160.169C27.396,160.616 27.697,160.709 27.998,160.801C30.735,161.492 33.473,162.184 36.654,163.196C37.396,163.61 37.697,163.705 37.998,163.799C39.052,163.822 40.106,163.845 41.614,164.207C42.378,164.635 42.688,164.724 42.998,164.813C52.727,165.858 62.456,166.902 72.592,167.894C78.337,168.209 83.674,168.576 89.487,169.24C89.962,169.536 90.102,170.005 89.901,170.284C88.481,171.781 87.261,172.999 85.671,174.048C83.69,172.91 82.129,171.209 80.46,171.094C70.474,170.41 60.397,170.637 50.483,169.451C44.305,168.711 38.306,166.182 32.335,164.139C29.089,163.029 26.069,161.259 22.947,159.786z"/><path fill="#1e1e1e" d="M119.091,80.98C119.195,77.417 119.478,74.2 119.762,70.983C120.395,70.972 121.029,70.962 121.662,70.951C122.036,73.731 122.703,76.515 122.672,79.29C122.653,80.899 121.943,83.24 119.091,80.98z"/><path fill="#1c1c1d" d="M63.72,71.159C64.492,75.332 66.639,79.296 63.45,83.13C59.882,79.693 59.979,75.378 63.72,71.159z"/><path fill="#151514" d="M118.015,58.443C118.249,57.796 118.532,57.578 118.937,57.116C121.111,60.652 123.259,64.418 121.307,68.736C120.761,68.83 120.216,68.925 119.671,69.019C119.135,65.636 118.6,62.254 118.015,58.443z"/><path fill="#fefefe" d="M97.001,169.002C95.995,168.302 94.988,167.601 93.942,166.873C97.082,163.584 98.83,163.924 100.681,168.429C99.945,168.94 99.509,168.984 98.727,169.017C97.922,169.004 97.461,169.003 97.001,169.002z"/><path fill="#f2f2f2" d="M90.102,170.005C90.102,170.005 89.962,169.536 89.911,169.297C91.181,169.435 92.502,169.812 93.997,170.32C93.181,170.792 92.191,171.132 91.171,171.729C90.795,171.326 90.448,170.665 90.102,170.005z"/><path fill="#131313" d="M119.278,50.214C119.501,51.354 119.724,52.495 119.977,54.216C120.006,54.798 119.536,54.935 119.296,54.978C118.617,54.638 118.18,54.255 117.536,53.512C117.331,53.152 117.378,53.179 117.77,52.908C118.218,52.041 118.275,51.446 118.51,50.603C118.884,50.309 119.081,50.261 119.278,50.214z"/><path fill="#f2f2f2" d="M107.675,162.153C107.833,162.74 107.653,163.251 107.239,163.914C106.677,163.66 106.35,163.254 106.003,162.577C106.434,162.229 106.885,162.153 107.675,162.153z"/><path fill="#101010" d="M46.322,129.316C46.661,129.307 47.112,129.674 47.563,130.04C47.058,130.326 46.553,130.611 45.713,130.871C45.73,130.462 46.082,130.077 46.322,129.316z"/><path fill="#101010" d="M99.072,169.028C99.509,168.984 99.945,168.94 100.691,168.782C101.166,168.739 101.331,168.811 101.748,168.981C102,169.079 102.001,169.471 102.001,169.667C101.554,169.907 101.107,169.952 100.33,170.075C100,170.153 99.582,169.991 99.31,169.741C99.038,169.491 99.072,169.028 99.072,169.028z"/><path fill="#f2f2f2" d="M98.727,169.017C99.072,169.028 99.038,169.491 99.087,169.718C98.546,169.798 97.957,169.651 97.184,169.253C97.461,169.003 97.922,169.004 98.727,169.017z"/><path fill="#0e0e0e" d="M97.776,182.883C97.316,183.541 96.809,183.64 96.303,183.739C96.273,183.23 96.244,182.722 96.214,182.213C96.719,182.25 97.224,182.286 97.776,182.883z"/><path fill="#101010" d="M64.683,87.093C64.855,87.43 64.636,87.658 64.105,87.873C64.04,87.646 64.207,87.354 64.683,87.093z"/><path fill="#f3f4f4" d="M22.98,159.518C26.069,161.259 29.089,163.029 32.335,164.139C38.306,166.182 44.305,168.711 50.483,169.451C60.397,170.637 70.474,170.41 80.46,171.094C82.129,171.209 83.69,172.91 85.636,174.386C85.986,175.574 86.002,176.253 86.017,176.932C84.849,180.023 82.821,181.243 79.347,180.975C63.733,179.771 48.08,178.938 32.607,173.575C31.806,172.443 31.437,171.714 30.811,170.478C30.428,171.786 30.234,172.45 30.039,173.115C26.086,171.302 22.132,169.49 18.485,167.297C20.566,165.039 21.171,163.298 18.217,161.972C19.574,160.709 20.932,159.446 22.65,158.177C23.011,158.531 23.012,158.89 22.98,159.518z"/><path fill="#f4f4f4" d="M58.07,121.024C76.812,123.941 95.632,123.843 114.746,123.063C114.466,125.145 114.1,126.733 113.339,128.101C112.418,129.755 111.162,131.223 110.051,132.772C102.742,133.844 95.46,135.255 88.112,135.834C84.854,136.091 81.478,134.575 78.126,134.051C76.658,133.821 75.019,134.41 73.63,134.019C70.38,133.105 67.234,131.823 63.531,130.303C62.347,129.592 61.679,129.268 61.008,128.977C61.006,129.011 61.074,129.012 61.115,128.636C60.759,128.15 60.363,128.041 59.968,127.98C59.969,128.029 60.066,128.039 60.23,127.674C59.619,125.215 58.844,123.119 58.07,121.024M74.832,133.367C74.79,132.726 74.748,132.085 74.706,131.444C74.305,131.531 73.904,131.618 73.504,131.705C73.683,132.188 73.863,132.671 74.832,133.367z"/><path fill="#e9eaea" d="M117.378,53.179C117.378,53.179 117.331,53.152 117.304,53.139C111.038,54.38 104.802,55.659 98.554,56.874C96.946,57.187 95.3,57.3 93.671,57.506C93.681,57.964 93.692,58.423 93.703,58.881C95.49,59.155 97.277,59.429 99.213,59.725C94.092,64.856 94.092,64.856 84.541,60.13C87.102,59.426 89.031,58.897 90.96,58.367C90.942,58.136 90.924,57.906 90.906,57.675C82.533,56.599 74.16,55.522 65.258,54.472C64.555,54.277 64.336,54.115 64.073,54.014C65.996,53.561 67.92,53.107 70.282,52.482C72.456,52.889 74.193,53.467 75.929,54.045C76.037,53.655 76.146,53.264 76.254,52.874C74.156,52.255 72.058,51.636 69.959,51.018C67.972,50.538 65.985,50.059 63.997,49.58C63.945,49.028 63.892,48.477 63.839,47.925C67.259,47.12 70.678,46.314 74.514,45.872C74.946,46.422 74.96,46.609 74.975,46.797C73.949,47.208 72.923,47.62 71.897,48.031C71.939,48.512 71.982,48.993 72.024,49.473C85.086,52.113 98.182,51.893 112.53,49.521C111.019,48.103 110.546,47.534 109.955,47.144C109.471,46.824 108.846,46.717 108.406,46.138C112.484,46.341 117.148,44.67 119.474,50.014C119.081,50.261 118.884,50.309 118.498,50.634C118.309,50.911 118.254,50.887 117.958,50.902C117.139,51.128 116.617,51.339 116.095,51.55C116.502,51.927 116.909,52.303 117.321,52.806C117.326,52.932 117.378,53.179 117.378,53.179z"/><path fill="#e5e5e5" d="M73.003,154.739C85.936,154.545 98.869,154.351 112.315,154.118C112.828,154.078 112.753,154.306 112.753,154.306C112.908,154.682 113.063,155.059 112.852,155.737C111.898,156.179 111.309,156.319 110.72,156.46C110.743,156.606 110.766,156.752 110.79,156.898C111.85,156.822 112.911,156.747 113.972,156.672C115.68,156.777 117.389,156.883 119.543,156.997C119.988,157.006 119.916,157.048 119.916,157.048C113.354,157.938 106.808,159.395 100.226,159.582C90.955,159.846 81.657,159.169 72.159,158.106C71.917,156.756 71.886,156.194 71.931,155.375C72.34,154.992 72.671,154.866 73.003,154.739z"/><path fill="#e5e5e5" d="M99.673,98.465C99.042,98.997 98.751,99.376 98.46,99.755C99.643,100.39 100.825,101.024 102.972,102.176C94.991,106.311 87.89,105.012 80.873,103.411C79.945,103.199 79.43,101.18 78.259,99.221C80.866,99.221 82.253,99.221 84.791,99.221C82.443,97.849 81.078,97.052 78.902,95.781C87.983,95.781 95.83,95.781 104.672,95.781C102.764,96.817 101.389,97.564 99.673,98.465z"/><path fill="#ededed" d="M87.017,92.945C83.662,93.166 82.494,91.498 83.007,88.966C83.874,84.694 85.148,80.504 86.999,76.406C86.999,79.46 86.999,82.514 86.999,85.567C87.339,85.618 87.679,85.669 88.019,85.72C88.589,82.449 89.159,79.178 90.007,74.311C91.764,76.45 93.536,77.614 93.647,78.919C94.055,83.705 100.105,88.063 95.537,92.892C94.223,94.28 90.199,93.105 87.017,92.945z"/><path fill="#eeeeee" d="M99.215,146.978C104.107,142.845 105.07,147.605 107.521,150.883C96.786,153.128 86.681,154.612 76.424,149.6C76.182,149.267 76.282,149.318 76.282,149.318C77.956,147.913 79.63,146.507 81.645,145.521C82.024,146.366 82.062,146.791 82.101,147.216C87.243,146.931 92.385,146.645 97.827,147.009C98.436,148.321 98.746,148.984 99.056,149.648C99.256,149.582 99.456,149.515 99.656,149.449C99.509,148.625 99.362,147.802 99.215,146.978z"/><path fill="#f0f0f0" d="M110.129,133.181C111.162,131.223 112.418,129.755 113.339,128.101C114.1,126.733 114.466,125.145 115.008,123.315C119.712,122.103 124.405,121.16 129.133,120.46C129.667,120.381 130.404,121.678 130.779,122.877C129.182,125.089 127.854,126.76 126.526,128.431C126.526,128.431 126.536,128.532 126.231,128.687C125.148,129.512 124.37,130.183 123.592,130.854C119.13,131.766 114.669,132.678 110.129,133.181z"/><path fill="#e2e3e2" d="M71.854,155.632C71.886,156.194 71.917,156.756 71.943,157.74C66.869,157.737 61.712,157.757 56.755,156.773C50.251,155.482 43.905,153.399 37.49,151.657C37.568,151.142 37.646,150.628 37.723,150.113C39.877,149.391 42.03,148.67 44.583,147.977C44.983,148.005 44.907,148.04 44.907,148.04C48.015,150.071 51.123,152.102 54.934,154.169C56.087,154.15 56.537,154.094 56.987,154.038C59.074,154.661 61.162,155.285 63.861,155.937C64.631,156.016 64.79,156.067 64.949,156.117C66.561,155.985 68.172,155.852 70.15,155.281C70.962,155.106 71.408,155.369 71.854,155.632z"/><path fill="#e9e9e9" d="M47.187,120.004C49.991,120.35 52.795,120.696 55.963,121.596C57.573,124.112 58.82,126.075 60.066,128.039C60.066,128.039 59.969,128.029 59.913,128.378C60.262,128.822 60.668,128.917 61.074,129.012C61.074,129.012 61.006,129.011 60.761,129.317C60.672,130.402 60.828,131.181 60.985,131.96C57.246,130.055 53.507,128.15 49.379,125.794C48.829,124.514 48.668,123.685 48.384,122.535C47.9,121.647 47.54,121.08 47.262,120.387C47.345,120.261 47.187,120.004 47.187,120.004z"/><path fill="#e5e5e5" d="M86.096,177.292C86.002,176.253 85.986,175.574 86.006,174.556C87.261,172.999 88.481,171.781 89.901,170.284C90.448,170.665 90.795,171.326 91.028,172.267C91.133,175.572 91.35,178.596 91.568,181.62C91.171,181.876 90.775,182.133 90.379,182.389C88.977,180.81 87.576,179.231 86.096,177.292z"/><path fill="#e5e5e5" d="M139.029,118.011C139.542,118.665 140.544,119.856 140.499,119.898C137.212,122.891 133.842,125.792 130.141,128.043C130.786,125.921 131.77,124.458 132.753,122.995C132.753,122.995 133.042,122.598 133.337,122.206C134.408,121.534 135.184,121.254 135.96,120.975C135.96,120.975 135.992,121.006 136.292,120.915C137.404,119.886 138.217,118.948 139.029,118.011z"/><path fill="#e2e3e2" d="M140.47,147.275C142.078,148.275 143.686,149.274 145.294,150.273C145.294,150.805 145.295,151.338 145.295,151.87C142.138,152.594 138.981,153.318 135.101,154.03C134.251,153.679 134.124,153.339 133.997,152.999C135.992,151.631 137.987,150.263 140.08,148.323C140.276,147.593 140.373,147.434 140.47,147.275z"/><path fill="#e5e5e5" d="M62.21,99.306C62.618,98.991 62.989,98.993 63.64,98.996C63.938,99.413 63.957,99.831 63.994,101.07C64.165,103.242 64.32,104.593 64.474,105.944C61.234,106.033 57.824,106.468 56.264,102.59C56.131,102.258 56.903,101.563 57.686,101.421C59.15,102.367 60.184,102.93 61.218,103.493C61.465,102.623 61.713,101.754 61.96,100.884C62.032,100.464 62.103,100.044 62.21,99.306z"/><path fill="#f3f4f4" d="M14.507,165.091C13.514,162.228 12.521,159.366 11.528,156.503C12.351,156.185 13.175,155.868 13.999,155.551C14.65,157.417 15.301,159.283 15.68,161.869C15.109,163.423 14.808,164.257 14.507,165.091z"/><path fill="#edeeed" d="M64.8,105.985C64.32,104.593 64.165,103.242 64.028,101.382C66.188,102.008 68.332,103.145 70.476,104.281C70.255,104.863 70.034,105.445 69.814,106.027C68.251,106.027 66.688,106.027 64.8,105.985z"/><path fill="#101010" d="M48.508,122.855C48.668,123.685 48.829,124.514 49.059,125.672C47.582,125.215 45.851,124.651 44.557,123.566C43.747,122.886 43.595,121.421 43.147,120.309C44.248,120.188 45.348,120.067 46.818,119.975C47.187,120.004 47.345,120.261 47.159,120.704C47.484,121.716 47.996,122.286 48.508,122.855z"/><path fill="#101010" d="M133.657,153.05C134.124,153.339 134.251,153.679 134.69,154.106C132.984,158.091 130.376,157.433 127.281,155.329C129.496,154.511 131.406,153.806 133.657,153.05z"/><path fill="#ddddde" d="M83.058,140.876C89.135,140.876 95.213,140.876 101.29,140.876C101.29,141.138 101.29,141.401 101.29,141.664C95.162,141.664 89.034,141.664 83,141.235C83.093,140.806 83.058,140.876 83.058,140.876z"/><path fill="#1c1c1d" d="M122.309,102.01C121.757,101.045 121.578,100.116 121.664,99.023C124.296,100.354 126.665,101.85 129.017,103.673C129.001,103.999 128.99,104.013 128.99,104.013C126.888,103.357 124.785,102.702 122.309,102.01z"/><path fill="#101010" d="M65.171,155.833C64.79,156.067 64.631,156.016 64.235,155.885C63.8,154.536 63.603,153.268 63.349,151.642C65.23,152.05 67.014,152.437 70.323,153.155C67.88,154.341 66.636,154.945 65.171,155.833z"/><path fill="#d9dada" d="M14.525,165.078C14.808,164.257 15.109,163.423 15.732,162.285C16.713,162.187 17.371,162.392 18.123,162.285C21.171,163.298 20.566,165.039 18.425,166.953C18.058,166.989 18,166.961 17.897,166.58C16.697,165.827 15.6,165.454 14.504,165.081C14.504,165.081 14.542,165.064 14.525,165.078z"/><path fill="#101010" d="M132.463,122.995C131.77,124.458 130.786,125.921 129.862,127.721C129.922,128.057 129.97,127.985 129.724,127.938C129.362,128.242 129.245,128.595 129.128,128.948C128.537,128.887 127.946,128.827 126.941,128.598C127.854,126.76 129.182,125.089 130.762,123.211C131.399,123.001 131.786,122.998 132.463,122.995z"/><path fill="#101010" d="M120.015,154.984C121.595,155.34 123.176,155.696 124.756,156.052C124.685,156.499 124.613,156.945 124.542,157.392C123.242,157.271 121.943,157.151 120.28,157.039C119.916,157.048 119.988,157.006 119.969,157.043C119.963,156.621 119.976,156.163 119.994,155.352C120,155 120.015,154.984 120.015,154.984z"/><path fill="#101010" d="M119.992,155.008C118.696,154.534 117.408,154.052 116.119,153.571C116.408,153.037 116.696,152.503 116.984,151.968C117.963,152.74 118.942,153.512 119.968,154.634C120.015,154.984 120,155 119.992,155.008z"/><path fill="#edeeed" d="M61.563,100.895C61.713,101.754 61.465,102.623 61.218,103.493C60.184,102.93 59.15,102.367 58.062,101.474C59.06,101.065 60.113,100.986 61.563,100.895z"/><path fill="#d3d4d4" d="M119.371,105.161C119.023,104.793 119.04,104.556 119.125,103.969C121.071,103.826 122.949,104.033 124.828,104.24C124.825,104.686 124.823,105.131 124.82,105.577C123.126,105.482 121.431,105.387 119.371,105.161z"/><path fill="#101010" d="M60.23,127.674C58.82,126.075 57.573,124.112 56.254,121.782C56.493,121.334 56.805,121.252 57.593,121.097C58.844,123.119 59.619,125.215 60.23,127.674z"/><path fill="#101010" d="M168.005,159.995C169.078,160.809 170.151,161.623 171.223,162.436C170.779,162.847 170.334,163.258 169.889,163.668C169.35,162.66 168.812,161.651 168.136,160.322C168,160 168.005,159.995 168.005,159.995z"/><path fill="#101010" d="M76.213,149.316C75.341,149.107 74.437,148.85 72.965,148.432C73.955,147.316 74.626,146.559 75.71,145.336C75.914,146.812 76.037,147.704 76.221,148.957C76.282,149.318 76.182,149.267 76.213,149.316z"/><path fill="#101010" d="M61.292,132.208C60.828,131.181 60.672,130.402 60.763,129.283C61.679,129.268 62.347,129.592 63.158,130.114C62.734,131.027 62.166,131.742 61.292,132.208z"/><path fill="#fefefe" d="M133.511,135.133C131.736,135.258 130.298,135.02 128.876,134.784C131.875,132.462 131.875,132.462 133.511,135.133z"/><path fill="#101010" d="M71.931,155.375C71.408,155.369 70.962,155.106 70.267,154.947C70.967,154.735 71.916,154.419 72.934,154.421C72.671,154.866 72.34,154.992 71.931,155.375z"/><path fill="#f3f4f4" d="M14.672,165.321C15.6,165.454 16.697,165.827 17.913,166.552C16.968,166.457 15.904,166.009 14.672,165.321z"/><path fill="#101010" d="M30.25,173.353C30.234,172.45 30.428,171.786 30.811,170.478C31.437,171.714 31.806,172.443 32.241,173.528C31.691,173.786 31.076,173.689 30.25,173.353z"/><path fill="#101010" d="M145.086,109.432C143.893,109.978 142.676,110.094 141.459,110.209C141.389,109.964 141.32,109.719 141.25,109.474C142.266,109.039 143.281,108.603 144.651,108.154C145.024,108.427 145.043,108.714 145.086,109.432z"/><path fill="#101010" d="M56.958,153.733C56.537,154.094 56.087,154.15 55.317,154.091C54.735,153.289 54.474,152.603 54.212,151.917C54.419,151.757 54.626,151.597 54.833,151.438C55.532,152.101 56.231,152.765 56.958,153.733z"/><path fill="#101010" d="M135.722,120.819C135.184,121.254 134.408,121.534 133.336,121.96C133.318,120.717 132.969,118.266 135.722,120.819z"/><path fill="#101010" d="M34.905,106.326C35.624,106.98 36.263,107.818 36.902,108.655C36.134,108.432 35.367,108.209 34.342,107.724C34.332,107.145 34.579,106.828 34.905,106.326z"/><path fill="#101010" d="M138.658,118.013C138.217,118.948 137.404,119.886 136.287,120.893C136.75,119.981 137.518,118.999 138.658,118.013z"/><path fill="#101010" d="M124.007,130.886C124.37,130.183 125.148,129.512 126.183,128.67C125.767,129.305 125.095,130.112 124.007,130.886z"/><path fill="#101010" d="M99.031,146.982C99.362,147.802 99.509,148.625 99.656,149.449C99.456,149.515 99.256,149.582 99.056,149.648C98.746,148.984 98.436,148.321 98.119,147.328C98.357,146.998 98.602,146.994 99.031,146.982z"/><path fill="#101010" d="M113.876,156.529C112.911,156.747 111.85,156.822 110.79,156.898C110.766,156.752 110.743,156.606 110.72,156.46C111.309,156.319 111.898,156.179 112.837,156.05C113.422,156.102 113.62,156.21 113.876,156.529z"/><path fill="#101010" d="M159.264,158.983C159.463,158.4 159.939,157.799 160.713,157.383C160.52,158.033 160.03,158.5 159.264,158.983z"/><path fill="#f2f2f2" d="M74.681,162.102C74.683,162.673 74.355,163.146 74.027,163.619C73.71,163.321 73.393,163.023 73.033,162.443C73.444,162.11 73.897,162.057 74.681,162.102z"/><path fill="#ddddde" d="M83.101,140.768C82.012,140.874 80.914,141.019 79.816,141.164C79.799,140.831 79.783,140.498 79.767,140.165C80.74,140.21 81.713,140.254 82.872,140.587C83.058,140.876 83.093,140.806 83.101,140.768z"/><path fill="#101010" d="M44.967,148.044C45.234,147.618 45.518,147.155 45.802,146.691C46.106,147.016 46.411,147.341 46.716,147.667C46.285,147.839 45.853,148.012 45.165,148.112C44.907,148.04 44.983,148.005 44.967,148.044z"/><path fill="#101010" d="M103.954,141.603C103.713,141.207 103.715,140.813 103.746,140.42C103.747,140.408 104.053,140.421 104.217,140.421C104.212,140.816 104.207,141.21 103.954,141.603z"/><path fill="#f2f2f2" d="M113.274,167.873C113.679,167.565 114.352,167.315 115.08,167.336C114.605,167.715 114.074,167.823 113.274,167.873z"/><path fill="#101010" d="M167.998,160.002C167.546,159.85 167.098,159.695 166.649,159.541C166.78,159.262 166.912,158.984 167.043,158.705C167.35,158.966 167.658,159.227 167.985,159.742C168.005,159.995 168,160 167.998,160.002z"/><path fill="#f2f2f2" d="M23.963,157.27C24.674,157.024 25.45,157.008 26.613,156.996C27,157 26.997,156.997 26.997,156.997C26.196,157.331 25.395,157.666 24.246,157.979C23.898,157.959 24.028,157.5 23.963,157.27z"/><path fill="#101010" d="M58.358,151.253C58.372,151.008 58.504,150.874 58.636,150.74C58.582,150.948 58.529,151.157 58.358,151.253z"/><path fill="#f2f2f2" d="M126.26,166.574C125.929,166.218 125.926,165.917 126.24,165.321C126.7,165.039 126.882,165.053 127.063,165.067C127.063,165.067 126.961,165.097 126.925,165.06C126.775,165.559 126.662,166.094 126.26,166.574z"/><path fill="#f2f2f2" d="M129.951,169.809C129.598,169.893 129.372,169.744 129.1,169.336C129.346,169.319 129.687,169.486 129.951,169.809z"/><path fill="#ddddde" d="M82.366,147.088C82.062,146.791 82.024,146.366 81.978,145.621C82.191,145.854 82.412,146.407 82.366,147.088z"/><path fill="#101010" d="M40.243,118.009C40.411,117.898 40.58,117.952 40.75,118.007C40.581,118.063 40.413,118.118 40.243,118.009z"/><path fill="#101010" d="M129.532,151.55C129.476,151.583 129.588,151.517 129.532,151.55z"/><path fill="#f4f4f4" d="M133.113,177.265C133.401,177.075 133.618,177.213 133.89,177.587C133.685,177.68 133.385,177.603 133.113,177.265z"/><path fill="#101010" d="M112.72,154.129C112.876,154.069 113.142,153.958 113.407,153.847C113.302,153.922 113.197,153.997 112.922,154.189C112.753,154.306 112.828,154.078 112.72,154.129z"/><path fill="#e2e3e2" d="M139.998,147.964C139.881,147.823 139.944,147.469 140.238,147.195C140.373,147.434 140.276,147.593 139.998,147.964z"/><path fill="#101010" d="M48.449,146.534C48.416,146.478 48.483,146.59 48.449,146.534z"/><path fill="#e5e5e5" d="M129.45,128.923C129.245,128.595 129.362,128.242 129.762,127.918C129.955,128.264 129.864,128.582 129.45,128.923z"/><path fill="#101010" d="M42.533,117.554C42.477,117.588 42.59,117.519 42.533,117.554z"/><path fill="#101010" d="M153.003,161.001C153.171,161.015 153.338,161.029 153.754,161.09C153.975,161.402 153.949,161.666 153.837,162.319C153.584,162.717 153.418,162.726 153.02,162.286C152.86,161.558 152.932,161.279 153.003,161.001z"/><path fill="#1c1c1d" d="M129.008,103.994C129.136,104.135 129.258,104.283 129.38,104.43C129.289,104.384 129.199,104.337 129.049,104.151C128.99,104.013 129.001,103.999 129.008,103.994z"/><path fill="#fdfdfd" d="M63.83,54.247C64.336,54.115 64.555,54.277 64.846,54.667C64.825,55.014 64.687,55.19 64.258,55.202C63.839,54.852 63.713,54.666 63.83,54.247z"/><path fill="#0e0e0e" d="M143.546,166.456C140.56,166.394 140.045,165.294 142.358,164.097C143.639,163.434 145.467,163.831 147.048,163.75C147.127,164.258 147.206,164.766 147.285,165.273C146.197,165.617 145.11,165.961 143.546,166.456z"/><path fill="#f4f4f4" d="M152.685,161.009C152.932,161.279 152.86,161.558 152.771,162.267C151.823,162.79 150.893,162.883 149.963,162.975C149.874,162.764 149.785,162.553 149.696,162.342C150.586,161.901 151.476,161.459 152.685,161.009z"/><path fill="#101010" d="M127.172,164.749C126.882,165.053 126.7,165.039 126.254,165.095C125.832,164.83 125.675,164.495 125.518,164.159C126.105,164.25 126.693,164.34 127.172,164.749z"/><path fill="#f3f3f3" d="M96.661,45.737C99.188,46.736 98.85,47.938 96.496,48.164C92.928,48.506 89.302,48.253 84.55,48.253C85.83,43.362 86.943,39.114 88.037,34.442C88.018,34.018 88.067,34.108 88.067,34.108C89.038,33.326 90.01,32.544 91.246,31.228C92.011,30.45 92.512,30.206 93.013,29.961C93.245,30.486 93.478,31.01 93.885,32.055C94.371,32.676 94.682,32.776 94.994,32.877C95.363,33.984 95.733,35.092 96.022,36.913C96.105,38.755 96.269,39.882 96.433,41.01C96.029,42.095 95.625,43.181 95.171,44.919C95.635,45.627 96.148,45.682 96.661,45.737z"/><path fill="#f1f1f1" d="M84.991,20.997C84.522,20.292 83.51,19.137 83.666,18.95C86.181,15.913 88.845,12.999 92.136,9.318C95.097,13.032 97.67,16.26 100.586,19.918C96.004,22.121 92.382,23.98 87.964,21.024C86.852,20.557 85.922,20.777 84.991,20.997z"/><path fill="#e2e3e2" d="M90.995,29.159C89.663,28.788 88.332,28.417 86.762,27.98C89.688,24.944 93.201,24.852 97.488,27.615C96.036,28.107 94.882,28.498 93.029,29.064C91.885,29.212 91.44,29.186 90.995,29.159z"/><path fill="#131313" d="M77.945,45.15C78.948,44.734 79.952,44.319 80.956,43.903C81.165,44.36 81.373,44.816 81.582,45.273C80.513,45.822 79.444,46.371 78.11,46.604C77.879,45.908 77.912,45.529 77.945,45.15z"/><path fill="#d3d4d4" d="M70.062,51.268C72.058,51.636 74.156,52.255 76.254,52.874C76.146,53.264 76.037,53.655 75.929,54.045C74.193,53.467 72.456,52.889 70.469,52.184C70.201,51.877 70.183,51.698 70.062,51.268z"/><path fill="#131313" d="M96.746,40.923C96.269,39.882 96.105,38.755 96.055,37.312C96.465,38.276 96.762,39.556 96.746,40.923z"/><path fill="#d3d4d4" d="M77.631,45.107C77.912,45.529 77.879,45.908 77.74,46.553C76.968,46.851 76.301,46.883 75.304,46.856C74.96,46.609 74.946,46.422 74.935,45.953C75.732,45.468 76.525,45.266 77.631,45.107z"/><path fill="#131313" d="M88.063,34.043C87.571,33.82 87.021,33.594 86.515,33.294C86.462,33.263 86.672,32.79 86.76,32.522C87.167,32.852 87.573,33.181 88.023,33.81C88.067,34.108 88.018,34.018 88.063,34.043z"/><path fill="#131313" d="M105.724,46.103C105.809,46.404 105.716,46.803 105.5,46.888C105.322,46.958 104.998,46.653 104.739,46.514C104.99,46.364 105.241,46.215 105.724,46.103z"/><path fill="#131313" d="M90.994,29.477C91.44,29.186 91.885,29.212 92.671,29.261C93.012,29.284 93.022,29.623 93.018,29.792C92.512,30.206 92.011,30.45 91.268,30.881C91.015,30.644 91.004,30.22 90.994,29.477z"/><path fill="#131313" d="M85.341,20.999C85.922,20.777 86.852,20.557 87.784,20.673C87.088,21.006 86.389,21.004 85.341,20.999z"/><path fill="#131313" d="M101.99,45.24C102.101,45.407 102.047,45.576 101.992,45.745C101.937,45.577 101.881,45.41 101.99,45.24z"/><path fill="#131313" d="M94.887,32.684C94.682,32.776 94.371,32.676 94.06,32.289C94.35,32.093 94.59,32.256 94.887,32.684z"/><path fill="#131313" d="M96.315,45.492C96.148,45.682 95.635,45.627 95.142,45.285C95.432,45.081 95.701,45.165 96.315,45.492z"/><path fill="#131313" d="M63.451,51.53C63.419,51.475 63.484,51.585 63.451,51.53z"/><path fill="#f2f2f2" d="M27.001,157.002C28.293,156.225 29.584,155.446 30.875,154.667C31.102,155.286 31.33,155.905 31.558,156.524C30.301,156.681 29.045,156.839 27.393,156.997C26.997,156.997 27,157 27.001,157.002z"/><path fill="#f2f2f2" d="M57.66,164.633C57.803,164.444 58.054,164.412 58.304,164.38C58.126,164.516 57.947,164.653 57.66,164.633z"/><path fill="#f2f2f2" d="M27.882,160.618C27.697,160.709 27.396,160.616 27.065,160.262C27.33,160.061 27.573,160.206 27.882,160.618z"/><path fill="#f2f2f2" d="M42.867,164.627C42.688,164.724 42.378,164.635 42.005,164.284C42.257,164.065 42.522,164.204 42.867,164.627z"/><path fill="#f2f2f2" d="M37.881,163.615C37.697,163.705 37.396,163.61 37.061,163.253C37.323,163.053 37.569,163.2 37.881,163.615z"/><path fill="#0e0e0e" d="M117.77,52.908C117.378,53.179 117.326,52.932 117.608,52.385C118.011,51.52 118.133,51.204 118.254,50.887C118.254,50.887 118.309,50.911 118.321,50.88C118.275,51.446 118.218,52.041 117.77,52.908z"/><path fill="#101010" d="M74.437,133.26C73.863,132.671 73.683,132.188 73.504,131.705C73.904,131.618 74.305,131.531 74.706,131.444C74.748,132.085 74.79,132.726 74.437,133.26z"/><path fill="#101010" d="M61.115,128.636C60.668,128.917 60.262,128.822 59.911,128.329C60.363,128.041 60.759,128.15 61.115,128.636z"/><path fill="#0e0e0e" d="M117.603,52.258C116.909,52.303 116.502,51.927 116.095,51.55C116.617,51.339 117.139,51.128 117.958,50.902C118.133,51.204 118.011,51.52 117.603,52.258z"/><path fill="#0e0e0e" d="M48.384,122.535C47.996,122.286 47.484,121.716 47.076,120.83C47.54,121.08 47.9,121.647 48.384,122.535z"/></svg>