<svg xmlns="http://www.w3.org/2000/svg" viewBox="0 0 262 143" xml:space="preserve"><path fill="#070707" d="M49.068,81.97C49.523,79.783 50.539,77.542 50.331,75.42C49.641,68.367 48.997,61.046 53.15,55.124C58.6,47.355 64.366,39.672 72.959,34.685C77.597,31.993 81.943,28.63 85.933,25.03C92.057,19.504 99.542,17.672 107.844,16.303C109.309,15.928 110.127,15.271 110.945,14.614C116.881,11.158 123.198,9.601 130.141,9.852C138.089,10.14 141.185,12.345 142.754,19.883C142.82,20.204 143.534,20.39 144.039,21.213C144.251,21.891 144.37,21.995 144.49,22.1C144.337,21.83 144.184,21.56 144.032,21.291C150.436,24.045 157.215,17.815 163.525,22.049C170.497,26.728 173.072,29.021 169.511,34.363C168.105,34.085 167.216,33.982 166.328,33.878C166.838,34.574 167.349,35.271 167.859,35.968C169.934,36.821 171.955,38.117 174.102,38.379C175.683,38.572 178.594,37.789 178.913,36.797C180.993,30.329 186.015,31.435 190.316,32.474C204.283,35.851 218.058,40.462 225.809,53.632C229.876,60.541 231.666,68.822 234.248,76.562C235.53,80.407 235.035,84.365 240.97,85.874C246.411,87.258 251.07,91.717 256.582,95.136C248.716,99.007 239.841,93.829 233.063,100.525C235.951,102.832 238.587,104.937 241.223,107.041C241.182,107.467 241.142,107.892 241.101,108.318C236.343,108.079 231.586,107.84 226.081,107.85C222.462,111.919 219.006,112.319 215.061,109.854C211.957,108.61 208.853,107.366 205.008,106.01C196.296,104.683 188.325,103.466 180.119,102.156C179.66,102.169 179.436,102.277 179.212,102.384C179.449,102.612 179.685,102.84 179.946,103.363C181.417,105.102 182.864,106.546 184.313,108.334C184.216,109.122 184.117,109.565 184.018,110.007C182.922,109.672 181.827,109.337 180.241,108.659C178.162,107.636 176.575,106.956 174.987,106.275C167.134,101.962 159.634,96.704 151.329,93.604C143.271,90.597 134.386,89.807 125.16,88.045C124.133,88.372 123.81,88.697 123.487,89.023C122.087,91.099 120.688,93.175 118.723,95.567C115.436,96.645 112.715,97.406 109.566,98.104C104.747,98.996 100.355,99.951 95.645,100.96C94.478,101.639 93.629,102.264 92.421,102.909C90.713,103.381 89.362,103.833 87.624,104.175C84.679,104.983 82.122,105.902 79.857,106.715C82.278,107.046 85.143,107.437 88.363,107.922C91.442,109.356 94.167,110.697 96.944,112.412C96.958,113.508 96.919,114.231 96.881,114.954C85.286,115.264 73.692,115.721 62.095,115.81C57.499,115.846 52.897,115.064 48.177,114.103C48.041,113.377 48.026,113.203 48.012,113.028C53.188,110.634 58.365,108.239 63.742,105.503C63.943,105.162 63.981,105.175 64.345,105.093C66.144,104.723 67.58,104.434 69.391,104.03C75.811,101.349 83.388,101.945 88.047,95.116C78.923,95.169 69.776,90.246 62.609,98.763C62.878,98.978 63.458,99.44 64.027,100.267C64.029,101.358 64.042,102.086 63.713,102.894C62.912,103.036 62.451,103.097 61.99,103.158C60.924,103.099 59.858,103.041 58.355,102.629C57.607,101.977 57.297,101.679 56.987,101.381C56.656,101.842 56.326,102.304 55.995,102.766C42.857,103.897 29.74,104.527 16.405,100.558C15.991,99.027 15.979,97.97 15.967,96.913C18.394,94.258 20.938,91.7 23.225,88.929C29.079,81.837 35.791,77.608 45.809,82.087C47.251,82.308 48.16,82.139 49.068,81.97M46.938,88.651C47.606,88.693 48.274,88.735 48.942,88.777C48.953,88.578 48.964,88.379 48.975,88.181C48.096,88.14 47.216,88.099 45.635,88.267C40.543,85.413 35.411,84.801 30.362,88.266C27.988,89.894 26.936,92.536 29.21,94.471C30.473,95.546 33.379,95.199 35.371,94.74C36.797,94.411 37.934,92.832 39.316,91.717C40.095,92.558 40.874,93.057 41.15,93.756C42.323,96.716 44.784,96.715 46.667,95.417C47.485,94.853 46.896,92.161 46.831,90.44C46.802,89.679 46.486,88.928 46.938,88.651M92.934,58.451C92.627,58.38 92.319,58.31 91.354,58.22C90.196,59.719 89.038,61.218 87.335,62.891C86.881,63.237 86.427,63.583 85.336,63.398C83.663,49.278 88.996,37.38 97.095,25.943C91.984,28.285 86.569,30.478 83.495,34.473C75.711,44.592 75.474,67.665 84.765,78.201C86.624,80.31 88.741,82.19 90.662,84.246C93.312,87.083 96.304,87.123 100.396,85.384C96.747,79.415 93.261,73.714 89.778,67.49C89.854,67.333 89.931,67.177 90.861,67.039C95.108,65.251 92.209,61.683 92.934,58.451M134.084,15.927C125.478,12.903 114.519,17.729 107.144,26.448C94.93,40.887 98.834,71.199 109.407,83.693C110.473,84.953 112.281,85.587 113.466,86.334C118.611,82.131 116.412,78.224 113.864,74.601C101.61,57.183 106.683,39.263 119.285,25.89C123.064,21.879 127.368,17.356 134.159,19.004C135.076,18.243 135.993,17.483 136.909,16.722C136.242,16.494 135.575,16.266 134.084,15.927M163.997,29.316C149.212,24.995 144.604,26.548 135.053,39.243C128.205,48.345 127.152,59.034 127.033,69.886C126.932,79.157 131.032,82.668 140.202,81.615C139.468,77.231 138.656,72.855 138.015,68.454C136.99,61.416 140.238,55.28 142.073,48.788C144.778,39.22 154.334,31.039 164.453,31.015C164.761,30.928 165.068,30.841 165.375,30.754C165.068,30.494 164.761,30.234 163.997,29.316M210.513,92.682C211.517,94.735 212.522,96.788 213.578,98.947C215.427,95.569 216.82,93.023 218.822,89.365C219.724,93.038 220.271,95.267 220.683,96.945C228.66,92.909 229.62,86.782 226.098,79.418C225.931,79.068 226.278,78.471 226.39,77.99C228.902,67.203 223.727,53.272 212.151,47.36C209.357,45.933 206.274,45.076 203.466,43.674C190.159,37.032 167.043,46.774 163.609,61.237C162.26,66.917 161.482,72.783 161.013,78.61C160.481,85.223 163.718,89.897 169.642,92.674C170.657,85.738 171.651,78.944 172.83,70.88C175.978,77.713 177.093,77.929 180.56,73.158C182.778,70.105 184.569,66.741 186.558,63.505C187.597,64.085 188.807,64.759 190.976,65.968C186.3,72.326 181.818,78.42 177.018,84.945C185.352,82.162 190.28,87.908 195.559,91.201C197.575,89.372 199.233,87.867 200.891,86.361C200.181,93.577 200.653,94.632 206.533,97.874C207.019,95.785 207.452,93.711 208.074,91.694C208.119,91.546 209.525,91.817 210.513,92.682M69.358,43.837C61.283,51.972 63.112,61.775 66.194,70.791C68.645,77.959 71.87,86.035 83.689,86.766C69.707,73.702 65.069,59.309 71.436,42.168C70.92,42.553 70.403,42.937 69.358,43.837M65.114,87.67C68.533,87.62 69.15,85.882 67.382,83.339C60.865,73.964 56.298,64.16 60.643,51.229C52.859,60.66 56.082,75.557 65.114,87.67M153.009,60.406C153.405,58.874 153.8,57.341 154.431,54.898C151.004,55.091 146.46,54.391 145.912,55.562C144.406,58.775 144.25,62.786 144.372,66.454C144.395,67.164 148.1,67.752 150.002,68.363C151.143,65.413 151.96,63.301 153.009,60.406M113.091,45.91C113.248,46.504 113.242,47.491 113.586,47.634C119.602,50.136 125.317,47.024 126.863,40.489C115.918,38.096 115.724,38.164 113.091,45.91M152.181,44.304C151.06,45.801 149.94,47.297 148.892,48.696C155.679,53.445 160.877,51.246 166.586,45.053C161.402,44.564 157.074,44.155 152.181,44.304M135.425,28.856C136.761,27.737 138.097,26.619 139.408,25.522C136.012,20.917 130.568,21.412 125.887,26.285C127.553,27.462 129.11,28.937 130.96,29.721C131.996,30.161 133.517,29.456 135.425,28.856M113.043,58.83C113.851,61.862 114.66,64.893 115.468,67.925C116.28,67.627 117.092,67.329 117.903,67.031C116.424,64.062 114.944,61.092 113.043,58.83z"/><path fill="#0b0b0b" d="M121.005,103.897C126.648,107.133 132.213,110.519 137.98,113.516C139.789,114.456 142.134,114.598 144.248,114.665C148.625,114.804 153.06,114.236 157.378,114.748C160.605,115.13 163.687,116.749 166.833,117.817C166.728,118.602 166.622,119.387 166.516,120.172C163.674,120.756 160.755,122.07 158.004,121.782C150.517,120.998 143.121,119.379 135.649,118.398C130.409,117.71 125.071,117.757 119.835,117.045C115.422,116.445 111.092,115.224 106.357,113.784C105.164,112.191 104.341,111.091 103.62,109.703C103.851,109.031 103.979,108.646 104.418,108.211C105.15,107.766 105.571,107.371 106.334,106.893C108.782,105.806 110.886,104.802 113.439,103.815C116.26,103.854 118.633,103.875 121.005,103.897z"/><path fill="#f5f6f5" d="M184.31,107.989C182.864,106.546 181.417,105.102 180.083,103.174C180.194,102.689 180.353,102.25 180.353,102.25C188.325,103.466 196.296,104.683 204.638,106.041C204.995,107.546 204.981,108.909 204.53,110.69C200.036,111.732 195.98,112.356 191.925,112.98C191.925,112.98 191.549,113.038 191.233,112.869C190.579,112.818 190.24,112.937 189.901,113.056C187.572,113.86 185.607,113.872 185.295,110.438C186.09,109.96 186.644,109.866 188.226,109.6C186.285,108.802 185.297,108.395 184.31,107.989z"/><path fill="#0e0f0f" d="M127.979,99.304C137.854,94.509 145.458,101.048 153.743,104.28C143.74,106.171 134.365,102.811 124.548,100.733C125.528,99.959 126.753,99.631 127.979,99.304z"/><path fill="#f5f6f5" d="M127.932,98.91C126.753,99.631 125.528,99.959 124.175,100.593C123.068,101.682 122.09,102.464 121.058,103.571C118.633,103.875 116.26,103.854 113.398,103.49C111.936,101.488 110.965,99.828 109.994,98.167C112.715,97.406 115.436,96.645 118.544,95.854C120.259,96.395 121.549,97.096 122.926,97.5C124.54,97.974 126.229,98.189 127.932,98.91z"/><path fill="#222222" d="M191.944,113.378C195.98,112.356 200.036,111.732 204.509,111.099C204.927,111.089 204.906,111.044 204.998,111.34C205.414,112.084 205.738,112.533 206.062,112.981C205.86,113.557 205.718,114.604 205.446,114.638C201.529,115.139 197.598,115.588 193.657,115.798C193.131,115.826 192.53,114.484 191.944,113.378z"/><path fill="#eff0ef" d="M215.043,110.183C219.006,112.319 222.462,111.919 225.664,108.078C226.518,109.526 227.041,110.995 227.576,112.499C221.967,113.06 216.914,113.566 211.091,114.149C212.882,112.492 213.953,111.502 215.043,110.183z"/><path fill="#f5f6f5" d="M174.986,106.674C176.575,106.956 178.162,107.636 179.885,108.62C178.186,111.066 176.351,113.209 174.516,115.352C174.265,115.06 174.014,114.769 173.763,114.477C174.17,112.009 174.578,109.54 174.986,106.674z"/><path fill="#f5f6f5" d="M103.517,109.991C104.341,111.091 105.164,112.191 106.021,113.634C103.242,114.301 100.43,114.625 97.249,114.951C96.919,114.231 96.958,113.508 97.321,112.39C99.602,111.327 101.56,110.659 103.517,109.991z"/><path fill="#141415" d="M168.088,35.942C167.349,35.271 166.838,34.574 166.328,33.878C167.216,33.982 168.105,34.085 169.125,34.55C168.944,35.246 168.631,35.581 168.088,35.942z"/><path fill="#0b0b0b" d="M15.629,97.048C15.979,97.97 15.991,99.027 16.003,100.48C13.243,100.107 13.184,99.799 15.629,97.048z"/><path fill="#101010" d="M110.634,14.72C110.127,15.271 109.309,15.928 108.262,16.338C108.796,15.669 109.559,15.248 110.634,14.72z"/><path fill="#eff0ef" d="M184.313,108.334C185.297,108.395 186.285,108.802 188.226,109.6C186.644,109.866 186.09,109.96 185.233,110.105C184.932,110.157 184.473,110.093 184.246,110.05C184.117,109.565 184.216,109.122 184.313,108.334z"/><path fill="#0b0b0b" d="M48.879,81.754C48.16,82.139 47.251,82.308 46.172,82.24C46.897,81.848 47.793,81.693 48.879,81.754z"/><path fill="#f0f1f1" d="M63.981,105.175C63.981,105.175 63.943,105.162 63.949,105.182C63.362,104.771 62.77,104.34 62.084,103.534C62.451,103.097 62.912,103.036 63.746,103C64.12,103.025 63.949,103.166 63.968,103.5C63.985,104.282 63.983,104.729 63.981,105.175z"/><path fill="#0b0b0b" d="M56.321,102.874C56.326,102.304 56.656,101.842 56.987,101.381C57.297,101.679 57.607,101.977 57.96,102.553C57.551,102.882 57.099,102.932 56.321,102.874z"/><path fill="#eff0ef" d="M206.29,112.798C205.738,112.533 205.414,112.084 204.985,111.361C205.426,111.596 205.972,112.106 206.29,112.798z"/><path fill="#222222" d="M47.777,113.056C48.026,113.203 48.041,113.377 48.012,113.811C47.564,113.898 47.161,113.726 46.757,113.555C47.019,113.398 47.281,113.24 47.777,113.056z"/><path fill="#eff0ef" d="M190.023,113.23C190.24,112.937 190.579,112.818 191.044,112.885C190.829,113.182 190.487,113.293 190.023,113.23z"/><path fill="#f5f6f5" d="M123.715,89.009C123.81,88.697 124.133,88.372 124.724,88.12C124.642,88.461 124.293,88.728 123.715,89.009z"/><path fill="#eff0ef" d="M208.442,112.539C208.401,112.475 208.484,112.604 208.442,112.539z"/><path fill="#f5f6f5" d="M164.537,105.557C164.475,105.595 164.599,105.518 164.537,105.557z"/><path fill="#141415" d="M144.02,21.325C144.184,21.56 144.337,21.83 144.49,22.1C144.37,21.995 144.251,21.891 144.042,21.554C143.952,21.32 144.009,21.359 144.02,21.325z"/><path fill="#f6f7f7" d="M210.405,92.288C209.525,91.817 208.119,91.546 208.074,91.694C207.452,93.711 207.019,95.785 206.533,97.874C200.653,94.632 200.181,93.577 200.891,86.361C199.233,87.867 197.575,89.372 195.559,91.201C190.28,87.908 185.352,82.162 177.018,84.945C181.818,78.42 186.3,72.326 190.976,65.968C188.807,64.759 187.597,64.085 186.558,63.505C184.569,66.741 182.778,70.105 180.56,73.158C177.093,77.929 175.978,77.713 172.83,70.88C171.651,78.944 170.657,85.738 169.642,92.674C163.718,89.897 160.481,85.223 161.013,78.61C161.482,72.783 162.26,66.917 163.609,61.237C167.043,46.774 190.159,37.032 203.466,43.674C206.274,45.076 209.357,45.933 212.151,47.36C223.727,53.272 228.902,67.203 226.39,77.99C226.278,78.471 225.931,79.068 226.098,79.418C229.62,86.782 228.66,92.909 220.683,96.945C220.271,95.267 219.724,93.038 218.822,89.365C216.82,93.023 215.427,95.569 213.578,98.947C212.522,96.788 211.517,94.735 210.405,92.288M205.83,64.551C202.59,61.692 200.029,62.052 197.267,65.571C195.211,68.192 195.463,72.747 190.958,73.497C190.782,73.526 190.585,75.698 191.013,76.57C191.724,78.02 192.935,79.225 193.88,80.462C200.961,74.755 204.319,74.051 209.82,81.017C210.409,81.762 211.311,82.623 212.147,82.715C213.128,82.823 214.423,82.399 215.152,81.735C215.703,81.233 216.029,79.725 215.675,79.125C214.183,76.59 212.421,74.212 210.713,71.807C209.167,69.631 207.565,67.495 205.83,64.551M216.467,59.655C213.22,58.035 213.392,60.469 214.042,62.095C215.762,66.393 217.878,70.532 220.005,75.096C224.967,70.092 225.093,66.317 221.113,62.972C219.858,61.917 218.412,61.088 216.467,59.655M198.558,50.713C197.177,51.519 195.796,52.326 194.416,53.132C194.563,53.52 194.709,53.908 194.856,54.296C198.597,54.296 202.337,54.296 206.078,54.296C206.187,53.93 206.297,53.564 206.407,53.199C204.07,52.275 201.733,51.352 198.558,50.713z"/><path fill="#f8f9f8" d="M163.949,30.98C154.334,31.039 144.778,39.22 142.073,48.788C140.238,55.28 136.99,61.416 138.015,68.454C138.656,72.855 139.468,77.231 140.202,81.615C131.032,82.668 126.932,79.157 127.033,69.886C127.152,59.034 128.205,48.345 135.053,39.243C144.604,26.548 149.212,24.995 164.096,29.895C164.113,30.642 164.031,30.811 163.949,30.98z"/><path fill="#f6f7f7" d="M134.075,18.44C127.368,17.356 123.064,21.879 119.285,25.89C106.683,39.263 101.61,57.183 113.864,74.601C116.412,78.224 118.611,82.131 113.466,86.334C112.281,85.587 110.473,84.953 109.407,83.693C98.834,71.199 94.93,40.887 107.144,26.448C114.519,17.729 125.478,12.903 134.512,16.309C134.652,17.274 134.363,17.857 134.075,18.44z"/><path fill="#f6f7f6" d="M89.776,68.013C93.261,73.714 96.747,79.415 100.396,85.384C96.304,87.123 93.312,87.083 90.662,84.246C88.741,82.19 86.624,80.31 84.765,78.201C75.474,67.665 75.711,44.592 83.495,34.473C86.569,30.478 91.984,28.285 97.095,25.943C88.996,37.38 83.663,49.278 85.832,63.913C86.846,63.858 87.363,63.287 87.88,62.717C89.038,61.218 90.196,59.719 91.782,58.399C92.391,58.774 92.609,58.915 92.864,58.999C92.209,61.683 95.108,65.251 90.283,66.81C89.266,66.741 88.827,66.901 88.389,67.062C88.851,67.379 89.314,67.696 89.776,68.013z"/><path fill="#f2f3f3" d="M69.622,43.579C70.403,42.937 70.92,42.553 71.436,42.168C65.069,59.309 69.707,73.702 83.689,86.766C71.87,86.035 68.645,77.959 66.194,70.791C63.112,61.775 61.283,51.972 69.622,43.579z"/><path fill="#fefefe" d="M103.62,109.703C101.56,110.659 99.602,111.327 97.268,112.017C94.167,110.697 91.442,109.356 88.361,107.567C88.008,106.175 88.01,105.23 88.012,104.284C89.362,103.833 90.713,103.381 92.714,103.095C94.232,103.866 95.098,104.471 96.914,105.74C96.424,103.249 96.194,102.078 95.964,100.907C100.355,99.951 104.747,98.996 109.566,98.104C110.965,99.828 111.936,101.488 112.949,103.473C110.886,104.802 108.782,105.806 106.147,106.659C105.114,107.093 104.61,107.678 104.106,108.262C103.979,108.646 103.851,109.031 103.62,109.703z"/><path fill="#f0f1f1" d="M64.037,99.903C63.458,99.44 62.878,98.978 62.609,98.763C69.776,90.246 78.923,95.169 88.047,95.116C83.388,101.945 75.811,101.349 69.373,103.761C68.993,103.428 69.006,103.249 69.144,102.735C68.823,100.111 68.823,100.111 64.037,99.903z"/><path fill="#f3f4f4" d="M46.3,88.173C46.486,88.928 46.802,89.679 46.831,90.44C46.896,92.161 47.485,94.853 46.667,95.417C44.784,96.715 42.323,96.716 41.15,93.756C40.874,93.057 40.095,92.558 39.316,91.717C37.934,92.832 36.797,94.411 35.371,94.74C33.379,95.199 30.473,95.546 29.21,94.471C26.936,92.536 27.988,89.894 30.362,88.266C35.411,84.801 40.543,85.413 46.004,88.201C46.374,88.135 46.3,88.173 46.3,88.173z"/><path fill="#e9eaea" d="M64.874,87.374C56.082,75.557 52.859,60.66 60.643,51.229C56.298,64.16 60.865,73.964 67.382,83.339C69.15,85.882 68.533,87.62 64.874,87.374z"/><path fill="#f0f1f1" d="M152.893,60.798C151.96,63.301 151.143,65.413 150.002,68.363C148.1,67.752 144.395,67.164 144.372,66.454C144.25,62.786 144.406,58.775 145.912,55.562C146.46,54.391 151.004,55.091 154.431,54.898C153.8,57.341 153.405,58.874 152.893,60.798z"/><path fill="#f0f0f0" d="M113.264,45.53C115.724,38.164 115.918,38.096 126.863,40.489C125.317,47.024 119.602,50.136 113.586,47.634C113.242,47.491 113.248,46.504 113.264,45.53z"/><path fill="#f0f1f1" d="M152.463,44.025C157.074,44.155 161.402,44.564 166.586,45.053C160.877,51.246 155.679,53.445 148.892,48.696C149.94,47.297 151.06,45.801 152.463,44.025z"/><path fill="#eceded" d="M135.122,29.061C133.517,29.456 131.996,30.161 130.96,29.721C129.11,28.937 127.553,27.462 125.887,26.285C130.568,21.412 136.012,20.917 139.408,25.522C138.097,26.619 136.761,27.737 135.122,29.061z"/><path fill="#e9eaea" d="M113.254,58.476C114.944,61.092 116.424,64.062 117.903,67.031C117.092,67.329 116.28,67.627 115.468,67.925C114.66,64.893 113.851,61.862 113.254,58.476z"/><path fill="#0b0b0b" d="M64.027,100.267C68.823,100.111 68.823,100.111 68.721,102.704C66.766,103.061 65.357,103.113 63.949,103.166C63.949,103.166 64.12,103.025 64.087,102.919C64.042,102.086 64.029,101.358 64.027,100.267z"/><path fill="#f5f6f5" d="M87.624,104.175C88.01,105.23 88.008,106.175 88.006,107.474C85.143,107.437 82.278,107.046 79.857,106.715C82.122,105.902 84.679,104.983 87.624,104.175z"/><path fill="#f5f6f5" d="M95.645,100.96C96.194,102.078 96.424,103.249 96.914,105.74C95.098,104.471 94.232,103.866 93.073,103.075C93.629,102.264 94.478,101.639 95.645,100.96z"/><path fill="#101010" d="M134.117,18.722C134.363,17.857 134.652,17.274 134.924,16.365C135.575,16.266 136.242,16.494 136.909,16.722C135.993,17.483 135.076,18.243 134.117,18.722z"/><path fill="#fefefe" d="M63.968,103.5C65.357,103.113 66.766,103.061 68.597,103.039C69.006,103.249 68.993,103.428 68.998,103.876C67.58,104.434 66.144,104.723 64.345,105.093C63.983,104.729 63.985,104.282 63.968,103.5z"/><path fill="#ebebeb" d="M89.777,67.752C89.314,67.696 88.851,67.379 88.389,67.062C88.827,66.901 89.266,66.741 89.856,66.8C89.931,67.177 89.854,67.333 89.777,67.752z"/><path fill="#ebebeb" d="M87.607,62.804C87.363,63.287 86.846,63.858 86.151,64.179C86.427,63.583 86.881,63.237 87.607,62.804z"/><path fill="#0b0b0b" d="M46.619,88.412C46.3,88.173 46.374,88.135 46.355,88.097C47.216,88.099 48.096,88.14 48.975,88.181C48.964,88.379 48.953,88.578 48.942,88.777C48.274,88.735 47.606,88.693 46.619,88.412z"/><path fill="#141415" d="M164.201,30.997C164.031,30.811 164.113,30.642 164.324,30.223C164.761,30.234 165.068,30.494 165.375,30.754C165.068,30.841 164.761,30.928 164.201,30.997z"/><path fill="#ebebeb" d="M92.899,58.725C92.609,58.915 92.391,58.774 92.111,58.408C92.319,58.31 92.627,58.38 92.899,58.725z"/><path fill="#eff0ef" d="M180.058,102.879C179.685,102.84 179.449,102.612 179.212,102.384C179.436,102.277 179.66,102.169 180.119,102.156C180.353,102.25 180.194,102.689 180.058,102.879z"/><path fill="#f5f6f5" d="M104.418,108.211C104.61,107.678 105.114,107.093 105.805,106.743C105.571,107.371 105.15,107.766 104.418,108.211z"/><path fill="#080809" d="M205.909,64.946C207.565,67.495 209.167,69.631 210.713,71.807C212.421,74.212 214.183,76.59 215.675,79.125C216.029,79.725 215.703,81.233 215.152,81.735C214.423,82.399 213.128,82.823 212.147,82.715C211.311,82.623 210.409,81.762 209.82,81.017C204.319,74.051 200.961,74.755 193.88,80.462C192.935,79.225 191.724,78.02 191.013,76.57C190.585,75.698 190.782,73.526 190.958,73.497C195.463,72.747 195.211,68.192 197.267,65.571C200.029,62.052 202.59,61.692 205.909,64.946z"/><path fill="#0e0e0e" d="M216.76,59.905C218.412,61.088 219.858,61.917 221.113,62.972C225.093,66.317 224.967,70.092 220.005,75.096C217.878,70.532 215.762,66.393 214.042,62.095C213.392,60.469 213.22,58.035 216.76,59.905z"/><path fill="#1d1e1e" d="M198.977,50.571C201.733,51.352 204.07,52.275 206.407,53.199C206.297,53.564 206.187,53.93 206.078,54.296C202.337,54.296 198.597,54.296 194.856,54.296C194.709,53.908 194.563,53.52 194.416,53.132C195.796,52.326 197.177,51.519 198.977,50.571z"/></svg>