<svg xmlns="http://www.w3.org/2000/svg" viewBox="0 0 244 130" xml:space="preserve"><path fill="#070707" d="m108.834 111.928-67.46-2.503-.082-1.048 21.45-10.492c-1.163-1.394-1.77-2.121-1.877-3.555.742-2.758.986-4.81 1.283-7.297h-26.14L12.643 82.97c2.3-1.385 3.6-2.653 5.104-2.98 4.254-.926 9.192-.583 9.701-8.395l3.78 7.094 1.019-8.571 1.739-.232 2.54 9.078 4.684-1.572c0-8.52-.003-16.414.006-24.307 0-.497.026-1.01.149-1.487 2.059-7.983 18.833-14.462 26.123-10.837 6.537 3.252 8.12 8.527 8.583 14.857q.291 3.974.61 7.945c.486 6.08 2.072 7.708 7.863 6.978 1.37-.173 2.97-2.163 3.613-3.678 1.327-3.126 2.081-6.496 3.625-9.619 1.774.35 2.995.553 4.072 1.083-.037 1.697.068 3.068.174 4.438l2.352-.783c-.794-1.329-1.587-2.657-2.38-4.365 0-1.393 0-2.407.31-3.508.786-.479 1.261-.87 1.736-1.26.44-.01.879-.02 1.641.428 1.616 4.95 3.203.233 4.628.596 3.533 2.47 6.15 5.317 5.726 10.167-.332 3.79-.067 7.631-.067 12.215 2.979-1.137 4.482-1.64 5.927-2.275 4.514-1.984 7.758-4.564 7.177-10.412-.77-7.753-.9-15.572-1.213-23.367-.127-3.145-.977-4.662-4.731-4.457-7.128.388-8.993-2.492-6.735-9.88 2.529 0 5.19.15 7.828-.036 3.772-.266 4.945-2.645 4.75-6.176-.117-2.118.182-4.26.294-6.39 3.758.23 7.917-2.126 10.835 2.186-.696.8-1.115 1.137-1.533 1.475l2.142 1.08.616 6.21c4.035 2.82 12.71-2.053 12.194 6.732-.489 8.312-8.172 2.168-12.406 5.123 0 7.342-.006 15.28.005 23.219.002 1.332.276 2.696.076 3.991-.78 5.053.002 8.203 6.266 9.069 3.701.512 7.018 3.802 11.593 6.478.819-1.413 2.165-4.045 3.8-6.483 2.38-3.548 4.969-6.956 7.735-10.402.267.021.347.245.407.52.382.569.703.86 1.025 1.152.325-.47.65-.94 1.383-1.497 2.054.001 3.699.088 5.344.176 0 0-.003-.26.072.136.211.74.349 1.085.206 1.582-.53.718-.78 1.282-1.42 1.954-2.407.65-5.801.694-6.209 1.82-2.2 6.073-4.68 12.36-5.016 18.682-.225 4.24 4.279 5.888 9.03 5.678 4.51-.2 4.5-3.138 4.684-5.98.406-6.262.517-12.543.887-19.138.827-.917 1.517-1.512 2.208-2.107.378.016.757.032 1.508.368.704.353 1.034.384 1.365.416l3.126 1.658.913-.937c-1.209-1.688-2.418-3.376-3.927-5.58-1.5-1.45-2.7-2.385-3.902-3.32-.97-4.356 1.141-7.548 4.61-9.38 4.906-2.59 9.755-1.761 14.07 2.788.893 1.107 1.64 1.525 2.385 1.943 1.082 4.7 2.6 9.351 3.125 14.112.542 4.918.12 9.942.12 14.92l1.628.138c.736-.98 1.943-1.879 2.132-2.956 1.1-6.253 6.508-7.91 11.1-9.59 2.768-1.012 6.764-.229 9.642 1.036 3.156 1.386 3.452 4.878 2.726 8.261-.546 2.542-.762 5.155-1.171 8.063 2.32.109 4.092.191 6.058.77-.43.79-1.054 1.085-2.012 1.423-.786.72-1.239 1.395-1.691 2.07h-43.668l-.528 2.267c2.676 3.304 7.105 2.268 11.883 2.809l-3.543 2.353.845 5.304c7.055.436 14.538.9 22.463 1.737.49.759.538 1.144.585 1.528-7.133.325-14.268.622-21.4.984-4.41.224-8.817.548-13.225.826l-.115 1.428 12.51 1.809.025 1.472c-7.438.793-14.888 2.32-22.313 2.207-11.41-.172-22.802-1.47-34.201-2.295-1.481-.107-2.96-.239-4.88-.621-.438-.262-.437-.745-.187-.828.414-.147.578-.212 1.11-.218.795-.212 1.223-.483 1.651-.753a23 23 0 0 1-2.266-1.32c-3.94-1.508-7.627-2.755-12.003-4.234l10.992-6.116c-7.89-5.648-9.115-5.61-11.667.568-3.536-.337-7.128-.817-10.735-.997-9.023-.448-9.351-.395-9.325-9.504.029-10.083-6.432-13.87-12.713-14.112-5.4-.208-10.889.455-16.237 1.343-1.473.244-3.706 2.7-3.676 4.1.184 8.731.913 17.45 1.46 26.173l1.905.538c.753-1.596 2.085-3.166 2.158-4.793.266-5.977.063-11.973.164-17.96.02-1.214.202-2.991.985-3.534 4.583-3.177 9.612-4.214 15-2.076 4.67 1.853 7.754 4.897 7.958 10.263.194 5.092.53 10.178.805 15.309 3.23.19 6.21.367 9.406.712.574.196.93.222 1.674.34 1.088 1.099 1.79 2.108 1.986 3.094-1.354.986-2.201 1.995-3.05 3.004m41.42-26.939c-11.904-.124-23.807-.334-35.71-.293-2.18.007-4.356 1.036-6.534 1.594 1.912.592 3.799 1.288 5.741 1.754 3.168.758 6.378 1.933 9.558 1.897 4.139-.046 8.247-1.332 12.403-1.675 6.65-.55 13.33-.763 19.997-1.119l.034-1.597a105 105 0 0 0-5.49-.56m-.658 14.712-4.583 5.11c1.547.686 3.495 1.477 5.379 2.401 4.15 2.037 7.89 3.494 12.423-.05 2.775-2.17 2.542-3.29.643-5.307-4.161-4.42-7.468-5.071-13.862-2.154m39.94-10.722c.491-3.19 1.01-6.378 1.466-9.573.539-3.762-.799-5.418-4.654-3.767l-1.372-7.332c-.998 5.31-.807 10.43-1.063 15.526-.18 3.614 1.156 5.26 5.623 5.146M51.359 71.67V55.007l-4.273.414c2.624 7.84-1.372 16.207 3.956 23.344.114-2.064.228-4.128.317-7.093m2.55-23.497-4.596 3.65 1.208 1.685 10.547-6.664-.666-1.342c-1.939.796-3.878 1.591-6.493 2.67m134.523 4.16c-.388 3.22-1.495 6.654 1.681 8.82l1.789-.523c-.884-2.708-1.768-5.416-3.47-8.297"/><path fill="#f2f3f3" d="M112.388 108.946c-.701-1.008-1.403-2.017-2.674-3.363-.949-.311-1.329-.287-1.709-.262l-9.188-.543c-.276-5.131-.61-10.217-.805-15.309-.204-5.366-3.287-8.41-7.957-10.263-5.389-2.138-10.418-1.101-15.001 2.076-.783.543-.964 2.32-.985 3.533-.101 5.988.102 11.984-.164 17.961-.073 1.627-1.405 3.197-2.158 4.793l-1.904-.538c-.548-8.723-1.277-17.442-1.461-26.172-.03-1.4 2.203-3.857 3.676-4.101 5.348-.888 10.838-1.55 16.237-1.343 6.281.242 12.742 4.029 12.713 14.112-.026 9.11.302 9.056 9.325 9.504 3.607.18 7.2.66 10.735.997 2.552-6.177 3.777-6.216 11.667-.568l-10.992 6.116c4.376 1.48 8.063 2.726 12.002 4.527.25.943.249 1.332.248 1.722-.164.064-.328.129-1.053.204a58 58 0 0 1-2.192-.005c-1.84-.004-3.327.007-4.815.018 0 0-.466-.025-.835-.316-1.279-.11-2.188.073-3.097.255-2.17.53-4.34 1.06-6.546 1.208.157-.66.35-.938.539-1.575-.021-.84-.04-1.321-.097-2.26-.813-1.058-1.586-1.656-2.359-2.254a35 35 0 0 1-1.123 1.89c-.037-.027-.027-.044-.027-.044"/><path fill="#e9eae9" d="M36.013 87.423c8.487-.39 16.978-.39 26.135-.39-.297 2.487-.541 4.539-1.196 6.846-.411.255-.435.25-.277-.222-5.441-.842-11.042-1.213-16.869-1.779-1.103.332-1.98.857-2.855 1.383-3.45.632-3.45.632-4.938-5.838"/><path fill="#2d2d2d" d="M108.97 115.061c5.294.672 10.211 1.398 15.128 2.124l-.34 2.368-17.464-2.818c1.225-.863 1.762-1.241 2.676-1.674"/><path fill="#070707" d="M44.033 92.072c5.6.372 11.2.743 16.623 1.563-2.002.761-3.828 1.346-5.65 1.33a46.3 46.3 0 0 1-10.61-1.312c-.355-.974-.359-1.278-.363-1.581"/><path fill="#1a1a1a" d="M231.024 89.008c.625-.295 1.25-.59 2.05-1.198 2.064.353 3.954 1.015 5.834 1.704.077.028.064.303.249 1.33-2.241.172-4.438.342-6.998.108-.62-.916-.878-1.43-1.135-1.944"/><path fill="#dadbdb" d="M172.829 61.885c-1.721.318-3.366.231-5.76.161a45 45 0 0 0-2.128.139s-.08-.224.013-.297c3.663-3.64 6.232-3.75 7.875-.003"/><path fill="#ebeceb" d="M111.883 108.924c.505.022.495.04.778.286.646.486 1.008.725 1.503 1.205.7.679 1.266 1.119 1.832 1.559a5.3 5.3 0 0 1-.805.953c-2.003-.23-3.779-.582-5.956-.967.447-1.041 1.294-2.05 2.648-3.036"/><path fill="#070808" d="M95.997 57.999c-1.22-.202-2.44-.405-3.882-.911.599-1.214 1.418-2.125 2.809-3.017.74.055.908.09 1.077.126L96 57.618c0 .382-.003.38-.003.38M172 65.856c.25-.565.5-1.13 1.335-1.834.962-.215 1.34-.29 1.717-.366.638.198 1.275.397 2.028.93-.576.927-1.266 1.522-2.417 2.367-1.196-.199-1.93-.648-2.663-1.097"/><path fill="#ebeceb" d="M126.018 112.387c1.403-.356 2.89-.367 4.662-.1.288.458.29.638.294.818-1.624-.124-3.248-.248-4.956-.718"/><path fill="#dadbdb" d="M176.132 57.826c1.347.632 2.548 1.566 3.733 2.867-1.304-.61-2.592-1.588-3.733-2.867"/><path fill="#070808" d="M104.078 53.563c-1.188-.053-2.775 4.665-4.072-.174 1.275-.275 2.555-.205 4.072.174m30.718-35.765c-.795-.156-1.509-.515-2.223-.875.418-.338.837-.676 1.646-1.01.48.563.57 1.121.577 1.885"/><path fill="#212121" d="M43.806 91.878c.231.497.235.8.226 1.559-.823.22-1.634-.014-2.763-.212.558-.49 1.434-1.015 2.537-1.347"/><path fill="#121213" d="M96.31 54.109c-.478.052-.646.017-1.07-.067.629-.533 1.51-1.018 2.6-1.348-.269.546-.744.936-1.53 1.415"/><path fill="#ebeceb" d="M122.376 111.993c.534-.194 1.443-.376 2.489-.275-.614.285-1.364.286-2.49.275"/><path fill="#070808" d="M230.691 89.051c.59.47.847.985 1.195 1.772-.66.362-1.41.45-2.524.418.09-.795.543-1.47 1.33-2.19"/><path fill="#313130" d="M217.36 107.193c-.37-.458-.418-.843-.45-1.52.578-.14 1.141.012 1.705.163-.311.477-.622.954-1.255 1.357"/><path fill="#070808" d="M197.248 52.563c-.65-.107-1.397-.525-2.197-1.297.664.093 1.383.54 2.197 1.297"/><path fill="#dadbdb" d="M174.99 63.33c-.315.401-.693.477-1.375.54-.441-.358-.579-.702-.805-1.314.646-.028 1.383.21 2.18.774"/><path fill="#070808" d="M131.337 113.17c-.366-.245-.37-.425-.304-.868.493-.262.92-.262 1.656-.19.312.072.311.555.31.796-.433.27-.866.297-1.662.261"/><path fill="#dadbdb" d="M179.933 65.503c-.196.167-.526.136-.949-.173.246-.322.548-.238.95.173"/><path fill="#f7f7f7" d="M171.61 65.963c1.124.342 1.857.791 2.915 1.312.092 6.345-.02 12.626-.425 18.888-.185 2.842-.174 5.78-4.684 5.98-4.751.21-9.255-1.439-9.03-5.678.337-6.322 2.816-12.61 5.016-18.683.408-1.125 3.802-1.17 6.208-1.82"/><path fill="#f4f5f5" d="M150.72 84.99c1.986.186 3.504.373 5.022.56l-.034 1.597c-6.667.356-13.346.57-19.997 1.119-4.156.343-8.264 1.629-12.403 1.675-3.18.036-6.39-1.139-9.558-1.897-1.942-.466-3.829-1.162-5.74-1.754 2.177-.558 4.354-1.587 6.533-1.594 11.903-.041 23.806.17 36.177.293"/><path fill="#f7f7f6" d="M149.884 99.45c6.104-2.665 9.41-2.015 13.572 2.406 1.9 2.017 2.132 3.138-.643 5.307-4.533 3.544-8.273 2.087-12.423.05-1.884-.924-3.832-1.715-5.38-2.402 1.508-1.68 3.046-3.394 4.874-5.36"/><path fill="#f3f4f3" d="M189.09 88.964c-4.023.13-5.36-1.516-5.179-5.13.256-5.096.065-10.215 1.063-15.526l1.372 7.332c3.855-1.651 5.193.005 4.654 3.767-.457 3.195-.975 6.382-1.91 9.557"/><path fill="#f5f5f5" d="M51.371 72.122a417 417 0 0 1-.329 6.642c-5.328-7.137-1.332-15.503-3.956-23.344l4.273-.414c0 5.819 0 11.242.012 17.116"/><path fill="#dfe0e0" d="M54.247 48.032c2.277-.938 4.216-1.733 6.155-2.529l.666 1.342-10.547 6.664-1.208-1.685c1.532-1.217 3.064-2.434 4.934-3.792"/><path fill="#dcdddc" d="M188.84 52.42c1.294 2.794 2.178 5.502 3.062 8.21l-1.789.523c-3.176-2.166-2.07-5.6-1.272-8.733"/><path fill="#121213" d="m96 57.998 2.38 3.984-2.352.783c-.106-1.37-.211-2.74-.174-4.438.143-.328.146-.327.145-.329"/><path fill="#070808" d="M165.001 62.46c.4-.316.859-.356 1.659-.328.016.54-.31 1.01-.634 1.48-.322-.292-.643-.583-1.025-1.151"/><path fill="#ebeceb" d="M134.36 111.883c-.366-.448-.365-.837-.364-1.52.673.061 1.344.414 2.016.767-.428.27-.856.54-1.651.753"/><path fill="#1d1d1d" d="M108.223 105.49c.162-.194.542-.218 1.105.003-.174.22-.531.193-1.105-.003m5.809 4.685c-.363-.24-.725-.479-1.333-.94.116-.858.477-1.497.84-2.135.772.598 1.545 1.196 2.041 2.319-.7.601-1.125.678-1.548.756"/><path fill="#fdfdfd" d="M114.164 110.415c.291-.318.715-.395 1.456-.538.334.416.353.896.374 1.737-.564-.08-1.13-.52-1.83-1.2"/></svg>