<svg xmlns="http://www.w3.org/2000/svg" viewBox="0 0 231 149" xml:space="preserve"><path fill="#050505" d="M69.016,132.064C60.1,136.169 50.591,134.715 41.276,134.897C40.118,134.92 38.935,133.656 37.763,132.989C38.58,131.895 39.197,130.153 40.25,129.829C43.489,128.833 46.889,128.346 50.239,127.728C52.134,127.378 54.052,127.159 56.064,126.866C55.222,124.534 54.536,122.634 53.588,120.008C57.283,120.93 60.194,121.656 62.777,122.301C64.026,119.518 65.084,117.159 66.2,114.672C69.514,116.812 72.063,118.459 74.612,120.105C75.05,119.838 75.488,119.571 75.925,119.303C74.992,115.733 74.059,112.163 73.126,108.593C73.609,108.294 74.093,107.994 74.577,107.695C77.411,109.819 80.527,111.664 82.991,114.154C84.988,116.173 86.189,116.22 88.881,115.172C97.381,111.862 97.998,105.363 96.853,97.058C93.366,96.771 89.667,96.513 85.977,96.154C78.349,95.412 70.651,95.024 63.134,93.658C59.774,93.047 56.391,90.881 53.731,88.592C51.238,86.448 48.9,85.901 46.064,86.742C42.934,87.669 40.606,86.838 37.827,85.04C34.658,82.989 30.731,81.882 26.983,81.024C23.476,80.221 17.353,74.393 17.108,70.077C16.831,65.219 20.116,62.929 24.444,62.227C27.457,61.738 27.782,59.999 26.398,58.121C23.089,53.627 25.861,50.527 29.143,48.865C34.181,46.315 39.776,44.835 45.193,43.079C47.254,42.412 48.954,42.221 49.357,39.28C49.757,36.359 51.851,34.202 55.472,35.265C59.32,36.396 60.542,33.83 62.092,31.046C63.036,29.351 64.954,27.566 66.762,27.106C71.685,25.852 76.813,25.429 81.789,24.349C83.27,24.027 84.67,22.784 85.841,21.681C89.951,17.812 94.33,15.774 100.258,17.369C102.23,17.9 104.967,16.676 107.025,15.615C115.893,11.04 125.087,9.291 134.774,12.174C137.248,12.911 139.314,14.922 141.743,15.922C145.62,17.519 149.563,19.097 153.625,20.075C160.326,21.687 167.192,22.616 173.897,24.215C178.385,25.286 179.357,28.674 176.859,32.645C176.561,33.12 176.717,33.881 176.732,33.712C181.66,34.625 186.419,35.167 190.945,36.5C192.974,37.098 195.35,38.931 196.157,40.811C198.63,46.565 203.773,47.521 208.787,48.943C209.582,49.169 210.424,49.222 211.241,49.372C216.03,50.248 220.183,52.67 220.68,57.583C221.137,62.112 218.814,66.22 214.217,68.365C213.785,68.566 213.448,68.968 212.731,69.549C213.631,71.056 214.382,72.687 215.466,74.054C218.137,77.424 217.91,80.188 213.948,81.597C210.783,82.723 207.131,83.171 203.779,82.899C199.608,82.561 197.392,84.166 195.539,87.63C192.213,93.849 189.511,94.595 182.465,94.259C172.817,93.799 163.127,93.955 153.466,94.235C151.607,94.289 149.042,95.679 148.115,97.235C145.554,101.53 146.877,106.075 149.53,109.81C151.713,112.886 154.724,115.409 157.54,117.99C160.2,120.428 162.006,119.058 163.207,116.267C164.789,112.589 166.691,109.623 171.653,112.935C171.557,114.213 171.415,116.097 171.274,117.981C171.581,118.259 171.888,118.537 172.194,118.816C174.725,116.359 177.255,113.901 180.461,110.788C180.865,113.292 181.066,114.538 181.428,116.778C183.37,115.253 184.87,114.076 186.984,112.416C186.808,114.589 186.658,116.443 186.479,118.652C187.647,118.887 189.177,119.196 190.883,119.54C190.416,122.533 189.958,125.467 189.492,128.459C198.353,129.125 207.253,130.827 215.824,133.855C215.806,134.634 215.788,135.412 215.77,136.19C209.49,136.858 203.211,137.526 196.148,138.123C194.559,138.309 193.755,138.565 192.95,138.822C185.071,139.06 178.718,135.124 172.551,131.018C169.612,129.061 167.616,128.135 165.437,131.88C164.908,132.79 162.705,132.903 161.238,133.056C156.8,133.518 152.346,133.819 147.195,134.141C147,135.299 147.509,136.5 148.018,137.7C149.421,138.39 150.824,139.079 152.645,140.171C153.371,140.621 153.681,140.67 153.99,140.718C154.161,140.744 154.332,140.77 154.667,141.272C153.217,142.222 151.604,142.696 149.99,143.17C147.153,141.792 144.345,140.35 141.472,139.053C138.302,137.622 135.077,135.186 131.867,135.171C119.868,135.112 107.866,135.866 95.153,136.451C92.325,136.975 91.265,137.813 92.935,140.155C92.541,141.247 92.267,142.042 91.992,142.838C85.272,142.63 78.552,142.423 71.324,141.653C73.973,140.049 77.062,138.577 80.304,138.053C87.743,136.848 93.751,132.65 95.27,126.489C89.658,128.197 84.346,129.814 78.709,131.248C77.592,130.69 76.8,130.316 75.627,129.955C73.17,130.666 71.093,131.365 69.016,132.064M128.596,30.972C125.758,33.371 122.919,35.771 119.485,38.673C124.458,37.941 128.506,37.345 132.346,36.78C132.162,39.124 132.037,40.711 131.898,42.476C140.385,38.882 140.633,38.928 142.546,43.746C146.705,42.245 150.864,40.744 155.44,39.092C154.951,37.506 154.128,34.838 153.452,32.647C149.518,32.373 144.71,33.485 142.741,31.613C137.948,27.054 134.012,27.448 128.596,30.972M124.22,66.908C122.991,63.791 121.762,60.674 120.533,57.557C119.904,57.78 119.276,58.003 118.647,58.226C118.971,59.93 119.385,61.622 119.599,63.338C120.023,66.745 116.377,69.667 113.422,68.283C111.226,67.255 109.167,65.919 106.935,64.989C105.738,64.49 104.305,64.558 102.979,64.369C102.891,65.571 102.306,67.05 102.797,67.929C105.924,73.524 109.289,78.986 112.575,84.493C113.308,84.47 114.041,84.446 114.774,84.423C117.993,78.83 121.212,73.236 124.22,66.908M73.733,53.937C78.355,51.506 82.921,48.863 88.508,50.243C88.666,50.283 88.949,49.821 89.18,49.601C85.03,42.938 78.22,41.068 70.985,39.104C70.393,41.344 69.915,43.155 69.46,44.88C59.514,45.132 59.514,45.132 58.611,52.126C60.328,52.409 62.948,53.558 63.653,52.836C67.368,49.03 70.012,52.231 73.733,53.937M121.108,101.664C122.898,98.4 124.689,95.135 126.479,91.871C120.312,91.675 120.527,100.213 114.142,98.381C110.394,106.802 106.655,115.203 102.915,123.604C103.363,123.918 103.811,124.231 104.259,124.545C106.852,121.917 109.825,119.561 111.948,116.597C115.199,112.059 117.864,107.1 121.108,101.664M154.194,67.744C146.538,69.528 137.463,79.338 136.573,87.32C138.485,86.184 140.123,84.361 141.695,84.416C151.083,84.745 154.221,77.416 158.127,71.258C160.124,68.109 158.56,66.574 154.194,67.744M78.84,81.64C83.274,85.589 87.992,88.576 94.492,86.708C90.609,77.066 79.217,70.217 68.209,71.878C72.114,75.473 75.202,78.316 78.84,81.64M180.703,74.818C180.016,73.878 179.506,72.383 178.61,72.097C175.247,71.023 171.758,70.344 168.809,69.635C166.275,74.298 163.786,78.878 161.286,83.479C167.68,85.833 172.108,84.651 176.127,79.744C177.386,78.206 178.793,76.787 180.703,74.818M171.554,50.376C175.048,52.702 177.553,50.722 180.133,48.693C176.611,42.513 164.187,43.702 160.102,50.337C161.078,51.215 162.054,52.092 162.106,52.139C165.536,51.345 168.182,50.732 171.554,50.376M68.91,80.509C68.181,80.408 67.096,80.579 66.778,80.164C63.569,75.969 59.393,75.191 53.846,76.481C57.046,79.48 59.546,82.838 62.888,84.578C64.911,85.632 68.239,84.18 70.98,83.853C70.485,82.608 69.991,81.363 68.91,80.509M125.019,117.733C124.592,120.201 124.165,122.668 123.658,125.594C129.585,122.553 132.465,112.343 129.38,107.397C128.005,110.603 126.641,113.782 125.019,117.733M141.363,67.894C142.262,66.583 143.162,65.272 144.149,63.834C141.491,62.357 139.08,61.018 136.731,59.714C133.096,64.826 133.152,66.311 136.806,71.105C138.166,70.228 139.526,69.351 141.363,67.894M92.123,76.352C93.403,77.232 94.682,78.111 96.144,79.117C95.604,67.539 94.185,65.824 86.394,67.565C88.251,70.359 90.029,73.034 92.123,76.352M142.359,120.991C140.833,119.864 139.307,118.738 137.781,117.611C137.324,117.716 136.867,117.822 136.41,117.928C136.734,120.399 136.207,124.183 137.563,125.064C140.211,126.783 143.913,126.879 147.178,127.646C147.434,127.082 147.69,126.517 147.945,125.953C146.267,124.459 144.589,122.965 142.359,120.991M185.689,86.294C188.721,83.277 191.753,80.26 195.181,76.849C190.634,74.958 188.77,77.007 186.868,79.48C185.175,81.681 183.139,83.617 180.141,86.884C182.613,86.884 183.943,86.884 185.689,86.294M98.401,43.992C96.79,44.313 95.179,44.634 93.048,45.059C97.485,49.065 98.204,49.1 105.383,45.699C102.795,44.98 101.015,44.487 98.401,43.992M86.658,29.19C89.197,32.246 91.897,33.086 95.002,28.409C92.336,28.409 89.671,28.409 86.658,29.19M76.587,140.518C76.587,140.518 76.476,140.584 76.587,140.518z"/><path fill="#f1f2f2" d="M69.006,132.392C71.093,131.365 73.17,130.666 75.634,130.309C76.482,131.39 76.942,132.13 77.403,132.87C77.946,132.39 78.49,131.91 79.033,131.431C84.346,129.814 89.658,128.197 95.27,126.489C93.751,132.65 87.743,136.848 80.304,138.053C77.062,138.577 73.973,140.049 70.769,141.635C70.723,142.178 70.588,142.155 70.851,141.659C68.921,139.611 66.715,138.003 65.94,142.396C63.681,141.294 63.399,140.574 64.881,139.306C65.703,138.602 66.746,138.157 68.18,137.287C70.037,136.359 71.403,135.74 74.099,134.518C71.449,134.265 70.237,134.149 69.026,134.033C69.016,133.596 69.007,133.158 69.006,132.392z"/><path fill="#1c1c1d" d="M186.607,143.835C180.54,143.836 174.474,143.837 168.57,143.442C169.591,142.992 170.449,142.938 171.897,142.846C170.267,141.609 169.151,140.762 168.035,139.915C167.011,138.482 165.988,137.049 165.307,136.095C171.98,138.033 178.981,140.067 186.416,142.386C186.769,143.059 186.688,143.447 186.607,143.835z"/><path fill="#181717" d="M115.062,143.184C120.684,138.948 125.913,142.204 131.53,144.245C131.842,144.46 131.746,144.893 131.746,144.893C124.037,145.085 116.327,145.278 109.161,145.098C111.49,144.212 113.276,143.698 115.062,143.184z"/><path fill="#f1f1f1" d="M150.087,143.536C151.604,142.696 153.217,142.222 154.904,141.378C157.858,141.008 160.739,141.008 164.57,141.008C164.342,141.618 164.087,143.597 163.479,143.713C159.937,144.385 156.317,144.701 152.711,144.941C151.895,144.995 151.027,144.269 150.087,143.536z"/><path fill="#efefef" d="M132.197,144.954C131.746,144.893 131.842,144.46 131.913,144.25C134.015,142.548 136.046,141.056 138.44,139.299C139.054,141.296 139.465,142.633 140.087,144.656C137.414,144.785 135.031,144.9 132.197,144.954z"/><path fill="#0e0f0f" d="M92.396,142.915C92.267,142.042 92.541,141.247 93.287,140.173C94.187,139.713 94.616,139.53 95.045,139.347C96.749,139.504 98.452,139.662 100.558,140.207C100.644,141.073 100.326,141.55 100.009,142.028C97.606,142.349 95.203,142.671 92.396,142.915z"/><path fill="#dedede" d="M68.809,134.285C70.237,134.149 71.449,134.265 74.099,134.518C71.403,135.74 70.037,136.359 68.345,136.977C67.011,136.61 66.004,136.244 64.223,135.596C66.135,135.133 67.364,134.835 68.809,134.285z"/><path fill="#efefef" d="M114.847,142.888C113.276,143.698 111.49,144.212 109.347,144.808C109.086,143.795 109.181,142.7 109.316,141.156C111.321,141.697 112.977,142.144 114.847,142.888z"/><path fill="#eeeeee" d="M192.962,139.18C193.755,138.565 194.559,138.309 195.692,138.163C195.493,139.381 194.965,140.487 194.437,141.593C193.949,140.908 193.461,140.223 192.962,139.18z"/><path fill="#efefef" d="M95.054,139.092C94.616,139.53 94.187,139.713 93.406,139.877C91.265,137.813 92.325,136.975 94.745,136.694C95.054,137.48 95.058,138.159 95.054,139.092z"/><path fill="#0e0f0f" d="M66.392,142.302C66.715,138.003 68.921,139.611 70.819,141.616C69.298,142.115 68.071,142.161 66.392,142.302z"/><path fill="#efefef" d="M100.163,142.27C100.326,141.55 100.644,141.073 100.981,140.297C101.49,140.699 101.979,141.399 102.468,142.098C101.751,142.236 101.034,142.374 100.163,142.27z"/><path fill="#f1f1f1" d="M168.023,140.319C169.151,140.762 170.267,141.609 171.897,142.846C170.449,142.938 169.591,142.992 168.396,143.096C168.044,142.338 168.027,141.53 168.023,140.319z"/><path fill="#f1f1f1" d="M147.961,137.344C147.509,136.5 147,135.299 146.803,134.169C147.378,135.156 147.642,136.072 147.961,137.344z"/><path fill="#eeeeee" d="M186.957,143.874C186.688,143.447 186.769,143.059 186.834,142.374C187.64,142.304 188.464,142.531 189.287,142.758C188.627,143.143 187.967,143.528 186.957,143.874z"/><path fill="#f1f1f1" d="M153.85,140.541C153.681,140.67 153.371,140.621 152.974,140.309C153.201,140.049 153.476,140.156 153.85,140.541z"/><path fill="#f2f2f2" d="M128.979,30.951C134.012,27.448 137.948,27.054 142.741,31.613C144.71,33.485 149.518,32.373 153.452,32.647C154.128,34.838 154.951,37.506 155.44,39.092C150.864,40.744 146.705,42.245 142.546,43.746C140.633,38.928 140.385,38.882 131.898,42.476C132.037,40.711 132.162,39.124 132.346,36.78C128.506,37.345 124.458,37.941 119.485,38.673C122.919,35.771 125.758,33.371 128.979,30.951z"/><path fill="#f2f3f3" d="M124.326,67.275C121.212,73.236 117.993,78.83 114.774,84.423C114.041,84.446 113.308,84.47 112.575,84.493C109.289,78.986 105.924,73.524 102.797,67.929C102.306,67.05 102.891,65.571 102.979,64.369C104.305,64.558 105.738,64.49 106.935,64.989C109.167,65.919 111.226,67.255 113.422,68.283C116.377,69.667 120.023,66.745 119.599,63.338C119.385,61.622 118.971,59.93 118.647,58.226C119.276,58.003 119.904,57.78 120.533,57.557C121.762,60.674 122.991,63.791 124.326,67.275z"/><path fill="#f2f3f3" d="M73.353,53.82C70.012,52.231 67.368,49.03 63.653,52.836C62.948,53.558 60.328,52.409 58.611,52.126C59.514,45.132 59.514,45.132 69.46,44.88C69.915,43.155 70.393,41.344 70.985,39.104C78.22,41.068 85.03,42.938 89.176,49.597C88.949,49.821 88.666,50.283 88.508,50.243C82.921,48.863 78.355,51.506 73.353,53.82z"/><path fill="#efeff0" d="M120.943,101.992C117.864,107.1 115.199,112.059 111.948,116.597C109.825,119.561 106.852,121.917 104.259,124.545C103.811,124.231 103.363,123.918 102.915,123.604C106.655,115.203 110.394,106.802 114.142,98.381C120.527,100.213 120.312,91.675 126.479,91.871C124.689,95.135 122.898,98.4 120.943,101.992z"/><path fill="#f5f6f6" d="M154.557,67.605C158.56,66.574 160.124,68.109 158.127,71.258C154.221,77.416 151.083,84.745 141.695,84.416C140.123,84.361 138.485,86.184 136.573,87.32C137.463,79.338 146.538,69.528 154.557,67.605z"/><path fill="#f2f2f2" d="M78.566,81.399C75.202,78.316 72.114,75.473 68.209,71.878C79.217,70.217 90.609,77.066 94.492,86.708C87.992,88.576 83.274,85.589 78.566,81.399z"/><path fill="#f2f3f3" d="M180.417,75.066C178.793,76.787 177.386,78.206 176.127,79.744C172.108,84.651 167.68,85.833 161.286,83.479C163.786,78.878 166.275,74.298 168.809,69.635C171.758,70.344 175.247,71.023 178.61,72.097C179.506,72.383 180.016,73.878 180.417,75.066z"/><path fill="#eff0f0" d="M171.192,50.248C168.182,50.732 165.536,51.345 162.106,52.139C162.054,52.092 161.078,51.215 160.097,50.341C164.187,43.702 176.611,42.513 180.133,48.693C177.553,50.722 175.048,52.702 171.192,50.248z"/><path fill="#ededed" d="M69.203,80.314C69.991,81.363 70.485,82.608 70.98,83.853C68.239,84.18 64.911,85.632 62.888,84.578C59.546,82.838 57.046,79.48 53.846,76.481C59.393,75.191 63.569,75.969 66.778,80.164C67.096,80.579 68.181,80.408 69.203,80.314z"/><path fill="#e7e7e7" d="M125.148,117.347C126.641,113.782 128.005,110.603 129.38,107.397C132.465,112.343 129.585,122.553 123.658,125.594C124.165,122.668 124.592,120.201 125.148,117.347z"/><path fill="#f3f4f4" d="M141.124,68.184C139.526,69.351 138.166,70.228 136.805,71.103C133.152,66.311 133.096,64.826 136.731,59.714C139.08,61.018 141.491,62.357 144.149,63.834C143.162,65.272 142.262,66.583 141.124,68.184z"/><path fill="#eeefef" d="M91.965,76.03C90.029,73.034 88.251,70.359 86.394,67.565C94.185,65.824 95.604,67.539 96.144,79.117C94.682,78.111 93.403,77.232 91.965,76.03z"/><path fill="#ebeceb" d="M142.634,121.231C144.589,122.965 146.267,124.459 147.945,125.953C147.69,126.517 147.434,127.082 147.178,127.646C143.913,126.879 140.211,126.783 137.563,125.064C136.207,124.183 136.734,120.399 136.41,117.928C136.867,117.822 137.324,117.716 137.781,117.611C139.307,118.738 140.833,119.864 142.634,121.231z"/><path fill="#e9e8e8" d="M185.48,86.589C183.943,86.884 182.613,86.884 180.141,86.884C183.139,83.617 185.175,81.681 186.868,79.48C188.77,77.007 190.634,74.958 195.181,76.849C191.753,80.26 188.721,83.277 185.48,86.589z"/><path fill="#edeeee" d="M98.818,43.992C101.015,44.487 102.795,44.98 105.383,45.699C98.204,49.1 97.485,49.065 93.048,45.059C95.179,44.634 96.79,44.313 98.818,43.992z"/><path fill="#e2e3e3" d="M86.832,28.799C89.671,28.409 92.336,28.409 95.002,28.409C91.897,33.086 89.197,32.246 86.832,28.799z"/><path fill="#dedede" d="M78.709,131.248C78.49,131.91 77.946,132.39 77.403,132.87C76.942,132.13 76.482,131.39 76.015,130.296C76.8,130.316 77.592,130.69 78.709,131.248z"/><path fill="#0e0f0f" d="M76.532,140.551C76.476,140.584 76.587,140.518 76.532,140.551z"/></svg>