<svg xmlns="http://www.w3.org/2000/svg" viewBox="0 0 248 182" xml:space="preserve"><path fill="#0e0e0e" d="M17.44,157.52C15.857,156.139 14.273,154.758 12.192,152.943C13.849,152.446 14.857,152.144 16.225,151.734C12.218,141.783 11.118,131.695 14.837,121.34C15.526,119.42 14.693,117 15.09,114.911C15.358,113.497 16.272,111.736 17.425,111.125C18.201,110.714 20.169,111.751 21.121,112.65C22.755,114.194 24.012,116.137 26.273,117.643C25.896,115.68 25.486,113.724 25.151,111.754C24.55,108.228 24.263,104.891 27.603,102.212C28.642,101.378 29.242,99.44 29.265,97.995C29.363,91.838 29.296,85.671 29.04,79.518C28.859,75.17 31.568,73.945 34.974,73.852C38.558,73.754 41.654,74.822 41.633,79.387C41.607,85.179 41.627,90.971 41.627,97.23C44.13,96.856 46.336,96.526 48.71,96.171C49.108,91.891 47.734,86.697 54.223,86.185C58.594,85.839 61.843,87.119 61.76,92.52C64.399,91.716 66.408,91.103 68.771,90.383C67.956,85.509 71.04,83.756 75.071,83.729C77.383,83.714 79.705,84.999 82.022,85.698C81.924,86.142 81.827,86.585 81.729,87.029C84.389,86.213 87.049,85.396 90.073,84.469C90.073,78.438 90.308,72.279 89.993,66.149C89.766,61.733 92.407,60.459 95.751,60.337C99.201,60.212 101.806,61.505 101.553,65.935C101.259,71.056 101.484,76.206 101.484,81.801C104.067,81.115 106.057,80.586 108.296,79.991C108.149,75.666 108.408,71.686 114.272,71.872C119.153,72.026 119.556,72.586 120.519,82.98C124.99,84.404 129.541,85.854 134.84,87.542C134.84,83.268 134.982,79.535 134.802,75.817C134.597,71.584 137.241,70.726 140.529,70.745C143.828,70.763 146.308,71.712 146.22,75.898C146.05,84.028 146.17,92.165 146.17,101.304C149.425,101.304 152.253,101.398 155.073,101.285C161.914,101.011 168.545,97.93 175.682,100.519C177.661,101.237 180.602,99.306 183.145,98.577C183.145,94.929 183.145,91.318 183.145,87.696C174.537,83.42 166.671,88.196 157.939,90.121C165.452,75.122 164.163,60.826 159.699,46.538C159.097,44.613 157.017,43.163 155.673,41.453C154.915,40.489 154.262,39.441 153.561,38.431C154.81,37.927 156.169,36.82 157.29,37.023C162.515,37.967 167.647,39.429 172.873,40.363C174.579,40.667 176.471,39.933 178.684,39.958C179.067,40.81 179.045,41.378 178.888,42.261C178.645,43.552 178.537,44.529 178.429,45.506C178.822,45.508 179.215,45.511 179.608,45.513C179.74,44.443 179.872,43.372 180.336,42.267C181.734,42.379 182.802,42.525 183.76,42.971C182.94,44.626 182.23,45.981 181.201,47.651C174.851,47.274 168.668,47.201 163.151,43.415C162.709,43.599 162.454,44.022 162.258,44.833C167.243,58.28 168.078,71.507 163.731,84.99C163.854,85.204 164.174,85.364 164.848,85.379C174.958,81.155 184.449,83.949 194.031,86.67C193.305,83.608 192.656,80.865 192.006,78.123C192.421,77.974 192.836,77.825 193.251,77.677C196.279,81.945 194.809,91.286 204.15,88.49C206.818,90.78 209.521,93.101 213.065,96.144C211.472,89.792 210.235,84.904 209.022,80.01C208.051,76.096 207.109,72.174 206.596,68.186C207.337,68.08 207.634,68.045 208.195,68.203C209.565,64.178 210.672,59.962 211.971,55.012C208.183,55.343 204.662,55.651 200.866,55.969C200.407,55.985 200.223,55.99 199.831,55.697C197.69,50.185 192.971,52.191 190.072,51.136C188.912,53.471 188.005,55.297 187.297,56.723C185.198,53.281 183.425,50.375 182.034,47.347C183.591,46.832 184.766,46.437 185.966,46.021C185.992,46 186.035,45.949 186.314,45.69C185.705,43.31 190.411,39.034 184.038,38.612C183.647,36.836 183.332,35.446 183.009,33.685C182.979,32.82 182.957,32.326 182.934,31.832C183.34,25.814 183.679,19.79 184.197,13.781C184.324,12.301 185.029,10.871 185.468,9.419C186.604,10.449 187.74,11.479 189.602,13.167C193.113,12.558 197.579,12.222 201.153,16.43C201.953,17.371 204.53,16.874 206.291,16.91C208.225,16.949 210.161,16.838 212.38,17.178C212.114,17.99 211.564,18.415 211.014,18.841C209.835,19.54 208.657,20.238 207.733,21.385C207.99,22.16 207.993,22.489 207.997,22.818C204.3,25.012 200.86,25.064 196.797,23.031C194.531,21.898 191.233,22.828 188.154,22.828C189.242,27.065 190.152,30.614 190.566,34.59C190.045,38.15 189.552,41.403 190.316,44.328C190.512,45.08 194.668,44.797 197.005,44.99C198.621,45.907 200.237,46.824 201.967,48.413C202.263,49.876 202.445,50.667 202.627,51.458C202.899,51.366 203.171,51.274 203.443,51.182C203.011,50.221 202.578,49.26 202.146,48.298C204.091,48.7 206.036,49.101 207.994,50.239C207.904,51.464 207.801,51.951 207.699,52.438C207.977,52.448 208.256,52.458 208.534,52.468C208.436,51.745 208.337,51.021 208.238,50.298C212.333,51.219 216.458,52.03 220.493,53.161C221.229,53.367 222.172,55.022 221.989,55.749C221.77,56.62 220.504,57.699 219.585,57.811C218.201,57.979 216.725,57.386 214.786,57.022C212.592,63.884 210.63,70.568 213.291,77.715C213.461,78.17 213.226,78.777 212.8,79.734C212.498,80.801 212.575,81.448 212.635,82.347C212.698,82.748 212.778,82.896 212.804,83.39C213.116,84.816 213.482,85.897 213.848,86.977C214.421,89.188 214.995,91.399 215.519,93.42C219.746,93.888 223.748,94.33 228.091,94.811C228.091,87.243 228.064,79.606 228.101,71.97C228.123,67.595 230.221,65.59 234.489,65.889C238.699,66.184 239.998,68.531 239.673,72.645C238.994,81.241 238.689,89.866 238.181,99.284C238.331,100.923 238.532,101.757 238.772,102.757C239.956,101.922 240.758,101.357 241.56,100.791C245.479,101.64 247.811,106.61 244.871,108.93C240.927,112.042 241.351,116.465 239.726,120.237C238.555,122.955 237.599,125.766 236.423,128.86C237.459,129.397 238.808,130.098 241.14,131.309C238.234,132.746 236.074,133.813 233.914,134.88C233.965,135.212 234.017,135.543 234.068,135.874C236.927,135.434 239.787,134.995 242.646,134.555C242.79,135.175 242.935,135.795 243.079,136.416C239.657,137.295 236.235,138.175 232.422,138.635C231.783,135.476 230.652,135.669 229.08,137.329C227.644,137.848 226.208,138.367 223.987,138.947C216.887,140.031 210.572,141.054 204.258,142.077C204.317,142.537 204.377,142.998 204.437,143.459C211.101,143.934 217.541,142.038 224.032,140.696C224.668,140.798 225.305,140.9 225.946,141.003C225.946,141.401 226.022,141.868 225.936,141.9C215.856,145.651 205.891,148.733 194.771,145.456C190.09,144.076 184.662,145.226 179.474,145.672C184.049,146.593 188.625,147.515 193.2,148.436C193.197,148.962 193.194,149.489 193.191,150.015C183.788,150.015 174.386,150.015 164.461,149.709C163.217,149.077 162.496,148.751 161.775,148.425C161.641,148.806 161.507,149.187 161.373,149.568C162.28,149.73 163.188,149.892 164.095,150.054C163.716,150.717 163.284,151.978 162.964,151.951C159.682,151.665 156.418,151.17 153.137,150.355C153.416,149.676 153.707,149.376 153.999,149.076C155.315,149.142 156.63,149.209 157.946,149.276C158.043,148.887 158.14,148.498 158.237,148.11C155.704,147.185 153.172,146.261 150.321,144.831C150.004,143.931 150.006,143.539 150.007,143.146C153.45,143.94 156.893,144.735 160.336,145.529C160.446,145.175 160.557,144.821 160.667,144.467C157.26,143.048 153.853,141.629 150.446,140.211C150.455,139.723 150.465,139.235 150.474,138.747C151.895,138.022 153.315,137.298 154.563,136.661C152.092,130.89 149.632,125.143 146.964,118.912C140.673,124.355 134.617,121.605 128.683,119.041C128.683,117.756 128.683,116.523 128.683,114.924C129.835,114.924 131.759,114.924 133.952,114.924C133.952,111.216 133.952,107.66 133.952,103.682C131.433,104.298 129.221,104.989 126.956,105.362C121.569,106.248 119.569,108.798 119.813,114.694C120.027,119.873 124.342,118.449 126.495,120.739C124.194,121.847 122.044,122.882 119.177,124.044C117.063,124.804 115.666,125.437 113.82,126.274C115.641,127.002 116.804,127.467 117.967,127.932C117.967,127.932 117.678,128.146 117.233,128.281C113.544,128.857 110.299,129.297 107.058,129.466C107.05,128.832 107.038,128.47 107.246,128.038C107.466,127.968 107.928,127.965 108.174,127.973C108.545,127.877 108.792,127.707 108.779,127.682C108.639,127.434 108.457,127.209 107.913,126.882C103.683,124.468 99.971,124.485 95.989,127.642C102.654,130.671 109.011,133.559 114.944,136.254C116.401,133.686 117.478,131.789 118.554,129.891C126.24,127.683 129.254,129.837 129.191,137.518C129.125,145.632 128.977,153.747 129.007,161.861C129.014,163.662 129.614,165.461 130.064,167.935C129.666,168.243 128.654,169.028 126.956,170.026C123.834,170.523 121.397,170.806 118.96,171.089C110.572,170.171 102.168,169.136 95.375,174.602C91.214,182.829 84.346,180.24 78.155,179.265C77.359,179.14 76.873,177.041 76.092,175.57C76.834,175.049 77.918,174.288 79.813,172.96C76.67,171.058 74.09,169.497 71.509,167.935C71.552,168.434 71.595,168.934 71.638,169.433C69.295,169.968 66.968,170.587 64.606,171.015C61.891,171.506 59.146,171.828 56.485,173.343C61.719,173.031 66.954,172.72 72.189,172.408C72.27,172.879 72.351,173.35 72.432,173.821C68.744,174.379 64.893,175.907 61.398,175.318C49.952,173.39 38.612,170.79 27.295,168.176C25.71,167.811 24.48,165.92 23.08,164.742C22.325,164.107 21.648,163.272 20.777,162.9C17.589,161.54 14.334,160.336 11.104,159.073C11.183,158.661 11.263,158.248 11.342,157.836C12.849,158.06 14.356,158.284 16.467,158.723C17.658,158.896 18.244,158.853 19.509,158.76C18.434,158.116 17.937,157.818 17.44,157.52M43.72,101.664C43.72,101.664 43.795,101.664 44.202,102.314C48.563,104.529 52.923,106.743 57.428,109.643C59.622,110.351 61.816,111.059 64.819,111.897C67.787,111.852 71.342,115.743 73.876,110.163C72.021,108.852 70.185,107.555 69.359,106.971C71.237,105.277 73.116,103.583 75.618,101.945C75.942,101.703 76.266,101.462 77.33,101.185C81.672,101.231 85.594,101.931 86.305,107.415C90.59,105.996 94.514,104.703 98.413,103.341C98.47,103.321 98.224,102.434 98.034,101.529C98.034,101.529 98.033,101.098 98.828,100.999C101.945,100.999 105.061,100.999 108.178,100.999C108.236,100.462 108.294,99.925 108.353,99.388C106.925,98.382 105.496,97.377 104.98,97.013C106.716,94.544 108.356,92.212 110.853,89.859C116.17,89.378 120.352,90.563 120.678,97.199C126.373,95.524 131.6,93.987 136.827,92.45C136.787,92.028 136.747,91.606 136.707,91.184C132.987,90.64 129.266,90.095 125.518,89.547C126.032,89.128 126.484,88.76 126.797,88.505C122.4,87.268 117.976,85.773 113.437,84.833C110.378,84.2 107.157,84.35 103.406,84.122C103.611,84.619 103.817,85.115 104.58,85.959C105.04,86.636 105.5,87.313 105.488,88.086C105.488,88.086 105.018,88.185 104.293,87.904C99.729,85.758 95.169,86.893 90.406,87.917C90.406,87.917 90.005,87.92 89.417,87.812C88.457,88.032 87.497,88.252 85.905,88.924C83.261,89.319 80.616,89.713 77.952,89.337C77.759,88.317 77.566,87.297 77.325,86.024C75.233,86.72 73.613,87.259 70.639,88.248C73.842,89.881 75.921,90.94 78.481,92.544C79.667,93.082 80.853,93.621 82.039,94.16C79.895,94.789 78.194,94.006 76.47,93.952C72.784,93.836 69.069,93.913 65.4,94.266C62.635,94.532 59.924,95.349 57.068,95.158C57.063,92.588 55.694,91.445 53.377,92.368C52.843,92.581 53.087,94.746 53.09,96.679C53.425,97.378 53.759,98.076 54.732,99.107C55.088,99.428 55.444,99.749 55.8,100.07C55.055,100.314 54.296,100.802 53.568,100.76C50.705,100.593 47.852,100.26 44.296,99.969C43.589,100.315 42.881,100.661 42.128,101.597C42.624,101.612 43.119,101.628 43.72,101.664M38.114,129.707C38.934,129.583 39.753,129.46 40.573,129.337C40.051,128.88 39.529,128.424 38.292,127.381C37.759,127.549 37.225,127.717 36.691,127.885C37.028,128.309 37.365,128.732 38.114,129.707M27.2,121.863C26.888,121.725 26.576,121.587 25.625,121.034C23.163,118.791 20.701,116.548 17.643,113.762C18.503,116.506 19.132,118.512 19.769,120.545C15.321,126.006 14.759,131.948 18.368,137.989C20.274,141.18 22.834,143.982 24.606,147.236C24.403,147.747 24.199,148.257 23.368,149.04C28.517,152.985 33.152,158.726 38.954,160.384C45.114,162.144 52.382,160.031 60.108,159.551C50.948,157.48 42.975,155.678 35.015,153.388C35.015,153.388 35.029,152.901 35.863,153.005C37.468,153.277 39.065,153.603 40.678,153.811C46.077,154.505 51.476,155.217 56.888,155.802C59.876,156.125 61.216,154.721 60.578,151.582C58.123,151.582 55.674,151.627 53.227,151.575C40.931,151.314 30.307,147.301 22.061,137.805C18.763,134.005 18.409,129.816 19.854,125.246C20.593,122.907 21.791,121.357 24.957,122.866C25.467,123.086 25.976,123.306 27.064,123.99C28.832,124.806 30.599,125.623 32.367,126.44C32.608,125.933 32.85,125.425 33.091,124.918C31.203,123.988 29.315,123.058 27.2,121.863M113.733,102.916C116.399,100.646 114.793,99.481 112.137,98.552C112.422,100.033 112.708,101.513 112.315,103.132C110.187,104.692 110.271,105.999 112.991,107.807C112.321,111.409 111.458,114.994 111.111,118.628C111.019,119.596 112.509,120.716 113.273,121.766C114.226,120.722 115.971,119.694 115.991,118.633C116.064,114.787 115.641,110.919 115.175,107.088C115.112,106.574 113.731,106.22 113.022,105.097C113.017,104.401 113.013,103.704 113.733,102.916M234.253,123.306C234.201,122.877 234.148,122.447 233.736,121.503C230.947,122.347 228.159,123.191 224.821,124.045C224.536,123.39 224.251,122.736 223.991,121.299C223.86,120 223.73,118.701 223.599,117.402C223.001,117.447 222.402,117.493 221.804,117.538C221.888,119.065 221.972,120.592 221.982,122.895C222.105,126.205 225.88,129.397 221.748,133.176C222.86,134.107 223.972,135.038 225.809,135.964C226.235,135.14 227.105,134.261 227.01,133.503C226.613,130.355 225.926,127.243 225.932,124.636C228.714,127.167 231.715,126.556 234.253,123.306M50.248,148.745C50.5,149.1 50.753,149.456 51.859,150.006C55.147,149.647 58.434,149.289 62.54,148.841C58.672,146.188 58.672,146.188 50.248,148.745M222.02,113.284C221.386,110.214 220.751,107.144 220.904,104.005C222.466,103.625 224.124,103.452 225.558,102.793C226.544,102.34 227.785,101.258 227.858,100.37C227.919,99.63 226.566,98.28 225.63,98.047C223.115,97.423 220.488,97.253 217.905,96.903C217.859,97.214 217.813,97.526 217.766,97.837C218.574,98.548 219.382,99.259 220.064,100.485C220.057,100.662 220.049,100.838 219.44,101.16C218.96,101.441 218.48,101.721 217.229,101.992C214.956,102.139 212.683,102.286 210.271,102.442C210.95,96.73 209.451,96.245 201.536,99.235C206.166,104.172 212.098,105.034 218.462,106.55C218.99,108.997 219.519,111.444 220.075,114.549C220.816,114.944 221.558,115.34 222.3,115.735C222.299,115.197 222.298,114.66 222.02,113.284M45.374,138.799C44.48,139.503 43.689,140.528 42.675,140.848C39.761,141.768 36.757,142.403 32.658,143.434C36.72,145.638 47.543,143.045 50.04,140.59C48.971,139.754 47.869,138.891 46.915,137.099C46.915,132.438 46.915,127.778 46.915,123.117C46.476,123.135 46.036,123.153 45.597,123.171C45.597,128.127 45.597,133.083 45.374,138.799M153.748,107.311C150.461,105.669 147.174,104.027 143.887,102.385C143.67,102.819 143.454,103.254 143.238,103.688C146.714,107.201 149.701,111.575 155.678,111.162C157.381,112.429 158.902,114.241 160.815,114.878C175.466,119.757 190.258,123.914 206.749,120.862C209.844,119.806 212.939,118.751 216.035,117.695C215.742,116.917 215.449,116.139 215.156,115.361C211.779,116.66 208.402,117.96 204.2,119.034C203.073,118.376 201.878,117.052 200.83,117.159C187.073,118.567 174.134,115.179 161.988,109.637C166.162,109.972 170.336,110.307 174.549,110.645C174.715,109.535 174.892,108.348 174.977,107.781C172.738,106.818 170.717,105.948 169.584,105.013C172.409,104.668 175.234,104.323 178.059,103.979C178.04,103.637 178.021,103.296 178.003,102.954C174.339,102.954 170.676,102.954 166.16,102.773C162.803,103.195 159.446,103.616 155.143,104.228C154.946,105.387 154.75,106.546 153.748,107.311M139.137,101.754C138.251,107.084 135.467,112.333 138.346,118.02C144.229,116.649 142.39,112.736 141.734,109.06C141.264,106.43 141.283,103.713 141.843,100.734C142.324,93.291 142.805,85.848 143.265,78.718C141.066,77.949 139.717,77.477 137.93,76.852C137.93,79.005 137.82,80.811 137.95,82.599C138.395,88.727 138.925,94.849 139.137,101.754M123.328,135.583C124.22,134.996 125.112,134.409 126.004,133.822C125.936,133.481 125.868,133.141 125.801,132.8C123.894,132.8 121.987,132.8 119.081,132.8C120.654,134.479 121.395,135.27 121.336,136.271C120.629,137.524 119.846,138.743 119.238,140.043C118.703,141.186 118.363,142.421 117.548,142.955C113.649,138.556 108.668,137.63 103.138,138.47C104.076,137.783 105.013,137.096 106.286,136.164C104.44,135.21 103.174,134.074 101.811,133.943C97.752,133.554 94.893,131.057 91.656,129.085C90.663,128.48 88.831,129.254 87.122,129.123C87.122,129.123 86.864,128.846 86.918,128.108C83.867,121.585 78.294,128.008 74.027,125.611C75.438,124.661 76.641,123.85 77.844,123.04C77.814,122.614 77.785,122.189 77.755,121.763C73.718,120.96 69.681,120.157 65.688,119.363C65.888,119.189 66.439,118.709 68.043,117.31C60.612,115.078 54.071,113.005 47.448,111.241C46.451,110.976 44.938,111.969 43.888,112.702C40.338,115.179 37.473,118.935 32.41,118.448C31.952,118.404 31.428,119.04 30.214,119.827C34.702,122.202 38.579,124.254 42.736,126.454C42.736,123.954 42.521,122.259 42.797,120.648C43.067,119.071 43.679,116.369 44.418,116.272C46.897,115.946 49.813,115.954 51.941,117.045C53.247,117.714 54.566,121.319 53.908,122.363C50.442,127.856 55.206,131.016 57.248,134.531C59.076,137.678 62.855,137.406 66.194,135.938C66.58,135.769 67.201,136.136 67.979,136.316C66.573,137.526 65.526,138.427 63.673,140.021C66.881,141.062 69.246,141.829 71.612,142.597C71.353,142.911 71.094,143.226 70.835,143.541C73.259,145.218 75.684,146.896 78.666,148.959C78.853,147.169 78.946,146.52 78.986,145.867C79.284,140.996 81.475,138.902 86.099,139.179C90.462,139.44 92.924,141.246 92.123,146.159C91.756,148.412 92.061,150.775 92.061,153.451C93.48,153.662 94.735,153.847 95.88,154.785C94.687,156.698 93.494,158.611 92.301,160.523C92.682,160.827 93.064,161.132 93.445,161.436C95.135,160.911 96.824,160.38 98.516,159.862C101.768,158.865 104.971,157.316 108.286,157.014C113.14,156.574 118.092,151.941 117.752,146.467C117.179,146.031 116.607,145.594 116.608,144.853C117.045,144.423 117.482,143.993 118.67,142.755C121.461,144.774 121.961,152.036 119.536,155.336C116.062,160.065 117.672,166.924 122.924,167.707C123.284,160.646 123.834,153.636 123.919,146.621C123.962,143.08 123.165,139.53 123.328,135.583M32.245,81.469C32.245,90.13 32.245,98.79 32.245,108.248C34.592,106.53 36.91,105.642 36.942,104.679C37.181,97.559 37.09,90.418 36.72,83.304C36.677,82.489 34.271,81.796 32.245,81.469M213.343,125.88C213.547,124.752 213.752,123.624 213.81,123.302C201.923,124.581 190.476,125.812 179.03,127.043C190.324,129.89 201.509,129.957 213.343,125.88M231.001,82.551C231.001,90.029 231.001,97.507 231.001,105.996C236.075,98.586 236.045,75.075 230.997,71.917C230.997,75.402 230.997,78.488 231.001,82.551M81.744,170.463C81.723,171.126 81.515,171.855 81.721,172.437C82.162,173.685 82.818,174.857 83.386,176.06C84.336,175.139 85.25,174.178 86.241,173.304C90.719,169.358 85.87,165.01 86.647,160.797C86.925,159.293 84.519,157.293 83.338,155.519C82.889,155.836 82.44,156.153 81.991,156.47C83.038,158.681 84.085,160.893 85.132,163.104C84.807,163.24 84.483,163.376 84.158,163.512C83.479,163.084 82.8,162.656 81.753,161.995C81.753,164.905 81.753,167.222 81.744,170.463M242.095,107.123C242.026,106.104 241.957,105.086 241.879,103.932C236.851,105.865 232.2,107.469 227.733,109.483C226.417,110.076 225.623,111.826 224.59,113.046C225.02,113.512 225.45,113.977 225.881,114.442C231.141,112.226 236.401,110.01 242.095,107.123M93.452,84.152C94.348,83.52 95.958,82.952 96.022,82.246C96.418,77.844 96.636,73.407 96.511,68.994C96.481,67.895 94.973,66.838 94.144,65.762C93.807,65.998 93.469,66.234 93.131,66.469C93.131,72.062 93.131,77.655 93.452,84.152M29.371,131.925C26.884,132.489 24.397,133.052 21.91,133.616C22.014,134.23 22.117,134.844 22.221,135.458C27.925,139.098 32.689,133.54 38.021,133.543C38.008,132.917 37.996,132.291 37.983,131.665C35.376,131.665 32.77,131.665 29.371,131.925M52.554,137.742C56.195,140.88 61.976,142.141 61.974,148.788C63.365,148.368 64.666,147.975 66.007,147.571C63.197,140.951 55.562,135.696 49.768,136.578C50.802,136.912 51.378,137.097 52.554,137.742M79.72,120.297C80.687,109.546 80.687,109.546 76.008,108.516C76.008,110.381 75.977,112.172 76.016,113.961C76.072,116.476 75.205,119.439 79.72,120.297M188.013,111.133C187.932,105.118 187.85,99.103 187.768,93.088C187.155,93.118 186.541,93.149 185.928,93.179C185.928,99.535 185.894,105.892 185.99,112.247C185.998,112.764 186.891,113.268 187.372,113.779C187.583,113.205 187.795,112.631 188.013,111.133M190.783,91.907C190.783,93.868 190.783,95.828 190.783,98.06C193.331,97.421 195.326,96.92 197.533,96.366C196.983,94.593 196.75,93.072 196.062,91.794C194.842,89.525 192.409,89.278 190.783,91.907M58.48,166.957C57.793,169.525 59.181,170.279 60.458,168.272C62.645,164.838 63.978,160.861 65.67,157.111C64.919,156.77 64.168,156.429 63.417,156.089C61.871,159.475 60.324,162.862 58.48,166.957M226.434,118.054C226.693,118.989 226.952,119.924 227.21,120.858C230.697,119.059 234.184,117.259 237.671,115.46C237.366,114.867 237.061,114.274 236.756,113.682C233.52,115.07 230.285,116.458 226.434,118.054M152.841,122.691C153.668,125.109 154.495,127.527 155.322,129.945C155.78,129.8 156.239,129.655 156.697,129.511C155.144,124.058 153.59,118.605 152.037,113.152C151.465,113.301 150.894,113.451 150.322,113.6C151.061,116.381 151.801,119.163 152.841,122.691M69.27,149.673C67.26,150.016 65.189,150.194 63.308,150.886C63.034,150.986 63.665,153.546 63.751,154.119C65.711,152.854 67.647,151.605 69.27,149.673M86.224,150.176C86.839,146.936 85.357,145.734 80.765,146.132C82.349,149.303 83.646,151.901 84.943,154.498C85.376,154.322 85.809,154.145 86.242,153.968C86.242,152.984 86.242,152.001 86.224,150.176M196.055,114.948C197.686,114.855 199.317,114.762 200.949,114.669C201.008,114.071 201.066,113.473 201.125,112.876C197.966,112.092 194.807,111.309 191.648,110.526C191.498,110.873 191.349,111.22 191.199,111.567C192.56,112.634 193.921,113.701 196.055,114.948M74.656,149.719C74.072,150.062 73.487,150.406 72.902,150.75C74.548,152.828 76.193,154.907 77.839,156.985C78.447,156.5 79.056,156.014 79.664,155.528C78.178,153.747 76.693,151.965 74.656,149.719M163.453,146.877C164.529,146.327 165.606,145.777 167.819,144.647C162.924,144.141 162.924,144.141 163.453,146.877M168.315,147.184C169.111,147.16 169.906,147.136 170.701,147.113C170.546,146.535 170.392,145.958 170.237,145.38C169.543,145.752 168.85,146.123 168.315,147.184M188.349,18.734C188.077,19.28 187.806,19.826 187.534,20.373C187.915,20.529 188.297,20.685 188.678,20.841C189.11,19.659 189.541,18.477 189.972,17.296C189.743,17.205 189.514,17.114 189.285,17.024C189.096,17.44 188.907,17.857 188.349,18.734M174.865,43.42C174.306,43.006 173.746,42.593 173.187,42.179C173.053,42.567 172.768,43.274 172.808,43.293C173.44,43.592 174.113,43.802 174.865,43.42M175.613,147.689C175.844,147.273 176.074,146.857 176.304,146.441C175.533,146.382 174.761,146.324 173.989,146.266C174.346,146.676 174.703,147.086 175.613,147.689M194.307,49.109C195.037,49.306 195.767,49.502 196.497,49.698C196.542,49.346 196.586,48.994 196.631,48.643C195.921,48.643 195.211,48.643 194.307,49.109M33.835,127.182C34.708,127.45 35.58,127.718 36.453,127.986C36.56,127.493 36.667,126.999 36.774,126.505C35.685,126.378 34.597,126.251 33.835,127.182M230.319,128.234C230.709,128.285 231.1,128.337 231.49,128.388C231.492,128.109 231.495,127.83 231.497,127.551C231.106,127.596 230.714,127.64 230.319,128.234M237.189,112.265C237.032,112.379 236.875,112.494 236.718,112.608C236.937,112.585 237.155,112.562 237.189,112.265M177.357,106.467C177.357,106.467 177.542,106.564 177.542,106.564C177.542,106.564 177.511,106.367 177.357,106.467z"/><path fill="#c4c4c4" d="M118.693,171.356C121.397,170.806 123.834,170.523 126.672,170.202C128.252,170.979 129.431,171.795 130.758,172.714C124.328,175.133 118.118,177.963 110.08,172.975C113.697,172.389 116.062,172.006 118.693,171.356z"/><path fill="#161616" d="M177.601,155.661C175.81,155.297 174.459,154.988 173.108,154.679C173.13,154.309 173.153,153.94 173.175,153.571C181.69,153.571 190.205,153.571 200.022,153.571C192.123,156.386 185.168,156.755 177.601,155.661z"/><path fill="#161616" d="M215.631,150.502C212.255,150.642 209.295,150.642 206.334,150.642C206.339,150.301 206.344,149.959 206.349,149.617C211.156,148.451 215.938,147.159 220.789,146.222C221.778,146.031 223.025,147.175 224.153,147.704C224.031,148.226 223.908,148.748 223.786,149.271C221.206,149.635 218.626,149.998 215.631,150.502z"/><path fill="#d3d3d4" d="M196.981,44.628C194.668,44.797 190.512,45.08 190.316,44.328C189.552,41.403 190.045,38.15 190.494,34.999C192.932,38.075 194.945,41.17 196.981,44.628z"/><path fill="#2e2f2f" d="M40.666,176.359C38.002,175.516 35.723,174.792 33.445,174.068C33.561,173.63 33.678,173.192 33.795,172.753C41.15,174.201 48.504,175.648 55.859,177.096C55.794,177.601 55.73,178.105 55.665,178.61C50.794,177.899 45.923,177.188 40.666,176.359z"/><path fill="#e5e6e6" d="M224.045,140.432C217.541,142.038 211.101,143.934 204.437,143.459C204.377,142.998 204.317,142.537 204.258,142.077C210.572,141.054 216.887,140.031 223.608,139.06C224.029,139.464 224.044,139.816 224.045,140.432z"/><path fill="#e4e5e5" d="M212.652,82.095C212.575,81.448 212.498,80.801 212.687,80.072C215.83,82.825 218.706,85.66 221.583,88.495C221.25,88.901 220.916,89.306 220.583,89.712C218.598,88.795 216.613,87.879 214.238,86.97C213.482,85.897 213.116,84.816 212.973,83.278C213.015,82.579 212.833,82.337 212.652,82.095z"/><path fill="#d8d8d8" d="M179.023,41.946C179.045,41.378 179.067,40.81 179.07,39.816C179.145,38.365 179.237,37.34 179.951,36.233C181.386,35.453 182.202,34.754 183.017,34.056C183.332,35.446 183.647,36.836 183.962,38.973C183.931,40.704 183.9,41.687 183.87,42.671C182.802,42.525 181.734,42.379 180.098,42.157C179.36,42.036 179.192,41.991 179.023,41.946z"/><path fill="#1a1a1a" d="M149.714,142.938C150.006,143.539 150.004,143.931 150.005,144.618C148.143,144.279 146.085,143.952 144.476,142.922C142.986,141.968 141.977,140.262 140.757,138.887C142.162,137.751 143.566,136.614 144.971,135.477C143.297,140.41 146.739,141.343 149.714,142.938z"/><path fill="#373737" d="M118.275,127.968C116.804,127.467 115.641,127.002 113.82,126.274C115.666,125.437 117.063,124.804 118.826,124.139C119.631,125.081 120.07,126.054 120.671,127.387C120.178,127.533 119.381,127.769 118.275,127.968z"/><path fill="#111111" d="M241.292,100.538C240.758,101.357 239.956,101.922 238.772,102.757C238.532,101.757 238.331,100.923 238.188,99.699C239.171,99.634 240.097,99.959 241.292,100.538z"/><path fill="#111111" d="M183.009,33.685C182.202,34.754 181.386,35.453 180.23,36.085C180.712,34.732 181.535,33.444 182.646,31.994C182.957,32.326 182.979,32.82 183.009,33.685z"/><path fill="#111111" d="M211.368,18.898C211.564,18.415 212.114,17.99 212.82,17.352C213.531,17.452 214.085,17.766 214.639,18.079C213.667,18.372 212.695,18.664 211.368,18.898z"/><path fill="#252525" d="M229.446,137.346C230.652,135.669 231.783,135.476 232.026,138.529C231.285,138.35 230.549,137.857 229.446,137.346z"/><path fill="#0e0e0e" d="M247.622,133.508C246.458,134.294 245.294,135.079 244.129,135.864C243.884,135.528 243.639,135.191 243.395,134.854C244.391,133.723 245.387,132.593 246.814,132.029C247.37,132.9 247.496,133.204 247.622,133.508z"/><path fill="#111111" d="M208.286,22.835C207.993,22.489 207.99,22.16 207.99,21.585C208.51,21.526 209.028,21.712 209.545,21.899C209.222,22.217 208.898,22.535 208.286,22.835z"/><path fill="#111111" d="M202.132,48.336C202.578,49.26 203.011,50.221 203.443,51.182C203.171,51.274 202.899,51.366 202.627,51.458C202.445,50.667 202.263,49.876 202.064,48.712C202.048,48.339 202.119,48.373 202.132,48.336z"/><path fill="#1a1a1a" d="M153.623,148.912C153.707,149.376 153.416,149.676 152.83,150.091C152.181,150.184 151.827,150.161 151.249,149.746C151.025,149.353 150.971,148.867 150.971,148.867C151.73,148.828 152.488,148.789 153.623,148.912z"/><path fill="#111111" d="M208.213,50.335C208.337,51.021 208.436,51.745 208.534,52.468C208.256,52.458 207.977,52.448 207.699,52.438C207.801,51.951 207.904,51.464 208.056,50.655C208.105,50.334 208.187,50.371 208.213,50.335z"/><path fill="#2e2f2f" d="M150.736,148.925C150.971,148.867 151.025,149.353 151.023,149.597C150.847,149.556 150.674,149.27 150.736,148.925z"/><path fill="#0e0e0e" d="M247.331,132.109C247.59,132.132 247.762,132.641 247.778,133.329C247.496,133.204 247.37,132.9 247.331,132.109z"/><path fill="#f6f6f6" d="M181.653,47.468C183.425,50.375 185.198,53.281 187.297,56.723C188.005,55.297 188.912,53.471 190.072,51.136C192.971,52.191 197.69,50.185 199.849,56.058C202.102,60.563 204.128,64.409 206.153,68.256C207.109,72.174 208.051,76.096 209.022,80.01C210.235,84.904 211.472,89.792 213.065,96.144C209.521,93.101 206.818,90.78 204.15,88.49C194.809,91.286 196.279,81.945 193.251,77.677C192.836,77.825 192.421,77.974 192.006,78.123C192.656,80.865 193.305,83.608 194.031,86.67C184.449,83.949 174.958,81.155 164.711,85.227C164.222,85.221 163.929,84.936 163.929,84.936C168.078,71.507 167.243,58.28 162.554,44.65C162.974,43.939 163.156,43.797 163.339,43.655C168.668,47.201 174.851,47.274 181.245,47.673C181.609,47.379 181.653,47.468 181.653,47.468z"/><path fill="#f1f2f2" d="M87.383,129.397C88.831,129.254 90.663,128.48 91.656,129.085C94.893,131.057 97.752,133.554 101.811,133.943C103.174,134.074 104.44,135.21 106.286,136.164C105.013,137.096 104.076,137.783 103.138,138.47C108.668,137.63 113.649,138.556 117.753,143.267C117.957,143.58 117.919,143.563 117.919,143.563C117.482,143.993 117.045,144.423 115.959,145.023C113.032,146.152 110.682,146.97 108.497,148.104C105.61,149.603 102.852,151.349 99.705,152.986C98.244,153.334 97.116,153.683 95.989,154.033C94.735,153.847 93.48,153.662 92.061,153.451C92.061,150.775 91.756,148.412 92.123,146.159C92.924,141.246 90.462,139.44 86.099,139.179C81.475,138.902 79.284,140.996 78.986,145.867C78.946,146.52 78.853,147.169 78.666,148.959C75.684,146.896 73.259,145.218 70.835,143.541C71.094,143.226 71.353,142.911 71.612,142.597C69.246,141.829 66.881,141.062 63.673,140.021C65.526,138.427 66.573,137.526 67.979,136.316C67.201,136.136 66.58,135.769 66.194,135.938C62.855,137.406 59.076,137.678 57.248,134.531C55.206,131.016 50.442,127.856 53.908,122.363C54.566,121.319 53.247,117.714 51.941,117.045C49.813,115.954 46.897,115.946 44.418,116.272C43.679,116.369 43.067,119.071 42.797,120.648C42.521,122.259 42.736,123.954 42.736,126.454C38.579,124.254 34.702,122.202 30.214,119.827C31.428,119.04 31.952,118.404 32.41,118.448C37.473,118.935 40.338,115.179 43.888,112.702C44.938,111.969 46.451,110.976 47.448,111.241C54.071,113.005 60.612,115.078 68.043,117.31C66.439,118.709 65.888,119.189 65.688,119.363C69.681,120.157 73.718,120.96 77.755,121.763C77.785,122.189 77.814,122.614 77.844,123.04C76.641,123.85 75.438,124.661 74.027,125.611C78.294,128.008 83.867,121.585 86.553,128.489C85.814,129.087 85.439,129.304 85.064,129.52C85.837,129.479 86.61,129.438 87.383,129.397z"/><path fill="#f4f4f4" d="M77.972,90.107C80.616,89.713 83.261,89.319 86.367,88.868C86.829,88.811 87.133,89.137 87.185,89.345C87.422,89.793 87.666,89.931 87.979,89.979C87.991,89.99 88.014,90.012 88.08,90.375C90.5,91.574 92.853,92.409 95.206,93.245C95.219,92.925 95.232,92.605 95.245,92.285C93.7,90.832 92.155,89.378 90.61,87.925C95.169,86.893 99.729,85.758 104.924,88.294C107.03,88.815 108.504,88.947 109.981,89.279C109.984,89.479 109.995,89.88 109.995,89.88C108.356,92.212 106.716,94.544 104.98,97.013C105.496,97.377 106.925,98.382 108.353,99.388C108.294,99.925 108.236,100.462 108.178,100.999C105.061,100.999 101.945,100.999 98.387,100.717C97.306,99.967 96.665,99.499 96.024,99.031C95.764,99.429 95.504,99.826 95.243,100.223C96.202,100.799 97.161,101.375 98.12,101.951C98.224,102.434 98.47,103.321 98.413,103.341C94.514,104.703 90.59,105.996 86.305,107.415C85.594,101.931 81.672,101.231 76.579,101.115C75.573,101 75.318,100.955 74.921,100.71C74.4,100.534 74.019,100.559 73.638,100.584C74.062,100.753 74.487,100.922 74.94,101.29C74.969,101.488 74.995,101.889 74.995,101.889C73.116,103.583 71.237,105.277 69.359,106.971C70.185,107.555 72.021,108.852 73.876,110.163C71.342,115.743 67.787,111.852 64.392,111.584C61.738,110.5 59.511,109.729 57.283,108.957C52.923,106.743 48.563,104.529 44.388,101.631C44.714,100.628 44.855,100.308 44.996,99.989C47.852,100.26 50.705,100.593 53.568,100.76C54.296,100.802 55.055,100.314 55.8,100.07C55.444,99.749 55.088,99.428 54.608,98.714C55.036,97.544 55.587,96.767 56.402,95.98C56.839,95.954 57.014,95.938 57.189,95.921C59.924,95.349 62.635,94.532 65.4,94.266C69.069,93.913 72.784,93.836 76.47,93.952C78.194,94.006 79.895,94.789 82.039,94.16C80.853,93.621 79.667,93.082 78.244,91.956C77.995,90.948 77.983,90.527 77.972,90.107M61.87,102.241C60.492,101.827 59.114,101.413 57.737,100.999C57.645,101.583 57.554,102.167 57.462,102.75C58.962,102.847 60.461,102.944 62.068,103.708C63.18,104.409 64.292,105.109 65.405,105.81C65.672,105.244 65.938,104.678 66.205,104.111C64.816,103.728 63.426,103.344 61.87,102.241M65.688,96.954C65.534,96.992 65.367,97.006 65.229,97.076C65.095,97.145 64.992,97.272 64.875,97.373C65.589,97.8 66.303,98.228 67.016,98.655C67.289,98.168 67.562,97.681 67.835,97.193C67.311,97.074 66.787,96.955 65.688,96.954M101.552,94.956C102.112,94.899 102.672,94.841 103.232,94.784C103.038,94.421 102.845,94.057 102.651,93.694C102.085,94.068 101.519,94.442 101.552,94.956M91.603,98.545C90.856,97.995 90.109,97.444 89.363,96.894C89.19,97.279 89.018,97.664 88.845,98.049C89.782,98.4 90.719,98.751 91.603,98.545M87.365,97.522C87.011,96.892 86.657,96.262 86.302,95.633C85.987,95.964 85.672,96.295 85.357,96.627C85.874,97.039 86.392,97.452 87.365,97.522M69.268,99.049C69.75,98.852 70.232,98.654 70.714,98.457C70.598,98.178 70.483,97.899 70.368,97.62C70.007,97.93 69.646,98.241 69.268,99.049M97.633,93.326C97.516,93.577 97.398,93.827 97.28,94.078C97.517,94.151 97.755,94.225 97.993,94.298C98.019,93.953 98.044,93.608 97.633,93.326M83.478,96.408C83.537,96.174 83.597,95.94 83.657,95.706C83.509,95.857 83.361,96.008 83.478,96.408z"/><path fill="#e5e6e6" d="M25.099,146.959C22.834,143.982 20.274,141.18 18.368,137.989C14.759,131.948 15.321,126.006 19.769,120.545C19.132,118.512 18.503,116.506 17.643,113.762C20.701,116.548 23.163,118.791 25.498,121.464C25.101,122.088 24.831,122.283 24.561,122.477C21.791,121.357 20.593,122.907 19.854,125.246C18.409,129.816 18.763,134.005 22.061,137.805C30.307,147.301 40.931,151.314 53.227,151.575C55.674,151.627 58.123,151.582 60.578,151.582C61.216,154.721 59.876,156.125 56.888,155.802C51.476,155.217 46.077,154.505 40.678,153.811C39.065,153.603 37.468,153.277 35.304,152.637C31.53,150.499 28.315,148.729 25.099,146.959z"/><path fill="#e6e6e6" d="M205.974,120.812C190.258,123.914 175.466,119.757 160.815,114.878C158.902,114.241 157.381,112.429 155.804,110.48C155.951,109.376 155.971,108.954 156.541,108.604C157.236,107.768 157.38,106.859 157.769,105.988C158.68,106.498 159.346,106.971 159.54,107.531C159.714,108.6 160.36,109.581 161.065,110.58C161.123,110.598 161.346,110.765 161.346,110.765C174.134,115.179 187.073,118.567 200.83,117.159C201.878,117.052 203.073,118.376 204.72,119.348C205.485,120.045 205.729,120.429 205.974,120.812z"/><path fill="#edeeed" d="M110.424,89.87C109.995,89.88 109.984,89.479 109.95,88.935C108.597,88.257 107.278,88.123 105.959,87.99C105.5,87.313 105.04,86.636 104.305,85.542C104.014,84.8 104.007,84.474 104.008,84.149C107.157,84.35 110.378,84.2 113.437,84.833C117.976,85.773 122.4,87.268 126.797,88.505C126.484,88.76 126.032,89.128 125.518,89.547C129.266,90.095 132.987,90.64 136.707,91.184C136.747,91.606 136.787,92.028 136.827,92.45C131.6,93.987 126.373,95.524 120.678,97.199C120.352,90.563 116.17,89.378 110.424,89.87z"/><path fill="#eaeaea" d="M95.934,154.409C97.116,153.683 98.244,153.334 100.091,153.015C102.574,153.046 104.338,153.046 104.704,153.046C109.727,150.746 113.871,148.848 118.015,146.95C118.092,151.941 113.14,156.574 108.286,157.014C104.971,157.316 101.768,158.865 98.516,159.862C96.824,160.38 95.135,160.911 93.445,161.436C93.064,161.132 92.682,160.827 92.301,160.523C93.494,158.611 94.687,156.698 95.934,154.409z"/><path fill="#dedede" d="M32.603,81.258C34.271,81.796 36.677,82.489 36.72,83.304C37.09,90.418 37.181,97.559 36.942,104.679C36.91,105.642 34.592,106.53 32.245,108.248C32.245,98.79 32.245,90.13 32.603,81.258z"/><path fill="#f0f0f0" d="M118.294,143.159C117.919,143.563 117.957,143.58 117.947,143.598C118.363,142.421 118.703,141.186 119.238,140.043C119.846,138.743 120.629,137.524 121.898,136.218C122.46,136.165 122.748,135.983 122.748,135.983C123.165,139.53 123.962,143.08 123.919,146.621C123.834,153.636 123.284,160.646 122.924,167.707C117.672,166.924 116.062,160.065 119.536,155.336C121.961,152.036 121.461,144.774 118.294,143.159z"/><path fill="#dcdddc" d="M212.967,126.021C201.509,129.957 190.324,129.89 179.03,127.043C190.476,125.812 201.923,124.581 213.81,123.302C213.752,123.624 213.547,124.752 212.967,126.021z"/><path fill="#e4e5e5" d="M230.999,82.063C230.997,78.488 230.997,75.402 230.997,71.917C236.045,75.075 236.075,98.586 231.001,105.996C231.001,97.507 231.001,90.029 230.999,82.063z"/><path fill="#eaeaea" d="M35.002,153.875C42.975,155.678 50.948,157.48 60.108,159.551C52.382,160.031 45.114,162.144 38.954,160.384C33.152,158.726 28.517,152.985 24.043,148.978C28.146,150.569 31.574,152.222 35.002,153.875z"/><path fill="#fcfcfc" d="M118.287,129.512C117.478,131.789 116.401,133.686 114.944,136.254C109.011,133.559 102.654,130.671 95.989,127.642C99.971,124.485 103.683,124.468 107.895,127.155C108.143,127.67 108.036,127.818 107.928,127.965C107.928,127.965 107.466,127.968 106.957,127.985C106.166,128.403 105.884,128.804 105.602,129.205C106.086,129.382 106.57,129.56 107.054,129.738C110.299,129.297 113.544,128.857 117.112,128.414C117.63,128.652 117.825,128.893 118.287,129.512z"/><path fill="#e8e9e8" d="M139.422,100.973C138.925,94.849 138.395,88.727 137.95,82.599C137.82,80.811 137.93,79.005 137.93,76.852C139.717,77.477 141.066,77.949 143.265,78.718C142.805,85.848 142.324,93.291 141.187,100.87C140.161,100.995 139.792,100.984 139.422,100.973z"/><path fill="#eaeaea" d="M160.012,107.444C159.346,106.971 158.68,106.498 157.416,105.982C156.47,105.643 156.123,105.348 155.812,104.785C155.927,104.358 156.008,104.197 156.088,104.037C159.446,103.616 162.803,103.195 166.629,103.144C167.631,104.035 168.163,104.556 168.696,105.078C170.717,105.948 172.738,106.818 174.977,107.781C174.892,108.348 174.715,109.535 174.549,110.645C170.336,110.307 166.162,109.972 161.667,110.201C161.346,110.765 161.123,110.598 161.129,110.549C161.136,110.5 161.13,110.357 161.567,110.586C162.44,110.192 162.876,109.569 163.033,108.707C161.841,108.126 160.926,107.785 160.012,107.444z"/><path fill="#ececec" d="M81.748,170.001C81.753,167.222 81.753,164.905 81.753,161.995C82.8,162.656 83.479,163.084 84.158,163.512C84.483,163.376 84.807,163.24 85.132,163.104C84.085,160.893 83.038,158.681 81.991,156.47C82.44,156.153 82.889,155.836 83.338,155.519C84.519,157.293 86.925,159.293 86.647,160.797C85.87,165.01 90.719,169.358 86.241,173.304C85.25,174.178 84.336,175.139 83.386,176.06C82.818,174.857 82.162,173.685 81.721,172.437C81.515,171.855 81.723,171.126 81.748,170.001z"/><path fill="#e8e9e8" d="M241.878,107.458C236.401,110.01 231.141,112.226 225.881,114.442C225.45,113.977 225.02,113.512 224.59,113.046C225.623,111.826 226.417,110.076 227.733,109.483C232.2,107.469 236.851,105.865 241.879,103.932C241.957,105.086 242.026,106.104 241.878,107.458z"/><path fill="#eaeaea" d="M201.142,55.959C204.662,55.651 208.183,55.343 211.971,55.012C210.672,59.962 209.565,64.178 208.159,67.853C205.62,63.527 203.381,59.743 201.142,55.959z"/><path fill="#dcdddc" d="M218.008,105.943C212.098,105.034 206.166,104.172 201.536,99.235C209.451,96.245 210.95,96.73 210.271,102.442C212.683,102.286 214.956,102.139 217.621,102.228C218.012,102.463 217.993,102.924 217.996,103.302C218.002,104.435 218.005,105.189 218.008,105.943z"/><path fill="#dcdddc" d="M139.28,101.364C139.792,100.984 140.161,100.995 140.808,101.02C141.283,103.713 141.264,106.43 141.734,109.06C142.39,112.736 144.229,116.649 138.346,118.02C135.467,112.333 138.251,107.084 139.28,101.364z"/><path fill="#dcdddc" d="M93.291,83.7C93.131,77.655 93.131,72.062 93.131,66.469C93.469,66.234 93.807,65.998 94.144,65.762C94.973,66.838 96.481,67.895 96.511,68.994C96.636,73.407 96.418,77.844 96.022,82.246C95.958,82.952 94.348,83.52 93.291,83.7z"/><path fill="#f6f6f6" d="M112.96,105.792C113.731,106.22 115.112,106.574 115.175,107.088C115.641,110.919 116.064,114.787 115.991,118.633C115.971,119.694 114.226,120.722 113.273,121.766C112.509,120.716 111.019,119.596 111.111,118.628C111.458,114.994 112.321,111.409 112.925,107.108C112.893,106.203 112.926,105.997 112.96,105.792z"/><path fill="#e0e0e0" d="M29.767,131.795C32.77,131.665 35.376,131.665 37.983,131.665C37.996,132.291 38.008,132.917 38.021,133.543C32.689,133.54 27.925,139.098 22.221,135.458C22.117,134.844 22.014,134.23 21.91,133.616C24.397,133.052 26.884,132.489 29.767,131.795z"/><path fill="#e8e9e8" d="M217.993,102.924C217.993,102.924 218.012,102.463 218.006,102.233C218.48,101.721 218.96,101.441 220.006,101.068C220.939,100.623 221.306,100.27 221.673,99.917C221.179,99.935 220.684,99.953 220.19,99.97C219.382,99.259 218.574,98.548 217.766,97.837C217.813,97.526 217.859,97.214 217.905,96.903C220.488,97.253 223.115,97.423 225.63,98.047C226.566,98.28 227.919,99.63 227.858,100.37C227.785,101.258 226.544,102.34 225.558,102.793C224.124,103.452 222.466,103.625 220.232,103.914C219.039,103.523 218.516,103.224 217.993,102.924z"/><path fill="#dedede" d="M155.991,108.532C155.971,108.954 155.951,109.376 155.881,110.112C149.701,111.575 146.714,107.201 143.238,103.688C143.454,103.254 143.67,102.819 143.887,102.385C147.174,104.027 150.461,105.669 154.212,107.548C154.676,107.786 154.824,107.785 154.955,107.903C155.387,108.19 155.689,108.361 155.991,108.532z"/><path fill="#202021" d="M117.883,146.708C113.871,148.848 109.727,150.746 104.704,153.046C104.338,153.046 102.574,153.046 100.425,153.017C102.852,151.349 105.61,149.603 108.497,148.104C110.682,146.97 113.032,146.152 115.672,145.175C116.607,145.594 117.179,146.031 117.883,146.708z"/><path fill="#e4e5e5" d="M52.254,137.512C51.378,137.097 50.802,136.912 49.768,136.578C55.562,135.696 63.197,140.951 66.007,147.571C64.666,147.975 63.365,148.368 61.974,148.788C61.976,142.141 56.195,140.88 52.254,137.512z"/><path fill="#d3d3d4" d="M46.768,138.029C47.869,138.891 48.971,139.754 50.04,140.59C47.543,143.045 36.72,145.638 32.658,143.434C36.757,142.403 39.761,141.768 42.675,140.848C43.689,140.528 44.48,139.503 45.778,138.436C46.378,138.059 46.573,138.044 46.768,138.029z"/><path fill="#f0f0f0" d="M79.32,120.289C75.205,119.439 76.072,116.476 76.016,113.961C75.977,112.172 76.008,110.381 76.008,108.516C80.687,109.546 80.687,109.546 79.32,120.289z"/><path fill="#e4e5e5" d="M188.009,111.595C187.795,112.631 187.583,113.205 187.372,113.779C186.891,113.268 185.998,112.764 185.99,112.247C185.894,105.892 185.928,99.535 185.928,93.179C186.541,93.149 187.155,93.118 187.768,93.088C187.85,99.103 187.932,105.118 188.009,111.595z"/><path fill="#edeeed" d="M190.772,91.482C192.409,89.278 194.842,89.525 196.062,91.794C196.75,93.072 196.983,94.593 197.533,96.366C195.326,96.92 193.331,97.421 190.783,98.06C190.783,95.828 190.783,93.868 190.772,91.482z"/><path fill="#dcdddc" d="M222.305,132.828C225.88,129.397 222.105,126.205 222.335,122.449C223.114,122.029 223.54,122.056 223.966,122.082C224.251,122.736 224.536,123.39 225.115,124.068C225.409,124.091 225.345,124.117 225.345,124.117C225.926,127.243 226.613,130.355 227.01,133.503C227.105,134.261 226.235,135.14 225.379,135.58C224.069,134.406 223.187,133.617 222.305,132.828z"/><path fill="#dedede" d="M58.629,166.603C60.324,162.862 61.871,159.475 63.417,156.089C64.168,156.429 64.919,156.77 65.67,157.111C63.978,160.861 62.645,164.838 60.458,168.272C59.181,170.279 57.793,169.525 58.629,166.603z"/><path fill="#e4e5e5" d="M226.742,117.95C230.285,116.458 233.52,115.07 236.756,113.682C237.061,114.274 237.366,114.867 237.671,115.46C234.184,117.259 230.697,119.059 227.21,120.858C226.952,119.924 226.693,118.989 226.742,117.95z"/><path fill="#dedede" d="M152.691,122.318C151.801,119.163 151.061,116.381 150.322,113.6C150.894,113.451 151.465,113.301 152.037,113.152C153.59,118.605 155.144,124.058 156.697,129.511C156.239,129.655 155.78,129.8 155.322,129.945C154.495,127.527 153.668,125.109 152.691,122.318z"/><path fill="#202021" d="M200.866,55.969C203.381,59.743 205.62,63.527 207.895,67.661C207.634,68.045 207.337,68.08 206.596,68.186C204.128,64.409 202.102,60.563 200.057,56.356C200.223,55.99 200.407,55.985 200.866,55.969z"/><path fill="#bebebf" d="M46.841,137.564C46.573,138.044 46.378,138.059 45.89,138.056C45.597,133.083 45.597,128.127 45.597,123.171C46.036,123.153 46.476,123.135 46.915,123.117C46.915,127.778 46.915,132.438 46.841,137.564z"/><path fill="#dedede" d="M206.362,120.837C205.729,120.429 205.485,120.045 205.132,119.461C208.402,117.96 211.779,116.66 215.156,115.361C215.449,116.139 215.742,116.917 216.035,117.695C212.939,118.751 209.844,119.806 206.362,120.837z"/><path fill="#111111" d="M183.76,42.971C183.9,41.687 183.931,40.704 184.038,39.359C190.411,39.034 185.705,43.31 186.245,45.561C185.808,45.648 185.717,45.604 185.627,45.561C185.732,45.721 185.836,45.881 185.941,46.042C184.766,46.437 183.591,46.832 182.034,47.347C181.653,47.468 181.609,47.379 181.565,47.357C182.23,45.981 182.94,44.626 183.76,42.971z"/><path fill="#bebebf" d="M217.996,103.302C218.516,103.224 219.039,103.523 219.839,103.949C220.751,107.144 221.386,110.214 221.777,113.715C221.039,114.061 220.543,113.976 220.047,113.891C219.519,111.444 218.99,108.997 218.235,106.246C218.005,105.189 218.002,104.435 217.996,103.302z"/><path fill="#d8d8d8" d="M69.427,150.014C67.647,151.605 65.711,152.854 63.751,154.119C63.665,153.546 63.034,150.986 63.308,150.886C65.189,150.194 67.26,150.016 69.427,150.014z"/><path fill="#edeeed" d="M86.233,150.597C86.242,152.001 86.242,152.984 86.242,153.968C85.809,154.145 85.376,154.322 84.943,154.498C83.646,151.901 82.349,149.303 80.765,146.132C85.357,145.734 86.839,146.936 86.233,150.597z"/><path fill="#dedede" d="M195.668,114.858C193.921,113.701 192.56,112.634 191.199,111.567C191.349,111.22 191.498,110.873 191.648,110.526C194.807,111.309 197.966,112.092 201.125,112.876C201.066,113.473 201.008,114.071 200.949,114.669C199.317,114.762 197.686,114.855 195.668,114.858z"/><path fill="#d8d8d8" d="M74.932,149.951C76.693,151.965 78.178,153.747 79.664,155.528C79.056,156.014 78.447,156.5 77.839,156.985C76.193,154.907 74.548,152.828 72.902,150.75C73.487,150.406 74.072,150.062 74.932,149.951z"/><path fill="#111111" d="M35.008,153.632C31.574,152.222 28.146,150.569 24.357,148.842C24.199,148.257 24.403,147.747 24.853,147.098C28.315,148.729 31.53,150.499 34.887,152.585C35.029,152.901 35.015,153.388 35.008,153.632z"/><path fill="#eaeaea" d="M77.962,89.722C77.983,90.527 77.995,90.948 78.003,91.684C75.921,90.94 73.842,89.881 70.639,88.248C73.613,87.259 75.233,86.72 77.325,86.024C77.566,87.297 77.759,88.317 77.962,89.722z"/><path fill="#252525" d="M169.14,105.045C168.163,104.556 167.631,104.035 167.056,103.234C170.676,102.954 174.339,102.954 178.003,102.954C178.021,103.296 178.04,103.637 178.059,103.979C175.234,104.323 172.409,104.668 169.14,105.045z"/><path fill="#e4e5e5" d="M50.868,148.473C58.672,146.188 58.672,146.188 62.54,148.841C58.434,149.289 55.147,149.647 51.414,149.573C50.935,148.917 50.902,148.695 50.868,148.473z"/><path fill="#1d1d1e" d="M225.638,124.376C225.345,124.117 225.409,124.091 225.39,124.063C228.159,123.191 230.947,122.347 233.881,122.004C234.025,122.504 233.998,122.995 233.998,122.995C231.715,126.556 228.714,127.167 225.638,124.376z"/><path fill="#ececec" d="M57.128,95.539C57.014,95.938 56.839,95.954 56.005,95.932C54.555,95.934 53.764,95.973 52.973,96.013C53.087,94.746 52.843,92.581 53.377,92.368C55.694,91.445 57.063,92.588 57.128,95.539z"/><path fill="#bebebf" d="M123.038,135.783C122.748,135.983 122.46,136.165 122.298,136.113C121.395,135.27 120.654,134.479 119.081,132.8C121.987,132.8 123.894,132.8 125.801,132.8C125.868,133.141 125.936,133.481 126.004,133.822C125.112,134.409 124.22,134.996 123.038,135.783z"/><path fill="#eaeaea" d="M90.508,87.921C92.155,89.378 93.7,90.832 95.245,92.285C95.232,92.605 95.219,92.925 95.206,93.245C92.853,92.409 90.5,91.574 88.474,90.278C89.202,89.186 89.603,88.553 90.005,87.92C90.005,87.92 90.406,87.917 90.508,87.921z"/><path fill="#ececec" d="M57.356,109.3C59.511,109.729 61.738,110.5 63.988,111.519C61.816,111.059 59.622,110.351 57.356,109.3z"/><path fill="#1a1a1a" d="M163.105,146.764C162.924,144.141 162.924,144.141 167.819,144.647C165.606,145.777 164.529,146.327 163.105,146.764z"/><path fill="#252525" d="M112.993,102.994C112.708,101.513 112.422,100.033 112.137,98.552C114.793,99.481 116.399,100.646 113.367,102.958C113,103 112.993,102.994 112.993,102.994z"/><path fill="#1d1d1e" d="M223.978,121.691C223.54,122.056 223.114,122.029 222.372,122.061C221.972,120.592 221.888,119.065 221.804,117.538C222.402,117.493 223.001,117.447 223.599,117.402C223.73,118.701 223.86,120 223.978,121.691z"/><path fill="#111111" d="M222.027,133.002C223.187,133.617 224.069,134.406 225.017,135.583C223.972,135.038 222.86,134.107 222.027,133.002z"/><path fill="#e5e6e6" d="M27.428,122.128C29.315,123.058 31.203,123.988 33.091,124.918C32.85,125.425 32.608,125.933 32.367,126.44C30.599,125.623 28.832,124.806 27.028,123.42C27.136,122.61 27.282,122.369 27.428,122.128z"/><path fill="#1a1a1a" d="M168.236,146.839C168.85,146.123 169.543,145.752 170.237,145.38C170.392,145.958 170.546,146.535 170.701,147.113C169.906,147.136 169.111,147.16 168.236,146.839z"/><path fill="#111111" d="M188.534,18.503C188.907,17.857 189.096,17.44 189.285,17.024C189.514,17.114 189.743,17.205 189.972,17.296C189.541,18.477 189.11,19.659 188.678,20.841C188.297,20.685 187.915,20.529 187.534,20.373C187.806,19.826 188.077,19.28 188.534,18.503z"/><path fill="#e4e5e5" d="M105.724,88.038C107.278,88.123 108.597,88.257 109.947,88.735C108.504,88.947 107.03,88.815 105.287,88.434C105.018,88.185 105.488,88.086 105.724,88.038z"/><path fill="#252525" d="M112.991,105.444C112.926,105.997 112.893,106.203 112.811,106.718C110.271,105.999 110.187,104.692 112.654,103.063C112.993,102.994 113,103 113.004,103.004C113.013,103.704 113.017,104.401 112.991,105.444z"/><path fill="#111111" d="M174.821,43.726C174.113,43.802 173.44,43.592 172.808,43.293C172.768,43.274 173.053,42.567 173.187,42.179C173.746,42.593 174.306,43.006 174.821,43.726z"/><path fill="#cbcccd" d="M53.032,96.346C53.764,95.973 54.555,95.934 55.742,95.942C55.587,96.767 55.036,97.544 54.289,98.548C53.759,98.076 53.425,97.378 53.032,96.346z"/><path fill="#eaeaea" d="M98.077,101.74C97.161,101.375 96.202,100.799 95.243,100.223C95.504,99.826 95.764,99.429 96.024,99.031C96.665,99.499 97.306,99.967 97.99,100.766C98.033,101.098 98.034,101.529 98.077,101.74z"/><path fill="#111111" d="M178.888,42.261C179.192,41.991 179.36,42.036 179.767,42.191C179.872,43.372 179.74,44.443 179.608,45.513C179.215,45.511 178.822,45.508 178.429,45.506C178.537,44.529 178.645,43.552 178.888,42.261z"/><path fill="#1a1a1a" d="M175.336,147.592C174.703,147.086 174.346,146.676 173.989,146.266C174.761,146.324 175.533,146.382 176.304,146.441C176.074,146.857 175.844,147.273 175.336,147.592z"/><path fill="#1a1a1a" d="M164.055,150.035C163.188,149.892 162.28,149.73 161.373,149.568C161.507,149.187 161.641,148.806 161.775,148.425C162.496,148.751 163.217,149.077 163.997,149.749C164.055,150.095 164.014,150.015 164.055,150.035z"/><path fill="#1d1d1e" d="M220.061,114.22C220.543,113.976 221.039,114.061 221.916,114.134C222.298,114.66 222.299,115.197 222.3,115.735C221.558,115.34 220.816,114.944 220.061,114.22z"/><path fill="#d3d3d4" d="M39.007,127.967C39.529,128.424 40.051,128.88 40.573,129.337C39.753,129.46 38.934,129.583 38.182,129.298C38.503,128.582 38.755,128.274 39.007,127.967z"/><path fill="#f4f4f4" d="M89.711,87.866C89.603,88.553 89.202,89.186 88.407,89.915C88.014,90.012 87.991,89.99 87.913,89.776C87.68,89.29 87.446,89.149 87.133,89.137C87.133,89.137 86.829,88.811 86.683,88.642C87.497,88.252 88.457,88.032 89.711,87.866z"/><path fill="#111111" d="M194.404,48.876C195.211,48.643 195.921,48.643 196.631,48.643C196.586,48.994 196.542,49.346 196.497,49.698C195.767,49.502 195.037,49.306 194.404,48.876z"/><path fill="#e5e6e6" d="M33.672,126.653C34.597,126.251 35.685,126.378 36.774,126.505C36.667,126.999 36.56,127.493 36.453,127.986C35.58,127.718 34.708,127.45 33.672,126.653z"/><path fill="#373737" d="M107.058,129.466C106.57,129.56 106.086,129.382 105.602,129.205C105.884,128.804 106.166,128.403 106.737,128.055C107.038,128.47 107.05,128.832 107.058,129.466z"/><path fill="#1d1d1e" d="M230.321,127.959C230.714,127.64 231.106,127.596 231.497,127.551C231.495,127.83 231.492,128.109 231.49,128.388C231.1,128.337 230.709,128.285 230.321,127.959z"/><path fill="#dcdddc" d="M220.127,100.228C220.684,99.953 221.179,99.935 221.673,99.917C221.306,100.27 220.939,100.623 220.306,100.995C220.049,100.838 220.057,100.662 220.127,100.228z"/><path fill="#ececec" d="M44.646,99.979C44.855,100.308 44.714,100.628 44.184,101.306C43.795,101.664 43.72,101.664 43.335,101.426C42.691,101.127 42.432,101.067 42.174,101.007C42.881,100.661 43.589,100.315 44.646,99.979z"/><path fill="#1d1d1e" d="M154.824,107.785C154.824,107.785 154.676,107.786 154.615,107.745C154.75,106.546 154.946,105.387 155.616,104.132C156.008,104.197 155.927,104.358 155.502,105.177C155.047,106.486 154.936,107.135 154.824,107.785z"/><path fill="#e4e5e5" d="M103.707,84.135C104.007,84.474 104.014,84.8 104.026,85.368C103.817,85.115 103.611,84.619 103.707,84.135z"/><path fill="#e5e6e6" d="M38.65,127.674C38.755,128.274 38.503,128.582 37.976,129.022C37.365,128.732 37.028,128.309 36.691,127.885C37.225,127.717 37.759,127.549 38.65,127.674z"/><path fill="#fcfcfc" d="M17.199,157.798C17.937,157.818 18.434,158.116 19.509,158.76C18.244,158.853 17.658,158.896 16.792,158.799C16.661,158.465 16.809,158.27 17.199,157.798z"/><path fill="#111111" d="M237.281,112.402C237.155,112.562 236.937,112.585 236.718,112.608C236.875,112.494 237.032,112.379 237.281,112.402z"/><path fill="#e5e6e6" d="M26.738,123.188C25.976,123.306 25.467,123.086 24.759,122.671C24.831,122.283 25.101,122.088 25.817,121.671C26.576,121.587 26.888,121.725 27.314,121.996C27.282,122.369 27.136,122.61 26.738,123.188z"/><path fill="#111111" d="M234.125,123.15C233.998,122.995 234.025,122.504 234.06,122.261C234.148,122.447 234.201,122.877 234.125,123.15z"/><path fill="#f6f6f6" d="M162.495,44.264C162.454,44.022 162.709,43.599 163.151,43.415C163.156,43.797 162.974,43.939 162.495,44.264z"/><path fill="#fcfcfc" d="M212.635,82.347C212.833,82.337 213.015,82.579 213.027,82.932C212.778,82.896 212.698,82.748 212.635,82.347z"/><path fill="#e0e0e0" d="M50.558,148.609C50.902,148.695 50.935,148.917 50.987,149.475C50.753,149.456 50.5,149.1 50.558,148.609z"/><path fill="#f6f6f6" d="M164.359,85.372C164.174,85.364 163.854,85.204 163.731,84.99C163.929,84.936 164.222,85.221 164.359,85.372z"/><path fill="#252525" d="M177.434,106.417C177.511,106.367 177.542,106.564 177.542,106.564C177.542,106.564 177.357,106.467 177.434,106.417z"/><path fill="#ececec" d="M75.062,100.91C75.318,100.955 75.573,101 76.209,101.132C76.266,101.462 75.942,101.703 75.306,101.917C74.995,101.889 74.969,101.488 74.98,101.246C74.99,101.003 75.062,100.91 75.062,100.91z"/><path fill="#f4f4f4" d="M42.151,101.302C42.432,101.067 42.691,101.127 43.282,101.415C43.119,101.628 42.624,101.612 42.151,101.302z"/><path fill="#373737" d="M108.174,127.973C108.036,127.818 108.143,127.67 108.269,127.25C108.457,127.209 108.639,127.434 108.779,127.682C108.792,127.707 108.545,127.877 108.174,127.973z"/><path fill="#0e0e0e" d="M87.252,129.26C86.61,129.438 85.837,129.479 85.064,129.52C85.439,129.304 85.814,129.087 86.526,128.858C86.864,128.846 87.122,129.123 87.252,129.26z"/><path fill="#ececec" d="M62.037,102.96C63.426,103.344 64.816,103.728 66.205,104.111C65.938,104.678 65.672,105.244 65.405,105.81C64.292,105.109 63.18,104.409 62.033,103.355C61.999,103.001 62.037,102.96 62.037,102.96z"/><path fill="#ececec" d="M61.979,103.021C60.461,102.944 58.962,102.847 57.462,102.75C57.554,102.167 57.645,101.583 57.737,100.999C59.114,101.413 60.492,101.827 61.953,102.6C62.037,102.96 61.999,103.001 61.979,103.021z"/><path fill="#ececec" d="M65.976,96.895C66.787,96.955 67.311,97.074 67.835,97.193C67.562,97.681 67.289,98.168 67.016,98.655C66.303,98.228 65.589,97.8 64.875,97.373C64.992,97.272 65.095,97.145 65.229,97.076C65.367,97.006 65.534,96.992 65.976,96.895z"/><path fill="#eaeaea" d="M101.252,94.886C101.519,94.442 102.085,94.068 102.651,93.694C102.845,94.057 103.038,94.421 103.232,94.784C102.672,94.841 102.112,94.899 101.252,94.886z"/><path fill="#eaeaea" d="M91.629,98.824C90.719,98.751 89.782,98.4 88.845,98.049C89.018,97.664 89.19,97.279 89.363,96.894C90.109,97.444 90.856,97.995 91.629,98.824z"/><path fill="#eaeaea" d="M87.137,97.693C86.392,97.452 85.874,97.039 85.357,96.627C85.672,96.295 85.987,95.964 86.302,95.633C86.657,96.262 87.011,96.892 87.137,97.693z"/><path fill="#ececec" d="M69.276,98.8C69.646,98.241 70.007,97.93 70.368,97.62C70.483,97.899 70.598,98.178 70.714,98.457C70.232,98.654 69.75,98.852 69.276,98.8z"/><path fill="#eaeaea" d="M97.852,93.295C98.044,93.608 98.019,93.953 97.993,94.298C97.755,94.225 97.517,94.151 97.28,94.078C97.398,93.827 97.516,93.577 97.852,93.295z"/><path fill="#ececec" d="M74.951,101.047C74.487,100.922 74.062,100.753 73.638,100.584C74.019,100.559 74.4,100.534 74.921,100.71C75.062,100.91 74.99,101.003 74.951,101.047z"/><path fill="#eaeaea" d="M83.345,96.284C83.361,96.008 83.509,95.857 83.657,95.706C83.597,95.94 83.537,96.174 83.345,96.284z"/><path fill="#eaeaea" d="M87.185,89.345C87.446,89.149 87.68,89.29 87.901,89.765C87.666,89.931 87.422,89.793 87.185,89.345z"/><path fill="#0e0e0e" d="M154.955,107.903C154.936,107.135 155.047,106.486 155.467,105.444C156.123,105.348 156.47,105.643 157.17,105.945C157.38,106.859 157.236,107.768 156.541,108.604C155.689,108.361 155.387,108.19 154.955,107.903z"/><path fill="#1d1d1e" d="M159.54,107.531C160.926,107.785 161.841,108.126 162.678,108.764C162.11,109.493 161.62,109.925 161.13,110.357C161.13,110.357 161.136,110.5 161.071,110.531C160.36,109.581 159.714,108.6 159.54,107.531z"/><path fill="#0e0e0e" d="M161.567,110.586C161.62,109.925 162.11,109.493 162.956,109.004C162.876,109.569 162.44,110.192 161.567,110.586z"/><path fill="#0e0e0e" d="M185.966,46.021C185.836,45.881 185.732,45.721 185.627,45.561C185.717,45.604 185.808,45.648 185.967,45.82C186.035,45.949 185.992,46 185.966,46.021z"/></svg>