<svg xmlns="http://www.w3.org/2000/svg" viewBox="0 0 212 112" xml:space="preserve"><path fill="#090909" d="M92.076 52.92c-.838-2.388-1.98-4.665.96-6.734.612-.43.455-3.51-.303-4.067-3.684-2.7-2.282-5.763-.288-7.96 6.189-6.818 12.808-13.244 19.209-19.872.779-.807 1.654-1.866 1.781-2.895.508-4.106 2.595-6.102 6.778-6.394 4.255-.297 4.671 2.288 5.926 5.513 1.26 3.235 4.27 6.006 7.018 8.4 6.715 5.852 12.362 12.38 15.295 21.607 3.252-4.89 13.22-5.322 7.367-14.075 3.978-6.84 11.354-.08 16.854-5.401-.347 2.137-.22 3.308-.717 4.074-2.137 3.3-1.828 5.51 1.477 8.268 9.66 8.062 18.904 16.622 28.725 25.354-6.037 4.582-6.485 11.088-6.22 17.99.127 3.308.62 5.403 4.523 5.343 1.25-.02 2.514.941 3.74 2.086-11.511 3.79-23.314 4.778-36.094 4.892-2.268.308-3.686.636-5.569.973-6.127-.652-11.797-1.252-17.448-2-2.874-.38-4.1-1.967-3.949-5.1.269-5.574.076-11.17.076-15.752-4.038-1.81-7.129-3.196-10.221-4.909.003-.98.008-1.634.398-2.13 1.124.037 2.276.173 2.54-.248 2.808-4.479 5.475-9.046 8.44-13.74.047-.495-.163-.84-.568-1.452-1.4.014-2.606.295-3.84.593-.029.016-.075-.03-.48-.181-11.52-.463-22.634-.817-33.75-1.049-2.187-.046-2.966.84-.797 2.424.016-.04-.04-.104-.15.324.002 1.006.115 1.583.19 2.573-.406 5.828-1.746 6.468-8.969 4.645-.029-.021-.074-.077-.18-.418-.674-.455-1.242-.57-1.8-.645.01.04.046-.036.046-.036m54.805 5.553 2.424 2.854.856-3.799 5.262 4.703.725-4.477c1.362 1.001 2.723 2.565 4.417 3.135 4.034 1.357 5.634-1.262 6-5.28 3.948 5.399 3.948 5.399 8.13 4.747l.633-4.25c1.882 1.634 3.291 3.788 5.051 4.129 1.81.35 4.006-.965 5.928-1.796.399-.173.732-1.746.423-2.12-4.658-5.662-8.948-11.762-14.335-16.644-3.867-3.506-9.18-4.08-14.267-.84-6.94 4.42-9.61 11.234-11.247 19.638m-32.133-40.48c-6.207 3.912-10.872 9.267-15.52 16.42 2.611-.643 4.372-1.702 5.547-1.247 3.287 1.27 3.168 1.51 4.266-1.866.333-1.024.834-1.993 1.157-2.75l1.713 6.425 2.493-2.378c1.435.953 2.753 2.317 4.291 2.643.765.162 1.933-1.583 2.88-2.43 1.584 4.35 3.255 1.991 4.723-.33l3.022 3.652 1.315-.396-.39-6.46 5.768 5.866c-.71-9.47-12.6-18.64-21.265-17.149m68.087 64.019c1.841-1.197 4.916-2.103 5.281-3.649.922-3.903.625-8.095.813-12.11h-19.727l2.251 15.777c3.606 0 7.057 0 11.382-.018m-26.865-3.577c-.362-5.766.629-10.6 8.805-10.48l-1.05-1.346h-16.373c.457 4.031.695 8.167 1.514 12.184.262 1.282 1.9 2.837 3.21 3.213 1.758.505 4.224.565 3.894-3.571"/><path fill="#0c0c0d" d="M70.008 84.752c-2.38-3.635-5.93-3.748-9.846-3.78-10.103-.08-20.307.197-30.27-1.152-6.794-.92-13.251-4.337-19.897-7.797l5.998-2.313c.223-4.374.107-8.73.76-12.968.599-3.886-1.307-5.049-4.443-5.577-1.018-.172-2.044-.295-3.761-.539 13.963-9.602 22.279-24.41 35.345-31.731 1.761-2.385 2.902-5.053 3.836-4.982 2.803.212 5.713 1.142 8.212 2.48 1.636.877 2.55 3.027 3.929 4.473 6.52 6.839 13.185 13.542 19.592 20.483 2.682 2.905 2.45 6.355 1.51 10.228-.79 3.248-3.432 7.074.681 10.803-.913 4.47-.454 8.804-5.183 11.826-3.125 1.997-4.374 6.928-6.463 10.546m-9.177-40.647 4.19 4.47 1.123-.973-4.1-8.23c9.24 6.804 9.24 6.804 12.188 5.751-4.882-5.713-8.647-12.148-14.18-16.121-8.34-5.99-14.05-6.113-21.058-.126-3.774 3.224-7.213 6.881-10.512 10.602-1.56 1.76-2.436 4.128-3.735 6.42l2.953 1.915 5.045-6.704 3.259 7.14c4.028-3.404 6.567.14 9.672 1.012l.684-5.512 3.336 6.67 1.198-.27 1.57-5.462 5.732 5.2c.38-1.799.759-3.597 1.592-5.718.138-.125.275-.25 1.043-.064m-9.896 15.288c4.59 4.56 2.595 10.188 2.372 15.468 7.7 2.043 9.253.804 8.56-6.756-.136-1.487-.242-3.042-.758-4.416-1.082-2.876.673-4.135 2.74-3.613 2.046.516 3.733 2.46 5.896 4.005l.671-8.521H24.232c.346 3.152 1.274 6.355.918 9.408-.856 7.358 1.335 10.093 9.963 10.784 8.048.644 2.97-5.379 4.056-8.274.11-.293.018-.661.023-.995.102-7.42 3.688-9.868 11.743-7.09"/><path fill="#070707" d="M70.172 84.913c1.925-3.779 3.174-8.71 6.299-10.707 4.729-3.022 4.27-7.357 5.534-11.786.005-.4-.005-.42.35-.415 1.132-.623 1.91-1.25 2.687-1.877 1.374-1.655 2.749-3.31 4.764-5.017 1.496-.374 2.353-.695 3.431-1.103.223-.087.7-.065.7-.065s.044.056.103.433c1.262 1.21 2.385 2.554 3.69 2.763 2.19.352 4.498-.018 6.873.227.496.495.875.68 1.572 1.123 5.53-1.156 8.27 2.446 12.032 7.196V48.631c4.66.422 9.323.845 14.016 1.277.031.009.06.066-.307.007-2.882 3.19-3.25 6.551-.907 10.058-.005.654-.01 1.308-.356 2.477-6.157 1.613-7.04 4.135-4.613 8.982 4.937 9.857 7.525 11.58.221 21.938-.388.55.149 1.753.255 2.651-.205 1.4-.41 2.8-.485 4.872.75.987 1.37 1.3 1.989 1.612l8.891 3.53c-26.807 4.667-52.095 2.702-77.622-1.971-.29-.79-.291-.979-.293-1.168 4.407-.934 8.814-1.868 13.954-2.912 2.777-1.97 2.995-3.638.217-4.989-.052-.455-.105-.91.301-1.726.284-1.334.11-2.308-.065-3.281-.178-.725-.356-1.449-.288-2.738-.609-1.1-1.464-1.635-2.318-2.17 0 0-.46-.006-.625-.167m19.433-20.861c-2.037 3.395-4.43 6.642-5.945 10.256-.66 1.575.48 3.905.996 7.085l2.12-3.045c5.453-.908 9.008 4.366 14.435 1.756 1.15-.552 3.033.41 4.576.689 2.15.389 4.626 1.272 3.805-2.564l10.521.999c-3.583-7.774-8.195-12.989-14.2-16.909-5.79-3.78-10.31-3.273-16.308 1.733m2.912 23.96H81.224v14.823c1.974.154 3.682.04 5.25.455 4.577 1.214 6.287.158 5.58-5.021-.696-5.11 1.06-6.217 6.223-6.542 5.617-.354 5.328 4.019 5.295 7.044-.048 4.514 2.488 4.949 5.629 4.773 7.42-.415 7.612-.701 7.8-8.177.057-2.256.009-4.515.009-7.357-8.283 0-15.89 0-24.493.002m-23.483 15.807 1.208-.283c-.088-.12-.192-.351-.262-.341-.408.056-.81.169-.946.624m32.587-5.3s-.136.087 0 0"/><path fill="#f5f5f5" d="M126.779 95.987c-.37-.864-.906-2.067-.518-2.617 7.304-10.357 4.716-12.081-.22-21.938-2.428-4.847-1.545-7.37 4.614-8.655 3.433 1.197 6.524 2.583 10.562 4.393 0 4.582.193 10.178-.076 15.752-.15 3.133 1.075 4.72 3.95 5.1 5.65.748 11.32 1.348 17.51 2.281.143 1.456-.243 2.64-1.096 3.854-8.389-.003-16.315-.187-24.232.018-2.436.064-4.845 1.188-7.266 1.827a96 96 0 0 0-3.228-.015"/><path fill="#0f0f0f" d="M130.085 96.377c2.343-1.014 4.752-2.138 7.188-2.202 7.917-.205 15.843-.021 24.483.24 1.915.224 3.113.222 4.311.22.368.143.735.286 1.557.757 1.451.625 2.447.921 3.443 1.217l7.255 2.969-.439 1.765c-13.691-.746-27.479 1.252-41.62-2.586-1.124-.332-1.7-.373-2.277-.414-1.274-.53-2.55-1.06-3.901-1.966"/><path fill="#d7d7d7" d="M166.082 94.316c-1.213.321-2.41.323-3.86.068.136-1.441.522-2.625.845-4.09 1.354-.609 2.772-.937 4.58-1.179-.256 1.685-.903 3.283-1.565 5.2"/><path fill="#0c0c0d" d="M73.098 95.407c2.847.939 2.63 2.607.227 4.524-.339-1.333-.318-2.723-.227-4.524m.218-5.049c.262.603.436 1.577.307 2.601-.334-.71-.365-1.47-.307-2.6"/><path fill="#d7d7d7" d="M171.08 96.338c-1.009-.025-2.005-.321-3.16-.91.653-.334 1.466-.373 2.68-.42.4-.008.38-.023.38-.023.038.36.076.72.1 1.353"/><path fill="#0c0c0d" d="M84.776 60.3a13.4 13.4 0 0 1-2.411 1.71c.485-.513 1.315-1.026 2.41-1.71M70.923 85.343c.728.272 1.583.807 2.176 1.533-.858-.296-1.454-.783-2.176-1.533"/><path fill="#262626" d="M93.015 54.094c-.856.322-1.713.643-2.919.87.373-.524 1.096-.956 1.899-1.715.08-.328.046-.251-.1.028.277.458.699.638 1.12.817"/><path fill="#f5f5f5" d="M134.032 98.612c.53-.228 1.107-.187 1.826.118-.497.226-1.139.188-1.826-.118m-6.057 3.639c-.575-.059-1.195-.371-1.742-.974.613.047 1.155.384 1.742.974"/><path fill="#d7d7d7" d="M171.714 92.349c.274.016.424.16.574.304-.233-.059-.466-.117-.574-.304m-.707 2.661c.095-.036.181-.081.12-.075-.147.05-.127.065-.12.075"/><path fill="#0c0c0d" d="M58.714 102.982c.284.103.285.292.286.764-.19-.037-.38-.357-.286-.764"/><path fill="#f8f8f8" d="M146.899 58.036c1.62-7.966 4.289-14.78 11.23-19.2 5.086-3.24 10.399-2.666 14.266.84 5.387 4.882 9.677 10.982 14.335 16.643.309.375-.024 1.948-.423 2.12-1.922.832-4.118 2.147-5.928 1.797-1.76-.341-3.17-2.495-5.05-4.129l-.633 4.25c-4.183.652-4.183.652-8.131-4.746-.366 4.017-1.966 6.636-6 5.279-1.694-.57-3.055-2.134-4.417-3.135l-.725 4.477-5.262-4.703-.856 3.799c-1.069-1.26-1.746-2.056-2.406-3.292"/><path fill="#f0f1f1" d="M115.08 17.804c8.333-1.3 20.223 7.87 20.933 17.339-1.917-1.95-3.834-3.9-5.769-5.866l.391 6.46-1.315.396-3.022-3.653c-1.468 2.322-3.14 4.68-4.724.331-.946.847-2.114 2.592-2.879 2.43-1.538-.326-2.856-1.69-4.291-2.643l-2.493 2.378-1.713-6.424c-.323.756-.824 1.725-1.157 2.749-1.098 3.376-.98 3.136-4.266 1.866-1.175-.455-2.936.604-5.547 1.247 4.648-7.153 9.313-12.508 15.853-16.61"/><path fill="#f2f3f3" d="M131.394 60.132c-2.729-3.666-2.36-7.028.936-10.21 1.56-.199 2.34-.463 3.121-.728l-.63-1.18-2.628 1.885-13.986-1.268v17.054c-3.762-4.75-6.502-8.352-11.81-7.53 2.341-3.577 3.444-6.47-1.005-9.059a62 62 0 0 0-2.376-.133c-.112-.578-.225-1.155-.134-2.055.204-.321.373-.372.373-.372l-.332-.018c-2.153-1.623-1.374-2.51.813-2.464 11.116.232 22.23.586 33.516 1.214.166.448.16.58.153.71l.588-.71c1.207-.282 2.413-.563 3.824-.241.236.825.267 1.046.299 1.267-2.707 4.543-5.374 9.11-8.183 13.59-.263.42-1.415.284-2.54.248m2.021-13.649s.11-.065 0 0"/><path fill="#f3f3f3" d="M182.398 82.022c-3.888.009-7.339.009-10.945.009l-2.251-15.776h19.727c-.188 4.014.11 8.206-.813 12.11-.365 1.545-3.44 2.45-5.718 3.657"/><path fill="#f4f5f5" d="M155.968 78.886c.332 3.686-2.134 3.626-3.892 3.121-1.31-.376-2.948-1.931-3.21-3.213-.82-4.017-1.057-8.153-1.514-12.184h16.374l1.05 1.347c-8.177-.122-9.168 4.713-8.808 10.929"/><path fill="#262626" d="M102.98 49.375c.716-.384 1.395-.356 2.484.137-.053 2.824-.515 5.183-.978 7.543-2.258.066-4.565.436-6.757.084-1.304-.209-2.427-1.552-3.66-2.741 7.164 1.445 8.504.805 8.91-5.023"/><path fill="#fdfdfd" d="M93.237 54.008c-.643-.093-1.065-.273-1.352-.772.703-.204 1.271-.089 1.946.366.105.34-.371.32-.594.406"/><path fill="#eeefef" d="M137.965 45.284c-.168.22-.364.458-.56.695.007-.131.013-.263.253-.559.233-.165.28-.12.307-.136"/><path fill="#262626" d="M102.939 46.478c-.016.04.316.058.316.058s-.169.05-.263-.056c-.093-.106-.037-.042-.053-.002"/><path fill="#eeefef" d="M142.374 46.143c-.29-.07-.321-.291-.363-.848.2.009.41.353.363.848"/><path fill="#f5f6f6" d="m59.334 44.491-1.138 5.396-5.732-5.2-1.57 5.463-1.198.268-3.336-6.67-.684 5.513c-3.105-.872-5.644-4.416-9.672-1.011l-3.26-7.14-5.044 6.703-2.953-1.915c1.299-2.292 2.174-4.66 3.735-6.42 3.299-3.72 6.738-7.378 10.512-10.602 7.008-5.987 12.718-5.865 21.058.126 5.533 3.973 9.298 10.408 14.18 16.121-2.948 1.053-2.948 1.053-12.187-5.75l4.099 8.23-1.122.973a437 437 0 0 0-4.627-4.88c-.644-.009-.852.393-1.06.795"/><path fill="#f3f3f3" d="M50.624 59.141c-7.744-2.526-11.33-.077-11.432 7.342-.005.334.087.702-.023.995-1.085 2.895 3.992 8.918-4.056 8.274-8.628-.69-10.82-3.426-9.963-10.784.356-3.053-.572-6.256-.918-9.408h46.184l-.67 8.521c-2.164-1.545-3.85-3.489-5.898-4.005-2.066-.522-3.821.737-2.74 3.613.517 1.374.623 2.93.76 4.416.692 7.56-.862 8.799-8.56 6.756.222-5.28 2.216-10.908-2.684-15.72"/><path fill="#f4f4f4" d="M89.877 63.8c5.726-4.754 10.246-5.261 16.037-1.48 6.004 3.92 10.616 9.134 14.2 16.908l-10.522-.999c.821 3.836-1.655 2.953-3.805 2.564-1.543-.28-3.426-1.241-4.576-.689-5.427 2.61-8.982-2.664-14.435-1.756l-2.12 3.045c-.516-3.18-1.656-5.51-.996-7.085 1.515-3.614 3.908-6.86 6.217-10.508"/><path fill="#f6f7f6" d="M93.014 88.011h23.996c0 2.841.048 5.1-.01 7.356-.187 7.476-.38 7.762-7.8 8.177-3.14.176-5.676-.259-5.628-4.773.033-3.025.322-7.398-5.295-7.044-5.164.325-6.92 1.432-6.222 6.542.706 5.18-1.004 6.235-5.582 5.021-1.567-.415-3.275-.301-5.25-.455V88.012z"/><path fill="#d1d1d1" d="M104.603 57.366c.346-2.67.808-5.03 1.199-7.805 4.039 2.124 2.936 5.017.277 8.334-.601.15-.98-.034-1.476-.529"/><path fill="#eeefef" d="M132.223 49.908c.846-.637 1.722-1.265 2.598-1.893l.63 1.18c-.78.264-1.56.528-2.755.786-.413-.007-.442-.064-.473-.073"/><path fill="#0c0c0d" d="M68.9 103.638c.27-.274.672-.387 1.08-.443.07-.01.174.221.262.341-.403.094-.806.189-1.341.102m32.652-5.075c-.068.043.068-.043 0 0"/><path fill="#eeefef" d="M133.469 46.45c.055-.032-.055.033 0 0"/><path fill="#0c0c0d" d="M59.561 44.33c-.018-.24.19-.643.519-.79-.017.38-.154.504-.519.79"/></svg>