<svg xmlns="http://www.w3.org/2000/svg" viewBox="0 0 248 183" xml:space="preserve"><path fill="#0d0d0d" d="M132.97,171.765C131.133,172.556 129.256,174.089 127.465,173.995C122.611,173.739 117.788,172.835 112.971,172.069C112.354,171.971 111.85,171.168 111.587,170.178C112.593,169.449 113.305,169.233 114.384,169.018C117.762,168.57 117.483,166.991 116.154,164.599C116.074,162.595 115.957,161.03 115.827,159.308C112.979,159.154 110.569,159.023 107.315,158.847C107.97,161.629 108.49,163.84 109.138,166.337C109.204,167.797 109.144,168.97 109.083,170.144C109.083,170.144 109.027,170.057 108.646,170.09C107.985,170.179 107.705,170.236 107.424,170.292C104.538,167.701 104.273,169.739 104.237,172.849C92.804,169.572 81.975,173.984 70.896,174.637C60.763,175.233 50.46,172.871 40.228,171.858C37.759,171.614 35.23,171.775 32.813,171.31C31.679,171.092 30.746,169.831 29.366,168.769C23.252,168.011 16.341,167.153 9.429,166.295C9.438,165.96 9.447,165.625 9.456,165.29C10.847,164.924 12.238,164.558 12.747,164.424C13.222,162.775 13.517,161.754 14.333,160.99C15.231,161.363 15.609,161.479 15.986,161.594C15.762,160.961 15.537,160.328 15.313,159.696C16.377,159.365 17.441,159.035 18.334,158.758C19.274,157.002 20.523,154.864 21.575,152.633C22.173,151.365 22.797,149.951 22.814,148.595C22.934,139.43 23.108,130.254 22.748,121.102C22.665,118.981 21.07,116.258 19.317,115.008C16.138,112.739 15.084,109.027 17.792,106.024C20.021,103.552 22.428,101.235 24.586,98.705C25.663,97.442 26.359,95.854 27.581,93.824C22.509,93.742 17.755,94.909 15.829,88.968C18.642,85.278 21.926,81.507 24.603,77.345C29.454,69.8 34.031,62.073 38.542,54.317C40.389,51.142 41.73,48.222 40.179,43.837C37.714,36.87 43.005,32.641 50.312,34.801C74.301,41.889 98.816,42.992 123.512,40.519C138.555,39.012 153.514,36.677 169.058,34.643C168.208,29.013 170.544,24.108 166.97,19.339C165.983,18.021 165.046,13.897 169.549,13.499C169.955,15.24 170.035,16.489 170.116,17.759C184.993,15.793 184.474,16.773 183.371,10.191C178.909,10.84 174.426,11.492 169.944,12.144C170.235,11.056 170.351,9.111 170.844,9.01C176.766,7.798 182.596,5.417 188.743,8.847C194.441,12.026 195.74,16.273 192.524,22.009C191.518,23.804 191.837,26.341 191.452,29.292C193.648,28.892 195.192,28.304 196.689,28.406C199.467,28.595 203.539,28.247 204.666,29.832C206.312,32.147 205.91,35.964 206.235,39.155C206.447,41.23 205.684,43.731 206.59,45.353C211.442,54.043 216.744,62.48 221.729,71.098C222.666,72.718 223.639,74.952 223.243,76.572C222.503,79.589 220.058,81.085 216.701,80.493C216.11,80.389 215.453,80.664 214.628,80.796C214.628,86.011 214.628,91.069 214.628,97.343C220.507,96.297 225.93,95.466 231.287,94.325C234.203,93.704 236.421,94.199 237.019,97.26C237.633,100.408 237.084,103.237 233.184,104.18C231.452,104.599 229.835,105.497 228.166,106.177C229.454,108.337 230.307,111.02 232.129,112.541C235.203,115.106 237.874,117.368 237.131,121.939C236.735,124.375 236.642,127.001 237.103,129.408C238.591,137.166 230.505,143.54 223.799,143.143C220.844,142.969 217.895,142.695 214.795,142.455C211.932,148.612 216.415,153.887 217.502,159.743C219.425,157.453 221.289,155.232 223.154,153.011C223.525,153.22 223.896,153.429 224.267,153.638C223.301,155.871 222.336,158.105 221.055,161.068C222.621,161.22 224.267,161.379 226.27,161.573C225.91,162.366 225.485,163.304 224.941,164.502C226.809,165.12 228.638,165.725 231.882,166.798C223.02,168.08 215.499,169.168 207.648,170.304C210.245,173.736 208.792,174.823 205.244,175.181C200.933,175.617 196.665,176.473 192.378,177.147C192.226,176.507 192.075,175.866 191.923,175.226C195.942,174.16 199.962,173.095 203.981,172.029C203.937,171.703 203.893,171.377 203.849,171.052C200.81,171.052 197.771,171.052 194.469,170.656C195.856,169.498 197.505,168.736 199.155,167.974C199.051,167.547 198.947,167.121 198.844,166.695C194.007,167.146 189.17,167.597 184.332,168.048C184.291,168.37 184.249,168.692 184.207,169.014C186.422,169.987 188.637,170.96 190.852,171.933C190.056,172.011 189.259,172.089 188.309,172.182C189.048,173.634 189.734,174.982 190.638,176.758C188.601,176.758 187.157,177.137 186.033,176.697C178.285,173.666 170.528,175.641 162.68,175.993C155.743,176.304 148.726,174.828 141.375,173.651C141.006,172.495 141.007,171.827 141.285,171.041C142.083,170.65 142.603,170.377 143.584,170.371C144.382,170.752 144.719,170.865 145.292,171.04C145.528,171.101 145.999,170.98 146.368,171.147C149.962,171.607 153.186,171.899 156.646,172.421C157.524,172.735 158.166,172.82 159.193,172.903C159.832,172.868 160.087,172.836 160.621,172.823C161.261,172.811 161.622,172.778 162.302,172.773C163.411,172.477 164.2,172.155 165.338,171.856C166.49,171.602 167.292,171.326 168.392,170.875C169.047,169.602 169.404,168.504 169.882,167.032C170.877,168.692 171.525,169.775 172.174,170.858C172.443,170.748 172.711,170.638 172.979,170.527C172.979,167.469 172.979,164.411 172.979,160.794C171.101,161.284 169.553,161.688 167.664,162.044C166.876,162.096 166.429,162.197 165.586,162.229C163.848,162.134 162.506,162.107 160.719,162.035C159.682,162.072 159.091,162.154 158.069,162.253C155.673,162.2 153.661,161.834 151.754,162.136C149.468,162.499 147.271,163.431 145.007,163.813C144.677,163.007 144.376,162.506 143.736,161.722C140.659,161.274 137.916,160.948 135.189,161.056C134.476,161.085 133.817,162.465 132.602,163.106C128.482,157.766 123.208,161.026 118.476,159.643C118.476,163.057 118.476,165.785 118.476,169.068C121.729,169.396 124.949,169.845 128.179,169.938C128.785,169.955 129.431,168.549 130.055,167.652C130.05,167.505 130.016,167.211 130.228,166.843C131.343,165.44 132.247,164.405 133.084,163.825C133.548,165.182 134.095,166.076 134.605,166.991C135.162,167.989 135.684,169.008 135.811,170.025C134.591,170.609 133.781,171.187 132.97,171.765M53.178,149.935C52.141,148.408 51.104,146.882 49.743,144.879C50.785,147.446 47.776,152.46 54.657,150.055C55.025,150.04 55.392,150.025 56.045,150.752C56.373,151.442 56.7,152.133 57.027,152.823C57.426,152.749 57.825,152.674 58.224,152.6C58.224,148.07 58.224,143.539 58.975,139.014C60.727,139.626 62.479,140.238 65.228,141.198C64.568,138.409 64.094,136.408 63.896,135.57C61.243,136.222 59.563,136.634 57.035,137.06C56.604,141.037 56.173,145.013 55.207,149.038C54.788,149.334 54.368,149.629 53.178,149.935M61.466,97.219C60.322,97.644 59.179,98.069 58.035,98.495C58.183,98.905 58.33,99.315 58.478,99.726C60.661,98.884 62.845,98.042 65.908,97.039C66.529,96.908 67.69,96.786 67.692,96.644C67.784,91.08 67.77,85.514 67.77,79.949C67.459,79.995 67.147,80.041 66.835,80.087C65.038,83.214 63.241,86.342 61.444,89.469C60.845,89.142 60.246,88.815 59.647,88.488C60.635,86.39 61.679,84.316 62.601,82.188C64.97,76.723 63.295,73.831 57.875,72.404C58.31,71.841 59.235,70.958 59.108,70.763C56.931,67.434 54.785,64.054 52.214,61.042C51.688,60.426 48.738,60.727 48.146,61.525C45.919,64.531 44.204,67.916 41.553,72.425C47.84,70.866 52.996,68.551 57.365,73.855C57.231,77.236 57.097,80.617 56.342,83.952C55.874,83.59 55.406,83.229 54.697,82.184C54.697,79.535 54.697,76.886 54.697,73.558C51.902,74.059 49.305,74.525 46.268,74.675C45.781,74.456 45.293,74.236 44.583,74C44.371,73.894 44.189,73.949 43.176,73.921C42.139,74.715 40.233,75.483 40.209,76.307C40.059,81.276 40.301,86.259 40.494,91.233C40.598,93.919 41.775,95.468 44.804,95.267C50.26,94.905 55.728,94.725 61.144,95.162C61.475,95.761 61.805,96.359 61.466,97.219M179.623,136.745C179.623,136.745 179.748,136.774 180.534,137.03C181.423,136.047 182.312,135.065 183.913,133.992C189.725,132.663 193.04,135.19 193.168,141.382C193.299,147.671 193.083,153.968 193.129,160.261C193.139,161.66 193.611,163.056 193.87,164.453C194.415,164.429 194.96,164.405 195.505,164.382C195.664,162.903 196.034,161.412 195.949,159.948C195.425,150.988 194.797,142.034 194.901,133.099C195.217,132.397 195.533,131.695 195.807,130.086C190.896,130.382 185.985,130.677 180.912,130.467C180.615,130.401 180.318,130.335 179.407,130.19C177.3,131.317 175.193,132.444 173.101,133.564C169.064,124.409 169.064,124.409 170.793,116.518C171.726,117.5 172.425,118.235 173.257,119.689C173.869,121.477 174.482,123.266 175.094,125.054C175.517,125.08 175.939,125.107 176.362,125.133C177.828,120.251 179.295,115.369 180.761,110.487C180.183,110.301 179.604,110.114 179.026,109.928C178.142,112.318 177.333,114.741 176.3,117.064C176.135,117.435 174.964,117.357 174.325,116.814C174.349,115.92 174.373,115.026 174.762,113.858C174.95,113.285 175.137,112.711 175.871,111.602C176.283,110.15 176.694,108.698 177.574,107.001C177.37,106.529 177.167,106.057 176.138,105.211C173.431,105.248 170.725,105.284 167.418,105.161C166.948,105.447 166.477,105.732 165.167,106.12C164.877,106.449 164.335,106.777 164.334,107.106C164.293,124.218 164.298,141.33 164.298,158.742C168.117,158.333 171.052,158.02 174.612,157.93C175.043,158.032 175.474,158.133 175.906,159.093C175.984,161.394 176.062,163.694 176.086,166.617C176.645,166.623 177.204,166.628 178.657,166.524C178.902,156.648 179.146,146.772 179.375,136.812C179.375,136.812 179.513,136.811 179.623,136.745M196.157,32.013C191.6,33.135 191.6,33.135 192.188,36.222C193.797,36.101 195.412,35.981 197.221,36.344C197.47,36.582 197.72,36.82 198.135,37.743C199.166,38.62 200.197,39.497 201.229,40.373C201.784,40.213 202.34,40.054 202.896,39.894C202.896,37.538 203.134,35.138 202.717,32.858C202.621,32.335 200.275,32.223 198.303,31.937C197.865,31.983 197.428,32.029 196.157,32.013M205.839,163.021C206.001,162.96 206.163,162.9 207.038,162.696C208.969,162.696 210.9,162.696 213.323,162.696C213.454,161.402 213.672,159.252 213.876,157.244C209.713,156.217 207.312,157.607 205.619,160.935C205.619,160.935 205.242,160.966 205.095,160.18C203.173,159.378 201.25,158.576 198.921,157.604C198.54,165.623 199.193,166.019 205.839,163.021M51.006,129.233C53.81,128.296 56.966,123.446 58.619,130.257C58.6,130.671 58.582,131.085 58.563,131.498C59.055,131.299 59.546,131.1 60.835,130.882C61.854,131.078 62.873,131.274 63.728,131.439C63.728,129.27 63.728,127.212 63.728,125.059C57.624,125.059 51.914,125.059 46.16,125.059C46.16,128.263 46.16,131.1 46.16,134.598C47.721,132.88 48.784,131.71 49.927,131.358C49.804,133.318 49.681,135.279 49.558,137.239C49.921,137.309 50.284,137.38 50.647,137.451C51.908,135.073 53.169,132.695 54.674,129.858C52.542,129.858 51.574,129.858 51.006,129.233M48.973,38.411C48.623,38.597 48.273,38.783 47.268,38.8C46.194,38.676 45.12,38.551 44.046,38.427C44.169,40.698 44.292,42.968 44.416,45.239C45.705,44.968 47.852,45.054 48.139,44.365C49.496,41.11 51.808,41.841 54.228,42.323C59.571,43.387 64.914,44.458 70.278,45.405C71.122,45.554 72.079,45.066 72.984,44.873C73.01,44.314 73.037,43.756 73.063,43.198C65.096,41.776 57.128,40.354 48.973,38.411M156.477,136.007C156.056,135.999 155.636,135.99 155.089,135.11C155.066,133.056 155.043,131.001 155.032,128.5C155.032,128.5 155.021,128.054 155.132,127.155C155.132,121.905 155.132,116.654 155.132,111.649C133.363,111.649 112.405,111.649 90.211,111.649C95.55,115.905 101.39,119.161 94.916,125.603C94.826,125.693 94.866,125.925 94.866,126.091C94.864,135.54 94.864,144.989 94.864,154.987C115.129,156.374 134.84,157.723 153.784,159.019C154.889,154.772 155.783,151.333 156.915,149.529C156.915,152.711 156.915,155.892 156.915,159.074C157.414,159.025 157.912,158.975 158.411,158.926C159.129,147.4 162.079,123.107 158.487,115.451C158.027,115.438 157.566,115.425 157.106,115.412C157.106,122.266 157.106,129.119 156.477,136.007M71.475,163.964C72.253,163.022 73.675,162.101 73.706,161.135C73.959,153.337 73.958,145.53 74.017,137.725C74.041,134.587 74.021,131.449 74.021,128.311C73.498,128.306 72.974,128.301 72.45,128.296C72.288,129.816 71.98,131.336 71.987,132.855C72.025,141.655 72.208,150.456 72.162,159.255C72.153,160.908 71.331,162.556 70.907,163.243C70.893,151.912 70.881,140.581 70.864,129.25C70.86,126.912 71.269,124.231 67.188,124.928C67.188,138.154 67.188,151.405 67.188,164.944C68.607,164.797 69.731,164.68 71.475,163.964M143.072,101.984C122.44,102.259 101.808,102.533 80.899,102.302C80.439,102.309 79.979,102.316 79.519,102.322C79.921,102.657 80.323,102.992 81.157,103.891C83.182,104.424 85.202,105.392 87.233,105.417C96.226,105.529 105.222,105.336 114.216,105.317C127.777,105.287 141.337,105.309 154.898,105.309C155.019,104.652 155.14,103.995 155.261,103.339C153.508,102.835 151.755,102.331 150.077,101.196C150.293,100.421 150.509,99.646 150.688,99.003C148.627,99.003 146.621,99.003 144.281,99.003C144.22,99.613 144.109,100.723 143.072,101.984M64.699,115.993C67.23,118.149 69.761,120.304 72.866,122.948C73.496,120.83 74.251,119.397 73.955,119.13C66.566,112.459 59.066,105.912 51.62,99.373C45.721,105.796 40.139,111.872 34.468,118.046C44.04,118.046 53.613,118.046 63.741,117.659C63.857,116.996 63.972,116.333 64.699,115.993M214.292,116.286C213.259,115.923 212.226,115.559 211.208,115.195C206.217,119.139 207.793,124.815 207.934,129.768C208.009,132.442 209.866,136.213 212.056,137.411C215.34,139.207 219.697,140.022 223.461,139.692C227.588,139.331 232.292,137.277 232.903,132.548C233.525,127.74 232.597,122.704 232.102,117.792C231.868,115.47 230.756,113.876 228.243,116.057C224.879,118.976 225.362,115.775 224.973,114.078C222.635,114.078 220.321,114.078 217.301,113.969C216.553,114.698 215.804,115.428 214.292,116.286M204.96,69.583C201.932,64.302 198.904,59.022 195.62,53.293C190.04,62.621 184.781,71.412 179.842,79.669C182.604,85.288 185.109,90.385 187.614,95.483C187.877,95.072 188.139,94.661 188.402,94.249C189.226,94.716 190.004,95.317 190.885,95.615C192.066,96.014 194.151,96.748 194.422,96.355C196.797,92.91 198.017,92.66 201.413,94.622C203.542,95.851 206.041,96.439 209.346,97.679C207.92,87.45 211.569,78.18 204.96,69.583M196.184,43.542C195.55,42.244 194.915,40.947 194.447,39.991C191.82,42.332 189.405,44.484 186.993,46.633C188.638,49.395 187.816,49.208 180.562,62.554C176.46,70.099 170.369,68.473 164.471,70.23C167.891,70.23 171.311,70.23 175.619,70.23C171.518,74.271 171.032,80.68 163.233,80.109C165.089,81.412 166.035,82.076 167.014,82.764C162.342,88.605 157.858,94.21 153.914,99.14C155.299,100.807 156.614,102.391 158.195,104.296C172.678,85.487 184.098,64.731 196.184,43.542M172.629,34.511C172.141,39.023 171.653,43.535 171.158,48.114C182.706,47.923 183.678,47.575 187.543,38.148C189.126,34.285 189.115,29.958 186.076,26.243C184.445,24.249 183.151,21.98 181.336,19.286C178.98,19.742 175.762,20.364 172.166,21.059C172.166,25.504 172.166,29.631 172.629,34.511M29.281,115.097C28.509,116.051 27.214,116.933 27.069,117.975C26.728,120.422 26.926,122.945 26.924,125.437C26.92,134.465 26.922,143.492 26.922,152.71C30.654,152.71 33.552,152.71 36.869,152.71C36.869,150.632 36.873,148.833 36.868,147.035C36.85,140.555 36.862,134.075 36.771,127.596C36.758,126.718 36.453,125.645 35.891,125.01C34.03,122.909 31.989,120.968 30.098,119.048C31.138,117.44 31.811,116.398 32.656,115.09C31.444,115.09 30.783,115.09 29.281,115.097M125.602,92.884C128.755,92.887 131.917,92.741 135.058,92.937C137.939,93.116 138.507,91.756 138.939,89.174C140.745,78.36 135.354,70.766 128.497,63.79C120.194,71.913 117.027,81.401 119.816,92.885C121.381,92.885 123.013,92.885 125.602,92.884M90.795,47.703C105.88,47.061 120.987,46.73 136.042,45.661C145.454,44.993 154.793,43.249 164.153,41.904C166.278,41.599 169.102,41.568 167.634,37.992C156.8,39.624 146.178,41.542 135.476,42.766C115.782,45.018 96.035,46.191 76.245,43.629C75.205,43.494 74.061,44.156 72.965,44.447C73.022,44.99 73.078,45.533 73.135,46.076C78.711,46.599 84.287,47.123 90.795,47.703M98.446,93.475C100.191,93.475 101.936,93.475 103.015,93.475C106.565,81.466 102.194,72.992 94.106,66.107C85.148,73.437 83.727,82.816 85.693,93.472C89.655,93.472 93.607,93.472 98.446,93.475M209.344,140.707C202.082,136.669 205.031,129.347 203.977,123.085C196.821,128.446 199.266,135.438 199.935,142.07C200.05,143.202 200.394,144.399 200.161,145.462C199.503,148.456 198.599,151.395 197.671,154.799C212.457,152.858 209.537,155.955 209.759,143.452C209.771,142.787 209.711,142.122 209.344,140.707M36.381,64.847C35.231,66.669 34.148,68.538 32.918,70.304C29.035,75.875 25.04,81.369 21.235,86.992C20.608,87.92 20.718,89.347 20.488,90.543C20.97,90.709 21.453,90.874 21.935,91.04C24.225,88.014 26.793,85.157 28.754,81.931C34.703,72.142 40.447,62.228 46.163,52.301C46.591,51.557 46.168,50.323 46.141,49.317C45.366,49.888 44.295,50.293 43.864,51.057C41.417,55.4 39.124,59.828 36.381,64.847M36.718,168.995C47.425,169.939 58.131,170.883 68.977,171.839C69.291,170.503 69.568,169.324 69.909,167.87C58.898,166.968 48.195,165.98 37.473,165.297C35.14,165.149 33.58,166.461 36.718,168.995M131.368,63.113C134.073,66.614 136.778,70.115 139.908,74.164C140.565,72.659 141.442,71.477 141.183,71.119C136.856,65.157 132.386,59.299 127.657,53.031C122.7,60.481 118.48,66.824 114.261,73.168C114.911,73.622 115.562,74.077 116.213,74.532C119.955,69.296 123.698,64.061 127.675,58.497C128.899,59.996 129.93,61.26 131.368,63.113M84.003,73.455C86.975,69.166 89.946,64.876 93.188,60.195C97.066,65.38 100.596,70.102 104.126,74.823C104.644,74.557 105.161,74.292 105.678,74.027C105.157,67.304 96.979,63.905 96.192,56.307C94.861,56.705 92.386,56.675 91.43,57.865C87.917,62.242 84.863,66.994 81.731,71.668C80.394,73.662 80.618,73.882 84.003,73.455M57.747,56.734C55.68,53.462 53.612,50.19 51.296,46.525C50.482,47.954 49.381,49.188 49.622,49.566C55.74,59.163 62,68.671 68.482,78.573C69.824,77.126 70.716,76.358 70.631,76.228C66.507,69.905 62.299,63.637 57.747,56.734M43.028,147.501C43.058,142.512 43.247,137.516 43.029,132.538C42.957,130.908 41.83,129.323 41.185,127.717C40.757,127.851 40.329,127.986 39.901,128.12C39.901,138.918 39.866,149.717 39.971,160.514C39.979,161.329 40.981,162.135 41.521,162.945C42.023,162.117 42.925,161.305 42.96,160.459C43.122,156.478 43.047,152.487 43.028,147.501M35.417,156.966C31.394,156.592 27.371,156.218 23.225,155.833C23.225,159.196 23.225,161.883 23.225,164.518C33.092,165.641 35.9,164.061 35.417,156.966M206.696,104.791C205.476,105.759 204.11,106.593 203.071,107.727C201.56,109.375 200.285,111.24 198.487,113.559C199.676,115.492 201.423,118.333 202.915,120.759C204.643,118.14 205.931,115.765 207.623,113.724C210.188,110.628 209.996,107.763 206.696,104.791M175.199,86.683C173.076,89.944 170.953,93.205 168.716,96.641C172.774,96.641 176.169,96.641 178.897,96.641C178.897,91.643 178.897,87.028 178.897,82.414C178.6,82.393 178.303,82.371 178.006,82.35C177.22,83.602 176.434,84.854 175.199,86.683M24.735,108.127C24.07,108.142 23.32,107.966 22.758,108.215C21.739,108.666 20.832,109.37 19.878,109.969C20.927,110.479 21.946,111.332 23.032,111.43C25.671,111.667 28.353,111.71 30.998,111.536C33.719,111.357 36.417,110.828 39.125,110.452C39.065,109.676 39.006,108.901 38.946,108.125C34.524,108.125 30.102,108.125 24.735,108.127M99.471,167.877C100.201,166.811 100.93,165.745 101.944,164.265C102.257,164.433 103.461,165.08 104.739,165.766C104.739,163.369 104.739,161.138 104.739,158.454C101.34,158.235 98.147,158.03 94.006,157.763C95.857,161.583 97.307,164.577 99.471,167.877M212.684,67.806C213.302,68.481 213.919,69.157 214.537,69.832C214.949,69.575 215.362,69.318 215.774,69.062C211.446,61.1 207.119,53.138 202.791,45.175C202.128,45.533 201.465,45.89 200.801,46.248C204.608,53.245 208.415,60.242 212.684,67.806M215.038,107.554C215.038,108.628 215.038,109.701 215.038,110.45C218.873,110.245 222.255,110.064 225.944,109.867C225.822,108.067 225.705,106.341 225.551,104.079C221.868,105.297 217.598,101.664 215.038,107.554M32.797,88.297C31.803,90.031 30.809,91.765 29.412,94.204C33.079,94.042 35.646,93.928 38.668,93.794C38.351,89.643 38.068,85.929 37.698,81.071C35.664,83.901 34.343,85.74 32.797,88.297M85.765,125.997C83.172,125.997 80.579,125.997 77.986,125.997C78.013,126.458 78.039,126.92 78.066,127.382C84.145,127.31 85.725,129.513 85.079,136.135C84.698,140.047 85.01,144.026 85.01,147.974C85.749,147.96 86.489,147.945 87.229,147.93C86.85,140.873 86.47,133.815 85.765,125.997M218.019,100.407C220.257,100.287 222.496,100.167 224.735,100.048C224.713,99.777 224.692,99.506 224.67,99.235C216.443,99.235 208.216,99.235 199.988,99.235C199.982,99.644 199.975,100.053 199.969,100.462C205.679,100.462 211.389,100.462 218.019,100.407M88.917,117.77C84.484,117.543 80.05,117.315 75.617,117.088C75.612,117.53 75.606,117.972 75.601,118.414C81.243,118.414 86.886,118.414 92.528,118.414C92.547,118.274 92.565,118.134 92.584,117.994C91.643,117.934 90.703,117.875 88.917,117.77M135.801,95.397C135.797,95.788 135.789,96.18 135.809,96.57C135.81,96.58 136.255,96.586 136.256,96.575C136.286,96.185 136.288,95.793 135.801,95.397M54.223,97.522C53.842,97.401 53.467,97.26 53.078,97.177C52.996,97.159 52.868,97.358 52.761,97.457C53.142,97.577 53.522,97.698 54.223,97.522M56.387,130.525C56.166,130.469 55.945,130.413 55.725,130.357C55.867,130.495 56.009,130.634 56.387,130.525M60.4,133.48C60.4,133.48 60.527,133.402 60.4,133.48M52.479,137.616C52.479,137.616 52.389,137.476 52.479,137.616z"/><path fill="#dcdddd" d="M169.895,12.396C174.426,11.492 178.909,10.84 183.371,10.191C184.474,16.773 184.993,15.793 170.116,17.759C170.035,16.489 169.955,15.24 169.916,13.57C169.92,12.981 169.883,12.814 169.895,12.396z"/><path fill="#e2e3e3" d="M191.208,171.945C188.637,170.96 186.422,169.987 184.207,169.014C184.249,168.692 184.291,168.37 184.332,168.048C189.17,167.597 194.007,167.146 198.844,166.695C198.947,167.121 199.051,167.547 199.155,167.974C197.505,168.736 195.856,169.498 194.103,170.63C193.188,171.32 192.376,171.638 191.208,171.945z"/><path fill="#1e1d1e" d="M109.457,170.063C109.144,168.97 109.204,167.797 109.274,166.027C109.825,164.461 110.367,163.492 110.909,162.522C111.293,162.83 111.676,163.138 112.059,163.446C111.823,164.57 111.587,165.694 111.236,167.367C112.404,166.798 113.082,166.467 113.82,166.598C113.924,167.366 113.969,167.672 114.017,168.238C114.02,168.67 114.019,168.843 114.017,169.016C113.305,169.233 112.593,169.449 111.617,169.776C110.845,169.918 110.338,169.951 109.457,170.063z"/><path fill="#171817" d="M141.008,171.159C141.007,171.827 141.006,172.495 141.007,173.496C139.923,173.52 138.838,173.209 137.588,172.556C137.953,171.762 138.482,171.31 139.349,170.863C140.128,170.964 140.568,171.062 141.008,171.159z"/><path fill="#0d0d0d" d="M139.011,170.859C138.482,171.31 137.953,171.762 137.244,172.418C135.917,172.63 134.769,172.638 134.203,171.93C135.343,171.061 135.9,170.909 136.777,170.606C137.735,170.59 138.373,170.725 139.011,170.859z"/><path fill="#171817" d="M136.457,170.756C135.9,170.909 135.343,171.061 133.966,171.507C133.147,171.8 133.046,171.805 133.008,171.785C133.781,171.187 134.591,170.609 135.947,170.185C136.493,170.338 136.457,170.756 136.457,170.756z"/><path fill="#1e1d1e" d="M107.592,170.567C107.705,170.236 107.985,170.179 108.695,170.107C108.669,170.341 108.214,170.591 107.592,170.567z"/><path fill="#f4f4f4" d="M155.02,128.946C155.043,131.001 155.066,133.056 155.062,135.961C155.008,137.377 154.981,137.942 154.949,138.868C155.522,142.117 156.1,145.006 156.677,147.895C155.783,151.333 154.889,154.772 153.784,159.019C134.84,157.723 115.129,156.374 94.864,154.987C94.864,144.989 94.864,135.54 94.866,126.091C94.866,125.925 94.826,125.693 94.916,125.603C101.39,119.161 95.55,115.905 90.211,111.649C112.405,111.649 133.363,111.649 155.132,111.649C155.132,116.654 155.132,121.905 154.819,127.636C154.677,128.393 154.849,128.67 155.02,128.946M146.234,143.312C145.927,137.948 145.403,132.586 145.37,127.22C145.329,120.743 144.225,119.395 137.635,119.158C130.886,118.915 129.179,121.005 128.99,127.619C128.827,133.295 130.6,139.14 127.163,144.715C125.77,146.974 127.198,149.499 130.761,149.487C134.236,149.474 137.712,149.808 141.189,149.925C147.23,150.128 147.231,150.108 146.234,143.312M113.156,119.179C104.649,119.186 103.894,119.952 103.981,128.229C104.024,132.37 104.226,136.535 103.866,140.646C103.667,142.921 102.457,145.107 101.551,147.778C107.937,148.178 113.015,148.574 118.101,148.787C121.685,148.938 121.434,146.056 121.322,143.879C121.029,138.222 119.917,132.564 120.11,126.941C120.277,122.096 118.517,119.851 113.156,119.179z"/><path fill="#f3f3f3" d="M181.074,130.973C185.985,130.677 190.896,130.382 195.519,130.574C194.466,131.604 193.7,132.146 192.935,132.687C193.358,132.818 193.781,132.948 194.205,133.078C194.797,142.034 195.425,150.988 195.949,159.948C196.034,161.412 195.664,162.903 195.505,164.382C194.96,164.405 194.415,164.429 193.87,164.453C193.611,163.056 193.139,161.66 193.129,160.261C193.083,153.968 193.299,147.671 193.168,141.382C193.04,135.19 189.725,132.663 183.188,134.011C181.111,133.642 179.758,133.255 176.989,132.461C178.093,134.5 178.742,135.698 179.391,136.896C179.146,146.772 178.902,156.648 177.822,166.37C176.705,166.143 176.423,166.069 176.141,165.995C176.062,163.694 175.984,161.394 175.932,158.304C175.827,156.566 175.695,155.616 175.564,154.667C175.279,154.664 174.994,154.66 174.709,154.657C174.468,155.673 174.228,156.689 173.987,157.706C171.052,158.02 168.117,158.333 164.298,158.742C164.298,141.33 164.293,124.218 164.334,107.106C164.335,106.777 164.877,106.449 165.696,106.352C166.979,108.306 167.734,110.028 168.488,111.751C168.865,111.57 169.242,111.39 169.618,111.209C169.085,109.246 168.552,107.283 168.018,105.32C170.725,105.284 173.431,105.248 176.554,105.676C177.015,106.51 177.06,106.878 177.105,107.246C176.694,108.698 176.283,110.15 175.543,111.523C174.898,110.987 174.583,110.53 174.267,110.073C174.31,111.426 174.354,112.779 174.397,114.132C174.373,115.026 174.349,115.92 174.153,117.437C173.695,118.363 173.409,118.667 173.124,118.971C172.425,118.235 171.726,117.5 170.793,116.518C169.064,124.409 169.064,124.409 173.101,133.564C175.193,132.444 177.3,131.317 179.845,130.407C180.505,130.834 180.769,130.951 181.074,130.973M176.596,139.273C175.493,139.533 174.391,139.792 173.288,140.052C173.471,140.603 173.654,141.154 173.838,141.705C174.638,141.071 175.438,140.437 176.596,139.273M169.671,114.376C169.594,114.116 169.518,113.856 169.441,113.596C169.152,113.878 168.863,114.16 168.574,114.443C168.833,114.525 169.092,114.607 169.671,114.376z"/><path fill="#f2f2f2" d="M205.111,69.924C211.569,78.18 207.92,87.45 209.346,97.679C206.041,96.439 203.542,95.851 201.413,94.622C198.017,92.66 196.797,92.91 194.422,96.355C194.151,96.748 192.066,96.014 190.885,95.615C190.004,95.317 189.226,94.716 188.402,94.249C188.139,94.661 187.877,95.072 187.614,95.483C185.109,90.385 182.604,85.288 179.842,79.669C184.781,71.412 190.04,62.621 195.62,53.293C198.904,59.022 201.932,64.302 205.111,69.924M190.809,85.512C190.809,87.131 190.809,88.751 190.809,90.754C193.849,90.754 196.738,90.754 200.368,90.754C199.948,85.088 199.849,79.367 198.865,73.802C198.641,72.536 195.299,71.001 193.498,71.126C192.305,71.208 190.592,73.935 190.372,75.641C189.996,78.545 190.612,81.576 190.809,85.512z"/><path fill="#edeeee" d="M196.065,43.895C184.098,64.731 172.678,85.487 158.195,104.296C156.614,102.391 155.299,100.807 153.914,99.14C157.858,94.21 162.342,88.605 167.014,82.764C166.035,82.076 165.089,81.412 163.233,80.109C171.032,80.68 171.518,74.271 175.619,70.23C171.311,70.23 167.891,70.23 164.471,70.23C170.369,68.473 176.46,70.099 180.562,62.554C187.816,49.208 188.638,49.395 186.993,46.633C189.405,44.484 191.82,42.332 194.447,39.991C194.915,40.947 195.55,42.244 196.065,43.895z"/><path fill="#f1f1f1" d="M172.397,34.134C172.166,29.631 172.166,25.504 172.166,21.059C175.762,20.364 178.98,19.742 181.336,19.286C183.151,21.98 184.445,24.249 186.076,26.243C189.115,29.958 189.126,34.285 187.543,38.148C183.678,47.575 182.706,47.923 171.158,48.114C171.653,43.535 172.141,39.023 172.397,34.134z"/><path fill="#f1f1f2" d="M218.008,114.078C220.321,114.078 222.635,114.078 224.973,114.078C225.362,115.775 224.879,118.976 228.243,116.057C230.756,113.876 231.868,115.47 232.102,117.792C232.597,122.704 233.525,127.74 232.903,132.548C232.292,137.277 227.588,139.331 223.461,139.692C219.697,140.022 215.34,139.207 212.056,137.411C209.866,136.213 208.009,132.442 207.934,129.768C207.793,124.815 206.217,119.139 211.201,115.196C212.226,115.559 213.259,115.923 214.897,116.46C216.338,115.783 217.173,114.931 218.008,114.078M217.66,130.939C221.568,131.495 225.477,132.051 229.454,132.617C229.454,130.254 229.454,126.641 229.454,123.015C222.757,123.369 216.477,124.337 210.812,120.237C210.812,125.136 210.812,129.183 210.812,132.873C213.131,132.11 214.931,131.518 217.66,130.939M220.09,117.136C220.008,117.272 219.874,117.404 219.864,117.544C219.857,117.635 220.048,117.833 220.126,117.822C220.963,117.701 221.794,117.548 222.627,117.404C222.541,117.135 222.455,116.867 222.368,116.598C221.785,116.723 221.202,116.848 220.09,117.136z"/><path fill="#eeeeee" d="M63.185,118.046C53.613,118.046 44.04,118.046 34.468,118.046C40.139,111.872 45.721,105.796 51.62,99.373C59.066,105.912 66.566,112.459 73.955,119.13C74.251,119.397 73.496,120.83 72.866,122.948C69.761,120.304 67.23,118.149 64.263,115.534C61.451,112.962 59.075,110.848 56.698,108.735C56.236,109.2 55.774,109.665 55.311,110.13C56.58,111.501 57.812,112.909 59.129,114.233C60.437,115.548 61.829,116.779 63.185,118.046z"/><path fill="#efefef" d="M29.702,115.093C30.783,115.09 31.444,115.09 32.656,115.09C31.811,116.398 31.138,117.44 30.098,119.048C31.989,120.968 34.03,122.909 35.891,125.01C36.453,125.645 36.758,126.718 36.771,127.596C36.862,134.075 36.85,140.555 36.868,147.035C36.873,148.833 36.869,150.632 36.869,152.71C33.552,152.71 30.654,152.71 26.922,152.71C26.922,143.492 26.92,134.465 26.924,125.437C26.926,122.945 26.728,120.422 27.069,117.975C27.214,116.933 28.509,116.051 29.702,115.093z"/><path fill="#efefef" d="M56.963,83.998C57.097,80.617 57.231,77.236 57.385,73.406C57.405,72.958 57.337,73.001 57.337,73.001C63.295,73.831 64.97,76.723 62.601,82.188C61.679,84.316 60.635,86.39 59.647,88.488C60.246,88.815 60.845,89.142 61.444,89.469C63.241,86.342 65.038,83.214 66.835,80.087C67.147,80.041 67.459,79.995 67.77,79.949C67.77,85.514 67.784,91.08 67.692,96.644C67.69,96.786 66.529,96.908 65.136,97.047C63.919,96.977 63.475,96.901 63.16,96.564C64.307,93.728 63.109,93.688 61.192,94.469C55.728,94.725 50.26,94.905 44.804,95.267C41.775,95.468 40.598,93.919 40.494,91.233C40.301,86.259 40.059,81.276 40.209,76.307C40.233,75.483 42.139,74.715 43.663,74.444C44.229,75.226 44.308,75.484 44.451,76.159C44.516,81.468 44.516,86.359 44.516,91.616C46.779,91.387 48.891,91.174 51.39,91.083C52.851,91.123 53.924,91.04 55.318,91.016C56.063,90.71 56.488,90.346 57.041,89.623C57.1,88.511 57.031,87.757 57.053,86.632C57.085,85.507 57.024,84.753 56.963,83.998M59.34,91.626C59.415,91.883 59.491,92.14 59.567,92.396C59.852,92.118 60.136,91.84 60.421,91.561C60.166,91.48 59.911,91.398 59.34,91.626z"/><path fill="#e6e6e7" d="M125.123,92.884C123.013,92.885 121.381,92.885 119.816,92.885C117.027,81.401 120.194,71.913 128.497,63.79C135.354,70.766 140.745,78.36 138.939,89.174C138.507,91.756 137.939,93.116 135.058,92.937C131.917,92.741 128.755,92.887 125.123,92.884M123.131,82.475C123.131,84.756 123.131,87.037 123.131,89.706C126.799,89.52 130.201,89.348 134.133,89.149C134.133,86.316 134.135,83.684 134.132,81.052C134.13,79.392 134.307,77.7 134.042,76.082C133.881,75.099 133.255,73.806 132.452,73.377C127.399,70.677 123.005,73.398 123.07,79.042C123.08,79.872 123.089,80.703 123.131,82.475z"/><path fill="#efefef" d="M90.329,47.675C84.287,47.123 78.711,46.599 73.135,46.076C73.078,45.533 73.022,44.99 72.965,44.447C74.061,44.156 75.205,43.494 76.245,43.629C96.035,46.191 115.782,45.018 135.476,42.766C146.178,41.542 156.8,39.624 167.634,37.992C169.102,41.568 166.278,41.599 164.153,41.904C154.793,43.249 145.454,44.993 136.042,45.661C120.987,46.73 105.88,47.061 90.329,47.675z"/><path fill="#ebebeb" d="M98.003,93.473C93.607,93.472 89.655,93.472 85.693,93.472C83.727,82.816 85.148,73.437 94.106,66.107C102.194,72.992 106.565,81.466 103.015,93.475C101.936,93.475 100.191,93.475 98.003,93.473M96.483,90.216C97.569,89.181 99.247,88.315 99.602,87.071C100.126,85.24 99.708,83.14 99.688,81.154C99.616,73.841 99.2,73.468 92.038,74.495C91.091,74.631 90.173,74.967 89.287,75.199C89.287,80.434 89.287,85.443 89.287,90.226C91.665,90.226 93.636,90.226 96.483,90.216z"/><path fill="#ececec" d="M209.514,141.082C209.711,142.122 209.771,142.787 209.759,143.452C209.537,155.955 212.457,152.858 197.671,154.799C198.599,151.395 199.503,148.456 200.161,145.462C200.394,144.399 200.05,143.202 199.935,142.07C199.266,135.438 196.821,128.446 203.977,123.085C205.031,129.347 202.082,136.669 209.514,141.082z"/><path fill="#f4f4f4" d="M136.777,170.606C136.457,170.756 136.493,170.338 136.357,170.178C135.684,169.008 135.162,167.989 134.605,166.991C134.095,166.076 133.548,165.182 133.086,163.792C133.155,163.304 133.132,163.225 133.132,163.225C133.817,162.465 134.476,161.085 135.189,161.056C137.916,160.948 140.659,161.274 143.698,162.041C144.162,163.309 144.324,163.974 144.487,164.638C144.67,164.464 144.853,164.291 145.036,164.117C147.271,163.431 149.468,162.499 151.754,162.136C153.661,161.834 155.673,162.2 158.103,162.456C158.568,162.642 158.607,163.052 158.454,163.308C158.327,163.955 158.353,164.346 158.492,165.116C158.482,167.637 158.358,169.78 157.777,171.981C157.017,172.09 156.714,172.141 156.411,172.192C153.186,171.899 149.962,171.607 146.293,170.951C145.709,170.333 145.509,170.142 145.141,169.698C144.396,169.621 143.759,169.862 143.122,170.104C142.603,170.377 142.083,170.65 141.285,171.041C140.568,171.062 140.128,170.964 139.349,170.863C138.373,170.725 137.735,170.59 136.777,170.606z"/><path fill="#ececec" d="M81.176,102.808C101.808,102.533 122.44,102.259 143.958,101.992C146.564,101.942 148.283,101.885 150.002,101.828C151.755,102.331 153.508,102.835 155.261,103.339C155.14,103.995 155.019,104.652 154.898,105.309C141.337,105.309 127.777,105.287 114.216,105.317C105.222,105.336 96.226,105.529 87.233,105.417C85.202,105.392 83.182,104.424 81.053,103.478C80.949,103.065 81.176,102.808 81.176,102.808z"/><path fill="#ececec" d="M70.854,164.564C69.731,164.68 68.607,164.797 67.188,164.944C67.188,151.405 67.188,138.154 67.188,124.928C71.269,124.231 70.86,126.912 70.864,129.25C70.881,140.581 70.893,151.912 70.824,163.809C70.742,164.374 70.854,164.564 70.854,164.564z"/><path fill="#e3e3e4" d="M36.58,64.537C39.124,59.828 41.417,55.4 43.864,51.057C44.295,50.293 45.366,49.888 46.141,49.317C46.168,50.323 46.591,51.557 46.163,52.301C40.447,62.228 34.703,72.142 28.754,81.931C26.793,85.157 24.225,88.014 21.935,91.04C21.453,90.874 20.97,90.709 20.488,90.543C20.718,89.347 20.608,87.92 21.235,86.992C25.04,81.369 29.035,75.875 32.918,70.304C34.148,68.538 35.231,66.669 36.58,64.537z"/><path fill="#e6e6e7" d="M36.278,168.966C33.58,166.461 35.14,165.149 37.473,165.297C48.195,165.98 58.898,166.968 69.909,167.87C69.568,169.324 69.291,170.503 68.977,171.839C58.131,170.883 47.425,169.939 36.278,168.966z"/><path fill="#e5e5e5" d="M131.165,62.819C129.93,61.26 128.899,59.996 127.675,58.497C123.698,64.061 119.955,69.296 116.213,74.532C115.562,74.077 114.911,73.622 114.261,73.168C118.48,66.824 122.7,60.481 127.657,53.031C132.386,59.299 136.856,65.157 141.183,71.119C141.442,71.477 140.565,72.659 139.908,74.164C136.778,70.115 134.073,66.614 131.165,62.819z"/><path fill="#edeeee" d="M132.602,163.106C133.132,163.225 133.155,163.304 133.152,163.337C132.247,164.405 131.343,165.44 130.03,166.847C129.766,167.412 129.913,167.606 130.059,167.8C129.431,168.549 128.785,169.955 128.179,169.938C124.949,169.845 121.729,169.396 118.476,169.068C118.476,165.785 118.476,163.057 118.476,159.643C123.208,161.026 128.482,157.766 132.602,163.106z"/><path fill="#e5e5e5" d="M83.798,73.747C80.618,73.882 80.394,73.662 81.731,71.668C84.863,66.994 87.917,62.242 91.43,57.865C92.386,56.675 94.861,56.705 96.192,56.307C96.979,63.905 105.157,67.304 105.678,74.027C105.161,74.292 104.644,74.557 104.126,74.823C100.596,70.102 97.066,65.38 93.188,60.195C89.946,64.876 86.975,69.166 83.798,73.747z"/><path fill="#e5e5e5" d="M156.796,148.712C156.1,145.006 155.522,142.117 155.249,139.163C156.072,138.057 156.589,137.015 157.106,135.972C157.106,129.119 157.106,122.266 157.106,115.412C157.566,115.425 158.027,115.438 158.487,115.451C162.079,123.107 159.129,147.4 158.411,158.926C157.912,158.975 157.414,159.025 156.915,159.074C156.915,155.892 156.915,152.711 156.796,148.712z"/><path fill="#e8e9e9" d="M57.923,57.048C62.299,63.637 66.507,69.905 70.631,76.228C70.716,76.358 69.824,77.126 68.482,78.573C62,68.671 55.74,59.163 49.622,49.566C49.381,49.188 50.482,47.954 51.296,46.525C53.612,50.19 55.68,53.462 57.923,57.048z"/><path fill="#e6e6e7" d="M57.606,72.703C57.337,73.001 57.405,72.958 57.443,72.948C52.996,68.551 47.84,70.866 41.553,72.425C44.204,67.916 45.919,64.531 48.146,61.525C48.738,60.727 51.688,60.426 52.214,61.042C54.785,64.054 56.931,67.434 59.108,70.763C59.235,70.958 58.31,71.841 57.606,72.703z"/><path fill="#f2f2f2" d="M43.042,148C43.047,152.487 43.122,156.478 42.96,160.459C42.925,161.305 42.023,162.117 41.521,162.945C40.981,162.135 39.979,161.329 39.971,160.514C39.866,149.717 39.901,138.918 39.901,128.12C40.329,127.986 40.757,127.851 41.185,127.717C41.83,129.323 42.957,130.908 43.029,132.538C43.247,137.516 43.058,142.512 43.042,148z"/><path fill="#f1f1f1" d="M35.774,157.232C35.9,164.061 33.092,165.641 23.225,164.518C23.225,161.883 23.225,159.196 23.225,155.833C27.371,156.218 31.394,156.592 35.774,157.232z"/><path fill="#efefef" d="M49.161,38.933C57.128,40.354 65.096,41.776 73.063,43.198C73.037,43.756 73.01,44.314 72.984,44.873C72.079,45.066 71.122,45.554 70.278,45.405C64.914,44.458 59.571,43.387 54.228,42.323C51.808,41.841 49.496,41.11 48.139,44.365C47.852,45.054 45.705,44.968 44.416,45.239C44.292,42.968 44.169,40.698 44.046,38.427C45.12,38.551 46.194,38.676 47.905,38.892C48.749,38.967 48.955,38.95 49.161,38.933z"/><path fill="#ebebeb" d="M168.006,162.091C169.553,161.688 171.101,161.284 172.979,160.794C172.979,164.411 172.979,167.469 172.979,170.527C172.711,170.638 172.443,170.748 172.174,170.858C171.525,169.775 170.877,168.692 169.882,167.032C169.404,168.504 169.047,169.602 168.106,170.643C167.092,169.196 166.663,167.805 166.234,166.414C165.819,166.476 165.404,166.538 164.989,166.6C164.989,168.344 164.989,170.089 164.989,171.833C164.2,172.155 163.411,172.477 162.153,172.583C161.438,172.143 161.152,172.003 160.754,171.496C160.844,168.057 161.005,165.068 161.165,162.08C162.506,162.107 163.848,162.134 165.635,162.509C166.723,162.602 167.364,162.347 168.006,162.091z"/><path fill="#efefef" d="M207.141,104.794C209.996,107.763 210.188,110.628 207.623,113.724C205.931,115.765 204.643,118.14 202.915,120.759C201.423,118.333 199.676,115.492 198.487,113.559C200.285,111.24 201.56,109.375 203.071,107.727C204.11,106.593 205.476,105.759 207.141,104.794z"/><path fill="#171817" d="M51.003,90.96C48.891,91.174 46.779,91.387 44.516,91.616C44.516,86.359 44.516,81.468 44.637,75.909C44.774,74.833 44.79,74.425 44.806,74.017C45.293,74.236 45.781,74.456 46.724,75.171C48.117,76.42 49.836,77.177 49.833,77.926C49.826,79.56 48.942,81.19 48.456,82.701C49.252,84.986 50.123,87.484 51.001,90.227C51.008,90.471 51.003,90.96 51.003,90.96z"/><path fill="#f1f1f2" d="M175.424,86.395C176.434,84.854 177.22,83.602 178.006,82.35C178.303,82.371 178.6,82.393 178.897,82.414C178.897,87.028 178.897,91.643 178.897,96.641C176.169,96.641 172.774,96.641 168.716,96.641C170.953,93.205 173.076,89.944 175.424,86.395z"/><path fill="#efefef" d="M49.847,130.541C48.784,131.71 47.721,132.88 46.16,134.598C46.16,131.1 46.16,128.263 46.16,125.059C51.914,125.059 57.624,125.059 63.728,125.059C63.728,127.212 63.728,129.27 63.728,131.439C62.873,131.274 61.854,131.078 60.381,130.652C59.738,130.112 59.462,129.958 59.099,129.962C56.966,123.446 53.81,128.296 50.617,129.574C49.974,130.046 49.847,130.255 49.847,130.541z"/><path fill="#a8a6a8" d="M71.164,164.264C70.854,164.564 70.742,164.374 70.813,164.29C71.331,162.556 72.153,160.908 72.162,159.255C72.208,150.456 72.025,141.655 71.987,132.855C71.98,131.336 72.288,129.816 72.45,128.296C72.974,128.301 73.498,128.306 74.021,128.311C74.021,131.449 74.041,134.587 74.017,137.725C73.958,145.53 73.959,153.337 73.706,161.135C73.675,162.101 72.253,163.022 71.164,164.264z"/><path fill="#d1d3d2" d="M25.207,108.126C30.102,108.125 34.524,108.125 38.946,108.125C39.006,108.901 39.065,109.676 39.125,110.452C36.417,110.828 33.719,111.357 30.998,111.536C28.353,111.71 25.671,111.667 23.032,111.43C21.946,111.332 20.927,110.479 19.878,109.969C20.832,109.37 21.739,108.666 22.758,108.215C23.32,107.966 24.07,108.142 25.207,108.126z"/><path fill="#e6e6e6" d="M99.114,167.724C97.307,164.577 95.857,161.583 94.006,157.763C98.147,158.03 101.34,158.235 104.739,158.454C104.739,161.138 104.739,163.369 104.739,165.766C103.461,165.08 102.257,164.433 101.944,164.265C100.93,165.745 100.201,166.811 99.114,167.724z"/><path fill="#dcdddd" d="M212.453,67.522C208.415,60.242 204.608,53.245 200.801,46.248C201.465,45.89 202.128,45.533 202.791,45.175C207.119,53.138 211.446,61.1 215.774,69.062C215.362,69.318 214.949,69.575 214.537,69.832C213.919,69.157 213.302,68.481 212.453,67.522z"/><path fill="#e2e3e3" d="M215.055,107.123C217.598,101.664 221.868,105.297 225.551,104.079C225.705,106.341 225.822,108.067 225.944,109.867C222.255,110.064 218.873,110.245 215.038,110.45C215.038,109.701 215.038,108.628 215.055,107.123z"/><path fill="#e8e9e9" d="M32.909,87.938C34.343,85.74 35.664,83.901 37.698,81.071C38.068,85.929 38.351,89.643 38.668,93.794C35.646,93.928 33.079,94.042 29.412,94.204C30.809,91.765 31.803,90.031 32.909,87.938z"/><path fill="#cbcccb" d="M85.928,126.377C86.47,133.815 86.85,140.873 87.229,147.93C86.489,147.945 85.749,147.96 85.01,147.974C85.01,144.026 84.698,140.047 85.079,136.135C85.725,129.513 84.145,127.31 78.066,127.382C78.039,126.92 78.013,126.458 77.986,125.997C80.579,125.997 83.172,125.997 85.928,126.377z"/><path fill="#f4f4f4" d="M50.994,89.983C50.123,87.484 49.252,84.986 48.456,82.701C48.942,81.19 49.826,79.56 49.833,77.926C49.836,77.177 48.117,76.42 46.944,75.328C49.305,74.525 51.902,74.059 54.697,73.558C54.697,76.886 54.697,79.535 54.581,82.608C54.291,83.299 54.117,83.566 53.516,83.875C52.48,84.343 51.446,84.683 51.34,85.21C51.027,86.761 51.082,88.386 50.994,89.983z"/><path fill="#efefef" d="M113.76,166.137C113.082,166.467 112.404,166.798 111.236,167.367C111.587,165.694 111.823,164.57 112.059,163.446C111.676,163.138 111.293,162.83 110.909,162.522C110.367,163.492 109.825,164.461 109.146,165.741C108.49,163.84 107.97,161.629 107.315,158.847C110.569,159.023 112.979,159.154 115.827,159.308C115.957,161.03 116.074,162.595 115.84,164.653C114.987,165.43 114.486,165.713 113.913,166.007C113.841,166.018 113.76,166.137 113.76,166.137z"/><path fill="#dfe0e0" d="M173.19,119.33C173.409,118.667 173.695,118.363 174.12,117.773C174.964,117.357 176.135,117.435 176.3,117.064C177.333,114.741 178.142,112.318 179.026,109.928C179.604,110.114 180.183,110.301 180.761,110.487C179.295,115.369 177.828,120.251 176.362,125.133C175.939,125.107 175.517,125.08 175.094,125.054C174.482,123.266 173.869,121.477 173.19,119.33z"/><path fill="#cbcccb" d="M217.559,100.435C211.389,100.462 205.679,100.462 199.969,100.462C199.975,100.053 199.982,99.644 199.988,99.235C208.216,99.235 216.443,99.235 224.67,99.235C224.692,99.506 224.713,99.777 224.735,100.048C222.496,100.167 220.257,100.287 217.559,100.435z"/><path fill="#dcdddd" d="M205.993,161.001C207.312,157.607 209.713,156.217 213.876,157.244C213.672,159.252 213.454,161.402 213.323,162.696C210.9,162.696 208.969,162.696 206.772,162.535C206.334,161.916 206.164,161.459 205.993,161.001z"/><path fill="#e5e5e5" d="M205.321,163.04C199.193,166.019 198.54,165.623 198.921,157.604C201.25,158.576 203.173,159.378 205.1,160.917C205.177,162.116 205.249,162.578 205.321,163.04z"/><path fill="#e5e5e5" d="M198.964,31.922C200.275,32.223 202.621,32.335 202.717,32.858C203.134,35.138 202.896,37.538 202.896,39.894C202.34,40.054 201.784,40.213 201.229,40.373C200.197,39.497 199.166,38.62 198.19,37.104C198.485,34.951 198.724,33.436 198.964,31.922z"/><path fill="#b6b7b7" d="M55.742,148.99C56.173,145.013 56.604,141.037 57.543,137.375C58.109,138.13 58.166,138.569 58.224,139.009C58.224,143.539 58.224,148.07 58.224,152.6C57.825,152.674 57.426,152.749 57.027,152.823C56.7,152.133 56.373,151.442 55.905,150.126C55.757,149.33 55.749,149.16 55.742,148.99z"/><path fill="#272827" d="M160.719,162.035C161.005,165.068 160.844,168.057 160.604,171.587C160.403,172.338 160.343,172.563 160.342,172.804C160.087,172.836 159.832,172.868 159.214,172.685C158.778,172.136 158.573,171.954 158.234,171.923C158.358,169.78 158.482,167.637 158.683,164.86C158.709,163.834 158.658,163.443 158.607,163.052C158.607,163.052 158.568,162.642 158.534,162.438C159.091,162.154 159.682,162.072 160.719,162.035z"/><path fill="#272827" d="M63.463,117.853C61.829,116.779 60.437,115.548 59.129,114.233C57.812,112.909 56.58,111.501 55.311,110.13C55.774,109.665 56.236,109.2 56.698,108.735C59.075,110.848 61.451,112.962 63.957,115.372C63.972,116.333 63.857,116.996 63.463,117.853z"/><path fill="#cbcccb" d="M89.34,117.793C90.703,117.875 91.643,117.934 92.584,117.994C92.565,118.134 92.547,118.274 92.528,118.414C86.886,118.414 81.243,118.414 75.601,118.414C75.606,117.972 75.612,117.53 75.617,117.088C80.05,117.315 84.484,117.543 89.34,117.793z"/><path fill="#121312" d="M58.6,139.012C58.166,138.569 58.109,138.13 57.967,137.368C59.563,136.634 61.243,136.222 63.896,135.57C64.094,136.408 64.568,138.409 65.228,141.198C62.479,140.238 60.727,139.626 58.6,139.012z"/><path fill="#121312" d="M49.887,130.95C49.847,130.255 49.974,130.046 50.418,129.886C51.574,129.858 52.542,129.858 54.674,129.858C53.169,132.695 51.908,135.073 50.647,137.451C50.284,137.38 49.921,137.309 49.558,137.239C49.681,135.279 49.804,133.318 49.887,130.95z"/><path fill="#0f0f0f" d="M150.039,101.512C148.283,101.885 146.564,101.942 144.421,101.916C144.109,100.723 144.22,99.613 144.281,99.003C146.621,99.003 148.627,99.003 150.688,99.003C150.509,99.646 150.293,100.421 150.039,101.512z"/><path fill="#e5e5e5" d="M197.028,35.86C195.412,35.981 193.797,36.101 192.188,36.222C191.6,33.135 191.6,33.135 196.593,32.423C197.03,33.842 197.029,34.851 197.028,35.86z"/><path fill="#e8e9e9" d="M167.718,105.24C168.552,107.283 169.085,109.246 169.618,111.209C169.242,111.39 168.865,111.57 168.488,111.751C167.734,110.028 166.979,108.306 166.115,106.301C166.477,105.732 166.948,105.447 167.718,105.24z"/><path fill="#dfe0e0" d="M165.338,171.856C164.989,170.089 164.989,168.344 164.989,166.6C165.404,166.538 165.819,166.476 166.234,166.414C166.663,167.805 167.092,169.196 167.808,170.818C167.292,171.326 166.49,171.602 165.338,171.856z"/><path fill="#ebebeb" d="M179.383,136.854C178.742,135.698 178.093,134.5 176.989,132.461C179.758,133.255 181.111,133.642 182.833,134.056C182.312,135.065 181.423,136.047 180.206,136.639C179.799,136.146 179.721,136.045 179.642,135.944C179.599,136.233 179.556,136.522 179.513,136.811C179.513,136.811 179.375,136.812 179.383,136.854z"/><path fill="#272827" d="M63.031,96.825C63.475,96.901 63.919,96.977 64.695,97.127C62.845,98.042 60.661,98.884 58.478,99.726C58.33,99.315 58.183,98.905 58.035,98.495C59.179,98.069 60.322,97.644 62.029,97.08C62.591,96.941 63.031,96.825 63.031,96.825z"/><path fill="#d1d3d2" d="M197.124,36.102C197.029,34.851 197.03,33.842 197.011,32.454C197.428,32.029 197.865,31.983 198.633,31.929C198.724,33.436 198.485,34.951 198.107,36.761C197.72,36.82 197.47,36.582 197.124,36.102z"/><path fill="#171817" d="M53.942,83.832C54.117,83.566 54.291,83.299 54.702,82.95C55.406,83.229 55.874,83.59 56.653,83.975C57.024,84.753 57.085,85.507 56.675,86.618C55.451,85.927 54.697,84.879 53.942,83.832z"/><path fill="#171817" d="M113.984,165.997C114.486,165.713 114.987,165.43 115.802,165.093C117.483,166.991 117.762,168.57 114.384,169.018C114.019,168.843 114.02,168.67 114.234,168.091C114.293,167.122 114.138,166.559 113.984,165.997z"/><path fill="#121312" d="M54.112,150.122C47.776,152.46 50.785,147.446 49.743,144.879C51.104,146.882 52.141,148.408 53.603,149.98C54.028,150.026 54.112,150.122 54.112,150.122z"/><path fill="#dfe0e0" d="M217.655,114.024C217.173,114.931 216.338,115.783 215.279,116.396C215.804,115.428 216.553,114.698 217.655,114.024z"/><path fill="#e8e9e9" d="M174.58,113.995C174.354,112.779 174.31,111.426 174.267,110.073C174.583,110.53 174.898,110.987 175.269,111.79C175.137,112.711 174.95,113.285 174.58,113.995z"/><path fill="#e5e5e5" d="M63.16,96.564C63.031,96.825 62.591,96.941 62.364,96.95C61.805,96.359 61.475,95.761 61.168,94.816C63.109,93.688 64.307,93.728 63.16,96.564z"/><path fill="#ebebeb" d="M174.3,157.818C174.228,156.689 174.468,155.673 174.709,154.657C174.994,154.66 175.279,154.664 175.564,154.667C175.695,155.616 175.827,156.566 175.932,157.874C175.474,158.133 175.043,158.032 174.3,157.818z"/><path fill="#ebebeb" d="M194.553,133.089C193.781,132.948 193.358,132.818 192.935,132.687C193.7,132.146 194.466,131.604 195.54,131.028C195.533,131.695 195.217,132.397 194.553,133.089z"/><path fill="#1e1d1e" d="M156.791,135.99C156.589,137.015 156.072,138.057 155.254,138.803C154.981,137.942 155.008,137.377 155.126,136.397C155.636,135.99 156.056,135.999 156.791,135.99z"/><path fill="#121312" d="M58.859,130.109C59.462,129.958 59.738,130.112 59.982,130.662C59.546,131.1 59.055,131.299 58.563,131.498C58.582,131.085 58.6,130.671 58.859,130.109z"/><path fill="#dfe0e0" d="M167.664,162.044C167.364,162.347 166.723,162.602 166.032,162.578C166.429,162.197 166.876,162.096 167.664,162.044z"/><path fill="#0f0f0f" d="M136.047,95.399C136.288,95.793 136.286,96.185 136.256,96.575C136.255,96.586 135.81,96.58 135.809,96.57C135.789,96.18 135.797,95.788 136.047,95.399z"/><path fill="#171817" d="M145.007,163.813C144.853,164.291 144.67,164.464 144.487,164.638C144.324,163.974 144.162,163.309 144.037,162.325C144.376,162.506 144.677,163.007 145.007,163.813z"/><path fill="#272827" d="M205.58,163.031C205.249,162.578 205.177,162.116 205.173,161.31C205.242,160.966 205.619,160.935 205.806,160.968C206.164,161.459 206.334,161.916 206.415,162.606C206.163,162.9 206.001,162.96 205.58,163.031z"/><path fill="#272827" d="M54.063,97.671C53.522,97.698 53.142,97.577 52.761,97.457C52.868,97.358 52.996,97.159 53.078,97.177C53.467,97.26 53.842,97.401 54.063,97.671z"/><path fill="#edeeee" d="M157.777,171.981C158.573,171.954 158.778,172.136 158.829,172.687C158.166,172.82 157.524,172.735 156.646,172.421C156.714,172.141 157.017,172.09 157.777,171.981z"/><path fill="#171817" d="M143.584,170.371C143.759,169.862 144.396,169.621 145.03,169.926C145.036,170.641 145.046,170.81 145.057,170.979C144.719,170.865 144.382,170.752 143.584,170.371z"/><path fill="#dfe0e0" d="M160.621,172.823C160.343,172.563 160.403,172.338 160.674,172.037C161.152,172.003 161.438,172.143 161.833,172.556C161.622,172.778 161.261,172.811 160.621,172.823z"/><path fill="#e8e9e9" d="M177.34,107.124C177.06,106.878 177.015,106.51 176.966,105.863C177.167,106.057 177.37,106.529 177.34,107.124z"/><path fill="#e5e5e5" d="M44.695,74.009C44.79,74.425 44.774,74.833 44.573,75.492C44.308,75.484 44.229,75.226 44.094,74.566C44.189,73.949 44.371,73.894 44.695,74.009z"/><path fill="#fcfcfc" d="M15.081,159.97C15.537,160.328 15.762,160.961 15.986,161.594C15.609,161.479 15.231,161.363 14.639,161.036C14.565,160.63 14.706,160.437 15.081,159.97z"/><path fill="#121312" d="M55.475,149.014C55.749,149.16 55.757,149.33 55.762,149.755C55.392,150.025 55.025,150.04 54.385,150.089C54.112,150.122 54.028,150.026 53.988,149.975C54.368,149.629 54.788,149.334 55.475,149.014z"/><path fill="#ececec" d="M80.837,103.196C80.323,102.992 79.921,102.657 79.519,102.322C79.979,102.316 80.439,102.309 81.037,102.555C81.176,102.808 80.949,103.065 80.837,103.196z"/><path fill="#121312" d="M56.269,130.649C56.009,130.634 55.867,130.495 55.725,130.357C55.945,130.413 56.166,130.469 56.269,130.649z"/><path fill="#f3f3f3" d="M179.568,136.778C179.556,136.522 179.599,136.233 179.642,135.944C179.721,136.045 179.799,136.146 179.813,136.51C179.748,136.774 179.623,136.745 179.568,136.778z"/><path fill="#1e1d1e" d="M155.026,128.723C154.849,128.67 154.677,128.393 154.763,128.085C155.021,128.054 155.032,128.5 155.026,128.723z"/><path fill="#ebebeb" d="M180.993,130.72C180.769,130.951 180.505,130.834 180.152,130.446C180.318,130.335 180.615,130.401 180.993,130.72z"/><path fill="#edeeee" d="M145.292,171.04C145.046,170.81 145.036,170.641 145.137,170.243C145.509,170.142 145.709,170.333 145.924,170.784C145.999,170.98 145.528,171.101 145.292,171.04z"/><path fill="#121312" d="M60.464,133.441C60.527,133.402 60.4,133.48 60.464,133.441z"/><path fill="#121312" d="M52.434,137.546C52.389,137.476 52.479,137.616 52.434,137.546z"/><path fill="#171817" d="M130.055,167.652C129.913,167.606 129.766,167.412 129.818,167.215C130.016,167.211 130.05,167.505 130.055,167.652z"/><path fill="#ebebeb" d="M176.113,166.306C176.423,166.069 176.705,166.143 177.376,166.425C177.204,166.628 176.645,166.623 176.113,166.306z"/><path fill="#e6e6e6" d="M49.067,38.672C48.955,38.95 48.749,38.967 48.233,38.976C48.273,38.783 48.623,38.597 49.067,38.672z"/><path fill="#0d0d0d" d="M113.913,166.007C114.138,166.559 114.293,167.122 114.23,167.832C113.969,167.672 113.924,167.366 113.82,166.598C113.76,166.137 113.841,166.018 113.913,166.007z"/><path fill="#171717" d="M146.524,143.64C147.231,150.108 147.23,150.128 141.189,149.925C137.712,149.808 134.236,149.474 130.761,149.487C127.198,149.499 125.77,146.974 127.163,144.715C130.6,139.14 128.827,133.295 128.99,127.619C129.179,121.005 130.886,118.915 137.635,119.158C144.225,119.395 145.329,120.743 145.37,127.22C145.403,132.586 145.927,137.948 146.524,143.64M139.198,134.947C140.365,134.01 141.532,133.073 142.986,131.906C141.78,131.489 140.534,131.059 139.404,130.668C139.284,128.509 139.182,126.688 139.002,123.452C137.24,127.569 136.1,130.234 135.043,132.704C140.376,133.956 135.245,140.274 139.19,143.213C139.19,140.384 139.19,138.096 139.198,134.947M136.529,147.055C139.252,147.055 141.976,147.055 144.7,147.055C144.697,146.311 144.694,145.566 144.691,144.822C139.724,144.566 134.758,144.311 129.791,144.055C129.689,144.737 129.587,145.419 129.485,146.101C131.518,146.416 133.551,146.732 136.529,147.055z"/><path fill="#0d0d0d" d="M113.571,119.231C118.517,119.851 120.277,122.096 120.11,126.941C119.917,132.564 121.029,138.222 121.322,143.879C121.434,146.056 121.685,148.938 118.101,148.787C113.015,148.574 107.937,148.178 101.551,147.778C102.457,145.107 103.667,142.921 103.866,140.646C104.226,136.535 104.024,132.37 103.981,128.229C103.894,119.952 104.649,119.186 113.571,119.231M107.189,145.377C110.788,145.61 114.388,145.843 118.995,146.142C116.007,143.013 106.982,142.045 105.254,143.804C105.177,143.882 105.936,144.781 107.189,145.377M116.956,131.515C115.63,131.143 114.303,130.771 112.746,130.334C112.746,128.154 112.746,126.265 112.746,124.376C112.538,124.373 112.33,124.37 112.121,124.367C111.979,126.438 111.838,128.51 111.701,130.507C109.595,130.906 107.787,131.249 105.978,131.592C106.037,131.912 106.096,132.233 106.155,132.553C108.09,132.804 110.025,133.055 111.861,133.293C111.984,136.026 112.086,138.295 112.188,140.565C112.393,140.565 112.599,140.565 112.804,140.565C112.934,138.008 113.064,135.452 113.192,132.949C114.543,132.737 115.67,132.561 116.956,131.515z"/><path fill="#ebebeb" d="M176.417,139.539C175.438,140.437 174.638,141.071 173.838,141.705C173.654,141.154 173.471,140.603 173.288,140.052C174.391,139.792 175.493,139.533 176.417,139.539z"/><path fill="#e8e9e9" d="M169.511,114.533C169.092,114.607 168.833,114.525 168.574,114.443C168.863,114.16 169.152,113.878 169.441,113.596C169.518,113.856 169.594,114.116 169.511,114.533z"/><path fill="#080808" d="M190.81,85.033C190.612,81.576 189.996,78.545 190.372,75.641C190.592,73.935 192.305,71.208 193.498,71.126C195.299,71.001 198.641,72.536 198.865,73.802C199.849,79.367 199.948,85.088 200.368,90.754C196.738,90.754 193.849,90.754 190.809,90.754C190.809,88.751 190.809,87.131 190.81,85.033z"/><path fill="#1c1c1c" d="M217.195,130.932C214.931,131.518 213.131,132.11 210.812,132.873C210.812,129.183 210.812,125.136 210.812,120.237C216.477,124.337 222.757,123.369 229.454,123.015C229.454,126.641 229.454,130.254 229.454,132.617C225.477,132.051 221.568,131.495 217.195,130.932z"/><path fill="#dfe0e0" d="M220.354,117.055C221.202,116.848 221.785,116.723 222.368,116.598C222.455,116.867 222.541,117.135 222.627,117.404C221.794,117.548 220.963,117.701 220.126,117.822C220.048,117.833 219.857,117.635 219.864,117.544C219.874,117.404 220.008,117.272 220.354,117.055z"/><path fill="#0d0d0d" d="M53.516,83.875C54.697,84.879 55.451,85.927 56.584,86.988C57.031,87.757 57.1,88.511 56.801,89.528C55.955,90.179 55.476,90.568 54.997,90.957C53.924,91.04 52.851,91.123 51.39,91.083C51.003,90.96 51.008,90.471 51.001,90.227C51.082,88.386 51.027,86.761 51.34,85.21C51.446,84.683 52.48,84.343 53.516,83.875z"/><path fill="#171817" d="M55.318,91.016C55.476,90.568 55.955,90.179 56.673,89.886C56.488,90.346 56.063,90.71 55.318,91.016z"/><path fill="#e5e5e5" d="M59.498,91.471C59.911,91.398 60.166,91.48 60.421,91.561C60.136,91.84 59.852,92.118 59.567,92.396C59.491,92.14 59.415,91.883 59.498,91.471z"/><path fill="#141414" d="M123.115,82.004C123.089,80.703 123.08,79.872 123.07,79.042C123.005,73.398 127.399,70.677 132.452,73.377C133.255,73.806 133.881,75.099 134.042,76.082C134.307,77.7 134.13,79.392 134.132,81.052C134.135,83.684 134.133,86.316 134.133,89.149C130.201,89.348 126.799,89.52 123.131,89.706C123.131,87.037 123.131,84.756 123.115,82.004z"/><path fill="#212021" d="M96.045,90.221C93.636,90.226 91.665,90.226 89.287,90.226C89.287,85.443 89.287,80.434 89.287,75.199C90.173,74.967 91.091,74.631 92.038,74.495C99.2,73.468 99.616,73.841 99.688,81.154C99.708,83.14 100.126,85.24 99.602,87.071C99.247,88.315 97.569,89.181 96.045,90.221z"/><path fill="#edeeee" d="M158.454,163.308C158.658,163.443 158.709,163.834 158.569,164.482C158.353,164.346 158.327,163.955 158.454,163.308z"/><path fill="#cbcccb" d="M139.194,135.378C139.19,138.096 139.19,140.384 139.19,143.213C135.245,140.274 140.376,133.956 135.043,132.704C136.1,130.234 137.24,127.569 139.002,123.452C139.182,126.688 139.284,128.509 139.404,130.668C140.534,131.059 141.78,131.489 142.986,131.906C141.532,133.073 140.365,134.01 139.194,135.378z"/><path fill="#cbcccb" d="M136.056,147.051C133.551,146.732 131.518,146.416 129.485,146.101C129.587,145.419 129.689,144.737 129.791,144.055C134.758,144.311 139.724,144.566 144.691,144.822C144.694,145.566 144.697,146.311 144.7,147.055C141.976,147.055 139.252,147.055 136.056,147.051z"/><path fill="#d1d3d2" d="M106.748,145.338C105.936,144.781 105.177,143.882 105.254,143.804C106.982,142.045 116.007,143.013 118.995,146.142C114.388,145.843 110.788,145.61 106.748,145.338z"/><path fill="#ebebeb" d="M116.877,131.95C115.67,132.561 114.543,132.737 113.192,132.949C113.064,135.452 112.934,138.008 112.804,140.565C112.599,140.565 112.393,140.565 112.188,140.565C112.086,138.295 111.984,136.026 111.861,133.293C110.025,133.055 108.09,132.804 106.155,132.553C106.096,132.233 106.037,131.912 105.978,131.592C107.787,131.249 109.595,130.906 111.701,130.507C111.838,128.51 111.979,126.438 112.121,124.367C112.33,124.37 112.538,124.373 112.746,124.376C112.746,126.265 112.746,128.154 112.746,130.334C114.303,130.771 115.63,131.143 116.877,131.95z"/></svg>