<svg xmlns="http://www.w3.org/2000/svg" viewBox="0 0 257 112" xml:space="preserve"><path fill="#070707" d="M113.01 9.19c2.461-.027 4.924-.053 7.707.538.965 4.433 3.591 3.935 6.26 3.345 4.03-.264 8.062-.529 12.457-.53.43.153.497.04.563-.071l-.688.534c-.08-.692-.161-1.384.276-2.578.808-.684 1.097-.866 1.386-1.049.761-.152 1.522-.304 2.818-.165 1.096.114 1.657-.062 2.219-.238 8.48.137 8.324.194 11.278 8.29.68 1.863 2.829 3.191 4.301 4.765l1.064-.725.465 5.312 1.297.576 2.533-5.476c1.21.325 3.03.798 4.838 1.318.25.072.478.346.638.58.745 1.094 1.462 2.206 2.19 3.311.811-1.09 1.407-2.738 2.48-3.156 2.124-.826 4.513-.973 7.113-1.461.178 2.546.25 4.004.39 5.455.128 1.316.33 2.625.69 5.407 1.363-2.152 2.535-3.234 2.738-4.475.474-2.89 2.112-4.49 4.675-3.506 1.7.652 3.309 2.667 4.022 4.446.68 1.697.146 3.88.146 5.955 4.677-2.07 4.677-2.07 6.006-8.08 5.684-.942 5.69-.936 7.374 7.51.634 3.737.942 6.72 1.252 9.733h23.446l1.307-12.327-1.517-.986c-2.31 2.116-4.62 4.23-7.264 6.653l-.97-5.764-1.355-.712c-.904 1.354-1.732 2.768-2.738 4.042-.673.852-1.598 1.505-2.5 2.058-.254-.428-.468-.602-.858-1.022-1.175-1.089-2.227-1.868-3.279-2.648l.384-6.95c7.695 0 15.282-.216 22.828.245 1.062.065 2.785 3.466 2.728 5.277-.279 8.96-1.107 17.901-1.623 26.856-.172 2.987.37 6.046-.048 8.982-.857 6.02 2.41 8.35 7.513 9.584 2.206.534 4.302 1.52 6.448 2.3l-.24 1.913-86.716 13.702.007 1.057 16.464 3.134.02 1.633c-7.88.162-15.76.464-23.641.461-24.16-.008-48.321-.122-72.482-.236-1.683-.008-3.365-.353-5.038-1.584l14.386-2.401.304-1.756c-1.933-.733-3.808-1.813-5.807-2.145-21.064-3.503-42.148-6.88-63.224-10.307-5.534-.9-11.057-1.858-17.227-2.898 1.172-.772 1.75-1.317 2.437-1.58 12.206-4.68 11.326-2.77 11.092-16.56-.166-9.755-1.381-19.503-2.376-29.23-.489-4.777.9-7.334 6.715-6.504 2.872-.134 5.098-.56 7.323-.986.16-.105.32-.21.783.119 2.67 1.217 5.134 3.565 7.227 0 1.07-.047 2.14-.092 3.625.262 1.047.52 1.678.64 2.31.759.78-.156 1.56-.313 2.748.037 1.33.929 2.252 1.351 3.175 1.774l.64 6.298 5.401-1.366c-1.03-5.12 1.597-7.716 6.795-8.287 2.557 1.6.813 8.075 6.673 6.102 2.34-9.698 2.704-10.053 9.812-9.312l1.369 5.578c2.086-3.239 3.15-7.018 5.338-7.851 4.83-1.84 2.329 4.512 5.561 5.965l2.395-8.082 3.842 6.141c.705-3.841 1.893-7.394 1.86-10.936-.034-3.72 1.113-4.832 5.041-3.658 1.134.085 1.776-.162 2.417-.41m-73 23.972-3.716-2.751-3.17 4.584c-.735-.789-1.333-1.928-2.238-2.284-1.352-.531-2.921-.51-4.512-.741.242 3.81.131 6.97.784 9.962.264 1.211 2.152 2.876 3.37 2.935 6.121.3 12.266.138 18.848.138v-13.84l-1.2-1.02c-1.405 1.262-2.728 2.638-4.248 3.742-.798.578-1.941.68-3.117.625-.166-.233-.381-.403-.801-1.35M120 43s-.016-.028-.901.093c-3.277-.693-6.523-1.635-9.835-2.03-7.246-.861-14.215 1.087-21.313 2.149-6.07.907-11.5 4.555-17.937 3.738-1.437-.183-3.041.957-4.569 1.488 7.333 2.24 14.536 3.048 21.446 4.932 6.131 1.672 11.31 4.005 15.935-3.286 3.794-5.981 11.363-3.567 17.755-4.528 8.623.123 17.248.38 25.87.316 4.893-.036 9.506 1.445 10.931 5.908 1.498 4.69 4.28 4.66 7.565 4.021 9.642-1.877 19.226-4.053 28.833-6.111l-.004-.967-17.348-.82-.03-.457 10.096-1.697c-21.357-4.988-42.917-4.92-65.194-4.712-.443.65-.885 1.299-1.3 1.963M47.644 76.399c1.163.818 2.214 1.99 3.506 2.399 12.983 4.099 26.286 6.52 39.892 7.166 2.858.136 5.728.02 8.592.02l.489-1.994-6.979-3.165 5.838-1.232.01-.842-7.407-1.13.037-.435 7.808-.539c1.376-5.561-4.554-3.909-6.579-7.031 6.102 1.794 7.92-.593 6.445-5.725-.361-1.257-1.727-2.225-2.631-3.325-.98.827-2.004 1.609-2.93 2.494-1.14 1.091-2.198 2.268-3.291 3.408l-1.267-1.006-.356-7.132c-2.88-.314-6.501-3.116-7.243 2.847-.05.398-2.823.81-4.223.576-1.094-.182-2.024-1.354-3.17-2.192.19-1.23.411-2.646.68-4.372-2.61-.298-4.996-.569-7.533-.857-.66 2.533-1.194 4.575-1.72 6.59-6.298.442-4.094-3.666-3.645-6.482-.938-.624-1.597-1.105-2.295-1.52-4.368-2.592-5.541-2.198-7.258 2.418-.173.466-.164 1.126-.488 1.386-1.027.825-2.172 1.503-3.271 2.238-.543-1.022-1.397-1.997-1.558-3.076-.261-1.757-.07-3.583-.07-6.118L31.783 48.8l.879 5.136 5.36 2.673-5.501 2.494 5.908 4.886-6.851 1.98 5.046 2.57-3.922 2.868.158 1.81c4.952.778 9.903 1.558 14.784 3.181m89.037-.791c4.628 4.865 6.16 10.77 5.309 17.191h9.932V71.236l-4.02-.53c1.8-1.467 4.113-2.467 4.137-3.521.126-5.377-.339-10.768-.607-16.361l-7.57.403c-.282 10.553-.377 10.748-4.593 10.215l-1.51-10.265h-4.947l-1.28 8.794-1.506.448c-.593-1.713-.875-3.637-1.861-5.082-1.132-1.658-2.708-3.57-4.445-4.027-.893-.235-2.85 2.284-3.778 3.878-.77 1.323-.735 3.115-1.113 4.976-6.744-1.013-2.135-6.741-5.121-10.197-1.756 1.08-5.356 2.225-5.395 3.482-.411 13.22-.254 26.459-.254 39.593 7.362 1.212 7.931.905 9.82-5.334.52-1.717.512-3.641 1.25-5.236 4.17-9.006 5.821-12.212 16.482-7.54.153.067.3.143 1.07.676m71.864-8.61-5.523-.675c2.81-1.733 6.661-1.922 7.972-3.843 1.512-2.217 1.984-6.7.677-8.829-1.223-1.992-5.364-2.194-8.46-3.266-.787 7.665-.787 7.665-4.912 7.464-1.561-4.645-2.87-4.972-7.885-2.748l-3.237 6.88-5.074-4.966c-5.768.04-5.768.04-7.4 7.804-4.811 1.548-3.287-3.876-5.367-5.014-4.25-.406-5.812 1.41-5.478 5.524.12 1.488-1.026 3.078-2.079 5.938 1.042 2.816 3.67 5.752 8.856 5.796l-6.738 1.722c.593 3.25-1.251 8.29 3.832 7.958 13.497-.884 27.078-1.81 39.966-6.715 3.052-1.162 4.205-2.714 3.026-5.727l-10.776 1.406-.192-1.563c2.862-.722 5.766-1.314 8.564-2.23 1.081-.355 2.295-1.285 2.724-2.269.237-.543-1.027-1.74-2.496-2.647m-95.238-51.053-1.88 20.563h11.605v-11.31h16.155l.78 11.532h9.937V14.418c-2.08.998-3.54 1.744-5.038 2.405-1.295.571-2.62 1.453-3.954 1.494-5.808.178-11.632.27-17.432.01-1.785-.08-3.516-1.376-5.272-2.116l.312-1.278a162 162 0 0 0-5.213 1.012m118.31 37.756c.12-1.114.242-2.227.367-3.378h-15.01v29.131l15.678-6.033-6.212-4.416c1.852-1.185 4.967-2.417 1.804-4.682 1.14-1.756 2.416-3.061 2.742-4.572.12-.551-2.02-1.59-3.708-2.835 1.255-1.047 2.41-2.011 4.339-3.215"/><path fill="#f3f3f4" d="M219.997 37.908c.812-.742 1.737-1.395 2.41-2.247 1.006-1.274 1.834-2.688 2.738-4.042l1.355.712.97 5.764 7.264-6.653 1.517.986-1.307 12.327h-23.446c-.31-3.012-.618-5.996-1.055-9.376 1.458-.69 3.046-.982 4.98-1.302 1.4.752 2.451 1.531 3.578 2.892.382.7.69.82.996.94"/><path fill="#111" d="M43.67 26.073c-1.756 3.667-4.22 1.32-6.628.217 2.07-.318 4.18-.318 6.627-.217m-8.009-.083c-1.888.492-4.114.918-6.56 1.026 1.928-.576 4.074-.834 6.56-1.026m91.02-13.106c-2.372.779-4.998 1.277-5.617-2.944 1.79.65 3.555 1.702 5.617 2.944M55.928 28.666c-.986-.082-1.908-.504-2.881-1.256.947.086 1.945.5 2.88 1.256m89.921-19.847c-.402.333-.963.51-1.674.467.405-.354.96-.49 1.674-.467m-33.181.322c-.3.296-.941.543-1.634.523.396-.368.844-.47 1.634-.523m-62.92 17.838c-.437.097-1.068-.022-1.73-.406.49-.113 1.013.038 1.73.406m89.589-13.976c.202-.175.432-.353.66-.531-.065.112-.131.224-.428.46-.232.124-.204.068-.232.07m1.349-3.758c-.003.318-.292.5-.843.69.011-.269.284-.547.843-.69"/><path fill="#f8f8f7" d="M47.68 75.977c-4.917-1.201-9.868-1.98-14.82-2.76l-.158-1.809 3.922-2.869-5.046-2.569 6.851-1.98-5.908-4.886 5.5-2.494-5.36-2.673c-.154-.907-.45-2.638-.878-5.136l15.244.967c0 2.535-.191 4.36.07 6.118.161 1.079 1.015 2.054 1.558 3.076 1.1-.735 2.244-1.413 3.271-2.238.324-.26.315-.92.488-1.386 1.717-4.616 2.89-5.01 7.258-2.418.698.415 1.357.896 2.295 1.52-.449 2.816-2.653 6.924 3.645 6.482.526-2.015 1.06-4.057 1.72-6.59l7.533.857c-.269 1.726-.49 3.142-.68 4.372 1.146.838 2.076 2.01 3.17 2.192 1.4.233 4.173-.178 4.223-.576.742-5.963 4.363-3.161 7.243-2.847l.356 7.132 1.267 1.006c1.093-1.14 2.151-2.317 3.292-3.408.925-.885 1.949-1.667 2.929-2.494.904 1.1 2.27 2.068 2.63 3.325 1.475 5.132-.342 7.519-6.444 5.725 2.025 3.122 7.955 1.47 6.579 7.031l-7.808.539-.037.435 7.407 1.13-.01.842-5.838 1.232 6.979 3.165-.49 1.994c-2.863 0-5.733.116-8.59-.02-13.607-.646-26.91-3.067-39.893-7.166-1.292-.408-2.343-1.581-3.47-2.821"/><path fill="#f9f9f9" d="M136.372 75.377c-.46-.302-.608-.378-.76-.445-10.662-4.672-12.312-1.466-16.483 7.54-.738 1.595-.73 3.52-1.25 5.236-1.889 6.24-2.458 6.546-9.82 5.334 0-13.134-.157-26.373.254-39.593.04-1.257 3.639-2.402 5.395-3.482 2.986 3.456-1.623 9.184 5.121 10.197.378-1.861.344-3.653 1.113-4.976.927-1.594 2.885-4.113 3.778-3.878 1.737.457 3.313 2.369 4.445 4.027.986 1.445 1.268 3.37 1.86 5.082l1.508-.448c.42-2.891.84-5.783 1.279-8.794h4.947l1.51 10.265c4.216.533 4.31.338 4.593-10.215l7.57-.403c.268 5.593.733 10.984.607 16.361-.024 1.054-2.337 2.054-4.137 3.52l4.02.53V92.8h-9.932c.851-6.42-.681-12.326-5.618-17.422"/><path fill="#f6f6f6" d="M208.986 67c1.028.904 2.292 2.102 2.055 2.645-.429.984-1.643 1.914-2.724 2.268-2.798.917-5.702 1.509-8.564 2.23l.192 1.564 10.776-1.406c1.179 3.013.026 4.565-3.026 5.727-12.888 4.905-26.47 5.83-39.966 6.715-5.083.333-3.239-4.707-3.832-7.958l6.738-1.722c-5.185-.044-7.814-2.98-8.856-5.796 1.053-2.86 2.2-4.45 2.079-5.938-.334-4.114 1.229-5.93 5.478-5.524 2.08 1.138.556 6.562 5.366 5.014 1.633-7.764 1.633-7.764 7.401-7.804l5.074 4.967 3.237-6.88c5.015-2.225 6.324-1.898 7.885 2.747 4.125.201 4.125.201 4.912-7.464 3.096 1.072 7.237 1.274 8.46 3.266 1.307 2.13.835 6.612-.677 8.83-1.31 1.92-5.161 2.109-7.972 3.842 1.841.225 3.682.45 5.964.677"/><path fill="#f4f4f4" d="M113.73 15.834a251 251 0 0 1 4.79-.901l-.312 1.278c1.756.74 3.487 2.036 5.272 2.116 5.8.26 11.624.168 17.432-.01 1.334-.041 2.659-.923 3.954-1.494 1.498-.661 2.959-1.407 5.038-2.405V36.73h-9.937l-.78-11.532h-16.155v11.31h-11.604c.655-7.167 1.267-13.865 2.301-20.674m8.273 25.333c21.576-.339 43.136-.406 64.493 4.582l-10.097 1.697.03.457 17.349.82.004.967c-9.607 2.058-19.191 4.234-28.833 6.111-3.284.64-6.067.668-7.565-4.021-1.425-4.463-6.038-5.944-10.93-5.908-8.623.064-17.248-.193-26.161-.959-.296-1.075-.302-1.508-.307-1.941 0 0 .016.028.312-.009.765-.623 1.235-1.21 1.705-1.796"/><path fill="#f2f2f2" d="M119.542 43.033c.448.372.454.805.46 1.562-5.812 1.922-13.38-.492-17.175 5.489-4.626 7.291-9.804 4.958-15.935 3.286-6.91-1.884-14.113-2.692-21.446-4.932 1.528-.531 3.132-1.67 4.569-1.488 6.436.817 11.866-2.831 17.937-3.738 7.098-1.062 14.067-3.01 21.313-2.148 3.312.394 6.558 1.336 10.277 1.969"/><path fill="#f8f8f8" d="M231.23 53.82c-1.541 1.085-2.697 2.049-3.952 3.096 1.689 1.244 3.827 2.284 3.708 2.835-.326 1.51-1.602 2.816-2.742 4.572 3.163 2.265.048 3.497-1.804 4.682l6.212 4.416-15.677 6.033V50.323h15.01c-.126 1.15-.247 2.264-.754 3.498"/><path fill="#f5f5f5" d="M40.998 34.882c.988-.317 2.131-.418 2.929-.996 1.52-1.104 2.843-2.48 4.248-3.743l1.2 1.02v13.841c-6.582 0-12.727.162-18.848-.138-1.218-.06-3.106-1.724-3.37-2.935-.653-2.993-.542-6.152-.784-9.962 1.59.23 3.16.21 4.512.741.905.356 1.503 1.495 2.239 2.284l3.17-4.584c.983.728 2.349 1.74 3.742 3.443.339.805.65.917.962 1.03"/><path fill="#f2f2f2" d="M121.652 41.102c-.12.652-.59 1.238-1.37 1.854.134-.62.576-1.27 1.37-1.854"/><path fill="#0e0e0e" d="M219.907 37.719c-.217.07-.524-.05-.783-.44.315-.162.53.012.783.44"/><path fill="#111" d="M40.904 34.697c-.217.073-.529-.04-.791-.423.316-.166.531.004.791.423"/></svg>