<svg xmlns="http://www.w3.org/2000/svg" viewBox="0 0 206 108" xml:space="preserve"><path fill="#090909" d="M103.967,10.986C110.814,8.546 113.383,10.553 112.253,17.554C110.894,25.976 109.453,34.384 108.047,42.798C108.779,42.622 109.51,42.446 110.242,42.269C112.775,44.676 115.309,47.083 118.091,49.727C118.591,43.925 118.421,38.738 119.775,33.984C120.262,32.271 124.411,31.6 127.09,30.361C128.357,32.543 129.25,34.08 130.356,35.986C133.062,33.719 134.182,25.801 139.622,33.319C142.405,31.15 145.233,28.471 148.041,33.031C149.933,30.105 151.555,29.054 153.998,32.387C154.647,33.273 157.198,33.374 158.61,32.95C160.857,32.275 162.882,30.857 166.015,29.226C166.015,41.373 166.015,51.734 166.068,63.005C166.103,73.41 165.116,82.984 168.07,92.276C169.018,84.701 168.954,77.169 169.064,69.639C169.091,67.781 169.688,65.931 170.023,64.077C170.81,64.513 171.742,64.803 172.355,65.413C173.838,66.89 174.89,69.361 176.615,69.937C184.154,72.456 183.367,78.825 184.021,84.595C184.134,85.583 184.071,86.593 184.066,87.592C184.041,92.349 185.267,96.03 190.903,96.661C192.69,96.862 194.379,97.942 197.595,99.199C194.084,100.044 192.022,100.969 189.959,100.974C141.667,101.087 93.376,101.114 45.085,101.121C34.424,101.122 23.762,100.998 13.102,100.894C11.056,100.875 9.013,100.681 6.968,100.568C6.924,100.066 6.879,99.564 6.835,99.062C10.206,98.112 13.525,96.779 16.962,96.315C20.799,95.797 21.826,93.834 22.006,90.321C22.941,72.044 23.933,53.779 21.086,35.566C20.887,34.297 21.06,32.97 21.06,31.313C24.018,31.313 26.763,31.313 29.461,31.313C29.979,32.957 30.44,34.42 30.9,35.883C31.244,35.892 31.588,35.901 31.931,35.91C32.369,34.368 32.806,32.826 33.34,30.941C36.048,31.827 41.015,27.351 41.393,36.124C44.945,34.231 47.795,32.712 51.714,30.624C60.086,32.816 60.086,32.816 61.345,48.153C62.961,46.15 64.71,44.983 64.782,43.721C65.125,37.747 65.866,31.58 64.748,25.815C64.032,22.118 61.539,18.782 61.852,14.514C62.132,10.692 62.585,8.361 67.387,9.732C69.337,10.288 72.017,8.501 73.863,9.168C78.956,11.011 83.895,10.356 89.058,10.107C91.493,9.99 93.771,12.233 96.481,9.595C97.212,8.883 100.221,10.512 102.397,11.383C101.709,12.557 100.864,13.482 99.896,14.254C98.648,15.251 96.535,17.19 96.117,16.888C91.649,13.667 87.17,18.701 82.783,16.706C82.502,16.578 81.441,17.777 81.056,18.52C80.952,18.721 81.99,19.966 82.511,19.971C88.859,20.029 95.214,20.063 101.551,19.764C102.455,19.722 103.793,17.991 104.016,16.86C104.389,14.979 104.022,12.952 103.967,10.986M32.856,86.827C32.972,86.964 33.088,87.101 32.821,87.856C31.88,89.05 30.94,90.245 29.999,91.439C31.537,92.123 33.054,93.334 34.617,93.397C39.937,93.61 45.28,93.545 50.6,93.301C52.129,93.23 53.613,92.196 55.118,91.603C55.029,91.089 54.94,90.575 54.851,90.06C51.721,89.692 48.591,89.324 44.529,88.846C48.482,87.429 51.286,86.424 53.855,85.503C53.855,79.588 53.855,73.85 53.855,68.387C51.651,67.952 49.859,67.599 47.743,67.182C50.248,65.941 53.547,65.191 53.683,64.06C53.98,61.582 52.675,58.912 52.24,57.178C52.589,53.542 52.887,50.431 53.214,47.009C46.04,47.009 39.726,47.018 33.412,47.005C30.826,47 29.435,47.901 29.548,50.843C29.735,55.744 29.599,60.657 29.599,65.29C32.614,65.947 34.389,66.335 36.165,66.722C36.147,67.03 36.128,67.339 36.11,67.648C34.456,68.198 32.802,68.749 31.167,69.293C30.803,74.247 29.979,79.232 37.312,80.452C34.972,81.084 33.148,81.166 31.883,82.05C30.917,82.724 30.659,84.412 30.086,85.648C30.897,85.902 31.708,86.155 32.856,86.827M99.903,79.614C101.562,84.434 103.221,89.254 104.933,94.228C109.848,91.781 116.216,96.319 120.771,90.717C119.009,90.072 117.606,89.558 114.909,88.57C117.763,88.012 119.247,87.722 120.409,87.494C123.207,79.535 118.475,77.391 111.968,76.584C122.233,75.439 122.485,75.186 120.502,68.275C101.577,68.275 82.676,68.275 63.264,68.275C63.623,75.191 63.816,81.802 64.378,88.381C64.624,91.268 66.238,93.208 69.673,93.04C73.157,92.87 76.671,92.876 80.148,93.132C83.741,93.397 84.9,92.2 85.167,88.429C85.861,78.638 90.867,75.57 99.903,79.614M131.111,86.731C131.636,93.959 131.637,94.037 139.025,93.933C143.828,93.865 148.632,93.594 153.424,93.252C154.28,93.191 155.08,92.335 156.355,91.58C153.31,90.744 150.973,90.103 148.635,89.461C148.704,89.075 148.772,88.69 148.841,88.304C150.997,88.129 153.153,87.954 155.376,87.774C155.376,85.047 155.376,82.664 155.376,80.314C153.033,80.01 150.969,79.742 148.906,79.474C156.688,76.065 156.688,76.065 154.862,69.292C152.915,69.082 150.893,68.864 148.87,68.646C149.88,67.15 151.208,66.778 152.316,66.064C153.295,65.432 154.755,64.416 154.752,63.574C154.732,58.168 154.367,52.764 154.131,47.676C145.819,47.676 138.016,47.676 130.149,47.676C130.546,53.882 130.899,59.402 131.249,64.885C133.331,64.98 134.985,65.056 136.639,65.132C131.145,65.289 131.423,69.348 131.294,73.029C131.144,77.302 131.126,81.579 131.111,86.731M102.989,54.684C103.05,61.131 98.904,57 96.342,57.767C96.108,55.353 95.921,53.424 95.689,51.032C93.755,51.145 92.051,51.246 90.448,51.34C89.476,58.631 89.301,58.766 85.038,57.724C82.591,54.783 81.075,52.962 79.559,51.141C78.375,53.205 77.19,55.27 75.656,57.943C74.548,58.012 72.479,58.14 70.191,58.281C69.837,55.744 69.531,53.549 69.218,51.305C62.739,53.169 61.187,56.689 63.535,64.407C66.157,64.407 68.956,64.384 71.755,64.41C86.05,64.545 100.346,64.608 114.638,64.871C121.251,64.993 121.81,64.458 120.257,56.48C118.184,56.918 116.094,57.469 113.969,57.78C111.243,58.18 108.475,58.455 108.131,54.478C108.035,53.368 107.735,52.276 107.247,49.672C105.323,51.549 104.157,52.687 102.989,54.684M97.961,35.517C99.095,32.282 100.228,29.047 101.626,25.058C91.957,25.058 83.511,24.993 75.069,25.151C74.153,25.168 72.463,26.499 72.486,27.175C72.64,31.655 73.163,36.123 73.605,41.022C75.741,40.145 77.318,39.499 78.894,38.852C78.774,39.347 78.654,39.841 78.534,40.336C81.683,41.403 84.805,43.092 87.995,43.231C89.283,43.288 90.719,39.953 91.721,38.641C92.169,39.058 93.223,40.038 94.277,41.018C95.451,39.444 96.625,37.869 97.961,35.517M72.301,15.62C68.835,15.261 67.698,16.561 69.239,20.061C70.797,19.939 72.34,20.054 73.712,19.626C74.597,19.349 75.232,18.274 75.979,17.558C75.062,16.934 74.144,16.311 72.301,15.62z"/><path fill="#e4e4e4" d="M169.813,63.802C169.688,65.931 169.091,67.781 169.064,69.639C168.954,77.169 169.018,84.701 168.07,92.276C165.116,82.984 166.103,73.41 166.166,63.443C167.342,63.157 168.473,63.342 169.813,63.802z"/><path fill="#e1e1e1" d="M103.708,10.946C104.022,12.952 104.389,14.979 104.016,16.86C103.793,17.991 102.455,19.722 101.551,19.764C95.214,20.063 88.859,20.029 82.511,19.971C81.99,19.966 80.952,18.721 81.056,18.52C81.441,17.777 82.502,16.578 82.783,16.706C87.17,18.701 91.649,13.667 96.117,16.888C96.535,17.19 98.648,15.251 99.896,14.254C100.864,13.482 101.709,12.557 102.775,11.363C103.111,10.985 103.281,10.945 103.708,10.946z"/><path fill="#f9f9f8" d="M99.608,79.373C90.867,75.57 85.861,78.638 85.167,88.429C84.9,92.2 83.741,93.397 80.148,93.132C76.671,92.876 73.157,92.87 69.673,93.04C66.238,93.208 64.624,91.268 64.378,88.381C63.816,81.802 63.623,75.191 63.264,68.275C82.676,68.275 101.577,68.275 120.502,68.275C122.485,75.186 122.233,75.439 111.968,76.584C118.475,77.391 123.207,79.535 120.409,87.494C119.247,87.722 117.763,88.012 114.909,88.57C117.606,89.558 119.009,90.072 120.771,90.717C116.216,96.319 109.848,91.781 104.933,94.228C103.221,89.254 101.562,84.434 99.608,79.373z"/><path fill="#f7f8f7" d="M131.081,86.293C131.126,81.579 131.144,77.302 131.294,73.029C131.423,69.348 131.145,65.289 136.639,65.132C134.985,65.056 133.331,64.98 131.249,64.885C130.899,59.402 130.546,53.882 130.149,47.676C138.016,47.676 145.819,47.676 154.131,47.676C154.367,52.764 154.732,58.168 154.752,63.574C154.755,64.416 153.295,65.432 152.316,66.064C151.208,66.778 149.88,67.15 148.87,68.646C150.893,68.864 152.915,69.082 154.862,69.292C156.688,76.065 156.688,76.065 148.906,79.474C150.969,79.742 153.033,80.01 155.376,80.314C155.376,82.664 155.376,85.047 155.376,87.774C153.153,87.954 150.997,88.129 148.841,88.304C148.772,88.69 148.704,89.075 148.635,89.461C150.973,90.103 153.31,90.744 156.355,91.58C155.08,92.335 154.28,93.191 153.424,93.252C148.632,93.594 143.828,93.865 139.025,93.933C131.637,94.037 131.636,93.959 131.081,86.293M139.032,56.49C138.932,58.712 138.867,61.397 141.989,60.753C143.53,60.436 145.547,58.323 145.759,56.801C145.976,55.239 144.651,52.455 143.298,51.891C140.417,50.69 139.355,53.06 139.032,56.49z"/><path fill="#f7f7f7" d="M32.519,86.408C31.708,86.155 30.897,85.902 30.086,85.648C30.659,84.412 30.917,82.724 31.883,82.05C33.148,81.166 34.972,81.084 37.312,80.452C29.979,79.232 30.803,74.247 31.167,69.293C32.802,68.749 34.456,68.198 36.11,67.648C36.128,67.339 36.147,67.03 36.165,66.722C34.389,66.335 32.614,65.947 29.599,65.29C29.599,60.657 29.735,55.744 29.548,50.843C29.435,47.901 30.826,47 33.412,47.005C39.726,47.018 46.04,47.009 53.214,47.009C52.887,50.431 52.589,53.542 52.24,57.178C52.675,58.912 53.98,61.582 53.683,64.06C53.547,65.191 50.248,65.941 47.743,67.182C49.859,67.599 51.651,67.952 53.855,68.387C53.855,73.85 53.855,79.588 53.855,85.503C51.286,86.424 48.482,87.429 44.529,88.846C48.591,89.324 51.721,89.692 54.851,90.06C54.94,90.575 55.029,91.089 55.118,91.603C53.613,92.196 52.129,93.23 50.6,93.301C45.28,93.545 39.937,93.61 34.617,93.397C33.054,93.334 31.537,92.123 29.999,91.439C30.94,90.245 31.88,89.05 33.316,87.607C34.312,87.205 34.813,87.052 35.314,86.899C35.273,86.667 35.231,86.435 35.189,86.203C34.299,86.272 33.409,86.34 32.519,86.408M39.716,51.332C39.382,53.812 39.049,56.293 38.662,59.169C41.008,58.93 42.42,58.785 44.141,58.61C43.712,55.408 46.306,51.341 39.716,51.332z"/><path fill="#f4f5f5" d="M102.99,54.255C104.157,52.687 105.323,51.549 107.247,49.672C107.735,52.276 108.035,53.368 108.131,54.478C108.475,58.455 111.243,58.18 113.969,57.78C116.094,57.469 118.184,56.918 120.257,56.48C121.81,64.458 121.251,64.993 114.638,64.871C100.346,64.608 86.05,64.545 71.755,64.41C68.956,64.384 66.157,64.407 63.535,64.407C61.187,56.689 62.739,53.169 69.218,51.305C69.531,53.549 69.837,55.744 70.191,58.281C72.479,58.14 74.548,58.012 75.656,57.943C77.19,55.27 78.375,53.205 79.559,51.141C81.075,52.962 82.591,54.783 85.038,57.724C89.301,58.766 89.476,58.631 90.448,51.34C92.051,51.246 93.755,51.145 95.689,51.032C95.921,53.424 96.108,55.353 96.342,57.767C98.904,57 103.05,61.131 102.99,54.255z"/><path fill="#f5f5f4" d="M97.88,35.906C96.625,37.869 95.451,39.444 94.277,41.018C93.223,40.038 92.169,39.058 91.721,38.641C90.719,39.953 89.283,43.288 87.995,43.231C84.805,43.092 81.683,41.403 78.534,40.336C78.654,39.841 78.774,39.347 78.894,38.852C77.318,39.499 75.741,40.145 73.605,41.022C73.163,36.123 72.64,31.655 72.486,27.175C72.463,26.499 74.153,25.168 75.069,25.151C83.511,24.993 91.957,25.058 101.626,25.058C100.228,29.047 99.095,32.282 97.88,35.906z"/><path fill="#f1f1f0" d="M72.764,15.654C74.144,16.311 75.062,16.934 75.979,17.558C75.232,18.274 74.597,19.349 73.712,19.626C72.34,20.054 70.797,19.939 69.239,20.061C67.698,16.561 68.835,15.261 72.764,15.654z"/><path fill="#0e0e0e" d="M139.057,56.064C139.355,53.06 140.417,50.69 143.298,51.891C144.651,52.455 145.976,55.239 145.759,56.801C145.547,58.323 143.53,60.436 141.989,60.753C138.867,61.397 138.932,58.712 139.057,56.064z"/><path fill="#0b0c0b" d="M40.131,51.17C46.306,51.341 43.712,55.408 44.141,58.61C42.42,58.785 41.008,58.93 38.662,59.169C39.049,56.293 39.382,53.812 40.131,51.17z"/><path fill="#090909" d="M32.687,86.617C33.409,86.34 34.299,86.272 35.189,86.203C35.231,86.435 35.273,86.667 35.314,86.899C34.813,87.052 34.312,87.205 33.507,87.298C33.088,87.101 32.972,86.964 32.687,86.617z"/></svg>