<svg xmlns="http://www.w3.org/2000/svg" viewBox="0 0 238 117" xml:space="preserve"><path fill="#070707" d="M96.853 104.308c-3.897 1.079-.925 3.181-.353 4.4.532 1.135 2.205 1.735 3.376 2.57l-.35 1.533-92.053-11.213C13.49 100.185 18.12 99.171 22.709 98c4.158-1.062 8.273-2.294 12.407-3.452 5.257-1.474 5.106-6.217 5.542-10.102a399 399 0 0 0 2.196-28.78c.087-2.201-1.84-4.475-2.81-6.729-.353-.823-.87-1.683-.877-2.53-.084-9.78-.125-19.563-.056-29.343.009-1.234.71-2.463 1.1-3.728 2.74.308 5.748-1.33 7.22 2.576.2.529 4.362.569 5.576-.468 4.663-3.986 5.335-4.192 9.72-.061.593.56 1.309.99 1.957 1.471 1.96-1.622 3.684-3.862 5.902-4.587 1.405-.46 3.549 1.336 6.3 2.527l12.56-1.677c.813 8.843 1.542 16.783 2.27 24.724l1.976.03.995-7.743 6.142-.364 4.056 7.697c3.141-8.515 3.138-8.49 11.846-7.483 1.462.169 2.967.085 4.444-.012 4.182-.275 8.789-1.464 9.418 5.016.034.35 1.105.598 2.4 1.25l1.802-8.949 5.985 8.474 1.657-.52 1.469-22.882c2.604.963 5.228 2.318 8.007 2.825 1.838.335 4.426.09 5.753-1.01 3.13-2.597 6.944-3.109 9.461.093 2.17 2.76 3.99 2.21 6.143.417 3.35-2.79 6.55-4.83 9.594.498.303.53 2.314.22 3.506.082 3.46-.4 6.907-.912 11.403-1.522 0 10.574-.13 19.877.067 29.173.075 3.541-.465 6.227-4.97 6.744 2.032 12.267 3.798 24.19 6.046 36.023 1.343 7.065 7.65 11.598 14.702 12.28 4.325.42 8.55 1.882 12.82 2.876l-.28 1.635c-4.988.511-9.982.966-14.962 1.543-19.077 2.21-38.138 4.563-57.23 6.639-6.407.697-12.887.727-19.673.494-.572-2.234 1.516-4.775-2.078-5.172-1.729-.644-3.442-1.788-5.19-1.846-6.727-.222-13.465-.097-21.035-.106-3.603.092-6.37.19-9.137.287m86.06-12.867c-.184-.303-.453-.46-.584-1.257l2.347-9.85-14.336-.952.066-1.553h13.086V63.452l-10.12.724-1.655 6.179-1.693-.17c-1.474-3.3-1.602-6.72.63-10.14.448-.01.896-.019 2.032.456l11.237.62c-.435-2.973-.811-5.55-1.05-8.63-.29-.125-.58-.252-1.461-.852-2.818.167-5.636.333-8.75-.031-.557-.163-1.114-.326-2.586-.67h-13.974c0 8.222.015 15.826-.008 23.43-.009 2.817 1.342 3.761 4.082 3.507 1.783-.166 3.614.181 5.423.299q.016.708.028 1.417l-9.84.7c1.445 4.015-2.275 9.108 3.833 11.39-6.157 1.88-2.842 6.512-3.493 10.263 2.941 0 5.425.118 7.894-.027 4.278-.25 8.012-5.41 5.886-8.926-2.266-3.747.983-5.31 1.606-8.146-1.104 5.183 3.403 4.612 5.456 6.696-.316.21-.633.42-1.838.56-.494.832-1.597 2.159-1.385 2.421 1.784 2.206.997 7.179 5.444 6.331 2.124-.405 4.225-2.638 5.633-4.558 1.171-1.597 1.16-3.882-1.91-4.854M70.501 99.714c.174.072.349.144.724.934 2.931.68 5.862 1.36 9.277 2.239.1-.292.2-.584.518-1.753-.067-8.907-.067-8.907-6.628-9.23-.435-.04-.87-.082-1.395-.926l6.868-2.416c.315-7.847.31-7.817-6.937-8.864-1.187-.171-2.317-.74-3.474-1.126l.147-.815h10.625l-1.338-20.044c-8.864-1.156-8.864-1.156-8.895 6.894-.003.833.287 1.848-.084 2.46-.709 1.17-1.796 2.11-2.726 3.145-1.055-1.103-2.893-2.124-3.02-3.326-.397-3.742-.145-7.553-.145-11.702 5.233.25 9.92.472 14.516.69.894-3.322.643-5.028-2.93-4.943-7.481.178-14.97.054-23.662.054l3.06 5.577c-3.044 6.566-2.093 13.464-3.126 20.144l5.779 1.695-5.426 1.56v8.604l10.392 1.572-.11.912-11.089 1.219c-.754 6.853-.565 7.079 5.7 8.118 2.452.406 4.888 1.302 7.325 1.281 1.846-.016 3.682-1.132 6.054-1.953m21.833-4.08c.214-1.643.764-3.322.586-4.92-1.067-9.615 1.758-17.698 7.988-25.196 6.628-7.977 15.5-11.876 24.01-9.126 8.367 2.704 17.209 13.78 17.396 22.079.152 6.716.031 13.439.031 20.159l1.591.171c.39-.957.943-1.88 1.148-2.875 3.211-15.585 3.711-31.358 2.746-47.17-.083-1.356-2.854-3.546-4.482-3.647-9.45-.588-18.937-.958-28.404-.828-8.424.116-16.837.976-25.146 1.5-3.218 18.154-.427 35.54 1.876 53.008.168-.768.337-1.537.66-3.156M61.507 22.124H47.156V42.8h34.27V22.062c-6.647 0-12.785 0-19.92.062M151.01 35.46v7.34h36.952V25.294H151.01zm-24.34 59.328 1.72 3.26c.541-.993 1.535-1.98 1.552-2.983.118-6.96.123-13.925-.062-20.883-.039-1.446-1.029-2.867-1.58-4.3l-1.604.381c0 7.904 0 15.809-.026 24.525M118 89.424q.008-4.992.012-9.986v-9.204c-2.865 5.636-2.375 25.177-.02 28.042 0-2.942 0-5.412.008-8.852m-12.058 7.684V85.045l-2.392.19c.632 4.22 1.264 8.44 2.392 11.873m66.623-3.283.23-.494c-.19.04-.38.081-.23.494"/><path fill="#f4f4f5" d="M119.229 107.028c-2.643.19-4.865.365-7.086.54l-.04-.9h16.742l.035 1.256c-1.462 0-2.936.117-4.383-.032-1.629-.167-3.233-.575-5.268-.864m-22.214-2.344c2.605-.473 5.372-.57 8.566-.594-1.95 5.961-5.33 1.97-8.566.594"/><path fill="#212221" d="M132.085 106.333c3.724.037 1.636 2.578 1.854 4.6-3.475.027-3.757-1.666-1.854-4.6"/><path fill="#1c1c1b" d="M227.652 102.62c.604-.791 1.586-1.332 2.568-1.873l.543 1.231c-.91.298-1.821.595-3.11.642"/><path fill="#f6f7f6" d="M92.256 96.058c-.245 1.194-.414 1.963-.582 2.731-2.303-17.469-5.094-34.854-1.876-53.008 8.309-.524 16.722-1.384 25.146-1.5 9.467-.13 18.953.24 28.404.828 1.628.1 4.399 2.29 4.482 3.648.965 15.81.465 31.584-2.746 47.17-.205.994-.757 1.917-1.148 2.874l-1.59-.171c0-6.72.12-13.443-.032-20.16-.187-8.299-9.029-19.374-17.396-22.078-8.51-2.75-17.382 1.149-24.01 9.126-6.23 7.498-9.055 15.58-7.988 25.196.178 1.598-.372 3.277-.664 5.344"/><path fill="#f7f7f7" d="M80.018 102.689c-2.93-.68-5.862-1.36-8.885-2.708a52 52 0 0 0-.426-2.275l-.566.026-.171 2.177c-1.84.626-3.677 1.742-5.523 1.758-2.437.02-4.873-.875-7.325-1.281-6.265-1.04-6.454-1.265-5.7-8.118l11.089-1.22.11-.911-10.392-1.572V79.96l5.426-1.56-5.779-1.695c1.033-6.68.082-13.578 3.126-20.144l-3.06-5.577c8.691 0 16.18.124 23.663-.054 3.572-.085 3.823 1.62 2.93 4.944l-14.517-.69c0 4.148-.252 7.959.145 11.701.127 1.202 1.965 2.223 3.02 3.326.93-1.035 2.017-1.976 2.726-3.145.371-.612.08-1.627.084-2.46.031-8.05.031-8.05 8.895-6.894l1.338 20.044H69.601l-.147.815c1.157.386 2.287.955 3.474 1.126 7.248 1.047 7.252 1.017 6.937 8.864-2.263.796-4.565 1.606-6.84 3.171.327 1.427.626 2.099.925 2.77l1.055-2.363c5.948.087 5.948.087 5.742 9.502-.488.636-.64.815-.729 1.047"/><path fill="#f7f8f7" d="M169.992 59.897c-1.57 3.569-1.442 6.987.032 10.287l1.693.171 1.655-6.179 10.12-.724v14.377h-13.086l-.066 1.553 14.336.952c-.833 3.499-1.59 6.675-2.87 10.252-1.895.404-3.267.406-4.639.408-2.25-1.537-6.758-.966-5.654-6.149-.623 2.837-3.872 4.4-1.606 8.146 2.126 3.515-1.608 8.676-5.886 8.926-2.469.145-4.953.027-7.894.027.651-3.751-2.664-8.383 3.493-10.262-6.108-2.283-2.388-7.376-3.833-11.39l9.84-.701-.028-1.417c-1.809-.118-3.64-.465-5.423-.3-2.74.255-4.09-.69-4.082-3.506.023-7.604.008-15.208.008-23.43 5.44 0 9.707 0 14.428.385.657.94.86 1.494 1.063 2.047l1.365-1.232c2.818-.166 5.636-.332 8.82-.076.5.665.697.835.957.932l1.188 8.127c-3.868-.213-7.552-.417-11.58-1.215a211 211 0 0 1-1.376-2.495zM161.77 92.66l2.476-.444-1.17-1.977c-.586.642-1.173 1.284-1.306 2.42m4.611-2.133-.652-.167c.14.138.28.275.652.167"/><path fill="#f5f6f6" d="M62.005 22.093c6.636-.031 12.774-.031 19.421-.031v20.737h-34.27V22.124c4.821 0 9.586 0 14.849-.03m-2.956 8.097H53.89c.555 2.841.66 5.426 1.72 7.528.304.602 3.372-.19 5.15-.34-.493-2.744-.837-4.65-1.71-7.188m14.557-.207c-5.964.447-2.06 4.922-3.79 7.71h6.398c-.65-2.91-1.187-5.31-2.608-7.71"/><path fill="#fbfcfc" d="M151.01 34.974v-9.68h36.952V42.8H151.01zm27.328-4.646c-6.454-.015-2.18 4.682-3.816 7.495l5.84.296c-.46-2.9-.829-5.226-2.024-7.79m-13.266 3.227c-.134-4.877-3.044-2.007-4.945-2.19v6.602c2.669.02 5.577.982 4.945-4.412"/><path fill="#f0f1f1" d="M126.682 94.382c.013-8.31.013-16.215.013-24.119l1.604-.38c.551 1.432 1.541 2.853 1.58 4.3.185 6.957.18 13.923.062 20.882-.017 1.003-1.01 1.99-1.553 2.984-.573-1.087-1.146-2.174-1.706-3.667"/><path fill="#f7f8f7" d="M183.032 91.91c2.95.503 2.962 2.788 1.791 4.385-1.408 1.92-3.51 4.153-5.633 4.558-4.447.848-3.66-4.125-5.444-6.33-.212-.263.891-1.59 2.115-2.142 2.877.03 5.024-.22 7.171-.47"/><path fill="#eff1f1" d="M117.996 89.909c-.003 2.955-.003 5.425-.003 8.367-2.356-2.865-2.846-22.406.02-28.042l-.001 9.204a6936 6936 0 0 1-.016 10.47"/><path fill="#f6f7f6" d="M105.694 97.501c-.88-3.826-1.512-8.046-2.144-12.265l2.392-.19c0 4.02 0 8.04-.248 12.455"/><path fill="#f0f0ef" d="M182.973 91.676c-2.088.485-4.235.735-6.667.74.03-.456.347-.665.762-1.148 1.471-.276 2.843-.278 4.627-.291.765.003 1.034.161 1.278.699"/><path fill="#f0f0f0" d="M74.699 92.022c-.046.906-.397 1.694-.749 2.481-.299-.671-.598-1.343-.88-2.369.452-.312.887-.27 1.629-.112"/><path fill="#eaeaea" d="M170.323 59.971c-.006-.903.32-1.731.644-2.56.345.634.69 1.267 1.033 2.253-.45.362-.898.372-1.677.307m2.487-8.098c-.307.676-.762 1.087-1.217 1.497a15 15 0 0 1-.605-1.956c.56-.132 1.117.03 1.822.459"/><path fill="#f0f0f0" d="M70.235 99.812c-.208-.629-.15-1.355-.094-2.08l.566-.026c.112.536.223 1.071.326 1.915-.183.237-.358.165-.798.19"/><path fill="#f0f0ef" d="M172.395 93.64c.02-.228.21-.269.4-.31-.077.165-.153.33-.4.31"/><path fill="#f0f0f0" d="M80.26 102.788c-.152-.331 0-.51.378-.707.064.222-.036.514-.378.707"/><path fill="#eaeaea" d="M182.804 52.743c-.329.154-.526-.016-.731-.444.22-.06.51.067.731.444"/><path fill="#f5f5f5" d="M161.543 92.412c.36-.89.947-1.532 1.534-2.174l1.17 1.977c-.826.148-1.652.296-2.704.197m4.722-1.764c-.257-.015-.396-.152-.536-.29.217.056.435.112.536.29"/><path fill="#1a1a1a" d="M59.315 30.506c.608 2.222.952 4.129 1.446 6.872-1.78.151-4.847.943-5.15.341-1.06-2.102-1.166-4.687-1.72-7.528 2.329 0 3.743 0 5.424.315"/><path fill="#151616" d="M74.05 29.984c.978 2.4 1.515 4.8 2.165 7.71h-6.398c1.73-2.788-2.174-7.263 4.232-7.71"/><path fill="#0b0c0c" d="M178.751 30.448c.782 2.445 1.151 4.77 1.611 7.67l-5.84-.295c1.635-2.813-2.638-7.51 4.23-7.375"/><path fill="#030303" d="M165.069 34.022c.635 4.928-2.273 3.965-4.942 3.946v-6.602c1.9.183 4.811-2.687 4.942 2.656"/></svg>