<svg xmlns="http://www.w3.org/2000/svg" viewBox="0 0 205 154" xml:space="preserve"><path fill="#060606" d="M108.945 11.003c2.109 2.525 4.103 5.158 6.357 7.545 2.208 2.337 4.68 4.425 6.936 6.529 0 2.979 0 6.027-.43 9.538a38 38 0 0 1-1.398 1.363l1.372 1.038c1.506 1.008 3.012 2.016 4.895 3.43a22 22 0 0 0 2.125 1.57c.237 2 .473 4.001.323 6.599-.643 1.752-.898 2.906-1.154 4.061l-3.976 2.284c2.02 14.008 4.05 28.122 6.118 42.23.061.419.506.78 1.097 1.644 4.557-6.518 11.187-6.226 17.796-5.7 3.488.277 5.992 1.724 7.206 5.598 2.053 6.546 5.412 11.804 13.563 12.325 2.077.133 4.983 3.156 5.737 5.436 3.398 10.28 11.754 14.396 20.724 18.029 1.117.452 2.11 1.207 3.162 1.822l-.21 1.778H160.61l-.268 2.039 8.075 3.393.202 1.11h-56.117l-.181 2.345 19.601 2.885c-12.55 1.247-24.865 1.42-37.046-1.948-5.04-1.394-10.47-1.388-15.728-1.98a14379 14379 0 0 0-36.843-4.102c-3.356-.369-7.411 1.396-8.992-3.596 4.062.135 7.21-.184 10.388-3.012 2.199-1.955 5.95-2.07 8.822-3.405 1.36-.631 3.387-2.484 3.177-3.267-.393-1.47-2.077-3.5-3.422-3.663-8.065-.98-17.432 5.31-20.192 13.11H12.17c1.633-1.802 2.05-2.712 2.622-2.825 8.612-1.695 14.863-7.907 22.38-11.492 8.539-4.073 15.734-9.335 22.8-15.422 3.763-3.242 9.25-4.75 14.197-6.261 3.613-1.103 6.194-2.206 6.747-6.414 1.55-11.796 3.518-23.54 4.892-35.354.28-2.397-1.365-4.999-2.031-7.53-.373-1.417-.743-2.878-.79-4.328-.1-3.158.01-6.322.429-9.987.089-1.14-.219-1.775-.526-2.41-.363-.05-.726-.1-1.562-.544-.699-.591-.924-.787-1.15-.982-4.702-1.524-9.41-3.031-14.104-4.58-2.162-.713-4.296-1.506-6.443-2.263l.558-2.084c6.002 1.184 12.004 2.368 18.531 4.068 1.71.545 2.894.574 4.078.602 0 0 .326-.125.365.3-.132 1.321-.303 2.216-.566 3.591 3.856-1.398 6.227-3.14 5.396-7.215 4.677-5.43 9.365-10.853 14.023-16.3 1.144-1.339 2.189-2.763 3.644-3.693zm32.554 94.072c-.17.043-.338.086-1.4-.06-14.423-1.015-23.092 7.305-29.954 17.69l4.883 5.41 5.851-4.996v11.44c2.29-1.367 4.038-1.923 5.073-3.105 6.606-7.55 6.555-7.596 16-2.17l-4.505-14.816c1.578-.921 3.061-1.788 5.206-2.51.45-.004.9-.008 1.805.488 1.266 1.484 2.563 2.944 3.792 4.458 2.124 2.62 4.206 5.273 6.822 8.128.373-.434.746-.867 1.076-2.118-1.986-4.303-4.052-8.571-5.934-12.919-1.594-3.68-4.337-5.138-8.715-4.92M90.01 77.523l-3.334 35.362 2.358.611c4.197-5.892.471-14.79 6.392-20.532 4.664 2.86 6.8 7.047 6.633 12.505-.136 4.394 2.79 6.119 6.284 5.995 2.133-.075 4.351-1.918 6.236-3.355 1.235-.942 1.98-2.55 2.877-3.907.748-1.132 1.397-2.33 2.09-3.5-1.233-.57-2.421-1.301-3.712-1.666-1.23-.348-2.57-.315-4.238-.488 2.724-3.768 9.03 1.763 9.319-4.504.308-6.703-6.463-2.758-9.97-5.598 3.138-.37 5.582-.356 7.8-1.058.981-.31 1.905-2.015 2.067-3.195.084-.61-1.446-1.793-2.442-2.112-1.358-.437-2.901-.296-4.5-.413l5.752-4.55-3.72-3c4.985-2.73.013-6.553.935-9.874l-5.829-.795.024-.846 4.99-1.773-1.294-4.791H91.729c.46 2.713 1.444 5.182 1.147 7.485-.57 4.415-1.87 8.735-2.867 14m-4.733 61.462c9.36-2.525 14.098-10.07 19.28-17.343-16.598-6.651-31.826-1.974-41.083 16.073 6.925 1.9 13.715 5.267 21.803 1.27m31.191-98.307c-.673-.82-1.216-2.027-2.068-2.315-.526-.177-1.556 1.014-2.305 1.654-1.031.881-2.012 1.823-3.014 2.738-.682-1.57-1.84-3.124-1.895-4.716-.042-1.254 1.275-2.554 1.579-3.098l6.984-2.674-.415-1.459H94.045c4.078 7.888 4.078 7.888 1.485 12.665-4.417 1.23-.814-8.015-6.083-4.666-1.568.997-1.265 4.936-1.903 7.917h28.343c.192-1.968.351-3.605.58-6.046m-56.98 75.349c-2.743 3.421-2.576 6.038.444 6.936 8.64 2.567 19.604-6.634 18.725-15.746-7.136.715-13.886 2.282-19.17 8.81m53.394-90.774c-1.65-1.61-3.308-3.215-4.95-4.833-2.348-2.311-4.588-2.424-6.674.326-1.23 1.62-2.426 3.264-3.83 5.157 5.484 0 10.386 0 15.454-.65"/><path fill="#f3f3f3" d="M32.26 138.037c2.586-7.805 11.953-14.096 20.018-13.116 1.345.163 3.03 2.193 3.422 3.663.21.783-1.817 2.636-3.177 3.267-2.873 1.334-6.623 1.45-8.822 3.405-3.178 2.828-6.326 3.147-10.48 2.635-.447.064-.786.152-.96.146"/><path fill="#1d1e1e" d="M81.154 35.401c-3.683 1.674-7.6 3.27-11.66 4.295-6.198 1.562-12.495 2.729-18.75 4.063l-.344-1.487c9.71-2.48 19.418-4.959 29.453-7.614.551.02.776.215 1.3.743"/><path fill="#111" d="M87.696 27.002c1.128 3.973-1.243 5.716-5.099 7.114.263-1.375.434-2.27.728-3.525 1.441-1.403 2.758-2.446 4.371-3.589"/><path fill="#060606" d="m53.007 24.134 6.047 1.454-.42 1.647c-1.605-.391-3.21-.782-5.215-1.587-.404-.78-.408-1.147-.412-1.514"/><path fill="#111" d="M108.939 10.644c-.967-.854-1.94-2.068-2.889-3.674.977.844 1.93 2.08 2.889 3.674"/><path fill="#161616" d="M128.225 52.529c.002-1.008.257-2.162.835-3.485.022 1-.28 2.169-.835 3.485"/><path fill="#111" d="M52.62 24.027c.391.474.395.84.396 1.481-1.518-.076-3.032-.428-4.547-.779l-.016-.528c1.26-.094 2.52-.187 4.166-.174m29.883 6.047c-.888.123-2.072.094-3.39-.298.942-.193 2.018-.023 3.39.298"/><path fill="#161616" d="M121.873 36.686c-.548-.016-1.006-.362-1.463-.708.323-.3.645-.6 1.253-.941.29.412.296.865.21 1.649"/><path fill="#111" d="M82.938 36.346c.26.297.567.933.58 1.617-.374-.395-.453-.837-.58-1.617"/><path fill="#161616" d="M128.822 41.708c-.603-.08-1.185-.469-1.806-1.139.584.09 1.205.46 1.806 1.139"/><path fill="#f8f8f8" d="M90.01 77.07c.996-4.81 2.295-9.131 2.866-13.546.297-2.303-.688-4.772-1.147-7.485h22.998l1.294 4.79-4.99 1.774-.024.846 5.83.795c-.923 3.321 4.049 7.143-.935 9.874l3.72 3-5.754 4.55c1.6.117 3.143-.024 4.501.413.996.32 2.526 1.503 2.442 2.112-.162 1.18-1.086 2.885-2.067 3.195-2.218.702-4.662.688-7.8 1.058 3.507 2.84 10.278-1.105 9.97 5.598-.289 6.267-6.595.736-9.32 4.504 1.67.173 3.008.14 4.239.488 1.29.365 2.479 1.096 3.711 1.667-.692 1.169-1.34 2.367-2.09 3.5-.895 1.355-1.64 2.964-2.876 3.906-1.885 1.437-4.103 3.28-6.236 3.355-3.495.124-6.42-1.601-6.284-5.995.168-5.458-1.97-9.645-6.633-12.505-5.92 5.743-2.195 14.64-6.392 20.532l-2.358-.61c1.111-11.788 2.223-23.576 3.334-35.815m17.035 1.293-1.984-7.438-1.825.381-.522 10.386 1.261.906c1.022-1.135 2.044-2.269 3.07-4.235"/><path fill="#f7f8f7" d="M154.556 124.815c-2.1-2.638-4.182-5.292-6.306-7.91-1.23-1.515-2.526-2.975-4.045-5.016-.62-1.179-.988-1.801-1.824-3.214l-.389 3.138-4.545 2.655 4.505 14.815c-9.445-5.425-9.394-5.38-16 2.17-1.035 1.183-2.783 1.74-5.073 3.105V123.12l-5.85 4.996-4.884-5.41c6.862-10.385 15.531-18.705 30.418-17.361.624.568.784.808.944 1.049l.501-1.196c3.869-.34 6.612 1.117 8.206 4.798 1.882 4.348 3.948 8.616 5.505 13.536-.674.84-.918 1.062-1.163 1.284"/><path fill="#fafafa" d="M84.88 139.048c-7.692 3.935-14.482.569-21.407-1.332 9.257-18.047 24.485-22.724 41.082-16.073-5.181 7.272-9.92 14.818-19.675 17.405"/><path fill="#e9eaea" d="M116.433 41.08c-.195 2.04-.354 3.677-.546 5.645H87.544c.638-2.98.335-6.92 1.903-7.917 5.269-3.35 1.666 5.897 6.083 4.666 2.593-4.777 2.593-4.777-1.485-12.665h21.288l.415 1.459-6.984 2.674c-.304.544-1.621 1.844-1.579 3.098.054 1.592 1.213 3.146 1.895 4.716 1.002-.915 1.983-1.857 3.014-2.738.75-.64 1.779-1.831 2.305-1.654.852.288 1.395 1.496 2.034 2.717m-16.24-.069q1.015 1.275 2.028 2.552c.6-.76 1.553-1.447 1.729-2.295.418-2.017.467-4.11.677-6.29-6.124-2.042-4.587 2.21-4.433 6.033"/><path fill="#f7f8f7" d="M59.732 115.762c5.038-6.262 11.788-7.829 18.924-8.544.88 9.112-10.085 18.313-18.725 15.746-3.02-.898-3.187-3.515-.2-7.202"/><path fill="#e7e8e8" d="M112.797 25.579c-4.985.325-9.887.325-15.37.325 1.403-1.893 2.6-3.538 3.829-5.157 2.086-2.75 4.326-2.637 6.673-.326 1.643 1.618 3.3 3.222 4.868 5.158"/><path fill="#eff0ef" d="M142.323 111.886c-.24-.812-.148-1.551.058-3.211.836 1.413 1.204 2.035 1.597 2.964-.425.311-.875.315-1.655.247m-.569-6.75c.087.46-.08.858-.247 1.257-.16-.24-.32-.481-.498-.955.152-.277.32-.32.745-.302"/><path fill="#f7f8f7" d="M155.74 123.94c.078.225-.295.658-.926.984-.013-.331.231-.554.927-.985"/><path fill="#0c0c0c" d="M107.041 78.78c-1.023 1.55-2.045 2.684-3.067 3.819l-1.261-.906.522-10.386 1.825-.38c.661 2.478 1.323 4.958 1.981 7.853"/><path fill="#181919" d="M100.152 40.602c-.112-3.412-1.649-7.665 4.475-5.624-.21 2.18-.26 4.274-.677 6.291-.176.848-1.13 1.535-1.73 2.295-.675-.85-1.35-1.701-2.068-2.962"/></svg>