<svg xmlns="http://www.w3.org/2000/svg" viewBox="0 0 234 126" xml:space="preserve"><path fill="#070707" d="M42.825,13.014C45.029,17.249 47.233,21.484 49.191,25.248C52.307,25.636 55.137,26.345 57.919,26.19C59.398,26.107 61.397,24.859 62.111,23.56C64.004,20.115 65.297,16.342 66.889,12.726C67.611,11.088 68.475,9.512 69.681,7.094C72.262,13.276 74.517,18.677 76.773,24.079C77.295,24.181 77.817,24.283 78.339,24.385C81.03,18.984 83.721,13.582 86.674,7.656C88.955,13.457 91.038,18.754 93.121,24.052C93.602,24.123 94.083,24.194 94.565,24.265C97.007,17.605 99.45,10.945 102.154,3.571C105.368,11.213 108.378,18.373 111.388,25.532C112.025,25.567 112.662,25.602 113.299,25.637C115.683,20.469 118.067,15.302 120.879,9.207C123.388,14.714 125.582,19.528 127.775,24.342C128.294,24.387 128.812,24.432 129.331,24.477C132.34,18.278 135.349,12.079 138.912,4.74C142.036,11.295 144.595,16.773 147.251,22.204C149.219,26.229 152.041,28.981 156.933,27.248C158.168,26.811 159.559,25.693 160.071,24.532C161.967,20.23 163.525,15.779 165.21,11.384C165.91,11.383 166.61,11.381 167.31,11.379C168.399,15.726 169.487,20.073 170.648,24.705C177.064,24.774 177.724,17.6 181.818,15.249C183.493,18.043 184.558,21.365 186.832,23.114C188.611,24.482 191.89,23.899 195.264,24.266C195.476,29.059 195.744,35.129 196.027,41.506C200.368,42.744 204.676,43.972 209.067,45.223C208.237,49.501 205.913,51.364 202.124,51.558C198.007,51.768 197.056,54.037 197.361,57.878C197.874,64.334 197.716,70.844 198.227,77.3C198.38,79.226 199.825,81.049 200.677,82.92C202.624,81.69 204.651,80.564 206.478,79.175C207.156,78.659 207.366,77.527 209.091,76.683C209.25,78.836 209.894,81.093 209.464,83.121C208.622,87.098 210.278,88.945 213.791,90.107C217.66,91.386 221.436,92.947 225.168,94.979C212.641,99.426 199.747,95.643 187.244,97.291C188.773,99.887 197.432,103.406 207.699,106.592C197.776,107.069 187.853,107.546 177.089,108.023C174.691,108.54 173.134,109.057 171.576,109.574C171.576,109.574 171.548,109.645 171.163,109.797C166.724,109.863 162.376,110.7 158.669,109.52C146.597,105.679 133.971,104.503 121.762,100.813C109.9,97.227 96.391,98.303 84.096,101.676C90.487,104.108 97.117,106.63 103.756,109.303C103.766,109.454 103.909,109.721 103.909,109.721C95.019,109.144 86.135,108.311 77.236,108.062C68.687,107.824 60.122,108.192 50.897,108.566C46.809,107.129 44.239,108.519 41.995,111.098C36.601,109.227 31.207,107.356 24.201,104.925C29.916,102.47 34.319,100.579 39.505,98.351C29.404,94.205 17.618,96.862 6.509,91.032C9.586,89.294 11.875,88.591 13.225,87.061C14.4,85.729 14.514,83.462 15.151,81.436C16.099,81.916 17.499,82.731 18.98,83.354C21.613,84.462 25.871,82.6 25.92,80.042C26.099,70.627 25.991,61.206 25.991,51.703C23.226,51.012 20.6,50.626 18.225,49.638C17.196,49.21 15.86,47.259 16.121,46.5C16.553,45.243 18.029,43.788 19.307,43.504C21.492,43.016 23.865,43.369 26.626,43.369C26.626,35.269 26.626,27.76 26.626,20.25C27.064,19.966 27.501,19.681 27.939,19.397C30.513,21.77 33.087,24.144 36.626,27.407C37.852,22.487 38.929,18.165 40.418,13.424C41.495,13.008 42.16,13.011 42.825,13.014M118.726,66.22C117.635,66.165 116.544,66.11 115.003,66.032C115.647,68.473 116.18,70.492 116.797,72.828C117.646,71.694 118.291,70.833 119.484,70.345C120.43,71.087 121.375,71.83 122.32,72.572C122.676,72 123.031,71.428 123.386,70.855C122.229,70.23 121.072,69.604 119.852,68.468C119.57,68.29 119.288,68.111 119.004,67.447C119.004,67.447 118.984,66.961 118.726,66.22M111.32,43.869C109.569,39.534 105.737,39.7 102.181,40.024C98.379,40.37 94.906,41.781 91.889,46.495C99.338,46.495 105.66,46.495 112.893,46.712C117.496,46.712 122.099,46.712 126.717,46.712C126.717,44.099 126.717,42.186 126.717,40.119C121.019,38.818 115.678,38.27 111.32,43.869M130.811,83.838C130.811,87.094 130.811,90.35 130.811,93.541C133.939,94.045 136.305,94.425 138.376,94.759C138.376,88.589 138.157,82.658 138.439,76.751C138.705,71.19 137.044,67.426 129.877,66.452C130.269,71.761 130.646,76.864 130.798,82.426C130.847,82.589 130.895,82.752 130.811,83.838M142.429,56.946C145.957,56.572 149.484,56.199 153.098,55.816C152.956,53.595 152.854,51.99 152.734,50.125C123.416,50.125 94.442,50.125 64.599,50.125C67.885,53.551 69.639,57.301 74.688,57.256C96.958,57.056 119.23,57.045 142.429,56.946M77.858,39.643C76.941,41.181 76.024,42.719 74.438,45.378C74.706,38.443 70.27,39.272 67.086,40.418C65.588,40.957 65.215,44.623 64.322,46.9C69.343,46.9 73.101,46.9 76.859,46.9C80.76,46.9 84.66,46.9 88.91,46.9C88.699,44.324 88.53,42.261 88.31,39.586C84.999,39.586 81.884,39.586 77.858,39.643M146.572,39.636C142.629,39.717 138.647,39.517 134.767,40.057C133.66,40.211 132.234,42.469 132.129,43.851C132.063,44.732 134.119,46.555 135.292,46.615C140.998,46.907 146.728,46.747 152.829,46.747C152.478,44.051 152.21,41.996 151.915,39.735C150.26,39.735 148.822,39.735 146.572,39.636M58.27,78.719C58.509,74.457 59.033,70.181 58.815,65.943C58.75,64.665 56.812,62.903 55.387,62.453C54.152,62.063 51.237,63.016 51.119,63.72C50.427,67.844 49.747,72.164 50.399,76.203C50.603,77.464 54.954,78.056 58.27,78.719M50.25,85.451C50.555,90.179 50.86,94.907 51.212,100.357C53.145,100.522 55.945,100.761 58.879,101.011C58.879,94.88 58.879,89.635 58.879,83.783C55.778,84.066 53.048,84.315 50.25,85.451M164.505,61.204C161.36,62.444 159.301,64.158 159.884,68.145C160.348,71.313 159.977,74.602 159.977,77.78C162.751,77.78 165.002,77.78 167.462,77.78C167.926,75.727 169.136,73.587 168.619,72.013C167.466,68.503 171.234,63.359 164.505,61.204M167.814,91.459C167.873,90.134 167.874,88.803 168.002,87.485C168.289,84.547 167.66,82.769 164.048,82.907C160.654,83.038 159.425,84.723 159.507,87.704C159.61,91.453 159.934,95.195 160.155,98.821C162.755,98.821 164.889,98.821 167.494,98.821C167.648,96.597 167.793,94.49 167.814,91.459M159.681,41.436C159.973,49.676 165.839,43.414 168.942,45.768C168.942,41.945 169.509,38.821 168.75,36.06C168.213,34.104 165.885,32.64 164.357,30.956C162.852,32.324 160.872,33.444 159.986,35.136C159.223,36.592 159.707,38.702 159.681,41.436M74.024,75.575C74.012,73.921 74.041,72.265 73.983,70.612C73.761,64.273 72.523,63.342 66.258,64.668C66.258,69.392 66.258,74.094 66.258,78.861C68.991,78.986 71.363,79.096 73.845,79.21C73.845,78.143 73.845,77.336 74.024,75.575M70.914,84.299C67.988,82.297 66.116,83.07 66.012,86.517C65.873,91.149 65.978,95.789 65.978,100.45C71.447,99.685 73.578,97.431 73.082,92.625C72.816,90.043 72.012,87.518 70.914,84.299M153.379,74.333C153.167,70.927 152.956,67.521 152.715,63.654C150.384,63.819 148.345,63.964 146.075,64.125C146.075,69.503 146.075,74.432 146.075,79.019C148.419,79.247 150.62,79.462 152.973,79.691C153.111,78.203 153.246,76.74 153.379,74.333M81.113,83.61C81.406,84.671 81.9,85.721 81.958,86.794C82.396,94.881 82.369,94.883 90.519,93.325C91.032,82.1 90.035,80.968 81.113,83.61M117.969,79.61C117.8,80.715 117.533,81.815 117.484,82.925C117.378,85.3 116.586,88.15 117.617,89.896C118.346,91.131 121.604,90.874 123.602,91.257C123.196,85 122.862,79.858 122.516,74.539C120.689,74.539 119.025,74.539 117.341,74.539C117.601,76.25 117.792,77.508 117.969,79.61M49.672,41.328C50.309,46.576 51.035,46.847 58.653,44.45C58.355,41.134 58.052,37.749 57.757,34.458C49.962,33.516 49.61,33.791 49.672,41.328M81.715,76.69C84.399,77.696 87.084,78.702 90.315,79.913C90.315,75.897 90.315,73.004 90.315,70.026C87.063,70.026 84.217,70.026 81.135,70.026C81.368,72.273 81.554,74.063 81.715,76.69M183.835,43.55C186.009,40.264 186.021,36.863 184.014,33.577C183.369,32.52 181.809,31.024 181.097,31.228C179.847,31.586 178.147,33.011 178.018,34.147C177.619,37.653 177.872,41.233 177.872,45.337C180.362,44.868 181.912,44.577 183.835,43.55M153.242,88.682C153.134,87.239 153.026,85.797 152.92,84.389C145.366,84.329 145.319,84.426 146.521,96.892C148.563,97.196 150.602,97.5 152.86,97.837C153,94.872 153.124,92.241 153.242,88.682M100.533,25.991C99.15,28.736 97.766,31.482 95.999,34.988C99.49,34.988 101.47,34.914 103.443,35.004C107.243,35.176 108.294,33.872 106.442,30.3C105.217,27.939 104.48,25.324 103.301,22.238C102.287,23.636 101.648,24.516 100.533,25.991M168.483,57.037C169.31,55.39 170.457,53.798 170.751,52.062C170.83,51.595 168.381,50.464 166.971,50.048C165.594,49.64 163.94,49.356 162.634,49.757C161.392,50.137 159.87,51.294 159.515,52.435C159.103,53.76 159.828,55.438 159.931,56.119C163.048,56.452 165.353,56.699 168.483,57.037M142.113,32.674C140.986,28.931 139.86,25.187 138.734,21.444C138.279,21.478 137.825,21.512 137.37,21.546C135.499,25.105 133.628,28.664 131.552,32.612C135.307,32.925 138.503,33.191 142.113,32.674M57.257,50.015C54.981,50.015 52.705,50.015 50.056,50.015C50.056,52.534 50.056,54.548 50.056,56.838C53.153,56.838 55.884,56.838 59.137,56.838C58.8,54.534 58.481,52.357 57.257,50.015M182.591,61.658C181.458,62.533 179.399,63.384 179.376,64.287C179.321,66.441 180.227,68.62 180.744,70.789C181.754,70.151 183.538,69.606 183.629,68.857C183.895,66.644 183.492,64.35 182.591,61.658M42.822,68.405C42.584,65.632 43.264,62.015 37.972,63.475C38.151,65.338 38.049,67.187 38.548,68.857C39.534,72.153 41.112,72.4 42.822,68.405M67.743,28.483C67.164,30.143 66.585,31.802 65.715,34.298C68.669,33.613 70.873,33.102 73.388,32.52C72.415,30.414 71.789,28.695 70.797,27.223C70.6,26.932 68.997,27.588 67.743,28.483M38.039,36.195C38.731,37.073 39.368,38.011 40.183,38.754C40.29,38.851 41.821,37.945 41.823,37.499C41.832,35.405 41.606,33.299 41.29,31.224C41.23,30.833 40.319,30.234 39.909,30.311C39.235,30.437 38.224,30.943 38.111,31.456C37.836,32.7 37.996,34.04 38.039,36.195M117.016,33.079C119.39,32.507 121.764,31.935 124.139,31.363C124.547,30.627 124.956,29.891 125.365,29.155C123.757,28.252 122.149,27.349 120.307,26.314C118.913,28.557 117.593,30.68 117.016,33.079M40.615,51.97C40.71,49.325 40.805,46.679 40.9,44.034C40.004,44.04 39.108,44.047 38.211,44.054C38.318,46.39 38.383,48.731 38.587,51.059C38.612,51.338 39.394,51.55 40.615,51.97M182.19,54.006C182.678,52.658 183.166,51.309 183.654,49.96C181.956,49.711 180.232,49.189 178.573,49.349C177.937,49.411 177.452,51.028 176.898,51.936C178.387,52.65 179.876,53.364 182.19,54.006M42.649,80.387C42.95,75.411 39.997,78.783 38.398,78.264C38.398,80.322 38.398,81.918 38.398,83.515C38.762,83.872 39.125,84.23 39.488,84.588C40.559,83.475 41.629,82.362 42.649,80.387M84.542,26.624C83.432,28.46 82.322,30.296 80.861,32.714C83.46,32.714 85.106,32.714 87.546,32.714C86.635,30.294 85.966,28.517 84.542,26.624z"/><path fill="#f4f4f4" d="M103.746,109.152C97.117,106.63 90.487,104.108 84.096,101.676C96.391,98.303 109.9,97.227 121.762,100.813C133.971,104.503 146.597,105.679 158.669,109.52C162.376,110.7 166.724,109.863 171.128,109.783C172.602,110.679 173.727,111.742 175.94,113.835C172.213,113.026 169.942,112.534 167.066,112.252C166.987,112.98 167.512,113.496 168.036,114.013C168.036,114.013 167.994,114.005 168.1,114.244C168.53,114.665 168.855,114.846 169.179,115.028C170.911,116.099 173.806,116.998 169.13,118.767C166.014,114.795 164.049,118.555 161.479,119.036C156.463,117.639 151.881,116.031 147.175,114.977C141.617,113.731 135.983,112.517 130.324,112.124C125.251,111.771 120.098,112.551 114.954,112.453C113.548,111.703 112.169,111.332 110.66,110.976C110.531,110.992 110.273,111.03 110.128,110.643C107.904,109.889 105.825,109.521 103.746,109.152z"/><path fill="#0e0e0e" d="M114.981,112.831C120.098,112.551 125.251,111.771 130.324,112.124C135.983,112.517 141.617,113.731 147.175,114.977C151.881,116.031 156.463,117.639 161.447,119.306C161.472,120.039 161.15,120.467 160.828,120.896C143.725,119.965 126.621,119.035 109.025,117.743C109.356,116.257 110.179,115.133 111.366,114.091C112.814,113.727 113.897,113.279 114.981,112.831z"/><path fill="#0c0c0c" d="M75.209,118.011C74.197,119.039 73.188,120.95 72.172,120.954C64.302,120.985 56.412,120.903 48.567,120.321C44.412,120.013 40.335,118.64 35.997,116.895C38.243,116.206 40.489,115.517 43.274,114.456C46.238,113.85 48.664,113.616 51.089,113.381C59.003,114.341 66.917,115.301 74.965,116.88C75.135,117.669 75.172,117.84 75.209,118.011z"/><path fill="#f2f2f2" d="M51.064,112.935C48.664,113.616 46.238,113.85 43.442,114.124C42.736,113.359 42.401,112.555 42.031,111.424C44.239,108.519 46.809,107.129 50.612,108.879C51.009,110.109 51.024,111.299 51.064,112.935M48.519,111.414C48.519,111.414 48.584,111.522 48.519,111.414z"/><path fill="#f2f2f2" d="M111.002,114.008C110.179,115.133 109.356,116.257 108.586,117.745C102.039,117.639 108.076,113.564 107.292,111.31C108.628,111.036 109.451,111.033 110.273,111.03C110.273,111.03 110.531,110.992 110.718,111.356C110.937,112.483 110.97,113.246 111.002,114.008z"/><path fill="#cecdcd" d="M161.269,120.954C161.15,120.467 161.472,120.039 161.827,119.34C164.049,118.555 166.014,114.795 168.814,118.803C166.653,119.669 164.182,120.341 161.269,120.954z"/><path fill="#f2f2f2" d="M94.86,116.471C97.923,116.219 100.722,116.219 103.521,116.219C103.462,116.886 103.404,117.552 103.345,118.218C100.429,117.72 97.512,117.221 94.86,116.471z"/><path fill="#c8c8c7" d="M110.128,110.643C109.451,111.033 108.628,111.036 107.398,111.035C106.103,110.781 105.215,110.531 104.118,110.001C103.909,109.721 103.766,109.454 103.756,109.303C105.825,109.521 107.904,109.889 110.128,110.643z"/><path fill="#f4f4f4" d="M171.979,109.707C173.134,109.057 174.691,108.54 176.628,108.1C175.465,108.731 173.923,109.286 171.979,109.707z"/><path fill="#f2f2f2" d="M90.809,116.188C91.109,116.741 91.108,117.234 91.107,117.726C90.562,117.585 90.018,117.443 89.474,117.301C89.818,116.91 90.163,116.519 90.809,116.188z"/><path fill="#f2f2f2" d="M75.591,118.013C75.172,117.84 75.135,117.669 75.16,117.243C76.812,116.988 78.401,116.988 79.99,116.988C79.998,117.259 80.005,117.53 80.013,117.801C78.666,117.872 77.32,117.943 75.591,118.013z"/><path fill="#141415" d="M42.761,12.682C42.16,13.011 41.495,13.008 40.497,13.008C40.241,12.408 40.318,11.805 40.395,11.203C41.162,11.585 41.93,11.968 42.761,12.682z"/><path fill="#cecdcd" d="M167.913,113.758C167.512,113.496 166.987,112.98 166.655,112.28C167.162,112.565 167.476,113.034 167.913,113.758z"/><path fill="#cecdcd" d="M169.032,114.795C168.855,114.846 168.53,114.665 168.092,114.224C168.281,114.164 168.583,114.364 169.032,114.795z"/><path fill="#f2f2f2" d="M82.563,116.459C82.607,116.527 82.52,116.39 82.563,116.459z"/><path fill="#f6f7f7" d="M141.966,56.955C119.23,57.045 96.958,57.056 74.688,57.256C69.639,57.301 67.885,53.551 64.599,50.125C94.442,50.125 123.416,50.125 152.734,50.125C152.854,51.99 152.956,53.595 153.098,55.816C149.484,56.199 145.957,56.572 141.966,56.955z"/><path fill="#efefee" d="M131.022,81.967C130.646,76.864 130.269,71.761 129.877,66.452C137.044,67.426 138.705,71.19 138.439,76.751C138.157,82.658 138.376,88.589 138.376,94.759C136.305,94.425 133.939,94.045 130.811,93.541C130.811,90.35 130.811,87.094 131.312,83.305C133.513,82.773 135.214,82.773 137.406,82.773C136.497,80.446 135.767,78.581 135.307,77.403C133.853,78.952 132.438,80.46 131.022,81.967z"/><path fill="#f3f3f2" d="M78.313,39.615C81.884,39.586 84.999,39.586 88.31,39.586C88.53,42.261 88.699,44.324 88.91,46.9C84.66,46.9 80.76,46.9 76.859,46.9C73.101,46.9 69.343,46.9 64.322,46.9C65.215,44.623 65.588,40.957 67.086,40.418C70.27,39.272 74.706,38.443 74.438,45.378C76.024,42.719 76.941,41.181 78.313,39.615z"/><path fill="#e7e8e8" d="M146.978,39.686C148.822,39.735 150.26,39.735 151.915,39.735C152.21,41.996 152.478,44.051 152.829,46.747C146.728,46.747 140.998,46.907 135.292,46.615C134.119,46.555 132.063,44.732 132.129,43.851C132.234,42.469 133.66,40.211 134.767,40.057C138.647,39.517 142.629,39.717 146.978,39.686z"/><path fill="#f6f6f6" d="M57.838,78.837C54.954,78.056 50.603,77.464 50.399,76.203C49.747,72.164 50.427,67.844 51.119,63.72C51.237,63.016 54.152,62.063 55.387,62.453C56.812,62.903 58.75,64.665 58.815,65.943C59.033,70.181 58.509,74.457 57.838,78.837z"/><path fill="#f5f5f5" d="M50.284,85.007C53.048,84.315 55.778,84.066 58.879,83.783C58.879,89.635 58.879,94.88 58.879,101.011C55.945,100.761 53.145,100.522 51.212,100.357C50.86,94.907 50.555,90.179 50.284,85.007z"/><path fill="#f4f5f4" d="M164.898,61.319C171.234,63.359 167.466,68.503 168.619,72.013C169.136,73.587 167.926,75.727 167.462,77.78C165.002,77.78 162.751,77.78 159.977,77.78C159.977,74.602 160.348,71.313 159.884,68.145C159.301,64.158 161.36,62.444 164.898,61.319z"/><path fill="#f4f5f4" d="M167.876,91.921C167.793,94.49 167.648,96.597 167.494,98.821C164.889,98.821 162.755,98.821 160.155,98.821C159.934,95.195 159.61,91.453 159.507,87.704C159.425,84.723 160.654,83.038 164.048,82.907C167.66,82.769 168.289,84.547 168.002,87.485C167.874,88.803 167.873,90.134 167.876,91.921z"/><path fill="#f5f6f5" d="M159.661,40.979C159.707,38.702 159.223,36.592 159.986,35.136C160.872,33.444 162.852,32.324 164.357,30.956C165.885,32.64 168.213,34.104 168.75,36.06C169.509,38.821 168.942,41.945 168.942,45.768C165.839,43.414 159.973,49.676 159.661,40.979z"/><path fill="#f6f7f7" d="M73.934,76.052C73.845,77.336 73.845,78.143 73.845,79.21C71.363,79.096 68.991,78.986 66.258,78.861C66.258,74.094 66.258,69.392 66.258,64.668C72.523,63.342 73.761,64.273 73.983,70.612C74.041,72.265 74.012,73.921 73.934,76.052z"/><path fill="#ebebea" d="M71.182,84.633C72.012,87.518 72.816,90.043 73.082,92.625C73.578,97.431 71.447,99.685 65.978,100.45C65.978,95.789 65.873,91.149 66.012,86.517C66.116,83.07 67.988,82.297 71.182,84.633z"/><path fill="#e1e2e2" d="M112.033,44.131C115.678,38.27 121.019,38.818 126.717,40.119C126.717,42.186 126.717,44.099 126.717,46.712C122.099,46.712 117.496,46.712 112.425,46.308C111.981,45.313 112.007,44.722 112.033,44.131z"/><path fill="#f6f6f6" d="M153.38,74.806C153.246,76.74 153.111,78.203 152.973,79.691C150.62,79.462 148.419,79.247 146.075,79.019C146.075,74.432 146.075,69.503 146.075,64.125C148.345,63.964 150.384,63.819 152.715,63.654C152.956,67.521 153.167,70.927 153.38,74.806z"/><path fill="#e9e9e8" d="M81.167,83.191C90.035,80.968 91.032,82.1 90.519,93.325C82.369,94.883 82.396,94.881 81.958,86.794C81.9,85.721 81.406,84.671 81.167,83.191z"/><path fill="#eeefee" d="M117.976,79.188C117.792,77.508 117.601,76.25 117.341,74.539C119.025,74.539 120.689,74.539 122.516,74.539C122.862,79.858 123.196,85 123.602,91.257C121.604,90.874 118.346,91.131 117.617,89.896C116.586,88.15 117.378,85.3 117.484,82.925C117.533,81.815 117.8,80.715 117.976,79.188z"/><path fill="#eeefee" d="M111.676,44C112.007,44.722 111.981,45.313 111.969,46.2C105.66,46.495 99.338,46.495 91.889,46.495C94.906,41.781 98.379,40.37 102.181,40.024C105.737,39.7 109.569,39.534 111.676,44z"/><path fill="#f4f5f4" d="M49.66,40.875C49.61,33.791 49.962,33.516 57.757,34.458C58.052,37.749 58.355,41.134 58.653,44.45C51.035,46.847 50.309,46.576 49.66,40.875z"/><path fill="#ecedec" d="M81.727,76.272C81.554,74.063 81.368,72.273 81.135,70.026C84.217,70.026 87.063,70.026 90.315,70.026C90.315,73.004 90.315,75.897 90.315,79.913C87.084,78.702 84.399,77.696 81.727,76.272z"/><path fill="#eaebea" d="M183.649,43.918C181.912,44.577 180.362,44.868 177.872,45.337C177.872,41.233 177.619,37.653 178.018,34.147C178.147,33.011 179.847,31.586 181.097,31.228C181.809,31.024 183.369,32.52 184.014,33.577C186.021,36.863 186.009,40.264 183.649,43.918z"/><path fill="#f2f2f2" d="M153.245,89.146C153.124,92.241 153,94.872 152.86,97.837C150.602,97.5 148.563,97.196 146.521,96.892C145.319,84.426 145.366,84.329 152.92,84.389C153.026,85.797 153.134,87.239 153.245,89.146z"/><path fill="#f2f2f2" d="M100.771,25.694C101.648,24.516 102.287,23.636 103.301,22.238C104.48,25.324 105.217,27.939 106.442,30.3C108.294,33.872 107.243,35.176 103.443,35.004C101.47,34.914 99.49,34.988 95.999,34.988C97.766,31.482 99.15,28.736 100.771,25.694z"/><path fill="#eeefee" d="M168.071,56.991C165.353,56.699 163.048,56.452 159.931,56.119C159.828,55.438 159.103,53.76 159.515,52.435C159.87,51.294 161.392,50.137 162.634,49.757C163.94,49.356 165.594,49.64 166.971,50.048C168.381,50.464 170.83,51.595 170.751,52.062C170.457,53.798 169.31,55.39 168.071,56.991z"/><path fill="#eaebea" d="M141.906,33.066C138.503,33.191 135.307,32.925 131.552,32.612C133.628,28.664 135.499,25.105 137.37,21.546C137.825,21.512 138.279,21.478 138.734,21.444C139.86,25.187 140.986,28.931 141.906,33.066z"/><path fill="#f4f4f4" d="M57.71,50.097C58.481,52.357 58.8,54.534 59.137,56.838C55.884,56.838 53.153,56.838 50.056,56.838C50.056,54.548 50.056,52.534 50.056,50.015C52.705,50.015 54.981,50.015 57.71,50.097z"/><path fill="#dfdfde" d="M182.971,61.873C183.492,64.35 183.895,66.644 183.629,68.857C183.538,69.606 181.754,70.151 180.744,70.789C180.227,68.62 179.321,66.441 179.376,64.287C179.399,63.384 181.458,62.533 182.971,61.873z"/><path fill="#d8d8d8" d="M42.838,68.832C41.112,72.4 39.534,72.153 38.548,68.857C38.049,67.187 38.151,65.338 37.972,63.475C43.264,62.015 42.584,65.632 42.838,68.832z"/><path fill="#e7e8e8" d="M67.893,28.145C68.997,27.588 70.6,26.932 70.797,27.223C71.789,28.695 72.415,30.414 73.388,32.52C70.873,33.102 68.669,33.613 65.715,34.298C66.585,31.802 67.164,30.143 67.893,28.145z"/><path fill="#d8d8d8" d="M38.01,35.769C37.996,34.04 37.836,32.7 38.111,31.456C38.224,30.943 39.235,30.437 39.909,30.311C40.319,30.234 41.23,30.833 41.29,31.224C41.606,33.299 41.832,35.405 41.823,37.499C41.821,37.945 40.29,38.851 40.183,38.754C39.368,38.011 38.731,37.073 38.01,35.769z"/><path fill="#dfdfde" d="M116.645,32.941C117.593,30.68 118.913,28.557 120.307,26.314C122.149,27.349 123.757,28.252 125.365,29.155C124.956,29.891 124.547,30.627 124.139,31.363C121.764,31.935 119.39,32.507 116.645,32.941z"/><path fill="#f3f3f2" d="M40.22,51.882C39.394,51.55 38.612,51.338 38.587,51.059C38.383,48.731 38.318,46.39 38.211,44.054C39.108,44.047 40.004,44.04 40.9,44.034C40.805,46.679 40.71,49.325 40.22,51.882z"/><path fill="#ebebea" d="M181.778,54.042C179.876,53.364 178.387,52.65 176.898,51.936C177.452,51.028 177.937,49.411 178.573,49.349C180.232,49.189 181.956,49.711 183.654,49.96C183.166,51.309 182.678,52.658 181.778,54.042z"/><path fill="#d2d3d2" d="M42.674,80.818C41.629,82.362 40.559,83.475 39.488,84.588C39.125,84.23 38.762,83.872 38.398,83.515C38.398,81.918 38.398,80.322 38.398,78.264C39.997,78.783 42.95,75.411 42.674,80.818z"/><path fill="#e9e9e8" d="M84.919,26.681C85.966,28.517 86.635,30.294 87.546,32.714C85.106,32.714 83.46,32.714 80.861,32.714C82.322,30.296 83.432,28.46 84.919,26.681z"/><path fill="#505051" d="M130.91,82.197C132.438,80.46 133.853,78.952 135.307,77.403C135.767,78.581 136.497,80.446 137.406,82.773C135.214,82.773 133.513,82.773 131.378,82.844C130.895,82.752 130.847,82.589 130.91,82.197z"/><path fill="#a2a3a3" d="M118.936,69.972C118.291,70.833 117.646,71.694 116.797,72.828C116.18,70.492 115.647,68.473 115.003,66.032C116.544,66.11 117.635,66.165 118.522,66.643C117.937,67.578 117.555,68.09 117.174,68.602C117.784,68.379 118.395,68.156 119.005,67.933C119.288,68.111 119.57,68.29 119.611,68.768C119.225,69.369 119.081,69.67 118.936,69.972z"/><path fill="#141415" d="M119.21,70.158C119.081,69.67 119.225,69.369 119.643,69.024C121.072,69.604 122.229,70.23 123.386,70.855C123.031,71.428 122.676,72 122.32,72.572C121.375,71.83 120.43,71.087 119.21,70.158z"/><path fill="#141415" d="M119.005,67.69C118.395,68.156 117.784,68.379 117.174,68.602C117.555,68.09 117.937,67.578 118.651,67.014C118.984,66.961 119.004,67.447 119.005,67.69z"/><path fill="#c8c8c7" d="M111.366,114.091C110.97,113.246 110.937,112.483 110.847,111.341C112.169,111.332 113.548,111.703 114.954,112.453C113.897,113.279 112.814,113.727 111.366,114.091z"/><path fill="#fcfcfc" d="M48.551,111.468C48.584,111.522 48.519,111.414 48.551,111.468z"/></svg>