<svg xmlns="http://www.w3.org/2000/svg" viewBox="0 0 256 130" xml:space="preserve"><path fill="#070707" d="M58.972,106.916C53.44,107.252 47.899,107.496 42.378,107.964C39.769,108.185 37.197,108.836 34.146,108.339C39.517,105.159 44.887,101.978 50.258,98.798C50.027,98.104 49.795,97.41 49.564,96.715C39.142,96.715 28.72,96.715 18.299,96.715C18.216,96.265 18.134,95.815 18.051,95.365C20.516,94.242 23.007,93.173 25.436,91.978C27.497,90.965 29.744,90.107 31.451,88.647C34.876,85.717 34.629,82.823 30.528,81.141C25.418,79.045 19.994,77.716 14.716,76.025C13.824,75.74 12.983,75.296 10.713,74.324C17.325,71.581 22.798,69.311 28.993,67.002C31.148,66.586 32.58,66.208 34.013,65.831C39.367,64.415 44.621,63.183 48.201,58.085C50.471,54.854 53.91,52.443 57.174,49.241C58.021,48.569 58.519,48.32 59.018,48.072C59.865,47.803 60.711,47.534 62.082,46.874C63.733,46.305 64.861,46.128 65.989,45.95C69.067,43.627 71.951,40.954 75.29,39.1C77.572,37.832 80.487,37.705 83.726,37.445C86.22,37.908 88.108,37.994 89.995,38.079C97.489,39.821 102.839,35.284 108.713,31.387C108.892,31.021 108.925,31.036 108.925,31.036C110.184,29.858 111.442,28.68 113.099,27.035C113.699,26.619 113.9,26.669 114.1,26.719C116.795,31.497 120.413,34.543 125.642,33.14C128.089,36.875 130.284,40.223 132.196,43.142C137.295,39.971 141.289,37.487 145.917,34.962C147.041,34.642 147.532,34.363 148.022,34.083C148.187,34.129 148.351,34.174 149.051,34.315C151.06,34.279 152.533,34.147 154.005,34.016C157.963,33.5 161.93,33.039 165.876,32.448C168.27,32.09 170.634,31.531 173.486,31.305C173.961,31.549 174.153,32.007 174.153,32.007C174.875,40.361 182.127,46.244 189.238,41.54C194.291,38.198 199.859,35.636 205.617,33.095C206.104,33.803 206.17,34.142 206.236,34.48C205.964,36.178 205.693,37.877 205.332,40.207C205.766,41.556 206.287,42.272 206.809,42.989C207.183,43.379 207.557,43.769 208.012,44.845C208.394,45.636 208.696,45.742 208.997,45.848C211.105,50.072 213.093,54.36 215.353,58.501C217.686,62.775 221.659,64.876 226.842,66.232C228.948,67.012 230.474,67.504 232,67.996C237.494,70.348 242.987,72.7 248.48,75.053C248.325,75.674 248.169,76.296 248.014,76.918C242.411,77.989 236.723,78.753 231.253,80.294C229.291,80.847 227.493,83.069 226.412,84.977C226.103,85.522 228.309,88.098 229.811,88.95C234.317,91.507 239.046,93.672 243.991,96.141C231.176,97.348 218.815,98.511 205.721,99.544C201.547,100.538 203.129,101.793 204.895,103.052C204.895,103.052 204.965,102.999 204.699,103.284C203.381,103.922 202.329,104.275 201.277,104.629C201.319,104.924 201.361,105.22 201.403,105.516C203.595,105.995 205.787,106.474 207.979,106.953C203.182,106.953 198.385,106.953 193.537,106.953C194.469,111.431 193.093,112.816 188.843,112C186.911,111.629 184.974,111.287 183.04,110.932C182.861,111.377 182.682,111.822 182.503,112.267C183.286,112.936 184.171,113.517 184.821,114.296C185.484,115.089 185.916,116.076 186.887,117.72C175.445,116.414 164.901,115.211 154.356,114.007C154.233,113.726 154.11,113.444 153.986,113.163C155.315,112.65 156.644,112.137 159.858,110.897C151.169,108.717 146.168,103.974 143.585,96.436C137.808,96.933 132.064,97.709 126.309,97.804C123.44,97.851 120.555,96.629 117.67,96.017C107.22,93.802 104.049,93.918 100.134,106.585C104.659,105.811 108.628,105.107 112.609,104.48C113.158,104.394 113.956,104.516 114.297,104.87C114.605,105.191 114.711,106.18 114.449,106.498C112.6,108.74 110.559,110.824 108.741,113.09C108.001,114.013 107.667,115.261 107.147,116.361C108.126,116.651 109.087,117.078 110.086,117.203C113.083,117.579 116.171,117.715 117.877,123.117C111.444,122.344 106.044,121.94 100.738,121.004C90.174,119.142 79.655,117.013 69.13,114.936C65.904,114.3 62.717,113.475 59.512,112.736C59.778,112.189 60.045,111.642 60.997,110.908C69.688,106.017 79.373,104.37 85.738,96.516C87.741,94.044 90.762,95.973 92.131,99.458C90.438,100.389 88.375,100.996 87.153,102.358C86.123,103.505 85.788,105.515 85.706,107.171C85.666,107.999 86.895,109.613 87.523,109.6C88.826,109.573 90.75,109.063 91.297,108.109C94.399,102.706 97.169,97.113 100.567,90.596C93.029,87.358 85.81,83.779 78.263,81.136C69.088,77.923 63.981,86.386 57.26,89.78C57.431,90.416 57.457,91.511 57.979,92.258C59.3,94.149 60.597,96.273 62.446,97.45C63.016,97.813 65.621,95.658 66.795,94.242C68.845,91.771 70.282,88.508 74.629,90.469C72.447,99.097 67.307,104.524 58.972,106.916M212.882,83.308C210.621,78.63 207.876,74.485 202.667,72.499C201.559,72.076 200.307,70.593 200.166,69.468C200.017,68.272 200.963,65.948 201.69,65.838C203.26,65.601 205.389,66.002 206.567,66.997C208.116,68.305 208.785,70.599 210.164,72.18C212.918,75.335 215.899,78.293 219.507,82.092C220.23,79.588 220.89,78.54 220.606,78.102C216.498,71.763 212.664,65.164 207.79,59.459C206.497,57.946 200.896,58.002 199.061,59.512C195.468,62.466 192.595,66.672 190.413,70.873C187.664,76.167 183.337,78.843 178.215,81.068C175.378,82.3 172.852,84.247 169.19,86.479C173.345,88.229 176.034,89.391 178.75,90.488C179.508,90.794 180.345,90.903 181.143,91.111C186.341,92.466 190.116,90.175 191.148,84.769C191.998,80.314 194.825,79.11 198.683,80.149C202.482,81.173 206.133,82.749 210.272,84.664C213.086,86.898 215.765,89.602 220.226,86.411C217.849,85.6 215.472,84.79 212.882,83.308M104.838,84.884C106.197,86.25 107.37,88.51 108.946,88.839C119.4,91.022 130.087,92.16 140.563,89.811C147.423,88.272 153.906,85.053 160.654,82.551C159.227,79.601 158.389,77.87 156.985,74.968C151.997,76.901 146.982,78.844 142.363,80.634C140.678,79.185 139.066,77.8 137.163,76.164C136.479,77.662 135.926,78.875 135.917,78.895C132.925,79.253 130.776,79.509 127.96,79.846C127.458,76.992 126.899,73.817 126.225,69.988C124.461,73.514 123.062,76.308 121.353,79.723C119.396,75.896 117.833,72.84 116.27,69.783C115.844,69.98 115.418,70.177 114.992,70.375C114.315,73.608 113.639,76.841 112.879,80.474C110.118,78.173 108.027,76.431 105.599,74.409C104.472,81.451 100.073,75.825 97.755,77.145C99.89,79.531 102.07,81.968 104.838,84.884M177.529,103.399C182.618,104.008 187.707,104.618 192.796,105.227C192.972,104.562 193.149,103.897 193.326,103.232C191.403,102.6 189.423,101.305 187.57,101.465C182.66,101.891 179.632,99.15 176.42,96.205C168.21,88.678 157.634,87.826 147.988,93.818C151.448,97.817 155.186,101.587 158.252,105.842C161.154,109.87 164.796,109.855 168.726,109.686C169.159,109.236 169.593,108.786 170.026,108.337C167.671,105.025 165.317,101.713 162.958,98.394C168.908,96.669 172.628,100.501 177.529,103.399M125.076,44.613C118.677,38.065 110.78,36.694 105.006,41.909C101.998,44.626 98.275,48.638 98.295,52.046C98.315,55.588 102.46,59.107 104.801,62.636C105.324,62.552 105.847,62.468 106.37,62.384C108.104,57.59 104.897,50.789 112.343,48.259C119.525,45.819 121.288,53.026 127.331,55.219C126.619,51.428 126.042,48.36 125.076,44.613M48.882,83.493C51.091,86.292 53.141,86.045 55.992,83.95C60.25,80.819 64.974,78.322 69.474,75.572C63.972,67.487 55.317,67.759 49.215,77.023C41.475,71.769 40.832,71.728 35.504,76.464C39.86,78.701 44.079,80.867 48.882,83.493M163.819,46.029C166.355,45.319 168.891,44.609 171.659,43.834C167.409,38.311 167.412,38.32 161.409,39.82C158.672,40.504 155.939,41.213 153.179,41.787C142.973,43.911 139.613,51.111 144.019,60.253C150.318,55.657 156.704,50.997 163.819,46.029M175.433,55.989C173.607,59.76 171.781,63.53 169.955,67.301C170.571,67.685 171.188,68.069 171.804,68.454C173.871,66.445 175.865,64.353 178.028,62.453C179.845,60.857 181.65,58.895 183.825,58.123C190.232,55.85 196.819,54.088 203.548,52.061C198.557,45.226 183.733,47.391 175.433,55.989M77.596,65.253C73.795,62.142 70.191,58.719 66.072,56.11C64.825,55.32 61.212,56.141 60.369,57.376C59.319,58.912 59.661,61.021 62.83,62.423C66.779,64.17 69.817,67.974 73.25,70.889C74.677,72.1 76.107,73.309 77.535,74.518C78.016,74.196 78.498,73.874 78.979,73.553C78.624,71.02 78.268,68.488 77.596,65.253M85.328,51.816C87.504,49.917 89.681,48.018 91.857,46.119C91.545,45.736 91.233,45.354 90.921,44.971C84.262,45.581 76.461,42.462 72.139,50.8C78.885,56.835 80.214,56.985 85.328,51.816z"/><path fill="#f3f4f4" d="M59.146,107.194C67.307,104.524 72.447,99.097 74.629,90.469C70.282,88.508 68.845,91.771 66.795,94.242C65.621,95.658 63.016,97.813 62.446,97.45C60.597,96.273 59.3,94.149 57.979,92.258C57.457,91.511 57.431,90.416 57.26,89.78C63.981,86.386 69.088,77.923 78.263,81.136C85.81,83.779 93.029,87.358 100.567,90.596C97.169,97.113 94.399,102.706 91.297,108.109C90.75,109.063 88.826,109.573 87.523,109.6C86.895,109.613 85.666,107.999 85.706,107.171C85.788,105.515 86.123,103.505 87.153,102.358C88.375,100.996 90.438,100.389 92.131,99.458C90.762,95.973 87.741,94.044 85.738,96.516C79.373,104.37 69.688,106.017 61.334,110.735C60.431,109.656 59.875,108.564 59.146,107.194z"/><path fill="#0b0b0b" d="M135.403,119.865C128.965,123.397 125.28,117.337 120.318,116.405C119.786,115.872 119.254,115.338 118.722,114.805C120.057,114.242 121.567,113.913 122.692,113.07C125.491,110.972 128.241,108.772 130.775,106.365C133.772,103.518 137.703,104.238 141.736,108.224C143.351,109.82 145.687,110.659 147.511,112.079C149.563,113.676 151.407,115.541 154.333,118.186C147.175,118.767 141.493,119.228 135.403,119.865z"/><path fill="#101010" d="M146.04,27.013C143.958,27.596 141.876,28.179 139.249,28.493C137.854,28.023 137.004,27.823 136.153,27.624C137.471,18.713 145.777,15.29 150.925,9.216C149.855,14.753 148.785,20.29 147.083,25.96C146.313,26.399 146.176,26.706 146.04,27.013z"/><path fill="#1c1d1d" d="M49.353,50.04C48.101,51.026 46.848,52.012 45.045,53.022C44.327,53.094 44.16,53.141 43.993,53.188C40.894,50.052 37.742,46.964 34.751,43.727C34.3,43.239 34.603,42.055 34.557,41.193C35.39,41.176 36.267,40.978 37.047,41.173C41.254,42.222 45.437,43.368 49.873,45.007C50.415,45.678 50.713,45.823 51.011,45.968C51.027,46.141 51.043,46.313 50.692,46.849C50.001,48.154 49.677,49.097 49.353,50.04z"/><path fill="#1e1e1e" d="M220.089,46.969C220.157,46.561 220.225,46.153 220.628,45.245C222.422,43.542 223.88,42.338 225.339,41.134C228.177,40.803 231.015,40.472 234.993,40.008C230.999,44.082 229.548,49.248 223.256,49.46C221.833,48.399 220.961,47.684 220.089,46.969z"/><path fill="#171717" d="M99.15,25.437C97.804,23.689 95.903,22.127 95.237,20.15C94.163,16.96 93.903,13.496 93.312,10.218C98.907,12.654 102.027,16.97 101.429,22.609C100.427,23.91 99.789,24.673 99.15,25.437z"/><path fill="#181919" d="M38.852,57.941C33.979,60.049 25.176,58.073 22.774,53.885C28.105,51.61 32.354,55.129 37.445,56.371C38.266,57.057 38.559,57.499 38.852,57.941z"/><path fill="#262727" d="M63.921,37.017C60.64,34.409 59.693,31.476 61.326,27.38C63.069,29.183 64.86,30.628 66.124,32.441C67.863,34.935 67.128,36.438 63.921,37.017z"/><path fill="#f3f4f4" d="M219.807,47.178C220.961,47.684 221.833,48.399 222.909,49.32C223.378,52.187 223.643,54.847 223.928,57.723C219.209,56.537 217.721,52.523 219.807,47.178z"/><path fill="#1a1b1b" d="M179.584,27.977C181.805,26.969 184.025,25.961 186.909,24.651C186.896,30.386 184.223,30.343 180.717,29.564C179.958,28.808 179.771,28.393 179.584,27.977z"/><path fill="#383838" d="M208.344,106.952C205.787,106.474 203.595,105.995 201.403,105.516C201.361,105.22 201.319,104.924 201.277,104.629C202.329,104.275 203.381,103.922 204.685,103.325C205.897,103.084 206.922,102.873 207.802,103.141C208.877,103.469 209.83,104.199 210.836,104.755C210.127,105.487 209.418,106.219 208.344,106.952z"/><path fill="#edeeee" d="M34.013,65.467C32.58,66.208 31.148,66.586 29.35,66.882C30.025,64.91 31.065,63.021 32.105,61.132C32.601,61.303 33.097,61.475 33.593,61.647C33.733,62.799 33.873,63.951 34.013,65.467z"/><path fill="#f4f4f4" d="M99.019,29.015C98.084,32.206 97.144,35.39 91.732,34.583C94.315,32.425 96.309,30.759 98.651,29.046C99,29 99.019,29.015 99.019,29.015z"/><path fill="#f4f4f4" d="M99.602,25.586C99.789,24.673 100.427,23.91 101.328,23C103.435,23.41 105.279,23.967 107.124,24.523C107.119,24.927 107.115,25.331 107.11,25.735C104.758,25.735 102.406,25.735 99.602,25.586z"/><path fill="#f3f4f4" d="M224.924,41.09C223.88,42.338 222.422,43.542 220.689,44.941C219.683,44.564 218.952,43.993 217.183,42.611C220.295,41.946 222.402,41.496 224.924,41.09z"/><path fill="#e6e7e7" d="M58.943,47.702C58.519,48.32 58.021,48.569 57.241,48.904C56.098,48.241 55.237,47.492 54.376,46.742C55.874,46.939 57.371,47.136 58.943,47.702z"/><path fill="#f4f4f4" d="M89.997,37.809C88.108,37.994 86.22,37.908 84.15,37.462C85.794,36.671 87.389,33.353 89.758,36.827C90,37 89.999,36.999 89.999,36.999C89.999,37.179 89.999,37.359 89.997,37.809z"/><path fill="#e6e7e7" d="M65.987,45.641C64.861,46.128 63.733,46.305 62.254,46.584C64.246,43.63 64.89,43.417 65.987,45.641z"/><path fill="#f3f4f4" d="M208.02,41.529C210.095,41.353 212.169,41.178 214.243,41.002C214.276,41.539 214.308,42.077 214.341,42.614C212.306,42.614 210.271,42.614 207.969,42.393C207.904,42.005 208.01,41.791 208.02,41.529z"/><path fill="#f3f4f4" d="M231.95,67.666C230.474,67.504 228.948,67.012 227.218,66.23C228.642,66.405 230.271,66.87 231.95,67.666z"/><path fill="#f3f3f3" d="M179.224,27.977C179.771,28.393 179.958,28.808 180.323,29.52C179.269,30.19 178.035,30.563 176.395,30.963C175.989,30.991 175.937,30.934 175.937,30.934C176.913,29.948 177.889,28.962 179.224,27.977z"/><path fill="#f0f1f1" d="M148.018,33.727C147.532,34.363 147.041,34.642 146.268,34.857C146.131,33.459 146.276,32.124 146.42,30.79C146.763,30.759 147.107,30.729 147.45,30.698C147.638,31.589 147.826,32.48 148.018,33.727z"/><path fill="#f4f4f4" d="M114.252,26.439C113.9,26.669 113.699,26.619 113.209,26.68C112.944,25.761 112.919,24.724 113.054,23.71C113.073,23.573 113.905,23.545 114.36,23.467C114.374,24.364 114.389,25.262 114.252,26.439z"/><path fill="#f0f1f1" d="M153.783,33.736C152.533,34.147 151.06,34.279 149.292,34.23C150.518,33.852 152.039,33.654 153.783,33.736z"/><path fill="#e6e7e7" d="M49.686,50.035C49.677,49.097 50.001,48.154 50.669,47.107C50.681,48.013 50.35,49.021 49.686,50.035z"/><path fill="#212121" d="M207.731,41.458C208.01,41.791 207.904,42.005 207.524,42.25C207.347,42.328 206.98,42.578 206.894,42.784C206.287,42.272 205.766,41.556 205.38,40.537C206.158,40.62 206.8,41.003 207.731,41.458z"/><path fill="#f0f1f1" d="M136.12,27.96C137.004,27.823 137.854,28.023 138.889,28.493C138.563,29.303 138.052,29.842 137.54,30.382C137.056,29.686 136.571,28.991 136.12,27.96z"/><path fill="#383838" d="M204.809,102.685C203.129,101.793 201.547,100.538 205.325,99.574C205.348,100.597 205.035,101.457 204.809,102.685z"/><path fill="#f3f3f3" d="M182.795,37.806C182.235,38.05 181.736,37.997 181.237,37.943C181.351,37.496 181.464,37.049 181.578,36.601C182.004,36.904 182.431,37.206 182.795,37.806z"/><path fill="#edeeee" d="M39.191,57.935C38.559,57.499 38.266,57.057 37.829,56.376C38.59,56.29 39.494,56.444 40.399,56.598C40.109,57.042 39.819,57.486 39.191,57.935z"/><path fill="#f3f3f3" d="M184.925,33.478C184.885,34.187 184.801,34.631 184.716,35.075C184.542,35.073 184.368,35.07 184.195,35.067C184.195,34.423 184.181,33.778 184.21,33.135C184.214,33.042 184.449,32.871 184.537,32.893C184.67,32.927 184.767,33.1 184.925,33.478z"/><path fill="#f4f4f4" d="M108.904,30.694C108.925,31.036 108.892,31.021 108.898,31.05C108.441,30.707 107.978,30.335 107.515,29.962C107.971,30.092 108.427,30.222 108.904,30.694z"/><path fill="#f0f1f1" d="M129.533,31.395C129.649,30.944 129.933,30.667 130.236,30.411C130.243,30.405 130.449,30.633 130.563,30.751C130.276,31.025 129.989,31.299 129.533,31.395z"/><path fill="#f3f3f3" d="M174.433,31.986C174.153,32.007 173.961,31.549 173.896,31.309C174.3,31.039 174.768,31.008 175.586,30.956C175.937,30.934 175.989,30.991 176.013,31.021C175.596,31.356 175.155,31.66 174.433,31.986z"/><path fill="#f6f6f6" d="M44.015,53.422C44.16,53.141 44.327,53.094 44.75,53.096C44.847,53.55 44.688,53.954 44.529,54.359C44.365,54.125 44.201,53.89 44.015,53.422z"/><path fill="#212121" d="M206.519,34.313C206.17,34.142 206.104,33.803 205.967,32.953C206.269,32.428 206.643,32.416 207.017,32.404C206.945,32.985 206.873,33.566 206.519,34.313z"/><path fill="#f4f4f4" d="M90.001,37.001C90.123,36.571 90.245,36.14 90.367,35.709C90.381,36.058 90.396,36.407 90.204,36.877C89.999,36.999 90,37 90.001,37.001z"/><path fill="#f3f4f4" d="M227.599,62.27C227.44,62.143 227.417,61.925 227.394,61.706C227.508,61.864 227.622,62.021 227.599,62.27z"/><path fill="#f0f1f1" d="M146.241,26.932C146.176,26.706 146.313,26.399 146.724,26.147C146.878,26.476 146.693,26.692 146.241,26.932z"/><path fill="#f4f4f4" d="M98.992,28.99C99.088,28.952 99.191,28.924 99.157,28.955C99.019,29.015 99,29 98.992,28.99z"/><path fill="#e6e7e7" d="M50.944,45.749C50.713,45.823 50.415,45.678 50.134,45.264C50.454,45.091 50.696,45.269 50.944,45.749z"/><path fill="#f3f4f4" d="M208.907,45.668C208.696,45.742 208.394,45.636 208.138,45.267C208.445,45.099 208.656,45.26 208.907,45.668z"/><path fill="#f4f5f5" d="M104.544,84.645C102.07,81.968 99.89,79.531 97.755,77.145C100.073,75.825 104.472,81.451 105.599,74.409C108.027,76.431 110.118,78.173 112.879,80.474C113.639,76.841 114.315,73.608 114.992,70.375C115.418,70.177 115.844,69.98 116.27,69.783C117.833,72.84 119.396,75.896 121.353,79.723C123.062,76.308 124.461,73.514 126.225,69.988C126.899,73.817 127.458,76.992 127.96,79.846C130.776,79.509 132.925,79.253 135.917,78.895C135.926,78.875 136.479,77.662 137.163,76.164C139.066,77.8 140.678,79.185 142.363,80.634C146.982,78.844 151.997,76.901 156.985,74.968C158.389,77.87 159.227,79.601 160.654,82.551C153.906,85.053 147.423,88.272 140.563,89.811C130.087,92.16 119.4,91.022 108.946,88.839C107.37,88.51 106.197,86.25 104.544,84.645z"/><path fill="#f5f5f5" d="M209.848,84.083C206.133,82.749 202.482,81.173 198.683,80.149C194.825,79.11 191.998,80.314 191.148,84.769C190.116,90.175 186.341,92.466 181.143,91.111C180.345,90.903 179.508,90.794 178.75,90.488C176.034,89.391 173.345,88.229 169.19,86.479C172.852,84.247 175.378,82.3 178.215,81.068C183.337,78.843 187.664,76.167 190.413,70.873C192.595,66.672 195.468,62.466 199.061,59.512C200.896,58.002 206.497,57.946 207.79,59.459C212.664,65.164 216.498,71.763 220.606,78.102C220.89,78.54 220.23,79.588 219.507,82.092C215.899,78.293 212.918,75.335 210.164,72.18C208.785,70.599 208.116,68.305 206.567,66.997C205.389,66.002 203.26,65.601 201.69,65.838C200.963,65.948 200.017,68.272 200.166,69.468C200.307,70.593 201.559,72.076 202.667,72.499C207.876,74.485 210.621,78.63 212.582,83.671C211.471,84.051 210.66,84.067 209.848,84.083z"/><path fill="#f3f3f3" d="M177.164,103.231C172.628,100.501 168.908,96.669 162.958,98.394C165.317,101.713 167.671,105.025 170.026,108.337C169.593,108.786 169.159,109.236 168.726,109.686C164.796,109.855 161.154,109.87 158.252,105.842C155.186,101.587 151.448,97.817 147.988,93.818C157.634,87.826 168.21,88.678 176.42,96.205C179.632,99.15 182.66,101.891 187.57,101.465C189.423,101.305 191.403,102.6 193.326,103.232C193.149,103.897 192.972,104.562 192.796,105.227C187.707,104.618 182.618,104.008 177.164,103.231z"/><path fill="#f6f6f6" d="M125.271,44.953C126.042,48.36 126.619,51.428 127.331,55.219C121.288,53.026 119.525,45.819 112.343,48.259C104.897,50.789 108.104,57.59 106.37,62.384C105.847,62.468 105.324,62.552 104.801,62.636C102.46,59.107 98.315,55.588 98.295,52.046C98.275,48.638 101.998,44.626 105.006,41.909C110.78,36.694 118.677,38.065 125.271,44.953z"/><path fill="#f4f4f4" d="M48.589,83.263C44.079,80.867 39.86,78.701 35.504,76.464C40.832,71.728 41.475,71.769 49.215,77.023C55.317,67.759 63.972,67.487 69.474,75.572C64.974,78.322 60.25,80.819 55.992,83.95C53.141,86.045 51.091,86.292 48.589,83.263z"/><path fill="#f3f4f3" d="M163.455,46.183C156.704,50.997 150.318,55.657 144.019,60.253C139.613,51.111 142.973,43.911 153.179,41.787C155.939,41.213 158.672,40.504 161.409,39.82C167.412,38.32 167.409,38.311 171.659,43.834C168.891,44.609 166.355,45.319 163.455,46.183z"/><path fill="#f3f4f4" d="M175.692,55.728C183.733,47.391 198.557,45.226 203.548,52.061C196.819,54.088 190.232,55.85 183.825,58.123C181.65,58.895 179.845,60.857 178.028,62.453C175.865,64.353 173.871,66.445 171.804,68.454C171.188,68.069 170.571,67.685 169.955,67.301C171.781,63.53 173.607,59.76 175.692,55.728z"/><path fill="#f1f2f2" d="M77.755,65.604C78.268,68.488 78.624,71.02 78.979,73.553C78.498,73.874 78.016,74.196 77.535,74.518C76.107,73.309 74.677,72.1 73.25,70.889C69.817,67.974 66.779,64.17 62.83,62.423C59.661,61.021 59.319,58.912 60.369,57.376C61.212,56.141 64.825,55.32 66.072,56.11C70.191,58.719 73.795,62.142 77.755,65.604z"/><path fill="#f6f6f6" d="M85.041,52.037C80.214,56.985 78.885,56.835 72.139,50.8C76.461,42.462 84.262,45.581 90.921,44.971C91.233,45.354 91.545,45.736 91.857,46.119C89.681,48.018 87.504,49.917 85.041,52.037z"/><path fill="#cecece" d="M210.06,84.374C210.66,84.067 211.471,84.051 212.689,84.007C215.472,84.79 217.849,85.6 220.226,86.411C215.765,89.602 213.086,86.898 210.06,84.374z"/></svg>