<svg xmlns="http://www.w3.org/2000/svg" viewBox="0 0 237 111" xml:space="preserve"><path fill="#060606" d="M72.994 90.157c-2.735.217-5.47.435-8.944.697-1.353.195-1.965.345-3.986.842 2.286.25 3.071.335 3.856.42 0 0 .048-.087-.03.262-.996 1.471-4.304.588-2.87 3.679H27.089l-.137-1.763 7.288-3.828-.13-2.023-24.493-3.247c.637-.73 1.184-1.956 1.85-2.023 5.746-.585 9.026-3.076 9.316-9.385.282-6.116 2.677-11.235 8.152-15.04 1.927-1.34 1.87-5.34 3.073-7.963 1.672-3.65 3.462-7.281 5.592-10.676 2.636-4.201 5.67-8.152 9.353-13.374-11.22.036-8.309-6.597-7.754-12.064.217-2.143.535-4.276 1.287-6.67a41 41 0 0 0 2.518-1.845c3.033-.052 6.065-.104 9.603.237 1.47.182 2.433-.03 3.397-.24 19.691.286 39.382.573 59.578 1.212.825.648 1.145.942 1.465 1.236l.957-1.453c17.62.333 35.244.59 52.858 1.149 1.39.044 3.204 1.952 3.942 3.432.923 1.853.975 4.153 1.334 6.272.822 4.848 3.592 8.485 8.177 9.642 7.756 1.956 11.465 7 11.962 14.4.4 5.935 4.612 8.274 8.83 10.06 6.105 2.586 8.549 7.014 9.691 13.135.872 4.67 2.89 9.114 4.116 13.733 1.154 4.35 3.376 7.07 8.205 7.112.87.008 1.732.794 2.713 2.172l-28.419 2.81-.067 1.54 12.341 10.348c-14.61 0-28.604 0-43.121-.39-1.201-2.073-1.878-3.756-2.658-5.693h16.121c-2.94-2.698-4.731-4.408-6.592-6.039-4.185-3.667-8.528-5.665-14.255-2.898-4.398 2.125-9.18 3.481-13.843 5.017-1.656.545-3.495.503-5.203.924-2.222.548-4.78.776-6.507 2.063-3.14 2.34-5.774 5.36-8.62 8.096-2.4-.189-4.797-.494-7.2-.532-2.121-.034-4.247.229-6.42-.67 3.85-2.022 7.702-4.044 11.972-6.475.763-1.394 1.107-2.38 1.45-3.365.555-2.335 1.11-4.671 1.888-7.953-2.591 0-4.322-.03-6.051.005-12.941.266-25.883.492-38.82.9-1.299.042-2.562 1.212-3.508 2.28.333.423.2.46.2.46-.002-.368-.004-.735-.562-1.202-.555-.1-.543-.257-.543-.257-1.529.564-3.058 1.127-4.95 2.142-1.4.565-2.435.678-3.47.79M46.84 14.295c.554.318 1.588.63 1.592.955.08 6.724.057 6.71 6.857 6.753 3.665.023 7.33.086 10.994.164 29.632.634 59.263 1.303 88.897 1.818 1.192.02 2.409-1.389 3.614-2.132-1.288-.618-2.524-1.575-3.875-1.78-2.475-.378-5.017-.312-7.53-.431l.117-1.281h11.158l.367-4.107c-1.146-.125-1.956-.265-2.77-.293-18.967-.662-37.93-1.4-56.9-1.935-16.308-.46-32.622-.73-48.935-.952-1.71-.023-4.867-1.315-3.586 3.221m109.425 44.757v4.374c2.349-1.354 3.989-2.394 5.71-3.273 3.815-1.947 8.172-3.455 11.78-.797 6.06 4.464 11.542 9.718 17.205 14.709 2.23 1.965 4.295 4.118 6.435 6.185l1.398-1.03c-1.239-2.557-2.386-5.165-3.737-7.662-2.304-4.261-7.376-7.173-6.258-13.128.107-.57-.802-1.33-1.24-2.003 2.812.33 5.342 1.321 7.393 2.925 2.215 1.732 3.982 4.036 6.825 7.012-1.717-9.25-8.185-16.609-13.283-16.147l.247 3.548c-11.01-4.262-20.748-11.308-33.137-8.342.219 4.203.44 8.461.662 13.629m-14.988-.001c-.425 1.63-1.184 3.253-1.216 4.89-.123 6.321-.145 12.651.073 18.968.087 2.532.891 5.04 1.38 7.616 5.218-1.022 8.322-2.653 7.78-8.225-.528-5.437-.277-10.953-.29-16.435-.029-12.125-.009-24.249-.009-36.685l-8.62.773c0 10.036 0 19.473.902 29.098M57.954 29.746c-.929-5.444-4.597-2.158-7.05-2.556v55.531h7.064c0-17.494 0-34.754-.014-52.975m102.181 39.136c-4.218 4.513-1.998 9.314-1.054 14.592 6.04-2.193 13.764 2.03 16.804-6.59 2.83 3.07 5.38 6.098 8.238 8.8.966.913 2.712 1.002 4.101 1.468-.136-1.315.195-2.978-.484-3.89-4.518-6.073-8.958-12.263-14.128-17.752-1.256-1.335-5.22-.58-7.792-.06-1.806.364-3.364 1.957-5.685 3.432M44.061 45.59l-1.979-4.29c-1.715 4.263-2.873 7.258-4.123 10.214-1.717 4.064-2.565 9.034-5.464 11.942-5.458 5.478-4.515 11.496-4.196 18.137l7.59.43c.441-3.67-.204-8.82 1.407-9.663 4.272-2.238 3.896-5.835 4.54-9.129 1.094-5.591 1.714-11.275 2.225-17.642m81.036 32.839c-11.27.117-22.542.18-33.81.416-1.567.033-3.116.926-5.636 1.726 1.692 1.236 2.076 1.762 2.467 1.767 12.912.157 25.824.299 38.736.287.709 0 1.416-1.339 2.124-2.054-.993-.712-1.986-1.425-3.881-2.142M82.124 28.433c-5.606.355-9.942 1.64-14.299 6.57-4.759 5.387-3.581 10.19-3.28 15.787 6.33-6.244 12.191-12.708 17.914-19.29.568-.654.293-2.038-.335-3.067m37.425 7.416 15.402 13.918c1.583-11.509-8.318-22.64-19.42-19.89 1.234 1.898 2.382 3.663 4.018 5.972m46.74-5.286c-4.641 2.206-5.024 5.975-3.766 10.985 4.107 0 10.342 1.6 11.852-.39 2.059-2.71.514-8.157.514-13.115-3.241.872-5.566 1.497-8.6 2.52M83.033 53.687c0 5.294-.188 10.599.108 15.876.093 1.655 1.49 3.238 2.289 4.854l.847-.672V41.532l-1.486-.14c-.586 3.784-1.172 7.566-1.758 12.295M67.83 65.823v17.774c6.408-4.166 6.665-22.498 1.447-25.527-.439 2.321-.867 4.585-1.447 7.753m43.687 6.16H99.01l.015 1.28c9.27 1.278 18.534.846 27.798.44l.003-1.719z"/><path fill="#f0f1f0" d="M129.049 104.376c2.805-3.079 5.439-6.099 8.579-8.439 1.727-1.287 4.285-1.515 6.507-2.063 1.708-.421 3.547-.379 5.203-.924 4.664-1.536 9.445-2.892 13.843-5.017 5.727-2.767 10.07-.769 14.255 2.898 1.86 1.631 3.653 3.34 6.592 6.04h-16.121c.78 1.936 1.457 3.619 2.2 5.679-1.71.458-3.488.538-5.838.644l3.243 5.7c-1.131.052-1.929.09-3.147-.235-2.67-5.832-6.428-10.214-11.829-12.29-2.64-1.014-6.744-.765-9.12.672-3.627 2.194-6.33 5.914-9.425 8.986-1.634-.436-3.268-.873-4.942-1.651"/><path fill="#0e0e0e" d="M134.398 106.111c2.688-3.156 5.391-6.876 9.018-9.07 2.376-1.437 6.48-1.686 9.12-.671 5.4 2.075 9.16 6.457 11.498 12.284-2.066.35-4.244.54-6.375.305-7.627-.843-15.237-1.83-23.26-2.848"/><path fill="#f5f5f5" d="M98.719 90.454c.637 1.535.912 2.935 1.188 4.335H87.143l-.051-1.784c3.755-.895 7.51-1.79 11.627-2.55M61.18 96.37c-1.594-3.404 1.714-2.52 2.664-3.97 3.98.582.087 3.01.971 4.514-1.159-.078-2.318-.155-3.635-.545m67.218-3.386c.069.994-.275 1.98-.961 3.005-2.15-.448-3.957-.936-5.764-1.424l.063-1.59c2.083 0 4.166 0 6.662.009M73.01 90.535c1.02-.491 2.055-.604 3.477-.784-.042.988-.47 2.044-.898 3.1-.855-.646-1.71-1.292-2.58-2.316m8.231-2.931c.174-.38.162-.223.183-.254.02 1.78.02 3.592.02 5.404l-2.197-.364a617 617 0 0 1 1.995-4.786"/><path fill="#0a0a0a" d="M55.632 6.068c-.593.296-1.556.507-2.578.402.698-.373 1.452-.43 2.578-.402m62.04.992c.012.572-.307 1.057-.626 1.541-.32-.294-.64-.588-1.005-1.164.404-.343.852-.404 1.631-.377m-74.995-.967c-.353.593-1.033 1.123-2.066 1.515.345-.618 1.042-1.098 2.066-1.515"/><path fill="#f5f5f5" d="M63.947 91.85c-.812.181-1.597.095-3.883-.154 2.02-.497 2.633-.647 3.592-.725.337.253.328.432.291.878m18.724-3.269c.239.115.458.296.678.477-.193 0-.385 0-.704-.188-.125-.186.007-.223.026-.289"/><path fill="#f6f6f6" d="M46.534 14.047c-.974-4.289 2.183-2.997 3.893-2.974 16.313.222 32.627.492 48.935.952 18.97.535 37.933 1.273 56.9 1.935.814.028 1.624.168 2.77.293l-.367 4.107h-11.158l-.118 1.28c2.514.12 5.056.054 7.53.431 1.352.206 2.588 1.163 3.876 1.781-1.205.743-2.422 2.152-3.614 2.132-29.634-.515-59.265-1.184-88.897-1.818a730 730 0 0 0-10.994-.164c-6.8-.043-6.777-.03-6.857-6.753-.004-.324-1.038-.637-1.899-1.202m50.159 2.96.362-1.218c-5.904.072-11.808.137-17.711.274-.114.003-.209.86-.47 2.013 5.827-.32 11.367-.626 17.819-1.07m59.573 41.59c-.221-4.713-.443-8.971-.662-13.174 12.389-2.966 22.126 4.08 33.137 8.342l-.247-3.548c5.098-.462 11.566 6.898 13.283 16.147-2.843-2.976-4.61-5.28-6.825-7.012-2.051-1.604-4.58-2.596-7.392-2.925.437.672 1.346 1.433 1.239 2.003-1.118 5.955 3.954 8.867 6.258 13.128 1.35 2.497 2.498 5.105 3.737 7.663l-1.398 1.03c-2.14-2.068-4.205-4.221-6.435-6.186-5.663-4.991-11.145-10.245-17.204-14.709-3.61-2.658-7.966-1.15-11.78.797-1.722.879-3.362 1.919-5.711 3.273z"/><path fill="#fafbfa" d="M140.827 58.956c-.45-9.53-.45-18.968-.45-29.004l8.62-.773c0 12.436-.02 24.56.008 36.685.013 5.482-.238 10.998.29 16.435.542 5.572-2.562 7.203-7.78 8.225-.489-2.576-1.293-5.084-1.38-7.616-.218-6.317-.196-12.647-.073-18.967.032-1.638.79-3.261.765-4.985"/><path fill="#fbfcfc" d="M57.961 30.227c.007 17.74.007 35 .007 52.494h-7.063V27.19c2.452.398 6.12-2.888 7.056 3.037"/><path fill="#f5f5f5" d="M160.461 68.667c1.995-1.26 3.553-2.853 5.359-3.217 2.573-.52 6.536-1.275 7.792.06 5.17 5.49 9.61 11.679 14.128 17.752.679.912.348 2.575.484 3.89-1.39-.466-3.135-.555-4.101-1.468-2.858-2.702-5.409-5.73-8.238-8.8-3.04 8.62-10.763 4.397-16.804 6.59-.944-5.278-3.164-10.079 1.38-14.807"/><path fill="#f4f4f4" d="M44.215 45.95c-.665 6.007-1.285 11.69-2.379 17.282-.644 3.294-.268 6.89-4.54 9.129-1.61.844-.966 5.994-1.407 9.663l-7.59-.43c-.319-6.641-1.262-12.66 4.196-18.137 2.9-2.908 3.747-7.878 5.464-11.942 1.25-2.956 2.408-5.951 4.123-10.214a552 552 0 0 1 2.133 4.65"/><path fill="#e3e3e3" d="M125.548 78.431c1.444.715 2.437 1.428 3.43 2.14-.708.715-1.415 2.053-2.124 2.054-12.912.012-25.824-.13-38.736-.287-.39-.005-.775-.53-2.467-1.767 2.52-.8 4.069-1.693 5.636-1.726 11.268-.237 22.54-.299 34.261-.414"/><path fill="#f6f6f6" d="M82.496 28.425c.256 1.037.53 2.421-.037 3.074-5.723 6.583-11.584 13.047-17.913 19.291-.302-5.597-1.48-10.4 3.279-15.786 4.357-4.932 8.693-6.216 14.671-6.579"/><path fill="#f4f5f5" d="M119.305 35.577a283 283 0 0 1-3.774-5.7c11.102-2.75 21.003 8.381 19.42 19.89-4.817-4.354-10.11-9.136-15.646-14.19"/><path fill="#f3f4f4" d="M166.644 30.364c2.679-.824 5.004-1.45 8.245-2.32 0 4.957 1.545 10.404-.514 13.115-1.51 1.989-7.745.39-11.852.39-1.258-5.011-.875-8.78 4.12-11.185"/><path fill="#f0f1f1" d="M83.032 53.214c.586-4.256 1.172-8.038 1.758-11.821l1.486.14v32.212l-.847.672c-.8-1.616-2.196-3.199-2.289-4.854-.296-5.277-.108-10.582-.108-16.349"/><path fill="#f7f7f7" d="M67.905 65.37c.504-2.715.932-4.979 1.37-7.3 5.22 3.03 4.962 21.361-1.446 25.527 0-6.43 0-12.103.076-18.226"/><path fill="#f1f2f1" d="M112.01 71.984h14.816l-.003 1.72c-9.264.405-18.528.837-27.798-.441l-.015-1.28z"/><path fill="#29292a" d="M96.237 17.075c-5.996.375-11.536.68-17.363 1.001.261-1.154.356-2.01.47-2.013 5.903-.137 11.807-.202 17.711-.274-.12.406-.241.812-.818 1.286"/></svg>