<svg xmlns="http://www.w3.org/2000/svg" viewBox="0 0 229 115" xml:space="preserve"><path fill="#060606" d="M137.198 104.48c-2.794-.45-5.588-.9-9.193-1.372-3.545.33-6.28.683-9.36.898-2.795-1.095-5.247-2.052-7.469-3.298 3.318-2.699 8.802-1.537 10.26-7.063-9.026 0-17.767 0-26.787.038-.065.404.149.77.642 1.365 2.193 1.131 4.107 2.033 5.998 3.168-.23.47-.442.701-.633.934a2 2 0 0 0-.178-.049 2.7 2.7 0 0 0-.78.096c-8.167.261-16.523-3.193-25.902 1.272l13.836 2.648-.138 1.294c-16.054 2.689-32.09.4-48.458-1.552 2.1-4.102.591-10.448-3.17-12.673-4.115-2.434-7.607-1.267-9.775 3.852-1.176 2.774-1.433 5.938-2.104 8.926H7.472c.778-1.7 1.035-3.765 2.072-4.291C20.389 93.167 23.235 82.81 25.896 72.32c1.135-4.476 1.754-9.119 3.29-13.443.895-2.52 2.743-5.078 4.864-6.706 4.15-3.187 4.339-7.28 3.698-11.674-1.258-8.637 2.267-14.421 10.784-16.656 5.442-1.428 10.62-2.967 15.084-6.79 6.878-5.89 16.08-5.505 24.166-8.175 17.657-5.832 34.444-1.596 51.367 3.202 6.4 1.815 12.997 3.392 19.594 3.896 4.404.337 7.274 1.874 8.18 5.688 2.659 11.183 11.286 15.755 20.795 19.078 3.136 1.096 4.42 2.583 5.216 5.493 3.646 13.336 10.22 25.254 19.06 35.73 3.3 3.911 8.316 6.377 13.674 10.332l-20.396.895 7.117 8.429-29.706 1.54-.576 1.688 6.224 3.535-1.27 1.552c-12.736 2.695-25.455 4.314-38.493-1.333 2.276-2.725 4.691-6.09 7.78-6.907 2.109-.557 5.158 2.44 7.864 3.89l11.455-5.766c-3.438-3.804-7.017-9.552-13.292-7.563-6.795 2.152-13.362 5.769-19.154 9.955-2.149 1.552-3.516 2.703-6.023 2.27m-13.589-9.696c-.19-.403-.38-.806-1.509-1.274l-.241 1.208c.377.039.755.077 1.75.066M51.503 77.587c.905.797 1.81 1.594 2.323 3.1-.958.96-2.689 1.877-2.745 2.887-.283 5.086-.13 10.196-.13 15.57 4.498-.881 9.36.544 10.932-4.813 1.45-4.947-.204-11.816-1.847-12.813.72-2.967 1.742-5.503 1.872-8.083.224-4.472-.105-8.97-.135-13.94l-.279-.4s-.48.082-1.151-.175l-2.386-.867c4.884-2.338 4.687-6.727 3.22-14.123-3.887.966-9.463.696-11.27 3.175-2.993 4.106.734 12.847 5.465 16.594l-6.137.963c.89 4.365 1.701 8.339 2.268 12.925M84.5 28.294c-11.137.214-22.274.414-33.41.649-4.232.089-8.242 3.162-8.048 6.511.28 4.829 4.056 4.977 7.631 4.992 28.793.12 57.585.21 86.378.302 4.573.015 9.147.002 13.54.002V28.355c-21.91 0-43.5 0-66.09-.06m66.45 41.05c-.134 6.148-2.387 12.492 1.433 17.592 4.44-.23 8.649-.349 12.836-.709 1.843-.158 3.643-.805 5.463-1.23-.663-1.774-.94-3.853-2.06-5.265-3.385-4.271-5.973-8.635-4.13-15.37l8.52 10.023c1.013-3.1 2.652-5.396 2.123-6.96-2.416-7.143-5.283-14.152-8.365-21.04-.707-1.58-2.903-2.494-4.414-3.715l-1.226 1.035c.15 2.44.911 5.058.27 7.269-.575 1.981-2.885 5.122-4.099 4.977-6.439-.769-6.69 2.86-6.33 7.457.13 1.652.006 3.323-.022 5.937m-7.73-24.136h-10.964c-.1 1.892-.24 3.36-.246 4.83-.021 5.65-.882 11.486.254 16.9 1.128 5.375-.318 10.325-.259 15.462.049 4.16.279 8.345-.086 12.473-.326 3.69 1.367 5.269 4.593 5.583 3.266.318 5.951-.712 6.805-4.32.828-3.5 1.4-7.07 2.384-10.525 1.13-3.972-1.056-5.604-4.21-6.769l-2.686-.993c5.166-.657 6.8-4.664 6.992-8.466.134-2.65-2.173-5.422-3.507-8.404.086-.112 1.524-1.126 1.585-2.216.238-4.278.042-8.58-.656-13.555M106.5 20.997H82.787l-.008-2.072 40.493-3.09c-11.085-5.97-21.57-5.801-46.277 1.612-4.612 1.384-9.966 2.132-12.826 7.608 27.164-.25 53.845.28 80.504-.296l.022-2.627c-12.398-.378-24.797-.757-38.195-1.135M32.124 76.76l-2.079 9.16c2.154-.725 3.95-1.33 5.994-2.02l-1.42-5.06c2.188 1.8 3.194 2.776 4.343 3.534 1.305.861 2.738 1.528 4.116 2.28.717-1.465 2.091-2.952 2.041-4.39-.259-7.46-.87-14.91-1.388-22.36-.085-1.235-.314-2.46-.697-5.357-2.649 3.005-5.028 4.635-5.843 6.841-1.987 5.383-3.25 11.033-5.067 17.372m93.418-23.56c-7.966-8.929-8.792-9.276-18.41-7.582l19.553 19.927 1.734-1.043c-.82-3.557-1.639-7.114-2.877-11.302m56.892 41.078 16.512 2.596c-7.661-12.119-16.535-14.137-21.58-5.903 1.439.975 2.893 1.96 5.068 3.307M81.671 47.936l.465-2.785c-3.184.348-7.268-.42-9.367 1.273-4.679 3.773-7.344 9.086-5.127 15.819 1.185-.649 2.396-.972 3.096-1.753 3.536-3.944 6.938-8.008 10.933-12.554m104.545 10.22c-1.998-3.065-3.582-6.63-9.11-7.546l9.508 11.712.84-.766c-.284-.952-.567-1.903-1.238-3.4"/><path fill="#f5f6f6" d="M137.13 104.83c2.575.083 3.942-1.068 6.09-2.62 5.793-4.186 12.36-7.803 19.155-9.955 6.275-1.989 9.854 3.759 13.292 7.563l-11.455 5.765c-2.706-1.449-5.755-4.446-7.864-3.889-3.089.817-5.504 4.182-8.155 6.835-3.458-.263-6.966-.901-10.834-1.813-.364-.458-.366-.642-.37-.825.025-.237.05-.474.141-1.06"/><path fill="#f4f5f4" d="M24.11 103.212c.548-3.236.805-6.4 1.98-9.174 2.17-5.119 5.66-6.286 9.776-3.852 3.761 2.225 5.27 8.571 2.85 12.39-.412.45-.832.46-1.976.502-4.347.346-7.971.66-11.595.974-.305-.198-.609-.395-1.036-.84"/><path fill="#282827" d="M25.069 104.452c3.7-.714 7.324-1.028 11.356-1.368-.062.357-.533.74-1.223 1.3l8.816 4.031-.55 1.328c-5.653-.612-11.32-1.132-16.941-1.96-.641-.094-1.029-1.911-1.458-3.33"/><path fill="#f2f3f2" d="M110.947 100.996c2.451.958 4.903 1.915 7.7 3.24.347.368.36.829.36.829-1.377.132-2.752.347-4.132.381-2.947.074-6.077-.581-8.808.198-6.775 1.933-7.419 1.611-6.565-5.996.403-.505.61-.55 1.054-.119.41 1.864.586 3.259.808 5.02z"/><path fill="#e6e6e6" d="M119.411 105.058c-.404.007-.417-.454-.419-.684 2.733-.583 5.468-.935 8.62-1.21-.576.999-1.482 2.537-2.583 2.693-1.666.237-3.469-.489-5.618-.8"/><path fill="#f2f3f2" d="M94.836 101.026c.452.971.51 1.917.568 2.862h-4.798l-.389-1.464c1.409-.474 2.818-.949 4.62-1.398"/><path fill="#e6e6e6" d="M129.255 108.344c-1.028 1.209-2.343 2.203-3.657 3.197l-1.083-2.093c1.484-.44 2.969-.88 4.74-1.104m5.215 1.408c-1.077.523-1.983.769-2.888 1.015l-.152-1.612c1.07.107 2.14.213 3.04.597m2.265-3.822c.258.144.26.328.259.787-.391.17-.777.064-1.163-.041.216-.236.432-.471.904-.746"/><path fill="#e6e7e7" d="M85 28.325c22.09.03 43.68.03 65.59.03V40.75c-4.392 0-8.966.013-13.54-.002-28.792-.093-57.584-.181-86.377-.302-3.575-.015-7.35-.163-7.63-4.992-.195-3.349 3.815-6.422 8.046-6.511A6275 6275 0 0 1 85 28.325m58.337 5.322c-9.829-1.22-19.62-.923-29.432.18.334.916.695 1.349 1.064 1.356 8.938.17 17.876.323 26.814.375.659.004 1.322-.767 1.554-1.91m-87.828.518c9.204 1.487 18.351.869 27.506.536l-.032-1.41c-9.216 0-18.432 0-27.474.874"/><path fill="#f6f7f6" d="M150.96 68.87c.018-2.138.142-3.81.013-5.46-.36-4.598-.11-8.227 6.329-7.458 1.214.145 3.524-2.996 4.099-4.977.641-2.21-.12-4.829-.27-7.27l1.226-1.034c1.51 1.22 3.707 2.135 4.414 3.715 3.082 6.888 5.949 13.897 8.365 21.04.53 1.564-1.11 3.86-2.124 6.96l-8.519-10.022c-1.843 6.734.745 11.098 4.13 15.37 1.12 1.411 1.397 3.49 2.06 5.264-1.82.425-3.62 1.072-5.463 1.23-4.187.36-8.395.48-12.836.71-3.82-5.101-1.567-11.445-1.424-18.068"/><path fill="#f7f7f7" d="M143.55 45.55c.367 4.635.563 8.937.325 13.215-.061 1.09-1.5 2.104-1.585 2.216 1.334 2.982 3.64 5.755 3.507 8.404-.192 3.802-1.826 7.81-6.992 8.466l2.687.993c3.153 1.165 5.339 2.797 4.209 6.77-.983 3.454-1.556 7.023-2.384 10.524-.854 3.608-3.539 4.638-6.805 4.32-3.226-.314-4.92-1.894-4.593-5.583.365-4.128.135-8.313.086-12.473-.06-5.137 1.387-10.087.259-15.463-1.136-5.413-.275-11.25-.254-16.9.006-1.469.146-2.937.246-4.829 3.785 0 7.374 0 11.295.34"/><path fill="#f7f8f8" d="M61.707 59.977c.096 4.488.425 8.986.2 13.458-.129 2.58-1.15 5.116-1.87 8.083 1.642.997 3.296 7.866 1.846 12.813-1.571 5.357-6.434 3.932-10.932 4.814 0-5.375-.153-10.485.13-15.571.056-1.01 1.787-1.927 3.157-2.995.839.62 1.266 1.35 2.229 2.992 1.198-5.369-1.002-6.618-4.72-6.597l-2.512-12.312 6.137-.963c-4.731-3.747-8.458-12.488-5.465-16.594 1.807-2.479 7.383-2.21 11.27-3.175 1.467 7.396 1.664 11.785-3.22 14.123 1.04.377 1.713.622 2.795 1.161.545.506.726.662.955.763"/><path fill="#f6f7f7" d="M107 20.997c12.898.378 25.297.757 37.695 1.135l-.022 2.627c-26.659.575-53.34.045-80.504.296 2.86-5.476 8.214-6.224 12.826-7.608 24.707-7.413 35.192-7.583 46.277-1.613-13.1 1-26.797 2.046-40.493 3.09l.008 2.073z"/><path fill="#f6f6f6" d="M32.256 76.363c1.686-5.94 2.948-11.59 4.935-16.974.815-2.206 3.194-3.836 5.843-6.84.383 2.896.612 4.121.697 5.356.518 7.45 1.13 14.9 1.388 22.36.05 1.438-1.324 2.925-2.041 4.39-1.378-.752-2.81-1.419-4.116-2.28-1.15-.758-2.155-1.734-4.343-3.534l1.42 5.06-5.994 2.02c.757-3.334 1.418-6.247 2.21-9.558"/><path fill="#f3f4f4" d="M125.752 53.515c1.028 3.873 1.848 7.43 2.667 10.987l-1.734 1.043-19.553-19.927c9.618-1.694 10.444-1.347 18.62 7.897"/><path fill="#fefefe" d="M111.176 100.708c-3.28 1.42-6.33 2.55-9.812 3.842a346 346 0 0 0-.651-4.98c-.08-.428-.028-.412.216-.217.916.176 1.589.156 2.261.136l-1.878-1.507c-1.914-.901-3.828-1.803-6.021-3.229-.308-.719-.336-.913-.364-1.108h26.51c-1.46 5.526-6.943 4.364-10.26 7.063"/><path fill="#f7f7f7" d="M182.073 94.097a218 218 0 0 1-4.707-3.126c5.045-8.234 13.919-6.216 21.58 5.903-6.319-.993-11.415-1.795-16.873-2.777"/><path fill="#f2f2f2" d="M81.398 48.198c-3.722 4.284-7.124 8.348-10.66 12.292-.7.781-1.91 1.104-3.096 1.753-2.217-6.733.448-12.046 5.127-15.819 2.1-1.693 6.183-.925 9.367-1.273-.155.928-.31 1.857-.738 3.047"/><path fill="#e5e6e6" d="M186.41 58.428c.477 1.225.76 2.176 1.043 3.128l-.839.766-9.508-11.712c5.528.917 7.112 4.48 9.304 7.818"/><path fill="#f6f6f6" d="M51.625 77.28c3.84-.327 6.04.922 4.842 6.29-.963-1.642-1.39-2.37-2.034-3.345-1.12-1.044-2.025-1.841-2.808-2.945"/><path fill="#f2f3f2" d="M101.289 98.216c.65.269 1.275.77 1.901 1.273-.672.02-1.345.04-2.29-.143-.053-.429.159-.66.389-1.13m21.751-4.641c.19.403.38.806.258.919-.293-.5-.276-.71-.258-.92"/><path fill="#fefefe" d="M122.57 93.542c.452.242.435.452.42.977-.376.276-.754.238-1.131.199.08-.403.16-.805.711-1.176"/><path fill="#f2f3f2" d="M94.649 93.683c.306.157.334.351.362.84-.213-.07-.427-.436-.362-.84"/><path fill="#f6f6f6" d="M61.74 59.736c-.262.14-.443-.016-.652-.393-.074-.166.406-.247.406-.247s.279.399.246.64"/><path fill="#1b1b1b" d="M143.55 34.014c-.445.777-1.108 1.548-1.767 1.544-8.938-.052-17.876-.204-26.814-.375-.369-.007-.73-.44-1.064-1.356 9.812-1.103 19.603-1.4 29.646.187"/><path fill="#0c0c0d" d="M55.422 33.73c9.129-.437 18.345-.437 27.561-.437l.032 1.409c-9.155.333-18.302.951-27.593-.972"/></svg>