<svg xmlns="http://www.w3.org/2000/svg" viewBox="0 0 226 114" xml:space="preserve"><path fill="#070707" d="m65.874 100.684-32.15-1.433 2.914-7.691-25.672-4.921c14.664-4.821 11.416-2.218 13.089-15.944 1.16-9.515 2.954-18.95 4.265-28.448.77-5.573 1.326-11.19 1.642-16.807.239-4.253.813-7.411 6.373-6.932 4.111.354 8.3-.266 12.457-.34 3.068-.055 4.907-.804 3.62-4.455-1.278-3.628.462-4.658 3.966-4.652 34.973.063 69.945-.016 104.918.042 7.174.011 7.17.196 7.902 7.436.064.634.214 1.259.324 1.885 4.412.83 8.598 1.882 12.848 2.313 2.525.256 3.13 1.13 3.63 3.534a1796 1796 0 0 0 9.967 44.937c.397 1.686 2.324 3.036 3.607 4.483 1.3 1.466 2.81 2.759 4.002 4.302 4.71 6.1 4.677 6.126 11.835 7.572-6.7 5.765-16.133 1.012-23.702 6.11l6.367 3.688-.206 1.248h-44.305l9.105 9.564c-22.355 0-43.554 0-65.25-.45a225 225 0 0 1-2.443-2.322l-.977 2.53c-6.634.025-13.27.129-19.9-.01-.93-.02-1.836-1.23-2.293-2.393a418 418 0 0 0 5.732-8.167c-5.18-4.064-10.231-7.71-14.904-11.79-4.242-3.703-6.937-3.73-10.868.52-1.564 1.692-3.484 3.05-5.12 4.684-.665.666-1.004 1.657-1.492 2.5.829.292 1.737.962 2.474.809 3.21-.67 6.341-1.718 9.557-2.344 1.608-.313 4.494-.567 4.814.103 1.647 3.443 2.648 7.195 3.874 10.839m87.479-36.476c.931-.866 2.615-1.69 2.668-2.607.271-4.75.126-9.523.126-14.51h-5.462c6.614-3.254 5.915-7.393 4.553-13.721h-11.04v29.75c1.48.305 2.766.57 3.981 1.646-3.535 1.27-4.709 3.694-4.267 7.437.407 3.447-.76 7.33.423 10.378 2.051 5.282 7.244 2.856 11.85 3.463 0-4.846.069-9.29-.04-13.732-.036-1.455-1.217-3.237-.697-4.283 1.585-3.187-.51-2.894-2.095-3.82m-11.486 36.652h7.17l.692-1.427c-2.68-2.045-5.303-5.76-8.046-5.85-12.535-.412-25.104.192-38.588.375-1.203.23-2.407.46-4.304.37-6.738-2.514-11.854-1.22-13.959 6.67 1.879 0 3.664-.003 5.448.001 14.907.035 29.814.072 44.866.8 2.089.83 4.527 4.398 6.721-.94m-71.02-18.244c2.72.074 5.44.147 8.688.3.093-.3.185-.601.419-1.811-.082-2.122-.003-4.266-.292-6.359-.272-1.975-.932-3.897-1.655-6.372-.293-.442-.585-.883-.16-1.604.636-1.02 1.792-2.022 1.827-3.061.266-7.954.355-15.915.403-23.874.014-2.23-.292-4.461-.445-6.606H64.446c.886 2.7 1.947 5.113 2.436 7.637.59 3.042 1.245 5.252 5.118 3.656.656-.27 1.821.694 2.75 1.088-.596.787-1.275 2.306-1.779 2.25-5.999-.661-5.411 3.255-5.111 7.046.372 4.696.933 9.389 1.02 14.09.074 3.994-.411 7.998-.669 12.597.602.214 1.204.428 2.636 1.023M94.5 25.957h66.783c.306-2.12.609-3.743.764-5.38.553-5.823-.103-6.494-6.124-6.451-8.814.062-17.628.205-26.44.157-4.422-.024-8.24.74-10.117 6.102-1.604-2.063-2.893-5.1-4.122-5.077-7.498.145-15.249-4.043-22.557 1.063-.894.624-2.654.348-3.896.03-1.038-.264-1.896-1.74-2.848-1.755-9.213-.14-18.429-.084-27.962-.084.338 2.319.5 3.455.67 4.591.723 4.826 2.752 7.347 8.404 6.979 8.781-.573 17.627-.16 27.445-.175m43.31 21.71v-4.51l-6.143-.287-.117-.822 6.296-2.031.474-6.634H85.833l3.043 46.553 1.53-.08c0-6.064-.58-12.196.119-18.18 1.498-12.825 9.782-23.624 22.606-21.59 9.85 1.561 15.922 8.105 19.756 16.901 1.23 2.819 2.007 5.834 2.99 8.76l1.963-.345c0-5.59 0-11.181-.03-17.736m-86.632 9.677 10.8 5.426c-.26-5.71-.14-9.99-.824-14.135-.23-1.396-2.455-3.429-3.856-3.503-6.906-.362-13.842-.164-20.707-.164-2.13 7.647-2.03 7.401 5.179 8.22 3.023.344 5.844 2.461 9.408 4.156M176.04 42.162h-12.344v18.396c4.338-1.845 7.904-2.985 11.074-4.81 3.58-2.063 6.804-4.743 10.162-7.14-2.155-1.512-2.813-6.656-8.892-6.446M120.618 87.38c4.623-.333 9.262-.53 13.856-1.097 1.155-.142 2.163-1.475 3.24-2.26l-.895-1.92c-12.904 0-25.81-.137-38.706.168-1.678.04-3.3 2.365-4.95 3.63l.896 1.488c8.582 0 17.165 0 26.559-.009M56.165 35.592c-4.134-2.436-2.768-6.797-3.276-10.432H39.023l-1.365 12.58c4.066.429 7.228 1.187 10.319.962 2.749-.2 5.418-1.49 8.188-3.11M181.79 57.991c-3.437 1.385-6.888 2.736-10.305 4.17-1.95.818-3.921 1.638-5.744 2.697-2.938 1.707-3.586 4.685-1.98 7.21 1.655 2.604 4.257 1.933 6.823.277 4.258-2.75 8.966-4.826 13.105-7.727 2.122-1.487 3.423-4.145 5.096-6.274l-1.196-1.45c-1.67.337-3.34.675-5.8 1.097M171.69 38.93l9.093.001-.85-12.044c-5.467.186-11.424-2.433-13.951 5.079-.189.56-1.932.485-2.344 1.107-.592.897-.996 3.075-.843 3.137 2.602 1.058 5.303 1.873 8.895 2.721m4.268 36.267c-3.29 2.43-1.732 6.229.132 6.967 3.193 1.265 7.145.642 10.778.646.121 0 .418-1.813.338-2.756-.446-5.285-4.62-7.315-11.248-4.857m-45.02 2.82c-.67-.736-1.318-2.085-2.016-2.112-7.912-.305-15.83-.5-23.748-.512-2.649-.004-5.298.597-7.947.921l.189 1.732c10.87 0 21.74 0 33.522-.03M51.93 69.6c1.114 5.837 5.979 3.932 9.525 5.558.542-9.406.498-9.186-6.423-10.562-4.603-.915-4.425 1.083-3.102 5.004m-4.568 8.135c-1.234-1.464-2.207-3.56-3.778-4.209-1.514-.625-3.908-.226-5.418.615-1.113.62-2.352 3.222-1.905 3.982.967 1.646 2.798 3.258 4.608 3.826 2.97.93 5.468-.386 6.493-4.214M45.909 61.8c-3.75-3.933-14.178-3.144-16.241 2.62 5.806-.63 11.01-1.196 16.241-2.62"/><path fill="#e9eae9" d="M66.097 101.015c-1.45-3.975-2.45-7.727-4.097-11.17-.32-.67-3.206-.416-4.814-.103-3.216.626-6.348 1.674-9.557 2.344-.737.153-1.645-.517-2.474-.809.488-.843.827-1.834 1.493-2.5 1.635-1.633 3.555-2.992 5.12-4.684 3.93-4.25 6.625-4.223 10.867-.52 4.673 4.08 9.724 7.726 14.904 11.79-1.387 2.016-3.33 4.84-5.564 7.777a29.6 29.6 0 0 1-5.878-2.125"/><path fill="#060706" d="M94.37 106.024c-.044-.935.281-1.778.607-2.621.649.624 1.298 1.248 1.985 2.208-.716.391-1.47.448-2.593.413"/><path fill="#f8f8f8" d="M94 25.962c-9.318.01-18.164-.403-26.945.17-5.652.368-7.68-2.153-8.404-6.979-.17-1.136-.332-2.272-.67-4.59 9.533 0 18.75-.057 27.962.083.952.015 1.81 1.491 2.848 1.756 1.242.317 3.002.593 3.896-.031 7.308-5.106 15.06-.918 22.557-1.063 1.23-.024 2.518 3.014 4.122 5.077 1.878-5.363 5.695-6.126 10.116-6.102 8.813.048 17.627-.095 26.44-.157 6.022-.043 6.678.628 6.125 6.451-.155 1.637-.458 3.26-.764 5.38-22.33 0-44.556 0-67.283.005"/><path fill="#f5f5f5" d="M137.825 48.148c.015 6.073.015 11.663.015 17.254l-1.962.345c-.984-2.926-1.762-5.941-2.99-8.76-3.835-8.796-9.906-15.34-19.757-16.902-12.824-2.033-21.108 8.766-22.606 21.592-.7 5.983-.12 12.115-.12 18.18l-1.53.08-3.042-46.554h52.487l-.474 6.634-6.296 2.031.117.822 6.143.287c0 1.397 0 2.953.015 4.991"/><path fill="#f8f8f8" d="M68.231 80.993c.238-3.999.723-8.003.649-11.997-.087-4.701-.648-9.394-1.02-14.09-.3-3.791-.888-7.707 5.111-7.045.504.055 1.183-1.464 1.78-2.251-.93-.394-2.095-1.358-2.751-1.088-3.873 1.596-4.528-.614-5.118-3.656-.49-2.524-1.55-4.937-2.436-7.637h15.186c.153 2.145.459 4.376.445 6.606-.048 7.96-.137 15.92-.403 23.874-.035 1.04-1.19 2.041-2.517 3.226-1.12.728-1.548 1.29-1.977 1.854l3.061.114c.49 1.946 1.149 3.868 1.421 5.843.289 2.093.21 4.237.048 6.908-.458.716-.611.928-.704 1.183-2.72-.074-5.439-.147-8.65-.639a16 16 0 0 0-2.125-1.205m4.892-12.207c.11.113.207.285.339.319.087.022.32-.149.325-.24.029-.64.015-1.281.015-1.922l-.517-.008c-.084.441-.168.883-.162 1.851m-1.364-.964-.515.17c.173.056.345.11.515-.17"/><path fill="#f6f6f6" d="M104.023 94.015c12.556-.239 25.125-.843 37.66-.43 2.743.09 5.367 3.804 8.046 5.849l-.693 1.427c-2.39 0-4.779 0-8.025.012-2.574.086-4.292.16-6.01.235L90.28 101c-1.785-.004-3.57 0-5.449 0 2.105-7.89 7.221-9.185 14.426-6.2 1.508 1.793 2.549 3.115 3.59 4.436l1.557-.562z"/><path fill="#fafafa" d="m148.25 63.956-4.052-.836V33.37c3.617 0 7.328 0 11.043.005 1.36 6.323 2.058 10.462-4.556 13.716h5.462c0 4.987.145 9.76-.126 14.51-.053.917-1.737 1.74-3.171 2.993-1.869.045-3.235-.297-4.6-.638"/><path fill="#f5f5f5" d="M50.852 57.151c-3.238-1.503-6.06-3.62-9.082-3.963-7.208-.82-7.309-.574-5.179-8.221 6.865 0 13.8-.198 20.707.164 1.4.074 3.626 2.107 3.856 3.503.684 4.146.563 8.425.824 14.135a1888 1888 0 0 1-11.126-5.618"/><path fill="#f3f3f3" d="M176.484 42.183c5.635-.23 6.293 4.913 8.448 6.426-3.358 2.396-6.582 5.076-10.162 7.138-3.17 1.826-6.736 2.966-11.074 4.811V42.162c3.879 0 8.111 0 12.788.021"/><path fill="#f5f5f5" d="M148.214 64.361c1.401-.064 2.767.278 4.497.616 2.228.158 4.322-.135 2.737 3.052-.52 1.046.66 2.828.697 4.283.109 4.441.04 8.886.04 13.732-4.606-.607-9.799 1.82-11.85-3.463-1.183-3.048-.016-6.931-.423-10.378-.442-3.743.732-6.167 4.302-7.842"/><path fill="#f0f1f0" d="M120.212 87.385c-8.988.004-17.57.004-26.153.004l-.895-1.487c1.648-1.266 3.271-3.59 4.949-3.63 12.896-.306 25.802-.169 38.706-.169l.894 1.92c-1.076.785-2.084 2.118-3.239 2.26-4.594.568-9.233.764-14.262 1.102"/><path fill="#f8f9f8" d="M56.133 35.998c-2.738 1.214-5.407 2.504-8.156 2.704-3.091.225-6.253-.533-10.319-.963l1.365-12.579H52.89c.508 3.635-.858 7.996 3.244 10.838"/><path fill="#f3f3f3" d="M182.186 57.949c2.065-.38 3.735-.718 5.404-1.056l1.196 1.451c-1.673 2.129-2.974 4.787-5.096 6.274-4.14 2.9-8.847 4.978-13.105 7.727-2.566 1.656-5.168 2.327-6.823-.276-1.606-2.526-.958-5.504 1.98-7.21 1.823-1.06 3.794-1.88 5.744-2.698a278 278 0 0 1 10.7-4.212"/><path fill="#f7f7f7" d="M171.232 38.942c-3.135-.858-5.836-1.673-8.438-2.731-.153-.062.25-2.24.843-3.137.412-.622 2.155-.548 2.344-1.107 2.527-7.512 8.484-4.893 13.95-5.08.282 3.993.543 7.68.85 12.045-3.273 0-6.183 0-9.55.01"/><path fill="#f4f4f3" d="M176.318 75.037c6.267-2.296 10.44-.266 10.887 5.019.08.943-.217 2.756-.338 2.756-3.633-.004-7.585.619-10.778-.646-1.864-.738-3.423-4.537.23-7.13"/><path fill="#f0f1f1" d="M130.481 78.033c-11.326.015-22.196.015-33.066.015l-.189-1.732c2.65-.324 5.298-.925 7.947-.92 7.917.011 15.836.206 23.748.51.698.028 1.345 1.377 1.56 2.127"/><path fill="#ebebeb" d="M51.84 69.21c-1.233-3.531-1.411-5.53 3.192-4.614 6.921 1.376 6.965 1.156 6.423 10.562-3.546-1.626-8.41.28-9.615-5.948"/><path fill="#f8f8f8" d="M47.502 78.13c-1.165 3.433-3.664 4.75-6.633 3.819-1.81-.568-3.64-2.18-4.608-3.826-.447-.76.792-3.361 1.905-3.982 1.51-.841 3.904-1.24 5.418-.615 1.57.649 2.544 2.745 3.918 4.604"/><path fill="#e3e3e3" d="M45.896 62.229c-5.217.995-10.422 1.56-16.228 2.191 2.063-5.764 12.49-6.553 16.228-2.191"/><path fill="#595a5a" d="M103.559 93.987c.591 1.581.718 3.134.846 4.687l-1.558.562c-1.04-1.321-2.081-2.643-3.242-4.276 1.083-.54 2.287-.77 3.954-.973"/><path fill="#060706" d="M135.073 101.454c1.646-.42 3.364-.495 5.505-.485-.905 5.229-3.343 1.662-5.505.485"/><path fill="#f3f3f3" d="M78.124 68.639c-.903.226-1.924.188-2.944.15.429-.563.858-1.126 1.618-1.715.624.417.916.858 1.326 1.565m-9.903 12.654c.554-.037 1.098.225 1.72.715-.526.013-1.128-.201-1.72-.715m11.049 1.584c-.171-.295-.018-.507.37-.769.08.207-.012.508-.37.769m-6.192-14.354c.039-.705.123-1.147.207-1.588l.517.008c0 .64.014 1.282-.015 1.921-.005.092-.238.263-.325.24-.132-.033-.228-.205-.384-.58m-1.318-.534c-.171.113-.343.058-.516.003.172-.057.343-.114.516-.003"/></svg>