<svg xmlns="http://www.w3.org/2000/svg" viewBox="0 0 282 140" xml:space="preserve"><path fill="#060606" d="M153.372 134.758c-13.082-.874-26.207-1.353-39.237-2.724-15.05-1.583-30.015-3.974-45.024-5.967-4.07-.54-8.164-.91-12.248-1.357l-.089-1.673c2.829-1.013 5.657-2.026 9.206-3.008 1.163.013 1.605-.004 2.215.383 6.666-.2 13.155-.977 19.668-1.334 2.969-.164 6.054.19 8.963.854 5.252 1.199 10.411 2.806 15.61 4.243l.441-1.51c-3.643-2.374-7.787-4.239-10.82-7.23-5.857-5.777-11.814-4.084-18.177-1.64-4.89 1.88-9.88 3.495-15.136 5.09a78 78 0 0 0-3.557-.902c-1.526-.67-3.047-1.906-4.579-1.92-13.156-.12-26.313-.008-39.47.001-1.696.001-3.39-.193-5.201-1.445 2.373-.69 4.709-1.564 7.124-2.036 10.558-2.065 17.913-8.47 24.248-16.79 8.048-10.568 16.531-20.808 24.955-31.085 3.689-4.5 9.274-4.531 13.76.237 3.83-5.284 8.137-10.143 11.184-15.694 4.193-7.637 9.292-5.766 14.614-.876 6.09-6.428 12.262-12.811 18.282-19.335 4.509-4.886 8.806-9.968 13.23-14.934 2.922-3.28 5.073-3.194 7.41.478 4.888 7.685 8.517 16.59 14.798 22.852 6.2 6.181 9.33 14.347 15.742 20.104 3.66 3.285 6.56.44 9.205-1.19 7.735-4.767 7.543-4.876 12.31 2.979 4.159 6.854 8.555 13.564 12.99 20.567 8.526-9.123 8.486-9.082 15.055.121 5.01 7.02 10.101 13.987 15.313 20.859 4.314 5.687 9.593 9.998 16.982 11.193 2.357.382 4.604 1.44 6.902 2.188q-.06.877-.117 1.753h-5.748c-15.827.01-31.654-.047-47.48.118-1.83.019-3.646 1.268-5.47 1.948 1.853.956 3.616 2.22 5.58 2.787 2.246.648 4.671.675 7.019.973l-.086 2.337h-43.463l-.257 2.294q5.216 1.389 10.427 2.785c-7.329 3.205-18.824 2.214-26.418-2.344-10.95-3.827-21.527-2.832-32.333-2.16.765 1.28 1.74 2.14 2.873 2.488 5.646 1.737 11.357 3.269 16.981 5.072.789.253 1.224 1.606 1.823 2.45m77.601-37.55-1.67-.024c.285.446.57.893 1.236 1.995.97 2.374 1.88 4.776 2.928 7.116 1.505 3.358 3.772 3.56 7.66.79-3.497-3.306-6.69-6.324-10.154-9.877M121.525 82.947l3.067-4.99c6.641 4.502 7.697 4.515 13.125-1.3 4.183-4.481 8.121-9.21 11.883-14.05.96-1.238 1.418-3.432 1.105-4.985-.875-4.346-2.329-8.573-3.449-12.875-1.105-4.245-2.08-8.524-3.113-12.788l1.172-.372 14.438 25.735 2.445-1.279-17.309-36.981-40.559 50.534c2.18-6.142 4.516-12.225.514-19.074-13.59 12.871-19.99 31.26-35.5 44.048 2.25-9.418 10.994-15.71 6.827-25.638-9.616 13.135-21.975 23.92-28.989 38.694l1.124 1.356L61.743 98.91l2.572 10.171L81.78 92.196l-4.926 14.487 1.097.556c1.073-1.355 2.339-2.6 3.184-4.084 3.326-5.84 6.474-11.781 9.806-17.617.568-.994 1.717-1.655 2.597-2.47.488.958 1.217 1.867 1.419 2.88.573 2.878.93 5.799 1.536 9.773l9.643-6.098-.92 5.012.974 1.356c2.746-1.267 5.94-2.023 8.123-3.933 2.687-2.353 4.532-5.668 7.213-9.111m45.435 20.654 11.613 4.997c-4.676-10.559-4.676-10.559-1.247-14.05 5.61 5.538 9.575 12.989 17.933 15.244l1.262-1.029-22.935-30.88-1.781.32-8.716 21.37c-3.162-1.536-3.44-4.323-1.92-7.342 1.556-3.091 3.503-5.986 5.284-8.964 2.104-3.52 1.332-6.61-1.603-9.173-1.725-1.506-3.707-2.717-5.672-4.132-10.978 5.705-19.856 13.883-27.058 23.785-3.48 4.784-6.273 10.122-8.877 15.452-.72 1.475-.244 5.017.732 5.502 1.607.799 4.186.222 6.125-.445 1.197-.412 1.978-2.057 2.928-3.164 4.429-5.164 8.851-10.333 14.305-16.7.978 10.303 5.178 16.58 12.869 20.92 1.165-1.774 2.321-3.191 3.096-4.794 1.12-2.32 1.966-4.774 3.662-6.917m45.692-15.533c-5.362-7.32-10.498-14.827-16.282-21.797-1.108-1.335-5.107-1.397-7.18-.567-4.002 1.602-7.582 4.26-11.786 6.744 10.72 12.514 18.291 27.135 34.067 33.383-4.941-8.22-10.983-15.737-10.744-26.449l12.453 13.446c-.105-2.123-.154-3.095-.528-4.76M116.4 99.016c-5.538 1.806-9.243 5.629-12.744 10.765 10.446 1.15 12.516-7.136 16.688-12.854-1.096.59-2.192 1.182-3.944 2.089"/><path fill="#f2f2f2" d="M153.806 134.83c-1.033-.916-1.468-2.27-2.257-2.522-5.624-1.803-11.335-3.335-16.981-5.072-1.133-.348-2.108-1.208-2.873-2.489 10.806-.67 21.383-1.666 31.962 2.193.6 6.128-4.82 2.91-7.907 5.226l3.63 1.714.099 1.023c-1.747 0-3.493 0-5.673-.073"/><path fill="#151515" d="M68.027 120.007c-.442.018-.884.035-1.657.03-.541-.504-.752-.985-1.073-1.76.972-.04 2.054.215 3.34.833.014.666-.258.843-.61.897"/><path fill="#fafafa" d="M121.289 83.22c-2.445 3.17-4.29 6.485-6.977 8.838-2.183 1.91-5.377 2.666-8.123 3.933l-.975-1.356.921-5.012-9.643 6.098c-.606-3.974-.963-6.895-1.536-9.772-.202-1.014-.931-1.923-1.42-2.88-.88.814-2.028 1.475-2.596 2.469-3.332 5.836-6.48 11.777-9.806 17.617-.845 1.484-2.111 2.729-3.184 4.084l-1.097-.556 4.926-14.487-17.464 16.884-2.572-10.171-13.437 10.073-1.124-1.356c7.014-14.775 19.373-25.559 28.989-38.694 4.167 9.928-4.578 16.22-6.827 25.638 15.51-12.788 21.91-31.177 35.5-44.048 4.002 6.849 1.665 12.932-.514 19.074l40.559-50.534 17.309 36.981-2.445 1.279-14.438-25.735-1.172.372c1.032 4.264 2.008 8.543 3.113 12.788 1.12 4.302 2.574 8.529 3.45 12.875.312 1.553-.145 3.747-1.106 4.984-3.762 4.84-7.7 9.57-11.883 14.05-5.428 5.816-6.484 5.803-13.125 1.3-1.027 1.67-2.047 3.33-3.303 5.263m15.752-31.975-.867-4.963-1.263-.076-3.754 12.208 1.133.448 2.172-3.867 4.544 3.412.876-.905c-.933-1.825-1.866-3.65-2.84-6.257M68.213 94.327c.502.168 1 .353 1.515.47.04.009.189-.458.287-.704-.38-.105-.762-.21-1.802.234"/><path fill="#f9f9f9" d="M166.593 103.474c-1.33 2.27-2.174 4.724-3.295 7.044-.775 1.603-1.931 3.02-3.096 4.794-7.69-4.34-11.89-10.617-12.87-20.92-5.453 6.367-9.875 11.536-14.304 16.7-.95 1.107-1.73 2.752-2.928 3.164-1.939.667-4.518 1.244-6.125.445-.976-.485-1.453-4.027-.732-5.502 2.604-5.33 5.398-10.668 8.877-15.452 7.202-9.902 16.08-18.08 27.058-23.785 1.965 1.415 3.947 2.626 5.672 4.132 2.935 2.563 3.707 5.653 1.603 9.173-1.78 2.978-3.728 5.873-5.284 8.964-1.52 3.019-1.242 5.806 1.92 7.342l8.716-21.37 1.78-.32 22.936 30.88-1.262 1.03c-8.358-2.256-12.324-9.707-17.933-15.244-3.43 3.49-3.43 3.49 1.247 14.049-4.522-1.946-8.068-3.472-11.98-5.124"/><path fill="#f6f7f7" d="M212.815 88.414c.211 1.319.26 2.291.365 4.414l-12.453-13.446c-.24 10.712 5.803 18.23 10.744 26.449-15.776-6.248-23.347-20.87-34.067-33.383 4.204-2.485 7.784-5.142 11.786-6.744 2.073-.83 6.072-.768 7.18.567 5.784 6.97 10.92 14.477 16.445 22.143"/><path fill="#f2f2f2" d="M68.195 120.412c.184-.459.456-.636.753-1.164 5.052-1.958 10.042-3.574 14.932-5.452 6.363-2.445 12.32-4.138 18.176 1.638 3.034 2.992 7.178 4.857 10.821 7.232l-.441 1.509c-5.199-1.437-10.358-3.044-15.61-4.243-2.909-.664-5.994-1.018-8.963-.854-6.513.357-13.002 1.134-19.668 1.334"/><path fill="#f1f2f1" d="M116.727 98.858c1.424-.75 2.52-1.34 3.616-1.931-4.172 5.718-6.242 14.004-16.688 12.854 3.5-5.136 7.206-8.959 13.072-10.923"/><path fill="#f2f2f2" d="m231.246 97.742 9.88 9.343c-3.887 2.77-6.154 2.568-7.659-.79-1.048-2.34-1.957-4.742-2.839-7.628.266-.649.442-.787.618-.925m-.808.598c-.566-.263-.85-.71-1.135-1.156.557.008 1.113.016 1.806.291-.04.405-.215.543-.671.864"/><path fill="#1a191a" d="M137.062 51.634c.954 2.216 1.887 4.042 2.82 5.867l-.876.905-4.544-3.412-2.172 3.867-1.133-.448 3.754-12.208 1.263.076c.289 1.654.578 3.309.888 5.353"/><path fill="#060606" d="M68.544 94.053c.71-.17 1.091-.065 1.472.04-.098.246-.247.713-.287.704-.514-.117-1.013-.302-1.185-.744"/></svg>