<svg xmlns="http://www.w3.org/2000/svg" viewBox="0 0 138 157" xml:space="preserve"><path fill="#070707" d="M35.65 149.162c-9.819-.816-19.179-1.574-28.539-2.332l-.104-1.615c5.576-.44 11.16-1.302 16.726-1.19 4.898.097 6.756-1.706 6.315-6.403-.155-1.655-.606-3.558.003-4.94.803-1.825 2.283-3.576 3.914-4.738 1.23-.877 3.482-.333 4.695-1.22 2.026-1.482 4.922-3.46 5.137-5.476 2.657-24.9 4.9-49.843 7.237-74.777.386-4.13 1.11-8.28.963-12.396-.226-6.291 3.64-10.313 7.087-14.67 1.538-1.943 3.146-3.836 4.595-5.843 2.353-3.26 5.253-3.5 7.762-.366 2.794 3.493 6.47 6.75 7.88 10.77 2.092 5.962 2.89 12.464 3.6 18.808 2.07 18.462 3.78 36.965 5.726 55.441.66 6.27 1.485 12.527 2.442 18.758 1.148 7.466 4.3 10.436 11.604 11.368.705 2.26 1.289 4.568 2.142 6.771 1.658 4.285 3.873 7.16 9.455 7.258 4.391.077 8.74 2.501 13.093 4.916-.939.236-1.868.623-2.818.685-17.73 1.161-35.451 2.816-53.2 3.226-11.731.272-23.504-1.254-35.716-2.035m31.38-56.741c.024-2.496.072-4.992.066-7.487-.013-5.231-.915-10.704 4.873-14.014.784-.448.858-2.139 1.495-3.904l-5.554.777c0-2.097.106-3.765-.02-5.415-.353-4.596-1.377-9.376 4.548-11.561.416-.153.343-1.632.583-2.977l-5.053 1.115V30.476l-10.17-.584-4.227 57.74 3.85 1.395c-1.206 1.106-3.522 2.198-3.716 3.587-.745 5.33-.81 10.754-1.123 16.06 2.314.31 3.766.506 6.423.864-7.223 1.815-9.231 6.143-6.2 9.626l-3.15 4.139c5.905 3.991 11.43 3.855 16.63 2.21.534-2.495 1.023-4.45 1.353-6.43.241-1.447.872-3.25.29-4.337-2.008-3.745-1.37-6.247 2.164-8.708 3.708-2.583 6.984-5.788 10.45-8.72l-1.062-1.394-12.471 5.439c0-3.086 0-5.533.021-8.942m5.467 38.342-37.288.764-.296 1.698c4.06 1.995 1.17 10.007 8.215 9.165 4.498-.538 9.536-.569 12.328-6.379l1.893 8.868c2.833-1.113 6.472-1.448 7.747-3.36 1.214-1.82-.039-5.286-.274-9.124h28.071l-.08-1.72c-6.44 0-12.88 0-20.316.088M59.65 24.093l-.336 1.86h10.025c-1.9-2.402-2.92-4.881-4.268-5.075-1.507-.216-3.312 1.64-5.421 3.216"/><path fill="#0c0c0b" d="M128.238 147.284c.296.003.367.21.44.418-.222-.07-.443-.142-.44-.418"/><path fill="#f7f8f7" d="M67.019 92.902c-.011 2.928-.011 5.375-.011 8.46l12.47-5.438 1.063 1.393c-3.466 2.933-6.742 6.138-10.45 8.721-3.533 2.461-4.172 4.963-2.164 8.708.582 1.087-.049 2.89-.29 4.337-.33 1.98-.82 3.935-1.354 6.43-5.199 1.645-10.724 1.781-16.63-2.21l3.152-4.14c-3.032-3.482-1.024-7.81 6.199-9.625l-6.423-.864c.314-5.306.378-10.73 1.123-16.06.194-1.39 2.51-2.481 3.717-3.587l-3.85-1.396 4.227-57.74 10.17.585v18.479l5.052-1.115c-.24 1.345-.167 2.824-.583 2.977-5.925 2.185-4.901 6.965-4.548 11.56.126 1.65.02 3.319.02 5.416l5.554-.777c-.637 1.765-.71 3.456-1.495 3.904-5.788 3.31-4.886 8.783-4.873 14.014.006 2.495-.042 4.99-.076 7.968"/><path fill="#f4f4f4" d="M72.995 130.72c6.938-.045 13.378-.045 19.817-.045l.08 1.72H64.821c.235 3.838 1.488 7.304.274 9.124-1.275 1.912-4.914 2.247-7.747 3.36l-1.893-8.868c-2.792 5.81-7.83 5.84-12.328 6.379-7.045.842-4.156-7.17-8.215-9.165l.296-1.698c12.43-.254 24.859-.509 37.787-.808"/><path fill="#e9eaea" d="M59.866 23.783c1.892-1.264 3.697-3.121 5.204-2.905 1.348.194 2.367 2.673 4.268 5.075H59.313c.112-.62.224-1.24.553-2.17"/></svg>