<svg xmlns="http://www.w3.org/2000/svg" viewBox="0 0 216 143" xml:space="preserve"><path fill="#070707" d="M205.968,119.94C199.651,120.191 193.334,120.443 186.297,120.477C184.658,119.675 183.734,119.1 182.822,118.506C174.461,113.064 166.55,106.243 153.986,109.597C158.041,112.112 161.251,113.919 164.255,116.021C167.123,118.028 169.733,120.4 172.546,122.491C173.538,123.228 174.795,123.608 175.931,124.151C176.464,124.938 176.997,125.725 178.131,127.402C174.3,126.75 171.179,126.219 168.057,125.688C165.781,125.302 163.411,124.338 161.255,124.689C159.007,125.055 156.965,126.689 154.141,128.119C151.749,127.817 147.938,127.564 144.261,126.725C143.226,126.489 142.845,124.032 141.72,123.445C134.645,119.75 127.469,116.242 120.214,112.916C119.841,112.745 118.185,114.691 117.602,115.884C117.189,116.729 117.578,117.967 117.243,119.111C116.877,119.191 116.804,119.209 116.756,119.146C111.606,116.546 106.448,114.117 101.416,111.448C93.469,107.235 85.425,108.122 77.432,110.249C78.378,115.555 80.452,117.729 86.267,116.289C89.953,115.377 94.318,117.204 98.378,117.803C98.317,118.224 98.256,118.646 98.195,119.067C94.102,121.31 90.009,123.553 85.578,125.839C84.145,126.546 83.049,127.211 81.646,127.932C80.884,128.302 80.428,128.616 79.54,128.904C77.072,129.249 75.035,129.62 72.998,129.992C65.452,131.6 48.726,130.131 46.841,127.44C49.813,126.552 52.7,125.69 55.586,124.828C55.596,124.473 55.606,124.118 55.616,123.763C49.257,122.905 42.922,121.703 36.534,121.283C29.985,120.853 23.386,121.188 15.696,121.188C25.85,113.265 41.107,112.691 42.945,96.555C51.133,102.08 55.947,93.873 62.461,92.231C62.58,93.704 62.7,95.192 62.828,96.781C69.976,94.575 69.862,94.075 66.096,88.332C62.213,82.411 59.044,76.012 55.731,69.733C54.097,66.638 52.815,64.076 48.834,67.313C46.297,69.376 43.197,70.747 39.999,72.635C38.905,71.101 37.88,69.232 36.447,67.758C34.292,65.542 35.002,63.748 37.116,62.44C40.315,60.459 43.867,59.028 46.972,56.923C48.024,56.21 49.078,53.637 48.595,52.811C43.704,44.431 38.467,36.253 33.383,27.985C29.112,21.039 27.321,19.321 32.301,14.144C36.754,9.515 42.01,10.34 45.187,16.024C45.749,17.03 46.452,17.956 47.078,19.637C47.684,21.238 48.302,22.121 48.919,23.004C51.245,27.106 53.572,31.208 55.687,35.863C56.233,37.282 56.99,38.147 57.747,39.013C59.278,41.348 60.809,43.683 62.728,46.489C64.069,46.619 65.023,46.279 65.977,45.94C67.94,44.85 69.799,43.471 71.885,42.726C77.43,40.745 80.406,42.001 83.135,47.068C84.518,49.636 82.963,51.471 79.632,52.144C77.281,52.62 75.11,53.991 72.484,55.611C72.015,57.289 71.921,58.319 71.4,59.32C69.009,59.291 67.044,59.291 64.356,59.291C70.59,70.691 76.089,81.484 82.369,91.801C84.339,95.036 88.41,96.993 91.722,99.649C92.197,99.663 92.468,99.564 92.739,99.464C92.551,99.252 92.363,99.041 92.164,98.457C90.438,94.407 88.863,90.655 86.975,87.067C84.124,81.652 81.055,76.352 78.505,71C80.349,70.973 81.768,70.949 83.188,70.925C86.525,74.922 89.735,79.037 93.269,82.852C94.525,84.208 96.569,84.834 98.786,86.104C103.097,86.411 103.037,83.733 103.032,81.092C106.434,74.358 109.563,67.465 113.345,60.951C115.499,57.241 118.719,54.149 121.83,50.322C120.438,46.421 115.672,48.104 112.254,45.92C111.379,44.904 110.807,44.447 110.235,43.991C110.625,42.461 111.015,40.932 112.04,39.198C115.134,39.324 117.593,39.655 120.052,39.986C129.577,43.756 132.053,42.669 135.919,33.08C138.538,26.582 141.147,20.08 143.846,13.615C146.384,7.535 156.044,5.906 159.936,11.016C162.477,14.353 159.969,17.285 158.382,20.124C155.406,25.45 152.182,30.644 149.39,36.062C147.294,40.131 145.714,44.466 143.649,49.277C147.552,51.584 151.583,53.967 155.806,57.048C155.993,59.37 155.988,60.994 155.982,62.618C154.874,62.608 153.759,62.671 152.657,62.576C147.892,62.166 143.735,62.699 140.793,67.35C137.257,72.941 133.005,78.078 129.427,83.645C126.495,88.206 127.563,89.594 132.872,90.13C135.637,90.409 138.299,91.71 142.296,92.948C150.367,81.165 159.401,67.977 168.498,54.696C172.247,59.884 177.638,61.72 183.501,62.093C188.91,62.438 194.359,62.167 200.883,62.167C198.322,64.864 196.286,67.01 194.078,69.336C196.44,70.555 198.794,71.771 201.149,72.987C201.176,73.6 201.204,74.214 201.231,74.827C196.416,75.743 191.601,76.659 186.608,77.609C188.914,80.412 191.351,83.374 193.788,86.335C182.339,86.077 173.389,80.895 164.249,74.746C158.902,82.835 153.552,90.931 148.193,99.039C156.372,103.417 162.626,97.532 170.417,94.585C171.189,96.181 172.132,98.166 173.115,100.133C173.402,100.708 173.672,101.474 174.169,101.735C184.704,107.268 195.27,112.741 205.837,118.823C205.885,119.594 205.926,119.767 205.968,119.94M43.95,29.508C43.95,29.508 43.912,29.526 44.59,30.088C47.644,36.853 50.669,43.631 53.82,50.349C54.012,50.758 55.746,50.986 55.842,50.806C56.324,49.901 57.013,48.621 56.698,47.858C55.321,44.522 53.886,41.153 51.967,38.115C49.938,34.905 47.335,32.057 44.476,28.307C45.377,23.171 44.288,21.639 40.364,21.261C40.126,23.17 39.898,24.994 39.554,27.751C40.563,28.144 42.273,28.812 43.95,29.508M119.511,74.01C122.767,66.867 126.024,59.724 129.281,52.581C128.941,52.214 128.601,51.846 128.261,51.479C126.912,52.213 124.924,52.602 124.311,53.734C116.359,68.441 108.602,83.254 100.796,98.04C101.588,97.867 102.38,97.695 103.171,97.522C104.175,99.454 105.178,101.386 105.903,102.781C110.426,93.219 114.808,83.954 119.511,74.01M131.411,109.093C136.811,118.634 140.713,119.939 155.427,118.014C150.697,115.743 145.761,113.963 140.945,111.903C139.469,111.272 137.376,110.02 137.185,108.799C136.24,102.755 132.501,99.596 127.351,97.029C121.999,94.361 122.161,94.034 120.331,99.347C124.014,102.494 127.515,105.487 131.411,109.093M55.755,107.314C56.559,109.025 57.362,110.736 58.122,112.353C56.726,113.108 55.634,113.699 54.04,114.562C61.187,114.896 61.131,114.967 67.415,119.952C68.665,120.943 70.525,121.163 72.05,121.719C73.764,117.523 72.701,111.161 70.094,110.386C65.614,109.054 60.997,108.179 55.755,107.314M151.072,16.471C151.006,16.156 150.94,15.84 150.874,15.524C149.467,17.27 147.758,18.861 146.753,20.814C146.018,22.243 146.208,24.148 145.987,25.841C148.273,24.164 149.69,22.686 150.66,20.957C151.27,19.871 151.212,18.409 151.072,16.471M142.36,30.749C141.076,34.035 139.793,37.321 138.509,40.607C138.925,40.792 139.34,40.976 139.756,41.16C141.982,37.032 144.209,32.903 146.435,28.775C145.922,28.407 145.41,28.039 144.897,27.671C144.183,28.468 143.47,29.266 142.36,30.749M134.581,50.42C135.316,49.976 136.051,49.532 136.948,48.99C130.906,44.703 130.906,44.703 129.393,48.067C130.953,48.739 132.51,49.409 134.581,50.42M139.028,44.79C138.428,43.867 137.829,42.944 137.23,42.021C136.852,42.398 136.475,42.775 136.097,43.151C136.86,43.734 137.622,44.317 139.028,44.79M37.353,18.22C37.717,18.269 38.082,18.318 38.447,18.367C38.449,18.105 38.451,17.843 38.453,17.581C38.087,17.621 37.721,17.662 37.353,18.22M37.529,20.387C37.529,20.387 37.623,20.525 37.529,20.387M38.483,30.593C38.483,30.593 38.415,30.48 38.483,30.593z"/><path fill="#f0f0f0" d="M176.163,123.856C174.795,123.608 173.538,123.228 172.546,122.491C169.733,120.4 167.123,118.028 164.255,116.021C161.251,113.919 158.041,112.112 153.986,109.597C166.55,106.243 174.461,113.064 182.822,118.506C183.734,119.1 184.658,119.675 185.833,120.478C184.111,121.529 182.172,122.482 180.138,123.145C178.969,123.526 177.648,123.438 176.163,123.856z"/><path fill="#0c0c0d" d="M106.921,128.02C106.921,128.02 106.726,128.393 106.528,128.651C106.557,129.204 106.784,129.5 107.011,129.795C109.121,131.084 111.23,132.373 113.339,133.663C113.173,134.261 113.007,134.859 112.841,135.457C104.969,134.873 97.098,134.289 89.099,133.068C89.338,131.964 89.704,131.495 90.436,130.996C93.65,129.594 96.497,128.222 99.744,126.874C102.403,127.272 104.662,127.646 106.921,128.02z"/><path fill="#0f0f0f" d="M71.827,59.349C71.921,58.319 72.015,57.289 72.211,55.743C75.876,60.231 79.439,65.236 83.094,70.583C81.768,70.949 80.349,70.973 78.401,70.671C75.857,66.679 73.842,63.014 71.827,59.349z"/><path fill="#f2f2f2" d="M107.316,127.993C104.662,127.646 102.403,127.272 100.08,126.411C102.023,125.346 103.997,124.518 106.045,124.24C110.066,123.694 114.129,123.454 118.542,123.054C117.616,121.005 117.21,120.107 116.804,119.209C116.804,119.209 116.877,119.191 116.895,119.194C119.51,120.969 122.106,122.743 125.336,124.949C118.678,126.089 113.195,127.028 107.316,127.993z"/><path fill="#e4e4e4" d="M85.957,131.939C83.442,132.851 80.927,133.763 78.413,134.675C78.301,134.337 78.189,134 78.076,133.662C78.682,132.998 79.288,132.333 79.947,131.335C80,131.001 80.024,130.978 80.356,131.015C81.806,130.71 82.923,130.369 84.36,130.024C85.107,130.026 85.533,130.031 85.958,130.286C85.962,130.703 85.967,130.869 85.969,131.262C85.966,131.487 85.957,131.939 85.957,131.939z"/><path fill="#0f0f0f" d="M156.296,62.557C155.988,60.994 155.993,59.37 156.001,57.339C157.306,57.405 158.608,57.879 161.692,58.999C159.288,60.654 157.949,61.575 156.296,62.557z"/><path fill="#0f0f0f" d="M119.949,39.705C117.593,39.655 115.134,39.324 112.319,38.99C114.809,35.199 117.354,36.845 119.949,39.705z"/><path fill="#e4e4e4" d="M73.255,130.291C75.035,129.62 77.072,129.249 79.567,129.245C80.024,130.067 80.024,130.522 80.024,130.978C80.024,130.978 80,131.001 79.988,131.013C77.821,130.88 75.667,130.735 73.255,130.291z"/><path fill="#f2f2f2" d="M137.568,126.004C135.374,126.322 133.541,126.626 131.709,126.931C131.641,126.436 131.573,125.94 131.504,125.445C134.133,125.199 136.762,124.952 139.814,124.665C139.275,125.333 139.127,125.647 138.88,125.786C138.611,125.939 138.25,125.93 137.568,126.004z"/><path fill="#0f0f0f" d="M102.747,81.234C103.037,83.733 103.097,86.411 99.134,86.142C100.12,84.372 101.291,82.874 102.747,81.234z"/><path fill="#101010" d="M57.761,38.705C56.99,38.147 56.233,37.282 55.728,36.212C56.578,36.804 57.176,37.601 57.761,38.705z"/><path fill="#101010" d="M65.601,45.97C65.023,46.279 64.069,46.619 63.05,46.637C63.731,46.21 64.478,46.104 65.601,45.97z"/><path fill="#f2f2f2" d="M86.236,132.071C85.957,131.939 85.966,131.487 86.38,131.246C87.885,131.012 88.978,131.02 90.07,131.027C89.704,131.495 89.338,131.964 88.885,132.721C88.037,132.741 87.276,132.472 86.236,132.071z"/><path fill="#101010" d="M48.935,22.67C48.302,22.121 47.684,21.238 47.109,19.978C47.751,20.513 48.351,21.425 48.935,22.67z"/><path fill="#0f0f0f" d="M110.187,44.308C110.807,44.447 111.379,44.904 111.982,45.663C111.388,45.518 110.764,45.071 110.187,44.308z"/><path fill="#f2f2f2" d="M107.003,129.538C106.784,129.5 106.557,129.204 106.617,128.842C106.933,128.943 106.964,129.112 107.003,129.538z"/><path fill="#3b3b3b" d="M206.244,119.934C205.926,119.767 205.885,119.594 205.945,119.174C206.204,119.261 206.362,119.595 206.244,119.934z"/><path fill="#fdfdfd" d="M90.436,130.996C88.978,131.02 87.885,131.012 86.382,131.02C85.967,130.869 85.962,130.703 85.977,130.031C86.001,129.357 86.006,129.187 86.194,128.88C86.246,128.17 86.115,127.597 85.976,126.717C85.951,126.205 85.933,126.001 85.916,125.797C90.009,123.553 94.102,121.31 98.195,119.067C98.256,118.646 98.317,118.224 98.378,117.803C94.318,117.204 89.953,115.377 86.267,116.289C80.452,117.729 78.378,115.555 77.432,110.249C85.425,108.122 93.469,107.235 101.416,111.448C106.448,114.117 111.606,116.546 116.756,119.146C117.21,120.107 117.616,121.005 118.542,123.054C114.129,123.454 110.066,123.694 106.045,124.24C103.997,124.518 102.023,125.346 99.68,126.388C96.497,128.222 93.65,129.594 90.436,130.996z"/><path fill="#f2f3f3" d="M119.35,74.349C114.808,83.954 110.426,93.219 105.903,102.781C105.178,101.386 104.175,99.454 103.171,97.522C102.38,97.695 101.588,97.867 100.796,98.04C108.602,83.254 116.359,68.441 124.311,53.734C124.924,52.602 126.912,52.213 128.261,51.479C128.601,51.846 128.941,52.214 129.281,52.581C126.024,59.724 122.767,66.867 119.35,74.349z"/><path fill="#f4f5f5" d="M71.4,59.32C73.842,63.014 75.857,66.679 77.975,70.674C81.055,76.352 84.124,81.652 86.975,87.067C88.863,90.655 90.438,94.407 91.995,98.629C91.837,99.173 91.519,99.535 91.519,99.535C88.41,96.993 84.339,95.036 82.369,91.801C76.089,81.484 70.59,70.691 64.356,59.291C67.044,59.291 69.009,59.291 71.4,59.32z"/><path fill="#f0f1f1" d="M131.214,108.786C127.515,105.487 124.014,102.494 120.331,99.347C122.161,94.034 121.999,94.361 127.351,97.029C132.501,99.596 136.24,102.755 137.185,108.799C137.376,110.02 139.469,111.272 140.945,111.903C145.761,113.963 150.697,115.743 155.427,118.014C140.713,119.939 136.811,118.634 131.214,108.786z"/><path fill="#eceded" d="M56.097,107.213C60.997,108.179 65.614,109.054 70.094,110.386C72.701,111.161 73.764,117.523 72.05,121.719C70.525,121.163 68.665,120.943 67.415,119.952C61.131,114.967 61.187,114.896 54.04,114.562C55.634,113.699 56.726,113.108 58.122,112.353C57.362,110.736 56.559,109.025 56.097,107.213z"/><path fill="#f0f1f1" d="M44.983,29.051C47.335,32.057 49.938,34.905 51.967,38.115C53.886,41.153 55.321,44.522 56.698,47.858C57.013,48.621 56.324,49.901 55.842,50.806C55.746,50.986 54.012,50.758 53.82,50.349C50.669,43.631 47.644,36.853 44.521,30.191C44.654,29.86 44.855,29.426 45.022,28.987C44.988,28.983 44.983,29.051 44.983,29.051z"/><path fill="#e7e9e9" d="M151.263,16.794C151.212,18.409 151.27,19.871 150.66,20.957C149.69,22.686 148.273,24.164 145.987,25.841C146.208,24.148 146.018,22.243 146.753,20.814C147.758,18.861 149.467,17.27 150.874,15.524C150.94,15.84 151.006,16.156 151.263,16.794z"/><path fill="#dededf" d="M142.558,30.406C143.47,29.266 144.183,28.468 144.897,27.671C145.41,28.039 145.922,28.407 146.435,28.775C144.209,32.903 141.982,37.032 139.756,41.16C139.34,40.976 138.925,40.792 138.509,40.607C139.793,37.321 141.076,34.035 142.558,30.406z"/><path fill="#e9eaea" d="M43.984,29.479C42.273,28.812 40.563,28.144 39.554,27.751C39.898,24.994 40.126,23.17 40.364,21.261C44.288,21.639 45.377,23.171 44.729,28.679C44.983,29.051 44.988,28.983 44.644,28.866C44.194,28.993 44.089,29.236 43.984,29.479z"/><path fill="#0f0f0f" d="M134.324,50.25C132.51,49.409 130.953,48.739 129.393,48.067C130.906,44.703 130.906,44.703 136.948,48.99C136.051,49.532 135.316,49.976 134.324,50.25z"/><path fill="#fdfdfd" d="M80.356,131.015C80.024,130.522 80.024,130.067 79.998,129.27C80.428,128.616 80.884,128.302 81.796,128.197C82.848,128.947 83.444,129.487 84.041,130.028C82.923,130.369 81.806,130.71 80.356,131.015z"/><path fill="#f2f2f2" d="M84.36,130.024C83.444,129.487 82.848,128.947 82.102,128.141C83.049,127.211 84.145,126.546 85.578,125.839C85.933,126.001 85.951,126.205 85.753,126.86C85.695,127.88 85.853,128.449 86.01,129.017C86.006,129.187 86.001,129.357 85.978,129.781C85.533,130.031 85.107,130.026 84.36,130.024z"/><path fill="#0f0f0f" d="M138.706,44.845C137.622,44.317 136.86,43.734 136.097,43.151C136.475,42.775 136.852,42.398 137.23,42.021C137.829,42.944 138.428,43.867 138.706,44.845z"/><path fill="#101010" d="M37.354,17.961C37.721,17.662 38.087,17.621 38.453,17.581C38.451,17.843 38.449,18.105 38.447,18.367C38.082,18.318 37.717,18.269 37.354,17.961z"/><path fill="#f4f5f5" d="M92.006,99.001C92.363,99.041 92.551,99.252 92.739,99.464C92.468,99.564 92.197,99.663 91.722,99.649C91.519,99.535 91.837,99.173 92.006,99.001z"/><path fill="#101010" d="M37.576,20.456C37.623,20.525 37.529,20.387 37.576,20.456z"/><path fill="#101010" d="M38.449,30.537C38.415,30.48 38.483,30.593 38.449,30.537z"/><path fill="#101010" d="M43.967,29.493C44.089,29.236 44.194,28.993 44.678,28.871C44.855,29.426 44.654,29.86 44.182,29.91C43.912,29.526 43.95,29.508 43.967,29.493z"/><path fill="#e4e4e4" d="M86.194,128.88C85.853,128.449 85.695,127.88 85.761,127.168C86.115,127.597 86.246,128.17 86.194,128.88z"/></svg>