<svg xmlns="http://www.w3.org/2000/svg" viewBox="0 0 252 174" xml:space="preserve"><path fill="#0a0a0a" d="M38.773,137.689C39.68,137.061 40.587,136.434 42.247,135.286C39.313,134.971 37.06,134.729 33.604,134.358C36.161,132.699 37.738,131.676 39.747,130.373C34.692,127.975 30.201,125.846 25.4,123.413C25.07,122.765 25.05,122.42 25.029,122.075C25.431,121.409 26.339,120.377 26.161,120.13C23.186,116.011 19.756,112.181 17.155,107.851C16.151,106.178 16.001,102.306 17.111,101.348C21.503,97.56 20.491,93.003 19.793,88.557C19.206,84.817 20.175,82.082 23.724,81.115C27.412,80.109 27.153,77.324 27.793,74.647C28.464,71.84 29.658,69.161 30.469,66.381C31.016,64.503 31.697,62.53 31.614,60.629C31.414,56.009 34.37,53.954 37.698,51.835C40.543,50.024 42.953,47.492 45.88,45.86C48.41,44.449 51.471,44.026 54.144,42.823C55.338,42.286 56.741,41.055 57.029,39.888C57.827,36.655 59.408,35.001 62.777,34.054C70.892,31.775 78.881,29.018 86.847,26.245C90.883,24.84 94.715,23.675 98.17,27.385C100.675,22.152 110.492,18.18 116.39,19.613C118.456,20.116 120.604,20.281 123.494,20.919C124.554,21.517 124.835,21.796 125.017,22.338C124.953,24.735 124.989,26.869 124.654,29.006C123.789,29.036 123.295,29.062 122.431,29.066C121.839,27.171 121.619,25.298 121.461,23.958C115.225,23.958 109.287,23.958 103.19,23.958C105.413,29.206 107.245,33.529 109.076,37.851C107.13,37.867 105.896,37.228 104.845,36.365C102.276,34.258 99.748,32.096 97.287,29.864C95.147,27.924 93.232,27.387 90.172,28.548C83.111,31.23 75.774,33.185 68.552,35.447C66.413,36.117 64.286,36.828 62.154,37.521C67.039,39.131 69.959,46.929 77.176,41.18C74.899,45.668 77.128,46.906 80.142,48.042C82.804,49.045 85.27,50.567 87.704,51.8C90.625,49.389 93.08,45.489 98.313,44.769C102.039,44.256 105.595,42.502 109.22,41.278C109.998,41.015 110.855,40.234 111.486,40.402C118.366,42.237 124.834,39.175 131.561,39.331C131.887,36.336 132.162,33.813 132.437,31.291C133.054,31.247 133.671,31.204 134.288,31.16C135.506,39.31 136.723,47.459 137.941,55.608C138.179,55.712 138.417,55.816 138.655,55.919C139.633,50.676 140.611,45.432 141.679,39.699C148.227,41.186 155.017,42.825 159.451,35.487C159.898,35.907 160.077,36.075 160.145,36.572C158.6,38.703 157.166,40.506 155.654,42.405C159.305,43.132 162.206,43.67 165.089,44.296C168.05,44.939 169.924,46.008 168.176,49.681C167.297,51.526 167.502,53.886 167.216,56.014C167.737,56.112 168.258,56.21 168.779,56.309C169.238,54.872 169.965,53.462 170.108,51.995C170.64,46.547 170.702,46.447 175.746,48.452C176.483,49.013 177.221,49.574 178.146,50.425C182.6,53.468 188.958,54.483 187.648,61.842C190.083,61.219 192.551,60.589 195.12,60.295C194.256,61.688 193.291,62.744 192.312,63.815C197.321,69.48 202.703,73.843 207.401,75.818C203.348,77.639 195.862,74.61 197.374,83.353C199.801,84.221 202.396,85.149 204.959,86.44C204.918,87.045 204.908,87.288 204.453,87.552C194.282,86.6 194.282,86.6 190.277,95.52C191.923,96.441 193.585,97.371 195.246,98.301C187.886,96.755 182.981,100.629 177.593,105.73C185.213,110.395 192.701,114.778 199.957,119.515C203.186,121.623 205.54,121.159 208.303,118.83C212.684,115.136 217.302,111.723 222.652,107.541C220.042,105.944 217.528,104.406 215.017,102.578C215.016,101.902 215.013,101.516 215.406,101.133C219.413,101.865 223.025,102.594 225.895,103.173C228.128,96.212 229.551,90.001 232.133,84.317C234.066,80.058 232.805,78.985 228.971,78.352C225.931,77.849 222.944,77.027 219.933,76.347C220.018,75.779 220.103,75.212 220.188,74.644C223.439,74.644 227.298,75.715 229.755,74.319C231.873,73.115 232.395,69.102 233.683,66.194C230.671,64.537 227.416,63.826 226.186,61.852C223.434,57.433 220.235,57.223 215.644,58.052C211.587,58.786 207.27,58.088 203.386,57.85C208.514,55.249 213.324,52.821 218.719,50.098C215.897,48.376 213.585,46.871 211.184,45.525C208.528,44.036 205.793,43.022 203.082,45.182C202.665,44.2 202.283,43.594 201.552,42.85C199.146,42.227 196.94,41.009 195.061,41.393C189.874,42.454 184.823,44.184 179.782,45.244C184.578,41.532 189.311,38.225 194.343,34.709C185.915,32.047 178.173,29.603 170.43,27.158C168.961,24.031 171.398,24.056 172.986,24.54C180.806,26.923 188.571,29.494 196.281,32.21C197.258,32.554 198.065,34.041 198.492,35.171C200.221,39.746 203.498,41.694 208.475,41.173C209.612,41.054 210.986,41.521 211.99,42.141C214.383,43.619 216.635,45.33 218.914,46.987C219.839,47.659 221.43,48.406 221.458,49.166C221.722,56.214 228.062,58.055 232.217,61.49C234.857,63.673 236.625,65.645 236.726,69.04C236.791,71.197 236.918,73.356 237.13,75.504C237.498,79.246 237.529,82.974 241.36,85.479C244.31,87.408 244.349,90.08 242.226,93.209C240.106,96.334 237.12,99.653 239.936,103.962C240.486,104.802 241.142,105.598 241.867,106.291C243.678,108.022 245.558,109.681 247.41,111.368C247.334,111.955 247.257,112.542 247.18,113.129C243.864,114.037 240.595,115.301 237.218,115.753C233.815,116.209 228.822,122.088 229.573,124.801C226.932,126.837 224.452,128.75 221.972,130.662C222.254,131.067 222.535,131.473 222.817,131.878C225.355,131.878 228.036,131.367 230.388,132.027C232.584,132.644 234.431,134.505 236.903,136.127C231.575,140.796 226.278,140.218 220.58,138.614C221.005,137.472 221.422,136.351 222.162,134.364C215.514,136.842 209.479,139.092 203.444,141.342C203.027,140.969 202.609,140.596 202.192,140.223C202.341,142.024 202.49,143.826 202.68,146.127C199.647,147.502 195.544,149.361 191.108,151.372C190.969,150.192 190.864,149.302 190.757,148.393C187.469,149.764 184.193,151.13 180.38,152.72C183.652,154.52 186.267,155.959 188.883,157.398C188.804,157.961 188.725,158.524 188.647,159.088C183.709,159.421 178.772,159.754 172.624,160.169C174.588,157.305 175.633,155.781 176.629,154.33C173.221,154.33 170.01,154.33 166.8,154.33C166.866,154.446 166.933,154.563 167,154.68C163.532,155.465 159.976,155.988 156.631,157.131C154.578,157.832 150.889,156.286 150.815,160.574C150.811,160.765 149.608,161.166 149.021,161.079C142.788,160.147 136.567,159.136 131.839,158.385C121.647,159.475 112.607,160.441 103.566,161.408C103.423,161.015 103.281,160.622 103.138,160.229C103.978,159.463 104.818,158.698 105.901,157.71C105.279,157.414 104.909,157.095 104.528,157.081C101.572,156.967 98.429,157.863 96.121,154.887C95.647,154.275 94.263,154.237 93.283,154.17C86.935,153.739 79.925,154.86 74.469,152.448C70.975,150.903 67.441,150.17 63.039,149.09C65.154,147.854 66.551,147.037 67.938,146.227C58.357,143.368 48.967,140.566 39.152,137.734C38.727,137.704 38.773,137.689 38.773,137.689M230.361,108.44C229.619,107.328 228.877,106.216 228.55,104.793C228.572,104.422 228.595,104.05 228.617,103.679C228.36,104.072 228.102,104.465 227.36,105.358C227.389,110.235 228.162,112.008 230.987,113.222C231.063,111.842 231.135,110.55 231.826,109.045C232.538,108.023 233.25,107.002 233.962,105.98C233.523,105.746 233.085,105.512 232.647,105.278C232.031,106.461 231.416,107.644 230.361,108.44M138.364,149.612C137.642,149.146 136.388,148.767 136.294,148.198C135.96,146.154 136.018,144.047 136.734,141.827C145.134,140.703 153.535,139.58 162.414,138.392C161.276,135.297 160.226,132.44 159.689,129.219C159.85,129.085 160.011,128.951 160.824,129.004C162.948,131.088 164.943,133.332 167.253,135.185C168.33,136.05 170.254,136.872 171.388,136.494C179.978,133.631 188.468,130.465 197.664,127.151C191.895,123.774 189.034,116.857 181.279,118.093C182.421,117.549 183.563,117.004 185.046,116.297C182.612,114.517 180.451,112.727 178.086,111.27C176.007,109.99 173.374,107.792 171.553,108.251C166.034,109.642 160.791,112.126 155.316,114.232C155.726,115.734 156.109,117.138 156.184,118.826C156.184,118.826 155.885,119.119 155.198,118.906C152.977,117.585 150.801,115.255 148.525,115.153C143.814,114.94 139.049,115.912 134.009,116.428C133.419,119.308 132.18,122.367 132.31,125.367C132.55,130.933 133.59,136.464 134.05,142.775C134.05,146.802 134.05,150.829 134.05,156.325C136.334,153.403 137.662,151.703 139.357,149.781C139.269,149.653 139.181,149.525 139.093,149.396C139.097,149.62 139.101,149.845 138.364,149.612M46.698,89.01C47.78,89.075 48.863,89.14 49.907,90.002C49.925,90.267 49.943,90.532 49.378,91.136C48.328,94.821 46.237,97.118 42.114,96.142C42.088,95.817 42.06,95.492 42.668,94.934C43.405,94.482 44.142,94.03 44.879,93.578C44.724,93.153 44.569,92.727 44.414,92.301C38.501,93.822 32.588,95.343 26.573,96.891C30.659,102.004 33.941,106.112 37.767,110.9C42.911,108.166 48.193,105.288 53.559,102.576C54.444,102.129 55.698,102.363 56.781,102.369C58.018,102.375 59.53,102.968 60.443,102.454C64.097,100.395 67.566,98.007 70.838,95.91C68.993,92.494 66.77,89.468 65.685,86.078C64.439,82.189 62.261,80.819 58.428,80.979C56.446,81.061 54.443,80.615 52.449,80.408C52.354,79.801 52.259,79.193 52.164,78.586C61.517,81.37 65.242,75.481 68.234,67.986C69.384,69.732 69.988,70.649 70.591,71.565C70.944,71.225 71.296,70.885 71.649,70.545C69.936,68.795 68.222,67.044 66.704,65.493C69.969,63.836 74.107,62.757 73.726,57.886C76.626,56.431 79.529,54.975 82.431,53.519C82.339,52.99 82.248,52.462 82.156,51.933C74.456,49.626 66.765,47.284 59.041,45.059C58.165,44.806 56.948,44.932 56.143,45.36C49.245,49.037 42.406,52.824 35.549,56.578C41.557,59.477 46.82,62.795 52.98,59.479C52.348,60.256 51.715,61.034 50.835,62.117C54.468,62.909 57.733,63.622 60.999,64.334C60.405,65.232 59.965,65.413 59.51,65.471C55.432,65.985 50.536,62.477 47.468,67.935C46.66,67.164 45.853,66.394 45.023,65.601C40.82,66.345 36.182,67.167 31.939,67.919C31.63,71.397 31.39,74.093 31.113,77.21C35.512,77.636 40.081,78.08 45.656,78.621C37.903,82.475 29.076,79.562 22.982,85.555C24.323,88.501 25.537,91.167 26.994,94.367C32.15,92.852 37.05,91.413 42.538,90.217C43.75,89.658 44.962,89.1 46.698,89.01M92.502,112.807C90.327,114.31 86.149,116.162 86.339,117.252C87.012,121.109 84.022,120.858 82.406,122.282C78.935,125.342 75.659,128.625 71.952,132.151C76.511,133.426 80.046,133.922 83.133,135.372C91.506,139.301 94.786,138.907 101.349,132.628C100.343,134.999 99.337,137.369 98.42,139.531C106.57,140.17 114.289,140.473 121.908,141.51C125.308,141.973 126.693,140.747 126.986,137.984C127.225,135.732 125.609,132.49 126.659,131.257C130.94,126.23 127.625,121.414 127.577,116.579C113.231,114.637 113.231,114.637 108.226,117.201C107.332,112.828 98.975,110.181 92.502,112.807M53.19,124.596C54.841,123.527 56.493,122.459 58.906,120.897C57.693,127.205 63.435,125.98 64.69,129.558C68.249,126.566 71.361,123.874 74.563,121.294C75.956,120.171 78.513,118.138 78.876,118.452C82.927,121.941 83.493,117.408 84.973,115.831C87.087,113.58 88.749,110.907 90.842,108.094C86.304,106.456 81.869,104.854 77.313,103.209C77.62,99.577 74.868,98.136 69.999,100.626C62.393,104.516 55.039,108.898 47.584,113.083C45.969,113.99 44.381,114.948 42.043,116.314C47.537,118.015 51.87,119.865 53.19,124.596M231.672,99.595C232.088,100.891 232.504,102.187 232.92,103.483C233.392,103.235 233.865,102.987 234.337,102.739C233.654,101.735 232.972,100.731 231.672,99.595z"/><path fill="#f0f0f0" d="M177.958,50.135C177.221,49.574 176.483,49.013 175.746,48.452C170.702,46.447 170.64,46.547 170.108,51.995C169.965,53.462 169.238,54.872 168.779,56.309C168.258,56.21 167.737,56.112 167.216,56.014C167.502,53.886 167.297,51.526 168.176,49.681C169.924,46.008 168.05,44.939 165.089,44.296C162.206,43.67 159.305,43.132 155.654,42.405C157.166,40.506 158.6,38.703 160.433,36.404C164.082,32.933 167.332,29.959 170.582,26.986C170.582,26.986 170.558,27.119 170.494,27.139C178.173,29.603 185.915,32.047 194.343,34.709C189.311,38.225 184.578,41.532 179.642,45.506C178.945,47.494 178.452,48.814 177.958,50.135z"/><path fill="#0a0a0a" d="M170.416,26.512C167.332,29.959 164.082,32.933 160.544,36.075C160.077,36.075 159.898,35.907 159.487,35.144C160.018,31.218 160.781,27.886 161.626,24.198C155.052,23.112 148.212,20.796 142.26,25.079C138.993,22.245 135.903,19.564 133.445,17.431C130.317,19.175 127.717,20.625 125.117,22.074C124.835,21.796 124.554,21.517 123.854,20.816C124.502,19.681 125.674,19.085 126.61,18.231C128.128,16.844 129.819,15.457 130.731,13.703C131.024,13.138 129.092,11.417 128.215,10.273C129.621,8.049 131.12,5.677 132.552,3.412C133.966,5.619 135.377,7.823 137.06,10.451C136.405,10.949 135.306,11.786 134.213,12.619C136.528,18.319 142.177,21.868 147.59,20.025C153.434,18.036 158.222,21.324 163.504,22C164.013,22.065 164.771,22.747 164.845,23.229C165.38,26.715 167.842,26.285 170.416,26.512z"/><path fill="#131313" d="M205.666,148.066C211.469,147.21 215.536,149.403 219.019,153.484C212.154,158.702 205.188,157.138 197.131,155.076C200.207,152.468 202.74,150.321 205.666,148.066z"/><path fill="#1c1c1c" d="M38.737,137.667C40.179,139.806 41.61,141.983 43.209,144.414C36.961,147.609 31.223,147.717 25.374,143.801C28.682,138.926 32.745,136.687 38.62,138.165C38.773,137.689 38.727,137.704 38.737,137.667z"/><path fill="#1f1f1f" d="M24.693,122.199C25.05,122.42 25.07,122.765 25.016,123.359C25.613,125.003 26.283,126.398 27.52,128.972C22.467,128.659 17.989,128.381 12.671,128.052C15.799,122.006 19.761,121.404 24.693,122.199z"/><path fill="#121212" d="M66.878,160.072C63.986,159.63 61.506,159.111 58.651,158.513C64.236,152.072 69.336,152.272 73.637,158.827C71.403,159.238 69.346,159.617 66.878,160.072z"/><path fill="#f2f2f2" d="M42.055,96.628C46.237,97.118 48.328,94.821 50.006,90.96C51.412,90.42 52.191,90.056 52.97,89.692C52.941,89.485 52.913,89.277 52.885,89.07C51.905,89.115 50.925,89.16 49.946,89.205C48.863,89.14 47.78,89.075 46.506,88.625C46.315,88.241 46.066,88.021 46.042,87.7C45.659,87.202 45.3,87.027 44.596,86.72C43.484,87.717 42.717,88.846 41.95,89.974C37.05,91.413 32.15,92.852 26.994,94.367C25.537,91.167 24.323,88.501 22.982,85.555C29.076,79.562 37.903,82.475 45.656,78.621C40.081,78.08 35.512,77.636 31.113,77.21C31.39,74.093 31.63,71.397 31.939,67.919C36.182,67.167 40.82,66.345 45.023,65.601C45.853,66.394 46.66,67.164 47.468,67.935C50.536,62.477 55.432,65.985 59.51,65.471C59.965,65.413 60.405,65.232 60.999,64.334C57.733,63.622 54.468,62.909 50.835,62.117C51.715,61.034 52.348,60.256 52.98,59.479C46.82,62.795 41.557,59.477 35.549,56.578C42.406,52.824 49.245,49.037 56.143,45.36C56.948,44.932 58.165,44.806 59.041,45.059C66.765,47.284 74.456,49.626 82.156,51.933C82.248,52.462 82.339,52.99 82.431,53.519C79.529,54.975 76.626,56.431 73.726,57.886C74.107,62.757 69.969,63.836 66.704,65.493C68.222,67.044 69.936,68.795 71.649,70.545C71.296,70.885 70.944,71.225 70.591,71.565C69.988,70.649 69.384,69.732 68.234,67.986C65.242,75.481 61.517,81.37 52.164,78.586C52.259,79.193 52.354,79.801 52.449,80.408C54.443,80.615 56.446,81.061 58.428,80.979C62.261,80.819 64.439,82.189 65.685,86.078C66.77,89.468 68.993,92.494 70.838,95.91C67.566,98.007 64.097,100.395 60.443,102.454C59.53,102.968 58.018,102.375 56.781,102.369C55.698,102.363 54.444,102.129 53.559,102.576C48.193,105.288 42.911,108.166 37.767,110.9C33.941,106.112 30.659,102.004 26.573,96.891C32.588,95.343 38.501,93.822 44.414,92.301C44.569,92.727 44.724,93.153 44.879,93.578C44.142,94.03 43.405,94.482 42.032,95.033C41.615,95.63 41.835,96.129 42.055,96.628z"/><path fill="#f2f2f2" d="M125.017,22.338C127.717,20.625 130.317,19.175 133.445,17.431C135.903,19.564 138.993,22.245 142.26,25.079C148.212,20.796 155.052,23.112 161.626,24.198C160.781,27.886 160.018,31.218 159.218,34.892C155.017,42.825 148.227,41.186 141.679,39.699C140.611,45.432 139.633,50.676 138.655,55.919C138.417,55.816 138.179,55.712 137.941,55.608C136.723,47.459 135.506,39.31 134.288,31.16C133.671,31.204 133.054,31.247 132.437,31.291C132.162,33.813 131.887,36.336 131.561,39.331C124.834,39.175 118.366,42.237 111.486,40.402C110.855,40.234 109.998,41.015 109.22,41.278C105.595,42.502 102.039,44.256 98.313,44.769C93.08,45.489 90.625,49.389 87.704,51.8C85.27,50.567 82.804,49.045 80.142,48.042C77.128,46.906 74.899,45.668 77.176,41.18C69.959,46.929 67.039,39.131 62.154,37.521C64.286,36.828 66.413,36.117 68.552,35.447C75.774,33.185 83.111,31.23 90.172,28.548C93.232,27.387 95.147,27.924 97.287,29.864C99.748,32.096 102.276,34.258 104.845,36.365C105.896,37.228 107.13,37.867 109.076,37.851C107.245,33.529 105.413,29.206 103.19,23.958C109.287,23.958 115.225,23.958 121.461,23.958C121.619,25.298 121.839,27.171 122.653,29.41C123.799,29.924 124.352,30.072 124.905,30.219C124.945,29.814 124.985,29.408 125.024,29.002C124.989,26.869 124.953,24.735 125.017,22.338M142.112,26.074C141.471,26.287 140.83,26.5 139.941,27.323C139.357,28.807 138.773,30.29 138.189,31.774C138.813,32.007 139.437,32.24 140.061,32.473C140.693,30.647 141.326,28.821 142.112,26.074M82.812,40.209C84.07,40.46 85.327,40.711 86.469,40.939C87.176,39.439 87.836,38.04 88.255,37.15C85.941,36.656 83.633,36.163 80.762,35.551C80.442,35.81 79.426,36.63 78.66,37.249C79.026,38.951 79.366,40.529 79.756,42.343C80.601,41.712 81.366,41.141 82.812,40.209M157.986,32.514C157.773,32.445 157.56,32.376 157.348,32.307C157.417,32.51 157.487,32.714 157.986,32.514z"/><path fill="#f5f5f5" d="M159.175,129.583C160.226,132.44 161.276,135.297 162.414,138.392C153.535,139.58 145.134,140.703 135.921,141.85C134.839,141.919 134.568,141.964 134.297,142.01C133.59,136.464 132.55,130.933 132.31,125.367C132.18,122.367 133.419,119.308 134.009,116.428C139.049,115.912 143.814,114.94 148.525,115.153C150.801,115.255 152.977,117.585 155.638,119.319C156.443,119.688 156.808,119.644 157.172,119.6C156.945,119.247 156.719,118.894 156.492,118.541C156.109,117.138 155.726,115.734 155.316,114.232C160.791,112.126 166.034,109.642 171.553,108.251C173.374,107.792 176.007,109.99 178.086,111.27C180.451,112.727 182.612,114.517 185.046,116.297C183.563,117.004 182.421,117.549 181.279,118.093C189.034,116.857 191.895,123.774 197.664,127.151C188.468,130.465 179.978,133.631 171.388,136.494C170.254,136.872 168.33,136.05 167.253,135.185C164.943,133.332 162.948,131.088 160.381,128.612C159.368,128.193 158.8,128.167 158.231,128.141C158.546,128.622 158.861,129.102 159.175,129.583z"/><path fill="#f0f0f0" d="M204.99,86.078C202.396,85.149 199.801,84.221 197.374,83.353C195.862,74.61 203.348,77.639 207.401,75.818C202.703,73.843 197.321,69.48 192.312,63.815C193.291,62.744 194.256,61.688 195.365,60.022C198.029,58.949 200.549,58.486 203.068,58.023C207.27,58.088 211.587,58.786 215.644,58.052C220.235,57.223 223.434,57.433 226.186,61.852C227.416,63.826 230.671,64.537 233.683,66.194C232.395,69.102 231.873,73.115 229.755,74.319C227.298,75.715 223.439,74.644 220.188,74.644C220.103,75.212 220.018,75.779 219.933,76.347C222.944,77.027 225.931,77.849 228.971,78.352C232.805,78.985 234.066,80.058 232.133,84.317C229.551,90.001 228.128,96.212 225.895,103.173C223.025,102.594 219.413,101.865 215.075,100.964C209.3,99.035 208.875,97.594 212.317,93.17C213.424,94.183 214.265,95.024 215.106,95.865C215.357,95.637 215.608,95.409 215.859,95.181C215.582,94.465 215.305,93.749 215.4,93.049C220.297,92.161 215.529,89.339 217.008,87.478C216.139,85.717 215.124,84.253 213.54,81.968C212.226,88.771 207.792,84.952 204.99,86.078z"/><path fill="#f5f5f5" d="M92.833,112.619C98.975,110.181 107.332,112.828 108.226,117.201C113.231,114.637 113.231,114.637 127.577,116.579C127.625,121.414 130.94,126.23 126.659,131.257C125.609,132.49 127.225,135.732 126.986,137.984C126.693,140.747 125.308,141.973 121.908,141.51C114.289,140.473 106.57,140.17 98.42,139.531C99.337,137.369 100.343,134.999 101.349,132.628C94.786,138.907 91.506,139.301 83.133,135.372C80.046,133.922 76.511,133.426 71.952,132.151C75.659,128.625 78.935,125.342 82.406,122.282C84.022,120.858 87.012,121.109 86.339,117.252C86.149,116.162 90.327,114.31 92.833,112.619M109.405,127.798C109.614,127.3 109.823,126.802 110.857,126.002C113.474,124.833 112.743,124.257 110.547,123.555C108.846,123.012 107.282,122.045 105.118,121.007C102.593,126.648 97.694,120.592 93.46,121.392C95.667,124.478 97.46,126.988 99.842,130.32C102.449,131.21 106.089,131.863 109.405,127.798z"/><path fill="#f4f5f5" d="M215.014,102.868C217.528,104.406 220.042,105.944 222.652,107.541C217.302,111.723 212.684,115.136 208.303,118.83C205.54,121.159 203.186,121.623 199.957,119.515C192.701,114.778 185.213,110.395 177.593,105.73C182.981,100.629 187.886,96.755 195.246,98.301C193.585,97.371 191.923,96.441 190.277,95.52C194.282,86.6 194.282,86.6 204.737,87.698C206.439,91.11 207.411,94.397 208.388,97.703C206.796,97.956 205.52,98.158 204.244,98.361C204.148,98.797 204.052,99.233 203.957,99.668C207.643,100.735 211.328,101.801 215.014,102.868z"/><path fill="#f1f1f1" d="M53.067,124.948C51.87,119.865 47.537,118.015 42.043,116.314C44.381,114.948 45.969,113.99 47.584,113.083C55.039,108.898 62.393,104.516 69.999,100.626C74.868,98.136 77.62,99.577 77.313,103.209C81.869,104.854 86.304,106.456 90.842,108.094C88.749,110.907 87.087,113.58 84.973,115.831C83.493,117.408 82.927,121.941 78.876,118.452C78.513,118.138 75.956,120.171 74.563,121.294C71.361,123.874 68.249,126.566 64.69,129.558C63.435,125.98 57.693,127.205 58.906,120.897C56.493,122.459 54.841,123.527 53.067,124.948M64.12,117.169C66.531,116.413 68.942,115.658 71.809,114.76C70.197,113.506 69.2,112.731 68.227,111.975C66.508,112.736 64.777,113.356 63.248,114.303C62.938,114.495 63.391,115.92 64.12,117.169z"/><path fill="#f1f2f2" d="M203.386,57.85C200.549,58.486 198.029,58.949 195.264,59.685C192.551,60.589 190.083,61.219 187.648,61.842C188.958,54.483 182.6,53.468 178.146,50.425C178.452,48.814 178.945,47.494 179.579,45.911C184.823,44.184 189.874,42.454 195.061,41.393C196.94,41.009 199.146,42.227 201.606,43.143C201.822,44.271 201.633,44.969 201.445,45.667C202.002,45.63 202.559,45.594 203.115,45.557C205.793,43.022 208.528,44.036 211.184,45.525C213.585,46.871 215.897,48.376 218.719,50.098C213.324,52.821 208.514,55.249 203.386,57.85z"/><path fill="#1c1c1c" d="M215.017,102.578C211.328,101.801 207.643,100.735 203.957,99.668C204.052,99.233 204.148,98.797 204.244,98.361C205.52,98.158 206.796,97.956 208.388,97.703C207.411,94.397 206.439,91.11 205.183,87.676C204.908,87.288 204.918,87.045 204.959,86.44C207.792,84.952 212.226,88.771 213.54,81.968C215.124,84.253 216.139,85.717 216.681,87.606C215.349,88.245 214.488,88.457 213.346,88.69C212.555,88.937 212.047,89.165 211.29,89.346C210.74,89.444 210.44,89.589 209.735,89.753C209.286,90.486 209.243,91.2 209.297,92.239C210.281,92.709 211.166,92.853 212.052,92.997C208.875,97.594 209.3,99.035 214.68,100.96C215.013,101.516 215.016,101.902 215.017,102.578z"/><path fill="#c4c5c5" d="M134.174,142.393C134.568,141.964 134.839,141.919 135.519,141.919C136.018,144.047 135.96,146.154 136.294,148.198C136.388,148.767 137.642,149.146 138.706,149.824C139.048,150.036 138.991,150.002 138.991,150.002C137.662,151.703 136.334,153.403 134.05,156.325C134.05,150.829 134.05,146.802 134.174,142.393z"/><path fill="#1c1c1c" d="M228.136,105.104C228.877,106.216 229.619,107.328 230.688,108.736C231.014,109.032 231.206,109.258 231.206,109.258C231.135,110.55 231.063,111.842 230.987,113.222C228.162,112.008 227.389,110.235 227.674,105.171C227.988,104.984 228.136,105.104 228.136,105.104z"/><path fill="#272727" d="M42.244,90.095C42.717,88.846 43.484,87.717 44.717,86.974C45.476,87.58 45.771,87.801 46.066,88.021C46.066,88.021 46.315,88.241 46.245,88.391C44.962,89.1 43.75,89.658 42.244,90.095z"/><path fill="#1c1c1c" d="M231.981,99.661C232.972,100.731 233.654,101.735 234.337,102.739C233.865,102.987 233.392,103.235 232.92,103.483C232.504,102.187 232.088,100.891 231.981,99.661z"/><path fill="#1c1c1c" d="M230.908,108.929C231.416,107.644 232.031,106.461 232.647,105.278C233.085,105.512 233.523,105.746 233.962,105.98C233.25,107.002 232.538,108.023 231.516,109.152C231.206,109.258 231.014,109.032 230.908,108.929z"/><path fill="#181818" d="M203.082,45.182C202.559,45.594 202.002,45.63 201.445,45.667C201.633,44.969 201.822,44.271 201.955,43.281C202.283,43.594 202.665,44.2 203.082,45.182z"/><path fill="#272727" d="M49.926,89.603C50.925,89.16 51.905,89.115 52.885,89.07C52.913,89.277 52.941,89.485 52.97,89.692C52.191,90.056 51.412,90.42 50.298,90.791C49.943,90.532 49.925,90.267 49.926,89.603z"/><path fill="#1c1c1c" d="M227.917,104.921C228.102,104.465 228.36,104.072 228.617,103.679C228.595,104.05 228.572,104.422 228.343,104.949C228.136,105.104 227.988,104.984 227.917,104.921z"/><path fill="#272727" d="M42.085,96.385C41.835,96.129 41.615,95.63 41.712,95.15C42.06,95.492 42.088,95.817 42.085,96.385z"/><path fill="#181818" d="M124.654,29.006C124.985,29.408 124.945,29.814 124.905,30.219C124.352,30.072 123.799,29.924 123.024,29.432C123.295,29.062 123.789,29.036 124.654,29.006z"/><path fill="#c4c5c5" d="M139.077,150.053C139.101,149.845 139.097,149.62 139.093,149.396C139.181,149.525 139.269,149.653 139.174,149.892C138.991,150.002 139.048,150.036 139.077,150.053z"/><path fill="#0a0a0a" d="M46.042,87.7C45.771,87.801 45.476,87.58 45.061,87.105C45.3,87.027 45.659,87.202 46.042,87.7z"/><path fill="#292828" d="M82.472,40.389C81.366,41.141 80.601,41.712 79.756,42.343C79.366,40.529 79.026,38.951 78.66,37.249C79.426,36.63 80.442,35.81 80.762,35.551C83.633,36.163 85.941,36.656 88.255,37.15C87.836,38.04 87.176,39.439 86.469,40.939C85.327,40.711 84.07,40.46 82.472,40.389z"/><path fill="#181818" d="M141.959,26.996C141.326,28.821 140.693,30.647 140.061,32.473C139.437,32.24 138.813,32.007 138.189,31.774C138.773,30.29 139.357,28.807 140.505,27.109C141.366,26.928 141.662,26.962 141.959,26.996z"/><path fill="#0a0a0a" d="M142.036,26.535C141.662,26.962 141.366,26.928 140.629,26.804C140.83,26.5 141.471,26.287 142.036,26.535z"/><path fill="#181818" d="M157.771,32.716C157.487,32.714 157.417,32.51 157.348,32.307C157.56,32.376 157.773,32.445 157.771,32.716z"/><path fill="#0a0a0a" d="M159.432,129.401C158.861,129.102 158.546,128.622 158.231,128.141C158.8,128.167 159.368,128.193 160.055,128.518C160.011,128.951 159.85,129.085 159.432,129.401z"/><path fill="#0a0a0a" d="M156.338,118.683C156.719,118.894 156.945,119.247 157.172,119.6C156.808,119.644 156.443,119.688 155.982,119.426C155.885,119.119 156.184,118.826 156.338,118.683z"/><path fill="#c3c4c3" d="M210.14,89.733C210.44,89.589 210.74,89.444 211.462,89.673C212.912,91.017 213.941,91.986 214.984,92.975C214.998,92.994 215.029,93.032 215.029,93.032C215.305,93.749 215.582,94.465 215.859,95.181C215.608,95.409 215.357,95.637 215.106,95.865C214.265,95.024 213.424,94.183 212.317,93.17C211.166,92.853 210.281,92.709 209.548,92.05C209.847,90.935 209.994,90.334 210.14,89.733z"/><path fill="#c3c4c3" d="M213.628,88.67C214.488,88.457 215.349,88.245 216.536,87.904C215.529,89.339 220.297,92.161 215.4,93.049C215.029,93.032 214.998,92.994 214.941,92.574C214.465,90.992 214.047,89.831 213.628,88.67z"/><path fill="#282828" d="M108.899,128.036C106.089,131.863 102.449,131.21 99.842,130.32C97.46,126.988 95.667,124.478 93.46,121.392C97.694,120.592 102.593,126.648 105.118,121.007C107.282,122.045 108.846,123.012 110.547,123.555C112.743,124.257 113.474,124.833 110.045,126.056C106.197,125.713 103.161,125.316 100.124,124.92C102.004,129.898 106.064,126.8 108.899,128.036z"/><path fill="#e1e1e1" d="M109.152,127.917C106.064,126.8 102.004,129.898 100.124,124.92C103.161,125.316 106.197,125.713 109.632,126.206C109.823,126.802 109.614,127.3 109.152,127.917z"/><path fill="#292a2a" d="M63.806,116.973C63.391,115.92 62.938,114.495 63.248,114.303C64.777,113.356 66.508,112.736 68.227,111.975C69.2,112.731 70.197,113.506 71.809,114.76C68.942,115.658 66.531,116.413 63.806,116.973z"/><path fill="#f0f0f0" d="M213.346,88.69C214.047,89.831 214.465,90.992 214.926,92.554C213.941,91.986 212.912,91.017 211.712,89.721C212.047,89.165 212.555,88.937 213.346,88.69z"/><path fill="#f0f0f0" d="M209.735,89.753C209.994,90.334 209.847,90.935 209.449,91.725C209.243,91.2 209.286,90.486 209.735,89.753z"/></svg>