<svg xmlns="http://www.w3.org/2000/svg" viewBox="0 0 209 110" xml:space="preserve"><path fill="#080808" d="M63.18,49.014C64.704,46.504 61.911,41.386 68.749,42.06C63.671,35.04 66.865,29.231 69.291,23.215C69.359,27.871 70.808,30.995 75.357,33.344C77.873,34.643 78.816,38.987 80.615,42.22C85.24,43.444 85.738,39.531 86.729,35.553C88.197,37.197 89.211,38.333 90.226,39.469C90.683,39.17 91.139,38.871 91.595,38.572C90.365,36.636 89.574,34.039 87.828,32.882C80.879,28.274 79.827,25.805 82.802,17.95C83.623,15.784 84.654,13.687 85.718,11.625C86.834,9.462 88.107,7.378 89.513,4.905C90.168,7.662 90.97,9.839 91.134,12.063C91.302,14.341 91.454,16.957 90.523,18.904C89.028,22.032 89.182,24.316 92.054,26.176C96.628,29.138 98.752,33.416 98.976,39.655C103.784,36.29 108.362,32.744 112.675,38.127C114.714,34.438 116.75,31.162 118.353,27.685C119.163,25.929 120.202,23.049 119.401,21.985C115.234,16.45 117.018,10.613 118.658,4.186C121.932,10.116 125.521,15.905 128.281,22.065C129.065,23.814 127.717,26.759 126.816,28.937C126.216,30.385 124.644,31.417 123.563,32.683C119.527,37.411 120.16,39.265 126.168,40.407C126.813,40.529 127.456,40.655 128.043,40.769C130.501,36.365 132.896,32.076 135.865,26.755C136.787,32.655 137.545,37.506 138.374,42.814C141.624,44.036 144.33,42.927 146.016,38.657C146.837,36.579 148.279,34.347 150.079,33.132C154.744,29.985 158.327,26.512 158.063,20.051C159.905,23.871 161.921,27.621 163.49,31.55C163.997,32.82 163.909,35.334 163.094,35.943C160.232,38.083 161.034,39.727 162.603,42.206C163.851,44.177 164.128,46.761 165.041,49.743C168.115,49.888 171.692,50.057 175.694,50.246C175.771,45.168 178.492,43.585 183.029,42.756C185.597,42.287 187.666,39.092 190.645,36.537C190.769,42.115 191.472,47.788 190.813,53.299C190.382,56.912 191.118,59.101 194.037,60.663C198.876,63.253 201.341,66.735 199.115,72.355C198.878,72.953 198.855,73.677 198.89,74.333C199.517,86.137 192.715,93.797 184.234,100.461C183.132,101.327 181.635,101.885 180.238,102.15C168.151,104.448 156.124,107.571 143.922,108.609C132.041,109.62 119.975,108.367 107.99,108.29C95.212,108.208 82.425,108.596 69.657,108.257C64.414,108.117 59.125,106.941 54.002,105.657C44.972,103.395 35.986,100.893 27.136,98.018C25.053,97.341 22.81,95.087 21.976,93.02C19.558,87.023 18.018,80.676 15.728,74.62C14.556,71.523 15.59,69.784 17.654,67.677C21.188,64.069 23.937,59.571 27.832,56.474C31.064,53.905 35.465,52.797 39.367,51.085C40.103,50.763 40.929,50.646 42.326,50.269C41.073,41.353 44.156,34.083 51.866,27.473C51.553,30.526 51.607,32.596 51.093,34.515C49.516,40.412 50.735,42.888 56.785,43.829C59.775,44.294 61.307,45.477 61.852,49.039C60.303,50.833 58.781,52.354 56.962,52.92C49.163,55.347 41.276,57.493 32.794,59.921C34.933,61.382 36.267,62.294 38.365,63.728C33.034,66.067 28.332,68.129 22.428,70.719C25.48,72.012 27.306,72.655 29.002,73.545C30.421,74.289 32.871,75.389 32.825,76.218C32.568,80.816 36.091,79.993 38.522,80.623C41.25,81.33 44.118,81.56 46.787,82.424C52.98,84.428 53.303,85.761 49.683,89.682C55.099,91.907 60.721,94.391 66.489,96.467C67.954,96.995 69.897,96.291 71.603,96.037C74.758,95.566 77.91,94.533 81.047,94.596C86.31,94.701 91.551,95.671 96.818,95.911C100.429,96.075 104.085,95.593 103.83,100.195C113.578,99.568 122.983,98.963 132.439,98.355C132.305,97.511 132.091,96.17 131.866,94.753C137.358,93.788 142.569,92.943 147.75,91.938C151.48,91.215 155.118,89.869 158.597,92.947C159.337,93.602 161.363,93.525 162.398,93C166.672,90.829 170.793,88.357 175.947,85.443C172.973,85.144 171.021,84.947 169.069,84.751C169.015,84.428 168.96,84.106 168.906,83.783C173.727,81.592 178.547,79.401 184.443,76.722C181.776,75.702 180.448,75.195 177.642,74.123C183.103,70.807 187.605,68.074 192.972,64.815C189.266,63.995 186.402,63.324 183.521,62.735C180.278,62.072 177.085,61.432 179.651,56.486C170.368,54.522 161.164,55.198 152.817,51.267C149.916,49.9 146.348,49.759 143.049,49.458C129.48,48.216 115.887,46.151 102.322,46.284C90.786,46.397 79.286,49.188 67.744,50.573C66.306,50.746 64.705,49.567 63.18,49.014z"/><path fill="#f3f3f3" d="M62.9,49.005C64.705,49.567 66.306,50.746 67.744,50.573C79.286,49.188 90.786,46.397 102.322,46.284C115.887,46.151 129.48,48.216 143.049,49.458C146.348,49.759 149.916,49.9 152.817,51.267C161.164,55.198 170.368,54.522 179.651,56.486C177.085,61.432 180.278,62.072 183.521,62.735C186.402,63.324 189.266,63.995 192.972,64.815C187.605,68.074 183.103,70.807 177.642,74.123C180.448,75.195 181.776,75.702 184.443,76.722C178.547,79.401 173.727,81.592 168.906,83.783C168.96,84.106 169.015,84.428 169.069,84.751C171.021,84.947 172.973,85.144 175.947,85.443C170.793,88.357 166.672,90.829 162.398,93C161.363,93.525 159.337,93.602 158.597,92.947C155.118,89.869 151.48,91.215 147.75,91.938C142.569,92.943 137.358,93.788 131.866,94.753C132.091,96.17 132.305,97.511 132.439,98.355C122.983,98.963 113.578,99.568 103.83,100.195C104.085,95.593 100.429,96.075 96.818,95.911C91.551,95.671 86.31,94.701 81.047,94.596C77.91,94.533 74.758,95.566 71.603,96.037C69.897,96.291 67.954,96.995 66.489,96.467C60.721,94.391 55.099,91.907 49.683,89.682C53.303,85.761 52.98,84.428 46.787,82.424C44.118,81.56 41.25,81.33 38.522,80.623C36.091,79.993 32.568,80.816 32.825,76.218C32.871,75.389 30.421,74.289 29.002,73.545C27.306,72.655 25.48,72.012 22.428,70.719C28.332,68.129 33.034,66.067 38.365,63.728C36.267,62.294 34.933,61.382 32.794,59.921C41.276,57.493 49.163,55.347 56.962,52.92C58.781,52.354 60.303,50.833 62.011,49.375C62.247,48.997 62.433,48.997 62.9,49.005M61.606,56.93C55.435,59.733 49.182,62.371 43.131,65.413C40.387,66.792 39.12,69.076 42.466,71.493C45.151,73.433 47.877,75.32 50.498,77.343C52.567,78.942 55.337,80.336 56.311,82.491C57.924,86.06 60.161,86.089 63.416,86.063C69.658,86.012 75.935,86.352 82.146,87.014C92.643,88.133 103.118,90.772 113.569,90.612C122.331,90.478 131.042,87.24 139.786,85.423C142.528,84.854 145.297,84.055 148.06,84.026C153.573,83.969 159.536,85.753 162.778,79.037C163.02,78.534 163.829,78.152 164.444,78.007C170.484,76.574 171.921,71.207 174.792,66.313C138.326,48.085 100.74,48.011 61.606,56.93z"/><path fill="#030303" d="M61.992,56.807C100.74,48.011 138.326,48.085 174.792,66.313C171.921,71.207 170.484,76.574 164.444,78.007C163.829,78.152 163.02,78.534 162.778,79.037C159.536,85.753 153.573,83.969 148.06,84.026C145.297,84.055 142.528,84.854 139.786,85.423C131.042,87.24 122.331,90.478 113.569,90.612C103.118,90.772 92.643,88.133 82.146,87.014C75.935,86.352 69.658,86.012 63.416,86.063C60.161,86.089 57.924,86.06 56.311,82.491C55.337,80.336 52.567,78.942 50.498,77.343C47.877,75.32 45.151,73.433 42.466,71.493C39.12,69.076 40.387,66.792 43.131,65.413C49.182,62.371 55.435,59.733 61.992,56.807z"/></svg>