<svg xmlns="http://www.w3.org/2000/svg" viewBox="0 0 211 127" xml:space="preserve"><path fill="#050505" d="M154.849,118.807C105.143,121.986 56.093,118.075 6.986,116.312C6.758,115.627 6.529,114.942 6.301,114.257C37.758,79.366 69.214,44.476 101.06,9.152C136.711,44.281 172.104,79.155 207.496,114.028C207.312,114.565 207.127,115.102 206.943,115.64C189.734,116.676 172.526,117.712 154.849,118.807M80.154,38.568C76.483,43.718 76.483,43.718 87.956,48.055C82.937,48.806 78.793,49.037 74.894,50.138C72.025,50.948 69.031,52.428 66.901,54.457C64.284,56.95 65.277,59.278 68.975,59.99C72.849,60.735 76.733,61.431 80.613,62.148C78.096,63.255 75.669,63.6 73.248,63.981C68.987,64.653 64.738,65.4 60.47,66.017C56.815,66.545 56.331,69.363 56.825,71.958C57.065,73.214 59.212,74.65 60.733,75.014C64.695,75.962 68.788,76.364 72.829,76.984C65.27,78.691 57.758,79.447 50.271,80.397C42.964,81.323 41.867,83.169 43.826,90.946C52.081,91.944 60.432,92.954 68.783,93.964C58.367,95.372 48.077,96.001 37.796,96.744C28.454,97.42 28.458,97.475 25.755,107.541C58.836,108.848 91.734,110.147 125.455,111.479C116.856,78.64 108.572,47.002 100.029,14.374C96.507,19.556 93.514,23.381 91.226,27.588C90.196,29.484 90.571,32.144 90.221,35.229C88.005,35.894 84.376,36.983 80.154,38.568z"/><path fill="#fafafa" d="M80.45,38.32C84.376,36.983 88.005,35.894 90.221,35.229C90.571,32.144 90.196,29.484 91.226,27.588C93.514,23.381 96.507,19.556 100.029,14.374C108.572,47.002 116.856,78.64 125.455,111.479C91.734,110.147 58.836,108.848 25.755,107.541C28.458,97.475 28.454,97.42 37.796,96.744C48.077,96.001 58.367,95.372 68.783,93.964C60.432,92.954 52.081,91.944 43.826,90.946C41.867,83.169 42.964,81.323 50.271,80.397C57.758,79.447 65.27,78.691 72.829,76.984C68.788,76.364 64.695,75.962 60.733,75.014C59.212,74.65 57.065,73.214 56.825,71.958C56.331,69.363 56.815,66.545 60.47,66.017C64.738,65.4 68.987,64.653 73.248,63.981C75.669,63.6 78.096,63.255 80.613,62.148C76.733,61.431 72.849,60.735 68.975,59.99C65.277,59.278 64.284,56.95 66.901,54.457C69.031,52.428 72.025,50.948 74.894,50.138C78.793,49.037 82.937,48.806 87.956,48.055C76.483,43.718 76.483,43.718 80.45,38.32z"/></svg>