<svg xmlns="http://www.w3.org/2000/svg" viewBox="0 0 239 120" xml:space="preserve"><path fill="#060606" d="M28.137,110.183C40.727,106.749 53.317,103.315 65.908,99.88C56.11,96.916 46.829,95.051 37.043,98.504C28.014,101.69 18.429,102.88 7.675,101.239C13.254,97.426 17.888,94.012 22.778,91.016C25.355,89.437 26.747,87.677 26.28,84.642C25.587,80.135 27.209,76.947 31.508,75.12C35.528,73.412 37.076,70.158 36.881,65.914C36.82,64.585 36.978,63.247 36.917,61.918C36.517,53.179 38.177,45.949 48.162,43.163C53.381,41.707 55.738,37.504 55.158,31.911C55.004,30.426 55.213,28.904 55.066,27.418C54.217,18.875 59.021,17.039 65.127,15.125C74.973,12.038 85.026,9.547 95.099,7.28C98.993,6.404 103.258,6.24 107.214,6.781C114.884,7.83 122.455,9.608 129.975,11.066C128.947,16.091 127.883,20.425 127.219,24.82C126.718,28.139 128.127,29.935 131.872,30.291C138.991,30.966 146.038,32.418 153.159,33.051C157.315,33.42 159.417,35.356 160.514,39.124C161.582,42.79 163.12,46.331 164.031,50.03C165.358,55.42 168.413,57.945 174.75,56.946C175.184,51.122 175.633,45.09 176.086,39.003C181.068,37.55 185.59,37.143 190.185,39.862C195.47,42.991 202.889,44.422 205.913,48.922C208.903,53.37 207.734,60.716 208.084,66.809C208.504,74.123 208.407,81.47 208.969,88.77C209.117,90.701 210.409,93.157 211.964,94.257C217.515,98.184 223.406,101.631 229.141,105.243C218.738,109.6 207.205,109.214 195.535,103.479C185.983,98.785 176.738,100.081 167.396,104.183C169.495,104.183 171.595,104.177 173.695,104.185C178.888,104.203 183.367,104.878 187.739,108.904C191.678,112.532 197.597,114.009 203.019,116.616C195.365,116.616 188.035,117.07 180.784,116.509C170.054,115.679 159.401,113.861 148.67,113.042C145.21,112.777 141.362,113.762 138.124,115.17C130.351,118.549 123.299,118.865 116.013,113.646C113.836,112.086 110.025,112.331 107.007,112.509C98.833,112.992 90.683,113.883 82.523,114.612C82.419,114.042 82.316,113.472 82.212,112.903C83.968,112.389 85.701,111.761 87.485,111.379C96.253,109.504 104.982,107.308 113.844,106.089C116.629,105.706 119.75,108.113 122.779,109.046C125.203,109.793 127.757,110.835 130.187,110.684C133.788,110.462 137.33,109.3 142.362,108.225C139.376,106.866 137.528,105.822 135.553,105.159C120.616,100.144 105.439,101.136 90.824,105.526C76.091,109.952 61.341,111.968 46.077,111.449C40.424,111.257 34.754,111.589 28.728,111.44C28.289,110.859 28.213,110.521 28.137,110.183M101.014,79.396C101.879,82.772 102.558,86.213 103.698,89.493C104.169,90.848 105.448,92.58 106.674,92.889C110.103,93.752 113.696,93.962 118.574,94.608C115.052,85.465 115.167,76.551 109.303,69.58C108.595,68.739 107.998,67.041 108.37,66.18C110.699,60.785 109.12,56.737 105.054,52.827C102.033,49.923 102.279,46.158 103.53,42.159C104.279,39.767 103.623,36.935 103.598,34.301C101.283,34.623 98.707,34.407 96.709,35.38C92.721,37.321 89.266,40.434 85.199,42.119C78.905,44.726 77.917,45.916 79.264,52.511C80.074,56.477 82.37,57.779 86.152,56.647C87.42,56.268 88.642,55.737 89.899,55.318C94.829,53.675 95.834,54.321 96.904,59.571C98.197,65.912 99.557,72.239 101.014,79.396M61.854,31.662C62.384,34.053 62.914,36.443 63.584,39.464C69.379,38.182 75.226,38.336 79.546,33.489C80.317,32.625 82.174,32.209 83.422,32.377C90.688,33.354 92.299,32.052 92.288,24.738C92.285,22.914 92.179,21.086 92.26,19.267C92.426,15.583 90.514,14.52 87.269,15.307C80.747,16.888 74.209,18.427 67.751,20.242C60.661,22.233 60.036,23.511 61.854,31.662M70.83,50.819C70.327,48.105 70.454,44.53 66.23,45.314C60.065,46.457 53.941,47.911 47.904,49.604C46.438,50.015 44.404,51.806 44.307,53.089C43.901,58.418 44.136,63.796 44.136,67.949C49.194,67.949 53.047,68.372 56.735,67.775C58.633,67.467 60.337,65.454 61.946,64.008C63.475,62.633 64.52,60.109 66.209,59.638C70.711,58.384 71.233,55.418 70.83,50.819M140.144,53.287C142.48,61.053 144.9,68.795 147.121,76.594C148.514,81.483 151.646,83.422 157.359,83.165C152.793,69.402 148.525,56.067 143.848,42.877C143.02,40.543 140.486,38.815 137.955,35.905C135.688,42.853 139.109,47.514 140.144,53.287M117.065,60.411C119.146,68.325 121.227,76.238 123.354,84.326C127.619,82.681 128.053,80.475 127.315,77.471C124.388,65.571 121.727,53.603 118.642,41.746C117.918,38.962 115.923,36.508 114.513,33.903C113.862,34.088 113.211,34.273 112.56,34.458C112.56,36.881 112.162,39.384 112.637,41.709C113.864,47.709 115.477,53.629 117.065,60.411M45.891,92.645C47.753,91.22 51.552,91.871 50.989,87.845C50.379,83.482 49.806,79.113 49.06,73.585C44.208,75.819 39.601,77.796 35.168,80.106C34.279,80.569 33.452,82.405 33.628,83.432C34.219,86.891 35.275,90.272 36.258,94.089C38.997,93.715 42.036,93.3 45.891,92.645M184.982,77.487C185.036,72.171 184.924,66.846 185.2,61.542C185.405,57.614 183.845,55.731 179.941,55.538C179.644,56.08 179.238,56.487 179.212,56.917C178.706,65.371 178.506,73.853 177.677,82.274C177.171,87.412 179.37,89.924 184.945,91.534C184.945,86.95 184.945,82.715 184.982,77.487M128.446,90.327C131.707,96.27 138.448,95.39 142.808,98.458C144.904,95.582 146.551,93.323 148.31,90.908C143.102,89.89 137.946,88.724 132.73,87.977C131.493,87.8 130.055,89.025 128.446,90.327M67.717,73.139C77.267,71.688 77.975,70.898 76.883,62.916C67.444,63.446 65.277,65.609 67.717,73.139M69.23,86.153C69.23,88.031 69.23,89.908 69.23,92.217C72.789,91.976 75.806,91.772 78.753,91.572C79.296,83.511 78.924,83.189 71.843,85.1C71.211,85.271 70.602,85.524 69.23,86.153M71.185,82.936C74.414,81.487 79.754,81.794 77.221,75.129C74.518,75.772 71.749,76.154 69.235,77.168C68.255,77.563 67.155,79.535 67.37,80.511C67.6,81.557 69.315,82.276 71.185,82.936M179.053,46.486C178.546,50.777 181.432,51.73 186.138,52.552C184.639,49.444 183.77,46.916 182.289,44.822C181.29,43.41 179.432,42.628 179.053,46.486z"/><path fill="#7c7c7c" d="M27.789,110.11C28.213,110.521 28.289,110.859 28.287,111.446C27.085,111.762 25.962,111.83 24.838,111.898C24.782,111.612 24.725,111.326 24.669,111.04C25.593,110.706 26.517,110.371 27.789,110.11z"/><path fill="#f7f7f7" d="M100.951,78.984C99.557,72.239 98.197,65.912 96.904,59.571C95.834,54.321 94.829,53.675 89.899,55.318C88.642,55.737 87.42,56.268 86.152,56.647C82.37,57.779 80.074,56.477 79.264,52.511C77.917,45.916 78.905,44.726 85.199,42.119C89.266,40.434 92.721,37.321 96.709,35.38C98.707,34.407 101.283,34.623 103.598,34.301C103.623,36.935 104.279,39.767 103.53,42.159C102.279,46.158 102.033,49.923 105.054,52.827C109.12,56.737 110.699,60.785 108.37,66.18C107.998,67.041 108.595,68.739 109.303,69.58C115.167,76.551 115.052,85.465 118.574,94.608C113.696,93.962 110.103,93.752 106.674,92.889C105.448,92.58 104.169,90.848 103.698,89.493C102.558,86.213 101.879,82.772 100.951,78.984z"/><path fill="#f7f7f7" d="M61.748,31.247C60.036,23.511 60.661,22.233 67.751,20.242C74.209,18.427 80.747,16.888 87.269,15.307C90.514,14.52 92.426,15.583 92.26,19.267C92.179,21.086 92.285,22.914 92.288,24.738C92.299,32.052 90.688,33.354 83.422,32.377C82.174,32.209 80.317,32.625 79.546,33.489C75.226,38.336 69.379,38.182 63.584,39.464C62.914,36.443 62.384,34.053 61.748,31.247z"/><path fill="#f6f6f6" d="M70.857,51.235C71.233,55.418 70.711,58.384 66.209,59.638C64.52,60.109 63.475,62.633 61.946,64.008C60.337,65.454 58.633,67.467 56.735,67.775C53.047,68.372 49.194,67.949 44.136,67.949C44.136,63.796 43.901,58.418 44.307,53.089C44.404,51.806 46.438,50.015 47.904,49.604C53.941,47.911 60.065,46.457 66.23,45.314C70.454,44.53 70.327,48.105 70.857,51.235z"/><path fill="#f3f3f3" d="M140.062,52.894C139.109,47.514 135.688,42.853 137.955,35.905C140.486,38.815 143.02,40.543 143.848,42.877C148.525,56.067 152.793,69.402 157.359,83.165C151.646,83.422 148.514,81.483 147.121,76.594C144.9,68.795 142.48,61.053 140.062,52.894z"/><path fill="#efefef" d="M117.001,59.996C115.477,53.629 113.864,47.709 112.637,41.709C112.162,39.384 112.56,36.881 112.56,34.458C113.211,34.273 113.862,34.088 114.513,33.903C115.923,36.508 117.918,38.962 118.642,41.746C121.727,53.603 124.388,65.571 127.315,77.471C128.053,80.475 127.619,82.681 123.354,84.326C121.227,76.238 119.146,68.325 117.001,59.996z"/><path fill="#f2f2f2" d="M45.482,92.765C42.036,93.3 38.997,93.715 36.258,94.089C35.275,90.272 34.219,86.891 33.628,83.432C33.452,82.405 34.279,80.569 35.168,80.106C39.601,77.796 44.208,75.819 49.06,73.585C49.806,79.113 50.379,83.482 50.989,87.845C51.552,91.871 47.753,91.22 45.482,92.765z"/><path fill="#f3f3f3" d="M184.964,77.984C184.945,82.715 184.945,86.95 184.945,91.534C179.37,89.924 177.171,87.412 177.677,82.274C178.506,73.853 178.706,65.371 179.212,56.917C179.238,56.487 179.644,56.08 179.941,55.538C183.845,55.731 185.405,57.614 185.2,61.542C184.924,66.846 185.036,72.171 184.964,77.984z"/><path fill="#efefef" d="M128.577,89.966C130.055,89.025 131.493,87.8 132.73,87.977C137.946,88.724 143.102,89.89 148.31,90.908C146.551,93.323 144.904,95.582 142.808,98.458C138.448,95.39 131.707,96.27 128.577,89.966z"/><path fill="#f0f0f1" d="M67.332,72.987C65.277,65.609 67.444,63.446 76.883,62.916C77.975,70.898 77.267,71.688 67.332,72.987z"/><path fill="#ededed" d="M69.606,85.946C70.602,85.524 71.211,85.271 71.843,85.1C78.924,83.189 79.296,83.511 78.753,91.572C75.806,91.772 72.789,91.976 69.23,92.217C69.23,89.908 69.23,88.031 69.606,85.946z"/><path fill="#ededed" d="M70.783,83.037C69.315,82.276 67.6,81.557 67.37,80.511C67.155,79.535 68.255,77.563 69.235,77.168C71.749,76.154 74.518,75.772 77.221,75.129C79.754,81.794 74.414,81.487 70.783,83.037z"/><path fill="#e8e8e8" d="M179.055,46.068C179.432,42.628 181.29,43.41 182.289,44.822C183.77,46.916 184.639,49.444 186.138,52.552C181.432,51.73 178.546,50.777 179.055,46.068z"/></svg>