<svg xmlns="http://www.w3.org/2000/svg" viewBox="0 0 267 115" xml:space="preserve"><path fill="#050505" d="M205.004,110.053C138.371,110.052 72.238,110.052 4.58,110.052C5.746,105.518 6.526,102.487 7.306,99.455C7.666,98.057 8.279,96.668 8.334,95.258C8.444,92.433 8.653,89.516 8.11,86.778C6.076,76.511 11.332,68.45 15.867,60.185C16.602,58.844 18.099,57.552 19.532,57.031C23.965,55.42 24.424,52.273 23.705,48.285C23.084,44.845 22.564,41.372 22.275,37.891C21.637,30.233 24.961,25.925 32.474,24.572C39.349,23.334 46.246,22.219 53.134,21.05C55.898,20.581 57.298,19.189 58.779,16.462C61.851,10.81 65.808,5.798 73.596,5.604C86.738,5.277 99.86,4.183 112.999,3.624C114.828,3.546 116.929,4.319 118.525,5.309C125.596,9.695 132.557,14.26 139.5,18.85C143.293,21.359 144.235,25.199 143.339,29.338C142.647,32.541 141.268,35.595 140.078,39.055C145.752,39.055 151.191,39.18 156.616,38.965C157.925,38.913 159.427,37.983 160.428,37.026C163.07,34.501 165.947,32.035 167.894,29.008C171.74,23.026 177.217,21.061 183.903,20.691C195.8,20.033 206.999,23.31 218.159,26.615C219.754,27.087 221.478,29.622 221.801,31.441C223.044,38.441 223.742,45.538 224.697,53.017C231.635,55.565 239.078,58.44 246.626,61.008C250.339,62.271 251.656,64.567 251.902,68.364C252.395,75.998 253.245,83.615 254.14,91.216C254.749,96.394 255.997,101.278 260.655,104.677C262.28,105.863 263.189,108.029 264.645,110.053C244.537,110.053 225.02,110.053 205.004,110.053M65.782,32.657C66.416,36.151 67.05,39.645 67.754,43.525C71.883,41.695 75.575,38.813 78.161,43.409C80.587,47.72 83.897,47.468 87.858,46.934C91.448,46.45 95.143,46.108 98.733,46.407C103.428,46.798 105.073,44.88 105.005,40.437C104.893,33.12 104.986,25.798 105.042,18.479C105.08,13.49 104.225,13.029 99.077,13.478C91.817,14.112 84.515,14.267 77.23,14.589C74.909,14.692 72.566,14.508 70.264,14.754C66.085,15.2 64.025,17.559 64.523,21.869C64.905,25.174 65.309,28.475 65.782,32.657M205.088,99.923C205.088,89.437 205.088,78.95 205.088,68.738C195.545,70.129 185.855,71.412 176.233,73.086C174.794,73.337 172.629,75.389 172.582,76.674C172.311,83.964 172.501,91.276 172.711,98.575C172.794,101.471 174.318,102.868 177.526,102.89C185.161,102.944 192.793,103.533 200.426,103.512C201.943,103.508 203.456,101.75 205.088,99.923M119.689,51.216C117.394,51.594 115.035,51.752 112.816,52.393C107.696,53.872 107.501,55.775 110.76,60.022C112.974,62.907 114.951,66.383 115.714,69.883C117.024,75.887 118.157,76.989 124.399,75.9C130.891,74.767 137.457,74.045 143.919,72.776C145.44,72.477 147.487,70.947 147.895,69.569C149.535,64.026 150.646,58.324 151.918,52.673C153.032,47.72 150.845,44.811 145.824,45.092C139.234,45.461 132.524,45.298 126.69,49.494C125.076,50.656 122.605,50.626 119.689,51.216M184.535,56.015C185.805,53.895 187.848,51.895 188.196,49.633C189.131,43.57 189.46,37.399 189.727,31.258C189.775,30.162 188.616,28.377 187.598,27.98C182.774,26.1 177.27,28.465 174.35,33.005C172.488,35.901 170.621,38.968 168.104,41.234C162.836,45.975 158.958,47.052 163.843,56.063C164.593,57.445 164.473,59.309 164.712,60.956C165.582,66.939 168.009,68.139 172.968,64.766C176.763,62.185 180.359,59.31 184.535,56.015M89.091,66.571C89.497,64.451 89.974,62.341 90.293,60.208C90.851,56.477 89.333,54.526 85.401,54.574C76.763,54.679 68.121,54.606 59.486,54.815C55.223,54.918 53.588,57.176 54.278,61.393C54.786,64.502 55.582,67.575 55.901,70.701C56.245,74.086 57.597,75.175 61.127,74.816C63.184,74.606 66.086,75.438 67.427,76.892C70.666,80.402 73.866,79.989 76.363,77.02C79.586,73.189 83.239,71.617 88.379,72.637C88.62,70.637 88.813,69.03 89.091,66.571M34.457,34.533C30.736,34.434 29.439,36.343 29.939,39.865C30.403,43.141 30.585,46.468 31.261,49.696C31.525,50.958 32.546,52.587 33.648,53.062C39.832,55.728 50.747,51.558 53.245,45.346C54.441,42.373 54.773,38.924 54.851,35.675C54.901,33.567 53.786,31.431 53.194,29.308C51.245,29.943 49.313,30.633 47.345,31.201C43.324,32.363 39.283,33.461 34.457,34.533M111.635,82.874C108.437,81.99 105.216,80.317 102.046,80.408C97.278,80.545 92.563,82.029 87.794,82.728C84.27,83.245 81.791,84.286 82.05,88.6C82.282,92.487 83.481,94.821 87.865,95.066C89.635,95.164 91.337,96.664 93.051,97.563C95.08,98.626 96.979,100.259 99.13,100.705C103.672,101.647 105.07,99.985 104.124,95.506C103.408,92.116 103.192,89.422 107.932,88.619C109.496,88.355 110.596,85.353 111.635,82.874M32.803,77.153C35.061,76.681 37.31,76.161 39.579,75.749C42.419,75.232 47.554,66.86 46.345,64.279C45.883,63.293 44.558,62.207 43.517,62.083C38.759,61.513 33.963,61.007 29.178,60.979C23.922,60.947 18.953,65.624 18.239,70.805C18.143,71.504 18.419,72.79 18.835,72.941C23.192,74.518 27.612,75.919 32.803,77.153M37.115,83.191C34.407,85.172 33.707,96.126 36.209,97.83C36.58,98.083 37.141,98.104 37.621,98.145C41.414,98.464 45.219,99.047 48.998,98.914C50.359,98.866 52.436,97.32 52.832,96.04C53.768,93.004 55.09,90.888 58.077,89.383C59.463,88.685 59.957,86.215 60.856,84.549C59.182,83.739 57.509,82.245 55.834,82.243C49.873,82.236 43.912,82.736 37.115,83.191M136.555,89.03C137.934,89.28 139.314,89.53 140.876,89.812C140.446,91.028 140.063,91.643 140.039,92.271C139.977,93.927 140.071,95.589 140.102,97.248C141.519,96.121 143.269,95.228 144.269,93.808C145.503,92.053 146.115,89.86 146.996,87.856C147.43,87.906 147.864,87.956 148.298,88.006C148.665,89.517 148.895,91.08 149.447,92.52C149.813,93.473 150.694,95.024 151.253,94.985C157.323,94.565 155.731,89.002 157.261,85.554C158.325,83.157 158.698,80.609 155.35,79.445C154.897,79.288 154.354,79.269 153.873,79.335C146.813,80.304 139.731,81.158 132.719,82.401C131.263,82.659 130.067,84.378 128.751,85.424C130.064,86.536 131.277,87.814 132.731,88.691C133.493,89.151 134.679,88.907 136.555,89.03M216.174,64.717C220.891,64.592 225.607,64.468 230.323,64.344C222.666,57.058 216.447,57.316 211.419,63.777C212.751,64.046 214.05,64.308 216.174,64.717M18.376,89.074C19.415,90.598 20.453,92.123 21.491,93.648C21.947,93.492 22.403,93.336 22.859,93.18C22.859,90.42 23.339,87.537 22.676,84.946C22.291,83.443 20.176,82.242 18.618,81.255C18.063,80.903 16.06,81.618 16.067,81.788C16.131,83.298 16.413,84.819 16.813,86.287C17.024,87.064 17.598,87.741 18.376,89.074z"/><path fill="#fafafa" d="M65.743,32.218C65.309,28.475 64.905,25.174 64.523,21.869C64.025,17.559 66.085,15.2 70.264,14.754C72.566,14.508 74.909,14.692 77.23,14.589C84.515,14.267 91.817,14.112 99.077,13.478C104.225,13.029 105.08,13.49 105.042,18.479C104.986,25.798 104.893,33.12 105.005,40.437C105.073,44.88 103.428,46.798 98.733,46.407C95.143,46.108 91.448,46.45 87.858,46.934C83.897,47.468 80.587,47.72 78.161,43.409C75.575,38.813 71.883,41.695 67.754,43.525C67.05,39.645 66.416,36.151 65.743,32.218z"/><path fill="#f9f9f9" d="M205.03,100.362C203.456,101.75 201.943,103.508 200.426,103.512C192.793,103.533 185.161,102.944 177.526,102.89C174.318,102.868 172.794,101.471 172.711,98.575C172.501,91.276 172.311,83.964 172.582,76.674C172.629,75.389 174.794,73.337 176.233,73.086C185.855,71.412 195.545,70.129 205.088,68.738C205.088,78.95 205.088,89.437 205.03,100.362z"/><path fill="#f9f9f9" d="M120.108,51.179C122.605,50.626 125.076,50.656 126.69,49.494C132.524,45.298 139.234,45.461 145.824,45.092C150.845,44.811 153.032,47.72 151.918,52.673C150.646,58.324 149.535,64.026 147.895,69.569C147.487,70.947 145.44,72.477 143.919,72.776C137.457,74.045 130.891,74.767 124.399,75.9C118.157,76.989 117.024,75.887 115.714,69.883C114.951,66.383 112.974,62.907 110.76,60.022C107.501,55.775 107.696,53.872 112.816,52.393C115.035,51.752 117.394,51.594 120.108,51.179z"/><path fill="#f8f8f8" d="M184.289,56.29C180.359,59.31 176.763,62.185 172.968,64.766C168.009,68.139 165.582,66.939 164.712,60.956C164.473,59.309 164.593,57.445 163.843,56.063C158.958,47.052 162.836,45.975 168.104,41.234C170.621,38.968 172.488,35.901 174.35,33.005C177.27,28.465 182.774,26.1 187.598,27.98C188.616,28.377 189.775,30.162 189.727,31.258C189.46,37.399 189.131,43.57 188.196,49.633C187.848,51.895 185.805,53.895 184.289,56.29z"/><path fill="#f9f9f9" d="M89.048,66.997C88.813,69.03 88.62,70.637 88.379,72.637C83.239,71.617 79.586,73.189 76.363,77.02C73.866,79.989 70.666,80.402 67.427,76.892C66.086,75.438 63.184,74.606 61.127,74.816C57.597,75.175 56.245,74.086 55.901,70.701C55.582,67.575 54.786,64.502 54.278,61.393C53.588,57.176 55.223,54.918 59.486,54.815C68.121,54.606 76.763,54.679 85.401,54.574C89.333,54.526 90.851,56.477 90.293,60.208C89.974,62.341 89.497,64.451 89.048,66.997z"/><path fill="#f8f8f8" d="M34.853,34.559C39.283,33.461 43.324,32.363 47.345,31.201C49.313,30.633 51.245,29.943 53.194,29.308C53.786,31.431 54.901,33.567 54.851,35.675C54.773,38.924 54.441,42.373 53.245,45.346C50.747,51.558 39.832,55.728 33.648,53.062C32.546,52.587 31.525,50.958 31.261,49.696C30.585,46.468 30.403,43.141 29.939,39.865C29.439,36.343 30.736,34.434 34.853,34.559z"/><path fill="#f5f5f5" d="M111.771,83.238C110.596,85.353 109.496,88.355 107.932,88.619C103.192,89.422 103.408,92.116 104.124,95.506C105.07,99.985 103.672,101.647 99.13,100.705C96.979,100.259 95.08,98.626 93.051,97.563C91.337,96.664 89.635,95.164 87.865,95.066C83.481,94.821 82.282,92.487 82.05,88.6C81.791,84.286 84.27,83.245 87.794,82.728C92.563,82.029 97.278,80.545 102.046,80.408C105.216,80.317 108.437,81.99 111.771,83.238z"/><path fill="#f6f6f6" d="M32.409,77.261C27.612,75.919 23.192,74.518 18.835,72.941C18.419,72.79 18.143,71.504 18.239,70.805C18.953,65.624 23.922,60.947 29.178,60.979C33.963,61.007 38.759,61.513 43.517,62.083C44.558,62.207 45.883,63.293 46.345,64.279C47.554,66.86 42.419,75.232 39.579,75.749C37.31,76.161 35.061,76.681 32.409,77.261z"/><path fill="#f0f0f0" d="M37.533,83.117C43.912,82.736 49.873,82.236 55.834,82.243C57.509,82.245 59.182,83.739 60.856,84.549C59.957,86.215 59.463,88.685 58.077,89.383C55.09,90.888 53.768,93.004 52.832,96.04C52.436,97.32 50.359,98.866 48.998,98.914C45.219,99.047 41.414,98.464 37.621,98.145C37.141,98.104 36.58,98.083 36.209,97.83C33.707,96.126 34.407,85.172 37.533,83.117M48.031,90.874C47.292,89.827 46.575,87.924 45.809,87.904C44.029,87.858 42.003,88.39 40.542,89.378C39.96,89.771 40.134,92.797 40.805,93.19C41.953,93.863 43.801,93.617 45.279,93.343C46.132,93.185 46.835,92.218 48.031,90.874z"/><path fill="#f1f1f1" d="M136.114,89.005C134.679,88.907 133.493,89.151 132.731,88.691C131.277,87.814 130.064,86.536 128.751,85.424C130.067,84.378 131.263,82.659 132.719,82.401C139.731,81.158 146.813,80.304 153.873,79.335C154.354,79.269 154.897,79.288 155.35,79.445C158.698,80.609 158.325,83.157 157.261,85.554C155.731,89.002 157.323,94.565 151.253,94.985C150.694,95.024 149.813,93.473 149.447,92.52C148.895,91.08 148.665,89.517 148.298,88.006C147.864,87.956 147.43,87.906 146.996,87.856C146.115,89.86 145.503,92.053 144.269,93.808C143.269,95.228 141.519,96.121 140.102,97.248C140.071,95.589 139.977,93.927 140.039,92.271C140.063,91.643 140.446,91.028 140.876,89.812C139.314,89.53 137.934,89.28 136.114,89.005z"/><path fill="#ededed" d="M215.762,64.644C214.05,64.308 212.751,64.046 211.419,63.777C216.447,57.316 222.666,57.058 230.323,64.344C225.607,64.468 220.891,64.592 215.762,64.644z"/><path fill="#e1e1e1" d="M18.192,88.769C17.598,87.741 17.024,87.064 16.813,86.287C16.413,84.819 16.131,83.298 16.067,81.788C16.06,81.618 18.063,80.903 18.618,81.255C20.176,82.242 22.291,83.443 22.676,84.946C23.339,87.537 22.859,90.42 22.859,93.18C22.403,93.336 21.947,93.492 21.491,93.648C20.453,92.123 19.415,90.598 18.192,88.769z"/><path fill="#0e0e0e" d="M47.819,91.245C46.835,92.218 46.132,93.185 45.279,93.343C43.801,93.617 41.953,93.863 40.805,93.19C40.134,92.797 39.96,89.771 40.542,89.378C42.003,88.39 44.029,87.858 45.809,87.904C46.575,87.924 47.292,89.827 47.819,91.245z"/></svg>