<svg xmlns="http://www.w3.org/2000/svg" viewBox="0 0 238 125" xml:space="preserve"><path fill="#050606" d="M83.184 111.06c.35-1.055.399-2.427 1.11-3.1 1.717-1.626 3.743-2.925 6.11-4.703.24-.984.013-1.622-.213-2.26-1.774-.124-3.649-.68-5.302-.293-5.992 1.407-10.043-1.215-10.744-7.813 4.5 0 8.949 0 14.085-.048 1.732-.38 2.777-.714 4.725-1.334l-4.965-2.314c-9.644-.402-19.289-1.097-28.929-1.03-2.978.022-5.969 2.06-8.902 3.297-1.6.675-3.094 1.604-4.926 2.067-.815-.746-1.338-1.14-1.987-1.885-3.98-8.833-4.803-9.193-14.271-6.54-.32-5.821-.585-11.646-.985-17.461-.221-3.22 1.5-3.957 4.26-3.918 5.365.075 10.733.022 17.751.022-2.402-2.613-3.763-4.01-5.027-5.487-2.17-2.536-4.674-4.95-.742-8.26.71-.597.566-3.128-.1-4.195-.703-1.125-3.515-1.423-3.641-2.33-.47-3.361-.295-6.827-.188-10.247.039-1.252.56-2.49 1.047-4.493l16.49-2.184-4.19-4.51c3.256-2.44 6.315-4.932 9.6-7.078 1.112-.727 3.345-1.306 4.127-.713 4.781 3.622 8.31.105 12.275-1.59 2.677-1.146 5.516-1.995 8.357-2.659 6.243-1.457 8.024 5.243 12.552 7.14 3.932 1.646 7.455 4.268 11.665 6.759l-1.832 4.745c2.625 1.476 5.35 3.007 7.667 5.036a51 51 0 0 1-2.734 2.537l2.449 1.792c.171 1.585.343 3.17.439 5.523 1.128 1.339 2.33 1.909 3.534 2.479 1.444 3.566 2.143 7.76 4.499 10.558 3.982 4.731 9.013 8.58 13.694 13.392.412.708.733.823 1.054.937 1.048.062 2.096.124 3.69.573 1.596.738 2.925.795 3.645 1.487 5.22 5.017 10.452 10.037 15.363 15.35 1.305 1.412 2.656 4.784 1.974 5.625-1.537 1.896-4.2 3.35-6.65 3.912-2.845.651-5.963.008-8.947.184-9.434.556-17.902-.156-25.617-7.48-6.382-6.057-13.271-4.983-18.97.683-2.251 2.239-5.23 3.748-7.88 5.588.462.15.927.301 1.412.682.19.45.361.672.532.893.152-.4.304-.8.835-1.286 4.189-1.427 7.909-3.424 11.83-3.962 6.215-.852 22.522 9.725 25.184 15.646.194.433.15.973-.197 1.683-.693.772-.972 1.323-1.251 1.874-10.535 5.208-21.737 6.155-33.202 4.974-5.035-.52-10.02-1.513-15.385-2.84-.098-3.541-2.028-3.629-4.178-3.426M63.001 53.595v29.84c1.327-.82 3.173-1.374 4.063-2.614 4.251-5.92 9.963-7.345 16.175-3.795 3.145 1.796 6.359 3.471 10.269 5.597.438-2.412 1.298-4.925 1.271-7.43-.068-6.476.143-13.069-.996-19.392-1.493-8.291-1.595-17.166-7.942-24.02-4.612-4.981-9.528-5.162-14.389-.27-5.865 5.904-7.32 13.456-8.451 22.084M39.186 65.75l-2.972-.423-.151 1.006 11.265 7.599-2.099 8.167c2.785 1.9 5.98 4.803 10.27 1.422-2.176-13.173-5.888-17.297-16.313-17.77m62.757 42c2.383-.615 4.848-1.02 7.13-1.9 2.834-1.092 5.517-2.578 9.418-4.445-12.162-4.514-19.134 4.369-28.094 5.878l.193 1.325c3.502-.239 7.004-.478 11.353-.858m15.67-47.86-.715-3.271-1.235 1.721v23.527l1.931.049c1.68-6.965 1.2-14.091.018-22.026m-14.371 17.495c1.49-9.177.634-18.298.729-27.441l-2.136.035v29.596l.851.018c.143-.465.285-.93.556-2.208m3.415-34.761h2.865c-.196-1.788-.91-3.535-.437-4.853 1.7-4.726-1.575-4.564-5.35-5.657.837 3.99 1.497 7.142 2.922 10.51m32.687 47.233c2.982-.16 5.38-.955 5.188-5.827-2.931 1.216-5.803 1.723-7.69 3.364-2.351 2.046-.272 2.567 2.502 2.463M93.645 99.942l1.65.711-.006-1.666c-.477.14-.954.281-1.644.955m-1.058-1.425s-.11.066 0 0"/><path fill="#080809" d="m201.001 101.177-29.015-.561-.773-2.453c5.303-3.371 10.36-7.288 16.033-9.839 2.201-.99 5.883.849 8.726 1.862 3.437 1.226 6.31 4.46 10.889 3.155-3.84-4.2-6.693-8.83-10.834-11.309-2.622-1.57-7.287-.442-10.808.413-3.254.79-6.205 2.827-10.06 4.687 1.744-13.239.653-25.334-2.143-37.282-.996-4.26-5.363-5.592-8.443-2.483-1.55 1.565-2.801 3.776-3.356 5.91-1.398 5.376-2.17 10.912-3.513 16.304-.55 2.209-1.629 4.756-4.87 2.665-1.683-1.085-3.37-2.164-5.425-3.302-1.626-.776-2.883-1.495-3.899-2.595 3.287-3.065 3.105-4.038-.787-5.875 0 0-.136-.075-.287-.356a9.7 9.7 0 0 0-1.248-1.188c5.488-1.274 8.706-3.635 10.405-10.066 1.812-6.856 9.817-9.347 15.903-12.404 3.675-1.847 12.859 5.154 13.58 9.498.652 3.92 1.726 7.828 1.842 11.764.201 6.87 4.381 11.241 8.725 15.646.221.224.566.505.83.482 7.875-.661 9.562 5.625 12.343 10.814 2.127 3.968 5.7 6.003 10.008 7.265 6.56 1.922 12.99 4.28 19.48 7.292-3.896 2.503-8.236 1.526-12.375 1.678-4.322.158-8.649.21-13.872.332-2.95-.003-5.003-.029-7.056-.054"/><path fill="#0b0b0b" d="M43.372 91.996c.523.394 1.046.787 1.602 1.447-.261 2.063-4.736 4.348 1.153 5.373.512-.108.803-.389.803-.389 2.768-.929 5.68-1.567 8.268-2.856 3.782-1.883 7.06-2.178 10.473.809 1.425 1.246 3.6 1.591 5.239 2.647 1.464.943 3.82 2.42 3.714 3.447-.17 1.648-2.049 3.12-3.843 4.778-.771.959-.904 1.805-1.037 2.651-3.705 1.94-6.498-.596-9.682-1.77-6.01-2.216-12.9-1.84-17.885-7.212-1.366-1.473-4.95-1.194-7.516-1.19-6.455.007-12.909.418-19.363.436-1.67.004-3.341-.846-5.2-2.46 1.616-.818 3.365-1.449 4.823-2.488 3.838-2.736 7.55-5.648 12.045-8.378 5.33 1.966 9.916 3.852 14.544 5.623.49.188 1.235-.295 1.862-.468"/><path fill="#161616" d="M137.2 110.477c5.144.97 9.385 1.421 13.505-2.67 4.517-4.484 11.752-3.16 16.647 1.993.67.705 2.063 1.112 3.073 1.034 4.377-.34 8.729-1.205 13.104-1.314 4.567-.114 9.15.42 13.878 1.082-1.901 1.393-3.969 3.253-6.008 3.223-18.17-.27-36.335-.875-54.976-1.428-.195-.597.084-1.148.777-1.92"/><path fill="#eeeeef" d="M43.246 91.644c-.501.525-1.247 1.008-1.736.82-4.628-1.771-9.213-3.657-14.174-5.682-.363-.173-.426-.47-.031-.632.84-.515 1.288-.867 1.734-1.218 0 0 .02.106-.022.139 9.426-2.62 10.248-2.26 14.23 6.573"/><path fill="#1f1e1e" d="m210.296 113.665-7.592-2.43.276-1.762c2.823.192 5.673.224 8.449.694.649.11 1.047 1.706 1.56 2.618-.769.335-1.537.67-2.693.88"/><path fill="#3f3e3e" d="M37.53 112.817c-2.19-.417-3.96-.758-5.73-1.099l.032-.634h14.006l.022 1.808c-2.637 0-5.274 0-8.33-.075"/><path fill="#f8f8f8" d="M142.534 60.853c4.081 1.458 4.263 2.43.863 5.186-.587-1.555-.819-3.18-.863-5.186"/><path fill="#090909" d="M83.116 110.975c2.218-.119 4.148-.031 3.891 3.332-1.57.015-3.142-.34-4.753-1.271.168-1.083.375-1.59.583-2.098 0 0 .211-.047.28.037"/><path fill="#eaeaea" d="M201.123 101.409c1.93-.207 3.983-.181 6.475-.092-.129 4.394-3.276.507-5.199 1.7-.635-.47-.895-.923-1.276-1.608"/><path fill="#f3f3f3" d="M87.998 89.644c1.385.2 2.779.85 4.957 1.865-1.948.62-2.993.953-4.302 1.263-.392-.909-.52-1.794-.655-3.128"/><path fill="#0f0f0f" d="M117.903 37.622c-.944-.21-1.76-.806-2.576-1.404.776-.68 1.552-1.359 2.653-2.137.234.985.142 2.069-.077 3.54"/><path fill="#f3f3f3" d="M82.455 110.956c.174.49-.033.997-.378 1.776-1.288.095-2.44-.08-3.59-.255l.025-1.014c1.187-.163 2.375-.327 3.943-.507"/><path fill="#eaeaea" d="M199.383 108.992c.417-1.228 1.219-2.47 2.318-3.851-.446 1.186-1.19 2.512-2.318 3.851"/><path fill="#0f0f0f" d="M121.869 45.627c-1.323-.185-2.526-.755-3.716-1.7 1.288.188 2.561.752 3.715 1.7"/><path fill="#f3f3f3" d="M74.635 110.853c-.912-.265-1.499-.607-2.086-.95l1.505-.814c.302.562.604 1.124.581 1.764"/><path fill="#f8f8f8" d="M140.923 59.118c.631.114.997.416 1.465.939-.51-.103-1.12-.427-1.465-.94"/><path fill="#090909" d="M90.134 101.334c.283.3.51.939.464 1.624-.355-.397-.438-.842-.464-1.624"/><path fill="#f3f3f3" d="M70.073 109.719c-.196-.662-.063-1.508.395-2.345.196.727.065 1.443-.395 2.345M46.94 98.123c-.01.304-.3.585-.5.555-.108-.575-.016-1.12.077-1.664.144.268.288.537.423 1.11"/><path fill="#050606" d="M28.757 84.667c-.164.616-.611.968-1.412 1.336.14-.522.635-1.062 1.412-1.336"/><path fill="#eaeaea" d="M202.019 103.787c-.13-.03-.254-.315-.198-.682.187.089.195.258.198.682"/><path fill="#f8f8f8" d="M140.9 70.708c-.225.077-.546-.038-.82-.428.324-.173.55-.002.82.428m1.55-2.176c-.033-.055.033.056 0 0"/><path fill="#f1f1f1" d="M39.565 65.904c10.046.32 13.758 4.444 15.935 17.617-4.292 3.381-7.486.477-10.27-1.422l2.098-8.167-11.265-7.599.151-1.006c.99.141 1.981.282 3.35.577"/><path fill="#eaebeb" d="M101.52 107.822c-3.926.31-7.428.548-10.93.787l-.193-1.325c8.96-1.51 15.932-10.392 28.094-5.878-3.9 1.867-6.584 3.353-9.418 4.446-2.282.88-4.747 1.284-7.553 1.97"/><path fill="#dddede" d="M117.79 60.282c1.004 7.544 1.483 14.67-.196 21.635l-1.931-.049V58.341l1.235-1.721c.238 1.09.476 2.18.892 3.662"/><path fill="#e1e1e1" d="M103.176 77.793c-.206.871-.348 1.336-.49 1.801l-.852-.018V49.98l2.136-.035c-.095 9.143.761 18.264-.794 27.848"/><path fill="#bfbebd" d="M106.274 42.516c-1.043-3.26-1.703-6.41-2.54-10.4 3.775 1.092 7.05.93 5.35 5.656-.474 1.318.241 3.065.437 4.853-.973 0-1.919 0-3.247-.109"/><path fill="#e2e2e3" d="M138.938 89.889c-2.369.073-4.448-.448-2.096-2.494 1.886-1.641 4.758-2.148 7.69-3.364.191 4.872-2.207 5.667-5.594 5.858"/><path fill="#090909" d="M93.751 99.675c.584-.407 1.061-.547 1.538-.688l.007 1.666c-.55-.237-1.1-.474-1.545-.978m5.265-2.172c.144-.29.308-.351.73-.36.106.452-.046.853-.198 1.253a3.6 3.6 0 0 1-.532-.893m-6.484 1.047c-.055.033.055-.033 0 0"/></svg>