<svg xmlns="http://www.w3.org/2000/svg" viewBox="0 0 244 201" xml:space="preserve"><path fill="#090a09" d="M67.841,192.712C62.572,192.843 57.303,192.973 52.014,193.892C51.996,195.117 51.998,195.554 52,195.991C45.558,197.227 39.099,198.098 32.237,196.377C31.954,195.555 31.977,195.277 32,194.999C32.637,194.233 33.275,193.466 34.395,192.332C39.334,193.55 43.636,193.838 47.511,189.82C44.775,189.161 42.039,189.012 39.328,189.213C37.515,189.348 35.739,189.982 33.947,190.392C32.069,190.348 30.18,190.154 28.317,190.296C25.964,190.477 23.637,190.98 21.288,191.256C18.293,191.608 15.287,191.871 12.285,192.173C12.204,191.65 12.122,191.127 12.04,190.605C14.734,189.067 17.428,187.529 20.865,185.971C22.377,185.229 23.146,184.507 23.915,183.786C22.827,183.655 21.739,183.525 20.651,183.395C20.651,183.395 20.646,183.346 20.755,182.932C20.91,181.671 20.955,180.823 21,179.976C23.221,180.388 25.443,180.8 28.119,181.297C27.603,179.413 27.247,178.114 26.921,176.925C28.704,176.925 30.185,176.925 32.052,176.478C33.255,175.405 34.822,174.288 34.781,174.225C33.474,172.231 35.17,167.322 29.972,169.003C29.439,166.382 28.905,163.762 28.371,161.141C29.162,160.852 29.953,160.563 30.743,160.274C32.509,163.541 34.275,166.807 36.062,170.768C36.482,172.047 36.881,172.631 37.279,173.215C37.498,172.422 37.718,171.629 37.937,170.835C38.368,169.677 38.799,168.519 39.23,167.361C39.532,167.371 39.834,167.381 40.137,167.391C40.55,169.169 40.963,170.948 41.376,172.725C44.809,171.752 47.644,155.082 46.474,144.321C43.131,143.351 39.99,142.44 35.924,141.26C37.73,138.93 38.707,137.671 40.247,136.265C40.745,137.584 40.68,139.049 40.614,140.515C40.968,140.766 41.322,141.017 41.676,141.269C42.368,140.074 43.493,138.931 43.641,137.672C43.825,136.103 43.203,134.439 42.93,132.816C43.535,132.002 44.14,131.189 45.317,130.197C46.558,130.644 47.228,131.27 47.668,131.941C47.183,132.131 46.929,132.277 46.675,132.423C47.129,132.303 47.582,132.183 48.402,132.044C49.998,131.321 51.595,130.9 52.389,129.864C55.742,125.491 58.923,120.981 62.035,116.431C64.808,112.377 64.374,111.628 59.183,110.84C60.31,109.015 61.436,107.19 62.611,105.288C60.163,101.426 61.658,97.961 66.644,97.626C66.738,99.744 66.459,101.476 66.15,103.395C70.613,104.879 71.252,101.848 72.051,98.779C72.061,98.197 72.03,97.807 71.996,97.448C71.994,97.479 72.015,97.538 72.297,97.303C75.27,92.449 77.961,87.829 80.653,83.21C80.132,82.911 79.611,82.611 79.09,82.312C77.279,84.956 75.468,87.601 73.173,90.174C72.365,90.066 72.041,90.029 71.717,89.991C72.191,88.857 72.666,87.723 73.446,85.971C73.834,84.244 73.917,83.134 74,82.024C75.04,80.259 76.08,78.494 77.474,76.374C79.26,76.882 80.693,77.745 82.789,79.009C81.876,75.009 81.1,71.614 80.324,68.218C82.369,69.814 84.415,71.41 86.882,73.334C86,76.38 87.688,78.19 90.989,80.24C94.674,82.529 97.331,86.473 100.599,89.866C101.446,88.665 102.196,87.6 103.46,86.882C104.234,87.716 104.493,88.205 104.67,88.944C102.261,91.518 103.835,93.177 105.208,94.94C101.936,97.299 103.236,98.375 106.082,99.265C106.404,99.722 106.654,99.91 107.008,100.338C107.753,100.657 108.443,100.67 109.428,100.747C110.19,101.43 110.657,102.05 111.121,103.019C111.742,103.916 112.366,104.464 113.048,105.146C113.191,105.327 113.276,105.375 113.361,105.422C113.245,105.278 113.128,105.135 112.898,104.73C112.521,103.967 112.259,103.464 112.36,102.844C113.486,102.722 114.249,102.715 115.329,102.885C117.094,104.186 118.542,105.313 119.981,106.529C119.972,106.619 119.943,106.798 119.986,107.128C120.969,108.503 121.907,109.547 122.576,110.737C122.536,111.341 122.766,111.799 123.068,112.566C126.1,117.514 129.466,121.957 131.831,126.881C132.877,129.061 132.713,131.163 136.001,130.99C137.052,130.935 138.502,132.302 139.213,133.384C140.346,135.108 141.031,137.13 141.871,139.041C142.507,140.489 143.089,141.96 143.328,143.263C139.677,142.035 136.392,140.965 133.05,139.607C132.537,138.758 132.081,138.198 131.626,137.638C131.238,138.021 130.851,138.404 130.464,138.787C131.287,139.206 132.11,139.625 133.154,140.289C136.943,142.517 140.511,144.501 144.314,146.616C144.127,145.269 143.993,144.306 144.223,143.064C147.816,144.77 149.479,147.594 149.071,151.75C147.753,152.288 146.587,152.519 144.479,152.937C147.135,155.852 149.444,158.386 151.855,161.321C152.819,165.922 153.683,170.121 154.491,174.045C155.003,172.701 155.599,171.141 156.514,169.739C158.105,171.477 159.377,173.055 160.649,174.634C166.371,171.74 166.34,171.785 161.02,168.115C160.072,167.461 159.497,166.266 158.977,165.107C161.9,160.652 157.703,161.577 155.943,160.343C155.253,159.701 154.626,159.344 153.99,158.76C153.654,158.352 153.327,158.173 152.595,157.931C151.591,156.535 150.993,155.201 150.653,154.147C152.016,154.896 153.12,155.364 154.564,155.976C154.235,150.91 154.511,146.526 150.003,143.818C150.004,143.098 150.004,142.687 150.361,142.1C150.404,138.711 150.088,135.498 149.673,131.267C149.31,131.103 147.598,130.737 146.513,129.709C145.617,128.86 145.462,127.228 145.129,126.169C145.678,126.416 146.078,126.438 146.479,126.46C146.322,125.974 146.164,125.488 146.079,124.594C145.768,121.79 145.386,119.394 145.273,116.758C146.69,113.8 145.379,112.928 142.926,112.595C142.947,111.505 142.912,110.776 143.226,110.005C144.387,108.975 145.199,107.987 146.309,107.156C147.325,108.373 148.045,109.433 147.998,109.364C151.122,109.895 153.329,110.27 155.76,110.684C154.334,106.071 148.917,106.722 145.697,103.863C143.853,102.463 142.266,101.289 140.373,99.897C137.966,98.883 135.307,98.354 138.184,95.46C139.611,95.761 140.805,95.88 142.343,95.962C143.399,95.286 144.113,94.649 145.509,93.4C143.31,93.193 142.192,93.088 141.053,92.651C141.02,91.876 141.008,91.433 140.954,90.672C140.277,89.903 139.642,89.453 138.773,88.825C138.358,87.431 138.178,86.214 137.942,84.654C136.259,83.541 134.632,82.771 132.753,82C132.332,82 132.164,82.001 131.618,82.026C130.619,86.038 129.997,90.026 129.215,94.351C128.278,96.68 127.501,98.672 127.27,99.267C123.137,98.814 119.569,98.424 116,97.773C115.998,97.34 115.997,97.167 115.992,96.645C114.992,95.187 113.995,94.079 113,92.622C113.044,91.58 113.087,90.886 113.454,90.139C114.744,89.861 115.709,89.636 116.675,89.412C116.626,89.169 116.577,88.925 116.527,88.682C115.671,88.817 114.814,88.951 113.782,88.644C112.023,81.788 113.311,75.883 117.5,70.246C118.758,74.858 119.451,79.557 120.164,84.253C120.417,85.922 120.718,87.585 120.996,89.625C121.169,91.182 121.343,92.364 121.518,93.546C122.011,93.451 122.505,93.355 122.999,93.26C122.663,91.832 122.326,90.404 122.014,88.508C122.037,79.932 122.037,71.823 122.037,63.537C120.23,63.674 119.115,63.759 118.06,63.53C119.739,62.042 121.357,60.868 123.049,59.642C121.277,58.361 119.64,57.179 118.004,55.562C118.004,52.76 118.004,50.392 118.004,48.039C116.433,48.418 115.225,48.709 114.018,49C113.315,48.065 112.363,47.222 111.977,46.171C111.563,45.048 111.683,43.729 112.253,42.304C115.573,42.025 118.21,41.939 120.848,41.852C120.885,41.273 120.921,40.694 120.958,40.115C118.923,39.296 116.889,38.477 114.855,37.659C116.462,33.025 118.069,28.392 120.157,23.379C121.095,23 121.553,23 122.011,23C124.748,30.224 127.485,37.447 130.415,45.181C126.274,49.5 126.525,57.024 132.586,61.963C135.31,64.183 135.505,65.488 132.543,67.947C135.159,70.118 137.492,72.054 140.138,74.525C140.872,75.719 141.294,76.378 141.715,77.038C142.549,77.673 143.382,78.309 144.606,79.338C145.233,79.752 145.469,79.773 145.704,79.793C145.662,79.366 145.619,78.94 145.577,78.514C145.968,78.004 146.359,77.494 146.75,76.984C148.184,78.298 150.966,79.789 150.821,80.895C150.18,85.78 154.325,87.567 156.848,91.01C158.054,90.486 158.667,89.683 159.28,88.88C160.923,90.248 162.567,91.616 164.612,93.23C165.341,93.992 165.668,94.508 165.998,95.389C166.988,97.482 167.976,99.209 168.998,100.999C170.664,100.137 171.762,99.57 172.86,99.002C173.604,100.257 174.348,101.513 175.092,102.769C178.453,100.22 185.488,103.556 186.197,108.6C184.534,108.966 183.287,108.962 181.997,108.672C181.553,108.082 181.153,107.779 180.753,107.476C180.653,107.735 180.422,108.188 180.473,108.222C180.941,108.536 181.457,108.777 182.095,109.322C184.311,112.75 186.392,115.895 188.7,119.385C189.275,116.599 189.643,114.815 190.012,113.03C190.932,108.941 191.852,104.851 193.175,100.56C194.4,99.915 195.222,99.472 196.283,98.848C196.677,97.851 196.832,97.035 196.987,96.219C196.55,96.274 195.731,96.332 195.732,96.383C195.739,97.241 195.849,98.098 195.591,98.915C194.77,98.414 194.295,97.954 193.82,97.494C194.883,95.044 195.946,92.594 197.69,90.048C198.62,89.953 198.871,89.954 199.121,89.955C199.375,96.044 199.678,102.131 199.868,108.222C200.081,115.056 200.193,121.892 199.98,129.243C198.183,128.564 196.755,127.37 195.066,125.958C194.481,126.689 193.647,127.732 192.673,128.95C196.177,131.073 199.144,132.871 202.057,134.636C201.398,132.632 200.917,131.171 200.436,129.71C201.689,129.446 202.942,129.182 204.616,129.185C206.042,129.974 207.047,130.495 208.052,131.016C207.856,131.986 207.659,132.956 207.731,134.403C208.013,135.289 208.027,135.699 208.041,136.109C208.353,137.42 208.666,138.732 208.287,140.343C205.984,140.192 204.372,139.742 202.759,139.292C202.524,139.72 202.289,140.148 202.055,140.576C204.351,142.372 206.648,144.167 208.945,145.962C209.288,145.743 209.63,145.524 209.973,145.305C209.441,143.778 208.91,142.252 208.378,140.725C210.695,142.538 213.011,144.351 215.523,146.317C214.409,148.231 213.621,149.585 212.726,151.123C210.942,150.264 209.389,149.516 206.683,148.213C207.945,158.392 209.084,167.571 210.222,176.75C210.703,176.741 211.185,176.732 211.666,176.724C212.72,174.387 213.774,172.05 214.829,169.713C215.194,169.718 215.559,169.722 215.924,169.727C216.017,170.895 216.11,172.063 215.903,173.773C215.734,175.072 215.865,175.83 215.996,176.588C216.649,175.685 217.302,174.781 217.955,173.878C219.321,169.046 221.471,164.774 227.162,161.578C227.199,168.295 223.648,173.114 222.61,178.726C223.015,178.996 223.033,178.939 222.57,178.865C222.478,179.213 222.85,179.634 223.477,179.88C223.857,179.543 223.984,179.38 224.11,179.218C224.364,179.223 224.619,179.227 224.665,180.006C224.413,181.146 224.367,181.512 224.321,181.878C224.334,182.908 224.347,183.939 224.751,185.194C225.273,185.659 225.459,185.844 225.701,185.972C229.464,187.872 233.227,189.772 236.99,191.672C237.071,192.036 237.153,192.4 237.234,192.764C233.396,192.878 229.559,192.991 225.275,192.791C224.69,192.271 224.507,192.121 224.279,192.025C221.371,191.224 218.463,190.423 215.555,189.621C215.439,189.884 215.323,190.146 215.207,190.409C216.582,191.428 217.957,192.447 219.332,193.465C219.188,193.995 219.045,194.525 218.901,195.055C215.274,194.295 211.64,193.563 208.022,192.763C206.155,192.35 204.315,191.816 202.459,191.352C202.45,191.349 202.343,191.568 202.36,191.669C202.387,191.828 202.482,191.975 202.294,192.529C200.933,194.614 199.826,196.295 198.719,197.976C199.144,198.276 199.569,198.576 199.994,198.876C201.093,197.876 202.193,196.875 203.293,195.874C205.344,196.912 207.394,197.949 209.444,198.986C209.367,199.331 209.29,199.675 209.213,200.019C207.222,200.434 205.232,200.848 203.121,201.631C201.933,202 200.867,202 199.335,201.729C196.954,200.882 195.037,200.308 193.296,199.786C193.872,198.545 194.282,197.663 194.635,196.902C190.405,196.317 186.612,195.792 182.819,195.267C182.546,195.715 182.273,196.163 182,196.61C183.472,197.296 184.943,197.983 187.031,198.956C183.402,200.332 181.201,201.166 179,202C178.25,202 177.5,202 176.274,201.654C172.201,200.762 168.604,200.216 165.006,199.391C165.003,198.74 165.001,198.368 165.228,197.675C166.155,197.033 166.854,196.714 167.552,196.395C167.567,196.054 167.581,195.714 167.596,195.374C165.424,194.932 163.252,194.491 161.08,194.049C161.327,194.653 161.574,195.256 161.822,195.859C160.852,196.67 159.941,198.071 158.901,198.174C156.302,198.431 153.645,198.099 150.651,198.065C149.861,199.417 149.43,200.708 149,202C147.933,202 146.867,202 145.188,201.741C143.384,201.654 142.192,201.827 141,202C140.556,202 140.111,202 139.314,201.736C138.308,201.648 137.654,201.824 137,202C134.629,202 132.259,202 129.455,201.582C129.701,199.979 130.38,198.794 131.264,197.251C129.402,197.099 127.7,196.961 125.935,196.429C125.811,195.776 125.751,195.517 125.907,194.937C125.223,194.141 124.188,193.108 123.446,193.288C120.437,194.018 117.518,195.12 114.427,196.13C114.844,197.101 115.19,197.906 115.644,198.964C112.24,199.596 109.021,200.194 105.4,200.568C101.426,199.229 97.854,198.113 94.281,196.998C95.154,192.748 90.785,192.125 89.164,189.52C90.18,189.027 91.232,188.518 92.284,188.009C92.243,187.764 92.203,187.52 92.163,187.275C86.901,187.275 81.638,187.275 76.16,187.998C75.928,188.943 75.913,189.166 75.897,189.388C73.083,189.81 70.268,190.231 67.688,191.28C67.895,192.175 67.868,192.444 67.841,192.712M69.992,118.476C69.992,118.476 69.975,118.922 69.892,119.623C69.858,120.087 69.825,120.55 69.478,121.163C69.279,121.293 69.128,121.466 68.38,121.984C66.884,124.656 65.387,127.327 63.19,130.082C61.437,131.199 59.684,132.315 57.931,133.431C58.157,133.956 58.382,134.48 58.608,135.004C60.394,134.766 62.18,134.529 64.92,134.07C65.958,134.178 66.996,134.287 68.034,134.396C68.073,134.942 68.113,135.488 68.152,136.034C66.605,136.156 65.06,136.321 63.511,136.393C60.823,136.519 57.391,135.67 58.512,140.455C53.878,140.76 54.153,140.718 54.809,145.068C54.996,146.307 53.074,147.865 52.032,148.681C51.674,148.261 51.316,147.842 50.958,147.422C50.642,149.282 50.325,151.143 49.933,153.865C49.966,155.877 50,157.889 50.191,160.418C50.454,160.889 50.718,161.36 50.333,162.181C49.62,164.782 48.908,167.383 47.992,170.642C48.01,171.096 48.028,171.55 47.666,172.621C46.457,177.026 46.693,177.477 50.47,176.995C50.645,176.996 50.82,176.997 51.117,177.674C51.767,177.443 52.417,177.212 53.004,177.004C53.004,177.004 52.99,177.069 53.597,176.986C54.085,176.334 54.573,175.683 55.75,174.792C57.653,173.712 59.556,172.631 61.367,171.603C62.088,174.451 62.547,176.263 63.355,178.568C63.698,178.771 64.041,178.974 64.319,179.666C64.319,179.666 63.964,180.006 63.513,180.38C64.062,180.9 64.611,181.42 65.716,182.39C66.393,183.649 67.07,184.908 67.746,186.167C69.149,177.127 70.256,168.525 69.795,160.009C69.412,152.936 73.298,148.181 76.629,143.105C77.81,141.305 81.093,140.125 83.473,140.025C88.786,139.802 98.175,151.328 97.773,156.887C97.035,167.1 96.322,177.315 95.598,187.53C98.28,184.728 100.494,181.517 101.823,177.974C104.793,170.051 105.14,161.719 105.102,153.313C105.09,150.729 106.591,148.139 107.4,145.552C108.24,145.562 109.08,145.572 109.92,145.582C110.627,148.003 111.711,150.386 111.961,152.853C112.494,158.117 112.595,163.425 112.011,168.965C109.956,169.066 107.9,169.168 105.859,169.268C105.353,175 107.528,179.292 110.995,183.824C111.456,184.835 111.918,185.846 112.379,186.857C112.754,186.785 113.129,186.713 113.505,186.641C113.671,185.488 113.837,184.334 114.722,182.953C117.228,179.385 121.46,176.581 119.961,170.382C119.957,169.542 119.952,168.702 119.944,167.015C119.175,164.264 122.194,160.084 116.261,158.977C120.257,156.739 121.72,154.276 117.439,151.526C120.408,148.291 120.621,142.726 117.839,138.708C117.328,138.496 116.817,138.283 116.513,137.321C114.987,135.016 113.461,132.71 112.011,130.519C110.494,131.462 109.274,132.221 108.137,132.23C110.332,126.189 104.912,123.405 102.846,118.712C101.994,120.005 101.479,120.785 100.971,120.707C101.129,114.059 95.742,110.198 93.767,104.553C94.302,103.625 94.838,102.696 95.888,102.307C97.623,104.787 99.359,107.268 101.091,110.342C101.466,110.738 101.841,111.135 102.216,111.531C102.173,111.035 102.129,110.539 101.999,109.323C102.737,107.737 103.476,106.151 104.692,104.755C104.802,104.696 104.912,104.636 105.022,104.577C104.745,104.539 104.469,104.5 103.611,104.2C101.102,102.196 98.593,100.192 95.814,97.543C95.189,96.355 94.564,95.167 94.03,93.253C91.651,89.527 89.273,85.801 86.895,82.076C86.465,82.109 86.035,82.143 85.605,82.177C85.605,83.669 85.074,85.454 85.705,86.596C87.555,89.939 89.868,93.026 92.077,96.854C92.538,98.023 92.999,99.193 93.615,100.758C92.432,100.845 91.517,100.912 90.066,100.475C88.826,98.984 87.586,97.493 86.066,95.666C85.553,97.263 85.115,98.628 83.997,99.993C82.564,99.634 81.131,99.275 78.938,98.725C79.433,100.472 79.778,101.691 79.919,102.188C78.829,103.601 77.92,104.778 76.439,106.385C74.627,110.256 72.816,114.128 70.516,117.997C70.516,117.997 70.029,117.971 69.903,117.699C69.81,117.654 69.717,117.61 69.624,117.566C69.739,117.721 69.853,117.877 69.992,118.476M194.498,117.696C194.533,117.138 194.569,116.58 194.605,116.022C194.445,116.016 194.285,116.01 194.125,116.003C194.059,116.652 193.994,117.301 193.67,118.097C193.798,118.09 193.926,118.083 194.498,117.696M117.106,114.274C117.19,114.322 117.274,114.37 117.358,114.418C117.24,114.277 117.122,114.137 116.932,113.428C116.628,113.106 116.323,112.783 116.019,112.46C115.836,112.67 115.654,112.88 115.471,113.089C115.98,113.394 116.488,113.699 117.106,114.274M168.072,119.749C169.017,120.202 169.961,120.654 171.06,121.816C174.001,123.579 176.943,125.342 180.042,127.694C181.774,129.003 183.507,130.313 185.239,131.623C184.384,128.938 184.449,125.214 179.986,126.178C178.99,124.786 177.995,123.394 177.434,121.691C177.438,121.294 177.442,120.897 177.446,120.5C176.964,120.665 176.483,120.831 175.186,120.997C173.828,120.962 172.47,120.927 170.932,120.241C169.987,119.792 169.041,119.343 167.921,118.237C166.543,117.532 165.166,116.828 163.789,116.123C163.595,116.564 163.401,117.005 163.207,117.446C164.773,117.995 166.339,118.544 168.072,119.749M182.102,121.3C182.192,121.343 182.281,121.387 182.371,121.431C182.262,121.276 182.153,121.121 182.01,120.262C181.114,119.217 180.218,118.172 179.322,117.127C178.951,117.541 178.58,117.955 178.209,118.369C179.463,119.259 180.716,120.149 182.102,121.3M186.412,191.538C189.576,193.788 190.948,192.656 191.391,188.466C193.186,187.845 194.98,187.223 197.015,186.519C195.249,185.169 193.38,184.25 192.239,182.77C189.359,179.034 186.561,178.096 183.14,182.002C182.191,183.087 181.052,184.005 179.574,185.292C179.693,185.742 179.812,186.192 179.931,186.643C180.289,186.253 180.646,185.864 181.707,185.348C183.746,186.566 185.785,187.783 187.222,189.101C186.836,189.727 186.449,190.352 186.412,191.538M170.797,183.511C170.648,183.289 170.45,183.124 170.077,182.288C168.805,179.166 168.302,175.074 162.968,176.236C162.705,176.192 162.441,176.147 162.177,176.103C162.191,176.547 162.205,176.991 162.412,178.145C164.271,181.589 166.131,185.033 167.99,189.129C168.28,189.93 168.571,190.731 168.861,191.532C169.276,190.84 169.691,190.148 170.228,188.787C170.814,188.523 171.399,188.258 172.596,188.311C173.061,189.537 173.525,190.763 173.347,191.999C171.585,193.601 171.585,193.601 174.647,195.924C174.392,194.353 174.201,193.182 174.706,191.993C175.321,191.468 175.935,190.944 176.55,190.419C174.684,188.236 172.818,186.052 170.797,183.511M211.079,183.632C209.027,181.924 206.975,180.217 205.062,178.624C203.942,180.651 203.172,182.044 202.865,182.6C205.202,183.795 207.542,184.992 210.019,186.259C210.24,186.092 210.967,185.54 212.275,184.96C212.522,184.806 212.768,184.651 213.014,184.496C212.483,184.392 211.951,184.288 211.079,183.632M168.999,158.768C169.16,160.063 169.32,161.359 169.481,162.654C170.145,162.589 170.808,162.524 171.472,162.459C171.285,160.96 171.098,159.461 170.84,157.146C170.032,150.73 169.225,144.313 168.418,137.897C167.954,137.952 167.491,138.007 167.028,138.062C167.688,144.7 168.348,151.339 168.999,158.768M130.119,154.998C127.352,157.289 126.923,167.766 130.155,171.787C130.75,169.118 130.705,166.425 130.763,163.733C130.825,160.857 130.985,157.983 131.575,155.031C131.834,154.879 132.094,154.727 132.353,154.576C131.884,154.692 131.415,154.808 130.119,154.998M113.046,122.23C113.32,121.194 114.146,119.556 113.779,119.219C111.281,116.93 108.531,114.914 105.526,112.544C105.591,113.545 105.156,115.43 105.896,116.511C107.63,119.044 109.926,121.191 112.117,124.09C113.062,124.722 114.008,125.354 114.666,126.687C117.271,130.571 119.877,134.454 122.855,138.894C123.903,136.779 124.518,135.539 125.305,133.951C122.145,130.888 119.059,127.897 115.877,124.243C114.945,123.836 114.013,123.429 113.046,122.23M108.722,192.088C104.191,186.663 101.426,187.287 96.864,194.565C99.114,194.682 101.485,194.806 104.384,195.253C106.039,195.328 107.694,195.404 109.349,195.479C109.097,194.582 108.845,193.685 108.722,192.088M177.852,165.975C176.466,165.726 175.079,165.477 173.693,165.228C173.65,165.681 173.607,166.133 173.564,166.586C174.748,166.737 175.932,166.889 177.501,167.832C178.958,168.033 180.415,168.234 182.756,168.556C182.153,161.069 181.578,153.935 180.993,146.085C180.014,144.506 179.035,142.927 178.056,141.348C177.052,142.13 176.048,142.912 175.726,143.163C177.482,144.735 178.75,145.871 179.915,147.809C179.872,153.252 179.898,158.698 179.716,164.137C179.687,165.005 178.728,165.842 177.852,165.975M153.671,188.338C151.25,186.663 148.772,185.064 146.422,183.295C143.753,181.284 141.227,179.836 138.278,182.891C136.219,185.026 133.961,186.97 131.163,189.121C130.439,190.058 129.714,190.996 128.99,191.933C129.288,192.452 129.587,192.972 129.885,193.491C131.937,192.622 133.988,191.753 136.802,190.984C140.628,192.429 144.282,192.88 147.987,190.303C149.298,189.391 151.308,189.484 153.08,189.677C153.523,189.93 153.965,190.182 154.408,190.435C154.242,189.944 154.076,189.453 153.671,188.338M195.179,134.994C194.221,134.42 193.214,133.914 192.313,133.26C188.771,130.687 187.629,131.025 186.229,134.088C190.941,135.976 195.669,137.87 200.398,139.765C200.58,139.295 200.762,138.825 200.944,138.356C199.242,137.272 197.54,136.188 195.179,134.994M133.969,164.399C132.442,171.706 132.442,171.706 135.511,173.351C135.511,168.759 135.511,164.2 135.511,159.641C135.128,159.621 134.746,159.601 134.363,159.582C134.234,160.902 134.106,162.223 133.969,164.399M199.003,169.065C199.003,166.581 199.003,164.097 199.003,161.613C198.512,161.635 198.022,161.656 197.532,161.677C196.722,165.482 193.915,169.299 198.233,174.315C198.628,172.046 198.815,170.968 199.003,169.065M121.121,53.662C122.868,53.831 125.846,50.228 125.313,48.459C124.147,47.81 122.942,47.139 121.016,46.067C121.016,48.755 121.016,50.821 121.121,53.662M60.16,186.746C56.671,183.315 55.405,183.501 51.716,188.613C54.873,188.206 57.474,187.872 60.16,186.746M30.494,181.976C30.084,182.735 29.674,183.493 29.264,184.252C29.993,184.426 30.848,184.933 31.428,184.714C33.301,184.006 35.072,183.032 36.882,182.16C36.711,181.56 36.539,180.96 36.368,180.36C34.642,180.809 32.917,181.258 30.494,181.976M73,183.257C73.207,184.319 73.414,185.38 73.621,186.442C73.973,186.388 74.324,186.334 74.675,186.28C74.675,182.88 74.675,179.481 74.675,176.081C74.323,176.049 73.971,176.017 73.618,175.985C73.412,178.13 73.206,180.276 73,183.257M190.21,123.463C191.099,123.642 191.988,123.82 192.91,124.006C191.858,120.558 190.356,119.765 185.492,120.051C186.906,121.093 188.298,122.117 190.21,123.463M129.499,75.769C130.775,76.657 132.051,77.544 133.327,78.432C133.165,76.436 132.587,75.092 131.723,73.966C131.602,73.808 130.08,74.726 129.499,75.769M193.204,106.122C193.354,107.823 193.504,109.524 193.654,111.225C194.23,111.108 194.806,110.99 195.382,110.872C194.812,109.108 194.242,107.344 193.204,106.122M191.731,166.418C192.301,164.011 192.872,161.604 193.442,159.197C193.044,159.117 192.646,159.038 192.248,158.959C191.907,161.272 191.566,163.585 191.731,166.418M121.023,183.274C120.271,184.469 119.52,185.665 118.768,186.86C119.347,187.109 119.925,187.358 120.503,187.607C120.849,186.314 121.194,185.02 121.023,183.274M155.704,179.083C155.414,178.152 155.124,177.221 154.833,176.29C154.268,176.687 153.702,177.084 153.137,177.48C153.824,178.192 154.511,178.904 155.704,179.083M45.378,179.766C45.921,180.444 46.464,181.121 47.008,181.799C47.528,181.271 48.049,180.744 48.57,180.216C47.676,179.908 46.783,179.599 45.378,179.766M192.531,152.785C192.417,153.988 192.304,155.19 192.19,156.393C192.73,156.371 193.27,156.349 193.81,156.327C193.591,155.192 193.373,154.057 192.531,152.785M55.237,178.948C55.761,179.892 56.286,180.836 56.81,181.78C57.4,181.28 57.99,180.779 58.58,180.278C57.607,179.675 56.634,179.072 55.237,178.948M174.573,151.107C174.573,149.893 174.573,148.678 174.573,147.464C174.099,147.541 173.625,147.618 173.151,147.695C173.445,148.745 173.738,149.795 174.573,151.107M65.641,106.028C65.727,106.885 65.813,107.742 65.899,108.599C66.359,108.336 66.82,108.072 67.28,107.808C66.754,107.024 66.227,106.24 65.641,106.028M157.99,111.367C158.489,112.528 158.988,113.689 159.487,114.85C159.809,114.65 160.13,114.45 160.451,114.249C159.814,113.324 159.177,112.399 157.99,111.367M119.391,115.765C119.873,116.445 120.355,117.124 120.837,117.804C121.179,117.496 121.521,117.187 121.863,116.879C121.179,116.371 120.496,115.862 119.391,115.765M187.214,140.022C187.683,140.008 188.153,139.994 188.623,139.98C188.288,139.299 187.952,138.619 187.617,137.938C187.433,138.443 187.249,138.948 187.214,140.022M58.597,174.499C58.427,175.355 58.257,176.212 58.087,177.069C58.399,177.134 58.712,177.199 59.025,177.264C59.075,176.312 59.124,175.36 58.597,174.499M180.557,112.296C180.273,111.392 179.989,110.488 179.704,109.584C179.182,110.168 178.659,110.751 178.136,111.334C178.808,111.778 179.481,112.221 180.557,112.296M123.15,124.288C123.927,124.967 124.704,125.647 125.481,126.326C125.687,126.071 125.894,125.817 126.1,125.562C125.226,124.986 124.351,124.41 123.15,124.288M150.89,89.835C150.765,89.362 150.639,88.89 150.514,88.418C150.151,88.602 149.788,88.786 149.425,88.97C149.734,89.275 150.043,89.581 150.89,89.835M162.767,133.943C162.347,133.928 161.928,133.913 161.509,133.898C161.989,134.373 162.47,134.848 162.95,135.323C163.045,134.943 163.14,134.564 162.767,133.943M110.08,107.727C109.611,107.924 109.142,108.122 108.673,108.319C109.123,108.664 109.573,109.008 110.024,109.353C110.167,108.932 110.311,108.511 110.08,107.727M172.368,112.448C172.061,112.835 171.753,113.223 171.445,113.61C171.821,113.808 172.196,114.006 172.572,114.204C172.632,113.75 172.692,113.296 172.368,112.448M198.878,188.176C198.483,188.402 198.058,188.593 197.718,188.884C197.651,188.941 197.911,189.381 198.02,189.645C198.317,189.318 198.613,188.991 198.878,188.176M170.399,167.198C170.789,167.202 171.178,167.207 171.568,167.211C171.569,167.049 171.582,166.747 171.571,166.746C171.183,166.716 170.793,166.714 170.399,167.198M160.063,186.516C160.364,186.773 160.665,187.03 160.966,187.288C161.082,186.868 161.198,186.449 161.314,186.029C160.921,186.029 160.528,186.029 160.063,186.516M164.707,108.574C164.992,108.301 165.281,108.031 165.549,107.742C165.556,107.734 165.339,107.519 165.226,107.4C164.94,107.674 164.654,107.947 164.707,108.574M98.433,92.707C98.704,92.991 98.973,93.278 99.261,93.545C99.268,93.551 99.482,93.335 99.6,93.223C99.328,92.938 99.057,92.654 98.433,92.707M182.084,113.518C182.229,113.763 182.374,114.009 182.519,114.254C182.651,114.002 182.942,113.69 182.875,113.511C182.797,113.302 182.408,113.209 182.084,113.518M128.715,134.998C128.981,135.161 129.246,135.325 129.512,135.488C129.346,135.223 129.181,134.958 128.715,134.998M78.65,149.371C78.576,149.12 78.502,148.87 78.428,148.619C78.15,148.89 77.872,149.162 77.594,149.434C77.843,149.514 78.092,149.594 78.65,149.371M148.475,83.36C148.528,83.155 148.582,82.949 148.635,82.743C148.504,82.876 148.374,83.008 148.475,83.36M52.474,181.371C52.529,181.159 52.583,180.948 52.638,180.736C52.504,180.872 52.369,181.009 52.474,181.371M120.525,122.64C120.471,122.845 120.418,123.051 120.365,123.257C120.495,123.124 120.626,122.992 120.525,122.64M128.246,128.174C128.413,128.119 128.579,128.064 128.746,128.009C128.579,127.956 128.411,127.902 128.246,128.174M190.587,127.517C190.587,127.517 190.478,127.582 190.587,127.517M164.415,113.484C164.415,113.484 164.523,113.42 164.415,113.484M195.483,154.588C195.483,154.588 195.417,154.476 195.483,154.588M197.583,155.516C197.583,155.516 197.477,155.578 197.583,155.516M136.484,199.583C136.484,199.583 136.422,199.478 136.484,199.583M146.483,82.584C146.483,82.584 146.421,82.477 146.483,82.584M174.517,115.405C174.517,115.405 174.589,115.524 174.517,115.405M104.516,107.417C104.516,107.417 104.579,107.523 104.516,107.417M67.517,119.416C67.517,119.416 67.58,119.523 67.517,119.416M39.484,173.584C39.484,173.584 39.421,173.477 39.484,173.584z"/><path fill="#ebebeb" d="M125.999,196.822C127.7,196.961 129.402,197.099 131.264,197.251C130.38,198.794 129.701,199.979 129.011,201.582C121.312,202 113.625,202 105.447,201.729C105.238,201.236 105.52,201.014 105.801,200.792C109.021,200.194 112.24,199.596 115.644,198.964C115.19,197.906 114.844,197.101 114.427,196.13C117.518,195.12 120.437,194.018 123.446,193.288C124.188,193.108 125.223,194.141 125.539,195.055C125.303,195.937 125.651,196.379 125.999,196.822z"/><path fill="#eceded" d="M165.007,199.67C168.604,200.216 172.201,200.762 175.899,201.654C168.312,202 160.625,202 152.384,201.645C151.557,200.195 151.284,199.099 151.011,198.004C153.645,198.099 156.302,198.431 158.901,198.174C159.941,198.071 160.852,196.67 161.822,195.859C161.574,195.256 161.327,194.653 161.08,194.049C163.252,194.491 165.424,194.932 167.596,195.374C167.581,195.714 167.567,196.054 167.552,196.395C166.854,196.714 166.155,197.033 164.94,197.745C164.618,198.649 164.813,199.16 165.007,199.67z"/><path fill="#e7e7e7" d="M179.468,202C181.201,201.166 183.402,200.332 187.031,198.956C184.943,197.983 183.472,197.296 182,196.61C182.273,196.163 182.546,195.715 182.819,195.267C186.612,195.792 190.405,196.317 194.635,196.902C194.282,197.663 193.872,198.545 193.296,199.786C195.037,200.308 196.954,200.882 198.935,201.729C192.646,202 186.291,202 179.468,202z"/><path fill="#0b0b0b" d="M105.4,200.568C105.52,201.014 105.238,201.236 104.978,201.729C100.643,202 96.286,202 91.465,202C90.299,201.439 89.598,200.878 88.147,199.716C90.374,198.956 92.169,198.343 94.123,197.364C97.854,198.113 101.426,199.229 105.4,200.568z"/><path fill="#0b0b0b" d="M150.651,198.065C151.284,199.099 151.557,200.195 151.915,201.645C151.25,202 150.5,202 149.375,202C149.43,200.708 149.861,199.417 150.651,198.065z"/><path fill="#0b0b0b" d="M141.4,202C142.192,201.827 143.384,201.654 144.788,201.741C143.933,202 142.867,202 141.4,202z"/><path fill="#0b0b0b" d="M137.333,202C137.654,201.824 138.308,201.648 138.981,201.736C138.556,202 138.111,202 137.333,202z"/><path fill="#090a09" d="M103.561,86.507C100.806,81.143 105.557,79.041 106.957,75.807C108.318,72.666 110.201,70.04 107.079,66.295C106.971,64.882 106.99,64.147 107.01,63.413C108.53,61.935 110.05,60.456 112.193,59.29C113.212,60.401 113.606,61.2 113.605,62.013C112.505,63.438 111.8,64.849 111.177,66.707C111.525,74.427 111.792,81.702 111.987,89.233C111.916,89.667 111.918,89.844 111.716,90.132C111.261,90.441 111.09,90.694 110.696,91.001C109.99,91 109.587,90.999 109.111,90.586C109.03,88.781 109.023,87.387 109.293,85.728C109.714,83.327 109.857,81.193 110,79.059C109.584,78.974 109.168,78.89 108.752,78.806C107.489,81.75 106.226,84.693 104.992,87.917C104.932,88.363 104.843,88.529 104.753,88.694C104.493,88.205 104.234,87.716 103.561,86.507z"/><path fill="#0b0b0b" d="M47.898,131.896C47.228,131.27 46.558,130.644 45.564,130.011C45.962,128.933 46.684,127.861 47.696,126.751C49.48,126.713 50.975,126.713 52.476,126.713C50.55,124.617 49.217,123.165 47.883,121.713C47.82,121.428 47.896,121.187 48.714,120.952C51.715,120.594 54.112,120.274 57.291,119.849C57.183,118.455 57.052,116.755 56.92,115.054C57.005,114.76 57.09,114.465 57.631,114.054C58.77,113.742 59.454,113.547 60.137,113.352C59.607,112.846 59.077,112.34 58.547,111.834C58.523,111.534 58.618,111.28 59.008,110.955C64.374,111.628 64.808,112.377 62.035,116.431C58.923,120.981 55.742,125.491 52.389,129.864C51.595,130.9 49.998,131.321 48.37,132C47.971,131.976 47.898,131.896 47.898,131.896z"/><path fill="#0b0b0b" d="M72.009,98.97C71.252,101.848 70.613,104.879 66.15,103.395C66.459,101.476 66.738,99.744 67.036,97.627C68.422,94.935 69.788,92.629 71.436,90.157C72.041,90.029 72.365,90.066 73.019,90.506C72.905,93.118 72.46,95.328 72.015,97.538C72.015,97.538 71.994,97.479 72.025,97.836C72.041,98.452 72.025,98.711 72.009,98.97z"/><path fill="#dbdcdc" d="M33.916,190.68C35.739,189.982 37.515,189.348 39.328,189.213C42.039,189.012 44.775,189.161 47.511,189.82C43.636,193.838 39.334,193.55 34.467,192.04C33.999,191.733 33.942,191.351 33.916,190.68z"/><path fill="#0b0b0b" d="M114,62C113.606,61.2 113.212,60.401 112.563,59.207C112.453,58.646 112.578,58.466 113.206,58.412C115.152,57.702 116.574,56.853 117.998,56.002C118,56 118.004,55.996 118.004,55.996C119.64,57.179 121.277,58.361 123.049,59.642C121.357,60.868 119.739,62.042 117.772,63.684C116.991,64.196 116.558,64.241 116,63.988C115.25,63.127 114.625,62.564 114,62C114,62 114,62 114,62z"/><path fill="#191919" d="M182.04,108.959C183.287,108.962 184.534,108.966 186.155,108.967C187.422,110.463 188.315,111.962 189.61,113.246C189.643,114.815 189.275,116.599 188.7,119.385C186.392,115.895 184.311,112.75 182.116,109.302C182,109 182.04,108.959 182.04,108.959z"/><path fill="#0b0b0b" d="M80.308,68.221C81.1,71.614 81.876,75.009 82.789,79.009C80.693,77.745 79.26,76.882 77.471,76.009C76.709,75.222 76.303,74.445 76.31,73.259C77.907,71.299 79.092,69.747 80.276,68.196C80.276,68.196 80.292,68.224 80.308,68.221z"/><path fill="#0b0b0b" d="M172.889,98.668C171.762,99.57 170.664,100.137 168.998,100.999C167.976,99.209 166.988,97.482 166.489,95.35C167.615,94.792 168.253,94.637 168.891,94.483C170.234,95.766 171.576,97.05 172.889,98.668z"/><path fill="#0b0b0b" d="M29.908,169.413C35.17,167.322 33.474,172.231 34.781,174.225C34.822,174.288 33.255,175.405 32.135,176.025C31.169,173.953 30.506,171.888 29.908,169.413M31.829,170.253C31.883,170.415 31.936,170.576 31.989,170.738C32.042,170.575 32.094,170.413 31.829,170.253z"/><path fill="#0b0b0b" d="M114.582,37.838C116.889,38.477 118.923,39.296 120.958,40.115C120.921,40.694 120.885,41.273 120.848,41.852C118.21,41.939 115.573,42.025 112.571,42.058C112.908,40.675 113.608,39.346 114.582,37.838z"/><path fill="#0b0b0b" d="M113.916,49.368C115.225,48.709 116.433,48.418 118.004,48.039C118.004,50.392 118.004,52.76 118.004,55.562C118.004,55.996 118,56 117.629,55.993C116.169,54.657 115.079,53.328 113.989,51.999C113.931,51.244 113.872,50.49 113.916,49.368z"/><path fill="#090a09" d="M56.729,115.08C57.052,116.755 57.183,118.455 57.291,119.849C54.112,120.274 51.715,120.594 48.898,120.879C51.165,118.932 53.851,117.019 56.729,115.08z"/><path fill="#0b0b0b" d="M42.651,132.941C43.203,134.439 43.825,136.103 43.641,137.672C43.493,138.931 42.368,140.074 41.676,141.269C41.322,141.017 40.968,140.766 40.614,140.515C40.68,139.049 40.745,137.584 40.535,136.062C40.964,135.026 41.668,134.046 42.651,132.941z"/><path fill="#090a09" d="M47.633,121.837C49.217,123.165 50.55,124.617 52.476,126.713C50.975,126.713 49.48,126.713 47.847,126.461C47.518,126.112 47.325,126.015 47.044,125.23C46.966,124.018 46.978,123.493 46.989,122.969C47.12,122.633 47.251,122.297 47.633,121.837z"/><path fill="#090909" d="M122.095,22.525C121.553,23 121.095,23 120.293,23C119.456,21.109 118.962,19.217 118.271,16.573C118.738,16.077 119.787,14.964 120.849,13.839C126.567,15.858 120.651,19.52 122.095,22.525z"/><path fill="#0b0b0b" d="M203.123,195.641C202.193,196.875 201.093,197.876 199.994,198.876C199.569,198.576 199.144,198.276 198.719,197.976C199.826,196.295 200.933,194.614 202.391,192.894C202.813,193.706 202.883,194.557 203.123,195.641z"/><path fill="#090a09" d="M113.88,52.388C115.079,53.328 116.169,54.657 117.628,55.995C116.574,56.853 115.152,57.702 113.358,58.334C113.247,56.336 113.509,54.557 113.88,52.388z"/><path fill="#090a09" d="M80.047,67.914C79.092,69.747 77.907,71.299 76.325,72.926C75.554,67.92 75.927,67.405 80.047,67.914z"/><path fill="#090909" d="M208.376,130.715C207.047,130.495 206.042,129.974 204.971,129.082C206.218,128.158 207.53,127.603 209.793,126.647C209.253,128.509 208.977,129.461 208.376,130.715z"/><path fill="#242425" d="M20.724,183.708C21.739,183.525 22.827,183.655 23.915,183.786C23.146,184.507 22.377,185.229 21.222,185.936C20.823,185.288 20.81,184.654 20.724,183.708z"/><path fill="#0b0b0b" d="M141.55,76.757C141.294,76.378 140.872,75.719 140.307,74.872C140.869,74.356 141.575,74.027 142.407,73.639C142.049,74.632 141.716,75.554 141.55,76.757z"/><path fill="#090909" d="M122.276,12.399C119.345,13.476 119.311,13.386 121.167,7.64C121.802,9.827 122.1,10.851 122.276,12.399z"/><path fill="#0b0b0b" d="M217.654,173.93C217.302,174.781 216.649,175.685 215.996,176.588C215.865,175.83 215.734,175.072 215.87,174.126C216.542,173.952 216.948,173.967 217.654,173.93z"/><path fill="#0b0b0b" d="M159.14,88.615C158.667,89.683 158.054,90.486 157.163,91.118C157.59,90.082 158.295,89.216 159.14,88.615z"/><path fill="#090909" d="M126.405,16.558C125.107,16.964 123.987,16.97 122.868,16.975C122.974,16.377 123.081,15.78 123.188,15.182C124.32,15.507 125.452,15.832 126.405,16.558z"/><path fill="#0b0b0b" d="M73.638,82.036C73.917,83.134 73.834,84.244 73.546,85.614C73.319,84.599 73.297,83.323 73.638,82.036z"/><path fill="#0b0b0b" d="M20.664,179.821C20.955,180.823 20.91,181.671 20.78,182.934C19.829,182.921 18.964,182.491 17.539,181.784C18.702,180.901 19.516,180.283 20.664,179.821z"/><path fill="#090909" d="M168.688,94.236C168.253,94.637 167.615,94.792 166.486,94.985C165.668,94.508 165.341,93.992 164.981,93.159C166.127,93.224 167.306,93.606 168.688,94.236z"/><path fill="#0b0b0b" d="M193.593,97.751C194.295,97.954 194.77,98.414 195.618,98.933C195.99,98.992 196.044,99.029 196.044,99.029C195.222,99.472 194.4,99.915 193.36,100.191C193.216,99.352 193.291,98.68 193.593,97.751z"/><path fill="#0b0b0b" d="M76.092,189.554C75.913,189.166 75.928,188.943 75.963,188.386C76.658,188.336 77.333,188.619 78.923,189.287C77.441,189.531 76.864,189.626 76.092,189.554z"/><path fill="#090a09" d="M58.315,112.027C59.077,112.34 59.607,112.846 60.137,113.352C59.454,113.547 58.77,113.742 57.726,113.902C57.604,113.317 57.844,112.768 58.315,112.027z"/><path fill="#0b0b0b" d="M37.627,170.873C37.718,171.629 37.498,172.422 37.279,173.215C36.881,172.631 36.482,172.047 36.08,171.133C36.49,170.839 36.903,170.875 37.627,170.873z"/><path fill="#0b0b0b" d="M68.069,192.806C67.868,192.444 67.895,192.175 67.959,191.504C68.444,191.43 68.892,191.759 69.34,192.088C68.992,192.359 68.645,192.629 68.069,192.806z"/><path fill="#0b0b0b" d="M52.304,196.132C51.998,195.554 51.996,195.117 51.993,194.353C52.197,194.774 52.402,195.523 52.304,196.132z"/><path fill="#0b0b0b" d="M106.678,63.371C106.99,64.147 106.971,64.882 106.915,65.982C106.701,65.341 106.523,64.335 106.678,63.371z"/><path fill="#0b0b0b" d="M226.676,178.369C226.444,179.086 225.979,179.407 225.466,179.607C225.407,179.63 225.087,178.985 224.887,178.65C225.401,178.412 225.914,178.174 226.676,178.369z"/><path fill="#0b0b0b" d="M46.722,123.136C46.978,123.493 46.966,124.018 46.916,124.934C46.736,124.651 46.595,123.977 46.722,123.136z"/><path fill="#0b0b0b" d="M208.337,135.994C208.027,135.699 208.013,135.289 207.997,134.572C208.208,134.803 208.421,135.341 208.337,135.994z"/><path fill="#090909" d="M116.25,17.75C116.3,17.467 116.6,17.433 116.9,17.4C116.767,17.6 116.633,17.8 116.25,17.75z"/><path fill="#0b0b0b" d="M224.157,192.267C224.507,192.121 224.69,192.271 224.905,192.639C224.667,192.704 224.351,192.606 224.157,192.267z"/><path fill="#0b0b0b" d="M199.077,89.649C198.871,89.954 198.62,89.953 197.997,89.905C198.093,89.686 198.563,89.514 199.077,89.649z"/><path fill="#0b0b0b" d="M31.646,195.044C31.977,195.277 31.954,195.555 31.856,196.244C31.617,196.133 31.454,195.611 31.646,195.044z"/><path fill="#0b0b0b" d="M223.877,179.248C223.984,179.38 223.857,179.543 223.538,179.583C223.241,179.286 223.137,179.113 223.033,178.939C223.033,178.939 223.015,178.996 222.986,179C222.956,179.003 223.189,179.417 223.189,179.417C223.189,179.417 223.643,179.278 223.877,179.248z"/><path fill="#0b0b0b" d="M224.597,181.721C224.367,181.512 224.413,181.146 224.82,180.354C225.078,180.474 224.975,181.019 224.597,181.721z"/><path fill="#0b0b0b" d="M225.86,185.661C225.459,185.844 225.273,185.659 225.073,185.232C225.342,185.147 225.681,185.248 225.86,185.661z"/><path fill="#f0f1f0" d="M52.119,149.277C53.074,147.865 54.996,146.307 54.809,145.068C54.153,140.718 53.878,140.76 58.512,140.455C57.391,135.67 60.823,136.519 63.511,136.393C65.06,136.321 66.605,136.156 68.152,136.034C68.113,135.488 68.073,134.942 68.034,134.396C66.996,134.287 65.958,134.178 64.123,134.017C63.515,132.642 63.703,131.321 63.891,129.999C65.387,127.327 66.884,124.656 68.94,121.902C69.902,121.661 70,121.392 69.791,121.013C69.825,120.55 69.858,120.087 70.209,119.267C70.686,118.607 70.845,118.304 71.004,118C72.816,114.128 74.627,110.256 76.899,106.48C80.56,105.228 84.937,105.189 84.677,99.994C85.115,98.628 85.553,97.263 86.066,95.666C87.586,97.493 88.826,98.984 90.313,101.154C90.325,102.73 90.09,103.626 89.817,104.668C91.173,104.796 92.119,104.886 93.065,104.975C95.742,110.198 101.129,114.059 100.983,121.101C100.995,121.496 101.038,121.437 100.654,121.669C99.26,126.271 101.474,132.004 94.375,133.88C96.569,134.957 98.125,135.721 99.344,136.319C101.809,135.178 104.192,134.076 106.82,133.004C107.396,133.039 107.725,133.021 108.053,132.98C109.274,132.221 110.494,131.462 112.011,130.519C113.461,132.71 114.987,135.016 116.064,137.686C115.18,138.362 114.745,138.673 114.309,138.984C115.12,139.356 115.932,139.728 116.852,140.376C117.272,140.436 117.583,140.219 118.007,139.823C118.12,139.644 118.105,139.22 118.105,139.22C120.621,142.726 120.408,148.291 117.439,151.526C121.72,154.276 120.257,156.739 116.261,158.977C122.194,160.084 119.175,164.264 119.615,167.685C117.266,169.078 115.245,169.801 113.136,170.072C112.991,169.318 112.932,169.016 112.873,168.715C112.595,163.425 112.494,158.117 111.961,152.853C111.711,150.386 110.627,148.003 109.92,145.582C109.08,145.572 108.24,145.562 107.4,145.552C106.591,148.139 105.09,150.729 105.102,153.313C105.14,161.719 104.793,170.051 101.823,177.974C100.494,181.517 98.28,184.728 95.598,187.53C96.322,177.315 97.035,167.1 97.773,156.887C98.175,151.328 88.786,139.802 83.473,140.025C81.093,140.125 77.81,141.305 76.629,143.105C73.298,148.181 69.412,152.936 69.795,160.009C70.256,168.525 69.149,177.127 67.746,186.167C67.07,184.908 66.393,183.649 65.388,181.876C64.694,180.91 64.329,180.458 63.964,180.006C63.964,180.006 64.319,179.666 64.722,179.31C65.623,178.083 66.122,177.211 66.621,176.338C66.3,176.126 65.979,175.914 65.658,175.702C64.774,176.493 63.89,177.285 63.006,178.076C62.547,176.263 62.088,174.451 61.367,171.603C59.556,172.631 57.653,173.712 55.124,174.717C52.397,173.089 50.296,171.537 48.195,169.984C48.908,167.383 49.62,164.782 51.03,161.969C51.162,161.138 50.598,160.52 50.034,159.901C50,157.889 49.966,155.877 50.29,153.313C51.138,151.6 51.629,150.439 52.119,149.277M92.225,116.477C90.76,112.515 88.096,109.912 83.704,110.321C78.407,110.814 74.59,115.9 74.983,121.33C75.318,125.965 79.911,130.522 84.033,130.31C88.495,130.081 92.401,125.29 92.634,119.7C92.668,118.883 92.481,118.056 92.225,116.477M62.271,155.066C62.3,152.039 63.544,148.589 59.027,146.801C53.044,153.304 57.298,162.197 53.616,169.374C56.605,169.374 59.125,169.374 62.222,169.374C62.222,164.58 62.222,160.265 62.271,155.066M71.39,133.566C70.828,134.002 70.267,134.438 69.705,134.875C70.211,135.139 71.038,135.734 71.166,135.61C71.725,135.066 72.081,134.313 71.39,133.566z"/><path fill="#eeeeee" d="M145.004,116.999C145.386,119.394 145.768,121.79 145.821,124.634C145.321,125.369 145.15,125.656 144.979,125.943C145.462,127.228 145.617,128.86 146.513,129.709C147.598,130.737 149.31,131.103 149.673,131.267C150.088,135.498 150.404,138.711 150.106,141.943C149.663,142.683 149.832,143.405 150.001,144.126C154.511,146.526 154.235,150.91 154.564,155.976C153.12,155.364 152.016,154.896 150.592,153.877C149.923,152.699 149.573,152.072 149.223,151.445C149.479,147.594 147.816,144.77 144.151,143.088C143.715,143.39 143.695,143.421 143.695,143.421C143.089,141.96 142.507,140.489 141.871,139.041C141.031,137.13 140.346,135.108 139.213,133.384C138.502,132.302 137.052,130.935 136.001,130.99C132.713,131.163 132.877,129.061 131.831,126.881C129.466,121.957 126.1,117.514 123.05,112.147C122.92,111.143 122.883,110.866 122.846,110.59C121.907,109.547 120.969,108.503 120.192,107.133C120.459,106.72 120.564,106.632 120.669,106.545C120.568,106.454 120.475,106.306 120.362,106.288C120.249,106.271 120.115,106.383 119.991,106.439C118.542,105.313 117.094,104.186 115.262,102.55C114.384,101.085 113.89,100.13 113.624,99.099C114.568,98.693 115.285,98.363 116.001,98.033C119.569,98.424 123.137,98.814 127.27,99.267C127.501,98.672 128.278,96.68 129.484,94.354C130.274,94.013 130.634,94.008 131.426,94.143C132.758,94.202 133.657,94.119 134.708,94.056C134.858,94.077 135.163,94.082 135.163,94.082C135.163,94.082 135.465,94.048 135.925,94.15C136.906,94.593 137.428,94.936 137.95,95.278C135.307,98.354 137.966,98.883 140.46,100.288C141.846,104.057 143.541,107.33 138.476,109.802C140.593,109.92 141.735,109.984 142.877,110.048C142.912,110.776 142.947,111.505 142.644,112.715C143.206,114.464 144.105,115.731 145.004,116.999M119.896,103.721C119.811,103.674 119.726,103.626 119.64,103.578C119.757,103.721 119.874,103.864 120.105,104.282C120.193,104.329 120.28,104.376 120.368,104.424C120.248,104.279 120.128,104.135 119.896,103.721M137.47,103.778C137.152,103.717 136.833,103.655 136.515,103.594C136.49,103.888 136.466,104.182 136.441,104.476C136.985,104.336 137.529,104.195 138.334,103.905C138.206,103.915 138.077,103.924 137.47,103.778M133.985,108.587C131.838,104.626 130.657,107.409 129.407,109.029C130.417,111.689 131.326,114.081 132.234,116.473C132.518,116.316 132.801,116.16 133.085,116.003C133.396,113.824 133.707,111.646 133.985,108.587M132.325,99.13C127.88,101.724 132.24,103.444 132.592,105.562C133.181,105.473 133.769,105.383 134.358,105.294C133.896,103.254 133.434,101.214 132.325,99.13M122.519,106.389C122.519,106.389 122.6,106.519 122.519,106.389z"/><path fill="#e0e0e0" d="M116.125,64.285C116.558,64.241 116.991,64.196 117.712,63.998C119.115,63.759 120.23,63.674 122.037,63.537C122.037,71.823 122.037,79.932 121.773,88.607C121.339,89.199 121.168,89.225 120.997,89.251C120.718,87.585 120.417,85.922 120.164,84.253C119.451,79.557 118.758,74.858 117.5,70.246C113.311,75.883 112.023,81.788 113.593,88.659C113.577,89.116 113.225,89.261 112.937,89.174C112.453,89.051 112.256,89.014 112.059,88.978C111.792,81.702 111.525,74.427 111.453,66.535C112.432,65.603 113.216,65.287 114.313,65.036C115.126,64.828 115.626,64.557 116.125,64.285z"/><path fill="#edeeed" d="M131.792,188.999C133.961,186.97 136.219,185.026 138.278,182.891C141.227,179.836 143.753,181.284 146.422,183.295C148.772,185.064 151.25,186.663 153.559,188.666C153.447,188.994 153,189.118 153,189.118C151.308,189.484 149.298,189.391 147.987,190.303C144.282,192.88 140.628,192.429 136.285,190.575C134.443,189.776 133.117,189.388 131.792,188.999z"/><path fill="#e4e5e5" d="M112.442,168.84C112.932,169.016 112.991,169.318 112.972,170.405C113.716,171.689 114.585,172.664 115.349,172.588C116.901,172.433 118.396,171.71 119.914,171.221C121.46,176.581 117.228,179.385 113.986,183.007C112.489,183.075 111.729,183.09 110.968,183.105C107.528,179.292 105.353,175 105.859,169.268C107.9,169.168 109.956,169.066 112.442,168.84z"/><path fill="#e7e7e7" d="M187.824,189.001C185.785,187.783 183.746,186.566 181.124,185.251C180.361,185.102 180.181,185.051 180,185C181.052,184.005 182.191,183.087 183.14,182.002C186.561,178.096 189.359,179.034 192.239,182.77C193.38,184.25 195.249,185.169 197.015,186.519C194.98,187.223 193.186,187.845 190.901,188.889C189.617,189.517 188.823,189.723 187.998,189.692C187.967,189.456 187.824,189.001 187.824,189.001z"/><path fill="#e7e7e7" d="M108.095,132.605C107.725,133.021 107.396,133.039 106.336,132.931C104.072,132.828 102.537,132.828 101.038,132.828C101.038,128.637 101.038,125.037 101.038,121.437C101.038,121.437 100.995,121.496 100.98,121.531C101.479,120.785 101.994,120.005 102.846,118.712C104.912,123.405 110.332,126.189 108.095,132.605z"/><path fill="#e7e7e7" d="M113.395,99.175C113.89,100.13 114.384,101.085 114.945,102.374C114.249,102.715 113.486,102.722 112.156,102.73C111.588,102.732 111.124,102.67 111.124,102.67C110.657,102.05 110.19,101.43 109.337,100.536C108.695,100.073 108.408,99.975 108.059,99.59C107.407,97.958 106.787,96.704 106.131,95.289C105.972,94.917 105.788,94.812 105.545,94.813C103.835,93.177 102.261,91.518 104.67,88.944C104.843,88.529 104.932,88.363 105.328,87.743C106.762,86.857 107.889,86.426 109.015,85.994C109.023,87.387 109.03,88.781 109.05,90.837C109.103,91.667 109.145,91.834 109.115,92.372C109.347,93.834 109.65,94.927 110.095,96.302C110.518,97.293 110.8,98.002 111.241,99.013C112.007,99.266 112.613,99.216 113.263,99.162C113.308,99.158 113.395,99.175 113.395,99.175z"/><path fill="#edeeed" d="M163.174,176.821C168.302,175.074 168.805,179.166 170.06,182.904C170.119,183.679 170.195,183.838 170.332,184.328C170.924,185.771 171.454,186.882 171.984,187.994C171.399,188.258 170.814,188.523 169.877,189.011C169.014,188.982 168.502,188.729 167.99,188.477C166.131,185.033 164.271,181.589 162.566,177.655C162.871,177.05 163.023,176.935 163.174,176.821z"/><path fill="#e3e3e3" d="M115.973,124.905C119.059,127.897 122.145,130.888 125.305,133.951C124.518,135.539 123.903,136.779 122.855,138.894C119.877,134.454 117.271,130.571 115.105,126.314C115.688,125.596 115.83,125.25 115.973,124.905z"/><path fill="#eeeeee" d="M156.006,160.628C157.703,161.577 161.9,160.652 158.634,165.281C157.44,166.972 156.817,168.277 156.194,169.581C155.599,171.141 155.003,172.701 154.491,174.045C153.683,170.121 152.819,165.922 152.278,161.246C153.736,160.722 154.871,160.675 156.006,160.628z"/><path fill="#e3e3e3" d="M181.003,146.801C181.578,153.935 182.153,161.069 182.756,168.556C180.415,168.234 178.958,168.033 177.507,167.433C177.802,167.043 178.03,166.929 178.199,166.693C178.728,165.842 179.687,165.005 179.716,164.137C179.898,158.698 179.872,153.252 180.215,147.369C180.678,146.886 180.84,146.844 181.003,146.801z"/><path fill="#e3e3e3" d="M103.857,194.93C101.485,194.806 99.114,194.682 96.864,194.565C101.426,187.287 104.191,186.663 108.513,192.351C108.304,192.614 108.027,192.806 107.673,192.676C106.891,192.758 106.463,192.97 105.759,193.264C104.941,193.873 104.399,194.402 103.857,194.93z"/><path fill="#e9e9ea" d="M130.994,94.002C130.634,94.008 130.274,94.013 129.644,94.016C129.997,90.026 130.619,86.038 131.609,82.31C132.307,83.182 132.638,83.795 132.98,84.388C132.992,84.368 132.971,84.41 132.991,84.811C133.829,88.157 134.647,91.103 135.465,94.048C135.465,94.048 135.163,94.082 135.163,94.082C135.163,94.082 134.858,94.077 134.583,93.668C133.203,93.507 132.098,93.755 130.994,94.002z"/><path fill="#070607" d="M135.925,94.15C134.647,91.103 133.829,88.157 133.415,84.737C135.212,84.508 136.605,84.753 137.998,84.997C138.178,86.214 138.358,87.431 138.812,89.144C139.723,90.09 140.359,90.54 140.996,90.99C141.008,91.433 141.02,91.876 141.14,92.957C141.498,94.397 141.749,95.199 141.999,96C140.805,95.88 139.611,95.761 138.184,95.46C137.428,94.936 136.906,94.593 135.925,94.15z"/><path fill="#e7e7e7" d="M111.995,123.494C109.926,121.191 107.63,119.044 105.896,116.511C105.156,115.43 105.591,113.545 105.526,112.544C108.531,114.914 111.281,116.93 113.779,119.219C114.146,119.556 113.32,121.194 112.777,122.71C112.338,123.291 112.166,123.392 111.995,123.494z"/><path fill="#e4e5e5" d="M91.999,96.214C89.868,93.026 87.555,89.939 85.705,86.596C85.074,85.454 85.605,83.669 85.605,82.177C86.035,82.143 86.465,82.109 86.895,82.076C89.273,85.801 91.651,89.527 93.68,93.735C92.887,94.882 92.443,95.548 91.999,96.214z"/><path fill="#dddddd" d="M101.094,109.748C99.359,107.268 97.623,104.787 95.663,101.865C95.341,101.104 95.244,100.784 95.423,100.311C95.783,99.775 95.866,99.391 96.028,98.81C96.107,98.613 96.084,98.188 96.084,98.188C98.593,100.192 101.102,102.196 103.942,104.35C104.273,104.501 104.214,104.566 104.214,104.566C103.476,106.151 102.737,107.737 101.801,109.586C101.434,109.816 101.264,109.782 101.094,109.748z"/><path fill="#131313" d="M131.103,155.108C130.985,157.983 130.825,160.857 130.763,163.733C130.705,166.425 130.75,169.118 130.155,171.787C126.923,167.766 127.352,157.289 130.57,155.008C131.021,155.018 131.103,155.108 131.103,155.108z"/><path fill="#0b0b0b" d="M195.508,135.049C197.54,136.188 199.242,137.272 200.944,138.356C200.762,138.825 200.58,139.295 200.398,139.765C195.669,137.87 190.941,135.976 186.229,134.088C187.629,131.025 188.771,130.687 192.313,133.26C193.214,133.914 194.221,134.42 195.508,135.049z"/><path fill="#0b0b0b" d="M156.514,169.739C156.817,168.277 157.44,166.972 158.407,165.495C159.497,166.266 160.072,167.461 161.02,168.115C166.34,171.785 166.371,171.74 160.649,174.634C159.377,173.055 158.105,171.477 156.514,169.739z"/><path fill="#d3d3d4" d="M169.008,157.978C168.348,151.339 167.688,144.7 167.028,138.062C167.491,138.007 167.954,137.952 168.418,137.897C169.225,144.313 170.032,150.73 170.555,157.605C169.849,158.036 169.428,158.007 169.008,157.978z"/><path fill="#070607" d="M143.226,110.005C141.735,109.984 140.593,109.92 138.476,109.802C143.541,107.33 141.846,104.057 140.767,100.506C142.266,101.289 143.853,102.463 145.702,104.225C145.981,105.542 145.996,106.271 146.012,107C145.199,107.987 144.387,108.975 143.226,110.005z"/><path fill="#cfd0d1" d="M72.297,97.303C72.46,95.328 72.905,93.118 73.503,90.577C75.468,87.601 77.279,84.956 79.09,82.312C79.611,82.611 80.132,82.911 80.653,83.21C77.961,87.829 75.27,92.449 72.297,97.303z"/><path fill="#d5d6d6" d="M211.694,184.989C210.967,185.54 210.24,186.092 210.019,186.259C207.542,184.992 205.202,183.795 202.865,182.6C203.172,182.044 203.942,180.651 205.062,178.624C206.975,180.217 209.027,181.924 211.25,184.132C211.422,184.632 211.694,184.989 211.694,184.989z"/><path fill="#131313" d="M133.973,163.971C134.106,162.223 134.234,160.902 134.363,159.582C134.746,159.601 135.128,159.621 135.511,159.641C135.511,164.2 135.511,168.759 135.511,173.351C132.442,171.706 132.442,171.706 133.973,163.971z"/><path fill="#0b0b0b" d="M95.949,97.866C96.084,98.188 96.107,98.613 95.802,98.993C95.38,99.737 95.263,100.101 95.146,100.464C95.244,100.784 95.341,101.104 95.406,101.596C94.838,102.696 94.302,103.625 93.416,104.764C92.119,104.886 91.173,104.796 89.817,104.668C90.09,103.626 90.325,102.73 90.58,101.407C91.517,100.912 92.432,100.845 93.615,100.758C92.999,99.193 92.538,98.023 92.038,96.534C92.443,95.548 92.887,94.882 93.635,94.098C94.564,95.167 95.189,96.355 95.949,97.866z"/><path fill="#0b0b0b" d="M155.943,160.343C154.871,160.675 153.736,160.722 152.177,160.844C149.444,158.386 147.135,155.852 144.479,152.937C146.587,152.519 147.753,152.288 149.071,151.75C149.573,152.072 149.923,152.699 150.333,153.597C150.993,155.201 151.591,156.535 152.704,158.148C153.415,158.702 153.675,158.889 153.998,158.988C154.626,159.344 155.253,159.701 155.943,160.343z"/><path fill="#0b0b0b" d="M199.002,169.478C198.815,170.968 198.628,172.046 198.233,174.315C193.915,169.299 196.722,165.482 197.532,161.677C198.022,161.656 198.512,161.635 199.003,161.613C199.003,164.097 199.003,166.581 199.002,169.478z"/><path fill="#0b0b0b" d="M84.337,99.993C84.937,105.189 80.56,105.228 77.185,106.266C77.92,104.778 78.829,103.601 79.919,102.188C79.778,101.691 79.433,100.472 78.938,98.725C81.131,99.275 82.564,99.634 84.337,99.993z"/><path fill="#0b0b0b" d="M146.309,107.156C145.996,106.271 145.981,105.542 145.96,104.452C148.917,106.722 154.334,106.071 155.76,110.684C153.329,110.27 151.122,109.895 147.998,109.364C148.045,109.433 147.325,108.373 146.309,107.156z"/><path fill="#0b0b0b" d="M200.385,129.711C200.917,131.171 201.398,132.632 202.057,134.636C199.144,132.871 196.177,131.073 192.673,128.95C193.647,127.732 194.481,126.689 195.066,125.958C196.755,127.37 198.183,128.564 199.976,129.683C200.34,129.608 200.333,129.711 200.385,129.711z"/><path fill="#090909" d="M111.081,98.71C110.8,98.002 110.518,97.293 110.373,96.071C110.671,94.371 110.834,93.184 110.998,91.748C110.999,91.499 110.999,91.001 110.999,91.001C111.09,90.694 111.261,90.441 111.991,90.226C112.654,90.151 112.838,90.091 113.048,90.072C113.074,90.113 113.13,90.192 113.13,90.192C113.087,90.886 113.044,91.58 112.813,92.809C113.749,94.561 114.872,95.777 115.996,96.994C115.997,97.167 115.998,97.34 116,97.773C115.285,98.363 114.568,98.693 113.624,99.099C113.395,99.175 113.308,99.158 113.005,99.069C112.162,98.891 111.622,98.8 111.081,98.71z"/><path fill="#0b0b0b" d="M121.069,53.275C121.016,50.821 121.016,48.755 121.016,46.067C122.942,47.139 124.147,47.81 125.313,48.459C125.846,50.228 122.868,53.831 121.069,53.275z"/><path fill="#e3e3e3" d="M60.117,187.142C57.474,187.872 54.873,188.206 51.716,188.613C55.405,183.501 56.671,183.315 60.117,187.142z"/><path fill="#0b0b0b" d="M171.112,120.892C172.47,120.927 173.828,120.962 175.703,121.215C176.419,121.707 176.678,121.896 176.999,122.002C177.995,123.394 178.99,124.786 180.002,126.572C180.018,126.965 179.884,127.106 179.884,127.106C176.943,125.342 174.001,123.579 171.034,121.406C171.008,120.997 171.112,120.892 171.112,120.892z"/><path fill="#0b0b0b" d="M208.332,140.724C208.91,142.252 209.441,143.778 209.973,145.305C209.63,145.524 209.288,145.743 208.945,145.962C206.648,144.167 204.351,142.372 202.055,140.576C202.289,140.148 202.524,139.72 202.759,139.292C204.372,139.742 205.984,140.192 207.949,140.637C208.301,140.631 208.285,140.723 208.332,140.724z"/><path fill="#0b0b0b" d="M143.328,143.263C143.695,143.421 143.715,143.39 143.787,143.367C143.993,144.306 144.127,145.269 144.314,146.616C140.511,144.501 136.943,142.517 133.199,140.253C133.023,139.973 133.108,139.895 133.108,139.895C136.392,140.965 139.677,142.035 143.328,143.263z"/><path fill="#242425" d="M30.843,181.842C32.917,181.258 34.642,180.809 36.368,180.36C36.539,180.96 36.711,181.56 36.882,182.16C35.072,183.032 33.301,184.006 31.428,184.714C30.848,184.933 29.993,184.426 29.264,184.252C29.674,183.493 30.084,182.735 30.843,181.842z"/><path fill="#0b0b0b" d="M73,182.84C73.206,180.276 73.412,178.13 73.618,175.985C73.971,176.017 74.323,176.049 74.675,176.081C74.675,179.481 74.675,182.88 74.675,186.28C74.324,186.334 73.973,186.388 73.621,186.442C73.414,185.38 73.207,184.319 73,182.84z"/><path fill="#0b0b0b" d="M63.541,130.041C63.703,131.321 63.515,132.642 63.646,134.128C62.18,134.529 60.394,134.766 58.608,135.004C58.382,134.48 58.157,133.956 57.931,133.431C59.684,132.315 61.437,131.199 63.541,130.041z"/><path fill="#0b0b0b" d="M131.478,189.06C133.117,189.388 134.443,189.776 135.904,190.525C133.988,191.753 131.937,192.622 129.885,193.491C129.587,192.972 129.288,192.452 128.99,191.933C129.714,190.996 130.439,190.058 131.478,189.06z"/><path fill="#0b0b0b" d="M119.938,170.801C118.396,171.71 116.901,172.433 115.349,172.588C114.585,172.664 113.716,171.689 113.059,170.857C115.245,169.801 117.266,169.078 119.617,168.109C119.952,168.702 119.957,169.542 119.938,170.801z"/><path fill="#f0f1f0" d="M49.946,176.981C46.693,177.477 46.457,177.026 48.204,172.317C49.823,172.936 50.905,173.858 51.666,174.905C50.88,175.679 50.413,176.33 49.946,176.981z"/><path fill="#0b0b0b" d="M172.29,188.152C171.454,186.882 170.924,185.771 170.505,184.306C170.615,183.953 170.951,183.868 170.951,183.868C172.818,186.052 174.684,188.236 176.55,190.419C175.935,190.944 175.321,191.468 174.353,191.996C174,192 173.99,191.99 173.99,191.99C173.525,190.763 173.061,189.537 172.29,188.152z"/><path fill="#0b0b0b" d="M180.998,146.443C180.84,146.844 180.678,146.886 180.268,146.968C178.75,145.871 177.482,144.735 175.726,143.163C176.048,142.912 177.052,142.13 178.056,141.348C179.035,142.927 180.014,144.506 180.998,146.443z"/><path fill="#0b0b0b" d="M189.95,123.303C188.298,122.117 186.906,121.093 185.492,120.051C190.356,119.765 191.858,120.558 192.91,124.006C191.988,123.82 191.099,123.642 189.95,123.303z"/><path fill="#e1e2e1" d="M51.986,174.781C50.905,173.858 49.823,172.936 48.393,172.009C48.028,171.55 48.01,171.096 48.094,170.313C50.296,171.537 52.397,173.089 54.779,174.837C54.573,175.683 54.085,176.334 52.99,176.796C52.25,175.998 52.118,175.389 51.986,174.781z"/><path fill="#0b0b0b" d="M129.353,75.458C130.08,74.726 131.602,73.808 131.723,73.966C132.587,75.092 133.165,76.436 133.327,78.432C132.051,77.544 130.775,76.657 129.353,75.458z"/><path fill="#0b0b0b" d="M180.077,126.888C184.449,125.214 184.384,128.938 185.239,131.623C183.507,130.313 181.774,129.003 179.963,127.4C179.884,127.106 180.018,126.965 180.077,126.888z"/><path fill="#0b0b0b" d="M108.027,192.806C108.027,192.806 108.304,192.614 108.449,192.701C108.845,193.685 109.097,194.582 109.349,195.479C107.694,195.404 106.039,195.328 104.12,195.091C104.399,194.402 104.941,193.873 105.942,193.46C106.943,193.318 107.485,193.062 108.027,192.806z"/><path fill="#0b0b0b" d="M169.003,158.373C169.428,158.007 169.849,158.036 170.59,158.014C171.098,159.461 171.285,160.96 171.472,162.459C170.808,162.524 170.145,162.589 169.481,162.654C169.32,161.359 169.16,160.063 169.003,158.373z"/><path fill="#0b0b0b" d="M193.438,105.851C194.242,107.344 194.812,109.108 195.382,110.872C194.806,110.99 194.23,111.108 193.654,111.225C193.504,109.524 193.354,107.823 193.438,105.851z"/><path fill="#0b0b0b" d="M191.478,166.158C191.566,163.585 191.907,161.272 192.248,158.959C192.646,159.038 193.044,159.117 193.442,159.197C192.872,161.604 192.301,164.011 191.478,166.158z"/><path fill="#0b0b0b" d="M52.076,148.979C51.629,150.439 51.138,151.6 50.328,152.882C50.325,151.143 50.642,149.282 50.958,147.422C51.316,147.842 51.674,148.261 52.076,148.979z"/><path fill="#0b0b0b" d="M121.281,183.501C121.194,185.02 120.849,186.314 120.503,187.607C119.925,187.358 119.347,187.109 118.768,186.86C119.52,185.665 120.271,184.469 121.281,183.501z"/><path fill="#0b0b0b" d="M155.451,179.349C154.511,178.904 153.824,178.192 153.137,177.48C153.702,177.084 154.268,176.687 154.833,176.29C155.124,177.221 155.414,178.152 155.451,179.349z"/><path fill="#0b0b0b" d="M110.981,183.464C111.729,183.09 112.489,183.075 113.626,183.12C113.837,184.334 113.671,185.488 113.505,186.641C113.129,186.713 112.754,186.785 112.379,186.857C111.918,185.846 111.456,184.835 110.981,183.464z"/><path fill="#0b0b0b" d="M112.056,123.792C112.166,123.392 112.338,123.291 112.795,123.106C114.013,123.429 114.945,123.836 115.925,124.574C115.83,125.25 115.688,125.596 115.249,125.964C114.008,125.354 113.062,124.722 112.056,123.792z"/><path fill="#070607" d="M145.273,116.758C144.105,115.731 143.206,114.464 142.589,113.076C145.379,112.928 146.69,113.8 145.273,116.758z"/><path fill="#0b0b0b" d="M45.634,179.529C46.783,179.599 47.676,179.908 48.57,180.216C48.049,180.744 47.528,181.271 47.008,181.799C46.464,181.121 45.921,180.444 45.634,179.529z"/><path fill="#0b0b0b" d="M188.029,189.929C188.823,189.723 189.617,189.517 190.72,189.201C190.948,192.656 189.576,193.788 186.532,191.234C187.112,190.596 187.57,190.262 188.029,189.929z"/><path fill="#0b0b0b" d="M174.005,192.005C174.201,193.182 174.392,194.353 174.647,195.924C171.585,193.601 171.585,193.601 173.668,191.994C173.99,191.99 174,192 174.005,192.005z"/><path fill="#0b0b0b" d="M181.97,121.039C180.716,120.149 179.463,119.259 178.209,118.369C178.58,117.955 178.951,117.541 179.322,117.127C180.218,118.172 181.114,119.217 182.007,120.631C182.004,121 181.97,121.039 181.97,121.039z"/><path fill="#0b0b0b" d="M105.208,94.94C105.788,94.812 105.972,94.917 106.09,95.726C106.077,97.202 106.069,98.079 106.034,98.982C106.007,99.006 105.96,99.062 105.96,99.062C103.236,98.375 101.936,97.299 105.208,94.94z"/><path fill="#0b0b0b" d="M167.905,119.093C166.339,118.544 164.773,117.995 163.207,117.446C163.401,117.005 163.595,116.564 163.789,116.123C165.166,116.828 166.543,117.532 167.961,118.616C168.002,118.995 167.905,119.093 167.905,119.093z"/><path fill="#0b0b0b" d="M178.025,166.334C178.03,166.929 177.802,167.043 177.314,167.037C175.932,166.889 174.748,166.737 173.564,166.586C173.607,166.133 173.65,165.681 173.693,165.228C175.079,165.477 176.466,165.726 178.025,166.334z"/><path fill="#0b0b0b" d="M192.842,152.854C193.373,154.057 193.591,155.192 193.81,156.327C193.27,156.349 192.73,156.371 192.19,156.393C192.304,155.19 192.417,153.988 192.842,152.854z"/><path fill="#0b0b0b" d="M55.449,178.708C56.634,179.072 57.607,179.675 58.58,180.278C57.99,180.779 57.4,181.28 56.81,181.78C56.286,180.836 55.761,179.892 55.449,178.708z"/><path fill="#0b0b0b" d="M142.343,95.962C141.749,95.199 141.498,94.397 141.16,93.289C142.192,93.088 143.31,93.193 145.509,93.4C144.113,94.649 143.399,95.286 142.343,95.962z"/><path fill="#0b0b0b" d="M120.996,89.625C121.168,89.225 121.339,89.199 121.75,89.074C122.326,90.404 122.663,91.832 122.999,93.26C122.505,93.355 122.011,93.451 121.518,93.546C121.343,92.364 121.169,91.182 120.996,89.625z"/><path fill="#0b0b0b" d="M116.743,140.1C115.932,139.728 115.12,139.356 114.309,138.984C114.745,138.673 115.18,138.362 115.96,138.061C116.817,138.283 117.328,138.496 117.972,138.964C118.105,139.22 118.12,139.644 117.718,139.837C117.125,140.054 116.934,140.077 116.743,140.1z"/><path fill="#0b0b0b" d="M174.303,150.976C173.738,149.795 173.445,148.745 173.151,147.695C173.625,147.618 174.099,147.541 174.573,147.464C174.573,148.678 174.573,149.893 174.303,150.976z"/><path fill="#0b0b0b" d="M65.671,105.742C66.227,106.24 66.754,107.024 67.28,107.808C66.82,108.072 66.359,108.336 65.899,108.599C65.813,107.742 65.727,106.885 65.671,105.742z"/><path fill="#0b0b0b" d="M137.942,84.654C136.605,84.753 135.212,84.508 133.395,84.337C132.971,84.41 132.992,84.368 133.192,84.138C133.263,83.273 133.134,82.637 133.005,82.001C134.632,82.771 136.259,83.541 137.942,84.654z"/><path fill="#0b0b0b" d="M115.992,96.645C114.872,95.777 113.749,94.561 112.812,93.157C113.995,94.079 114.992,95.187 115.992,96.645z"/><path fill="#0b0b0b" d="M167.99,188.803C168.502,188.729 169.014,188.982 169.816,189.345C169.691,190.148 169.276,190.84 168.861,191.532C168.571,190.731 168.28,189.93 167.99,188.803z"/><path fill="#0b0b0b" d="M158.265,111.421C159.177,112.399 159.814,113.324 160.451,114.249C160.13,114.45 159.809,114.65 159.487,114.85C158.988,113.689 158.489,112.528 158.265,111.421z"/><path fill="#0b0b0b" d="M119.602,115.56C120.496,115.862 121.179,116.371 121.863,116.879C121.521,117.187 121.179,117.496 120.837,117.804C120.355,117.124 119.873,116.445 119.602,115.56z"/><path fill="#0b0b0b" d="M63.181,178.322C63.89,177.285 64.774,176.493 65.658,175.702C65.979,175.914 66.3,176.126 66.621,176.338C66.122,177.211 65.623,178.083 64.755,179.067C64.041,178.974 63.698,178.771 63.181,178.322z"/><path fill="#0b0b0b" d="M187.14,139.737C187.249,138.948 187.433,138.443 187.617,137.938C187.952,138.619 188.288,139.299 188.623,139.98C188.153,139.994 187.683,140.008 187.14,139.737z"/><path fill="#0b0b0b" d="M58.885,174.453C59.124,175.36 59.075,176.312 59.025,177.264C58.712,177.199 58.399,177.134 58.087,177.069C58.257,176.212 58.427,175.355 58.885,174.453z"/><path fill="#0b0b0b" d="M195.963,98.974C195.849,98.098 195.739,97.241 195.732,96.383C195.731,96.332 196.55,96.274 196.987,96.219C196.832,97.035 196.677,97.851 196.283,98.848C196.044,99.029 195.99,98.992 195.963,98.974z"/><path fill="#0b0b0b" d="M180.355,112.48C179.481,112.221 178.808,111.778 178.136,111.334C178.659,110.751 179.182,110.168 179.704,109.584C179.989,110.488 180.273,111.392 180.355,112.48z"/><path fill="#0b0b0b" d="M123.314,124.061C124.351,124.41 125.226,124.986 126.1,125.562C125.894,125.817 125.687,126.071 125.481,126.326C124.704,125.647 123.927,124.967 123.314,124.061z"/><path fill="#0b0b0b" d="M51.666,174.905C52.118,175.389 52.25,175.998 52.686,176.838C52.99,177.069 53.004,177.004 52.753,176.69C52,176.584 51.497,176.791 50.995,176.998C50.82,176.997 50.645,176.996 50.208,176.988C50.413,176.33 50.88,175.679 51.666,174.905z"/><path fill="#0b0b0b" d="M168.048,118.944C169.041,119.343 169.987,119.792 171.022,120.567C171.112,120.892 171.008,120.997 170.957,121.051C169.961,120.654 169.017,120.202 167.989,119.421C167.905,119.093 168.002,118.995 168.048,118.944z"/><path fill="#0b0b0b" d="M150.621,89.86C150.043,89.581 149.734,89.275 149.425,88.97C149.788,88.786 150.151,88.602 150.514,88.418C150.639,88.89 150.765,89.362 150.621,89.86z"/><path fill="#0b0b0b" d="M113.767,89.101C114.814,88.951 115.671,88.817 116.527,88.682C116.577,88.925 116.626,89.169 116.675,89.412C115.709,89.636 114.744,89.861 113.454,90.139C113.13,90.192 113.074,90.113 113.152,89.894C113.23,89.674 113.225,89.261 113.225,89.261C113.225,89.261 113.577,89.116 113.767,89.101z"/><path fill="#090909" d="M163.001,134.063C163.14,134.564 163.045,134.943 162.95,135.323C162.47,134.848 161.989,134.373 161.509,133.898C161.928,133.913 162.347,133.928 163.001,134.063z"/><path fill="#0b0b0b" d="M110.267,107.909C110.311,108.511 110.167,108.932 110.024,109.353C109.573,109.008 109.123,108.664 108.673,108.319C109.142,108.122 109.611,107.924 110.267,107.909z"/><path fill="#0b0b0b" d="M172.561,112.644C172.692,113.296 172.632,113.75 172.572,114.204C172.196,114.006 171.821,113.808 171.445,113.61C171.753,113.223 172.061,112.835 172.561,112.644z"/><path fill="#090909" d="M187.998,189.692C187.57,190.262 187.112,190.596 186.358,190.953C186.449,190.352 186.836,189.727 187.523,189.051C187.824,189.001 187.967,189.456 187.998,189.692z"/><path fill="#0b0b0b" d="M153.04,189.397C153,189.118 153.447,188.994 153.678,188.978C154.076,189.453 154.242,189.944 154.408,190.435C153.965,190.182 153.523,189.93 153.04,189.397z"/><path fill="#0b0b0b" d="M198.894,188.42C198.613,188.991 198.317,189.318 198.02,189.645C197.911,189.381 197.651,188.941 197.718,188.884C198.058,188.593 198.483,188.402 198.894,188.42z"/><path fill="#0b0b0b" d="M170.401,166.953C170.793,166.714 171.183,166.716 171.571,166.746C171.582,166.747 171.569,167.049 171.568,167.211C171.178,167.207 170.789,167.202 170.401,166.953z"/><path fill="#0b0b0b" d="M179.787,185.146C180.181,185.051 180.361,185.102 180.773,185.314C180.646,185.864 180.289,186.253 179.931,186.643C179.812,186.192 179.693,185.742 179.787,185.146z"/><path fill="#0b0b0b" d="M160.099,186.272C160.528,186.029 160.921,186.029 161.314,186.029C161.198,186.449 161.082,186.868 160.966,187.288C160.665,187.03 160.364,186.773 160.099,186.272z"/><path fill="#0b0b0b" d="M164.537,108.397C164.654,107.947 164.94,107.674 165.226,107.4C165.339,107.519 165.556,107.734 165.549,107.742C165.281,108.031 164.992,108.301 164.537,108.397z"/><path fill="#0b0b0b" d="M98.609,92.538C99.057,92.654 99.328,92.938 99.6,93.223C99.482,93.335 99.268,93.551 99.261,93.545C98.973,93.278 98.704,92.991 98.609,92.538z"/><path fill="#0b0b0b" d="M145.129,126.169C145.15,125.656 145.321,125.369 145.75,125.042C146.164,125.488 146.322,125.974 146.479,126.46C146.078,126.438 145.678,126.416 145.129,126.169z"/><path fill="#0b0b0b" d="M108.091,99.968C108.408,99.975 108.695,100.073 109.041,100.472C108.443,100.67 107.753,100.657 107.029,100.32C106.996,99.996 107.033,99.955 107.298,99.963C107.738,99.97 107.914,99.969 108.091,99.968z"/><path fill="#0b0b0b" d="M140.954,90.672C140.359,90.54 139.723,90.09 139.047,89.321C139.642,89.453 140.277,89.903 140.954,90.672z"/><path fill="#090909" d="M177.216,121.846C176.678,121.896 176.419,121.707 176.111,121.215C176.483,120.831 176.964,120.665 177.446,120.5C177.442,120.897 177.438,121.294 177.216,121.846z"/><path fill="#0b0b0b" d="M132.978,140.009C132.11,139.625 131.287,139.206 130.464,138.787C130.851,138.404 131.238,138.021 131.626,137.638C132.081,138.198 132.537,138.758 133.05,139.607C133.108,139.895 133.023,139.973 132.978,140.009z"/><path fill="#191919" d="M181.98,109.019C181.457,108.777 180.941,108.536 180.473,108.222C180.422,108.188 180.653,107.735 180.753,107.476C181.153,107.779 181.553,108.082 181.997,108.672C182.04,108.959 182,109 181.98,109.019z"/><path fill="#0b0b0b" d="M101.092,110.045C101.264,109.782 101.434,109.816 101.845,109.947C102.129,110.539 102.173,111.035 102.216,111.531C101.841,111.135 101.466,110.738 101.092,110.045z"/><path fill="#0b0b0b" d="M116.996,114.005C116.488,113.699 115.98,113.394 115.471,113.089C115.654,112.88 115.836,112.67 116.019,112.46C116.323,112.783 116.628,113.106 116.966,113.714C117,114 116.996,114.005 116.996,114.005z"/><path fill="#191919" d="M182.119,113.292C182.408,113.209 182.797,113.302 182.875,113.511C182.942,113.69 182.651,114.002 182.519,114.254C182.374,114.009 182.229,113.763 182.119,113.292z"/><path fill="#0b0b0b" d="M111.121,103.019C111.124,102.67 111.588,102.732 111.792,102.847C112.259,103.464 112.521,103.967 112.892,104.735C113,105 112.991,105.012 112.991,105.012C112.366,104.464 111.742,103.916 111.121,103.019z"/><path fill="#0b0b0b" d="M193.928,117.949C193.994,117.301 194.059,116.652 194.125,116.003C194.285,116.01 194.445,116.016 194.605,116.022C194.569,116.58 194.533,117.138 194.247,117.852C193.996,118.007 193.928,117.949 193.928,117.949z"/><path fill="#0b0b0b" d="M63.738,180.193C64.329,180.458 64.694,180.91 65.109,181.65C64.611,181.42 64.062,180.9 63.738,180.193z"/><path fill="#0b0b0b" d="M128.865,134.846C129.181,134.958 129.346,135.223 129.512,135.488C129.246,135.325 128.981,135.161 128.865,134.846z"/><path fill="#0b0b0b" d="M50.112,160.159C50.598,160.52 51.162,161.138 51.354,161.794C50.718,161.36 50.454,160.889 50.112,160.159z"/><path fill="#070607" d="M132.753,82C133.134,82.637 133.263,83.273 133.18,84.159C132.638,83.795 132.307,83.182 131.986,82.286C132.164,82.001 132.332,82 132.753,82z"/><path fill="#0b0b0b" d="M150.003,143.818C149.832,143.405 149.663,142.683 149.748,142.119C150.004,142.687 150.004,143.098 150.003,143.818z"/><path fill="#0b0b0b" d="M78.495,149.523C78.092,149.594 77.843,149.514 77.594,149.434C77.872,149.162 78.15,148.89 78.428,148.619C78.502,148.87 78.576,149.12 78.495,149.523z"/><path fill="#0b0b0b" d="M148.359,83.25C148.374,83.008 148.504,82.876 148.635,82.743C148.582,82.949 148.528,83.155 148.359,83.25z"/><path fill="#0b0b0b" d="M211.985,184.975C211.694,184.989 211.422,184.632 211.42,184.408C211.951,184.288 212.483,184.392 213.014,184.496C212.768,184.651 212.522,184.806 211.985,184.975z"/><path fill="#0b0b0b" d="M165.006,199.391C164.813,199.16 164.618,198.649 164.711,198.067C165.001,198.368 165.003,198.74 165.006,199.391z"/><path fill="#0b0b0b" d="M52.354,181.258C52.369,181.009 52.504,180.872 52.638,180.736C52.583,180.948 52.529,181.159 52.354,181.258z"/><path fill="#131313" d="M130.983,154.971C131.415,154.808 131.884,154.692 132.353,154.576C132.094,154.727 131.834,154.879 131.339,155.069C131.103,155.108 131.021,155.018 130.983,154.971z"/><path fill="#0b0b0b" d="M120.641,122.75C120.626,122.992 120.495,123.124 120.365,123.257C120.418,123.051 120.471,122.845 120.641,122.75z"/><path fill="#0b0b0b" d="M128.245,128.011C128.411,127.902 128.579,127.956 128.746,128.009C128.579,128.064 128.413,128.119 128.245,128.011z"/><path fill="#0b0b0b" d="M48.003,132.02C47.582,132.183 47.129,132.303 46.675,132.423C46.929,132.277 47.183,132.131 47.668,131.941C47.898,131.896 47.971,131.976 48.003,132.02z"/><path fill="#090909" d="M153.99,158.76C153.675,158.889 153.415,158.702 153.108,158.211C153.327,158.173 153.654,158.352 153.99,158.76z"/><path fill="#e1e2e1" d="M51.056,177.336C51.497,176.791 52,176.584 52.784,176.679C52.417,177.212 51.767,177.443 51.056,177.336z"/><path fill="#0b0b0b" d="M190.532,127.549C190.478,127.582 190.587,127.517 190.532,127.549z"/><path fill="#0b0b0b" d="M106.975,100.014C106.654,99.91 106.404,99.722 106.082,99.265C105.96,99.062 106.007,99.006 106.237,99.104C106.721,99.404 106.909,99.655 107.033,99.955C107.033,99.955 106.996,99.996 106.975,100.014z"/><path fill="#cfd0d1" d="M72.051,98.779C72.025,98.711 72.041,98.452 72.028,97.804C72.03,97.807 72.061,98.197 72.051,98.779z"/><path fill="#0b0b0b" d="M164.469,113.452C164.523,113.42 164.415,113.484 164.469,113.452z"/><path fill="#0b0b0b" d="M195.45,154.532C195.417,154.476 195.483,154.588 195.45,154.532z"/><path fill="#090909" d="M197.53,155.547C197.477,155.578 197.583,155.516 197.53,155.547z"/><path fill="#0b0b0b" d="M136.453,199.531C136.422,199.478 136.484,199.583 136.453,199.531z"/><path fill="#0b0b0b" d="M125.935,196.429C125.651,196.379 125.303,195.937 125.323,195.376C125.751,195.517 125.811,195.776 125.935,196.429z"/><path fill="#fbfbfb" d="M145.384,78.672C145.619,78.94 145.662,79.366 145.704,79.793C145.469,79.773 145.233,79.752 144.913,79.452C144.83,79.172 145.192,78.83 145.384,78.672z"/><path fill="#0b0b0b" d="M146.452,82.53C146.421,82.477 146.483,82.584 146.452,82.53z"/><path fill="#090909" d="M170.874,183.69C170.951,183.868 170.615,183.953 170.443,183.975C170.195,183.838 170.119,183.679 170.124,183.268C170.45,183.124 170.648,183.289 170.874,183.69z"/><path fill="#0b0b0b" d="M117.002,113.998C117.122,114.137 117.24,114.277 117.358,114.418C117.274,114.37 117.19,114.322 117.051,114.139C116.996,114.005 117,114 117.002,113.998z"/><path fill="#fbfbfb" d="M222.57,178.865C223.137,179.113 223.241,179.286 223.283,179.758C222.85,179.634 222.478,179.213 222.57,178.865z"/><path fill="#e9e9ea" d="M122.576,110.737C122.883,110.866 122.92,111.143 122.977,111.838C122.766,111.799 122.536,111.341 122.576,110.737z"/><path fill="#0b0b0b" d="M174.553,115.464C174.589,115.524 174.517,115.405 174.553,115.464z"/><path fill="#edeeed" d="M162.469,177.3C162.205,176.991 162.191,176.547 162.177,176.103C162.441,176.147 162.705,176.192 163.071,176.528C163.023,176.935 162.871,177.05 162.469,177.3z"/><path fill="#0b0b0b" d="M69.967,118.033C69.853,117.877 69.739,117.721 69.624,117.566C69.717,117.61 69.81,117.654 69.95,117.851C69.997,118.003 69.967,118.033 69.967,118.033z"/><path fill="#0b0b0b" d="M70.76,117.999C70.845,118.304 70.686,118.607 70.251,118.917C69.975,118.922 69.992,118.476 69.98,118.254C69.967,118.033 69.997,118.003 70.013,117.987C70.029,117.971 70.516,117.997 70.76,117.999z"/><path fill="#0b0b0b" d="M194.025,118.041C193.926,118.083 193.798,118.09 193.799,118.023C193.928,117.949 193.996,118.007 194.025,118.041z"/><path fill="#0b0b0b" d="M104.547,107.47C104.579,107.523 104.516,107.417 104.547,107.47z"/><path fill="#0b0b0b" d="M182.024,120.983C182.153,121.121 182.262,121.276 182.371,121.431C182.281,121.387 182.192,121.343 182.036,121.17C181.97,121.039 182.004,121 182.024,120.983z"/><path fill="#0b0b0b" d="M119.981,106.529C120.115,106.383 120.249,106.271 120.362,106.288C120.475,106.306 120.568,106.454 120.669,106.545C120.564,106.632 120.459,106.72 120.149,106.802C119.943,106.798 119.972,106.619 119.981,106.529z"/><path fill="#0b0b0b" d="M67.549,119.469C67.58,119.523 67.517,119.416 67.549,119.469z"/><path fill="#0b0b0b" d="M113.006,104.996C113.128,105.135 113.245,105.278 113.361,105.422C113.276,105.375 113.191,105.327 113.048,105.146C112.991,105.012 113,105 113.006,104.996z"/><path fill="#0b0b0b" d="M104.453,104.66C104.214,104.566 104.273,104.501 104.232,104.481C104.469,104.5 104.745,104.539 105.022,104.577C104.912,104.636 104.802,104.696 104.453,104.66z"/><path fill="#0b0b0b" d="M39.453,173.531C39.421,173.477 39.484,173.584 39.453,173.531z"/><path fill="#0b0b0b" d="M69.635,121.088C70,121.392 69.902,121.661 69.263,121.75C69.128,121.466 69.279,121.293 69.635,121.088z"/><path fill="#0b0b0b" d="M109.293,85.728C107.889,86.426 106.762,86.857 105.298,87.463C106.226,84.693 107.489,81.75 108.752,78.806C109.168,78.89 109.584,78.974 110,79.059C109.857,81.193 109.714,83.327 109.293,85.728z"/><path fill="#090909" d="M114,64.972C113.216,65.287 112.432,65.603 111.371,66.089C111.8,64.849 112.505,63.438 113.605,62.013C114,62 114,62 114,62.371C114,63.486 114,64.229 114,64.972z"/><path fill="#0b0b0b" d="M110.696,91.001C110.999,91.001 110.999,91.499 110.696,91.749C109.991,92 109.589,92 109.186,92.001C109.145,91.834 109.103,91.667 109.123,91.249C109.587,90.999 109.99,91 110.696,91.001z"/><path fill="#a6a5a6" d="M112.937,89.174C113.225,89.261 113.23,89.674 113.126,89.853C112.838,90.091 112.654,90.151 112.194,90.116C111.918,89.844 111.916,89.667 111.987,89.233C112.256,89.014 112.453,89.051 112.937,89.174z"/><path fill="#090a09" d="M114.313,65.036C114,64.229 114,63.486 114,62.371C114.625,62.564 115.25,63.127 116,63.988C115.626,64.557 115.126,64.828 114.313,65.036z"/><path fill="#090a09" d="M31.988,170.251C32.094,170.413 32.042,170.575 31.989,170.738C31.936,170.576 31.883,170.415 31.988,170.251z"/><path fill="#121212" d="M92.311,116.855C92.481,118.056 92.668,118.883 92.634,119.7C92.401,125.29 88.495,130.081 84.033,130.31C79.911,130.522 75.318,125.965 74.983,121.33C74.59,115.9 78.407,110.814 83.704,110.321C88.096,109.912 90.76,112.515 92.311,116.855M84.905,113.203C84.269,113.397 83.633,113.591 82.522,114.322C82.343,116.158 82.164,117.993 81.933,120.353C82.449,122.443 83.109,125.114 83.768,127.785C85.986,123.141 87.737,118.595 84.905,113.203z"/><path fill="#111111" d="M62.246,155.509C62.222,160.265 62.222,164.58 62.222,169.374C59.125,169.374 56.605,169.374 53.616,169.374C57.298,162.197 53.044,153.304 59.027,146.801C63.544,148.589 62.3,152.039 62.246,155.509z"/><path fill="#111111" d="M100.654,121.669C101.038,125.037 101.038,128.637 101.038,132.828C102.537,132.828 104.072,132.828 106.09,132.901C104.192,134.076 101.809,135.178 99.344,136.319C98.125,135.721 96.569,134.957 94.375,133.88C101.474,132.004 99.26,126.271 100.654,121.669z"/><path fill="#090a09" d="M71.95,133.601C72.081,134.313 71.725,135.066 71.166,135.61C71.038,135.734 70.211,135.139 69.705,134.875C70.267,134.438 70.828,134.002 71.95,133.601z"/><path fill="#090a09" d="M116.852,140.376C116.934,140.077 117.125,140.054 117.605,140.016C117.583,140.219 117.272,140.436 116.852,140.376z"/><path fill="#242425" d="M134.002,109.027C133.707,111.646 133.396,113.824 133.085,116.003C132.801,116.16 132.518,116.316 132.234,116.473C131.326,114.081 130.417,111.689 129.407,109.029C130.657,107.409 131.838,104.626 134.002,109.027z"/><path fill="#e9e9ea" d="M132.648,99.152C133.434,101.214 133.896,103.254 134.358,105.294C133.769,105.383 133.181,105.473 132.592,105.562C132.24,103.444 127.88,101.724 132.648,99.152z"/><path fill="#e9e9ea" d="M138.073,104.055C137.529,104.195 136.985,104.336 136.441,104.476C136.466,104.182 136.49,103.888 136.515,103.594C136.833,103.655 137.152,103.717 137.739,103.888C138.007,103.998 138.073,104.055 138.073,104.055z"/><path fill="#070607" d="M131.426,94.143C132.098,93.755 133.203,93.507 134.432,93.648C133.657,94.119 132.758,94.202 131.426,94.143z"/><path fill="#e9e9ea" d="M122.559,106.454C122.6,106.519 122.519,106.389 122.559,106.454z"/><path fill="#e9e9ea" d="M120.007,103.991C120.128,104.135 120.248,104.279 120.368,104.424C120.28,104.376 120.193,104.329 120.053,104.141C120,104 120.007,103.991 120.007,103.991z"/><path fill="#e9e9ea" d="M137.978,103.966C138.077,103.924 138.206,103.915 138.203,103.98C138.073,104.055 138.007,103.998 137.978,103.966z"/><path fill="#e9e9ea" d="M119.996,104.003C119.874,103.864 119.757,103.721 119.64,103.578C119.726,103.626 119.811,103.674 119.952,103.856C120.007,103.991 120,104 119.996,104.003z"/><path fill="#090a09" d="M109.115,92.372C109.589,92 109.991,92 110.695,91.998C110.834,93.184 110.671,94.371 110.231,95.788C109.65,94.927 109.347,93.834 109.115,92.372z"/><path fill="#090a09" d="M107.298,99.963C106.909,99.655 106.721,99.404 106.264,99.08C106.069,98.079 106.077,97.202 106.125,95.887C106.787,96.704 107.407,97.958 108.059,99.59C107.914,99.969 107.738,99.97 107.298,99.963z"/><path fill="#e9e9ea" d="M111.241,99.013C111.622,98.8 112.162,98.891 112.96,99.074C112.613,99.216 112.007,99.266 111.241,99.013z"/><path fill="#090a09" d="M107.673,192.676C107.485,193.062 106.943,193.318 106.218,193.378C106.463,192.97 106.891,192.758 107.673,192.676z"/><path fill="#090a09" d="M95.423,100.311C95.263,100.101 95.38,99.737 95.723,99.191C95.866,99.391 95.783,99.775 95.423,100.311z"/><path fill="#e1e2e1" d="M85.003,113.745C87.737,118.595 85.986,123.141 83.768,127.785C83.109,125.114 82.449,122.443 81.933,120.353C82.164,117.993 82.343,116.158 83.097,114.096C84.116,113.828 84.56,113.786 85.003,113.745z"/><path fill="#141414" d="M84.954,113.474C84.56,113.786 84.116,113.828 83.335,113.827C83.633,113.591 84.269,113.397 84.954,113.474z"/></svg>