<svg xmlns="http://www.w3.org/2000/svg" viewBox="0 0 249 187" xml:space="preserve"><path fill="#090909" d="M68.168,174.958C67.396,174.032 66.624,173.105 65.851,172.179C66.112,171.598 66.373,171.018 66.634,170.437C57.511,171.469 48.387,172.5 39.264,173.531C39.157,173.22 39.05,172.909 38.942,172.598C39.477,172.224 40.012,171.849 41.62,170.725C33.585,170.191 26.512,169.722 18.968,169.221C22.402,164.603 29.904,165.952 30.366,159.173C26.848,158.511 23.554,157.638 20.209,157.333C16.783,157.02 13.306,157.264 9.852,157.264C9.75,156.751 9.647,156.237 9.545,155.724C11.429,154.93 13.309,154.126 15.2,153.349C15.929,153.049 17.148,153.007 17.353,152.518C19.06,148.43 21.015,145.222 26.024,148.653C26.44,147.395 27.508,145.883 27.135,144.935C26.4,143.062 24.868,141.502 23.028,138.916C32.22,141.398 29.348,135.926 29.054,131.974C28.859,129.357 29.017,126.713 29.017,124.081C29.703,123.963 30.389,123.845 31.075,123.727C33.212,128.684 35.349,133.641 38.176,140.197C39.237,134.655 40.165,130.381 40.859,126.071C42.743,114.373 41.995,102.59 41.789,90.831C41.721,86.987 43.938,86.998 46.919,87.806C47.221,82.765 47.513,77.875 47.807,72.986C47.827,72.654 48.007,72.215 47.859,72.007C41.859,63.571 48.234,54.595 46.816,45.831C46.047,41.076 52.588,41.397 55.43,38.906C55.851,38.537 57.415,39.472 57.845,39.61C62.373,36.621 67.018,33.555 71.897,30.334C75.851,33.338 81.679,35.055 78.146,42.068C77.735,42.883 77.994,44.009 77.71,44.918C76.079,50.152 77.756,53.912 82.804,56.186C82.221,59.67 79.731,63.43 85.831,66.158C86.327,63.624 86.224,60.851 87.43,58.875C88.746,56.718 91.273,55.298 93.095,53.711C97.725,56.843 100.026,59.805 99.249,65.379C98.48,70.892 99.633,76.674 99.964,82.337C99.993,82.818 100.128,83.681 100.31,83.708C105.768,84.499 102.749,89.379 104.688,92.556C107.312,89.847 109.815,87.263 113.202,83.765C113.079,78.529 109.664,70.237 120.062,69.917C120.062,64.647 119.514,59.989 120.324,55.58C120.662,53.742 123.893,52.436 126.489,50.337C126.941,47.543 127.585,43.562 128.333,38.934C124.493,34.715 127.61,28.911 127.487,23.523C127.466,22.579 130.707,21.032 132.61,20.684C136.471,19.979 138.498,18.154 137.883,14.19C137.367,10.863 138.892,9.791 141.844,8.591C149.383,5.526 148.453,6.821 155.519,10.559C165.352,15.761 159.272,23.292 160.471,29.622C161.188,33.411 160.346,37.475 160.423,41.411C160.557,48.219 160.687,55.036 161.138,61.828C161.663,69.72 162.537,77.589 163.244,85.469C163.401,87.221 163.495,88.979 163.688,91.743C167.202,89.378 164.015,81.59 170.967,84.218C170.967,81.506 170.967,79.213 170.967,76.588C172.155,76.204 173.474,76.021 174.529,75.394C177.896,73.395 180.563,72.398 184.861,74.741C189.572,77.309 188.158,81.028 188.268,84.073C188.422,88.308 187.998,92.034 193.076,93.624C193.732,93.829 194.218,95.523 194.268,96.553C194.528,101.938 194.472,107.342 194.864,112.716C194.983,114.339 196.181,115.883 196.885,117.463C198.333,116.139 201.093,114.721 201.007,113.506C200.603,107.802 205.677,108.197 208.521,106.329C209.038,105.99 212.192,107.91 212.289,108.959C213.186,118.588 213.646,128.256 214.312,137.908C214.454,139.973 214.913,142.016 215.36,144.951C218.586,141.434 221.121,138.672 223.655,135.909C223.889,136.036 224.123,136.163 224.357,136.289C223.508,139.213 222.659,142.138 221.645,145.626C223.326,144.78 224.468,144.204 225.611,143.628C225.84,143.823 226.07,144.018 226.3,144.213C225.482,145.592 224.664,146.97 224.534,147.189C225.953,149.342 226.706,150.953 227.884,152.143C229.105,153.374 230.628,154.454 232.218,155.133C234.374,156.054 236.72,156.53 238.984,157.196C238.911,157.885 238.838,158.574 238.765,159.263C235.46,159.093 232.157,158.816 228.851,158.781C225.129,158.741 221.405,158.919 217.682,159.002C217.847,159.606 218.013,160.209 217.697,161.468C215.819,163.366 214.423,164.608 213.026,165.849C207.836,165.849 202.645,165.849 197.083,165.849C197.258,167.135 197.394,168.134 197.556,169.328C195.413,169.945 193.246,170.568 191.035,171.59C190.991,171.988 190.937,171.92 190.937,171.92C183.943,175.308 177.128,172.08 169.012,170.577C170.491,172.948 171.275,174.205 172.052,175.462C157.745,184.663 142.692,178.808 127.611,177.266C129.114,176.295 130.618,175.324 132.122,174.353C132.061,173.997 132,173.642 131.939,173.287C128.097,173.48 124.255,173.673 119.22,173.927C120.591,172.119 121.197,171.32 122.139,170.077C114.013,167.522 107.034,177.195 98.996,170.457C98.944,171.057 98.891,171.657 98.838,172.257C99.817,173.192 100.796,174.127 102.313,175.575C100.46,176.129 99.021,176.594 97.563,176.988C95.095,177.654 91.49,174.98 90.215,179.78C90.057,180.375 85.632,180.053 83.226,179.782C80.149,179.434 77.115,178.706 73.366,177.951C71.169,176.826 69.669,175.892 68.168,174.958M158.072,123.827C158.964,127.844 159.856,131.861 160.747,135.879C161.367,135.727 161.987,135.576 162.607,135.425C161.724,131.302 160.84,127.18 160.237,122.54C160.55,122.321 160.863,122.103 161.76,122.294C162.738,124.573 163.499,126.979 164.739,129.106C167.474,133.796 176.125,133.863 178.765,129.336C181.941,133.968 182.808,134.123 186.834,130.237C187.248,130.149 187.661,130.061 188.112,130.565C188.581,131.069 189.05,131.573 189.595,131.997C189.595,131.997 189.532,132.079 189.873,132.876C191.581,132.898 193.288,132.92 195.618,132.962C195.629,132.394 195.641,131.825 195.796,130.481C194.917,123.418 193.887,122.374 188.577,122.288C186.37,122.252 184.173,121.602 181.972,121.232C183.582,119.451 185.221,118.403 186.816,118.466C188.373,118.527 189.886,119.722 191.672,120.535C192.465,108.565 188.841,104.444 180.358,106.606C182.872,115.161 182.782,115.439 177.689,116.311C177.463,118.481 177.248,120.543 177.032,122.62C173.831,121.785 171.488,121.174 169.283,120.273C169.283,120.273 169.041,120.064 169.129,119.17C169.75,115.927 169.514,113.201 165.016,113.121C165.016,110.398 165.016,107.935 165.016,105.659C162.488,104.8 160.281,104.05 158.713,103.518C159.703,101.606 160.765,100.367 160.955,99.006C161.274,96.722 161.067,94.361 161.03,92.033C160.932,85.945 160.262,85.289 153.391,84.836C153.391,86.99 153.391,89.116 153.391,91.241C152.981,91.509 152.571,91.777 152.162,92.046C152.046,85.705 150.082,81.316 143.077,82.093C143.077,86.656 142.902,91.281 143.203,95.875C143.276,96.99 144.918,98.001 146.038,99.763C146.017,100.489 145.996,101.215 145.082,101.997C144.378,102.583 143.086,103.148 143.064,103.759C142.894,108.468 142.97,113.186 142.97,117.985C145.199,117.985 146.823,117.985 148.17,117.985C149.287,116.156 150.511,114.606 151.233,112.85C152.093,110.76 152.52,108.493 153.806,105.966C158.334,108.154 158.411,112.63 158.962,117.26C155.111,118.706 157.188,120.938 158.072,123.827M85.005,83.246C84.676,80.038 83.798,77.4 79.776,78.018C79.983,82.177 80.184,86.22 80.466,91.894C82.63,89.574 84.016,88.09 85.537,85.745C86.249,86.396 87.094,86.952 87.644,87.72C88.708,89.205 89.605,90.809 91.131,93.265C94.004,81.339 93.136,80.103 86.205,79.172C86.99,80.608 87.69,81.887 88.865,84.036C87.069,84.036 85.972,84.036 85.005,83.246M143.084,131.778C143.084,134.262 143.084,136.745 143.084,139.229C143.634,139.231 144.185,139.234 144.735,139.236C144.735,136.778 144.735,134.321 145.028,131.205C146.99,127.828 148.951,124.452 151.292,120.421C148.078,120.17 145.135,119.94 142.124,119.704C142.537,121.999 142.952,123.721 143.132,125.467C143.319,127.275 143.277,129.107 143.084,131.778M203.983,141.553C204.162,141.775 204.342,141.997 204.521,142.219C204.599,141.271 204.678,140.323 204.677,138.676C206.126,138.486 207.575,138.297 209.115,138.813C209.797,140.163 210.48,141.513 211.328,143.19C209.177,143.785 207.717,144.188 206.256,144.591C206.291,144.877 206.325,145.164 206.359,145.45C208.127,145.45 209.895,145.45 212.783,145.45C210.141,142.774 215.264,138.249 208.697,136.263C203.477,136.263 198.257,136.263 192.443,136.263C193.745,139.126 194.935,141.744 196.608,145.426C197.752,143.043 198.448,141.593 199.356,139.7C200.604,140.054 202.282,140.531 203.983,141.553M90.115,153.597C90.339,153.597 90.564,153.596 90.788,153.595C90.545,153.371 90.302,153.147 90.329,152.237C85.229,145.002 78.974,144.152 72.772,149.575C74.227,150.165 76.327,150.379 77.335,151.541C80.743,155.468 83.946,158.397 88.541,153.105C88.767,152.845 89.501,153.026 90.115,153.597M72.723,53.963C72.736,53.972 72.749,53.98 72.762,53.988C72.657,54.095 72.551,54.201 73.072,54.992C73.072,60.977 73.072,66.963 73.072,73.042C73.62,72.906 74.401,72.599 75.202,72.532C79.533,72.171 81.216,70.736 78.562,66.312C77.679,64.841 78.11,62.41 78.353,60.469C78.883,56.234 77.464,54.647 72.723,53.963M94.338,97.524C94.291,98.214 94.243,98.905 93.466,99.241C91.29,93.872 90.484,93.447 84.973,94.56C90.042,97.034 86.27,102.256 88.302,106.095C90.42,105.647 93.97,105.875 94.685,104.561C96.814,100.65 97.06,104.29 98.063,105.534C98.374,105.643 98.685,105.752 99.849,105.965C100.307,104.043 101.055,102.139 101.165,100.198C101.404,96 98.973,94.84 94.338,97.524M168.547,155.069C168.962,155.31 169.413,155.805 169.784,155.75C171.75,155.461 173.695,155.034 175.647,154.655C175.115,153.774 174.584,152.892 174.038,151.253C172.658,145.657 166.802,145.08 163.352,141.786C160.043,138.627 156.322,138.073 152.825,141.471C154.117,142.902 155.31,144.528 156.797,145.811C160.431,148.945 164.202,151.921 168.547,155.069M108.257,134.166C113.98,134.166 119.702,134.166 125.811,134.166C124.712,131.276 128.854,126.289 122.57,125.249C116.91,124.312 111.105,124.248 106.357,123.876C106.357,127.628 106.357,131.015 105.946,135.052C102.662,136.28 99.378,137.509 96.115,138.729C102.63,140.663 106.615,139.344 108.257,134.166M152.75,26.891C154.178,26.817 155.606,26.743 156.984,26.671C158.172,13.996 158.172,13.996 154.775,15.114C153.167,12.968 151.705,11.016 150.242,9.063C149.76,9.315 149.278,9.567 148.796,9.818C149.185,14.515 149.574,19.212 149.242,24.062C147.542,23.297 145.842,22.532 143.713,21.574C143.713,27.159 143.713,32.44 143.713,38.012C145.916,39.23 148.434,40.623 151.1,42.796C148.821,42.456 146.542,42.115 143.49,41.659C143.49,45.643 143.24,50.026 143.603,54.358C143.766,56.3 145.156,58.14 145.976,60.613C145.973,61.003 145.97,61.394 145.092,61.729C144.482,62.627 143.378,63.507 143.344,64.427C143.166,69.209 143.261,74.002 143.261,78.75C148.405,80.187 153.153,83.616 158.585,80.981C158.585,78.026 158.279,75.338 158.656,72.75C159.243,68.721 157.807,66.175 154.292,64.328C154.519,63.864 154.745,63.399 155.413,62.32C156.231,60.889 157.591,59.523 157.772,58.015C158.459,52.306 158.596,46.606 153.897,43.012C155.067,42.624 157.04,42.508 157.277,41.805C159.122,36.347 156.534,29.639 152.75,26.891M156.984,164.144C149.596,161.437 142.571,163.473 135.392,165.149C141.548,167.564 148.082,168.822 152.926,172.381C158.119,176.196 162.348,174.973 167.491,173.916C166.459,167.698 161.27,167.043 156.984,164.144M59.633,151.039C51.607,147.055 50.857,146.052 45.282,153.001C44.063,154.521 42.026,155.535 40.176,156.354C38.156,157.249 35.915,157.646 33.771,158.26C37.096,160.259 39.899,161.21 42.779,161.719C44.463,162.016 46.546,162.145 47.971,161.415C51.931,159.384 55.709,156.965 59.392,154.453C60.105,153.967 60.061,152.371 59.633,151.039M136.154,142.367C134.857,140.975 133.673,138.524 132.242,138.37C124.933,137.581 117.561,137.385 110.21,136.982C115.324,139.22 119.535,141.749 118.509,148.031C124.268,147.217 129.309,146.611 134.292,145.692C135.097,145.544 135.645,144.006 136.154,142.367M117.022,117.414C116.95,115.96 116.878,114.505 116.807,113.068C108.547,111.704 100.588,110.39 92.629,109.076C92.539,109.33 92.448,109.585 92.358,109.839C94.507,110.802 96.657,111.766 99.223,112.916C99.223,115.16 99.223,117.576 99.223,120.105C104.836,120.371 110.024,120.702 115.214,120.746C115.81,120.751 116.419,119.153 117.022,117.414M147.847,153.103C140.775,146.818 132.948,151.206 126.217,151.108C127.546,153.019 128.617,155.269 130.323,156.819C132.122,158.455 134.525,160.451 136.668,160.457C140.4,160.466 144.134,159.068 147.951,158.242C147.951,156.933 147.951,155.45 147.847,153.103M76.281,167.854C81.983,172.412 88.73,171.403 95.531,171.85C89.975,162.139 79.026,158.353 72.216,167.545C73.469,167.545 74.515,167.545 76.281,167.854M182.189,165.386C185.721,170.06 187.349,170.11 193.901,165.746C186.751,157.209 179.667,153.945 172.96,160.194C175.846,161.821 178.686,163.422 182.189,165.386M69.283,141.564C69.8,142.746 70.317,143.928 70.82,145.079C71.82,143.453 72.363,141.465 73.449,141.101C74.648,140.7 76.346,141.789 78.387,142.395C77.313,139.429 76.375,136.841 75.406,134.167C74.104,134.674 73.107,135.063 71.842,135.556C70.361,127.761 66.322,132.853 62.918,133.206C65.044,135.967 66.953,138.445 69.283,141.564M191.154,96.932C188.511,94.811 185.869,92.689 182.629,90.089C183.175,104.379 183.175,104.379 190.8,105.681C190.917,103.043 191.032,100.428 191.154,96.932M207.48,158.16C209.277,158.16 211.075,158.16 213.116,158.16C207.252,149.504 201.865,147.505 195.511,152.019C199.417,154.178 203.039,156.181 207.48,158.16M188.9,135.602C186.648,135.451 184.395,135.3 181.323,135.093C183.738,139.134 185.822,142.621 188.112,146.452C189.971,142.596 194.311,139.734 188.9,135.602M72.995,48.972C73.707,48.131 74.914,47.358 75.039,46.437C75.427,43.579 75.405,40.666 75.558,37.434C74.687,36.833 73.418,35.957 71.364,34.54C70.847,39.194 70.313,43.185 70.065,47.194C70.03,47.747 71.415,48.389 72.995,48.972M98.386,162.46C100.868,164.084 103.349,165.707 105.941,167.403C107.178,166.322 108.48,165.186 109.775,164.056C105.297,158.911 104.149,158.711 98.386,162.46M207.409,120.956C206.464,120.631 205.52,120.307 204.613,119.995C205.146,122.36 205.582,124.292 206.018,126.224C206.386,126.001 206.755,125.777 207.123,125.554C208.36,127.361 209.596,129.169 210.832,130.977C211.181,130.819 211.531,130.662 211.88,130.504C210.592,127.48 209.304,124.457 207.409,120.956M182.716,77.02C182.145,77.296 181.091,77.553 181.079,77.853C180.956,80.87 181.004,83.894 181.004,86.839C182.166,86.778 183.639,86.701 186.08,86.573C185.113,83.394 184.226,80.48 182.716,77.02M176.279,140.289C176.225,138.52 176.742,136.366 175.905,135.125C175.389,134.359 172.81,134.983 171.616,134.983C173.145,138.574 174.318,141.329 175.491,144.083C175.732,144.009 175.972,143.935 176.213,143.86C176.213,142.919 176.213,141.977 176.279,140.289M77.787,77.994C78.18,77.839 78.573,77.684 78.966,77.529C78.611,77.313 78.186,76.859 77.919,76.938C77.563,77.044 77.33,77.564 77.787,77.994M48.834,88.311C48.246,88.15 47.657,87.99 47.068,87.829C47.461,88.215 47.855,88.601 48.834,88.311z"/><path fill="#212221" d="M134.07,182.716C131.993,183.99 129.764,185.619 127.439,185.769C124.867,185.936 122.208,184.749 119.263,184.079C124.514,178.765 127.437,178.519 134.07,182.716z"/><path fill="#1c1c1c" d="M166.768,180.837C171.859,177.112 176.353,177.086 181.416,182.539C175.979,182.539 171.394,182.553 166.811,182.475C166.67,182.472 166.546,181.513 166.768,180.837z"/><path fill="#272728" d="M213.191,166.217C214.423,164.608 215.819,163.366 217.544,161.884C218.496,162.339 218.991,163.316 219.77,163.673C221.558,164.492 223.485,165.009 225.223,166.219C221.175,168.929 217.275,168.681 213.191,166.217z"/><path fill="#1c1c1c" d="M68.31,175.413C69.669,175.892 71.169,176.826 72.956,177.948C68.905,179.794 64.59,181.728 59.649,178.299C62.583,177.489 65.518,176.679 68.31,175.413z"/><path fill="#212221" d="M190.957,171.961C194.689,172.267 198.454,172.601 202.219,172.935C202.198,173.696 202.177,174.458 202.156,175.219C198.932,175.219 195.703,175.297 192.491,175.1C192.165,175.08 191.94,173.405 191.303,172.209C190.937,171.92 190.991,171.988 190.957,171.961z"/><path fill="#ececec" d="M186.309,130.687C182.808,134.123 181.941,133.968 178.765,129.336C176.125,133.863 167.474,133.796 164.739,129.106C163.499,126.979 162.738,124.573 161.623,121.695C164.039,120.919 166.592,120.741 169.146,120.563C171.488,121.174 173.831,121.785 177.032,122.62C177.248,120.543 177.463,118.481 177.689,116.311C182.782,115.439 182.872,115.161 180.358,106.606C188.841,104.444 192.465,108.565 191.672,120.535C189.886,119.722 188.373,118.527 186.816,118.466C185.221,118.403 183.582,119.451 181.972,121.232C184.173,121.602 186.37,122.252 188.577,122.288C193.887,122.374 194.917,123.418 195.515,131.273C195.155,132.358 195.075,132.649 194.996,132.941C193.288,132.92 191.581,132.898 190.077,132.477C191.342,131.482 192.447,130.943 193.407,130.213C193.517,130.13 192.818,128.981 192.494,128.327C191.616,129.27 190.721,130.197 189.874,131.166C189.672,131.397 189.633,131.77 189.519,132.077C189.05,131.573 188.581,131.069 188.327,130.05C187.998,128.793 187.453,128.049 186.908,127.305C186.708,128.432 186.509,129.56 186.309,130.687z"/><path fill="#f0f0f0" d="M145.838,99.06C144.918,98.001 143.276,96.99 143.203,95.875C142.902,91.281 143.077,86.656 143.077,82.093C150.082,81.316 152.046,85.705 152.162,92.046C152.571,91.777 152.981,91.509 153.391,91.241C153.391,89.116 153.391,86.99 153.391,84.836C160.262,85.289 160.932,85.945 161.03,92.033C161.067,94.361 161.274,96.722 160.955,99.006C160.765,100.367 159.703,101.606 158.713,103.518C160.281,104.05 162.488,104.8 165.016,105.659C165.016,107.935 165.016,110.398 165.016,113.121C169.514,113.201 169.75,115.927 168.729,119.506C165.324,118.789 162.318,117.736 159.313,116.683C158.411,112.63 158.334,108.154 153.42,105.761C151.732,104.382 150.428,103.207 149.076,101.65C147.964,100.533 146.901,99.796 145.838,99.06M153.801,100.402C153.797,100.79 153.792,101.179 153.788,101.567C153.949,101.569 154.251,101.581 154.252,101.57C154.282,101.184 154.283,100.795 153.801,100.402z"/><path fill="#ebebeb" d="M154.068,64.797C157.807,66.175 159.243,68.721 158.656,72.75C158.279,75.338 158.585,78.026 158.585,80.981C153.153,83.616 148.405,80.187 143.261,78.75C143.261,74.002 143.166,69.209 143.344,64.427C143.378,63.507 144.482,62.627 145.809,61.972C149.146,62.764 150.699,66.434 154.068,64.797z"/><path fill="#efefef" d="M145.988,60.026C145.156,58.14 143.766,56.3 143.603,54.358C143.24,50.026 143.49,45.643 143.49,41.659C146.542,42.115 148.821,42.456 151.313,42.411C151.999,42.3 152.471,42.573 152.944,42.847C158.596,46.606 158.459,52.306 157.772,58.015C157.591,59.523 156.231,60.889 154.827,62.617C153.157,61.475 152.074,60.036 151.388,59.126C149.59,59.426 147.789,59.726 145.988,60.026z"/><path fill="#eceded" d="M157.265,164.441C161.27,167.043 166.459,167.698 167.491,173.916C162.348,174.973 158.119,176.196 152.926,172.381C148.082,168.822 141.548,167.564 135.392,165.149C142.571,163.473 149.596,161.437 157.265,164.441z"/><path fill="#f2f3f2" d="M153.421,42.929C152.471,42.573 151.999,42.3 151.239,42.021C148.434,40.623 145.916,39.23 143.713,38.012C143.713,32.44 143.713,27.159 143.713,21.574C145.842,22.532 147.542,23.297 149.713,24.272C150.743,25.305 151.302,26.13 151.861,26.954C156.534,29.639 159.122,36.347 157.277,41.805C157.04,42.508 155.067,42.624 153.421,42.929M151.404,29.472C151.404,29.472 151.524,29.394 151.404,29.472z"/><path fill="#efefef" d="M60,151.163C60.061,152.371 60.105,153.967 59.392,154.453C55.709,156.965 51.931,159.384 47.971,161.415C46.546,162.145 44.463,162.016 42.779,161.719C39.899,161.21 37.096,160.259 33.771,158.26C35.915,157.646 38.156,157.249 40.176,156.354C42.026,155.535 44.063,154.521 45.282,153.001C50.857,146.052 51.607,147.055 60,151.163z"/><path fill="#eceded" d="M106.357,134.402C106.357,131.015 106.357,127.628 106.357,123.876C111.105,124.248 116.91,124.312 122.57,125.249C128.854,126.289 124.712,131.276 125.811,134.166C119.702,134.166 113.98,134.166 107.81,134.496C107.028,134.685 106.692,134.544 106.357,134.402z"/><path fill="#ebebeb" d="M136.233,142.738C135.645,144.006 135.097,145.544 134.292,145.692C129.309,146.611 124.268,147.217 118.509,148.031C119.535,141.749 115.324,139.22 110.21,136.982C117.561,137.385 124.933,137.581 132.242,138.37C133.673,138.524 134.857,140.975 136.233,142.738z"/><path fill="#e9e9ea" d="M117.022,117.856C116.419,119.153 115.81,120.751 115.214,120.746C110.024,120.702 104.836,120.371 99.223,120.105C99.223,117.576 99.223,115.16 99.223,112.916C96.657,111.766 94.507,110.802 92.358,109.839C92.448,109.585 92.539,109.33 92.629,109.076C100.588,110.39 108.547,111.704 116.807,113.068C116.878,114.505 116.95,115.96 117.022,117.856z"/><path fill="#efefef" d="M147.899,153.535C147.951,155.45 147.951,156.933 147.951,158.242C144.134,159.068 140.4,160.466 136.668,160.457C134.525,160.451 132.122,158.455 130.323,156.819C128.617,155.269 127.546,153.019 126.217,151.108C132.948,151.206 140.775,146.818 147.899,153.535z"/><path fill="#f3f3f3" d="M167.917,154.961C164.202,151.921 160.431,148.945 156.797,145.811C155.31,144.528 154.117,142.902 152.825,141.471C156.322,138.073 160.043,138.627 163.352,141.786C166.802,145.08 172.658,145.657 173.643,151.673C171.472,153.05 169.694,154.005 167.917,154.961z"/><path fill="#eceded" d="M75.92,167.699C74.515,167.545 73.469,167.545 72.216,167.545C79.026,158.353 89.975,162.139 95.531,171.85C88.73,171.403 81.983,172.412 75.92,167.699z"/><path fill="#e7e7e7" d="M181.858,165.205C178.686,163.422 175.846,161.821 172.96,160.194C179.667,153.945 186.751,157.209 193.901,165.746C187.349,170.11 185.721,170.06 181.858,165.205z"/><path fill="#f5f5f6" d="M149.125,102.031C150.428,103.207 151.732,104.382 153.085,105.93C152.52,108.493 152.093,110.76 151.233,112.85C150.511,114.606 149.287,116.156 148.17,117.985C146.823,117.985 145.199,117.985 142.97,117.985C142.97,113.186 142.894,108.468 143.064,103.759C143.086,103.148 144.378,102.583 145.712,102.231C147.27,102.321 148.197,102.176 149.125,102.031z"/><path fill="#e4e4e4" d="M152.305,26.922C151.302,26.13 150.743,25.305 150.074,24.195C149.574,19.212 149.185,14.515 148.796,9.818C149.278,9.567 149.76,9.315 150.242,9.063C151.705,11.016 153.167,12.968 154.775,15.114C158.172,13.996 158.172,13.996 156.984,26.671C155.606,26.743 154.178,26.817 152.305,26.922z"/><path fill="#ebebeb" d="M98.041,104.987C97.06,104.29 96.814,100.65 94.685,104.561C93.97,105.875 90.42,105.647 88.302,106.095C86.27,102.256 90.042,97.034 84.973,94.56C90.484,93.447 91.29,93.872 94.013,99.657C95.51,100.341 96.459,100.608 97.408,100.875C97.627,100.515 97.845,100.155 98.063,99.795C96.93,98.833 95.797,97.872 94.664,96.91C98.973,94.84 101.404,96 101.165,100.198C101.055,102.139 100.307,104.043 99.306,105.724C98.576,105.241 98.335,105.075 98.041,104.987z"/><path fill="#e9e9ea" d="M72.454,54.328C77.464,54.647 78.883,56.234 78.353,60.469C78.11,62.41 77.679,64.841 78.562,66.312C81.216,70.736 79.533,72.171 75.202,72.532C74.401,72.599 73.62,72.906 73.072,73.042C73.072,66.963 73.072,60.977 72.792,54.641C72.512,54.291 72.454,54.328 72.454,54.328z"/><path fill="#e9e9ea" d="M89.999,153.001C89.501,153.026 88.767,152.845 88.541,153.105C83.946,158.397 80.743,155.468 77.335,151.541C76.327,150.379 74.227,150.165 72.772,149.575C78.974,144.152 85.229,145.002 90.179,152.6C90.029,152.963 89.999,153.001 89.999,153.001z"/><path fill="#e9e9ea" d="M69.072,141.243C66.953,138.445 65.044,135.967 62.918,133.206C66.322,132.853 70.361,127.761 71.842,135.556C73.107,135.063 74.104,134.674 75.406,134.167C76.375,136.841 77.313,139.429 78.387,142.395C76.346,141.789 74.648,140.7 73.449,141.101C72.363,141.465 71.82,143.453 70.82,145.079C70.317,143.928 69.8,142.746 69.072,141.243z"/><path fill="#e9e9ea" d="M191.151,97.372C191.032,100.428 190.917,103.043 190.8,105.681C183.175,104.379 183.175,104.379 182.629,90.089C185.869,92.689 188.511,94.811 191.151,97.372z"/><path fill="#e7e7e7" d="M207.071,158.171C203.039,156.181 199.417,154.178 195.511,152.019C201.865,147.505 207.252,149.504 213.116,158.16C211.075,158.16 209.277,158.16 207.071,158.171z"/><path fill="#e4e4e4" d="M189.319,135.641C194.311,139.734 189.971,142.596 188.112,146.452C185.822,142.621 183.738,139.134 181.323,135.093C184.395,135.3 186.648,135.451 189.319,135.641z"/><path fill="#ebebeb" d="M209.024,138.107C207.575,138.297 206.126,138.486 204.483,139.417C204.18,140.441 204.07,140.724 203.96,141.007C202.282,140.531 200.604,140.054 199.356,139.7C198.448,141.593 197.752,143.043 196.608,145.426C194.935,141.744 193.745,139.126 192.443,136.263C198.257,136.263 203.477,136.263 208.929,136.905C209.116,137.733 209.07,137.92 209.024,138.107z"/><path fill="#ececec" d="M143.335,130.928C143.277,129.107 143.319,127.275 143.132,125.467C142.952,123.721 142.537,121.999 142.124,119.704C145.135,119.94 148.078,120.17 151.292,120.421C148.951,124.452 146.99,127.828 144.716,131.4C144.047,131.372 143.691,131.15 143.335,130.928z"/><path fill="#dddddd" d="M84.876,84.036C85.972,84.036 87.069,84.036 88.865,84.036C87.69,81.887 86.99,80.608 86.205,79.172C93.136,80.103 94.004,81.339 91.131,93.265C89.605,90.809 88.708,89.205 87.644,87.72C87.094,86.952 86.249,86.396 85.358,85.922C85.12,85.926 85.061,85.752 85.352,85.17C85.478,84.483 85.254,84.204 84.987,83.946C84.944,83.967 84.876,84.036 84.876,84.036z"/><path fill="#fafafa" d="M72.569,48.981C71.415,48.389 70.03,47.747 70.065,47.194C70.313,43.185 70.847,39.194 71.364,34.54C73.418,35.957 74.687,36.833 75.558,37.434C75.405,40.666 75.427,43.579 75.039,46.437C74.914,47.358 73.707,48.131 72.569,48.981z"/><path fill="#dadada" d="M85.002,85.578C85.061,85.752 85.12,85.926 85.29,86.352C84.016,88.09 82.63,89.574 80.466,91.894C80.184,86.22 79.983,82.177 79.776,78.018C83.798,77.4 84.676,80.038 84.941,83.641C84.876,84.036 84.944,83.967 84.702,84.028C84.641,84.586 84.822,85.082 85.002,85.578z"/><path fill="#e9e9ea" d="M98.677,162.244C104.149,158.711 105.297,158.911 109.775,164.056C108.48,165.186 107.178,166.322 105.941,167.403C103.349,165.707 100.868,164.084 98.677,162.244z"/><path fill="#4b4c4c" d="M159.138,116.972C162.318,117.736 165.324,118.789 168.685,119.953C169.041,120.064 169.283,120.273 169.215,120.418C166.592,120.741 164.039,120.919 161.331,121.491C160.863,122.103 160.55,122.321 159.808,122.722C158.984,122.945 158.59,122.987 158.196,123.029C157.188,120.938 155.111,118.706 159.138,116.972z"/><path fill="#dadada" d="M207.713,121.195C209.304,124.457 210.592,127.48 211.88,130.504C211.531,130.662 211.181,130.819 210.832,130.977C209.596,129.169 208.36,127.361 207.123,125.554C206.755,125.777 206.386,126.001 206.018,126.224C205.582,124.292 205.146,122.36 204.613,119.995C205.52,120.307 206.464,120.631 207.713,121.195z"/><path fill="#e9e9ea" d="M183.028,77.293C184.226,80.48 185.113,83.394 186.08,86.573C183.639,86.701 182.166,86.778 181.004,86.839C181.004,83.894 180.956,80.87 181.079,77.853C181.091,77.553 182.145,77.296 183.028,77.293z"/><path fill="#dadada" d="M176.246,140.662C176.213,141.977 176.213,142.919 176.213,143.86C175.972,143.935 175.732,144.009 175.491,144.083C174.318,141.329 173.145,138.574 171.616,134.983C172.81,134.983 175.389,134.359 175.905,135.125C176.742,136.366 176.225,138.52 176.246,140.662z"/><path fill="#2c2c2c" d="M145.982,60.319C147.789,59.726 149.59,59.426 151.388,59.126C152.074,60.036 153.157,61.475 154.606,62.924C154.745,63.399 154.519,63.864 154.18,64.563C150.699,66.434 149.146,62.764 146.246,62C145.97,61.394 145.973,61.003 145.982,60.319z"/><path fill="#cbcbcb" d="M158.134,123.428C158.59,122.987 158.984,122.945 159.667,122.98C160.84,127.18 161.724,131.302 162.607,135.425C161.987,135.576 161.367,135.727 160.747,135.879C159.856,131.861 158.964,127.844 158.134,123.428z"/><path fill="#272728" d="M168.232,155.015C169.694,154.005 171.472,153.05 173.65,152.053C174.584,152.892 175.115,153.774 175.647,154.655C173.695,155.034 171.75,155.461 169.784,155.75C169.413,155.805 168.962,155.31 168.232,155.015z"/><path fill="#212221" d="M106.151,134.727C106.692,134.544 107.028,134.685 107.637,134.817C106.615,139.344 102.63,140.663 96.115,138.729C99.378,137.509 102.662,136.28 106.151,134.727z"/><path fill="#1c1c1c" d="M209.069,138.46C209.07,137.92 209.116,137.733 209.201,137.26C215.264,138.249 210.141,142.774 212.783,145.45C209.895,145.45 208.127,145.45 206.359,145.45C206.325,145.164 206.291,144.877 206.256,144.591C207.717,144.188 209.177,143.785 211.328,143.19C210.48,141.513 209.797,140.163 209.069,138.46z"/><path fill="#aaabab" d="M143.21,131.353C143.691,131.15 144.047,131.372 144.569,131.729C144.735,134.321 144.735,136.778 144.735,139.236C144.185,139.234 143.634,139.231 143.084,139.229C143.084,136.745 143.084,134.262 143.21,131.353z"/><path fill="#efefef" d="M149.076,101.65C148.197,102.176 147.27,102.321 146.158,102.203C145.996,101.215 146.017,100.489 145.938,99.412C146.901,99.796 147.964,100.533 149.076,101.65z"/><path fill="#dddddd" d="M94.501,97.217C95.797,97.872 96.93,98.833 98.063,99.795C97.845,100.155 97.627,100.515 97.408,100.875C96.459,100.608 95.51,100.341 94.378,99.835C94.243,98.905 94.291,98.214 94.501,97.217z"/><path fill="#dddddd" d="M186.571,130.462C186.509,129.56 186.708,128.432 186.908,127.305C187.453,128.049 187.998,128.793 188.309,129.755C187.661,130.061 187.248,130.149 186.571,130.462z"/><path fill="#dadada" d="M77.416,77.95C77.33,77.564 77.563,77.044 77.919,76.938C78.186,76.859 78.611,77.313 78.966,77.529C78.573,77.684 78.18,77.839 77.416,77.95z"/><path fill="#1c1c1c" d="M203.972,141.28C204.07,140.724 204.18,140.441 204.523,139.766C204.678,140.323 204.599,141.271 204.521,142.219C204.342,141.997 204.162,141.775 203.972,141.28z"/><path fill="#fafafa" d="M48.541,88.649C47.855,88.601 47.461,88.215 47.068,87.829C47.657,87.99 48.246,88.15 48.541,88.649z"/><path fill="#e9e9ea" d="M90.044,152.943C90.302,153.147 90.545,153.371 90.788,153.595C90.564,153.596 90.339,153.597 90.057,153.299C89.999,153.001 90.029,152.963 90.044,152.943z"/><path fill="#dddddd" d="M98.052,105.261C98.335,105.075 98.576,105.241 98.879,105.672C98.685,105.752 98.374,105.643 98.052,105.261z"/><path fill="#e9e9ea" d="M72.479,54.299C72.551,54.201 72.657,54.095 72.762,53.988C72.749,53.98 72.736,53.972 72.588,54.146C72.454,54.328 72.512,54.291 72.479,54.299z"/><path fill="#dddddd" d="M195.307,132.952C195.075,132.649 195.155,132.358 195.443,131.661C195.641,131.825 195.629,132.394 195.307,132.952z"/><path fill="#dddddd" d="M189.557,132.037C189.633,131.77 189.672,131.397 189.874,131.166C190.721,130.197 191.616,129.27 192.494,128.327C192.818,128.981 193.517,130.13 193.407,130.213C192.447,130.943 191.342,131.482 189.906,132.079C189.532,132.079 189.595,131.997 189.557,132.037z"/><path fill="#efefef" d="M154.045,100.404C154.283,100.795 154.282,101.184 154.252,101.57C154.251,101.581 153.949,101.569 153.788,101.567C153.792,101.179 153.797,100.79 154.045,100.404z"/><path fill="#e4e4e4" d="M151.464,29.433C151.524,29.394 151.404,29.472 151.464,29.433z"/><path fill="#090909" d="M85.352,85.17C84.822,85.082 84.641,84.586 84.746,84.007C85.254,84.204 85.478,84.483 85.352,85.17z"/></svg>