<svg xmlns="http://www.w3.org/2000/svg" viewBox="0 0 197 212" xml:space="preserve"><path fill="#0c0c0c" d="M173.812,193.81C168.578,193.81 163.344,193.81 158.11,193.81C158.061,194.279 158.012,194.747 157.964,195.216C161.375,196.798 164.786,198.379 168.197,199.961C168.115,200.516 168.033,201.071 167.951,201.626C162.757,201.626 157.562,201.626 152.034,201.626C152.184,200.446 152.3,199.535 152.442,198.421C146.795,199.199 141.555,199.921 135.087,200.811C138.091,202.001 139.914,202.722 141.736,203.444C141.674,203.844 141.611,204.244 141.549,204.644C137.449,204.644 133.35,204.644 129.254,204.644C129.501,203.928 129.765,203.161 130.154,202.033C124.719,202.413 119.429,203.487 114.316,202.932C109.72,202.433 104.664,201.456 99.971,197.048C96.593,197.416 91.451,197.976 86.31,198.535C86.182,197.922 86.055,197.308 85.927,196.695C88.456,195.982 90.985,195.269 94.179,194.368C92.226,193.984 90.799,193.702 88.855,193.319C89.935,192.14 90.833,191.16 92.551,189.285C85.654,189.377 79.521,187.696 73.971,192.057C73.281,192.599 72.094,192.703 71.143,192.684C66.857,192.601 62.548,192.056 58.3,192.376C55.896,192.557 53.643,194.696 51.237,194.889C46.12,195.3 40.947,195.015 35.57,195.015C34.512,198.238 29.344,199.109 20.389,196.422C24.401,194.097 27.777,192.141 31.152,190.186C31.037,189.888 30.922,189.589 30.806,189.291C23.32,189.291 15.833,189.291 8.438,189.291C12.782,185.793 16.533,182.374 20.72,179.614C22.203,178.637 24.747,179.269 27.017,179.156C28.006,177.969 29.484,176.598 30.44,174.929C31.283,173.456 32.401,171.318 31.911,170.048C29.865,164.754 32.294,161.608 36.632,159.767C40.255,158.229 41.68,156.153 41.317,152.257C41.074,149.642 41.949,146.925 41.719,144.307C41.427,140.968 42.763,138.849 45.563,137.519C49.939,135.441 50.264,131.223 50.893,127.323C51.6,122.945 49.684,117.706 56.743,114.615C57.445,116.039 58.396,117.971 59.347,119.902C59.821,119.612 60.295,119.323 60.769,119.033C61.124,112.976 61.562,106.923 61.814,100.861C62.181,92.07 62.452,83.274 62.66,74.477C62.688,73.269 62.516,71.405 61.759,70.933C55.138,66.804 55.55,60.214 55.344,53.77C55.112,46.499 54.74,39.233 54.532,31.962C54.366,26.164 58.265,22.464 63.844,22.962C64.016,22.704 64.327,22.445 64.329,22.182C64.395,13.722 65.987,11.755 74.105,10.165C76.831,9.631 81.911,13.68 82.068,16.556C82.178,18.551 82.17,20.553 82.284,22.547C82.331,23.358 82.362,24.744 82.742,24.875C89.184,27.092 87.483,34.591 91.805,38.244C95.591,37.578 96.766,35.487 96.188,31.276C95.95,29.542 98.585,27.414 99.913,25.465C100.316,25.725 100.718,25.985 101.121,26.246C100.977,24.131 100.827,22.017 100.691,19.902C100.093,10.58 100.179,10.211 109.063,8.131C110.549,7.783 113.893,9.563 114.144,10.808C114.965,14.896 114.757,19.191 114.961,23.79C115.72,23.861 117.334,24.01 119.279,24.191C119.569,25.845 119.875,27.588 120.186,29.33C124.918,26.473 124.918,26.473 125.038,16.463C129.535,12.673 134.037,11.725 138.21,16.691C139.257,17.937 140.242,19.679 140.309,21.233C140.755,31.699 140.761,42.186 141.317,52.645C141.522,56.508 141.247,59.883 138.367,62.639C135.309,65.566 135.008,69.217 135.366,73.12C135.639,76.099 135.762,79.093 135.959,82.186C140.307,75.995 144.605,69.875 148.903,63.755C149.566,63.958 150.23,64.161 150.893,64.364C151.066,65.686 151.657,67.125 151.323,68.304C150.65,70.684 149.428,72.904 148.518,75.224C147.331,78.248 147.129,81.077 147.506,84.583C148.472,93.572 147.905,102.734 147.777,111.824C147.762,112.93 146.685,114.021 147.531,114.955C148.168,122 148.804,129.046 149.45,136.189C149.697,136.077 150.127,135.934 150.503,135.704C151.955,134.815 153.389,133.899 154.83,132.993C155.385,134.747 156.116,136.468 156.459,138.263C157.259,142.439 157.87,146.651 158.564,150.848C158.671,151.49 159.114,152.258 158.898,152.745C155.835,159.636 160.769,165.509 160.541,172.859C162.823,170.068 164.158,167.949 165.972,166.386C167.197,165.33 170.141,164.167 170.506,164.595C171.75,166.056 172.463,168.141 172.888,170.094C173.782,174.209 174.365,178.391 175.066,182.493C178.698,181.325 181.278,180.494 183.859,179.664C184.065,180.082 184.272,180.501 184.478,180.919C183.458,182.311 182.438,183.702 180.915,185.779C185.409,187.673 189.629,189.452 193.849,191.231C193.829,191.557 193.81,191.883 193.791,192.209C189.611,192.209 185.43,192.209 180.906,192.209C182.041,193.029 183.068,193.772 184.095,194.514C184.073,195.019 184.052,195.524 184.031,196.029C180.778,195.76 177.526,195.491 174.66,194.664C174.94,193.789 174.833,193.471 174.727,193.154C174.422,193.372 174.117,193.591 173.812,193.81M60.592,54.901C62.547,53.698 64.502,52.495 66.457,51.292C66.142,50.789 65.827,50.287 65.512,49.784C63.731,50.85 61.949,51.915 60.032,52.09C60.568,48.242 61.105,44.394 62.172,40.219C63.349,40.665 64.526,41.111 66.321,41.79C66.189,39.96 66.078,38.43 65.893,35.871C63.602,37.765 62.277,38.861 60.156,40.196C60.063,45.112 59.969,50.028 60.592,54.901M122.559,155.787C122.888,153.583 122.888,153.583 119.15,153.876C115.99,153.876 112.83,153.876 109.03,153.876C110.751,158.22 111.869,161.04 113.456,165.045C113.987,163.16 114.298,162.684 114.193,162.334C112.425,156.423 113.07,155.77 119.241,156.922C120.06,157.075 121.045,156.335 122.559,155.787M86.501,147.007C86.501,147.007 86.908,147.01 87.045,147.819C86.057,152.361 89.112,153.853 93.251,155.337C94.252,152.974 95.273,150.566 96.037,148.762C98.148,149.479 101.009,151.502 102.619,150.77C105.573,149.428 107.564,146.54 106.847,142.484C106.346,139.646 106.751,136.648 106.751,133.826C101.752,133.826 97.461,133.826 93.886,133.826C94.755,130.467 95.447,127.795 96.189,124.927C96.429,125.354 96.845,125.797 96.931,126.297C97.423,129.169 97.069,132.369 101.84,131.878C106.502,131.398 106.921,128.601 106.812,124.98C106.715,121.702 106.792,118.42 106.792,115.242C104.557,114.847 102.852,114.545 101.477,114.301C103.373,112.725 106.342,111.28 106.218,110.185C105.635,105.035 109.443,98.769 103.87,95.469C104.673,93.214 105.729,91.303 105.977,89.293C106.298,86.677 105.779,83.967 105.986,81.326C106.231,78.217 104.531,77.707 102.047,76.941C102.034,76.649 102.02,76.357 102.613,75.716C107.82,72.22 104.756,67.583 104.939,63.078C99.266,63.772 94.229,64.388 88.945,65.034C88.945,68.592 88.945,71.617 88.945,74.641C88.616,74.657 88.286,74.672 87.957,74.687C87.757,71.786 87.558,68.884 87.244,64.317C82.36,66.32 77.739,67.434 74.297,70.08C73.188,70.933 72.003,76.743 76.863,78.475C71.986,81.22 76.03,85.441 75.02,87.837C73.312,91.887 73.275,95.231 74.083,98.996C76.283,99.253 78.098,99.465 80.996,99.803C72.626,102.823 71.683,104.867 73.46,113.157C75.701,113.357 77.791,113.543 79.881,113.729C72.381,117.129 72.381,117.129 72.004,125.171C71.941,126.5 71.533,127.943 71.92,129.125C72.282,130.232 73.506,131.834 74.318,131.815C75.311,131.793 76.746,130.48 77.132,129.414C77.732,127.758 77.607,125.84 77.79,124.033C78.079,124.006 78.368,123.98 78.658,123.954C78.88,126.521 79.103,129.088 79.346,131.882C82.417,132.12 85.203,132.336 88.548,132.596C86.631,134.04 85.384,134.979 84.137,135.918C81.806,134.703 79.402,134.376 77.008,134.44C75.147,134.491 71.918,134.613 71.674,135.421C70.309,139.94 69.667,144.677 68.982,148.274C72.191,148.274 74.115,148.274 75.99,148.899C76.018,149.316 76.046,149.734 75.874,150.757C75.304,151.845 74.734,152.933 73.817,154.644C72.25,154.058 69.874,152.555 69.285,153.076C68.026,154.188 66.7,156.708 67.173,158.007C68.401,161.388 70.586,164.421 72.389,167.592C65.095,168.896 64.96,169.05 64.798,176.558C64.701,176.961 64.604,177.364 64.149,178.485C64.087,179.733 64.024,180.981 63.959,182.301C66.194,181.164 68.133,180.178 70.073,179.192C66.112,183.096 69.311,185.282 71.486,187.997C72.067,187.095 72.493,186.435 73.406,185.843C73.527,185.733 73.649,185.623 73.77,185.513C73.496,185.384 73.221,185.256 72.904,184.278C73.029,183.463 73.208,182.652 73.272,181.832C73.864,174.235 74.436,166.637 75.679,158.822C79.297,155.015 86.516,154.383 86.501,147.007M50.483,139.491C42.211,141.843 46.161,149.197 44.098,154.021C52.863,153.932 51.704,145.929 54.936,142.366C53.246,141.349 52.113,140.666 51.558,139.849C51.489,139.63 51.421,139.41 51.353,139.19C51.221,139.235 50.975,139.285 50.977,139.324C50.989,139.573 51.055,139.819 50.483,139.491M95.978,179.817C95.466,183.462 94.953,187.107 94.441,190.753C95.013,191.001 95.585,191.249 96.158,191.497C97.923,189.186 99.899,186.988 101.235,184.451C101.447,184.049 98.715,182.185 97.478,180.871C97.138,180.51 97.285,179.692 97.969,179.09C103.188,180.768 104.905,179.629 106.416,173.646C104.271,172.06 102.179,170.513 99.055,168.202C101.164,167.876 102.182,167.907 103.032,167.543C104.299,167 106.413,166.264 106.484,165.462C106.839,161.43 106.647,157.349 106.647,153.638C103.657,153.451 101.047,152.987 98.491,153.193C93.947,153.558 93.344,159.766 96.855,162.039C94.686,167.785 95.186,173.371 95.978,179.817M68.139,29.521C68.218,29.683 68.297,29.844 68.213,30.834C69.16,32.438 70.107,34.041 71.119,35.754C66.794,37.03 69.504,41.149 68.969,44.626C70.191,44.28 70.923,44.072 72.427,43.944C73.919,43.631 75.411,43.318 77.084,43.79C77.823,46.317 78.561,48.844 79.101,52.193C79.068,52.473 79.035,52.753 78.473,53.588C75.65,54.051 72.827,54.515 70.451,54.398C70.966,52.545 71.48,50.692 71.994,48.84C71.415,48.765 70.837,48.69 70.258,48.615C69.859,50.795 69.461,52.975 68.949,55.937C68.949,57.201 68.949,58.465 68.949,58.675C81.644,56.867 94.006,55.107 106.36,53.347C106.36,49.785 106.36,45.901 106.36,42.018C105.805,41.746 105.251,41.474 104.697,41.202C102.657,44.178 100.617,47.155 98.362,50.445C98.398,50.458 97.341,50.097 96.48,49.804C96.48,47.257 96.48,44.959 96.48,42.015C92.973,42.985 90.067,43.788 86.308,44.826C86.135,41.208 85.969,37.727 85.787,33.927C83.022,33.927 80.602,33.927 78.23,33.927C78.23,31.189 78.23,28.798 78.23,26.235C77.347,26.098 76.276,25.931 74.835,25.708C74.835,21.481 74.835,17.401 74.835,12.868C73.534,13.739 72.731,14.276 71.373,14.779C70.864,14.964 70.354,15.15 69.032,15.481C68.418,16.139 67.258,16.815 67.279,17.453C67.405,21.301 67.802,25.141 68.139,29.521M134.627,181.642C132.841,182.847 130.715,183.767 129.391,185.356C128.522,186.398 128.061,188.971 128.735,189.869C130.301,191.954 132.664,193.44 134.638,195.112C137.507,192.091 140.344,189.104 143.003,186.304C141.801,184.715 141.051,183.068 139.771,182.223C138.575,181.434 136.816,181.496 134.627,181.642M115.073,79.018C112.792,79.018 110.51,79.018 108.792,79.018C109.085,82.703 109.875,86.132 109.474,89.416C109.062,92.791 110.741,93.499 113.196,93.839C114.687,94.046 116.23,93.877 117.75,93.877C117.785,93.631 117.82,93.385 117.856,93.139C116.006,92.422 114.157,91.704 111.59,90.709C112.15,87.695 112.735,84.545 113.387,81.029C116.408,81.029 119.072,81.029 121.736,81.029C121.746,80.502 121.756,79.976 121.766,79.449C119.816,79.308 117.866,79.167 115.073,79.018M115.666,131.128C117.066,130.509 118.466,129.889 119.865,129.269C113.325,128.106 112.838,126.956 114.848,117.051C116.457,117.051 118.116,117.051 119.775,117.051C119.776,116.629 119.777,116.207 119.779,115.786C116.502,115.786 113.226,115.786 109.868,115.786C110.471,120.026 110.767,123.823 111.657,127.474C111.988,128.836 113.706,129.859 115.666,131.128M42.276,181.567C40.08,183.171 37.885,184.774 35.716,186.359C41.528,190.28 46.283,187.749 51.394,184.027C48.583,183.101 45.772,182.174 42.276,181.567M110.609,192.091C108.925,193.473 107.241,194.856 105.556,196.239C105.892,196.914 106.227,197.588 106.563,198.263C110.956,196.767 115.35,195.271 120.382,193.557C117.064,191.065 114.656,188.559 110.609,192.091M115.437,99.042C117.49,99.205 119.543,99.368 121.597,99.531C121.636,98.884 121.676,98.237 121.716,97.59C117.457,97.321 113.198,97.052 108.373,96.748C109.21,102.122 109.883,106.436 110.562,110.79C113.743,109.483 113.743,109.483 112.273,107.619C110.4,105.244 111.859,99.881 115.437,99.042M113.998,133.862C112.582,134.05 111.166,134.238 109.704,134.432C110.837,136.465 111.743,138.09 112.754,139.903C113.774,135.605 117.067,135.34 120.529,135.983C125.136,136.839 125.496,136.919 129.615,133.861C124.706,133.861 119.797,133.861 113.998,133.862M121.232,169.862C117.282,170.215 113.072,169.974 110.206,174.588C112.246,175.036 113.686,175.352 114.93,175.626C115.032,176.737 115.128,177.776 115.172,178.253C117.788,176.039 120.461,173.803 123.051,171.477C123.141,171.396 122.414,170.408 121.232,169.862M111.778,70.908C110.844,70.066 109.91,69.223 108.976,68.381C108.591,68.561 108.206,68.74 107.822,68.92C108.345,71.141 108.178,74.142 109.574,75.378C111.152,76.774 114.133,76.585 116.504,77.085C116.636,76.444 116.768,75.803 116.901,75.161C115.284,74.659 113.668,74.158 112.061,73.659C112.23,72.728 112.385,71.88 111.778,70.908M49.644,159.128C50.673,158.507 51.703,157.887 52.733,157.267C52.546,156.9 52.36,156.533 52.173,156.165C47.658,158.294 43.142,160.423 38.84,162.451C40.769,163.729 42.019,164.558 43.236,165.365C45.1,163.527 47.101,161.554 49.644,159.128M163.04,187.653C164.291,186.123 165.543,184.592 166.799,183.056C163.933,180.433 163.933,180.433 158.063,186.001C159.635,186.776 161.067,187.482 163.04,187.653M60.807,58.794C60.174,59.658 59.541,60.522 58.908,61.386C59.26,61.622 59.611,61.859 59.963,62.096C60.302,61.219 60.64,60.343 60.807,58.794M62.813,59.187C62.564,59.793 62.314,60.398 62.064,61.003C62.608,60.988 63.152,60.973 63.696,60.958C63.593,60.324 63.489,59.69 62.813,59.187z"/><path fill="#171818" d="M68.421,201.384C66.901,200.804 65.792,200.281 64.684,199.758C65.535,198.66 66.17,197.214 67.276,196.525C71.518,193.883 76.7,195.238 81.618,200.229C77.398,202.372 73.202,202.627 68.421,201.384z"/><path fill="#1d1d1d" d="M57.746,204.968C54.928,204.779 52.543,204.573 49.899,204.345C54.248,198.243 58.052,197.94 64.394,203.513C61.978,204.072 60.079,204.512 57.746,204.968z"/><path fill="#272727" d="M103.057,202.936C105.381,203.534 107.301,204.145 109.22,204.756C109.125,205.276 109.029,205.795 108.933,206.315C105.719,206.161 102.505,206.007 99.291,205.853C99.2,205.438 99.109,205.022 99.018,204.607C100.229,204.054 101.441,203.502 103.057,202.936z"/><path fill="#f1f1f1" d="M102.083,77.818C104.531,77.707 106.231,78.217 105.986,81.326C105.779,83.967 106.298,86.677 105.977,89.293C105.729,91.303 104.673,93.214 103.87,95.469C109.443,98.769 105.635,105.035 106.218,110.185C106.342,111.28 103.373,112.725 101.477,114.301C102.852,114.545 104.557,114.847 106.792,115.242C106.792,118.42 106.715,121.702 106.812,124.98C106.921,128.601 106.502,131.398 101.84,131.878C97.069,132.369 97.423,129.169 96.931,126.297C96.845,125.797 96.429,125.354 96.189,124.927C95.447,127.795 94.755,130.467 93.886,133.826C97.461,133.826 101.752,133.826 106.751,133.826C106.751,136.648 106.346,139.646 106.847,142.484C107.564,146.54 105.573,149.428 102.619,150.77C101.009,151.502 98.148,149.479 96.037,148.762C95.273,150.566 94.252,152.974 93.251,155.337C89.112,153.853 86.057,152.361 87.193,147.118C87.63,145.713 87.919,145.009 88.209,144.305C85.462,143.438 82.626,142.187 80.978,145.991C81.001,146.002 80.993,145.952 80.645,145.868C78.877,146.614 77.458,147.444 76.039,148.274C74.115,148.274 72.191,148.274 68.982,148.274C69.667,144.677 70.309,139.94 71.674,135.421C71.918,134.613 75.147,134.491 77.008,134.44C79.402,134.376 81.806,134.703 84.137,135.918C85.384,134.979 86.631,134.04 88.548,132.596C85.203,132.336 82.417,132.12 79.346,131.882C79.103,129.088 78.88,126.521 78.658,123.954C78.368,123.98 78.079,124.006 77.79,124.033C77.607,125.84 77.732,127.758 77.132,129.414C76.746,130.48 75.311,131.793 74.318,131.815C73.506,131.834 72.282,130.232 71.92,129.125C71.533,127.943 71.941,126.5 72.004,125.171C72.381,117.129 72.381,117.129 79.881,113.729C77.791,113.543 75.701,113.357 73.46,113.157C71.683,104.867 72.626,102.823 80.996,99.803C78.098,99.465 76.283,99.253 74.083,98.996C73.275,95.231 73.312,91.887 75.02,87.837C76.03,85.441 71.986,81.22 76.863,78.475C72.003,76.743 73.188,70.933 74.297,70.08C77.739,67.434 82.36,66.32 87.244,64.317C87.558,68.884 87.757,71.786 87.957,74.687C88.286,74.672 88.616,74.657 88.945,74.641C88.945,71.617 88.945,68.592 88.945,65.034C94.229,64.388 99.266,63.772 104.939,63.078C104.756,67.583 107.82,72.22 101.971,75.75C99.024,75.331 96.718,74.879 94.412,74.427C94.267,75.253 94.122,76.079 93.976,76.905C96.679,77.21 99.381,77.514 102.083,77.818M93.953,87.035C92.541,85.533 91.129,84.031 88.766,81.518C86.894,85.671 84.569,88.766 84.207,92.076C83.524,98.324 84.048,104.696 83.909,111.013C83.854,113.513 83.371,116.005 83.043,118.852C86.616,118.852 90.512,118.966 94.39,118.748C95.106,118.708 96.355,117.299 96.325,116.563C96.036,109.347 95.558,102.139 95.063,94.933C94.899,92.552 94.529,90.185 93.953,87.035M83.558,141.292C83.29,141.011 83.022,140.73 82.755,140.449C82.638,140.56 82.415,140.762 82.421,140.769C82.671,141.065 82.942,141.344 83.558,141.292M76.692,142.954C77.019,142.924 77.347,142.895 77.674,142.865C77.321,142.754 76.968,142.644 76.692,142.954z"/><path fill="#edeeed" d="M70.004,54.979C72.827,54.515 75.65,54.051 79.067,53.24C79.541,52.385 79.421,51.878 79.3,51.371C78.561,48.844 77.823,46.317 77.06,43.005C76.868,39.988 76.452,38.402 74.232,41.058C73.419,42.032 72.517,42.931 71.655,43.865C70.923,44.072 70.191,44.28 68.969,44.626C69.504,41.149 66.794,37.03 71.119,35.754C70.107,34.041 69.16,32.438 68.634,30.412C69.994,29.342 70.934,28.693 71.873,28.044C71.53,27.642 71.187,27.24 70.844,26.838C69.932,27.553 69.02,28.268 68.109,28.983C67.802,25.141 67.405,21.301 67.279,17.453C67.258,16.815 68.418,16.139 69.472,15.825C70.146,17.28 70.38,18.39 70.614,19.5C71.052,19.465 71.49,19.431 71.928,19.396C71.928,17.868 71.928,16.341 71.928,14.813C72.731,14.276 73.534,13.739 74.835,12.868C74.835,17.401 74.835,21.481 74.835,25.708C76.276,25.931 77.347,26.098 78.23,26.235C78.23,28.798 78.23,31.189 78.23,33.927C80.602,33.927 83.022,33.927 85.787,33.927C85.969,37.727 86.135,41.208 86.308,44.826C90.067,43.788 92.973,42.985 96.48,42.015C96.48,44.959 96.48,47.257 96.48,49.804C97.341,50.097 98.398,50.458 98.362,50.445C100.617,47.155 102.657,44.178 104.697,41.202C105.251,41.474 105.805,41.746 106.36,42.018C106.36,45.901 106.36,49.785 106.36,53.347C94.006,55.107 81.644,56.867 68.949,58.675C68.949,58.465 68.949,57.201 69.243,55.513C69.537,55.09 70.004,54.979 70.004,54.979M72.86,34.787C73.315,34.906 73.766,35.052 74.228,35.114C74.296,35.123 74.418,34.728 74.516,34.521C74.129,34.398 73.742,34.275 72.86,34.787z"/><path fill="#e9e9e9" d="M96.161,178.996C95.186,173.371 94.686,167.785 96.855,162.039C93.344,159.766 93.947,153.558 98.491,153.193C101.047,152.987 103.657,153.451 106.647,153.638C106.647,157.349 106.839,161.43 106.484,165.462C106.413,166.264 104.299,167 103.032,167.543C102.182,167.907 101.164,167.876 99.055,168.202C102.179,170.513 104.271,172.06 106.416,173.646C104.905,179.629 103.188,180.768 97.327,179.056C96.511,179.014 96.336,179.005 96.161,178.996z"/><path fill="#e9e9e9" d="M65.076,175.986C64.96,169.05 65.095,168.896 72.389,167.592C70.586,164.421 68.401,161.388 67.173,158.007C66.7,156.708 68.026,154.188 69.285,153.076C69.874,152.555 72.25,154.058 74.231,154.441C75.33,154.494 76.014,154.749 76.366,154.88C75.865,156.422 75.439,157.731 75.014,159.04C74.436,166.637 73.864,174.235 73.272,181.832C73.208,182.652 73.029,183.463 72.889,184.863C72.874,185.448 72.919,185.774 72.919,185.774C72.493,186.435 72.067,187.095 71.486,187.997C69.311,185.282 66.112,183.096 70.073,179.192C68.133,180.178 66.194,181.164 63.959,182.301C64.024,180.981 64.087,179.733 64.763,178.19C67.049,177.548 68.721,177.201 70.393,176.853C69.975,175.013 69.557,173.172 68.991,170.676C67.219,173.079 66.147,174.533 65.076,175.986z"/><path fill="#ededed" d="M134.966,181.413C136.816,181.496 138.575,181.434 139.771,182.223C141.051,183.068 141.801,184.715 143.003,186.304C140.344,189.104 137.507,192.091 134.638,195.112C132.664,193.44 130.301,191.954 128.735,189.869C128.061,188.971 128.522,186.398 129.391,185.356C130.715,183.767 132.841,182.847 134.966,181.413z"/><path fill="#dfdfe0" d="M50.979,139.984C52.113,140.666 53.246,141.349 54.936,142.366C51.704,145.929 52.863,153.932 44.098,154.021C46.161,149.197 42.211,141.843 50.761,139.76C51.039,140.028 50.979,139.984 50.979,139.984z"/><path fill="#ebebeb" d="M75.346,158.931C75.439,157.731 75.865,156.422 76.366,154.88C76.014,154.749 75.33,154.494 74.405,154.13C74.734,152.933 75.304,151.845 76.31,150.343C78.162,148.603 79.577,147.278 80.993,145.952C80.993,145.952 81.001,146.002 81.225,146.371C82.997,146.83 84.545,146.921 86.094,147.012C86.516,154.383 79.297,155.015 75.346,158.931z"/><path fill="#dadbdb" d="M115.495,79.022C117.866,79.167 119.816,79.308 121.766,79.449C121.756,79.976 121.746,80.502 121.736,81.029C119.072,81.029 116.408,81.029 113.387,81.029C112.735,84.545 112.15,87.695 111.59,90.709C114.157,91.704 116.006,92.422 117.856,93.139C117.82,93.385 117.785,93.631 117.75,93.877C116.23,93.877 114.687,94.046 113.196,93.839C110.741,93.499 109.062,92.791 109.474,89.416C109.875,86.132 109.085,82.703 108.792,79.018C110.51,79.018 112.792,79.018 115.495,79.022z"/><path fill="#dfdfdf" d="M115.229,131.082C113.706,129.859 111.988,128.836 111.657,127.474C110.767,123.823 110.471,120.026 109.868,115.786C113.226,115.786 116.502,115.786 119.779,115.786C119.777,116.207 119.776,116.629 119.775,117.051C118.116,117.051 116.457,117.051 114.848,117.051C112.838,126.956 113.325,128.106 119.865,129.269C118.466,129.889 117.066,130.509 115.229,131.082z"/><path fill="#e9eaea" d="M42.619,181.407C45.772,182.174 48.583,183.101 51.394,184.027C46.283,187.749 41.528,190.28 35.716,186.359C37.885,184.774 40.08,183.171 42.619,181.407z"/><path fill="#e3e4e4" d="M110.923,191.894C114.656,188.559 117.064,191.065 120.382,193.557C115.35,195.271 110.956,196.767 106.563,198.263C106.227,197.588 105.892,196.914 105.556,196.239C107.241,194.856 108.925,193.473 110.923,191.894z"/><path fill="#e7e7e7" d="M115.022,99.042C111.859,99.881 110.4,105.244 112.273,107.619C113.743,109.483 113.743,109.483 110.562,110.79C109.883,106.436 109.21,102.122 108.373,96.748C113.198,97.052 117.457,97.321 121.716,97.59C121.676,98.237 121.636,98.884 121.597,99.531C119.543,99.368 117.49,99.205 115.022,99.042z"/><path fill="#dfdfe0" d="M114.443,133.861C119.797,133.861 124.706,133.861 129.615,133.861C125.496,136.919 125.136,136.839 120.529,135.983C117.067,135.34 113.774,135.605 112.754,139.903C111.743,138.09 110.837,136.465 109.704,134.432C111.166,134.238 112.582,134.05 114.443,133.861z"/><path fill="#ececec" d="M121.65,169.852C122.414,170.408 123.141,171.396 123.051,171.477C120.461,173.803 117.788,176.039 115.172,178.253C115.128,177.776 115.032,176.737 114.93,175.626C113.686,175.352 112.246,175.036 110.206,174.588C113.072,169.974 117.282,170.215 121.65,169.852z"/><path fill="#e4e5e5" d="M96.069,179.406C96.336,179.005 96.511,179.014 96.947,179.053C97.285,179.692 97.138,180.51 97.478,180.871C98.715,182.185 101.447,184.049 101.235,184.451C99.899,186.988 97.923,189.186 96.158,191.497C95.585,191.249 95.013,191.001 94.441,190.753C94.953,187.107 95.466,183.462 96.069,179.406z"/><path fill="#e1e1e2" d="M121.954,156.009C121.045,156.335 120.06,157.075 119.241,156.922C113.07,155.77 112.425,156.423 114.193,162.334C114.298,162.684 113.987,163.16 113.456,165.045C111.869,161.04 110.751,158.22 109.03,153.876C112.83,153.876 115.99,153.876 119.534,154.346C120.596,155.213 121.275,155.611 121.954,156.009z"/><path fill="#cacbcb" d="M112.158,70.97C112.385,71.88 112.23,72.728 112.061,73.659C113.668,74.158 115.284,74.659 116.901,75.161C116.768,75.803 116.636,76.444 116.504,77.085C114.133,76.585 111.152,76.774 109.574,75.378C108.178,74.142 108.345,71.141 107.822,68.92C108.206,68.74 108.591,68.561 108.976,68.381C109.91,69.223 110.844,70.066 112.158,70.97z"/><path fill="#dcdedd" d="M49.373,159.354C47.101,161.554 45.1,163.527 43.236,165.365C42.019,164.558 40.769,163.729 38.84,162.451C43.142,160.423 47.658,158.294 52.173,156.165C52.36,156.533 52.546,156.9 52.733,157.267C51.703,157.887 50.673,158.507 49.373,159.354z"/><path fill="#e8e9e9" d="M162.769,187.92C161.067,187.482 159.635,186.776 158.063,186.001C163.933,180.433 163.933,180.433 166.799,183.056C165.543,184.592 164.291,186.123 162.769,187.92z"/><path fill="#cecfcf" d="M64.937,176.272C66.147,174.533 67.219,173.079 68.991,170.676C69.557,173.172 69.975,175.013 70.393,176.853C68.721,177.201 67.049,177.548 64.942,177.831C64.604,177.364 64.701,176.961 64.937,176.272z"/><path fill="#1d1d1d" d="M102.065,77.38C99.381,77.514 96.679,77.21 93.976,76.905C94.122,76.079 94.267,75.253 94.412,74.427C96.718,74.879 99.024,75.331 101.668,75.924C102.02,76.357 102.034,76.649 102.065,77.38z"/><path fill="#252424" d="M86.297,147.01C84.545,146.921 82.997,146.83 81.202,146.36C82.626,142.187 85.462,143.438 88.209,144.305C87.919,145.009 87.63,145.713 87.124,146.714C86.908,147.01 86.501,147.007 86.297,147.01z"/><path fill="#e3e4e4" d="M60.952,39.956C62.277,38.861 63.602,37.765 65.893,35.871C66.078,38.43 66.189,39.96 66.321,41.79C64.526,41.111 63.349,40.665 61.737,40.232C61.301,40.245 60.952,39.956 60.952,39.956z"/><path fill="#e3e4e4" d="M61.471,40.396C61.105,44.394 60.568,48.242 60.035,52.861C59.984,54.069 59.93,54.507 59.875,54.944C59.969,50.028 60.063,45.112 60.554,40.076C60.952,39.956 61.301,40.245 61.471,40.396z"/><path fill="#1f1f1f" d="M60.234,54.923C59.93,54.507 59.984,54.069 60.103,53.306C61.949,51.915 63.731,50.85 65.512,49.784C65.827,50.287 66.142,50.789 66.457,51.292C64.502,52.495 62.547,53.698 60.234,54.923z"/><path fill="#141414" d="M70.228,54.688C70.004,54.979 69.537,55.09 69.3,55.123C69.461,52.975 69.859,50.795 70.258,48.615C70.837,48.69 71.415,48.765 71.994,48.84C71.48,50.692 70.966,52.545 70.228,54.688z"/><path fill="#141414" d="M72.041,43.904C72.517,42.931 73.419,42.032 74.232,41.058C76.452,38.402 76.868,39.988 76.97,42.613C75.411,43.318 73.919,43.631 72.041,43.904z"/><path fill="#252424" d="M80.645,145.868C79.577,147.278 78.162,148.603 76.41,150.04C76.046,149.734 76.018,149.316 76.015,148.586C77.458,147.444 78.877,146.614 80.645,145.868z"/><path fill="#ebebeb" d="M71.651,14.796C71.928,16.341 71.928,17.868 71.928,19.396C71.49,19.431 71.052,19.465 70.614,19.5C70.38,18.39 70.146,17.28 69.878,15.752C70.354,15.15 70.864,14.964 71.651,14.796z"/><path fill="#ebebeb" d="M68.124,29.252C69.02,28.268 69.932,27.553 70.844,26.838C71.187,27.24 71.53,27.642 71.873,28.044C70.934,28.693 69.994,29.342 68.716,29.998C68.297,29.844 68.218,29.683 68.124,29.252z"/><path fill="#1f1f1f" d="M60.893,59.13C60.64,60.343 60.302,61.219 59.963,62.096C59.611,61.859 59.26,61.622 58.908,61.386C59.541,60.522 60.174,59.658 60.893,59.13z"/><path fill="#4f4e50" d="M122.257,155.898C121.275,155.611 120.596,155.213 119.87,154.474C122.888,153.583 122.888,153.583 122.257,155.898z"/><path fill="#1f1f1f" d="M63.099,59.121C63.489,59.69 63.593,60.324 63.696,60.958C63.152,60.973 62.608,60.988 62.064,61.003C62.314,60.398 62.564,59.793 63.099,59.121z"/><path fill="#141414" d="M79.2,51.782C79.421,51.878 79.541,52.385 79.331,52.963C79.035,52.753 79.068,52.473 79.2,51.782z"/><path fill="#dfdfe0" d="M51.071,140.047C51.055,139.819 50.989,139.573 50.977,139.324C50.975,139.285 51.221,139.235 51.353,139.19C51.421,139.41 51.489,139.63 51.268,139.917C50.979,139.984 51.039,140.028 51.071,140.047z"/><path fill="#cecfcf" d="M73.163,185.808C72.919,185.774 72.874,185.448 72.91,185.288C73.221,185.256 73.496,185.384 73.77,185.513C73.649,185.623 73.527,185.733 73.163,185.808z"/><path fill="#fafafa" d="M173.994,193.985C174.117,193.591 174.422,193.372 174.727,193.154C174.833,193.471 174.94,193.789 174.799,194.303C174.427,194.387 174.302,194.274 173.994,193.985z"/><path fill="#070707" d="M94.103,87.423C94.529,90.185 94.899,92.552 95.063,94.933C95.558,102.139 96.036,109.347 96.325,116.563C96.355,117.299 95.106,118.708 94.39,118.748C90.512,118.966 86.616,118.852 83.043,118.852C83.371,116.005 83.854,113.513 83.909,111.013C84.048,104.696 83.524,98.324 84.207,92.076C84.569,88.766 86.894,85.671 88.766,81.518C91.129,84.031 92.541,85.533 94.103,87.423z"/><path fill="#eff0f0" d="M83.384,141.458C82.942,141.344 82.671,141.065 82.421,140.769C82.415,140.762 82.638,140.56 82.755,140.449C83.022,140.73 83.29,141.011 83.384,141.458z"/><path fill="#eff0f0" d="M76.653,142.744C76.968,142.644 77.321,142.754 77.674,142.865C77.347,142.895 77.019,142.924 76.653,142.744z"/><path fill="#0c0c0c" d="M73.108,34.47C73.742,34.275 74.129,34.398 74.516,34.521C74.418,34.728 74.296,35.123 74.228,35.114C73.766,35.052 73.315,34.906 73.108,34.47z"/></svg>