<svg xmlns="http://www.w3.org/2000/svg" viewBox="0 0 225 104" xml:space="preserve"><path fill="#070706" d="M170.196,91.44C171.385,92.05 172.205,92.492 173.025,92.934C173.04,93.48 173.055,94.026 173.07,94.572C169.675,95.05 166.293,95.736 162.881,95.946C159.454,96.157 156.604,97.234 153.4,98.55C149.033,100.343 142.656,100.079 138.229,98.172C132.626,95.758 127.015,96.001 121.428,95.023C117.91,94.408 114.351,94.027 110.45,93.491C112.466,90.539 114.006,88.284 115.687,85.824C111.182,83.778 107.282,81.545 103.088,80.322C101.333,79.81 98.857,81.232 96.881,82.147C94.051,83.459 92.015,87.13 88.087,84.858C89.811,82.318 91.103,79.282 93.341,77.334C99.483,71.986 106.063,67.144 112.383,61.995C114.46,60.302 116.111,59.749 118.455,61.737C120.177,63.197 122.436,64.142 124.593,64.95C131.373,67.49 132.323,67.185 137.492,61.467C131.051,59.721 124.818,57.671 118.423,56.497C116.224,56.093 113.265,57.361 111.269,58.75C104.031,63.786 96.904,69.01 90.013,74.511C78.039,84.068 64.233,87.264 49.348,86.533C40.397,86.093 31.479,84.992 22.537,83.678C31.24,78.725 40.851,82.183 50.008,80.708C43.972,74.159 33.843,71.835 26.219,75.259C23.647,76.415 21.31,78.145 18.682,79.111C15.527,80.27 12.175,80.892 8.908,81.747C8.645,81.165 8.383,80.583 8.121,80.002C10.643,77.695 12.83,74.751 15.757,73.218C21.471,70.227 21.845,65.634 21.021,60.278C20.869,59.291 20.857,58.278 20.645,57.307C18.559,47.774 18.943,47.035 28.253,44.774C29.386,44.499 30.793,45.345 32.071,45.68C33.789,46.131 35.726,47.286 37.156,46.834C38.394,46.442 39.693,44.303 39.863,42.81C40.6,36.362 41.044,29.874 41.362,23.389C41.517,20.227 42.846,18.765 45.958,18.137C52.477,16.82 58.909,15.075 65.411,13.661C71.634,12.308 73.099,13.549 74.065,19.692C74.309,21.246 75.904,22.56 76.753,24.055C77.603,25.55 78.577,27.063 78.997,28.696C79.779,31.739 80.171,34.88 80.815,37.962C80.876,38.255 81.575,38.415 82.66,39.014C82.877,37.497 82.888,36.306 83.234,35.222C84.163,32.315 85.384,29.496 86.208,26.563C86.947,23.93 87.438,21.209 87.798,18.494C88.034,16.708 87.842,14.866 87.842,12.882C95.795,10.901 103.505,8.957 111.228,7.067C114.447,6.279 115.941,7.692 115.963,10.938C115.982,13.693 116.055,16.152 119.953,16.625C121.061,16.76 122.34,19.592 122.645,21.343C123.208,24.577 123.109,27.927 123.306,31.595C127.681,32.3 131.928,32.874 136.126,33.7C139.037,34.273 140.253,33.236 141.032,30.412C141.433,28.955 143.469,28.025 144.443,26.631C145.628,24.936 147.037,23.092 147.342,21.154C147.905,17.581 149.313,16.41 152.97,17.011C161.825,18.466 170.735,19.583 179.948,20.882C179.948,29.848 179.948,38.621 179.948,47.732C183.55,48.589 186.891,49.383 189.845,50.086C191.545,48.381 193.262,45.449 194.507,45.637C198.207,46.196 202.275,47.31 205.056,49.596C206.3,50.619 205.772,55.615 204.373,57.662C201.181,62.334 201.287,66.919 205.829,70.206C212.119,74.758 217.276,80.284 220.878,88.014C211.628,90.279 202.704,91.637 193.545,90.508C184.624,89.407 175.754,87.732 166.806,87.065C161.721,86.686 156.524,87.821 151.377,88.274C151.405,88.802 151.432,89.33 151.46,89.857C157.582,90.329 163.704,90.8 170.196,91.44M164.74,32.947C165.952,29.973 165.797,29.171 162.943,28.076C159.281,26.672 155.493,25.596 151.76,24.379C151.348,24.752 150.937,25.125 150.525,25.497C151.752,27.327 152.979,29.157 154.042,31.444C154.042,31.444 153.97,31.924 153.144,31.98C151.014,31.468 148.885,30.957 146.468,30.377C145.665,33.788 144.68,36.591 144.494,39.447C144.42,40.568 146.133,41.805 147.223,43.501C147.144,43.665 147.064,43.829 146.194,44.053C140.824,43.884 142.131,48.627 140.922,51.398C137.798,58.553 146.576,55.972 147.801,59.865C146.884,59.917 145.939,59.97 144.492,59.62C143.528,59.468 142.563,59.317 140.234,58.952C142.468,60.398 143.511,61.072 145,62.21C146.604,64.279 148.448,66.209 149.757,68.45C151.682,71.746 154.079,72.238 157.178,70.416C159.138,69.263 161.03,67.996 163.607,66.367C160.652,65.273 158.459,64.462 154.948,63.162C158.356,62.968 160.369,62.853 162.663,62.722C163.004,58.739 163.335,54.865 163.682,50.8C162.494,50.395 161.344,50.002 159.379,49.332C161.066,48.619 162.039,48.207 163.517,47.869C163.603,47.587 163.689,47.304 163.976,46.172C164.352,43.388 164.92,40.61 164.996,37.818C165.021,36.878 163.794,35.903 163.142,34.391C163.432,33.938 163.722,33.486 164.74,32.947M60.902,46.259C60.282,45.511 59.662,44.763 59.792,43.944C59.792,39.157 59.792,34.369 59.792,29.104C54.495,30.325 50.577,30.989 46.815,32.156C42.048,33.636 44.367,38.007 43.85,41.097C43.716,41.899 45.862,43.084 46.989,44.559C46.989,44.559 47.139,45.001 46.749,45.678C39.505,47.943 44.732,53.893 42.478,57.59C44.863,58.367 46.556,58.919 48.249,59.471C48.157,59.857 48.065,60.243 47.974,60.629C46.116,60.864 44.258,61.1 42.138,61.369C42.138,63.819 42.138,66.063 42.138,68.053C48.831,70.614 55.245,73.068 61.645,75.517C64.652,67.719 63.535,63.241 58.044,61.179C59.819,60.747 61.341,60.376 63.139,59.939C62.438,55.421 61.781,51.187 60.902,46.259M112.416,67.768C109.716,69.88 107.016,71.991 103.367,74.845C107.256,76.513 110.045,77.839 112.927,78.922C121.989,82.328 122.528,82.111 127.555,73.926C128.06,73.105 128.587,72.299 129.33,71.131C125.54,69.64 122.089,68.021 118.473,66.978C116.814,66.499 114.829,67.15 112.416,67.768M167.235,79.905C175.711,75.957 183.987,70.897 193.99,75.968C193.547,69.832 189.3,65.378 185.432,66.627C178.033,69.015 170.721,71.683 163.434,74.4C161.2,75.233 157.977,76.219 159.491,79.39C160.003,80.461 163.431,80.156 165.532,80.433C165.83,80.473 166.162,80.249 167.235,79.905M89.142,30.481C84.817,35.768 84.608,48.782 89.351,55.808C89.351,48.222 89.351,41.519 89.351,35.627C91.427,33.697 94.284,32.315 94.537,30.558C95.213,25.882 94.767,21.045 94.767,16.408C91.412,15.518 90.723,16.808 90.712,19.636C90.699,23.039 90.031,26.44 89.142,30.481M52.171,28.94C54.121,28.326 56.072,27.713 58.135,27.064C57.489,24.593 57.008,22.756 56.463,20.672C54.207,21.052 52.238,21.249 50.346,21.74C48.338,22.26 45.375,21.595 45.725,25.391C46.073,29.165 48.396,29.441 52.171,28.94M71.37,76.701C72.638,73.747 73.906,70.793 75.203,67.771C67.547,68.241 66.177,70.248 67.967,78.612C69.021,78.177 70.017,77.765 71.37,76.701M26.336,57.901C21.086,60.594 25.208,64.424 24.254,68.512C27.133,67.153 28.988,66.278 31.656,65.018C30.019,62.378 28.619,60.118 26.336,57.901z"/><path fill="#1e1e1e" d="M78.413,89.816C76.858,89.253 75.685,88.799 74.23,88.235C80.144,85.975 96.688,88.702 99.798,93.376C92.797,92.225 85.796,91.075 78.413,89.816z"/><path fill="#212121" d="M190.164,97.596C191.414,98.105 192.265,98.505 193.24,98.963C188.836,102.784 183.974,102.934 178.254,99.657C178.213,99.169 178.173,98.681 178.132,98.192C182.01,97.957 185.887,97.722 190.164,97.596z"/><path fill="#1d1c1c" d="M56.086,93.582C60.217,92.75 63.864,92.598 66.981,95.638C62.41,99.19 58.344,99.195 53.074,95.597C54.041,94.916 54.884,94.323 56.086,93.582z"/><path fill="#f5f5f5" d="M46.961,44.094C45.862,43.084 43.716,41.899 43.85,41.097C44.367,38.007 42.048,33.636 46.815,32.156C50.577,30.989 54.495,30.325 59.792,29.104C59.792,34.369 59.792,39.157 58.989,43.973C56.058,44.002 53.928,44.002 51.799,44.002C51.787,44.669 51.775,45.337 51.763,46.004C54.883,46.321 58.004,46.637 61.124,46.954C61.781,51.187 62.438,55.421 63.139,59.939C61.341,60.376 59.819,60.747 58.044,61.179C63.535,63.241 64.652,67.719 61.645,75.517C55.245,73.068 48.831,70.614 42.138,68.053C42.138,66.063 42.138,63.819 42.138,61.369C44.258,61.1 46.116,60.864 47.974,60.629C48.065,60.243 48.157,59.857 48.249,59.471C46.556,58.919 44.863,58.367 42.478,57.59C44.732,53.893 39.505,47.943 47.275,45.332C48.376,44.617 48.951,44.247 49.527,43.877C48.672,43.949 47.817,44.021 46.961,44.094z"/><path fill="#f7f7f8" d="M144.994,60.023C145.939,59.97 146.884,59.917 147.801,59.865C146.576,55.972 137.798,58.553 140.922,51.398C142.131,48.627 140.824,43.884 146.875,44.23C149.032,44.946 150.507,45.485 152.043,46.156C152.191,46.333 152.278,46.379 152.365,46.425C152.25,46.277 152.136,46.13 151.992,45.704C150.319,44.613 148.675,43.801 147.032,42.989C146.133,41.805 144.42,40.568 144.494,39.447C144.68,36.591 145.665,33.788 146.468,30.377C148.885,30.957 151.014,31.468 153.708,32.195C155.907,32.608 157.541,32.806 159.354,33.004C159.532,33.004 159.888,33.007 159.989,33.355C161.107,34.117 162.123,34.53 163.14,34.944C163.794,35.903 165.021,36.878 164.996,37.818C164.92,40.61 164.352,43.388 163.712,46.686C163.247,47.358 163.102,47.556 163.013,47.795C162.039,48.207 161.066,48.619 159.379,49.332C161.344,50.002 162.494,50.395 163.682,50.8C163.335,54.865 163.004,58.739 162.663,62.722C160.369,62.853 158.356,62.968 154.948,63.162C158.459,64.462 160.652,65.273 163.607,66.367C161.03,67.996 159.138,69.263 157.178,70.416C154.079,72.238 151.682,71.746 149.757,68.45C148.448,66.209 146.604,64.279 144.907,61.553C144.874,60.605 144.934,60.314 144.994,60.023M152.489,62.688C153.026,62.298 153.563,61.908 154.999,60.865C152.394,60.721 150.932,60.641 149.469,60.56C149.421,60.859 149.373,61.159 149.325,61.458C150.175,61.793 151.025,62.128 152.489,62.688M156.603,46.801C156.213,46.797 155.823,46.79 155.434,46.81C155.424,46.81 155.419,47.254 155.429,47.255C155.818,47.284 156.208,47.286 156.603,46.801z"/><path fill="#f4f4f5" d="M112.704,67.529C114.829,67.15 116.814,66.499 118.473,66.978C122.089,68.021 125.54,69.64 129.33,71.131C128.587,72.299 128.06,73.105 127.555,73.926C122.528,82.111 121.989,82.328 112.927,78.922C110.045,77.839 107.256,76.513 103.367,74.845C107.016,71.991 109.716,69.88 112.704,67.529z"/><path fill="#efefef" d="M166.857,80.026C166.162,80.249 165.83,80.473 165.532,80.433C163.431,80.156 160.003,80.461 159.491,79.39C157.977,76.219 161.2,75.233 163.434,74.4C170.721,71.683 178.033,69.015 185.432,66.627C189.3,65.378 193.547,69.832 193.99,75.968C183.987,70.897 175.711,75.957 166.857,80.026z"/><path fill="#e6e6e7" d="M89.394,30.161C90.031,26.44 90.699,23.039 90.712,19.636C90.723,16.808 91.412,15.518 94.767,16.408C94.767,21.045 95.213,25.882 94.537,30.558C94.284,32.315 91.427,33.697 89.351,35.627C89.351,41.519 89.351,48.222 89.351,55.808C84.608,48.782 84.817,35.768 89.394,30.161z"/><path fill="#f2f2f2" d="M51.744,28.973C48.396,29.441 46.073,29.165 45.725,25.391C45.375,21.595 48.338,22.26 50.346,21.74C52.238,21.249 54.207,21.052 56.463,20.672C57.008,22.756 57.489,24.593 58.135,27.064C56.072,27.713 54.121,28.326 51.744,28.973z"/><path fill="#f6f7f7" d="M159.888,33.007C159.888,33.007 159.532,33.004 159.277,32.688C157.417,31.91 155.812,31.448 154.206,30.986C152.979,29.157 151.752,27.327 150.525,25.497C150.937,25.125 151.348,24.752 151.76,24.379C155.493,25.596 159.281,26.672 162.943,28.076C165.797,29.171 165.952,29.973 164.171,32.712C162.364,32.654 161.126,32.831 159.888,33.007z"/><path fill="#dedede" d="M71.192,77.028C70.017,77.765 69.021,78.177 67.967,78.612C66.177,70.248 67.547,68.241 75.203,67.771C73.906,70.793 72.638,73.747 71.192,77.028z"/><path fill="#eaeaea" d="M26.777,57.88C28.619,60.118 30.019,62.378 31.656,65.018C28.988,66.278 27.133,67.153 24.254,68.512C25.208,64.424 21.086,60.594 26.777,57.88z"/><path fill="#f4f4f4" d="M61.013,46.606C58.004,46.637 54.883,46.321 51.763,46.004C51.775,45.337 51.787,44.669 51.799,44.002C53.928,44.002 56.058,44.002 58.615,44.009C59.662,44.763 60.282,45.511 61.013,46.606z"/><path fill="#e9e9e9" d="M154.124,31.215C155.812,31.448 157.417,31.91 159.099,32.687C157.541,32.806 155.907,32.608 154.122,32.168C153.97,31.924 154.042,31.444 154.124,31.215z"/><path fill="#e9e9e9" d="M159.989,33.355C161.126,32.831 162.364,32.654 163.807,32.755C163.722,33.486 163.432,33.938 163.141,34.667C162.123,34.53 161.107,34.117 159.989,33.355z"/><path fill="#f6f7f7" d="M151.982,46.024C150.507,45.485 149.032,44.946 147.271,44.2C147.064,43.829 147.144,43.665 147.127,43.245C148.675,43.801 150.319,44.613 151.981,45.713C152,46.001 151.982,46.024 151.982,46.024z"/><path fill="#e9e9e9" d="M144.743,59.822C144.934,60.314 144.874,60.605 144.684,61.321C143.511,61.072 142.468,60.398 140.234,58.952C142.563,59.317 143.528,59.468 144.743,59.822z"/><path fill="#f4f4f4" d="M46.975,44.327C47.817,44.021 48.672,43.949 49.527,43.877C48.951,44.247 48.376,44.617 47.469,44.994C47.139,45.001 46.989,44.559 46.975,44.327z"/><path fill="#f6f7f7" d="M163.265,47.832C163.102,47.556 163.247,47.358 163.612,47.111C163.689,47.304 163.603,47.587 163.265,47.832z"/><path fill="#e9e9e9" d="M152.182,62.575C151.025,62.128 150.175,61.793 149.325,61.458C149.373,61.159 149.421,60.859 149.469,60.56C150.932,60.641 152.394,60.721 154.999,60.865C153.563,61.908 153.026,62.298 152.182,62.575z"/><path fill="#f6f7f7" d="M156.601,47.046C156.208,47.286 155.818,47.284 155.429,47.255C155.419,47.254 155.424,46.81 155.434,46.81C155.823,46.79 156.213,46.797 156.601,47.046z"/><path fill="#f6f7f7" d="M152.011,45.992C152.136,46.13 152.25,46.277 152.365,46.425C152.278,46.379 152.191,46.333 152.043,46.156C151.982,46.024 152,46.001 152.011,45.992z"/></svg>