<svg xmlns="http://www.w3.org/2000/svg" viewBox="0 0 233 148" xml:space="preserve"><path fill="#090909" d="M16.002,74.061C20.98,72.173 25.957,70.285 31.943,68.014C26.908,67.083 22.744,66.313 18.178,65C17.516,63.948 17.254,63.44 16.992,62.933C25.461,61.533 33.929,60.134 42.894,58.4C44.122,58.15 44.853,58.234 45.954,58.361C45.559,57.385 45.283,56.704 45.023,55.652C44.676,55.172 44.314,55.062 43.986,54.981C44.02,55.011 44.094,55.064 44.094,55.064C43.032,50.995 41.97,46.925 41.356,42.336C42.15,41.697 42.495,41.576 42.84,41.455C44.579,45.04 46.319,48.625 48.049,52.859C48.401,53.888 48.764,54.269 49.126,54.649C49.305,54.187 49.484,53.725 49.662,53.263C49.877,46.68 50.092,40.097 50.306,33.514C50.918,33.529 51.529,33.544 52.141,33.559C52.536,41.052 52.931,48.545 53.383,57.139C54.161,55.174 54.581,54.112 55.301,52.292C55.825,53.668 56.074,54.322 56.18,55.68C56.689,56.929 57.341,57.473 57.993,58.018C64.877,58.538 71.762,59.058 78.646,59.577C78.691,60.01 78.736,60.442 78.781,60.875C76.184,61.856 73.587,62.837 70.989,63.818C71.027,64.174 71.064,64.529 71.101,64.885C77.093,65.388 83.085,65.891 90.279,66.495C89.546,63.25 89.05,61.04 88.545,58.832C88.397,58.187 88.241,57.542 88.055,56.906C86.227,50.657 87.428,48.284 94.087,46.733C97.863,45.853 101.847,45.864 105.737,45.474C105.922,45.952 106.107,46.431 106.292,46.91C106.585,46.03 106.808,45.118 107.183,44.275C109.133,39.901 106.586,34.134 112.679,30.662C114.598,29.569 114.105,23.077 113.636,19.185C112.406,8.964 115.506,9.451 123.883,9.372C133.36,9.284 138.787,16.468 145.803,20.68C153.056,25.035 159.687,30.416 166.679,35.217C172.357,39.116 175.008,47.27 172.426,53.549C172.363,53.702 172.366,53.955 172.26,54.009C163.643,58.369 167.726,67.286 164.412,74.298C168.046,74.812 171.045,75.237 174.883,75.781C172.925,77.208 171.569,78.196 169.787,79.495C171.485,80.261 172.914,81.197 174.474,81.542C177.038,82.11 178.921,81.654 178.971,78.203C179.031,74.073 179.352,69.899 180.118,65.85C180.466,64.011 182.156,62.425 183.848,60.739C184.655,61.175 184.851,61.596 184.695,62.174C182.737,70.426 181.131,78.521 179.507,86.705C182.891,87.244 184.677,87.205 185.133,83.783C185.686,79.641 186.92,75.572 188.075,71.534C188.902,68.646 190.084,65.861 191.417,62.917C193.059,60.243 193.733,58.147 189.39,58.961C188.128,59.197 186.79,59.026 185.486,59.042C187.23,53.76 192.379,54.35 196.228,53.653C197.519,53.419 199.607,57.477 201.302,59.597C205.834,65.269 206.021,71.171 203.352,77.9C202.158,80.91 203.15,84.788 203.15,88.29C207.275,89.175 211.453,90.073 216.19,91.09C214.904,91.934 214.08,92.474 213.088,93.124C218.093,94.711 222.793,96.201 227.493,97.691C227.534,98.141 227.574,98.59 227.615,99.04C222.444,100.323 217.272,101.607 211.331,103.08C213.484,103.976 214.729,104.494 215.973,105.011C215.973,105.477 215.974,105.944 215.975,106.41C209.903,106.821 203.832,107.232 197.76,107.644C197.701,108.075 197.641,108.506 197.581,108.937C200.585,110.613 203.589,112.289 207.476,114.457C199.118,118.414 191.39,119.681 183.407,119.929C178.614,120.077 178.615,120.127 177.614,123.988C171.906,124.496 166.168,125.007 160.43,125.517C160.364,125.891 160.298,126.264 160.232,126.638C162.875,127.836 165.518,129.035 169.551,130.864C154.152,137.512 139.131,135.653 124.542,137.557C129.966,139.237 135.39,140.918 140.862,142.612C137.193,146.913 121.557,147.723 113.983,143.788C116.412,142.62 118.524,141.604 120.166,140.815C117.462,139.32 114.858,137.139 111.917,136.492C109.583,135.978 106.836,137.343 104.273,137.873C104.288,138.326 104.303,138.779 104.318,139.232C105.469,139.943 106.619,140.655 107.694,141.32C107.268,144.607 96.08,144.901 88.528,141.671C92.877,140.083 96.625,138.714 101.259,137.021C93.319,133.958 86.151,136.227 79.068,136.182C68.797,136.117 58.638,135.268 47.771,130.124C53.994,127.871 58.973,126.068 63.951,124.266C63.963,123.757 63.976,123.248 63.989,122.739C53.024,121.353 42.059,119.967 29.861,118.425C31.827,116.768 32.705,116.028 33.789,115.115C30.713,114.629 27.706,114.486 24.927,113.615C22.437,112.835 20.199,111.253 17.849,110.024C17.913,109.338 17.976,108.651 18.039,107.964C24.983,105.951 31.877,103.736 38.885,101.978C46.585,100.047 54.397,98.56 62.144,96.808C63.024,96.609 63.8,95.946 64.624,95.499C64.697,94.96 64.77,94.422 64.843,93.883C53.402,90.989 41.961,88.094 30.52,85.2C30.506,84.839 30.493,84.479 30.48,84.119C33.634,82.893 36.788,81.667 40.503,80.224C32.197,78.694 24.414,77.261 16.323,75.477C16.011,74.771 16.007,74.416 16.002,74.061M35.899,64.699C35.809,64.656 35.719,64.613 35.629,64.57C35.737,64.725 35.846,64.88 36.383,65.537C37.232,65.716 38.082,65.894 39.056,66.684C40.006,66.807 40.957,66.93 41.908,67.052C41.926,66.682 41.944,66.312 41.963,65.942C40.995,65.942 40.027,65.942 39.023,65.48C39.023,65.48 39.016,65.016 39.696,64.998C40.3,64.67 40.904,64.342 41.507,64.014C41.212,63.733 40.917,63.453 40.622,63.172C40.076,63.776 39.53,64.38 38.247,64.988C37.509,64.977 36.771,64.967 35.899,64.699M101.912,48.638C101.807,48.601 101.702,48.564 101.597,48.527C101.702,48.708 101.808,48.889 101.944,49.641C102.043,50.114 102.141,50.587 102.24,51.06C102.569,50.843 102.899,50.625 103.229,50.408C102.845,49.906 102.461,49.404 101.912,48.638M107.616,49.942C108.158,49.469 108.699,48.995 109.24,48.522C108.971,48.316 108.703,48.111 108.434,47.906C107.957,48.604 107.479,49.303 106.514,50.024C106.233,50.14 105.952,50.257 105.671,50.373C105.759,50.499 105.847,50.625 105.935,50.751C106.29,50.5 106.644,50.249 107.616,49.942M151.568,33.28C151.004,33.194 150.441,33.108 150.004,32.291C146.095,29.633 142.186,26.975 138.428,24.42C139.492,23.922 140.647,23.382 141.972,22.762C136.6,21.042 131.805,19.506 127.26,17.306C127.572,17.206 127.919,17.16 128.186,16.99C128.402,16.852 128.521,16.564 128.532,16.548C124.852,15.111 121.155,13.666 117.458,12.222C117.332,12.599 117.205,12.976 117.079,13.354C120.389,15.561 123.7,17.768 127.483,20.446C130.653,22.757 133.944,24.921 136.957,27.42C139.793,29.772 142.337,32.476 144.293,35.319C145.081,37.786 145.526,40.443 146.758,42.664C147.894,44.714 149.873,46.298 150.816,48.303C150.156,48.249 149.496,48.194 147.95,48.067C150.027,49.609 151.517,50.716 153.481,52.322C154.401,52.795 155.321,53.268 156.767,54.012C157.262,50.646 157.675,47.833 158.76,44.816C159.784,44.397 160.809,43.977 161.934,43.517C160.306,42.674 158.74,41.862 156.774,40.461C155.205,38.16 153.635,35.859 151.568,33.28M99.126,60.893C100.03,60.463 100.934,60.034 101.839,59.604C101.026,59.058 100.214,58.512 99.037,57.31C99.269,55.316 99.502,53.321 99.753,51.166C99.278,50.862 98.047,49.515 96.652,49.316C94.93,49.071 93.073,49.781 90.404,50.223C91.75,51.221 92.362,51.674 92.712,52.647C92.775,53.32 92.838,53.993 92.901,54.665C93.246,54.219 93.59,53.773 94.698,53.271C95.47,54.277 96.439,55.192 96.965,56.314C97.609,57.688 97.883,59.235 99.126,60.893M145.657,77.044C146.104,76.987 146.551,76.93 147.765,77.077C152.124,76.025 153.545,72.639 152.421,67.374C150.662,67.112 149.115,67.171 147.821,66.626C145.511,65.654 143.002,67.348 143.078,70.289C143.114,71.718 143.752,73.132 143.37,74.412C141.246,72.976 139.123,71.539 136.477,69.749C135.978,74.481 135.558,78.465 135.138,82.45C135.629,82.479 136.121,82.508 136.612,82.537C136.914,80.593 137.215,78.649 137.609,76.106C139.279,77.915 140.353,79.079 141.749,81.005C142.277,84.176 142.805,87.348 143.292,90.274C144.073,88.799 144.923,87.193 145.773,85.588C146.228,85.752 146.682,85.916 147.137,86.08C146.853,90.262 146.57,94.444 146.286,98.625C148.186,94.272 149.735,89.675 149.507,85.169C149.412,83.304 145.511,81.631 142.935,79.216C143.62,78.45 144.304,77.685 145.657,77.044M91.72,75.092C92.56,74.215 93.399,73.337 94.238,72.46C94.671,72.621 95.105,72.782 95.538,72.943C94.866,74.562 94.194,76.181 93.411,78.067C95.133,78.27 96.799,78.467 98.028,78.612C98.843,74.334 99.608,70.319 100.734,64.41C96.638,69.876 94.382,69.337 92.496,64.499C92,66.354 91.504,68.21 91.001,70.524C91.001,70.524 90.994,70.983 90.339,71.086C90.514,72.38 90.69,73.675 90.254,75.29C89.072,77.222 87.891,79.154 86.709,81.086C87.582,81.422 88.455,81.758 89.328,82.094C89.915,79.779 90.502,77.464 91.72,75.092M167.856,106.986C168.592,106.16 169.329,105.334 170.744,104.789C177.365,108.983 184,113.057 191.964,106.653C186.599,103.558 181.107,100.593 175.828,97.287C170.84,94.164 165.965,95.71 160.225,97.141C158.74,101.518 157.254,105.895 155.781,110.238C157.426,111.12 158.882,111.901 159.316,112.134C161.461,111.565 162.736,110.848 163.91,110.985C167.368,111.389 168.551,110.327 167.856,106.986M73.192,111.195C76.702,109.809 80.166,108.285 83.735,107.072C87.934,105.645 92.021,101.637 96.625,106.812C97.889,108.232 100.544,108.413 102.561,109.163C102.778,108.745 102.995,108.327 103.212,107.909C99.863,105.95 96.664,103.619 93.104,102.178C91.156,101.39 88.305,101.433 86.372,102.274C81.11,104.564 76.12,107.479 70.253,110.161C66.642,111.008 63.031,111.855 58.996,112.801C63.881,113.806 68.53,114.763 72.416,115.563C72.416,113.907 72.416,112.549 73.192,111.195M51.6,78.089C50.49,78.628 49.38,79.166 48.27,79.705C48.462,80.157 48.654,80.61 48.847,81.063C49.897,80.712 50.947,80.36 52.845,79.972C63.281,80.652 72.926,76.479 83.334,75.477C83.733,75.424 84.132,75.371 84.53,75.318C84.08,74.861 83.629,74.404 82.354,73.67C79.131,73.413 75.778,72.462 72.712,73.039C65.844,74.332 59.119,76.384 51.6,78.089M128.825,61.957C130.965,62.767 133.105,63.577 135.117,64.339C138.435,56.205 136.477,49.531 132.318,43.129C125.153,48.477 122.946,56.278 126.374,61.018C125.47,62.261 124.565,63.504 123.66,64.747C124.216,65.104 124.771,65.461 125.326,65.818C126.239,64.474 127.153,63.13 128.825,61.957M144.075,121.533C137.932,119.376 131.841,116.684 125.487,121.097C123.975,122.147 122.096,122.668 120.895,123.205C129.974,123.918 139.45,124.663 148.926,125.407C149.163,125.138 149.401,124.869 149.639,124.6C148.047,123.647 146.455,122.695 144.075,121.533M83.088,86.434C84.904,85.673 86.719,84.913 88.888,84.004C84.018,82.521 79.499,84.726 76.714,90.572C78.654,89.362 80.594,88.152 83.088,86.434M86.01,95.972C86.281,95.369 86.552,94.767 86.823,94.164C83.529,93.776 80.236,93.388 76.943,92.999C76.905,93.528 76.867,94.056 76.83,94.584C79.639,95.057 82.448,95.531 86.01,95.972M131.465,69.529C128.433,69.585 125.686,65.04 122.459,68.239C122.447,68.93 122.436,69.621 122.424,70.312C125.246,70.178 128.069,70.045 131.465,69.529M47.341,71.997C45.192,71.997 43.044,71.997 40.896,71.997C40.922,72.473 40.949,72.95 40.975,73.426C44.414,73.426 47.852,73.426 51.291,73.426C51.31,73.111 51.328,72.797 51.347,72.482C50.294,72.321 49.241,72.161 47.341,71.997M120.518,98.41C121.365,96.87 122.211,95.329 123.058,93.788C122.411,93.552 121.765,93.316 121.118,93.08C120.817,94.681 120.516,96.283 120.518,98.41M55.594,68.867C56.046,67.827 56.499,66.787 56.951,65.747C54.463,66.11 51.262,66.239 55.594,68.867M91.876,57.25C92.377,58.373 92.879,59.497 93.38,60.621C93.833,60.284 94.286,59.946 94.739,59.609C93.992,58.818 93.245,58.027 91.876,57.25M62.644,65.765C61.618,65.681 60.591,65.596 59.565,65.512C59.583,65.969 59.601,66.426 59.619,66.883C60.601,66.684 61.583,66.485 62.644,65.765M100.673,83.385C100.818,83.449 100.963,83.561 101.109,83.562C101.245,83.563 101.506,83.431 101.5,83.384C101.359,82.26 101.188,81.14 101.024,80.02C100.684,80.113 100.345,80.207 100.006,80.3C100.221,81.142 100.435,81.983 100.673,83.385M138.076,48.923C138.14,49.806 138.204,50.688 138.268,51.57C138.516,51.542 138.763,51.513 139.011,51.485C138.856,50.452 138.701,49.42 138.076,48.923M46.044,66.686C45.902,66.924 45.759,67.161 45.617,67.398C45.862,67.486 46.106,67.574 46.35,67.662C46.39,67.311 46.43,66.959 46.044,66.686M109.812,43.224C109.872,43.402 109.932,43.581 109.991,43.759C110.049,43.58 110.106,43.401 109.812,43.224M38.236,72.178C38.407,72.121 38.578,72.065 38.749,72.008C38.577,71.953 38.404,71.898 38.236,72.178M35.821,72.25C35.875,72.413 35.929,72.576 35.982,72.739C36.035,72.575 36.088,72.411 35.821,72.25M84.517,90.415C84.517,90.415 84.579,90.52 84.517,90.415M85.388,88.482C85.388,88.482 85.522,88.396 85.388,88.482z"/><path fill="#0e0e0e" d="M194.875,130.928C196.714,131.971 198.22,132.813 200.38,134.022C191.394,136.773 183.22,138.821 174.9,134.627C177.953,129.093 185.864,127.497 194.875,130.928z"/><path fill="#101010" d="M13.239,94.465C22.009,88.256 28.735,88.452 35.168,94.758C30.49,98.719 16.84,99.08 13.239,94.465z"/><path fill="#202020" d="M218.545,87.965C214.513,87.487 210.891,86.919 207.269,86.35C207.342,85.666 207.415,84.982 207.489,84.298C212.864,84.538 218.239,84.778 223.614,85.017C223.606,85.565 223.598,86.113 223.59,86.66C222.045,87.065 220.5,87.47 218.545,87.965z"/><path fill="#1e1e1e" d="M211.737,121.932C207.437,122.643 203.386,123.046 199.335,123.448C203.305,118.679 207.493,117.445 211.737,121.932z"/><path fill="#4a4a4a" d="M80.25,55.829C76.784,56.195 73.564,56.195 68.981,56.195C73.743,53.258 77.118,53.138 80.25,55.829z"/><path fill="#d1d1d1" d="M185.047,62.017C184.851,61.596 184.655,61.175 184.18,60.523C184.272,59.826 184.642,59.361 185.249,58.969C186.79,59.026 188.128,59.197 189.39,58.961C193.733,58.147 193.059,60.243 191.088,62.89C189.748,62.243 189.047,61.51 188.371,60.803C187.322,61.186 186.184,61.601 185.047,62.017z"/><path fill="#0d0d0d" d="M45.008,56.023C45.283,56.704 45.559,57.385 45.954,58.361C44.853,58.234 44.122,58.15 43.09,58.067C42.477,57.604 42.165,57.139 42.157,56.361C42.972,56.032 43.483,56.017 44.248,55.994C44.67,55.998 44.839,56.01 45.008,56.023z"/><path fill="#0d0d0d" d="M57.907,57.719C57.341,57.473 56.689,56.929 56.073,56.036C56.679,56.265 57.25,56.843 57.907,57.719z"/><path fill="#0d0d0d" d="M16.619,62.941C17.254,63.44 17.516,63.948 17.891,64.719C17.028,64.695 16.05,64.407 15.073,64.12C15.464,63.73 15.855,63.339 16.619,62.941z"/><path fill="#0d0d0d" d="M42.604,41.189C42.495,41.576 42.15,41.697 41.274,41.955C40.608,41.428 40.472,40.762 40.336,40.096C41.013,40.372 41.69,40.648 42.604,41.189z"/><path fill="#0d0d0d" d="M49.233,53.282C49.484,53.725 49.305,54.187 49.126,54.649C48.764,54.269 48.401,53.888 48.026,53.236C48.276,53.077 48.54,53.189 49.233,53.282z"/><path fill="#090909" d="M43.995,56.002C43.483,56.017 42.972,56.032 42.078,56.08C41.561,55.766 41.426,55.419 41.292,55.072C41.99,55.112 42.689,55.151 43.741,55.127C44.094,55.064 44.02,55.011 43.876,55.249C43.819,55.658 43.907,55.83 43.995,56.002z"/><path fill="#0f0f0f" d="M15.689,74.095C16.007,74.416 16.011,74.771 16.014,75.392C15.801,75.148 15.589,74.639 15.689,74.095z"/><path fill="#edeeed" d="M161.001,97.002C165.965,95.71 170.84,94.164 175.828,97.287C181.107,100.593 186.599,103.558 191.964,106.653C184,113.057 177.365,108.983 170.145,104.43C166.684,101.975 163.821,99.88 160.988,97.591C161.017,97.396 161.001,97.002 161.001,97.002z"/><path fill="#f1f1f1" d="M127.158,60.952C122.946,56.278 125.153,48.477 132.318,43.129C136.477,49.531 138.435,56.205 135.117,64.339C133.105,63.577 130.965,62.767 128.398,61.645C127.763,61.068 127.493,60.942 127.158,60.952z"/><path fill="#eaeaea" d="M184.695,62.174C186.184,61.601 187.322,61.186 188.371,60.803C189.047,61.51 189.748,62.243 190.778,63.003C190.084,65.861 188.902,68.646 188.075,71.534C186.92,75.572 185.686,79.641 185.133,83.783C184.677,87.205 182.891,87.244 179.507,86.705C181.131,78.521 182.737,70.426 184.695,62.174M185.717,67.537C186.161,66.745 186.604,65.953 187.048,65.162C186.673,65 186.299,64.839 185.924,64.678C185.71,65.487 185.496,66.297 185.717,67.537z"/><path fill="#e0e0e0" d="M83.018,75.051C72.926,76.479 63.281,80.652 52.389,79.666C52.068,78.949 52.202,78.538 52.336,78.127C59.119,76.384 65.844,74.332 72.712,73.039C75.778,72.462 79.131,73.413 82.733,74.086C83.081,74.684 83.05,74.868 83.018,75.051z"/><path fill="#e8e9e9" d="M145.009,35.025C142.337,32.476 139.793,29.772 136.957,27.42C133.944,24.921 130.653,22.757 127.248,19.876C127.012,18.861 127.011,18.415 127.009,17.97C131.805,19.506 136.6,21.042 141.972,22.762C140.647,23.382 139.492,23.922 138.428,24.42C142.186,26.975 146.095,29.633 149.631,32.61C148.522,33.364 147.779,33.787 147.053,34.238C146.373,34.66 145.713,35.112 145.044,35.419C145.043,35.287 145.009,35.025 145.009,35.025z"/><path fill="#e8e8e8" d="M144.469,121.638C146.455,122.695 148.047,123.647 149.639,124.6C149.401,124.869 149.163,125.138 148.926,125.407C139.45,124.663 129.974,123.918 120.895,123.205C122.096,122.668 123.975,122.147 125.487,121.097C131.841,116.684 137.932,119.376 144.469,121.638z"/><path fill="#e3e3e4" d="M144.651,35.172C145.009,35.025 145.043,35.287 145.157,35.779C146.182,36.52 147.092,36.769 148.002,37.01C148.002,37.001 147.983,36.998 148.047,37.352C150.287,41.712 153.92,43.732 158.089,45.02C157.675,47.833 157.262,50.646 156.767,54.012C155.321,53.268 154.401,52.795 153.245,51.737C152.5,50.131 151.99,49.109 151.481,48.087C149.873,46.298 147.894,44.714 146.758,42.664C145.526,40.443 145.081,37.786 144.651,35.172z"/><path fill="#eaebeb" d="M71.023,110.146C76.12,107.479 81.11,104.564 86.372,102.274C88.305,101.433 91.156,101.39 93.104,102.178C96.664,103.619 99.863,105.95 103.212,107.909C102.995,108.327 102.778,108.745 102.561,109.163C100.544,108.413 97.889,108.232 96.625,106.812C92.021,101.637 87.934,105.645 83.735,107.072C80.166,108.285 76.702,109.809 72.533,111.071C71.59,110.68 71.307,110.413 71.023,110.146z"/><path fill="#e3e3e3" d="M160.613,97.071C161.001,97.002 161.017,97.396 160.888,98.015C161.082,100.424 160.001,103.175 163.63,102.745C163.838,102.72 164.067,104.07 164.512,104.584C165.276,105.466 166.219,106.193 167.087,106.985C168.551,110.327 167.368,111.389 163.91,110.985C162.736,110.848 161.461,111.565 159.316,112.134C158.882,111.901 157.426,111.12 155.781,110.238C157.254,105.895 158.74,101.518 160.613,97.071z"/><path fill="#d3d4d4" d="M144.117,74.553C143.752,73.132 143.114,71.718 143.078,70.289C143.002,67.348 145.511,65.654 147.821,66.626C149.115,67.171 150.662,67.112 152.421,67.374C153.545,72.639 152.124,76.025 147.322,76.65C145.965,75.821 145.051,75.418 144.101,74.9C144.064,74.786 144.117,74.553 144.117,74.553z"/><path fill="#161616" d="M91.008,70.066C91.504,68.21 92,66.354 92.496,64.499C94.382,69.337 96.638,69.876 100.734,64.41C99.608,70.319 98.843,74.334 98.028,78.612C96.799,78.467 95.133,78.27 93.411,78.067C94.194,76.181 94.866,74.562 95.538,72.943C95.105,72.782 94.671,72.621 94.238,72.46C93.399,73.337 92.56,74.215 91.354,75.069C90.987,75.046 90.865,74.969 90.865,74.969C90.69,73.675 90.514,72.38 90.826,70.956C91.375,70.726 91.511,70.568 91.487,70.537C91.349,70.363 91.172,70.22 91.008,70.066M91.478,72.489C91.478,72.489 91.513,72.473 91.478,72.489z"/><path fill="#e0e0e0" d="M143.342,79.871C145.511,81.631 149.412,83.304 149.507,85.169C149.735,89.675 148.186,94.272 146.286,98.625C146.57,94.444 146.853,90.262 147.137,86.08C146.682,85.916 146.228,85.752 145.773,85.588C144.923,87.193 144.073,88.799 143.292,90.274C142.805,87.348 142.277,84.176 142.067,80.529C142.703,79.993 143.022,79.932 143.342,79.871z"/><path fill="#dedede" d="M143.138,79.543C143.022,79.932 142.703,79.993 141.906,80.148C140.353,79.079 139.279,77.915 137.609,76.106C137.215,78.649 136.914,80.593 136.612,82.537C136.121,82.508 135.629,82.479 135.138,82.45C135.558,78.465 135.978,74.481 136.477,69.749C139.123,71.539 141.246,72.976 143.744,74.483C144.117,74.553 144.064,74.786 144.164,75.154C144.505,75.987 144.746,76.453 144.988,76.919C144.304,77.685 143.62,78.45 143.138,79.543z"/><path fill="#302f2f" d="M167.472,106.985C166.219,106.193 165.276,105.466 164.512,104.584C164.067,104.07 163.838,102.72 163.63,102.745C160.001,103.175 161.082,100.424 160.859,98.21C163.821,99.88 166.684,101.975 169.805,104.289C169.329,105.334 168.592,106.16 167.472,106.985z"/><path fill="#d7d8d9" d="M92.973,52.128C92.362,51.674 91.75,51.221 90.404,50.223C93.073,49.781 94.93,49.071 96.652,49.316C98.047,49.515 99.278,50.862 99.753,51.166C99.502,53.321 99.269,55.316 99.191,58.017C99.002,59.385 98.659,60.046 98.316,60.708C97.883,59.235 97.609,57.688 96.965,56.314C96.439,55.192 95.47,54.277 94.316,52.991C93.614,52.516 93.294,52.322 92.973,52.128z"/><path fill="#dedede" d="M70.638,110.153C71.307,110.413 71.59,110.68 72.145,111.069C72.416,112.549 72.416,113.907 72.416,115.563C68.53,114.763 63.881,113.806 58.996,112.801C63.031,111.855 66.642,111.008 70.638,110.153z"/><path fill="#c9c9c9" d="M158.424,44.918C153.92,43.732 150.287,41.712 148.41,37.383C151.531,38.39 154.352,39.72 157.174,41.051C158.74,41.862 160.306,42.674 161.934,43.517C160.809,43.977 159.784,44.397 158.424,44.918z"/><path fill="#d1d1d1" d="M127.134,17.638C127.011,18.415 127.012,18.861 127.011,19.64C123.7,17.768 120.389,15.561 117.079,13.354C117.205,12.976 117.332,12.599 117.458,12.222C121.155,13.666 124.852,15.111 128.532,16.548C128.521,16.564 128.402,16.852 128.186,16.99C127.919,17.16 127.572,17.206 127.134,17.638z"/><path fill="#0f0f0f" d="M82.811,86.688C80.594,88.152 78.654,89.362 76.714,90.572C79.499,84.726 84.018,82.521 88.888,84.004C86.719,84.913 84.904,85.673 82.811,86.688z"/><path fill="#0f0f0f" d="M85.634,95.988C82.448,95.531 79.639,95.057 76.83,94.584C76.867,94.056 76.905,93.528 76.943,92.999C80.236,93.388 83.529,93.776 86.823,94.164C86.552,94.767 86.281,95.369 85.634,95.988z"/><path fill="#1c1b1c" d="M131.178,69.72C128.069,70.045 125.246,70.178 122.424,70.312C122.436,69.621 122.447,68.93 122.459,68.239C125.686,65.04 128.433,69.585 131.178,69.72z"/><path fill="#dedede" d="M156.974,40.756C154.352,39.72 151.531,38.39 148.346,37.029C147.983,36.998 148.002,37.001 148.047,36.671C149.417,35.414 150.741,34.486 152.066,33.558C153.635,35.859 155.205,38.16 156.974,40.756z"/><path fill="#0f0f0f" d="M47.764,71.998C49.241,72.161 50.294,72.321 51.347,72.482C51.328,72.797 51.31,73.111 51.291,73.426C47.852,73.426 44.414,73.426 40.975,73.426C40.949,72.95 40.922,72.473 40.896,71.997C43.044,71.997 45.192,71.997 47.764,71.998z"/><path fill="#0f0f0f" d="M91.038,75.097C90.502,77.464 89.915,79.779 89.328,82.094C88.455,81.758 87.582,81.422 86.709,81.086C87.891,79.154 89.072,77.222 90.56,75.13C90.865,74.969 90.987,75.046 91.038,75.097z"/><path fill="#c9c9c9" d="M151.817,33.419C150.741,34.486 149.417,35.414 148.047,36.68C147.092,36.769 146.182,36.52 145.158,35.911C145.713,35.112 146.373,34.66 147.053,34.238C147.779,33.787 148.522,33.364 149.568,32.975C150.441,33.108 151.004,33.194 151.817,33.419z"/><path fill="#1c1b1c" d="M126.766,60.985C127.493,60.942 127.763,61.068 128.018,61.559C127.153,63.13 126.239,64.474 125.326,65.818C124.771,65.461 124.216,65.104 123.66,64.747C124.565,63.504 125.47,62.261 126.766,60.985z"/><path fill="#6a6b6b" d="M120.366,98.148C120.516,96.283 120.817,94.681 121.118,93.08C121.765,93.316 122.411,93.552 123.058,93.788C122.211,95.329 121.365,96.87 120.366,98.148z"/><path fill="#0f0f0f" d="M55.243,68.846C51.262,66.239 54.463,66.11 56.951,65.747C56.499,66.787 56.046,67.827 55.243,68.846z"/><path fill="#dedede" d="M151.148,48.195C151.99,49.109 152.5,50.131 153.008,51.487C151.517,50.716 150.027,49.609 147.95,48.067C149.496,48.194 150.156,48.249 151.148,48.195z"/><path fill="#0f0f0f" d="M51.968,78.108C52.202,78.538 52.068,78.949 51.965,79.684C50.947,80.36 49.897,80.712 48.847,81.063C48.654,80.61 48.462,80.157 48.27,79.705C49.38,79.166 50.49,78.628 51.968,78.108z"/><path fill="#161616" d="M98.721,60.8C98.659,60.046 99.002,59.385 99.373,58.345C100.214,58.512 101.026,59.058 101.839,59.604C100.934,60.034 100.03,60.463 98.721,60.8z"/><path fill="#161616" d="M92.187,57.243C93.245,58.027 93.992,58.818 94.739,59.609C94.286,59.946 93.833,60.284 93.38,60.621C92.879,59.497 92.377,58.373 92.187,57.243z"/><path fill="#0d0d0d" d="M62.605,66.026C61.583,66.485 60.601,66.684 59.619,66.883C59.601,66.426 59.583,65.969 59.565,65.512C60.591,65.596 61.618,65.681 62.605,66.026z"/><path fill="#161616" d="M100.661,83.105C100.435,81.983 100.221,81.142 100.006,80.3C100.345,80.207 100.684,80.113 101.024,80.02C101.188,81.14 101.359,82.26 101.5,83.384C101.506,83.431 101.245,83.563 101.109,83.562C100.963,83.561 100.818,83.449 100.661,83.105z"/><path fill="#0d0d0d" d="M39.059,65.942C40.027,65.942 40.995,65.942 41.963,65.942C41.944,66.312 41.926,66.682 41.908,67.052C40.957,66.93 40.006,66.807 39.025,66.346C38.994,66.007 39.059,65.942 39.059,65.942z"/><path fill="#0d0d0d" d="M38.984,64.984C39.53,64.38 40.076,63.776 40.622,63.172C40.917,63.453 41.212,63.733 41.507,64.014C40.904,64.342 40.3,64.67 39.348,64.999C39,65 38.984,64.984 38.984,64.984z"/><path fill="#161616" d="M107.002,50.002C107.479,49.303 107.957,48.604 108.434,47.906C108.703,48.111 108.971,48.316 109.24,48.522C108.699,48.995 108.158,49.469 107.308,49.971C107,50 107.002,50.002 107.002,50.002z"/><path fill="#d4d5d5" d="M145.323,76.982C144.746,76.453 144.505,75.987 144.2,75.268C145.051,75.418 145.965,75.821 146.939,76.548C146.551,76.93 146.104,76.987 145.323,76.982z"/><path fill="#161616" d="M92.843,52.388C93.294,52.322 93.614,52.516 93.934,53.019C93.59,53.773 93.246,54.219 92.901,54.665C92.838,53.993 92.775,53.32 92.843,52.388z"/><path fill="#0f0f0f" d="M83.176,75.264C83.05,74.868 83.081,74.684 83.145,74.224C83.629,74.404 84.08,74.861 84.53,75.318C84.132,75.371 83.733,75.424 83.176,75.264z"/><path fill="#c9c9c9" d="M138.311,48.655C138.701,49.42 138.856,50.452 139.011,51.485C138.763,51.513 138.516,51.542 138.268,51.57C138.204,50.688 138.14,49.806 138.311,48.655z"/><path fill="#161616" d="M102.078,48.902C102.461,49.404 102.845,49.906 103.229,50.408C102.899,50.625 102.569,50.843 102.24,51.06C102.141,50.587 102.043,50.114 101.972,49.316C102,48.99 102.078,48.902 102.078,48.902z"/><path fill="#0d0d0d" d="M46.257,66.647C46.43,66.959 46.39,67.311 46.35,67.662C46.106,67.574 45.862,67.486 45.617,67.398C45.759,67.161 45.902,66.924 46.257,66.647z"/><path fill="#0d0d0d" d="M38.963,66.04C38.082,65.894 37.232,65.716 36.19,65.268C35.996,64.999 36.033,64.956 36.033,64.956C36.771,64.967 37.509,64.977 38.615,64.986C38.984,64.984 39,65 39.008,65.008C39.016,65.016 39.023,65.48 39.041,65.711C39.059,65.942 38.994,66.007 38.963,66.04z"/><path fill="#161616" d="M109.988,43.223C110.106,43.401 110.049,43.58 109.991,43.759C109.932,43.581 109.872,43.402 109.988,43.223z"/><path fill="#0f0f0f" d="M38.234,72.01C38.404,71.898 38.577,71.953 38.749,72.008C38.578,72.065 38.407,72.121 38.234,72.01z"/><path fill="#161616" d="M106.999,49.999C106.644,50.249 106.29,50.5 105.935,50.751C105.847,50.625 105.759,50.499 105.671,50.373C105.952,50.257 106.233,50.14 106.758,50.013C107.002,50.002 107,50 106.999,49.999z"/><path fill="#0f0f0f" d="M35.981,72.248C36.088,72.411 36.035,72.575 35.982,72.739C35.929,72.576 35.875,72.413 35.981,72.248z"/><path fill="#0f0f0f" d="M84.548,90.467C84.579,90.52 84.517,90.415 84.548,90.467z"/><path fill="#0f0f0f" d="M85.455,88.439C85.522,88.396 85.388,88.482 85.455,88.439z"/><path fill="#0d0d0d" d="M91.004,70.295C91.172,70.22 91.349,70.363 91.487,70.537C91.511,70.568 91.375,70.726 91.154,70.904C90.994,70.983 91.001,70.524 91.004,70.295z"/><path fill="#0d0d0d" d="M35.975,65.017C35.846,64.88 35.737,64.725 35.629,64.57C35.719,64.613 35.809,64.656 35.966,64.828C36.033,64.956 35.996,64.999 35.975,65.017z"/><path fill="#161616" d="M101.957,49.03C101.808,48.889 101.702,48.708 101.597,48.527C101.702,48.564 101.807,48.601 101.995,48.77C102.078,48.902 102,48.99 101.957,49.03z"/><path fill="#f9f9f9" d="M44.248,55.994C43.907,55.83 43.819,55.658 43.841,55.219C44.314,55.062 44.676,55.172 45.023,55.652C44.839,56.01 44.67,55.998 44.248,55.994z"/><path fill="#d1d1d1" d="M185.499,67.321C185.496,66.297 185.71,65.487 185.924,64.678C186.299,64.839 186.673,65 187.048,65.162C186.604,65.953 186.161,66.745 185.499,67.321z"/><path fill="#090909" d="M91.496,72.481C91.513,72.473 91.478,72.489 91.496,72.481z"/></svg>