<svg xmlns="http://www.w3.org/2000/svg" viewBox="0 0 219 191" xml:space="preserve"><path fill="#151515" d="M142.333,192C139.635,191.062 137.32,189.953 134.887,189.248C133.298,188.787 131.538,188.914 129.379,188.739C138.591,178.402 141.871,178.278 155.996,187.768C151.625,189.044 147.875,190.139 144.062,191.617C143.556,192 143.111,192 142.333,192z"/><path fill="#0d0d0d" d="M22.53,159.529C22.37,158.119 22.21,156.709 22.049,155.299C22.386,155.122 22.722,154.946 23.058,154.769C24.148,156.479 25.238,158.188 26.904,160.801C27.457,158.396 28.117,156.789 28.14,155.174C28.199,151.018 27.883,146.858 27.92,142.702C27.932,141.317 28.149,139.104 28.977,138.694C33.458,136.477 31.873,132.724 31.835,129.318C31.776,123.987 31.62,118.651 31.778,113.325C31.821,111.888 32.847,110.479 33.422,109.057C34.759,109.794 36.557,110.216 37.326,111.341C38.58,113.177 39.115,115.494 40.043,117.568C40.769,119.191 41.631,120.753 42.611,122.694C43.93,118.945 45.093,116.153 45.854,113.255C46.202,111.927 46.293,109.531 45.589,109.097C42.188,107 43.218,103.879 43.27,101.049C43.572,84.737 43.975,68.426 44.322,52.115C44.342,51.148 44.179,50.177 44.03,48.331C42.786,49.868 42.019,50.816 40.336,52.896C39.837,47.465 39.191,43.17 39.212,38.878C39.217,37.71 41.473,36.695 42.262,35.354C43.429,33.373 45.036,31.15 45.001,29.054C44.883,21.949 44.126,14.855 43.586,7.384C53.107,6.436 61.994,6.052 70.114,10.934C71.071,11.509 71.383,13.687 71.431,15.141C71.59,19.958 71.491,24.783 71.491,29.996C80.832,28.888 75.242,37.068 78.016,39.526C88.915,30.501 99.895,21.409 111.016,12.199C122.358,21.28 133.383,30.108 144.084,38.676C144.964,36.518 145.892,34.242 146.882,31.815C146.882,27.704 146.761,23.085 146.978,18.481C147.025,17.495 148.288,16.562 149.01,15.62C149.099,15.504 149.308,15.482 149.46,15.414C160.809,10.315 160.809,10.315 163.157,23.378C164.08,22.982 164.968,22.671 165.79,22.236C169.123,20.472 171.808,21.809 171.371,25.62C170.632,32.075 173.463,38.567 170.359,45.123C169.274,47.415 171.085,51.078 171.674,54.737C173.574,53.355 175.203,52.17 177.794,50.285C178.265,52.578 178.966,54.304 178.913,56.007C178.652,64.388 177.791,72.769 177.912,81.139C178.037,89.843 179.207,98.526 179.608,107.234C179.889,113.318 179.63,119.426 179.649,125.523C179.653,126.622 179.837,127.72 180.002,129.527C182.924,125.565 185.438,122.154 187.953,118.744C188.444,118.826 188.934,118.908 189.425,118.99C189.777,120.366 190.423,121.741 190.428,123.117C190.444,128.605 190.126,134.095 190.214,139.58C190.254,142.042 189.755,144.778 192.896,146.445C193.738,146.891 193.409,149.74 193.436,151.488C193.51,156.317 191.53,161.424 195.362,165.745C197.923,164.666 200.399,163.623 203.539,162.3C203.402,170.282 209.877,170.672 214.606,172.986C214.49,173.558 214.374,174.129 214.258,174.7C208.958,174.455 203.66,174.089 198.358,174.009C195.245,173.962 192.125,174.369 189.008,174.572C189.003,175.16 188.998,175.748 188.994,176.336C192.342,176.608 195.69,176.88 199.038,177.152C198.975,178.133 198.912,179.114 198.848,180.095C194.795,179.75 190.74,179.427 186.689,179.05C184.603,178.856 182.521,178.595 180.444,178.316C176.937,177.844 173.434,177.334 169.398,176.602C168.408,176.333 167.951,176.303 167.493,176.273C167.78,176.718 168.066,177.163 168.352,177.608C168.899,178.373 169.445,179.137 170.027,179.95C160.534,184.238 150.484,182.788 149.401,176.989C142.585,176.989 135.771,176.989 127.618,176.989C129.67,174.74 130.608,173.713 131.973,172.217C123.377,172.952 115.271,175.033 107.18,173.437C107.152,173.013 107.123,172.589 107.094,172.165C108.957,171.75 110.827,171.362 112.68,170.908C113.451,170.719 114.786,170.49 114.849,170.11C115.731,164.824 120.556,165.744 123.832,164.261C124.03,159.146 125.617,157.864 131.891,157.877C133.042,154.574 129.55,148.658 136.567,148.84C138.51,146.126 132.072,139.996 140.274,140.818C140.274,135.643 140.274,130.757 140.274,125.844C133.326,126.525 131.8,131.66 130.838,137.078C129.016,134.224 126.496,131.966 126.299,129.521C126.075,126.732 127.921,123.776 129.13,120.093C130.176,122.031 130.911,123.393 131.655,124.773C140.481,121.731 140.642,121.462 140.566,112.266C140.523,107.106 140.709,101.943 140.568,96.787C140.522,95.114 139.766,93.461 139.335,91.799C138.865,91.866 138.395,91.933 137.925,92.001C137.241,95.047 136.557,98.093 135.872,101.14C135.243,101.087 134.613,101.034 133.983,100.98C133.983,98.351 133.501,95.605 134.1,93.12C134.919,89.724 134.082,87.527 131.372,85.489C130.577,84.891 130.656,83.13 130.985,81.922C132.581,82.637 133.527,83.331 134.553,84.085C136.444,75.974 140.053,68.28 133.077,61.013C132.652,64.797 132.345,68.367 131.742,71.886C131.66,72.367 130.096,72.593 129.218,72.937C129.218,68.98 129.218,65.024 129.218,60.743C124.209,61.735 120.514,62.549 121.035,68.766C121.42,73.375 120.172,78.12 118.736,82.866C118.209,77.236 117.681,71.606 117.177,66.235C115.656,65.363 114.282,64.576 112.908,63.789C113.915,62.664 115.012,61.606 115.896,60.392C116.507,59.553 117.109,58.527 117.208,57.533C117.389,55.724 116.963,53.848 117.199,52.053C117.838,47.194 116.455,43.715 111.563,42.593C97.851,46.284 105.05,57.426 102.374,66.334C104.969,65.198 106.491,64.531 108.012,63.864C108.445,64.117 108.878,64.37 109.31,64.623C108.388,66.212 107.834,68.35 106.463,69.268C104.051,70.885 103.363,72.491 103.598,75.42C103.875,78.869 103.073,82.405 102.739,85.903C102.229,85.887 101.718,85.87 101.208,85.854C100.615,82.052 100.023,78.25 99.436,74.485C92.494,77.163 91.516,78.672 91.681,85.715C91.794,90.491 91.695,95.275 91.595,100.053C91.579,100.821 91.063,101.579 90.319,103.567C89.235,95.857 88.325,89.384 87.415,82.91C87.017,82.69 86.619,82.471 86.22,82.251C85.292,84.085 83.603,85.904 83.564,87.756C83.376,96.729 83.682,105.711 83.708,114.691C83.72,118.935 83.448,123.18 83.389,127.425C83.273,135.855 83.297,135.856 91.362,139.297C92.773,137.173 94.179,135.058 95.585,132.943C96.036,133.118 96.487,133.292 96.938,133.467C96.725,134.761 96.49,136.052 96.304,137.35C95.975,139.651 94.406,142.163 98.109,143.567C98.829,143.84 98.647,146.495 99.048,149.158C96.599,147.761 95.38,147.066 93.235,145.842C92.89,149.533 92.608,152.542 92.247,156.397C94.785,155.533 96.104,155.084 97.423,154.635C97.237,155.002 97.051,155.37 96.865,155.737C101.417,158.429 105.969,161.121 110.587,163.852C105.788,163.852 100.794,163.852 95.613,163.852C96.396,165.742 97.009,167.223 97.552,168.532C92.086,168.532 87.042,168.14 82.096,168.665C78.569,169.039 75.225,170.909 71.698,171.591C69.886,171.941 67.884,173.499 65.733,170.406C64.792,169.053 59.527,170.651 56.236,171.005C53.768,171.271 51.316,171.692 47.981,171.958C43.846,172.299 40.589,172.727 37.331,173.156C37.355,173.615 37.379,174.074 37.404,174.533C38.941,175.365 40.478,176.197 42.016,177.03C35.908,177.687 29.8,178.344 23.692,179.001C23.568,178.42 23.444,177.839 23.321,177.259C25.759,176.322 28.197,175.384 31.061,174.283C22.821,170.854 14.316,173.257 6.182,172.438C6.117,171.944 6.052,171.449 5.986,170.954C10.297,169.385 14.608,167.816 19.701,165.963C18.511,163.788 17.247,161.48 15.529,158.342C17.657,158.986 19.352,159.499 21.536,160.35C22.25,160.704 22.475,160.72 22.7,160.736C22.643,160.334 22.587,159.931 22.53,159.529M73.482,68.796C74.119,68.859 74.756,68.922 75.393,68.984C75.293,68.583 75.192,68.181 75.24,67.313C75.5,66.901 75.761,66.489 76.705,65.986C77.723,65.447 78.741,64.908 80.548,63.952C76.537,62.042 73.403,60.549 70.29,59.066C66.4,66.958 66.639,67.532 73.453,68.177C73.453,68.177 73.448,68.081 73.482,68.796M89.771,49.174C89.518,48.703 89.264,48.232 89.345,47.177C89.472,46.128 89.6,45.08 90.351,44.225C91.078,44.002 91.805,43.779 92.532,43.556C91.941,43.007 91.351,42.459 90.821,41.319C90.554,41.186 90.288,41.054 90.037,41.003C90.037,41.003 90.118,40.982 90.585,40.342C89.603,38.858 88.621,37.374 87.161,35.167C84.054,38.878 81.368,42.084 78.54,45.461C81.342,47.962 83.796,50.152 86.748,52.786C87.732,51.348 88.487,50.245 89.162,49.061C89.162,49.061 89.064,49.12 89.771,49.174M154.269,128.585C154.269,128.585 154.324,128.259 155.465,128.605C155.863,128.61 156.26,128.615 156.951,129.202C157.447,125.969 157.944,122.736 158.463,119.354C153.994,119.354 150.326,119.354 146.93,119.354C146.93,122.985 146.93,126.246 146.93,128.595C149.571,129.088 151.607,129.469 154.39,129.977C154.44,129.576 154.49,129.176 154.269,128.585M55.818,12.904C59.082,12.904 62.346,12.904 66.001,12.904C63.155,11.625 60.905,10.004 58.491,9.703C56.145,9.41 53.63,10.471 50.308,10.965C49.208,11.625 47.215,12.216 47.158,12.957C46.845,16.995 47.009,21.069 47.009,24.168C48.717,24.783 49.436,24.915 50.008,25.279C50.754,25.752 51.384,26.409 52.071,27.684C52.682,28.61 53.294,29.535 53.906,30.46C54.284,30.178 54.662,29.895 55.04,29.613C55.04,24.083 55.04,18.554 55.818,12.904M72.995,73.195C70.895,72.183 68.794,71.171 65.669,69.666C65.439,74.212 65.283,77.28 65.069,81.491C68.355,79.972 70.375,79.038 73.136,77.96C74.473,76.97 75.81,75.98 77.147,74.99C75.748,74.657 74.348,74.324 72.995,73.195M153.093,87.134C154.792,86.961 156.49,86.787 158.189,86.614C158.223,86.009 158.257,85.404 158.291,84.799C156.039,84.617 153.787,84.435 150.776,84.358C149.405,84.358 148.033,84.358 146.486,84.358C146.705,88.589 146.902,92.386 147.127,96.72C148.878,95.883 149.874,95.407 151.432,94.97C153.43,95.388 155.428,95.806 157.461,96.23C157.268,93.985 157.395,92.392 156.894,91.03C156.67,90.42 155.188,90.271 153.916,89.328C153.344,88.625 152.773,87.921 153.093,87.134M100.9,30.194C101.229,30.646 101.559,31.098 101.888,31.549C102.085,31.373 102.282,31.198 102.478,31.022C101.965,30.509 101.451,29.997 101.013,28.761C101.259,26.12 100.395,25.081 97.993,26.879C95.51,28.738 93.153,30.766 90.608,32.828C92.174,35.332 93.325,37.54 94.852,39.448C95.523,40.287 96.96,40.513 98.774,41.007C103.048,39.168 99.214,37.015 98.916,34.222C98.512,33.265 98.108,32.308 97.567,31.029C98.73,30.502 99.838,29.999 100.9,30.194M138.387,43.782C139.845,43.782 141.302,43.782 142.76,43.782C142.879,43.331 142.998,42.881 143.117,42.431C141.672,41.626 140.228,40.822 138.768,39.312C137.666,37.767 136.564,36.221 135.055,34.106C132.206,38.478 130.274,41.443 128.558,44.076C130.173,45.801 131.437,47.152 132.217,47.985C134.132,47.33 135.968,46.701 137.799,46.074C137.756,45.349 137.695,44.349 138.387,43.782M74.543,90.496C74.953,91.866 75.362,93.236 75.771,94.606C76.21,94.496 76.648,94.386 77.087,94.275C76.722,92.51 76.356,90.745 76.027,88.097C76.027,86.865 76.027,85.633 76.027,84.334C72.212,84.334 68.955,84.334 65.406,84.334C65.406,88.065 65.406,91.478 65.406,95.149C67.294,95.264 69.006,95.369 69.453,95.396C71.42,93.073 72.718,91.54 74.543,90.496M149.399,114.587C151.558,114.073 153.716,113.56 156.763,113.353C157.047,109.167 158.456,104.559 157.114,100.983C156.497,99.338 150.491,99.715 146.687,99.138C146.687,104.445 146.609,108.554 146.79,112.651C146.811,113.143 148.235,113.573 149.399,114.587M65.288,109.719C65.288,111.673 65.288,113.627 65.288,115.275C69.366,115.527 72.782,115.738 76.169,115.947C77.246,104.303 77.246,104.303 71.049,101.008C67.104,99.045 65.489,99.693 65.232,103.528C65.112,105.316 65.431,107.134 65.288,109.719M107.697,34.002C109.79,34.234 111.883,34.465 114.218,34.722C114.218,32.111 113.346,29.276 114.379,27.65C117.687,22.441 115.179,19.573 110.515,16.375C108.682,18.954 105.852,21.313 105.355,24.089C104.846,26.937 106.618,30.194 107.697,34.002M90.656,60.301C90.656,64.626 90.656,68.95 90.656,73.275C91.179,73.369 91.703,73.464 92.227,73.558C94.588,71.616 98.541,69.981 98.989,67.668C100.01,62.402 99.311,56.802 99.311,51.338C98.878,51.294 98.445,51.249 98.012,51.205C95.692,54.026 93.372,56.847 90.656,60.301M160.794,155.595C161.493,157.023 162.193,158.45 162.884,159.882C162.912,159.939 162.845,160.042 163.129,159.018C162.862,157.859 162.367,155.714 161.912,153.742C156.152,153.742 150.8,153.742 144.946,153.742C145.333,156.535 145.637,158.723 145.885,160.51C149.538,160.202 152.63,159.941 155.52,159.698C156.799,158.457 158.46,156.844 160.794,155.595M128.27,29.099C126.322,27.987 124.374,26.874 122.24,25.656C120.518,29.689 118.946,33.37 117.292,37.242C119.667,37.498 121.278,37.752 122.897,37.823C124.365,37.887 125.842,37.752 127.314,37.704C126.935,34.806 133.532,33.219 128.27,29.099M139.967,57.693C140.48,58.82 140.993,59.947 141.546,61.161C144.712,59.522 149.009,58.669 150.15,56.297C151.149,54.222 148.6,50.44 147.192,46.1C143.029,49.969 140.112,52.679 137.249,55.34C138.315,56 139.085,56.477 139.967,57.693M63.282,153.662C62.233,155.551 61.184,157.44 60.135,159.328C60.528,159.842 60.92,160.355 61.312,160.868C65.077,160.868 68.841,160.868 73.78,160.868C72,158.84 71.392,158.147 70.219,156.81C73.588,155.951 76.306,155.257 79.023,154.563C78.961,154.199 78.898,153.834 78.836,153.47C73.942,153.47 69.049,153.47 63.282,153.662M158.84,138.268C158.774,136.857 158.708,135.446 158.638,133.949C154.468,133.949 150.757,133.949 147.046,133.949C147.046,137.218 147.046,140.231 147.046,143.926C149.574,142.72 151.559,141.773 153.574,140.811C157.409,144.103 157.894,143.958 158.84,138.268M65.068,142.572C68.467,144.702 71.099,143.316 73.319,140.227C73.747,141.678 74.022,142.615 74.478,144.162C75.231,140.365 75.842,137.284 76.454,134.198C72.609,134.198 68.997,134.198 64.977,134.198C64.977,136.86 64.977,139.303 65.068,142.572M65.009,127.932C65.27,129.859 65.095,131.635 68.095,129.638C69.937,128.411 72.827,128.756 75.951,128.291C75.951,128.306 75.951,126.894 75.951,125.482C75.951,124.073 75.951,122.664 75.951,121.294C64.964,120.52 64.964,120.52 65.009,127.932M48.922,46.77C48.728,49.124 48.534,51.478 48.341,53.832C48.871,53.897 49.402,53.962 49.933,54.027C50.505,52.33 51.077,50.634 51.649,48.937C51.986,48.925 52.323,48.912 52.66,48.9C52.908,53.273 53.157,57.646 53.405,62.019C53.814,61.985 54.223,61.951 54.632,61.917C55.01,56.371 55.387,50.825 55.789,44.907C55.231,43.913 54.23,42.13 53.557,40.933C51.981,42.56 50.283,44.312 48.922,46.77M169.168,169.741C172.312,170.154 175.456,170.568 178.925,171.024C179.273,170.581 180.538,169.697 180.578,168.761C180.656,166.926 180.379,164.903 179.59,163.278C179.202,162.479 176.784,161.683 176.246,162.106C173.647,164.152 171.375,166.613 169.168,169.741M40.007,166.663C40.968,166.268 41.929,165.872 43.5,165.226C40.769,163.267 38.535,161.666 36.242,160.021C33.233,161.477 30.31,162.891 27.222,164.385C29.916,165.845 32.246,167.108 34.736,168.457C35.948,168.055 37.625,167.499 40.007,166.663M148.482,71.998C143.26,74.076 147.242,77.361 147.037,80.207C150.885,80.577 151.992,72.141 156.858,78.032C156.858,75.13 156.858,72.626 156.858,69.824C154.071,70.541 151.674,71.158 148.482,71.998M150.089,60.386C143.213,62.825 142.391,64.639 145.91,69.841C149.032,68.656 152.175,67.463 156.432,65.847C154.309,63.64 152.569,61.832 150.089,60.386M77.098,58.944C78.652,58.317 81.278,58.011 81.578,57.008C83.019,52.199 79.13,50.64 75.292,48.261C73.814,51.132 72.496,53.69 71.179,56.248C71.425,56.588 71.671,56.927 71.918,57.266C74.689,55.053 75.7,56.5 77.098,58.944M145.077,163.268C140.002,163.388 137.202,165.728 137.346,169.809C139.255,170.762 143.641,167.973 142.374,173.125C144.886,170.587 147.253,168.196 149.874,165.549C148.608,164.936 147.194,164.252 145.077,163.268M37.161,118.976C36.651,117.472 36.141,115.967 35.632,114.463C35.194,114.604 34.756,114.746 34.318,114.888C36.118,121.147 33,128.104 36.302,134.15C36.966,134.07 37.629,133.991 38.292,133.911C37.896,129.205 37.501,124.499 37.161,118.976M54.943,77.111C55.188,75.807 55.432,74.502 55.793,72.578C51.044,77.848 51.021,89.483 54.897,94.448C54.897,89.263 54.897,83.634 54.943,77.111M76.237,146.998C73.16,146.845 70.08,146.513 67.009,146.584C63.234,146.671 64.18,148.628 65.736,151.078C66.436,150.278 66.941,149.218 67.427,149.226C70.007,149.269 72.583,149.694 75.16,149.697C75.654,149.697 76.149,148.4 76.237,146.998M152.999,150.007C154.918,149.831 156.837,149.655 159.272,149.431C158.958,148.803 158.422,146.791 157.875,146.788C154.028,146.768 150.179,147.161 146.331,147.422C146.498,148.583 146.665,149.744 146.832,150.905C147.204,150.428 147.576,149.951 147.948,149.474C149.518,149.881 151.088,150.288 152.999,150.007M127.648,56.036C126.026,53.494 124.404,50.951 122.781,48.409C122.326,48.659 121.87,48.908 121.414,49.158C121.414,52.088 121.414,55.017 121.414,58.323C123.523,57.533 125.191,56.908 127.648,56.036M51.779,150.482C52.515,152.034 53.25,153.586 53.986,155.138C54.819,152.273 55.083,149.809 55.015,147.353C54.989,146.381 54.46,144.981 53.729,144.599C53.062,144.251 51.594,144.753 50.875,145.354C49.919,146.153 49.348,147.412 48.579,148.521C49.776,148.974 50.723,149.333 51.779,150.482M159.2,178.54C160.819,177.796 162.439,177.052 164.069,176.303C159.85,172.007 157.162,172.081 153.156,176.703C154.977,177.455 156.745,178.184 159.2,178.54M83.829,146.144C85.112,147.285 86.394,148.426 87.774,149.654C88.497,147.682 89.211,145.739 89.952,143.722C87.89,142.465 86.093,141.369 83.801,139.972C83.801,142.102 83.801,143.711 83.829,146.144M170.759,65.645C170.759,63.782 170.759,61.918 170.759,59.146C168.95,60.71 167.901,61.617 166.852,62.524C167.363,62.514 167.874,62.503 168.386,62.493C168.667,66.592 168.949,70.691 169.275,75.438C170.079,74.446 170.418,74.223 170.433,73.98C170.579,71.51 170.672,69.037 170.759,65.645M84.943,75.14C84.315,76.474 83.687,77.807 82.765,79.765C88.562,76.938 89.605,72.961 86.442,67.554C85.929,69.961 85.461,72.16 84.943,75.14M168.184,87.163C168.329,87.428 168.415,87.826 168.634,87.922C168.857,88.02 169.458,87.855 169.472,87.751C169.922,84.263 170.321,80.768 170.782,76.81C168.012,76.983 166.606,77.071 165.199,77.159C165.19,77.453 165.18,77.747 165.17,78.041C166.375,78.696 167.58,79.351 168.086,79.626C168.086,82.283 168.086,84.299 168.184,87.163M75.606,79.794C75.21,79.79 74.814,79.785 74.418,79.78C74.417,79.944 74.404,80.251 74.416,80.252C74.81,80.283 75.206,80.285 75.606,79.794M178.16,173.1C178.091,172.705 178.022,172.309 177.952,171.913C177.519,172.282 177.086,172.65 176.652,173.018C177.021,173.248 177.389,173.478 178.16,173.1M103.483,34.626C103.483,34.626 103.592,34.431 103.592,34.431C103.592,34.431 103.375,34.461 103.483,34.626z"/><path fill="#171717" d="M72.419,176.497C81.746,168.436 82.575,168.456 95.243,176.716C90.562,180.712 78.125,180.77 72.419,176.497z"/><path fill="#171717" d="M73.499,185.747C66.584,188.024 60.298,186.397 53.957,185.095C55.437,183.463 56.65,181.977 58.016,180.648C62.342,176.44 72.36,177.833 75.633,183.194C75.844,183.54 74.52,184.825 73.499,185.747z"/><path fill="#dfdfdf" d="M128.896,73.063C130.096,72.593 131.66,72.367 131.742,71.886C132.345,68.367 132.652,64.797 133.077,61.013C140.053,68.28 136.444,75.974 134.553,84.085C133.527,83.331 132.581,82.637 131.34,81.714C133.301,78.823 129.914,78.003 129.059,77.028C127.515,75.269 127.08,75.651 128.896,73.063z"/><path fill="#282929" d="M42.326,176.902C40.478,176.197 38.941,175.365 37.404,174.533C37.379,174.074 37.355,173.615 37.331,173.156C40.589,172.727 43.846,172.299 47.539,171.93C48.776,173.491 49.577,174.993 50.715,177.127C47.877,177.003 45.257,176.888 42.326,176.902z"/><path fill="#282929" d="M167.748,183.734C171.027,181.609 173.751,181.974 176.421,184.37C172.496,187.189 169.108,186.984 167.748,183.734z"/><path fill="#e7e7e8" d="M107.544,33.637C106.618,30.194 104.846,26.937 105.355,24.089C105.852,21.313 108.682,18.954 110.515,16.375C115.179,19.573 117.687,22.441 114.379,27.65C113.346,29.276 114.218,32.111 114.218,34.722C111.883,34.465 109.79,34.234 107.544,33.637z"/><path fill="#f3f3f4" d="M90.854,59.984C93.372,56.847 95.692,54.026 98.012,51.205C98.445,51.249 98.878,51.294 99.311,51.338C99.311,56.802 100.01,62.402 98.989,67.668C98.541,69.981 94.588,71.616 92.227,73.558C91.703,73.464 91.179,73.369 90.656,73.275C90.656,68.95 90.656,64.626 90.854,59.984z"/><path fill="#cececf" d="M71.098,101.819C77.246,104.303 77.246,104.303 76.169,115.947C72.782,115.738 69.366,115.527 65.288,115.275C65.288,113.627 65.288,111.673 65.778,109.335C70.142,108.107 70.844,105.115 71.098,101.819z"/><path fill="#e2e2e2" d="M149.009,114.033C148.235,113.573 146.811,113.143 146.79,112.651C146.609,108.554 146.687,104.445 146.687,99.138C150.491,99.715 156.497,99.338 157.114,100.983C158.456,104.559 157.047,109.167 156.48,112.843C156.198,108.929 156.198,105.526 156.198,102.122C155.693,102.015 155.189,101.907 154.684,101.8C152.792,105.877 150.901,109.955 149.009,114.033z"/><path fill="#cccdcd" d="M160.458,155.414C158.46,156.844 156.799,158.457 155.52,159.698C152.63,159.941 149.538,160.202 145.885,160.51C145.637,158.723 145.333,156.535 144.946,153.742C150.8,153.742 156.152,153.742 161.912,153.742C162.367,155.714 162.862,157.859 163.129,159.018C162.845,160.042 162.912,159.939 162.884,159.882C162.193,158.45 161.493,157.023 160.458,155.414z"/><path fill="#dadbdb" d="M128.562,29.306C133.532,33.219 126.935,34.806 127.314,37.704C125.842,37.752 124.365,37.887 122.897,37.823C121.278,37.752 119.667,37.498 117.292,37.242C118.946,33.37 120.518,29.689 122.24,25.656C124.374,26.874 126.322,27.987 128.562,29.306z"/><path fill="#e1e2e2" d="M139.91,57.323C139.085,56.477 138.315,56 137.249,55.34C140.112,52.679 143.029,49.969 147.192,46.1C148.6,50.44 151.149,54.222 150.15,56.297C149.009,58.669 144.712,59.522 141.546,61.161C140.993,59.947 140.48,58.82 139.91,57.323z"/><path fill="#dcdddd" d="M63.719,153.566C69.049,153.47 73.942,153.47 78.836,153.47C78.898,153.834 78.961,154.199 79.023,154.563C76.306,155.257 73.588,155.951 70.219,156.81C71.392,158.147 72,158.84 73.78,160.868C68.841,160.868 65.077,160.868 61.312,160.868C60.92,160.355 60.528,159.842 60.135,159.328C61.184,157.44 62.233,155.551 63.719,153.566z"/><path fill="#f0f0f0" d="M153.643,129.849C151.607,129.469 149.571,129.088 146.93,128.595C146.93,126.246 146.93,122.985 146.93,119.354C150.326,119.354 153.994,119.354 158.463,119.354C157.944,122.736 157.447,125.969 156.849,128.499C156.536,125.816 156.326,123.835 156.116,121.854C155.519,121.889 154.922,121.924 154.324,121.958C154.324,124.059 154.324,126.159 154.324,128.259C154.324,128.259 154.269,128.585 154.377,128.937C154.204,129.476 153.924,129.663 153.643,129.849z"/><path fill="#e8e9e9" d="M158.818,138.711C157.894,143.958 157.409,144.103 153.574,140.811C151.559,141.773 149.574,142.72 147.046,143.926C147.046,140.231 147.046,137.218 147.046,133.949C150.757,133.949 154.468,133.949 158.638,133.949C158.708,135.446 158.774,136.857 158.818,138.711z"/><path fill="#dfdfdf" d="M74.016,90.007C72.718,91.54 71.42,93.073 69.453,95.396C69.006,95.369 67.294,95.264 65.406,95.149C65.406,91.478 65.406,88.065 65.406,84.334C68.955,84.334 72.212,84.334 76.027,84.334C76.027,85.633 76.027,86.865 75.731,88.645C74.962,89.465 74.489,89.736 74.016,90.007z"/><path fill="#e5e6e6" d="M65.023,142.16C64.977,139.303 64.977,136.86 64.977,134.198C68.997,134.198 72.609,134.198 76.454,134.198C75.842,137.284 75.231,140.365 74.478,144.162C74.022,142.615 73.747,141.678 73.319,140.227C71.099,143.316 68.467,144.702 65.023,142.16z"/><path fill="#dadbdb" d="M89.241,49.143C88.487,50.245 87.732,51.348 86.748,52.786C83.796,50.152 81.342,47.962 78.54,45.461C81.368,42.084 84.054,38.878 87.161,35.167C88.621,37.374 89.603,38.858 89.994,40.802C88.863,41.779 88.322,42.296 87.803,42.863C87.825,42.914 87.935,42.903 87.47,42.854C87.333,44.061 87.659,45.318 87.773,46.883C88.12,47.842 88.681,48.492 89.241,49.143M84.843,43.027C85.122,42.831 85.401,42.635 85.68,42.439C85.267,42.496 84.854,42.554 84.843,43.027z"/><path fill="#202021" d="M52.064,26.986C51.384,26.409 50.754,25.752 50.008,25.279C49.436,24.915 48.717,24.783 47.009,24.168C47.009,21.069 46.845,16.995 47.158,12.957C47.215,12.216 49.208,11.625 51.061,10.98C52.598,11.64 53.382,12.287 53.969,13.306C53.203,18.115 52.633,22.551 52.064,26.986z"/><path fill="#f9f9f9" d="M65.003,127.512C64.964,120.52 64.964,120.52 75.951,121.294C75.951,122.664 75.951,124.073 75.951,125.482C75.951,126.894 75.951,128.306 75.951,128.291C72.827,128.756 69.937,128.411 68.095,129.638C65.095,131.635 65.27,129.859 65.003,127.512z"/><path fill="#eaeaea" d="M137.635,43.35C137.695,44.349 137.756,45.349 137.799,46.074C135.968,46.701 134.132,47.33 132.217,47.985C131.437,47.152 130.173,45.801 128.558,44.076C130.274,41.443 132.206,38.478 135.055,34.106C136.564,36.221 137.666,37.767 138.462,39.757C137.982,41.251 137.808,42.301 137.635,43.35z"/><path fill="#f8f8f8" d="M48.754,46.417C50.283,44.312 51.981,42.56 53.557,40.933C54.23,42.13 55.231,43.913 55.789,44.907C55.387,50.825 55.01,56.371 54.632,61.917C54.223,61.951 53.814,61.985 53.405,62.019C53.157,57.646 52.908,53.273 52.66,48.9C52.323,48.912 51.986,48.925 51.649,48.937C51.077,50.634 50.505,52.33 49.933,54.027C49.402,53.962 48.871,53.897 48.341,53.832C48.534,51.478 48.728,49.124 48.754,46.417z"/><path fill="#f3f3f4" d="M169.077,169.334C171.375,166.613 173.647,164.152 176.246,162.106C176.784,161.683 179.202,162.479 179.59,163.278C180.379,164.903 180.656,166.926 180.578,168.761C180.538,169.697 179.273,170.581 178.925,171.024C175.456,170.568 172.312,170.154 169.077,169.334z"/><path fill="#eaeaea" d="M39.654,166.803C37.625,167.499 35.948,168.055 34.736,168.457C32.246,167.108 29.916,165.845 27.222,164.385C30.31,162.891 33.233,161.477 36.242,160.021C38.535,161.666 40.769,163.267 43.5,165.226C41.929,165.872 40.968,166.268 39.654,166.803z"/><path fill="#dcdddd" d="M148.88,71.887C151.674,71.158 154.071,70.541 156.858,69.824C156.858,72.626 156.858,75.13 156.858,78.032C151.992,72.141 150.885,80.577 147.037,80.207C147.242,77.361 143.26,74.076 148.88,71.887z"/><path fill="#eaeaea" d="M150.459,60.205C152.569,61.832 154.309,63.64 156.432,65.847C152.175,67.463 149.032,68.656 145.91,69.841C142.391,64.639 143.213,62.825 150.459,60.205z"/><path fill="#e5e6e6" d="M98.049,41.018C96.96,40.513 95.523,40.287 94.852,39.448C93.325,37.54 92.174,35.332 90.608,32.828C93.153,30.766 95.51,28.738 97.993,26.879C100.395,25.081 101.259,26.12 101.015,29.159C101.018,29.557 100.945,29.496 100.945,29.496C99.838,29.999 98.73,30.502 97.567,31.029C98.108,32.308 98.512,33.265 98.587,34.697C98.189,37.12 98.119,39.069 98.049,41.018z"/><path fill="#e7e7e8" d="M76.712,58.845C75.7,56.5 74.689,55.053 71.918,57.266C71.671,56.927 71.425,56.588 71.179,56.248C72.496,53.69 73.814,51.132 75.292,48.261C79.13,50.64 83.019,52.199 81.578,57.008C81.278,58.011 78.652,58.317 76.712,58.845z"/><path fill="#edeeee" d="M145.429,163.418C147.194,164.252 148.608,164.936 149.874,165.549C147.253,168.196 144.886,170.587 142.374,173.125C143.641,167.973 139.255,170.762 137.346,169.809C137.202,165.728 140.002,163.388 145.429,163.418z"/><path fill="#e1e2e2" d="M150.87,94.931C149.874,95.407 148.878,95.883 147.127,96.72C146.902,92.386 146.705,88.589 146.486,84.358C148.033,84.358 149.405,84.358 151.31,84.542C151.962,85.557 152.081,86.388 152.201,87.218C152.773,87.921 153.344,88.625 154.07,89.974C153.105,92.057 151.988,93.494 150.87,94.931z"/><path fill="#e1e2e2" d="M73.435,68.271C66.639,67.532 66.4,66.958 70.29,59.066C73.403,60.549 76.537,62.042 80.548,63.952C78.741,64.908 77.723,65.447 75.988,65.969C74.659,66.725 74.047,67.498 73.435,68.271z"/><path fill="#eaeaea" d="M72.395,78.104C70.375,79.038 68.355,79.972 65.069,81.491C65.283,77.28 65.439,74.212 65.669,69.666C68.794,71.171 70.895,72.183 72.554,73.595C72.206,75.364 72.301,76.734 72.395,78.104z"/><path fill="#2d2d2d" d="M149.204,114.31C150.901,109.955 152.792,105.877 154.684,101.8C155.189,101.907 155.693,102.015 156.198,102.122C156.198,105.526 156.198,108.929 156.036,112.689C153.716,113.56 151.558,114.073 149.204,114.31z"/><path fill="#d2d3d3" d="M37.133,119.385C37.501,124.499 37.896,129.205 38.292,133.911C37.629,133.991 36.966,134.07 36.302,134.15C33,128.104 36.118,121.147 34.318,114.888C34.756,114.746 35.194,114.604 35.632,114.463C36.141,115.967 36.651,117.472 37.133,119.385z"/><path fill="#dadbdb" d="M54.92,77.558C54.897,83.634 54.897,89.263 54.897,94.448C51.021,89.483 51.044,77.848 55.793,72.578C55.432,74.502 55.188,75.807 54.92,77.558z"/><path fill="#babcbc" d="M76.44,147.349C76.149,148.4 75.654,149.697 75.16,149.697C72.583,149.694 70.007,149.269 67.427,149.226C66.941,149.218 66.436,150.278 65.736,151.078C64.18,148.628 63.234,146.671 67.009,146.584C70.08,146.513 73.16,146.845 76.44,147.349z"/><path fill="#edeeee" d="M71.073,101.414C70.844,105.115 70.142,108.107 65.91,108.944C65.431,107.134 65.112,105.316 65.232,103.528C65.489,99.693 67.104,99.045 71.073,101.414z"/><path fill="#cfd1d1" d="M152.829,150.351C151.088,150.288 149.518,149.881 147.948,149.474C147.576,149.951 147.204,150.428 146.832,150.905C146.665,149.744 146.498,148.583 146.331,147.422C150.179,147.161 154.028,146.768 157.875,146.788C158.422,146.791 158.958,148.803 159.272,149.431C156.837,149.655 154.918,149.831 152.829,150.351z"/><path fill="#eaeaea" d="M127.254,56.159C125.191,56.908 123.523,57.533 121.414,58.323C121.414,55.017 121.414,52.088 121.414,49.158C121.87,48.908 122.326,48.659 122.781,48.409C124.404,50.951 126.026,53.494 127.254,56.159z"/><path fill="#abacac" d="M52.067,27.335C52.633,22.551 53.203,18.115 54.192,13.293C54.611,12.907 55.04,13.025 55.04,13.025C55.04,18.554 55.04,24.083 55.04,29.613C54.662,29.895 54.284,30.178 53.906,30.46C53.294,29.535 52.682,28.61 52.067,27.335z"/><path fill="#dadbdb" d="M51.724,150.087C50.723,149.333 49.776,148.974 48.579,148.521C49.348,147.412 49.919,146.153 50.875,145.354C51.594,144.753 53.062,144.251 53.729,144.599C54.46,144.981 54.989,146.381 55.015,147.353C55.083,149.809 54.819,152.273 53.986,155.138C53.25,153.586 52.515,152.034 51.724,150.087z"/><path fill="#e5e6e6" d="M158.857,178.727C156.745,178.184 154.977,177.455 153.156,176.703C157.162,172.081 159.85,172.007 164.069,176.303C162.439,177.052 160.819,177.796 158.857,178.727z"/><path fill="#e5e6e6" d="M55.429,12.964C55.04,13.025 54.611,12.907 54.389,12.92C53.382,12.287 52.598,11.64 51.501,10.966C53.63,10.471 56.145,9.41 58.491,9.703C60.905,10.004 63.155,11.625 66.001,12.904C62.346,12.904 59.082,12.904 55.429,12.964z"/><path fill="#e7e7e8" d="M83.815,145.732C83.801,143.711 83.801,142.102 83.801,139.972C86.093,141.369 87.89,142.465 89.952,143.722C89.211,145.739 88.497,147.682 87.774,149.654C86.394,148.426 85.112,147.285 83.815,145.732z"/><path fill="#b0b0b0" d="M170.77,66.105C170.672,69.037 170.579,71.51 170.433,73.98C170.418,74.223 170.079,74.446 169.275,75.438C168.949,70.691 168.667,66.592 168.386,62.493C167.874,62.503 167.363,62.514 166.852,62.524C167.901,61.617 168.95,60.71 170.759,59.146C170.759,61.918 170.759,63.782 170.77,66.105z"/><path fill="#121212" d="M84.968,74.75C85.461,72.16 85.929,69.961 86.442,67.554C89.605,72.961 88.562,76.938 82.765,79.765C83.687,77.807 84.315,76.474 84.968,74.75z"/><path fill="#2d2d2d" d="M151.151,94.951C151.988,93.494 153.105,92.057 154.25,90.267C155.188,90.271 156.67,90.42 156.894,91.03C157.395,92.392 157.268,93.985 157.461,96.23C155.428,95.806 153.43,95.388 151.151,94.951z"/><path fill="#d2d3d3" d="M168.135,86.739C168.086,84.299 168.086,82.283 168.086,79.626C167.58,79.351 166.375,78.696 165.17,78.041C165.18,77.747 165.19,77.453 165.199,77.159C166.606,77.071 168.012,76.983 170.782,76.81C170.321,80.768 169.922,84.263 169.472,87.751C169.458,87.855 168.857,88.02 168.634,87.922C168.415,87.826 168.329,87.428 168.135,86.739z"/><path fill="#2d2d2d" d="M152.647,87.176C152.081,86.388 151.962,85.557 151.689,84.49C153.787,84.435 156.039,84.617 158.291,84.799C158.257,85.404 158.223,86.009 158.189,86.614C156.49,86.787 154.792,86.961 152.647,87.176z"/><path fill="#434143" d="M72.765,78.032C72.301,76.734 72.206,75.364 72.53,73.993C74.348,74.324 75.748,74.657 77.147,74.99C75.81,75.98 74.473,76.97 72.765,78.032z"/><path fill="#202021" d="M98.411,41.013C98.119,39.069 98.189,37.12 98.632,35.086C99.214,37.015 103.048,39.168 98.411,41.013z"/><path fill="#7f7f80" d="M138.011,43.566C137.808,42.301 137.982,41.251 138.47,40.11C140.228,40.822 141.672,41.626 143.117,42.431C142.998,42.881 142.879,43.331 142.76,43.782C141.302,43.782 139.845,43.782 138.011,43.566z"/><path fill="#121212" d="M74.28,90.252C74.489,89.736 74.962,89.465 75.713,89.087C76.356,90.745 76.722,92.51 77.087,94.275C76.648,94.386 76.21,94.496 75.771,94.606C75.362,93.236 74.953,91.866 74.28,90.252z"/><path fill="#282929" d="M87.782,42.813C88.322,42.296 88.863,41.779 89.76,41.122C90.118,40.982 90.037,41.003 89.949,41.209C90.161,41.58 90.461,41.745 90.76,41.91C91.351,42.459 91.941,43.007 92.532,43.556C91.805,43.779 91.078,44.002 89.772,44.021C88.722,43.482 88.252,43.148 87.782,42.813z"/><path fill="#313131" d="M154.895,128.432C154.324,126.159 154.324,124.059 154.324,121.958C154.922,121.924 155.519,121.889 156.116,121.854C156.326,123.835 156.536,125.816 156.702,128.208C156.26,128.615 155.863,128.61 154.895,128.432z"/><path fill="#7f7f80" d="M87.803,42.863C88.252,43.148 88.722,43.482 89.46,43.925C89.6,45.08 89.472,46.128 89.196,47.808C89.053,48.667 89.058,48.894 89.064,49.12C89.064,49.12 89.162,49.061 89.202,49.102C88.681,48.492 88.12,47.842 87.785,46.424C87.984,44.739 87.959,43.821 87.935,42.903C87.935,42.903 87.825,42.914 87.803,42.863z"/><path fill="#434143" d="M73.444,68.224C74.047,67.498 74.659,66.725 75.646,66.015C75.761,66.489 75.5,66.901 74.74,67.538C73.975,67.869 73.712,67.975 73.448,68.081C73.448,68.081 73.453,68.177 73.444,68.224z"/><path fill="#202021" d="M100.978,29.521C101.451,29.997 101.965,30.509 102.478,31.022C102.282,31.198 102.085,31.373 101.888,31.549C101.559,31.098 101.229,30.646 100.923,29.845C100.945,29.496 101.018,29.557 100.978,29.521z"/><path fill="#121212" d="M75.604,80.043C75.206,80.285 74.81,80.283 74.416,80.252C74.404,80.251 74.417,79.944 74.418,79.78C74.814,79.785 75.21,79.79 75.604,80.043z"/><path fill="#f3f3f4" d="M177.959,173.404C177.389,173.478 177.021,173.248 176.652,173.018C177.086,172.65 177.519,172.282 177.952,171.913C178.022,172.309 178.091,172.705 177.959,173.404z"/><path fill="#f9f9f9" d="M168.544,177.432C168.066,177.163 167.78,176.718 167.493,176.273C167.951,176.303 168.408,176.333 168.984,176.624C168.98,177.009 168.859,177.133 168.544,177.432z"/><path fill="#abacac" d="M73.465,68.438C73.712,67.975 73.975,67.869 74.665,67.771C75.192,68.181 75.293,68.583 75.393,68.984C74.756,68.922 74.119,68.859 73.465,68.438z"/><path fill="#dadbdb" d="M90.79,41.615C90.461,41.745 90.161,41.58 89.941,41.168C90.288,41.054 90.554,41.186 90.79,41.615z"/><path fill="#dadbdb" d="M89.418,49.147C89.058,48.894 89.053,48.667 89.029,48.1C89.264,48.232 89.518,48.703 89.418,49.147z"/><path fill="#f9f9f9" d="M22.353,159.682C22.587,159.931 22.643,160.334 22.7,160.736C22.475,160.72 22.25,160.704 21.933,160.426C21.841,160.164 22.176,159.836 22.353,159.682z"/><path fill="#202021" d="M103.429,34.543C103.375,34.461 103.592,34.431 103.592,34.431C103.592,34.431 103.483,34.626 103.429,34.543z"/><path fill="#313131" d="M154.017,129.913C153.924,129.663 154.204,129.476 154.512,129.032C154.49,129.176 154.44,129.576 154.017,129.913z"/><path fill="#282929" d="M87.47,42.854C87.959,43.821 87.984,44.739 87.997,46.115C87.659,45.318 87.333,44.061 87.47,42.854z"/><path fill="#282929" d="M84.642,42.819C84.854,42.554 85.267,42.496 85.68,42.439C85.401,42.635 85.122,42.831 84.642,42.819z"/></svg>