<svg xmlns="http://www.w3.org/2000/svg" viewBox="0 0 228 188" xml:space="preserve"><path fill="none" stroke="#000000" d="M62,88.5C69.654,87.697 75.872,91.909 82.474,94.565C93.675,99.072 103.947,105.401 113.917,112.124C116.55,113.899 118.461,115.295 121.545,113.581C122.238,113.196 123.5,113.833 124.5,114"/><path fill="none" stroke="#000000" d="M86,109C99.414,116.593 112.482,124.747 125.558,132.907C134.735,138.633 142.477,146.321 152.001,151.499C152.328,151.676 152.789,151.746 152.98,152.014C154.223,153.756 154.407,157.02 156.987,156.83C159.892,156.616 163.067,156.184 165.518,154.02C166.234,153.388 167.167,153 168,152.5"/><path fill="none" stroke="#000000" d="M126.5,49.5C128.336,54.643 125.361,58.896 124.062,63.518C121.02,74.344 117.099,84.866 113.478,95.493C112.583,98.117 111.196,100.018 107.993,98.011C94.904,89.808 81.179,82.912 66.5,78"/><path fill="none" stroke="#000000" d="M107,151.5C106.101,148.643 103.839,146.882 101.469,145.556C91.837,140.162 82.968,133.464 72.578,129.305C69.664,128.138 67.39,127.046 64.5,128.5"/><path fill="none" stroke="#000000" d="M128.5,45.5C128.417,45.667 128.374,45.879 128.244,45.993C118.737,54.346 119.375,67.264 114.129,77.566C111.087,83.538 109.333,90.167 107,96.5"/><path fill="none" stroke="#000000" d="M182.5,21.5C178.425,19.855 174.575,20.251 170.454,21.883C166.655,23.387 163.398,21.324 161.581,17.956C159.799,14.653 157.029,14.224 154.008,14.568C150.807,14.932 147.667,15.833 144.5,16.5"/><path fill="none" stroke="#000000" d="M145,51C148.601,52.264 152.139,53.656 155.641,55.174C164.292,58.922 173.003,62.991 182.5,64.5"/><path fill="none" stroke="#000000" d="M120.5,55.5C116.132,57.666 115.357,62.421 113.06,66.038C108.08,73.885 103.492,81.981 98,89.5"/><path fill="none" stroke="#000000" d="M63.5,84C65.294,80.244 67.995,76.841 63.074,72.908C54.862,66.344 47.115,59.198 39.28,52.391C37.809,52.976 36.976,53.809 36.409,55.234C36.557,55.552 36.68,56.116 37.015,56.486C40.658,60.508 44.342,64.492 47.996,68.504C49.791,70.474 50.194,72.148 48.997,75.1C47.619,78.498 49.779,82.732 48.047,86.521C47.422,87.888 47.765,89.817 46.932,90.95C39.578,100.968 44,111.316 46.142,121.47C46.817,124.675 46.431,128.757 49.554,130.922C53.24,133.479 54.512,137.502 56.383,141.061C58.479,145.049 59.826,149.464 60.5,154"/><path fill="none" stroke="#000000" d="M131,99.5C127.192,100.554 126.965,104.483 125.086,107.062C124.425,107.969 124.891,110.062 126.031,110.395C129.294,111.349 129.01,114.273 129.999,116.5C135.123,128.044 143.653,136.27 155.026,141.442C162.536,144.857 168.483,150.157 173.948,156.048C177.966,160.379 184.298,159.489 188.344,162.696C192.856,166.272 196.173,164.656 199.998,162.496C202.267,161.214 203.975,156.901 203,155C201.55,152.172 197.484,151.009 194.495,152.489C191.557,153.943 188.535,155.247 186.5,158"/><path fill="none" stroke="#000000" d="M171,63C168.439,67.776 166.822,73.143 164.526,77.765C160.148,86.575 159.839,96.43 155.433,104.965C154.197,107.36 156.937,109.333 155.5,111.5"/><path fill="none" stroke="#000000" d="M132,159.5C127.295,158.799 123.226,156.388 119.032,154.431C113.732,151.957 109.028,150.299 103.399,154.361C97.639,158.518 91.373,155.532 85.518,153.45C82.872,152.509 80.523,150.836 77.498,150.962C74.886,151.071 74.528,148.302 73.004,146.996C67.627,142.391 65.321,136.32 63.914,129.518C61.311,116.939 60.947,104.246 61.017,91.5C61.054,84.539 57.908,79.016 53.5,74"/><path fill="none" stroke="#000000" d="M132.5,47C131.915,59.533 131.004,72.04 129.5,84.5"/><path fill="none" stroke="#000000" d="M187.5,174.5C180.201,173.405 172.961,171.033 165.5,173.5"/><path fill="none" stroke="#000000" d="M137,29.5C139.5,34.667 142.055,39.808 144.474,45.012C145.483,47.184 145.348,49.424 144,51.5"/><path fill="none" stroke="#000000" d="M146,81.5C146.044,87.013 147.507,92.278 148.458,97.597C149.745,104.788 151.967,111.775 153.053,118.992C153.258,120.351 152.143,120.936 152,122"/><path fill="none" stroke="#000000" d="M82.5,65.5C76.239,68.384 69.189,68.899 63,72"/><path fill="none" stroke="#000000" d="M62,100.5C68.5,102.333 75,104.167 81.5,106"/><path fill="none" stroke="#000000" d="M143.5,177.5C137.5,176.528 131.5,174.569 125.5,177.5"/><path fill="none" stroke="#000000" d="M106.5,54C107.41,57.801 106.803,61.671 107.05,65.497C107.179,67.502 105.996,69.778 108,71.5"/><path fill="none" stroke="#000000" d="M75.5,151C73.833,152.333 72.088,153.581 70.518,155.019C67.928,157.392 65.278,157.898 62.511,155.488C58.377,151.889 55.527,156.669 52.01,157.084C51.275,157.171 50.649,158.316 50.003,159.003C43.998,165.382 44,165.383 36,162.25"/><path fill="none" stroke="#000000" d="M50.5,106C53.709,115.625 53.524,116.496 47,122.5"/><path fill="none" stroke="#000000" d="M79.5,179.5C77.354,179.626 75.671,178.948 74.482,177.011C71.831,172.695 67.155,171.806 64.122,175.598C61.739,178.578 59.339,180.542 55.5,180.5"/><path fill="none" stroke="#000000" d="M165,79.5C166.5,84.833 168,90.167 169.5,95.5"/><path fill="none" stroke="#000000" d="M178.5,139.5C180.367,138.567 182.235,137.634 184.016,136.744C183.967,132.812 182.522,130.287 179.064,128.384C175.33,126.329 172.828,122.37 168.505,120.986C163.738,119.459 159.044,117.279 154,120"/><path fill="none" stroke="#000000" d="M151.25,122.5C148.798,125.201 145.164,125.257 142.601,124.244C139.957,123.197 137.882,123.485 135.5,124"/><path fill="none" stroke="#000000" d="M145.5,91.5C141.879,92.697 142.276,96.568 140.552,99.037C139.286,100.85 138.5,103 137.5,105"/><path fill="none" stroke="#000000" d="M142.5,16C138.904,17.505 137.179,20.157 135.819,23.935C133.37,30.741 131.103,37.588 129,44.5"/><path fill="none" stroke="#000000" d="M132.5,29.5C125.683,30.021 122.666,35.428 119,40"/><path fill="none" stroke="#000000" d="M168,122.5C168.009,128.157 167.692,133.641 173.939,137.109C180.563,140.786 180.75,146.937 174.984,151.982C174.265,152.612 173.333,153 172.5,153.5"/><path fill="none" stroke="#000000" d="M85.5,142.5C90.523,145.153 94.778,148.266 93,155"/><path fill="none" stroke="#000000" d="M223.5,166.5C218.833,166 214.167,165.5 209.5,165"/><path fill="none" stroke="#000000" d="M36.5,156C29.038,154.597 28.602,154.842 26.496,161.499C25.956,163.208 24.567,164.104 22.991,164.462C19.519,165.251 16,165.833 12.5,166.5"/><path fill="none" stroke="#000000" d="M134.5,166C138.8,167.939 142.684,171.165 148.03,169.602C149.405,169.2 150.629,171.614 152.5,171"/><path fill="none" stroke="#000000" d="M112.25,99C114.897,103.955 119.652,106.041 124.5,108"/><path fill="none" stroke="#000000" d="M52,119.5C54.048,123.93 55.494,128.383 52.5,133"/><path fill="none" stroke="#000000" d="M109,37.5C107.628,41.391 107.133,45.479 107.635,49.483C107.921,51.761 107.158,52.522 105.528,53.544C102.476,55.458 99.039,56.808 96.5,59.5"/><path fill="none" stroke="#000000" d="M108.5,141.5C112.68,142.962 115.73,147.564 121,146"/><path fill="none" stroke="#000000" d="M74.5,178.5C70.405,180.453 66.302,182.206 62,179"/><path fill="none" stroke="#000000" d="M115.5,107.5C117.261,110.02 120.65,111.232 120.228,115.522C119.986,117.992 128.066,121.772 131.5,121.5"/><path fill="none" stroke="#000000" d="M116.5,120.5C120.667,123.333 124.833,126.167 129,129"/><path fill="none" stroke="#000000" d="M65.5,158C64.577,164.41 60.479,167.753 54.48,168.893C53.216,169.134 52.14,169.572 51,170"/><path fill="none" stroke="#000000" d="M58.5,148.5C54.551,149.385 51.473,146.155 47.493,146.336C44.07,146.492 41.662,147.463 40.566,150.524C39.322,153.998 36.895,156.817 35.871,160.464C34.855,164.08 32.082,164.437 26.5,162.5"/><path fill="none" stroke="#000000" d="M49,93.5C51.97,96.104 50.524,99.961 51.127,103.072C51.708,106.07 47.58,107.378 44.5,108"/><path fill="none" stroke="#000000" d="M72.5,97.5C69.501,94.331 65.901,92.814 61.5,93.5"/><path fill="none" stroke="#000000" d="M158,134.5C161.485,138.673 165.3,135.568 169,135"/><path fill="none" stroke="#000000" d="M73.5,122.5C69.819,122.135 67.033,118.633 63,119.5"/><path fill="none" stroke="#000000" d="M119.5,159.5C120.946,162.828 122.625,165.939 126.5,167"/><path fill="none" stroke="#000000" d="M182,161C181.263,165.342 183.231,167.394 187.5,167.5"/><path fill="none" stroke="#000000" d="M104,35C113.167,38.667 122.19,42.778 131.564,45.803C135.916,47.208 140.062,48.441 143.5,51.5"/><path fill="none" stroke="#000000" d="M117,43C114.491,45.867 112.504,49.327 108.5,50.5"/><path fill="none" stroke="#000000" d="M133,102C131.387,104.79 132.324,108.146 131,111"/><path fill="none" stroke="#000000" d="M121.5,136.5C124.442,138.587 127.12,141.07 130.5,142.5"/><path fill="none" stroke="#000000" d="M188,115.5C189.457,118.566 186.928,120.612 185.924,122.968C184.938,125.282 183.333,127.333 182,129.5"/><path fill="none" stroke="#000000" d="M138.5,131.5C135.096,134.235 132.755,130.942 130,130"/><path fill="none" stroke="#000000" d="M154,166C156.501,167.962 159.655,167.708 162.5,168.5"/><path fill="none" stroke="#000000" d="M142.5,6.5C140.334,8.434 140.131,12.853 142.593,15.411C143.687,16.548 144.82,17.27 144.5,19"/><path fill="none" stroke="#000000" d="M29,46.5C29.276,51.252 32.581,53.164 36.5,54.5"/><path fill="none" stroke="#000000" d="M132.5,143.5C135.07,144.606 137.562,146.338 140.5,144.5"/><path fill="none" stroke="#000000" d="M113.5,175.5C107.167,172 100.833,173.571 94.5,175.5"/><path fill="none" stroke="#000000" d="M186.5,120.5C181.488,116.155 175.398,117.041 169.5,117"/><path fill="none" stroke="#000000" d="M94,165C89.5,166.833 85,168.667 80.5,170.5"/><path fill="none" stroke="#000000" d="M130.5,93.5C130.161,97.12 130.826,100.224 134.491,102.019C137.248,103.369 137.119,105.967 137,108.5"/><path fill="none" stroke="#000000" d="M199.5,169.5C197.833,168.667 196.167,167.833 194.5,167"/><path fill="none" stroke="#000000" d="M150,100C152.156,101.076 152.811,103.503 154.5,105"/><path fill="none" stroke="#000000" d="M154,58C153.5,59.833 153,61.667 152.5,63.5"/><path fill="none" stroke="#000000" d="M178,163C177.24,165.72 175.123,164.369 173.5,164.5"/></svg>