<svg xmlns="http://www.w3.org/2000/svg" viewBox="0 0 224 140" xml:space="preserve"><path fill="none" stroke="#000000" d="M63,41.5C63.513,48.041 63.807,54.571 65.343,61.037C66.084,64.155 65.347,67.688 64.948,70.994C64.567,74.152 66.357,76.802 68.543,77.321C80.785,80.227 90.493,87.496 100.622,94.319C104.546,96.962 109.149,98.464 111.5,103"/><path fill="none" stroke="#000000" d="M109.5,65.5C112.139,58.572 115.103,51.711 114.184,43.967C108.463,49.519 108.521,57.275 106,64"/><path fill="none" stroke="#000000" d="M134.5,34C128.987,45.131 126.953,57.43 122.748,68.999C121.868,71.422 121.758,73.728 124.012,75.485C126.101,77.114 127.913,76.398 130.047,75.075C134.221,72.486 138.865,70.627 142.926,67.89C145.361,66.249 147.637,65.221 150.5,65.505C153.582,65.81 155.112,63.057 157.5,62"/><path fill="none" stroke="#000000" d="M190,43.25C179.257,49.199 169.117,56.206 157.493,61.715C160.717,65.192 162.006,69.543 165.108,73.322C169.383,78.528 174.098,84.947 172,93"/><path fill="none" stroke="#000000" d="M57.5,40.5C59,49.833 60.5,59.167 62,68.5"/><path fill="none" stroke="#000000" d="M124,43C121.833,51.167 119.673,59.335 117.492,67.498C117.22,68.514 116.833,69.5 116.5,70.5"/><path fill="none" stroke="#000000" d="M55,37C52.565,40.106 51.228,48.57 51.914,52.515C52.626,56.608 54.331,60.893 52.438,64.971C49.283,71.767 52.071,78.063 53.532,84.493C53.809,85.71 54.735,86.79 54.962,88.007C56.466,96.083 61.437,100.697 68.933,103.67C72.549,105.104 75.495,108.035 79.5,105"/><path fill="none" stroke="#000000" d="M96,67C100.419,72.198 106.794,74.317 112.488,77.522C115.719,79.341 118.993,81.151 121.5,84"/><path fill="none" stroke="#000000" d="M28.5,100C31.577,103.094 34.654,106.188 37.911,109.462C42.296,106.088 46.098,100.414 51.917,106.407C50.886,111.277 47.592,112.759 43.009,113.114C40.128,113.337 37.333,114.667 34.5,115.5"/><path fill="none" stroke="#000000" d="M41.5,7.5C44.621,15.782 48.425,23.655 53.335,31.109C55.976,35.118 60.36,36.687 63.189,40.354C64.979,42.674 68.951,42.724 72.006,42.879C75.643,43.063 77.17,44.583 76.977,47.999C76.79,51.306 78.207,53.223 81.502,53.474C85.1,53.749 87.299,56.089 89.5,58.5"/><path fill="none" stroke="#000000" d="M142,95C139.61,102.243 132.448,105.58 126.076,101.869C123.437,100.332 121.416,100.726 118.997,101.492C114.705,102.851 110.381,103.928 106.438,106.4C102.884,108.628 93.853,104.487 92.501,100.5C92.162,99.502 92.115,97.904 91.456,97.593C85.103,94.592 79.442,89.871 72,89.5"/><path fill="none" stroke="#000000" d="M98,62.5C95.558,67.319 95.063,66.664 90.437,65.198C81.739,62.44 73.708,57.678 64.5,56.5"/><path fill="none" stroke="#000000" d="M32.5,109C25.751,111.673 18.702,112.941 11.5,113.5"/><path fill="none" stroke="#000000" d="M46.5,10.5C49,15.167 51.608,19.78 53.951,24.524C55.011,26.672 55.705,29.069 54.5,31.5"/><path fill="none" stroke="#000000" d="M128,77C133.225,78.458 136.284,83.821 141.983,84.618C143.592,84.843 145.022,86.469 146.495,87.508C148.47,88.902 150.514,90.198 152.986,88.971C155.381,87.783 156.86,89.221 158.507,90.491C161.155,92.534 164.163,93.378 167.5,93"/><path fill="none" stroke="#000000" d="M148.5,128.5C147.667,128.667 146.678,129.21 146.024,128.941C140.149,126.526 134.333,128.644 128.5,129"/><path fill="none" stroke="#000000" d="M151.5,66C150.017,70.666 145.261,71.462 141.962,73.949C139.489,75.813 136.579,77.092 134.5,79.5"/><path fill="none" stroke="#000000" d="M129,104C129.067,110.451 134.106,116.889 138.987,116.376C140.063,116.262 141.672,116.948 142.495,115.497C144.408,112.126 147.073,114.177 149.5,114.5"/><path fill="none" stroke="#000000" d="M209,83.5C208.667,83.5 208.162,83.357 208.025,83.521C203.739,88.638 199.935,94.002 199.5,101"/><path fill="none" stroke="#000000" d="M211.5,79.5C209.501,85.231 208.362,91.245 205.113,96.569C204.046,98.319 203.044,100.191 202,102"/><path fill="none" stroke="#000000" d="M67,121C67.039,117.211 64.6,116.495 61.5,116.489C58.008,116.482 55.361,117.486 55,121.5"/><path fill="none" stroke="#000000" d="M177,112C179.603,115.687 184.18,114.146 187.528,115.948C189.029,116.756 190.833,117 192.5,117.5"/><path fill="none" stroke="#000000" d="M194.5,75C189.554,73.061 192.106,67.553 189.209,63.884C182.504,66.854 182.836,75.272 177.5,79"/><path fill="none" stroke="#000000" d="M160.5,121.5C155.317,119.705 149.427,122.435 144.5,119"/><path fill="none" stroke="#000000" d="M170.5,126C176.339,125.774 182.09,123.177 187.984,125.05C191.14,126.052 194.301,125.971 197.5,126"/><path fill="none" stroke="#000000" d="M68.5,78C67.915,80.387 67.575,82.673 68.968,85.019C72.207,90.473 72.44,97.05 77.223,102.254C81.653,107.074 85.679,104.548 89.998,104.43C91.011,104.403 92,103.5 93,103"/><path fill="none" stroke="#000000" d="M205.75,107C203.678,103.42 201.563,100.962 196.449,102.304C191.689,103.553 186.241,102.313 181.57,103.731C176.512,105.266 171.906,106.442 166.472,105.704C161.219,104.991 161.96,110.233 161,113.5"/><path fill="none" stroke="#000000" d="M163,73C162.698,75.66 162.938,78.056 164.417,80.549C167.485,85.722 168.541,91.625 169.5,97.5"/><path fill="none" stroke="#000000" d="M77.5,57.5C74.547,52.972 69.552,52.697 65,51.5"/><path fill="none" stroke="#000000" d="M110.5,82.5C113.281,83.984 116.431,84.878 118.765,87.961C125.79,82.731 131.35,87.103 137,91"/><path fill="none" stroke="#000000" d="M130.5,93.5C136.623,93.063 142.55,94.329 148.506,95.467C151.238,95.989 153.77,96.825 156,98.5"/><path fill="none" stroke="#000000" d="M79.5,66.5C74.94,65.179 70.905,62.285 66,62"/><path fill="none" stroke="#000000" d="M90.5,128C86.156,127.888 81.813,127.807 77.5,128.5"/><path fill="none" stroke="#000000" d="M190.5,86C192.846,84.763 194.172,85.822 194.805,88.573C191.536,92.573 187.775,96.934 185,102"/><path fill="none" stroke="#000000" d="M126,31.5C126.925,33.433 125.786,35.17 125.569,37.008C125.26,39.621 125.054,42.421 128,44"/><path fill="none" stroke="#000000" d="M190,106C193.609,109.253 198.688,110.222 202.051,113.954C203.991,116.107 207.144,114.278 209.5,115.5"/><path fill="none" stroke="#000000" d="M186,89C185.333,89 184.297,88.721 184.055,89.042C180.402,93.883 175.532,94.692 170,93.5"/><path fill="none" stroke="#000000" d="M101,115C95.841,117.772 90.076,117.694 84.5,118.5"/><path fill="none" stroke="#000000" d="M72.5,122C69.055,121.213 65.864,122.048 62.451,122.767C59.007,123.492 55.167,122.333 51.5,122"/><path fill="none" stroke="#000000" d="M69.5,108.5C70.916,109.751 73.236,110.098 73.609,112.547C75.235,111.45 78.114,112.917 79,110"/><path fill="none" stroke="#000000" d="M124.5,124.5C117.833,121.324 111.167,121.976 104.5,124.5"/><path fill="none" stroke="#000000" d="M154,105.5C154.328,106.432 154.819,107.122 153.554,108.072C151.36,109.718 149.881,111.973 150.5,115"/><path fill="none" stroke="#000000" d="M170.5,118C164.936,115.281 159.299,113.208 152.98,115.444C152.293,115.688 151.181,115.929 150.5,115"/><path fill="none" stroke="#000000" d="M39.5,122.5C34.833,120.008 30.167,122.797 25.5,122.5"/><path fill="none" stroke="#000000" d="M162,93C161,94.333 160.125,95.787 158.976,96.977C155.643,100.431 155.55,101.763 159.028,104.464C160.183,105.36 161.667,105.833 163,106.5"/><path fill="none" stroke="#000000" d="M96.5,60.5C97.407,63.371 100.449,62.371 102.061,62.719C108.021,64.006 111.372,69.457 116.977,71.08C118.489,71.517 119.906,72.088 121.5,72"/><path fill="none" stroke="#000000" d="M173.5,79C174.359,78.243 175.12,77.06 176.49,78.014C177.516,78.728 177.99,80.116 177.423,80.947C176.097,82.891 175.626,85.588 173,86.5"/><path fill="none" stroke="#000000" d="M107.5,92.5C111.661,92.16 114.346,95.102 117.5,97"/><path fill="none" stroke="#000000" d="M215.5,105C217.548,106.829 219.991,106.817 222.5,106.5"/><path fill="none" stroke="#000000" d="M68.5,96.5C67.941,99.06 71.948,100.642 70,103.5"/><path fill="none" stroke="#000000" d="M122.5,78.5C123.925,80.433 125.007,82.472 124.5,85"/><path fill="none" stroke="#000000" d="M138,86.5C138.904,88.5 137.55,90.5 138,92.5"/><path fill="none" stroke="#000000" d="M65,76.5C63.603,78.397 64.903,80.52 64.5,82.5"/><path fill="none" stroke="#000000" d="M215.5,100.5C212.394,99.166 211.798,102.436 210,103.5"/><path fill="none" stroke="#000000" d="M128.5,87C128.392,88.839 128.843,90.728 128,92.5"/><path fill="none" stroke="#000000" d="M81,111C81.833,112.301 81.951,114.602 84.5,113.5"/><path fill="none" stroke="#000000" d="M217.5,97.5C215.803,100.316 216.414,104.489 212.5,106"/><path fill="none" stroke="#000000" d="M87.5,57.5C84.983,59.577 88.638,61.093 88,63"/></svg>