<svg xmlns="http://www.w3.org/2000/svg" viewBox="0 0 172 197" xml:space="preserve"><path fill="#0b0b0b" d="M39.024,178.992C36.612,176.885 34.201,174.778 31.591,172.498C31.513,172.675 31.044,173.737 30.57,174.811C26.119,173.57 22.503,181.042 16.968,175.479C19.493,174.655 21.765,173.914 24.384,173.059C23.615,171.61 22.807,170.09 21.479,167.588C24.436,168.236 26.633,168.717 29.462,169.336C28.862,165.757 28.305,162.434 27.747,159.111C28.03,158.914 28.313,158.717 28.596,158.52C30.551,161.154 32.506,163.788 34.37,166.298C39.341,163.005 40.016,157.987 39.232,152.549C38.681,148.721 40.629,146.41 43.793,145.178C46.448,144.144 46.996,142.51 47.094,139.904C47.161,138.142 48.409,136.433 49.083,134.683C49.587,133.374 50.4,132.043 50.422,130.71C50.639,117.728 50.681,104.743 50.864,91.76C50.908,88.677 50.111,86.451 47.083,84.974C45.728,84.313 44.958,82.454 43.581,80.704C43.094,80.843 42.026,81.103 40.988,81.453C37.675,82.569 30.736,77.559 31.087,74.104C31.179,73.202 32.251,72.203 33.119,71.607C45.618,63.02 55.958,52.244 64.823,40.048C66.161,38.207 66.187,35.434 66.915,33.122C67.663,30.747 68.527,28.408 69.951,26.339C70.499,28.065 70.474,29.508 70.368,30.945C70.108,34.489 71.131,37.158 75.03,37.877C78.97,38.603 79.878,36.258 80.06,33.007C80.113,32.062 80.702,31.148 81.173,29.873C84.179,33.704 90.538,33.871 99.522,30.878C98.806,27.27 96.488,26.761 93.131,26.785C86.758,26.83 80.38,26.243 74.004,25.577C73.984,24.779 73.965,24.323 73.947,23.867C75.188,23.657 76.589,22.967 77.644,23.318C82.437,24.912 85.852,23.762 87.709,19.038C85.774,15.254 83.85,11.491 82.399,7.315C83.151,6.838 83.43,6.775 83.71,6.712C84.294,6.784 84.879,6.857 85.729,7.42C86.598,8.962 87.201,10.012 87.872,11.373C88.531,12.196 89.123,12.709 89.793,13.481C90.165,13.932 90.459,14.124 90.752,14.317C90.559,13.827 90.366,13.337 90.14,12.468C89.666,10.901 89.225,9.714 88.785,8.526C90.064,8.052 91.861,6.794 92.535,7.238C95.606,9.262 97.732,6.648 100.733,6.369C101.389,6.778 101.608,6.919 101.867,6.996C100.025,10.844 98.183,14.691 96.187,18.859C97.605,23.957 101.732,23.407 105.941,22.479C107.224,22.196 108.4,21.386 109.684,21.167C115.491,20.177 118.681,22.507 117.941,28.321C117.323,33.181 119.338,36.316 121.96,39.751C129.869,50.113 138.458,59.774 149.09,67.46C150.011,68.126 150.783,68.998 151.604,69.756C148.761,77.524 142.985,81.112 134.666,81.508C132.993,101.639 130.998,121.126 136.713,140.784C141.583,141.321 141.93,144.801 142.09,149.217C142.228,153.033 143.954,156.791 144.978,160.574C145.529,160.248 146.08,159.922 147.119,159.441C147.076,161.202 146.544,163.118 146.013,165.034C146.475,170.471 141.664,172.268 138.756,175.349C138.598,175.515 137.373,174.674 136.451,174.202C136.019,175.414 135.563,176.694 135.065,178.093C133.836,177.251 132.822,176.556 131.72,175.802C132.542,183.625 125.174,184.735 121.276,188.995C120.372,189.008 120.137,188.989 119.803,188.52C119.809,184.381 119.915,180.694 120.34,176.948C121.745,175.924 122.828,174.958 123.912,173.991C123.556,173.592 123.2,173.192 122.843,172.793C121.565,173.871 120.287,174.95 118.54,176.077C112.141,175.965 106.186,176.076 100.286,175.563C94.816,175.087 93.775,175.592 94.149,181.12C94.283,183.111 95.479,185.031 96.125,187.237C96.041,187.664 96.023,187.838 96.004,188.012C92.338,187.722 88.672,187.432 85.005,187.142C87.69,185.259 91.84,186.8 91.943,181.468C92.074,174.652 92.368,174.679 85.457,174.205C81.151,173.91 76.849,173.447 72.573,172.86C67.191,172.122 66.519,172.601 66.749,178C66.814,179.538 67.168,181.064 68.451,182.633C68.768,181.74 69.085,180.846 69.868,178.636C70.82,186.88 78.096,181.193 80.906,185.247C81.315,185.838 82.343,186.001 83.085,186.362C82.911,186.831 82.738,187.301 82.565,187.77C80.941,188.253 79.123,189.465 77.726,189.094C71.363,187.405 65.118,185.271 58.992,182.189C60.501,182.051 62.011,181.912 63.767,181.752C63.767,178.475 63.767,175.197 63.767,171.656C55.91,169.874 48.08,168.098 40.289,166.331C37.867,172.826 38.467,174.275 45.311,178.818C46.495,177.829 47.705,176.82 48.044,176.536C50.808,178.644 53.073,180.372 56.108,182.688C51.347,182.589 47.155,184.914 42.445,181.803C41.06,180.643 40.042,179.818 39.024,178.992M64.638,88.549C64.135,88.385 63.632,88.221 62.469,88.03C62.028,88.017 61.588,88.004 60.986,87.111C60.986,84.48 60.986,81.849 60.986,79.218C59.37,80.299 58.893,82.362 58.257,82.412C52.612,82.86 54.175,87.1 54.079,90.217C53.879,96.709 53.977,103.211 53.969,109.71C53.96,118.166 53.967,126.622 53.967,135.09C56.644,135.464 58.649,135.744 60.922,136.062C60.922,133.783 60.922,131.823 61.484,129.091C62.441,130.231 63.397,131.372 65.04,133.33C65.04,128.922 65.123,125.802 64.947,122.697C64.922,122.248 63.654,121.869 63.141,120.891C63.078,120.11 63.015,119.328 64.027,118.779C64.21,108.884 64.394,98.989 64.638,88.549M116.071,144.394C112.2,144.394 108.329,144.394 104.083,144.394C104.193,146.271 104.294,148 104.395,149.718C108.509,150.2 112.18,150.631 115.753,151.05C116.189,148.652 116.564,146.59 117.521,145.036C118.03,146.487 118.539,147.938 119.406,150.408C120.984,147.261 122.169,144.897 123.354,142.534C122.923,142.127 122.491,141.721 122.059,141.314C120.374,142.348 118.689,143.382 116.071,144.394M82.833,93.658C82.974,94.088 83.116,94.519 83.223,95.651C83.188,95.883 83.153,96.114 82.406,96.162C80.985,97.992 79.565,99.823 77.88,102.371C77.451,105.468 77.022,108.564 76.441,112.753C78.923,111.246 79.98,110.604 81.014,110.8C80.345,117.52 79.559,124.233 79.125,130.968C79.056,132.052 80.555,133.237 81.997,135.358C82.93,131.43 83.434,129.309 83.938,127.187C84.228,127.229 84.518,127.27 84.807,127.312C84.94,129.835 85.073,132.357 85.206,134.899C90.896,134.02 92.464,131.806 93.115,126.664C93.936,120.178 91.159,114.781 89.709,109.039C90.426,109.47 91.143,109.901 91.992,111.013C92.809,111.623 93.626,112.232 94.443,112.841C94.863,111.816 95.721,110.746 95.62,109.775C95.329,106.981 94.692,104.219 94.114,101.461C93.425,98.165 91.507,96.175 87.793,95.248C91.714,90.492 92.165,85.837 88.576,83.468C87.422,82.707 85.099,82.721 83.853,83.39C82.723,83.998 82.329,85.978 81.611,87.353C85.146,88.461 82.422,91.159 82.833,93.658M129.955,73.502C129.955,73.502 130.006,73.018 130.816,72.889C135.767,74.956 138.897,73.847 138.838,70.592C141.171,70.736 143.577,70.886 145.984,71.035C142.864,67 139.798,63.927 136.33,61.41C134.926,60.391 132.635,60.268 130.763,60.315C128.881,60.363 127.018,61.13 124.987,60.575C124.933,60.239 124.879,59.904 124.785,59.095C124.863,58.787 124.913,58.475 125.016,57.448C125.042,57.211 125.067,56.974 125.788,57.122C127.766,57.418 129.744,57.715 132.735,58.163C120.113,43.16 122.667,45.371 116.835,47.637C117.461,48.613 118.072,49.566 118.277,50.775C118.277,50.775 117.915,51.091 117.173,50.823C115.29,49.218 113.407,47.613 112.722,45.911C113.165,45.312 113.607,44.713 114.761,43.983C116.704,43.983 118.647,43.983 121.137,43.983C118.557,40.728 116.447,38.159 114.442,35.51C112.627,33.113 110.86,33.119 108.125,35.703C102.395,33.541 96.816,34.862 96.334,37.282C93.017,36.958 89.843,36.649 85.292,36.204C88.555,40.402 90.966,43.13 92.94,46.145C95.02,49.32 97.841,49.636 100.598,48.067C104.208,46.012 108.092,46.555 112.38,46.76C111.428,47.454 110.42,48.085 109.541,48.862C108.843,49.478 108.304,50.273 107.113,51.046C106.924,51.092 106.735,51.137 105.898,50.779C103.267,50.779 100.635,50.779 96.954,50.779C99.03,53.303 100.056,54.551 100.983,56.877C100.883,57.591 100.782,58.306 100.05,58.661C94.227,51.722 88.405,44.782 82.521,37.771C79.618,39.7 79.437,41.621 81.606,44.201C85.883,49.289 89.621,54.868 94.192,59.661C102.156,68.011 110.583,75.92 119.248,84.438C120.849,81.757 121.735,80.272 122.311,79.308C120.947,77.545 119.972,76.285 119.376,74.129C120.597,74.755 121.856,75.317 123.032,76.019C125.619,77.564 128.84,76.657 129.955,73.502M117.837,161.384C118.002,160.965 118.167,160.545 119.007,160.072C124.137,156.095 129.266,152.119 134.902,147.643C133.809,147.375 132.716,147.108 130.928,146.829C128.478,148.205 125.926,149.43 123.596,150.986C117.444,155.096 110.921,154.753 104.36,152.565C102.661,151.998 101.354,150.252 99.273,148.566C89.981,150.522 79.908,150.262 70.142,145.914C69.239,145.512 67.692,145.601 66.872,146.128C62.467,148.954 57.895,147.098 53.358,147.01C50.425,146.952 47.48,147.568 44.54,147.883C44.555,148.548 44.57,149.214 44.585,149.88C46.045,150.272 47.487,150.759 48.968,151.041C57.652,152.694 66.346,154.299 75.026,156.555C75.009,156.979 74.993,157.402 74.226,157.899C70.657,157.307 67.067,156.819 63.523,156.102C55.608,154.502 54.178,155.81 55.883,164.034C56.187,165.5 58.027,167.184 59.536,167.741C61.957,168.633 64.688,168.708 67.297,169.06C79.174,170.661 79.175,170.652 77.926,157.709C77.965,157.252 78.003,156.796 78.908,156.244C80.866,156.403 82.821,156.595 84.781,156.716C92.156,157.17 99.532,157.6 107.209,158.621C107.602,159.134 107.996,159.647 107.526,160.398C107.244,164.505 106.962,168.612 106.677,172.753C111.031,173.207 114.211,173.539 117.574,173.89C117.574,169.525 117.574,165.766 117.837,161.384M107.245,102.505C107.245,115.268 107.245,128.03 107.245,140.996C110.232,141.365 112.767,141.678 115.912,142.066C115.912,139.752 115.914,138.127 115.911,136.501C115.89,124.35 115.175,112.145 116.103,100.066C116.674,92.622 110.974,91.048 107.248,87.192C107.248,91.964 107.248,96.736 107.245,102.505M104.052,162.805C103.429,162.007 102.872,160.582 102.174,160.51C95.317,159.802 88.436,159.32 81.357,158.757C80.982,160.603 80.553,162.022 80.425,163.467C79.902,169.357 80.868,170.789 86.683,171.652C91.091,172.307 95.569,172.545 100.025,172.797C102.77,172.952 104.421,171.787 104.102,168.662C103.937,167.033 104.094,165.371 104.052,162.805M119.929,112.778C119.913,108.751 120.364,104.943 125.567,101.852C126.23,105.435 127.104,108.166 127.175,110.918C127.374,118.689 127.245,126.468 127.245,134.244C127.663,134.285 128.081,134.327 128.499,134.368C128.694,133.193 129.054,132.018 129.059,130.841C129.1,121.854 129.137,112.865 129.041,103.878C128.98,98.096 123.653,94.614 118.1,96.525C118.1,111.25 118.1,125.957 118.1,140.664C118.701,140.67 119.303,140.676 119.904,140.683C119.904,131.695 119.904,122.708 119.929,112.778M61.869,52.231C60.366,53.145 58.661,53.84 57.394,55.009C50.192,61.652 43.095,68.408 35.805,75.274C35.966,75.493 36.408,76.19 36.944,76.806C37.443,77.379 38.041,77.865 38.696,78.485C52.942,68.451 64.037,55.954 73.59,41.603C72.275,40.579 71.322,39.837 69.597,38.494C66.887,43.13 64.445,47.306 61.869,52.231M65.212,63.712C61.142,68.027 57.073,72.341 53.003,76.655C53.49,77.178 53.977,77.701 54.464,78.223C60.393,73.659 66.227,68.964 72.283,64.575C76.363,61.618 77.756,57.96 76.343,51.389C72.283,55.886 68.986,59.539 65.212,63.712M53.24,162.385C55.938,153.221 47.375,153.643 42.945,150.443C42.945,154.063 43.003,157.691 42.929,161.315C42.849,165.204 45.866,165.25 48.35,165.497C50.14,165.675 53.305,167.757 53.24,162.385M89.398,67.108C94.708,71.729 100.018,76.351 105.329,80.972C105.734,80.586 106.14,80.2 106.545,79.814C99.252,71.947 91.959,64.079 84.653,56.199C83.261,57.265 82.133,58.129 81.942,58.276C84.282,61.094 86.579,63.861 89.398,67.108M84.764,137.006C80.97,136.792 77.176,136.579 73.382,136.366C73.356,137.044 73.329,137.722 73.303,138.4C81.638,139.866 90.028,143.292 98.174,137.914C98.171,137.412 98.169,136.909 98.166,136.407C94.004,136.611 89.842,136.815 84.764,137.006M114.735,28.531C114.055,27.146 113.259,24.524 112.713,24.575C108.68,24.95 104.697,25.858 100.503,26.634C100.682,28.322 100.826,29.684 101.032,31.619C105.776,30.779 110.094,30.015 114.735,28.531M88.478,143.065C83.48,142.513 78.481,141.961 73.432,141.403C73.721,144.73 73.696,144.955 80.893,145.739C85.439,146.234 90.318,147.247 94.439,144.767C94.351,144.201 94.264,143.635 94.177,143.069C92.57,143.069 90.964,143.069 88.478,143.065M54.041,137.835C48.745,136.652 51.485,140.677 50.509,142.722C54.115,143.647 57.311,144.467 60.828,145.37C60.828,142.818 60.828,140.915 60.828,138.796C58.737,138.513 56.796,138.25 54.041,137.835M68.327,72.03C64.389,74.132 63.861,77.821 62.907,81.311C63.476,81.58 64.046,81.848 64.615,82.117C66.019,78.937 67.423,75.758 68.327,72.03M88.124,23.419C88.915,23.544 89.705,23.669 90.495,23.794C90.479,23.056 90.464,22.318 90.448,21.581C89.709,21.971 88.97,22.361 88.124,23.419M93.498,10.621C93.498,10.621 93.6,10.454 93.6,10.454C93.6,10.454 93.398,10.474 93.498,10.621M95.764,9.409C95.537,9.381 95.309,9.353 95.081,9.325C95.18,9.458 95.279,9.592 95.764,9.409z"/><path fill="#ebebeb" d="M74.004,25.919C80.38,26.243 86.758,26.83 93.131,26.785C96.488,26.761 98.806,27.27 99.522,30.878C90.538,33.871 84.179,33.704 81.173,29.873C80.702,31.148 80.113,32.062 80.06,33.007C79.878,36.258 78.97,38.603 75.03,37.877C71.131,37.158 70.108,34.489 70.368,30.945C70.474,29.508 70.499,28.065 70.344,26.288C70.857,25.954 71.587,25.957 72.922,25.972C73.527,25.984 74.004,25.919 74.004,25.919M79.954,30.309C80.347,30.191 80.74,30.073 81.133,29.955C80.834,29.558 80.534,29.162 79.968,28.198C79.809,28.681 79.651,29.164 79.954,30.309M89.615,30.406C89.968,30.315 90.321,30.225 90.674,30.134C90.355,30.087 90.037,30.04 89.615,30.406z"/><path fill="#1c1c1c" d="M146.391,165.149C146.544,163.118 147.076,161.202 147.351,159.164C149.585,156.25 152.075,153.458 154.565,150.666C154.975,150.993 155.384,151.32 155.794,151.647C154.116,155.957 152.438,160.267 150.575,165.052C154.058,163.966 156.834,163.1 159.609,162.235C159.76,162.555 159.911,162.875 160.062,163.196C158.667,165.117 157.273,167.037 155.673,169.24C158.034,169.953 159.988,170.543 161.942,171.132C161.912,171.656 161.882,172.181 161.852,172.705C158.42,172.705 154.988,172.705 151.185,172.705C151.64,171.424 152.033,170.321 152.798,168.169C150.77,169.764 149.578,170.702 147.68,172.194C147.333,169.558 147.051,167.411 146.391,165.149z"/><path fill="#191919" d="M119.902,188.97C120.137,188.989 120.372,189.008 120.956,189.081C119.213,190.379 117.224,191.896 114.982,192.736C114.044,193.088 112.568,192.005 111.336,191.575C111.395,191.077 111.454,190.579 111.513,190.081C110.443,190.695 109.374,191.31 107.9,192.156C107.9,190.041 107.9,188.42 108.216,186.418C109.008,186.03 109.485,186.022 110.327,185.976C112.201,184.797 113.71,183.655 115.219,182.514C115.53,182.815 115.841,183.116 116.152,183.417C115.626,184.804 115.1,186.192 114.383,188.086C116.47,188.42 118.186,188.695 119.902,188.97z"/><path fill="#292929" d="M146.5,180.825C148.198,181.034 149.505,181.123 151.472,181.257C147.968,184.404 143.219,184.731 139.171,182.696C140.162,178.729 142.394,176.614 147.151,177.448C146.74,178.731 146.424,179.718 146.5,180.825z"/><path fill="#1e1e1f" d="M109.961,186.014C109.485,186.022 109.008,186.03 108.176,186.06C106.739,187.614 105.659,189.147 103.939,190.658C102.819,189.087 102.338,187.537 101.882,185.593C102.195,184.716 102.484,184.233 102.773,183.751C105.815,185.976 106.561,183.326 107.773,181.47C108.197,180.821 108.972,180.402 109.961,179.56C109.961,182.157 109.961,184.086 109.961,186.014z"/><path fill="#242524" d="M39.196,179.428C40.042,179.818 41.06,180.643 42.006,181.744C41.827,182.63 41.736,183.769 41.612,183.773C38.198,183.869 34.78,183.85 31.362,183.85C31.287,183.306 31.212,182.763 31.137,182.219C33.88,181.434 36.624,180.65 39.196,179.428z"/><path fill="#ebebeb" d="M101.857,185.987C102.338,187.537 102.819,189.087 103.649,190.811C102.271,191.595 100.542,192.204 98.814,192.812C98.74,191.885 98.932,190.806 98.516,190.072C98.116,189.367 97.086,189.02 96.169,188.264C96.023,187.838 96.041,187.664 96.482,187.183C98.556,186.58 100.207,186.283 101.857,185.987z"/><path fill="#131314" d="M87.804,11.062C87.201,10.012 86.598,8.962 85.992,7.561C86.614,7.474 87.238,7.736 87.974,8.639C87.992,9.873 87.898,10.468 87.804,11.062z"/><path fill="#1e1e1f" d="M87.872,11.373C87.898,10.468 87.992,9.873 88.154,8.832C88.222,8.386 88.531,8.345 88.658,8.436C89.225,9.714 89.666,10.901 90.027,12.564C89.948,13.04 89.714,13.222 89.714,13.222C89.123,12.709 88.531,12.196 87.872,11.373z"/><path fill="#131314" d="M74.004,25.577C74.004,25.919 73.527,25.984 73.287,25.985C73.124,25.335 73.202,24.683 73.613,23.95C73.965,24.323 73.984,24.779 74.004,25.577z"/><path fill="#131314" d="M83.475,6.486C83.43,6.775 83.151,6.838 82.445,6.95C82.426,6.754 82.833,6.507 83.475,6.486z"/><path fill="#131314" d="M101.926,6.718C101.608,6.919 101.389,6.778 101.113,6.403C101.338,6.301 101.661,6.37 101.926,6.718z"/><path fill="#f2f2f2" d="M134.395,148.143C129.266,152.119 124.137,156.095 118.301,160.046C115.165,158.977 111.502,161.425 110.019,157.378C109.967,157.237 107.988,157.803 106.907,158.04C99.532,157.6 92.156,157.17 84.781,156.716C82.821,156.595 80.866,156.403 78.113,156.171C76.557,156.039 75.796,155.979 75.036,155.92C66.346,154.299 57.652,152.694 48.968,151.041C47.487,150.759 46.045,150.272 44.585,149.88C44.57,149.214 44.555,148.548 44.54,147.883C47.48,147.568 50.425,146.952 53.358,147.01C57.895,147.098 62.467,148.954 66.872,146.128C67.692,145.601 69.239,145.512 70.142,145.914C79.908,150.262 89.981,150.522 99.273,148.566C101.354,150.252 102.661,151.998 104.36,152.565C110.921,154.753 117.444,155.096 123.596,150.986C125.926,149.43 128.478,148.205 131.63,146.982C133.019,147.47 133.707,147.806 134.395,148.143z"/><path fill="#eaeaea" d="M107.247,102.007C107.248,96.736 107.248,91.964 107.248,87.192C110.974,91.048 116.674,92.622 116.103,100.066C115.175,112.145 115.89,124.35 115.911,136.501C115.914,138.127 115.912,139.752 115.912,142.066C112.767,141.678 110.232,141.365 107.245,140.996C107.245,128.03 107.245,115.268 107.247,102.007z"/><path fill="#f6f6f6" d="M88.001,95.996C91.507,96.175 93.425,98.165 94.114,101.461C94.692,104.219 95.329,106.981 95.62,109.775C95.721,110.746 94.863,111.816 94.443,112.841C93.626,112.232 92.809,111.623 91.965,110.26C92.145,107.256 92.351,105.006 92.558,102.756C92.053,102.673 91.549,102.59 91.044,102.506C90.379,104.709 89.713,106.912 89.048,109.115C91.159,114.781 93.936,120.178 93.115,126.664C92.464,131.806 90.896,134.02 85.206,134.899C85.073,132.357 84.94,129.835 84.807,127.312C84.518,127.27 84.228,127.229 83.938,127.187C83.434,129.309 82.93,131.43 81.997,135.358C80.555,133.237 79.056,132.052 79.125,130.968C79.559,124.233 80.345,117.52 81.032,110.376C81.051,109.952 81.063,109.94 81.433,109.986C82.678,109.329 83.552,108.625 84.427,107.92C81.765,106.728 84.197,100.864 78.791,101.894C78.585,101.789 78.144,101.653 78.144,101.653C79.565,99.823 80.985,97.992 82.944,96.496C84.989,96.552 86.495,96.274 88.001,95.996M86.701,104.99C86.774,105.226 86.846,105.462 86.919,105.698C87.185,105.428 87.451,105.158 87.718,104.889C87.481,104.818 87.245,104.748 86.701,104.99z"/><path fill="#f2f2f2" d="M60.922,129.863C60.922,131.823 60.922,133.783 60.922,136.062C58.649,135.744 56.644,135.464 53.967,135.09C53.967,126.622 53.96,118.166 53.969,109.71C53.977,103.211 53.879,96.709 54.079,90.217C54.175,87.1 52.612,82.86 58.257,82.412C58.893,82.362 59.37,80.299 60.986,79.218C60.986,81.849 60.986,84.48 60.982,88.014C61.04,100.28 61.103,111.645 61.088,123.411C60.972,124.629 60.933,125.445 60.792,126.614C60.768,127.932 60.845,128.897 60.922,129.863z"/><path fill="#eeeeef" d="M101.083,55.799C100.056,54.551 99.03,53.303 96.954,50.779C100.635,50.779 103.267,50.779 106.38,51.2C107.14,51.41 107.417,51.2 107.694,50.989C108.304,50.273 108.843,49.478 109.541,48.862C110.42,48.085 111.428,47.454 112.073,46.35C111.765,45.939 111.525,46.008 111.525,46.008C113.407,47.613 115.29,49.218 117.616,51.224C118.289,51.658 118.518,51.69 118.748,51.723C118.726,51.322 118.705,50.921 118.683,50.52C118.072,49.566 117.461,48.613 116.835,47.637C122.667,45.371 120.113,43.16 132.735,58.163C129.744,57.715 127.766,57.418 125.391,56.692C124.802,55.963 124.528,55.814 124.045,55.523C123.348,55.168 122.778,55.107 121.325,54.952C122.52,55.85 122.995,56.207 123.625,56.792C124.165,57.399 124.55,57.778 124.934,58.158C124.913,58.475 124.863,58.787 124.408,59.452C120.02,60.889 116.009,61.969 111.587,63.052C109.79,62.535 108.403,62.018 106.933,61.423C106.851,61.346 106.57,60.996 106.268,60.816C104.339,59.023 102.711,57.411 101.083,55.799z"/><path fill="#f0f0f0" d="M106.57,60.996C106.57,60.996 106.851,61.346 106.434,61.175C105.707,61.207 105.396,61.41 104.794,61.834C104.852,62.657 105.202,63.257 105.697,64.12C107.156,65.604 108.469,66.825 109.907,68.332C110.668,69.127 111.304,69.637 112.074,70.456C114.466,72.182 116.725,73.598 118.991,75.01C118.999,75.005 118.997,75.026 118.997,75.026C119.972,76.285 120.947,77.545 122.311,79.308C121.735,80.272 120.849,81.757 119.248,84.438C110.583,75.92 102.156,68.011 94.192,59.661C89.621,54.868 85.883,49.289 81.606,44.201C79.437,41.621 79.618,39.7 82.521,37.771C88.405,44.782 94.227,51.722 100.544,59.188C102.78,60.582 103.79,64.61 106.57,60.996z"/><path fill="#f6f6f6" d="M104.079,163.265C104.094,165.371 103.937,167.033 104.102,168.662C104.421,171.787 102.77,172.952 100.025,172.797C95.569,172.545 91.091,172.307 86.683,171.652C80.868,170.789 79.902,169.357 80.425,163.467C80.553,162.022 80.982,160.603 81.357,158.757C88.436,159.32 95.317,159.802 102.174,160.51C102.872,160.582 103.429,162.007 104.079,163.265z"/><path fill="#f6f6f6" d="M77.806,158.386C79.175,170.652 79.174,170.661 67.297,169.06C64.688,168.708 61.957,168.633 59.536,167.741C58.027,167.184 56.187,165.5 55.883,164.034C54.178,155.81 55.608,154.502 63.523,156.102C67.067,156.819 70.657,157.307 74.949,157.967C76.383,158.152 77.094,158.269 77.806,158.386z"/><path fill="#eceded" d="M112.123,45.959C111.525,46.008 111.765,45.939 111.804,45.923C108.092,46.555 104.208,46.012 100.598,48.067C97.841,49.636 95.02,49.32 92.94,46.145C90.966,43.13 88.555,40.402 85.292,36.204C89.843,36.649 93.017,36.958 96.334,37.282C96.816,34.862 102.395,33.541 108.55,35.488C108.975,35.273 109.031,35.446 108.6,35.348C108.447,36.135 108.725,37.019 109.035,38.253C110.727,40.44 112.389,42.277 114.05,44.114C113.607,44.713 113.165,45.312 112.123,45.959z"/><path fill="#dfdfdf" d="M119.917,113.249C119.904,122.708 119.904,131.695 119.904,140.683C119.303,140.676 118.701,140.67 118.1,140.664C118.1,125.957 118.1,111.25 118.1,96.525C123.653,94.614 128.98,98.096 129.041,103.878C129.137,112.865 129.1,121.854 129.059,130.841C129.054,132.018 128.694,133.193 128.499,134.368C128.081,134.327 127.663,134.285 127.245,134.244C127.245,126.468 127.374,118.689 127.175,110.918C127.104,108.166 126.23,105.435 125.567,101.852C120.364,104.943 119.913,108.751 119.917,113.249z"/><path fill="#fcfcfc" d="M101.882,185.593C100.207,186.283 98.556,186.58 96.548,186.93C95.479,185.031 94.283,183.111 94.149,181.12C93.775,175.592 94.816,175.087 100.286,175.563C106.186,176.076 112.141,175.965 118.649,176.297C119.415,176.759 119.679,176.938 120.02,177.006C119.915,180.694 119.809,184.381 119.803,188.52C118.186,188.695 116.47,188.42 114.383,188.086C115.1,186.192 115.626,184.804 116.152,183.417C115.841,183.116 115.53,182.815 115.219,182.514C113.71,183.655 112.201,184.797 110.327,185.976C109.961,184.086 109.961,182.157 109.961,179.56C108.972,180.402 108.197,180.821 107.773,181.47C106.561,183.326 105.815,185.976 102.773,183.751C102.484,184.233 102.195,184.716 101.882,185.593z"/><path fill="#f0f0f0" d="M61.936,51.857C64.445,47.306 66.887,43.13 69.597,38.494C71.322,39.837 72.275,40.579 73.59,41.603C64.037,55.954 52.942,68.451 38.696,78.485C38.041,77.865 37.443,77.379 36.944,76.806C36.408,76.19 35.966,75.493 35.805,75.274C43.095,68.408 50.192,61.652 57.394,55.009C58.661,53.84 60.366,53.145 61.936,51.857z"/><path fill="#eeeeef" d="M125.147,61.582C127.018,61.13 128.881,60.363 130.763,60.315C132.635,60.268 134.926,60.391 136.33,61.41C139.798,63.927 142.864,67 145.984,71.035C143.577,70.886 141.171,70.736 138.838,70.592C138.897,73.847 135.767,74.956 130.376,72.598C127.294,69.229 124.653,66.152 122.202,62.845C123.311,62.272 124.229,61.927 125.147,61.582M130.054,63.624C130.285,63.648 130.517,63.672 130.748,63.696C130.656,63.314 130.565,62.932 130.077,61.917C129.668,62.013 129.26,62.109 128.852,62.206C129.209,62.498 129.566,62.79 130.054,63.624z"/><path fill="#ebebeb" d="M65.45,63.452C68.986,59.539 72.283,55.886 76.343,51.389C77.756,57.96 76.363,61.618 72.283,64.575C66.227,68.964 60.393,73.659 54.464,78.223C53.977,77.701 53.49,77.178 53.003,76.655C57.073,72.341 61.142,68.027 65.45,63.452z"/><path fill="#f2f2f2" d="M117.574,162.007C117.574,165.766 117.574,169.525 117.574,173.89C114.211,173.539 111.031,173.207 106.677,172.753C106.962,168.612 107.244,164.505 108.249,160.465C111.839,161.024 114.706,161.516 117.574,162.007z"/><path fill="#f5f5f5" d="M53.201,162.843C53.305,167.757 50.14,165.675 48.35,165.497C45.866,165.25 42.849,165.204 42.929,161.315C43.003,157.691 42.945,154.063 42.945,150.443C47.375,153.643 55.938,153.221 53.201,162.843z"/><path fill="#eeeeef" d="M130.097,73.967C128.84,76.657 125.619,77.564 123.032,76.019C121.856,75.317 120.597,74.755 119.187,74.578C118.997,75.026 118.999,75.005 119.42,74.806C117.278,72.052 114.714,69.497 112.149,66.955C112.148,66.97 112.177,66.954 112.082,66.641C111.996,65.899 112.006,65.47 112.413,65.005C115.563,65.084 118.315,65.199 121.103,65.651C124.124,68.647 127.111,71.307 130.097,73.967z"/><path fill="#e5e5e5" d="M89.137,66.869C86.579,63.861 84.282,61.094 81.942,58.276C82.133,58.129 83.261,57.265 84.653,56.199C91.959,64.079 99.252,71.947 106.545,79.814C106.14,80.2 105.734,80.586 105.329,80.972C100.018,76.351 94.708,71.729 89.137,66.869z"/><path fill="#e2e2e3" d="M87.897,95.622C86.495,96.274 84.989,96.552 83.301,96.588C83.153,96.114 83.188,95.883 83.421,95.129C83.429,94.073 83.238,93.54 83.047,93.006C82.422,91.159 85.146,88.461 81.611,87.353C82.329,85.978 82.723,83.998 83.853,83.39C85.099,82.721 87.422,82.707 88.576,83.468C92.165,85.837 91.714,90.492 87.897,95.622z"/><path fill="#dcdddc" d="M85.222,137.012C89.842,136.815 94.004,136.611 98.166,136.407C98.169,136.909 98.171,137.412 98.174,137.914C90.028,143.292 81.638,139.866 73.303,138.4C73.329,137.722 73.356,137.044 73.382,136.366C77.176,136.579 80.97,136.792 85.222,137.012z"/><path fill="#e8e8e8" d="M116.938,144.528C116.564,146.59 116.189,148.652 115.753,151.05C112.18,150.631 108.509,150.2 104.395,149.718C104.294,148 104.193,146.271 104.083,144.394C108.329,144.394 112.2,144.394 116.498,144.419C116.925,144.444 116.938,144.528 116.938,144.528z"/><path fill="#dfdfdf" d="M114.573,28.891C110.094,30.015 105.776,30.779 101.032,31.619C100.826,29.684 100.682,28.322 100.503,26.634C104.697,25.858 108.68,24.95 112.713,24.575C113.259,24.524 114.055,27.146 114.573,28.891z"/><path fill="#e5e5e5" d="M109.031,35.446C109.031,35.446 108.975,35.273 108.979,35.324C110.86,33.119 112.627,33.113 114.442,35.51C116.447,38.159 118.557,40.728 121.137,43.983C118.647,43.983 116.704,43.983 114.405,44.048C112.389,42.277 110.727,40.44 109.268,38.077C109.324,36.849 109.177,36.147 109.031,35.446z"/><path fill="#e2e2e3" d="M88.918,143.067C90.964,143.069 92.57,143.069 94.177,143.069C94.264,143.635 94.351,144.201 94.439,144.767C90.318,147.247 85.439,146.234 80.893,145.739C73.696,144.955 73.721,144.73 73.432,141.403C78.481,141.961 83.48,142.513 88.918,143.067z"/><path fill="#161716" d="M61.165,123.009C61.103,111.645 61.04,100.28 61.063,88.454C61.588,88.004 62.028,88.017 62.758,88.292C63.086,88.718 63.125,88.881 63.096,89.506C63.001,99.494 62.977,109.021 62.952,118.547C63.015,119.328 63.078,120.11 63.029,121.566C62.869,122.499 62.823,122.756 62.507,123.012C61.881,123.01 61.523,123.009 61.165,123.009z"/><path fill="#f1f1f1" d="M54.448,137.911C56.796,138.25 58.737,138.513 60.828,138.796C60.828,140.915 60.828,142.818 60.828,145.37C57.311,144.467 54.115,143.647 50.509,142.722C51.485,140.677 48.745,136.652 54.448,137.911z"/><path fill="#e8e8e8" d="M63.489,118.663C62.977,109.021 63.001,99.494 63.332,89.521C63.638,89.075 64.106,89.148 64.106,89.148C64.106,89.148 64.577,89.094 64.577,89.094C64.394,98.989 64.21,108.884 63.489,118.663z"/><path fill="#131314" d="M121.068,65.315C118.315,65.199 115.563,65.084 112.41,64.673C112.006,63.935 112.002,63.493 111.998,63.05C116.009,61.969 120.02,60.889 124.428,59.688C124.879,59.904 124.933,60.239 125.067,61.079C124.229,61.927 123.311,62.272 121.899,62.983C121.293,64.004 121.18,64.659 121.068,65.315z"/><path fill="#cbcccc" d="M117.23,144.782C116.938,144.528 116.925,144.444 116.965,144.43C118.689,143.382 120.374,142.348 122.059,141.314C122.491,141.721 122.923,142.127 123.354,142.534C122.169,144.897 120.984,147.261 119.406,150.408C118.539,147.938 118.03,146.487 117.23,144.782z"/><path fill="#eceded" d="M121.103,65.651C121.18,64.659 121.293,64.004 121.708,63.211C124.653,66.152 127.294,69.229 129.97,72.662C130.006,73.018 129.955,73.502 130.026,73.734C127.111,71.307 124.124,68.647 121.103,65.651z"/><path fill="#bcbdbc" d="M62.776,123.014C62.823,122.756 62.869,122.499 62.938,121.849C63.654,121.869 64.922,122.248 64.947,122.697C65.123,125.802 65.04,128.922 65.04,133.33C63.397,131.372 62.441,130.231 61.203,129.477C60.845,128.897 60.768,127.932 61.158,126.968C62.009,125.651 62.392,124.332 62.776,123.014z"/><path fill="#d4d5d6" d="M68.577,72.305C67.423,75.758 66.019,78.937 64.615,82.117C64.046,81.848 63.476,81.58 62.907,81.311C63.861,77.821 64.389,74.132 68.577,72.305z"/><path fill="#f1f1f1" d="M117.705,161.696C114.706,161.516 111.839,161.024 108.681,160.347C107.996,159.647 107.602,159.134 107.058,158.33C107.988,157.803 109.967,157.237 110.019,157.378C111.502,161.425 115.165,158.977 117.963,160.073C118.167,160.545 118.002,160.965 117.705,161.696z"/><path fill="#f6f6f6" d="M81.044,109.957C79.98,110.604 78.923,111.246 76.441,112.753C77.022,108.564 77.451,105.468 78.012,102.012C78.144,101.653 78.585,101.789 78.779,102.287C79.67,105.17 80.366,107.555 81.063,109.94C81.063,109.94 81.051,109.952 81.044,109.957z"/><path fill="#e8e8e8" d="M89.378,109.077C89.713,106.912 90.379,104.709 91.044,102.506C91.549,102.59 92.053,102.673 92.558,102.756C92.351,105.006 92.145,107.256 91.899,109.919C91.143,109.901 90.426,109.47 89.378,109.077z"/><path fill="#131314" d="M106.268,60.816C103.79,64.61 102.78,60.582 100.86,59.367C100.782,58.306 100.883,57.591 101.033,56.338C102.711,57.411 104.339,59.023 106.268,60.816z"/><path fill="#ebebeb" d="M120.34,176.948C119.679,176.938 119.415,176.759 119.118,176.248C120.287,174.95 121.565,173.871 122.843,172.793C123.2,173.192 123.556,173.592 123.912,173.991C122.828,174.958 121.745,175.924 120.34,176.948z"/><path fill="#131314" d="M88.177,23.086C88.97,22.361 89.709,21.971 90.448,21.581C90.464,22.318 90.479,23.056 90.495,23.794C89.705,23.669 88.915,23.544 88.177,23.086z"/><path fill="#242524" d="M77.866,158.048C77.094,158.269 76.383,158.152 75.324,157.93C74.993,157.402 75.009,156.979 75.031,156.238C75.796,155.979 76.557,156.039 77.68,156.219C78.003,156.796 77.965,157.252 77.866,158.048z"/><path fill="#f1f1f1" d="M134.649,147.893C133.707,147.806 133.019,147.47 131.977,146.987C132.716,147.108 133.809,147.375 134.649,147.893z"/><path fill="#bcbdbc" d="M64.608,88.821C64.577,89.094 64.106,89.148 64.106,89.148C64.106,89.148 63.638,89.075 63.401,89.06C63.125,88.881 63.086,88.718 63.088,88.306C63.632,88.221 64.135,88.385 64.608,88.821z"/><path fill="#131314" d="M124.975,57.803C124.55,57.778 124.165,57.399 123.802,56.606C123.94,56.067 124.056,55.941 124.173,55.816C124.528,55.814 124.802,55.963 125.043,56.5C125.067,56.974 125.042,57.211 124.975,57.803z"/><path fill="#e8e8e8" d="M82.94,93.332C83.238,93.54 83.429,94.073 83.439,94.778C83.116,94.519 82.974,94.088 82.94,93.332z"/><path fill="#1e1e1f" d="M90.06,12.943C90.366,13.337 90.559,13.827 90.752,14.317C90.459,14.124 90.165,13.932 89.793,13.481C89.714,13.222 89.948,13.04 90.06,12.943z"/><path fill="#1e1e1f" d="M93.448,10.547C93.398,10.474 93.6,10.454 93.6,10.454C93.6,10.454 93.498,10.621 93.448,10.547z"/><path fill="#fcfcfc" d="M95.571,9.567C95.279,9.592 95.18,9.458 95.081,9.325C95.309,9.353 95.537,9.381 95.571,9.567z"/><path fill="#131314" d="M107.403,51.018C107.417,51.2 107.14,51.41 106.704,51.402C106.735,51.137 106.924,51.092 107.403,51.018z"/><path fill="#ebebeb" d="M89.666,30.199C90.037,30.04 90.355,30.087 90.674,30.134C90.321,30.225 89.968,30.315 89.666,30.199z"/><path fill="#131314" d="M79.493,29.647C79.651,29.164 79.809,28.681 79.91,28.698C79.732,29.347 79.613,29.497 79.493,29.647z"/><path fill="#131314" d="M80.043,28.981C80.534,29.162 80.834,29.558 81.133,29.955C80.74,30.073 80.347,30.191 79.724,29.978C79.613,29.497 79.732,29.347 80.043,28.981z"/><path fill="#e8e8e8" d="M81.433,109.986C80.366,107.555 79.67,105.17 78.985,102.392C84.197,100.864 81.765,106.728 84.427,107.92C83.552,108.625 82.678,109.329 81.433,109.986z"/><path fill="#e8e8e8" d="M86.855,104.834C87.245,104.748 87.481,104.818 87.718,104.889C87.451,105.158 87.185,105.428 86.919,105.698C86.846,105.462 86.774,105.226 86.855,104.834z"/><path fill="#0b0b0b" d="M62.507,123.012C62.392,124.332 62.009,125.651 61.26,126.615C60.933,125.445 60.972,124.629 61.088,123.411C61.523,123.009 61.881,123.01 62.507,123.012z"/><path fill="#0b0b0b" d="M111.587,63.052C112.002,63.493 112.006,63.935 112.013,64.71C112.006,65.47 111.996,65.899 111.772,66.754C110.965,67.469 110.374,67.758 109.783,68.047C108.469,66.825 107.156,65.604 105.744,63.524C105.459,62.315 105.272,61.964 105.085,61.613C105.396,61.41 105.707,61.207 106.517,61.252C108.403,62.018 109.79,62.535 111.587,63.052z"/><path fill="#131314" d="M123.646,56.378C122.995,56.207 122.52,55.85 121.325,54.952C122.778,55.107 123.348,55.168 124.045,55.523C124.056,55.941 123.94,56.067 123.646,56.378z"/><path fill="#0b0b0b" d="M118.48,50.648C118.705,50.921 118.726,51.322 118.748,51.723C118.518,51.69 118.289,51.658 117.988,51.358C117.915,51.091 118.277,50.775 118.48,50.648z"/><path fill="#0b0b0b" d="M112.151,66.941C114.714,69.497 117.278,72.052 119.413,74.811C116.725,73.598 114.466,72.182 112.106,69.922C112.052,68.366 112.102,67.653 112.151,66.941z"/><path fill="#131314" d="M112.149,66.955C112.102,67.653 112.052,68.366 111.972,69.613C111.304,69.637 110.668,69.127 109.907,68.332C110.374,67.758 110.965,67.469 111.867,67.067C112.177,66.954 112.148,66.97 112.149,66.955z"/><path fill="#131314" d="M104.794,61.834C105.272,61.964 105.459,62.315 105.599,63.262C105.202,63.257 104.852,62.657 104.794,61.834z"/><path fill="#0b0b0b" d="M108.6,35.348C109.177,36.147 109.324,36.849 109.237,37.727C108.725,37.019 108.447,36.135 108.6,35.348z"/><path fill="#131314" d="M129.923,63.082C129.566,62.79 129.209,62.498 128.852,62.206C129.26,62.109 129.668,62.013 130.135,62.364C130.193,62.811 129.923,63.082 129.923,63.082z"/><path fill="#131314" d="M130.333,62.68C130.565,62.932 130.656,63.314 130.748,63.696C130.517,63.672 130.285,63.648 129.988,63.353C129.923,63.082 130.193,62.811 130.333,62.68z"/></svg>