<svg xmlns="http://www.w3.org/2000/svg" viewBox="0 0 192 186" xml:space="preserve"><path fill="none" stroke="#000000" d="M112.5,16.5C105.004,20.615 98.907,26.711 91.62,31.195C88.445,33.148 89.822,38.022 89.135,41.527C88.124,46.69 87.608,51.951 86,57"/><path fill="none" stroke="#000000" d="M167.5,116.5C154.447,121.334 141.199,125.619 128.089,130.252C119.713,133.212 111.195,135.97 103,139.5"/><path fill="none" stroke="#000000" d="M33,118C37.608,121.952 43.676,122.318 49.03,124.424C54.562,126.6 60.327,128.186 66.001,129.996C76.497,133.344 86.998,136.672 97.51,139.969C97.766,140.049 98.167,139.667 98.5,139.5"/><path fill="none" stroke="#000000" d="M128,87C125.038,86.89 122.972,88.543 122.069,91.025C119.327,98.556 115.805,105.868 115,114"/><path fill="none" stroke="#000000" d="M130,108.5C123.971,113.717 115.974,113.765 108.98,116.448C105.595,117.747 101.879,118.201 98.524,119.559C89.987,123.014 82.226,120.31 74.51,116.977C71.17,115.534 67.7,114.146 65.525,110.983C64.266,109.151 62.022,109.623 60.5,108.5"/><path fill="none" stroke="#000000" d="M104.5,63.5C108.445,61.41 112.663,59.495 112.463,54.001C112.402,52.339 114.142,50.539 112.016,48.978C110.046,47.531 107.915,46.83 105.501,47.008C103.831,47.132 102.167,47.333 100.5,47.5"/><path fill="none" stroke="#000000" d="M62,111.5C59.814,118.039 52.658,118.839 46.494,116.014C44.002,114.872 43.851,112.902 45.054,111.035C48.019,106.435 46.006,101.287 46.663,96.454C46.86,95.012 45.959,93.033 47.558,92.099C49.004,91.255 51.064,90.025 52.5,92.5"/><path fill="none" stroke="#000000" d="M32.5,133.5C44.346,137.815 56.401,141.49 68.381,145.368C77.255,148.24 85.953,151.893 94.954,154.65C97.81,155.524 100.406,155.92 102.978,154.943C112.352,151.383 122.172,149.071 131.094,144.171C133.98,142.587 137.725,141.994 141.047,141.196C149.918,139.063 157.668,134.06 166.5,132"/><path fill="none" stroke="#000000" d="M85,60.5C86.177,71.52 85.002,82.505 84.5,93.5"/><path fill="none" stroke="#000000" d="M155,110C152.163,116.759 144.68,117.461 138.995,111.499C141.988,105.974 141.433,99.945 141.51,94C141.529,92.511 140.797,90.611 143.006,90.023C145.863,89.263 148.676,88.92 151.529,90.446C153.45,91.473 153.263,93.135 152.923,94.481C151.952,98.325 152.593,102.175 152.577,106C152.56,110.034 155.754,109.612 158.5,109.5"/><path fill="none" stroke="#000000" d="M80.5,92.5C85.489,92.591 85.273,96.259 84.936,99.493C84.22,106.349 84.363,113.167 85,120"/><path fill="none" stroke="#000000" d="M38,112.5C37.949,115.133 35.256,114.73 33.949,115.946C31.828,117.92 30.614,119.583 30.768,123.01C31.028,128.791 32.511,134.701 30.16,140.564C29.458,142.316 30.667,144.833 31,147"/><path fill="none" stroke="#000000" d="M161.5,112.5C168.571,114.327 170.287,117.225 168.421,125.983C167.018,132.568 169.038,139 168.5,145.5"/><path fill="none" stroke="#000000" d="M103,48C103.892,56.486 103.454,64.998 103.494,73.5C103.501,75.066 103.819,76.719 102.5,78"/><path fill="none" stroke="#000000" d="M130.5,130.5C132.169,134.731 130.111,139.248 131.5,143.5"/><path fill="none" stroke="#000000" d="M68.5,131.5C67.318,135.794 68.654,140.185 68,144.5"/><path fill="none" stroke="#000000" d="M144,153C141.327,157.22 136.778,158.12 132.5,159.5"/><path fill="none" stroke="#000000" d="M147,76.5C147,80.75 147,85 147,89.25"/><path fill="none" stroke="#000000" d="M100,142.5C98.898,146.629 99.785,150.838 99.5,155"/><path fill="none" stroke="#000000" d="M79.5,165C75.045,165.031 71.798,161.44 67.5,161"/><path fill="none" stroke="#000000" d="M74.5,105.5C74.167,109 73.833,112.5 73.5,116"/><path fill="none" stroke="#000000" d="M83.5,152C81.77,155.511 84.588,159.233 83,162.75"/><path fill="none" stroke="#000000" d="M100,159.5C99.743,162.829 100.568,166.212 99.5,169.5"/><path fill="none" stroke="#000000" d="M52.5,77.5C52.5,81.999 52.5,86.498 52.5,91.674C52.683,91.917 53.662,91.45 54.501,91.48C57.521,91.588 58.774,92.285 58.214,96.032C57.658,99.762 56.618,104.139 60,107.5"/><path fill="none" stroke="#000000" d="M149,140C149.697,143.297 147.942,146.839 150,150"/><path fill="none" stroke="#000000" d="M115.5,152C117.023,158.954 113.122,163.743 109.032,168.527C107.642,170.153 104.445,168.464 104,171.5"/><path fill="none" stroke="#000000" d="M45.5,158.5C41.173,154.827 36.211,157.087 31.5,157"/><path fill="none" stroke="#000000" d="M47.5,140.5C47.667,142.667 47.859,144.832 47.993,147C48.114,148.966 48.287,150.981 45.91,151.635C46.478,153.995 48.609,155.238 48.5,157.5"/><path fill="none" stroke="#000000" d="M148.5,159.5C150.985,156.482 153.508,154.156 158.053,155.858C159.898,156.55 162.333,155.667 164.5,155.5"/><path fill="none" stroke="#000000" d="M73.5,53.5C76.911,54.427 78.498,58.638 82.5,58.5"/><path fill="none" stroke="#000000" d="M94,101C92.672,103.422 94.17,105.41 94.917,107.568C97.171,107.386 99.238,105.927 101.5,107"/><path fill="none" stroke="#000000" d="M140,104C137,103.333 134,102.667 131,102"/><path fill="none" stroke="#000000" d="M79.5,26C82.5,27.5 85.5,29 88.5,30.5"/><path fill="none" stroke="#000000" d="M77.5,109.5C77.667,112.167 77.833,114.833 78,117.5"/><path fill="none" stroke="#000000" d="M78.5,91.5C76.311,89.668 73.936,88.233 71,88"/><path fill="none" stroke="#000000" d="M45.5,152C43.565,152.952 41.708,152.713 40.01,151.487C38.348,150.287 36.604,149.423 34.5,149.5"/><path fill="none" stroke="#000000" d="M55.5,155C56.917,157.937 59.652,158.567 62.5,159"/><path fill="none" stroke="#000000" d="M91.5,101C89.548,99.114 89,95.697 85.5,95.5"/><path fill="none" stroke="#000000" d="M162.5,148.5C159.841,148.422 157.957,150.513 155.5,151"/><path fill="none" stroke="#000000" d="M127.5,161.5C125.228,162.506 123.166,164.142 120.501,163.991C117.281,163.808 116.631,166.404 115.5,168.5"/><path fill="none" stroke="#000000" d="M90,160.5C89.363,162.809 89.194,165.391 86.5,166.5"/><path fill="none" stroke="#000000" d="M18.5,134.5C20.818,137.217 22.198,140.652 25,143"/><path fill="none" stroke="#000000" d="M97.5,73.5C97.668,74.333 96.982,75.535 98.016,75.962C102.006,77.61 104.726,81.36 108.863,82.62C110.43,81.243 111.483,79.502 113.5,79"/><path fill="none" stroke="#000000" d="M41,145C42.667,147 44.333,149 46,151"/><path fill="none" stroke="#000000" d="M157.5,144.5C154.272,146.102 152.618,148.07 155.405,151.575C155.763,152.026 154.833,153.5 154.5,154.5"/><path fill="none" stroke="#000000" d="M79.5,168C77.249,170.715 74.176,169.048 71.5,169.5"/><path fill="none" stroke="#000000" d="M180.5,133.5C177.444,135.119 176.038,137.947 177.178,140.932C177.967,142.996 175.371,143.856 176.5,145.5"/><path fill="none" stroke="#000000" d="M12.5,141.5C15.274,142.286 17.028,143.82 16.497,146.999C16.226,148.624 17.548,148.619 18.5,149"/><path fill="none" stroke="#000000" d="M122.5,158.5C122.002,160.334 119.191,161.012 120,163.5"/><path fill="none" stroke="#000000" d="M176.5,137.5C174.016,139.176 171.986,141.111 172.5,144.5"/><path fill="none" stroke="#000000" d="M21.5,141C21.394,143.167 19.23,145.333 21.5,147.5"/><path fill="none" stroke="#000000" d="M53.5,147.5C51.216,148.961 50.246,150.988 51.558,153.469C52.294,154.862 51.732,156.179 52,157.5"/><path fill="none" stroke="#000000" d="M184.5,140C182.626,141.595 180.351,142.146 178,142.5"/><path fill="none" stroke="#000000" d="M92.5,165.5C92.552,166.777 90.759,167.526 92.046,169.511C92.745,169.711 94.123,170.106 95.5,170.5"/><path fill="none" stroke="#000000" d="M83,171C80.894,169.121 78.888,167.227 80.485,163.993C80.936,163.081 81.702,162.818 82.492,163.029C85.524,163.838 86.572,166.046 86.525,169C86.517,169.498 86.833,170 87,170.5"/><path fill="none" stroke="#000000" d="M123.5,68.5C124.811,68.664 125.343,70.645 127,70"/><path fill="none" stroke="#000000" d="M153.5,149.5C149.46,150.183 146.263,151.77 146,156.5"/></svg>