<svg xmlns="http://www.w3.org/2000/svg" viewBox="0 0 152 235" xml:space="preserve"><path fill="#0a0a0a" d="M113.693,110.202C116.152,107.807 118.941,108.215 120.58,110.622C121.831,112.46 121.794,115.229 122.115,117.613C122.204,118.274 121.06,119.238 121.269,119.725C122.95,123.641 120.625,125.123 117.595,126.48C114.201,128.001 112.298,126.051 110.407,123.796C110.109,123.44 109.706,123.172 109.352,122.863C108.868,123.002 108.385,123.141 107.902,123.28C108.475,125.487 108.82,127.788 109.675,129.881C110.956,133.016 113.41,136.324 110.943,139.4C108.748,142.136 108.549,144.647 109.398,147.65C116.934,147.292 118.412,150.059 116.453,157.75C115.551,161.289 114.427,163.988 112.474,167.063C110.992,169.395 112.974,174.037 113.654,177.606C114.429,181.671 115.228,185.765 116.508,189.685C117.068,191.399 118.85,192.714 120.62,194.577C124.024,196.075 126.171,196.002 126.02,192.06C127.647,188.92 129.173,185.664 132.729,184.721C133.151,185.076 133.572,185.431 133.994,185.786C132.449,188.899 130.905,192.012 129.526,195.577C130.511,196.466 131.329,196.903 132.147,197.34C132.418,198.546 132.302,200.427 133.027,200.843C136.293,202.714 139.778,203.923 141.047,208.267C141.382,209.415 144.587,209.726 146.74,211.019C147.003,212.044 147,212.471 146.998,212.898C140.678,213.658 134.358,214.419 127.689,215.222C127.52,215.892 127.164,217.307 126.612,219.495C122.336,220.192 117.747,220.941 112.745,221.756C113.294,222.724 113.952,223.88 115.04,225.796C111.655,226.652 108.415,228.184 105.21,228.113C100.479,228.008 95.235,228.109 91.445,223.25C90.622,223.437 89.026,223.798 87.43,224.16C88.681,229.078 81.658,231.861 74.536,229.256C73.005,228.697 71.496,228.077 70.147,227.552C70.052,226.02 69.965,224.618 69.879,223.217C68.875,223.856 67.923,224.94 66.859,225.065C59.447,225.934 52.988,231.934 44.703,228.612C40.649,226.986 36.035,226.757 31.401,225.841C32.227,222.632 32.736,220.652 33.153,219.034C26.175,217.434 19.545,215.913 11.405,214.046C15.808,210.271 19.07,207.475 22.733,204.936C22.057,206.807 20.978,208.422 19.663,210.234C19.507,211.143 19.587,211.855 19.667,212.567C20.775,212.046 21.883,211.525 23.38,211.011C29.5,213.624 32.097,206.215 37.378,206.464C34.311,205.224 31.273,205.041 28.247,204.735C26.663,204.576 25.1,204.202 23.528,203.925C25.944,203.089 28.36,202.254 31.555,201.149C28.811,199.197 26.233,197.364 23.655,195.53C23.682,195.249 23.709,194.967 23.735,194.686C26.912,195.109 30.09,195.533 33.532,195.992C32.772,193.174 31.996,190.296 31.22,187.418C31.776,187.139 32.332,186.861 32.888,186.582C33.91,188.407 34.931,190.232 36.032,192.79C36.915,194.735 37.719,195.947 38.698,197.424C39.31,196.266 39.742,195.447 40.174,194.628C41.101,193.374 42.553,192.238 42.864,190.846C44.241,184.697 45.34,178.483 46.405,172.269C46.574,171.282 46.427,169.752 45.793,169.196C42.338,166.169 43.108,162.876 44.167,160.765C41.171,158.689 36.185,156.804 36.183,154.914C36.179,150.737 32.81,145.869 37.354,141.999C41.333,138.612 44.303,141.776 48.142,143.945C47.258,139.303 46.513,135.387 45.834,131.824C43.305,132.338 40.626,133.616 38.246,133.196C34.599,132.554 30.611,122.881 32.746,119.815C34.02,117.985 36.727,116.849 39.019,116.128C40.836,115.556 43,116.088 45.439,116.947C45.911,118.177 45.954,118.592 45.609,118.991C43.442,119.099 41.632,119.062 39.891,119.392C38.189,119.714 36.557,120.412 34.894,120.944C39.635,123.09 39.612,123.082 38.02,127.873C37.925,128.16 38.682,128.731 39.086,129.473C39.481,130.024 39.832,130.271 40.183,130.518C40.446,129.655 40.71,128.792 41.107,127.599C42.826,124.514 44.41,121.759 46.309,118.957C46.342,118.085 46.058,117.259 45.775,116.433C46.45,111.179 47.126,105.925 47.932,99.658C43.368,101.999 39.978,104.219 36.624,100.272C34.417,97.674 34.03,88.137 36.789,86.349C38.632,85.154 41.549,85.267 43.945,85.422C45.151,85.5 46.268,86.975 47.817,88.104C47.354,85.323 46.992,83.146 46.63,80.969C46.392,81.332 46.154,81.696 45.916,82.059C43.196,80.453 39.366,79.481 38.005,77.098C35.733,73.123 36.245,68.5 40.788,65.277C41.404,64.999 41.549,64.597 41.693,64.195C36.331,60.291 32.564,55.237 30.649,48.852C29.062,43.56 30.289,38.769 33.907,34.141C34.761,33.987 34.978,33.99 35.195,33.993C36.805,38.538 38.415,43.084 40.081,48.426C40.095,49.909 40.055,50.595 39.701,51.14C37.917,49.02 36.446,47.044 34.976,44.707C34.35,43.635 33.723,42.923 33.096,42.211C33.082,43.184 33.068,44.156 33.027,45.49C35.535,50.302 36.361,55.998 42.002,58.506C42.376,59.41 42.743,59.996 43.11,60.582C43.401,60.079 43.692,59.577 44.356,59.094C46.123,59.335 47.517,59.557 48.933,60.143C49.705,61.042 50.456,61.577 51.206,62.112C51.686,60.943 52.878,59.233 52.49,58.724C51.78,57.79 50.138,57.564 48.559,56.947C45.747,55.21 43.262,53.569 40.859,51.193C40.983,49.964 41.026,49.472 41.068,48.98C41.261,49.043 41.454,49.106 41.943,49.725C42.613,50.476 42.987,50.67 43.362,50.864C47.34,52.352 51.318,53.841 54.887,55.176C57.609,52.887 60.034,51.127 62.08,49.003C63.046,48 63.834,46.274 63.772,44.917C63.263,33.674 62.613,22.435 61.842,11.207C61.448,5.473 66.457,1.173 71.932,3.318C77.507,5.502 82.914,8.216 88.113,11.189C89.493,11.978 90.581,14.596 90.533,16.339C90.29,25.106 89.775,33.875 89.041,42.616C88.72,46.438 89.368,49.242 93.095,51.076C94.663,51.847 95.799,53.494 97.071,54.686C98.588,54.612 100.076,54.539 101.721,55.451C101.11,57.279 100.341,58.121 99.309,59.252C107.524,60.906 116.21,50.256 114.54,42.253C113.647,43.556 112.568,45.13 111.49,46.705C111.091,46.138 110.272,45.494 110.359,45.015C111.082,41.04 111.973,37.094 112.791,33.245C121.836,37.786 120.193,52.008 109.619,64.99C109.162,67.953 108.704,70.916 108.102,74.323C107.954,74.955 107.95,75.142 107.946,75.329C108.115,75.108 108.283,74.887 108.452,74.665C108.845,74.434 109.238,74.203 110.174,73.987C110.804,74.345 110.892,74.688 111.243,75.346C110.537,80.714 106.514,82.346 102.398,84.051C100.777,84.723 99.455,86.116 97.991,87.535C97.805,88.686 97.211,89.761 97.524,90.224C98.226,91.264 99.377,92 100.346,92.86C100.547,91.865 100.749,90.87 101.086,89.56C106.443,86.784 110.634,80.884 117.653,84.321C117.876,84.43 118.42,83.883 120.194,82.797C114.946,82.453 112.952,80.398 115.101,76.531C113.468,75.922 112.236,75.463 110.594,74.861C110.155,74.429 110.128,74.14 110.1,73.851C115.37,71.548 116.182,71.936 118.457,77.353C118.854,78.299 120.297,78.858 120.564,79.794C121.195,82.005 122.441,84.975 121.525,86.451C120.417,88.236 117.433,89.176 115.081,89.775C112.976,90.311 110.628,89.888 109.076,89.888C109.076,96.359 109.076,101.705 109.076,108.039C109.463,108.284 110.971,109.24 112.799,110.898C113.151,112.018 113.18,112.435 112.869,112.949C110.783,112.633 109.039,112.22 106.596,111.641C109.496,115.408 111.746,118.33 113.996,121.526C114.192,122.245 114.387,122.691 114.581,123.136C114.724,122.748 114.866,122.36 115.357,121.986C116.365,121.582 117.025,121.163 117.684,120.744C116.846,120.156 116.008,119.569 115.076,118.599C116.326,116.658 117.669,115.098 119.882,112.529C117.507,112.529 115.738,112.529 113.919,111.945C113.81,110.975 113.751,110.588 113.693,110.202M109.003,192.528C109.136,192.79 109.269,193.052 109.403,193.314C109.287,192.864 109.171,192.413 108.784,191.567C108.419,191.577 108.054,191.586 107.689,191.595C108.105,191.75 108.522,191.906 109.003,192.528M95.371,139.17C95.598,139.464 95.825,139.757 96.036,140.844C96.022,141.903 96.007,142.962 95.986,144.861C96.263,146.55 96.541,148.238 96.818,149.926C97.558,149.723 98.298,149.52 99.038,149.316C98.365,147.594 97.692,145.872 97.536,143.678C97.358,142.451 97.179,141.224 96.999,139.4C97.001,139.002 97.003,138.604 97.847,138.119C100.56,137.789 103.273,137.46 106.028,137.722C106.692,137.546 107.355,137.37 108.652,136.785C107.067,134.999 105.481,133.214 103.67,130.693C103.198,130.557 102.726,130.422 102.158,130.645C102.524,131.291 102.891,131.937 103.425,132.88C100.924,134.088 98.47,135.274 95.304,136.214C94.561,135.518 93.818,134.823 93.075,134.117C90.188,135.913 87.302,137.709 84.271,139.594C85.068,140.598 86.005,141.779 86.56,142.479C89.282,141.244 91.627,140.18 93.734,139.625C93.954,140.2 94.174,140.774 94.395,141.349C94.555,140.512 94.714,139.676 94.958,138.857C94.958,138.857 94.881,138.896 95.371,139.17M95.487,59.835C95.329,59.175 95.17,58.515 94.92,57.192C93.313,55.794 91.707,54.396 89.585,52.49C83.603,49.018 81.021,49.133 77.13,53.009C75.775,54.359 74.382,55.672 72.668,56.987C72.668,56.987 72.329,56.991 72.157,56.333C72.638,53.935 73.119,51.536 73.585,49.214C64.169,50.066 58.478,54.327 56.229,62.1C55.623,63.586 55.017,65.072 54.314,66.795C55.934,66.968 56.917,67.073 57.947,68.02C57.266,70.034 56.584,72.049 55.978,73.992C55.978,73.992 56.076,73.956 55.39,73.643C55.594,74.097 55.797,74.55 56,75.576C55.977,75.958 55.953,76.339 55.897,77.538C55.599,78.923 55.026,80.318 55.072,81.692C55.129,83.444 55.687,85.18 56.076,87.547C57.051,87.698 58.026,87.849 59.786,88.033C61.111,88.504 62.436,88.974 63.67,89.413C63.89,91.372 64.085,93.117 63.753,95.153C63.753,96.285 63.753,97.417 63.753,98.549C64.077,98.531 64.4,98.514 64.724,98.496C64.815,97.289 64.905,96.081 65.793,94.77C66.312,96.133 66.83,97.496 67.574,99.451C67.884,97.951 68.087,96.965 68.607,95.765C68.796,95.585 68.925,95.368 69.573,94.978C69.711,95.121 69.849,95.263 69.977,96.14C69.45,99.759 71.242,100.082 74.753,98.94C75.143,97.949 75.532,96.958 76.46,96.393C76.975,97.522 77.491,98.651 78.007,99.78C78.36,99.729 78.713,99.677 79.066,99.626C79.358,98.044 79.65,96.463 79.988,94.967C79.988,94.967 79.902,94.921 80.552,95.226C81.767,94.943 82.981,94.659 84.196,94.376C84.052,93.928 83.907,93.48 83.763,93.032C82.616,93.353 81.47,93.675 80.229,93.291C80.836,91.866 81.444,90.441 82.73,88.697C84.364,88.748 86.006,88.918 87.63,88.809C88.831,88.728 90.007,88.285 91.803,87.91C92.206,87.067 92.61,86.224 93.621,84.929C92.714,82.613 91.808,80.296 91.184,77.255C91.063,75.738 91.286,74.087 90.755,72.73C89.382,69.219 89.282,66.635 94.316,66.561C94.2,64.537 94.098,62.769 94.404,60.819C94.662,60.653 94.852,60.429 95.487,59.835M87.38,124.048C87.072,124.369 86.764,124.691 86.456,125.012C86.669,125.191 86.883,125.37 87.097,125.548C87.417,125.045 87.736,124.541 88.447,123.766C88.429,123.405 88.411,123.045 88.393,122.685C88.242,123.103 88.091,123.521 87.38,124.048M109.821,199.48C109.873,199.889 109.925,200.298 109.977,200.707C110.132,200.662 110.426,200.585 110.424,200.576C110.3,200.046 110.151,199.522 109.932,198.43C109.628,198.107 109.324,197.785 109.02,197.462C108.838,197.67 108.656,197.878 108.473,198.086C108.98,198.392 109.487,198.699 109.821,199.48M66.855,145.481C66.833,144.638 66.811,143.796 66.843,142.447C66.926,142.299 67.009,142.15 67.88,141.997C69.178,141.34 70.476,140.682 71.775,140.025C70.958,139.304 70.141,138.583 69.457,137.254C69.646,137.168 69.835,137.083 70.524,136.785C71.011,136.262 71.498,135.738 72.703,135.095C78.665,140.269 79.715,130.849 83.74,131.884C82.337,130.947 80.084,130.253 79.83,129.114C79.186,126.226 79.439,123.138 79.881,120.632C80.508,121.309 81.134,121.987 81.761,122.664C81.985,122.238 82.209,121.811 82.432,121.385C81.406,120.944 80.379,120.503 78.697,119.816C79.109,118.868 79.522,117.919 80.559,117.244C81.399,117.442 82.239,117.641 83.321,117.897C83.127,115.648 82.967,113.785 82.746,111.51C82.612,111.25 82.408,111.069 81.363,110.884C80.593,110.969 79.823,111.054 78.636,110.568C77.965,110.423 77.295,110.278 75.828,110.296C71.474,107.44 64.818,109.057 61.944,102.956C56.883,104.781 53.017,107.805 51.246,113.024C50.359,115.639 49.732,118.342 48.494,121.386C48.665,122.108 48.836,122.831 49.007,123.554C49.34,122.805 49.673,122.056 50.755,121.125C54.152,121.307 57.548,121.488 61.253,121.687C60.704,123.527 60.261,125.015 59.307,126.955C58.871,127.971 58.436,128.986 57.148,130.027C54.774,129.607 52.401,129.186 50.38,128.225C50.761,127.39 51.141,126.556 51.522,125.721C51.109,125.543 50.387,125.143 50.333,125.22C49.823,125.935 49.357,126.703 49.03,127.517C48.86,127.94 48.995,128.486 48.82,129.893C48.596,132.95 49.517,134.947 53.386,134.738C53.893,134.817 54.399,134.896 54.918,135.757C54.929,136.018 54.94,136.279 54.96,136.616C54.96,136.616 54.982,136.631 55.4,137.068C55.416,138 55.431,138.931 55.128,140.476C56.442,142.094 57.756,143.713 59.809,146.241C60.192,143.403 60.339,142.308 61.006,141.317C61.469,141.514 61.932,141.711 62.263,142.307C62.222,142.593 62.257,142.868 62.214,144.005C62.833,144.402 63.452,144.799 64.497,145.632C65.092,145.702 65.686,145.772 66.855,145.481M67.321,197.094C67.041,198.093 66.761,199.092 66.481,200.091C66.9,200.145 67.318,200.199 67.737,200.253C67.83,199.172 67.923,198.091 68.533,196.56C68.048,195.372 67.563,194.183 67.037,192.497C67.037,192.497 67,191.999 67.002,191.508C67.002,191.508 67.003,191.017 67.506,190.615C67.077,189.687 66.648,188.759 66.067,186.996C66.049,184.995 66.03,182.995 66.577,180.928C66.898,180.625 67.218,180.321 67.538,180.018C67.331,179.837 67.123,179.655 66.916,179.474C66.612,179.979 66.308,180.483 65.322,181.316C64.663,181.686 64.004,182.055 63.014,181.825C62.527,181.057 62.039,180.289 61.075,178.768C60.728,184.931 60.422,190.37 59.705,196.427C59.428,198.369 59.15,200.311 58.455,202.734C57.69,204.295 56.924,205.857 56.159,207.419C56.607,207.635 57.054,207.851 57.502,208.068C58.663,206.381 59.824,204.695 61.309,203.449C61.709,202.328 62.109,201.206 63.331,199.975C63.732,198.973 64.132,197.972 64.952,196.593C65.625,195.721 66.298,194.849 67.497,194.393C67.658,195.256 67.82,196.119 67.321,197.094M97.268,77.033C96.643,77.655 96.019,78.276 95.394,78.898C95.852,79.205 96.309,79.511 96.767,79.817C97.208,78.899 97.649,77.98 98.35,76.911C98.214,76.912 98.078,76.914 97.268,77.033M92.501,120.421C92.36,121.333 92.219,122.245 92.114,123.499C92.114,123.499 92.121,123.843 92.129,124.527C92.914,125.728 93.698,126.929 94.483,128.13C94.708,128.054 94.933,127.978 95.159,127.902C94.764,126.592 94.37,125.282 94.59,123.971C95.748,124.066 96.907,124.162 98.583,124.098C98.755,124.043 98.927,123.988 99.8,123.994C100.285,123.334 100.771,122.674 101.903,122.121C103.184,123.071 104.464,124.02 105.951,125.123C105.882,122.024 107.175,118.455 101.787,118.274C99.854,118.181 97.921,118.088 95.345,118.004C94.581,118.666 93.817,119.329 92.501,120.421M87.363,182.315C87.363,182.315 87.55,182.21 88.094,182.711C88.724,182.314 89.939,181.647 89.899,181.56C88.925,179.448 87.817,177.397 87.258,175.077C89.035,173.995 90.572,171.653 92.706,174.456C92.516,174.913 92.325,175.369 92.134,175.826C92.849,175.343 93.982,174.978 94.162,174.343C94.345,173.7 93.587,172.789 93.076,171.247C90.947,170.776 88.829,170.001 86.686,169.923C84.714,169.851 82.672,170.972 80.737,170.785C76.453,170.372 72.216,169.469 68.077,167.812C66.925,166.523 65.773,165.234 65.066,164.444C62.761,165.693 61.362,166.452 60.115,166.288C62.194,162.656 58.885,162.615 56.89,160.949C55.782,159.669 54.746,158.306 53.485,157.202C53.305,157.045 51.304,158.274 51.37,158.636C52.163,162.934 48.594,163.105 45.834,164.06C45.968,164.597 46.101,165.133 46.234,165.67C48.477,165.45 50.719,165.231 53.678,165.154C55.866,165.535 56.385,171.152 61.041,167.08C61.323,167.449 61.634,167.8 61.882,168.191C62.86,169.732 63.82,171.286 64.786,172.836C65.862,171.391 66.938,169.946 69.02,168.306C70.237,172.795 73.364,174.895 77.729,176.071C79.488,176.545 80.876,178.538 82.336,179.942C83.607,181.164 84.74,182.53 86.329,184.358C86.62,183.724 86.912,183.09 87.363,182.315M88.1,117.313C88.194,117.355 88.287,117.398 88.381,117.44C88.275,117.277 88.169,117.115 88.037,116.176C87.247,113.838 86.456,111.5 85.665,109.162C85.021,109.468 84.376,109.774 83.732,110.08C85.141,112.404 86.551,114.727 88.1,117.313M73.649,149.085C74.436,149.377 75.224,149.669 75.711,150.559C74.583,151.361 73.455,152.164 72.327,152.966C73.439,153.987 74.532,154.215 75.265,153.803C77.909,152.319 80.431,150.619 83.004,149.624C83.288,150.29 83.572,150.956 83.856,151.621C84.076,151.488 84.297,151.354 84.518,151.221C84.012,150.481 83.506,149.74 83.002,148.283C82.469,146.322 81.936,144.362 81.19,141.619C78.898,142.851 76.947,143.9 74.499,145.331C73.993,146.194 73.487,147.058 72.926,147.368C72.477,147.282 72.028,147.197 71.579,147.111C71.518,147.852 71.458,148.593 71.397,149.333C71.922,149.241 72.446,149.149 73.649,149.085M93.09,110.732C94.573,112.291 96.057,113.85 97.54,115.409C98.013,115.115 98.487,114.821 98.96,114.527C98.96,112.603 98.96,110.679 99.115,108.666C99.115,108.666 99.273,108.751 100.099,108.665C100.303,108.186 100.507,107.708 100.172,106.923C97.087,100.879 103.946,103.111 105.676,100.115C104.04,99.471 101.591,97.94 101.114,98.41C97.259,102.21 93.063,100.371 88.8,99.946C86.746,99.741 84.86,100.923 87.104,104.284C87.917,104.856 88.836,105.324 89.521,106.022C90.762,107.286 91.863,108.687 93.09,110.732M74.062,7.686C71.537,7.308 69.012,6.93 65.422,6.392C66.776,7.857 67.189,8.304 66.816,8.872C66.037,9.186 65.257,9.5 63.223,10.32C66.144,10.801 67.695,11.056 69.019,12.149C69.278,15.764 69.536,19.38 69.079,23.013C68.103,23.511 67.127,24.01 66.151,24.508C66.258,24.869 66.364,25.23 66.471,25.591C67.694,25.726 68.918,25.86 70.484,26.652C70.674,28.332 70.864,30.011 71.376,32.344C74.471,33.567 73.796,31.193 74.144,29.018C73.486,23.043 72.827,17.068 72.653,11.067C73.308,10.641 73.963,10.215 74.92,10.639C75.644,11.104 76.369,11.569 77.215,12.72C78.696,13.433 80.177,14.145 80.86,14.474C81.319,16.778 81.658,18.484 82.123,20.781C86.569,21.143 85.955,17.958 86.756,14.927C84.506,13.169 82.256,11.411 79.779,8.928C78.027,8.642 76.274,8.357 74.062,7.686M131.447,207.358C132.759,206.924 134.071,206.491 136.035,205.842C131.015,203.442 126.968,198.988 122.449,204.3C124.625,205.538 126.812,206.783 129.011,208.749C129.543,209.792 130.075,210.835 130.608,211.878C131.043,211.7 131.479,211.523 131.914,211.346C131.608,210.221 131.302,209.096 131.447,207.358M98.009,190.505C98.009,190.505 98.022,190.065 98.281,189.151C98.112,184.481 97.943,179.811 97.775,175.141C97.346,175.159 96.917,175.177 96.489,175.195C95.865,182.045 95.242,188.895 94.605,195.884C99.533,195.666 99.184,193.5 98.009,190.505M121.204,211.318C119.311,210.101 117.518,208.164 115.495,207.883C113.684,207.632 111.334,208.85 109.767,210.102C108.685,210.965 108.53,212.99 108.004,214.38C111.05,214.525 113.01,214.618 114.981,215.361C115.394,216.113 115.806,216.865 116.219,217.617C116.813,216.433 117.407,215.248 118.417,213.564C119.062,213.061 119.707,212.558 120.861,212.679C121.631,213.018 122.401,213.356 123.17,213.694C123.295,213.446 123.42,213.197 123.545,212.949C122.883,212.581 122.221,212.212 121.204,211.318M76.69,182.811C76.566,189.102 76.429,195.392 76.325,201.683C76.296,203.427 76.34,203.428 78.603,203.443C78.734,204.233 78.864,205.024 78.57,206.344C76.388,208.56 74.206,210.775 71.402,213.287C70.578,214.548 69.753,215.809 68.929,217.069C69.246,217.321 69.563,217.572 69.88,217.823C71.669,216.877 73.458,215.93 75.571,215.282C76.163,215.597 76.755,215.913 78.05,216.753C78.33,216.835 78.61,216.917 79.309,217.572C80.06,216.693 80.754,215.755 81.575,214.948C82.996,213.552 84.496,212.238 86.046,211.575C86.682,212.34 87.318,213.105 87.954,213.87C88.366,213.487 88.777,213.105 89.189,212.723C88.286,211.813 87.382,210.904 86.13,209.369C84.102,208.155 82.073,206.941 80.332,205.218C80.222,204.147 80.112,203.075 80.023,201.351C80.345,200.861 80.667,200.371 81.602,200.077C82.253,200.77 82.904,201.463 84.015,202.645C83.906,200.894 83.846,199.927 83.897,198.058C83.897,194.369 83.897,190.68 83.897,186.992C83.372,186.99 82.847,186.989 82.321,186.988C81.979,189.074 81.636,191.16 81.294,193.246C80.779,193.245 80.264,193.243 79.749,193.241C79.344,189.774 78.939,186.308 78.774,182.096C78.131,181.21 77.488,180.323 76.845,179.437C76.782,180.247 76.719,181.058 76.69,182.811M52.195,97.066C55.587,100.876 58.474,98.467 61.501,95.751C60.31,95.51 59.118,95.268 57.292,94.733C55.442,93.742 53.631,92.67 51.735,91.779C48.723,90.364 45.731,88.82 42.57,87.856C41.421,87.506 39.812,88.661 37.848,89.319C40.336,91.119 41.615,92.044 43.354,93.302C41.044,94.584 39.563,95.406 39.129,95.647C42.906,96 47.255,96.407 50.972,96.822C50.682,97.009 50.392,97.196 50.103,97.383C50.609,97.215 51.116,97.047 51.722,96.287C51.922,96.282 52.122,96.277 52.195,97.066M55.949,151.063C55.739,147.963 53.857,147.225 51.025,146.889C48.408,146.578 45.946,145.118 43.331,144.564C41.859,144.251 40.216,144.746 38.651,144.878C38.709,145.363 38.768,145.849 38.826,146.335C40.101,147.319 41.375,148.303 42.615,149.261C40.994,150.696 39.836,151.721 38.678,152.746C39.001,153.1 39.325,153.455 39.648,153.81C42.131,152.813 44.615,151.817 47.151,151.727C50.183,154.927 53.506,154.969 55.949,151.063M109.558,161.798C109.759,161.636 109.903,161.433 110.691,160.957C114.338,157.929 106.699,158.924 108.863,156.044C110.67,154.957 112.476,153.869 115.487,152.056C113.032,151.416 111.656,150.687 110.346,150.792C107.69,151.005 105.059,152.119 102.438,152.053C97.182,151.921 91.941,151.246 85.861,150.724C90.064,157.234 96.542,156.461 102.059,158.554C102.703,158.713 103.346,158.872 104.714,159.041C106.22,160.022 107.726,161.004 109.558,161.798M41.442,212.923C39.517,215.248 37.591,217.573 35.666,219.899C43.431,219.052 49.019,218.984 49.71,223.615C53.393,217.93 58.841,215.355 63.318,217.569C62.89,216.542 62.798,215.512 62.262,215.166C58.519,212.742 54.915,209.464 50.791,208.507C48.321,207.933 44.992,211.059 41.442,212.923M50.616,76.747C51.133,77.13 51.651,77.512 52.681,78.274C52.164,75.892 51.771,74.082 51.598,73.281C49.597,71.468 47.694,70.495 47.008,68.974C45.323,65.241 43.466,66.679 40.389,68.595C43.919,71.386 46.998,73.821 50.616,76.747M101.127,222.089C103.743,221.633 106.36,221.177 110.114,220.523C101.643,215.395 100.205,215.5 96.659,220.65C97.909,221.072 99.135,221.486 101.127,222.089M113.595,189.18C112.531,185.892 111.467,182.603 110.448,179.455C108.446,180.882 106.837,182.028 104.738,183.524C105.707,185.21 106.697,186.933 107.686,188.655C107.979,188.48 108.271,188.304 108.563,188.128C108.651,186.787 108.739,185.446 108.814,184.3C110.416,186.301 111.772,187.996 113.595,189.18M46.019,198.015C49.344,192.896 49.393,192.155 46.557,189.596C44.81,194.757 43.065,199.91 41.32,205.062C41.508,205.171 41.696,205.281 41.884,205.39C43.137,203.107 44.39,200.825 46.019,198.015M80.091,221.18C78.382,221.336 76.674,221.491 74.965,221.646C74.863,222.148 74.761,222.651 74.659,223.153C76.662,223.803 78.665,224.453 80.667,225.103C80.7,223.91 80.733,222.716 80.091,221.18M116.011,196.283C115.522,194.575 115.033,192.867 114.544,191.159C114.035,191.284 113.527,191.408 113.018,191.533C111.939,194.161 112.675,196.465 115.015,198.484C115.341,197.998 115.668,197.513 116.011,196.283M79.714,165.209C80.777,165.927 81.84,166.644 82.903,167.362C83.082,167.001 83.261,166.639 83.44,166.277C82.044,164.255 80.647,162.233 79.25,160.21C78.847,160.411 78.445,160.612 78.042,160.813C78.542,162.061 79.041,163.309 79.714,165.209M103.161,69.001C103.348,70.254 103.534,71.506 103.72,72.758C104.593,72.251 105.465,71.744 106.338,71.238C105.482,70.389 104.626,69.541 103.161,69.001M67.819,16.243C67.648,15.285 67.476,14.327 67.305,13.369C66.76,13.374 66.215,13.38 65.67,13.385C65.492,15.366 65.313,17.347 65.135,19.327C65.554,19.391 65.972,19.455 66.391,19.519C66.777,18.654 67.163,17.788 67.819,16.243M66.303,202.71C65.489,204.814 64.675,206.917 63.861,209.02C64.542,209.197 65.222,209.374 65.903,209.551C66.221,207.361 66.539,205.171 66.303,202.71M62.837,153.008C64.725,153.008 66.613,153.008 68.501,153.008C68.518,152.596 68.535,152.184 68.552,151.772C66.218,151.551 63.885,151.33 61.551,151.108C61.719,151.734 61.887,152.36 62.837,153.008M41.42,73.436C41.282,73.145 41.185,72.823 40.995,72.57C40.821,72.338 40.548,72.18 39.484,71.298C40.163,74.023 40.629,75.893 41.095,77.763C41.695,77.609 42.296,77.455 42.896,77.301C42.561,76.171 42.226,75.042 41.42,73.436M49.914,186.412C49.435,185.339 48.955,184.267 48.024,182.183C46.93,187.139 46.93,187.139 49.914,186.412M50.229,178.387C49.528,179.093 48.827,179.8 48.126,180.506C48.687,180.909 49.248,181.312 49.809,181.715C50.116,180.787 50.423,179.859 50.229,178.387M67.388,31.636C66.922,33.16 66.456,34.685 65.99,36.209C66.603,36.26 67.215,36.311 67.828,36.361C67.828,34.971 67.828,33.581 67.388,31.636M53.129,186.683C53.036,185.561 52.944,184.439 52.851,183.316C52.239,183.499 51.627,183.682 51.016,183.864C51.493,184.848 51.971,185.833 53.129,186.683M97.73,66.269C97.858,65.087 97.987,63.904 98.116,62.722C97.471,62.833 96.826,62.944 96.182,63.055C96.507,64.039 96.832,65.022 97.73,66.269M68.986,157.168C69.367,156.566 69.749,155.964 70.13,155.363C69.172,155.605 68.214,155.847 67.257,156.09C67.651,156.558 68.044,157.026 68.986,157.168M93.186,162.254C93.768,163.052 94.349,163.85 94.93,164.648C94.397,163.586 96.984,160.04 93.186,162.254M98.429,162.713C99.505,162.817 100.581,162.92 101.656,163.024C101.54,162.452 101.424,161.88 101.307,161.308C100.477,161.605 99.647,161.902 98.429,162.713M67.847,161.971C68.76,161.759 69.673,161.548 70.585,161.336C70.374,160.907 70.163,160.479 69.951,160.05C69.041,160.661 68.13,161.272 67.847,161.971M99.661,128.192C99.246,127.528 98.83,126.864 98.415,126.199C98.006,126.603 97.596,127.007 97.187,127.411C97.845,127.833 98.503,128.255 99.661,128.192M60.9,221.754C61.793,221.241 62.686,220.729 63.579,220.216C62.936,219.474 62.294,218.732 61.652,217.989C61.25,219.105 60.849,220.22 60.9,221.754M37.56,211.628C37.827,211.116 38.094,210.604 38.361,210.092C37.827,209.873 37.294,209.653 36.76,209.434C36.852,210.076 36.945,210.718 37.56,211.628M104.983,177.226C105.214,177.891 105.445,178.555 105.676,179.219C106.06,179.082 106.443,178.945 106.826,178.808C106.416,178.252 106.005,177.695 104.983,177.226M73.865,42.108C74.104,41.278 74.343,40.448 74.583,39.618C74.157,39.592 73.732,39.566 73.306,39.539C73.351,40.25 73.397,40.962 73.865,42.108M51.581,174.229C50.887,174.009 50.194,173.788 49.5,173.567C49.398,174.009 49.296,174.451 49.194,174.893C49.877,174.841 50.561,174.789 51.581,174.229M85.731,28.062C85.939,27.58 86.147,27.099 86.354,26.617C85.816,26.714 85.277,26.811 84.739,26.908C84.906,27.373 85.074,27.837 85.731,28.062M61.101,175.36C61.371,175.652 61.642,175.945 61.912,176.238C62.105,175.707 62.299,175.177 62.492,174.646C62.079,174.704 61.666,174.761 61.101,175.36M101.974,208.784C101.859,209.328 101.744,209.872 101.629,210.416C101.917,210.412 102.453,210.431 102.456,210.399C102.51,209.834 102.499,209.263 101.974,208.784M96.076,203.799C95.786,204.185 95.496,204.57 95.206,204.955C95.582,205.132 95.957,205.309 96.333,205.486C96.381,205.053 96.429,204.619 96.076,203.799M85.876,36.69C85.876,35.763 85.876,34.836 85.876,33.908C85.615,33.922 85.354,33.937 85.092,33.951C85.212,34.992 85.331,36.032 85.876,36.69M97.842,208.099C97.364,208.225 96.885,208.351 96.407,208.478C96.593,208.844 96.779,209.21 96.965,209.576C97.275,209.265 97.585,208.953 97.842,208.099M54.391,179.633C53.819,179.848 53.247,180.063 52.676,180.277C52.782,180.506 52.888,180.734 52.994,180.963C53.557,180.652 54.119,180.342 54.391,179.633M99.427,200.69C99.702,200.976 99.977,201.263 100.252,201.549C100.37,201.435 100.597,201.229 100.591,201.221C100.335,200.92 100.058,200.636 99.427,200.69M48.394,202.193C48.714,201.691 49.034,201.189 49.354,200.687C49.078,200.615 48.583,200.439 48.56,200.487C48.365,200.901 48.254,201.354 48.394,202.193M47.579,157.308C47.301,157.018 47.024,156.728 46.746,156.437C46.626,156.552 46.397,156.76 46.403,156.768C46.662,157.073 46.943,157.361 47.579,157.308M82.386,162.209C82.745,162.258 83.104,162.306 83.463,162.355C83.465,162.098 83.468,161.842 83.471,161.585C83.111,161.624 82.75,161.664 82.386,162.209M101.38,203.324C101.119,203.402 100.858,203.481 100.596,203.559C100.879,203.849 101.162,204.138 101.444,204.427C101.528,204.167 101.611,203.908 101.38,203.324M82.373,107.348C82.121,107.423 81.869,107.497 81.618,107.571C81.89,107.85 82.163,108.129 82.436,108.408C82.517,108.158 82.598,107.909 82.373,107.348M101.182,140.02C101.275,140.422 101.368,140.825 101.461,141.227C101.579,141.138 101.806,141.033 101.796,140.961C101.741,140.552 101.63,140.152 101.182,140.02M96.749,132.407C96.555,132.131 96.361,131.855 96.168,131.579C95.967,131.777 95.766,131.974 95.565,132.171C95.838,132.37 96.11,132.569 96.749,132.407M107.602,78.411C107.96,78.32 108.318,78.229 108.676,78.137C108.353,78.09 108.03,78.042 107.602,78.411M68.735,143.472C69.136,143.6 69.533,143.75 69.942,143.839C70.026,143.857 70.16,143.644 70.27,143.538C69.87,143.411 69.47,143.283 68.735,143.472M92.327,95.355C92.576,95.473 92.824,95.592 93.072,95.71C93.145,95.472 93.218,95.234 93.291,94.996C92.949,94.971 92.607,94.946 92.327,95.355M83.465,156.623C83.182,156.886 82.899,157.148 82.616,157.41C82.717,157.511 82.896,157.707 82.907,157.698C83.193,157.464 83.461,157.209 83.465,156.623M116.743,201.187C116.626,201.027 116.508,200.866 116.391,200.705C116.415,200.929 116.439,201.153 116.743,201.187M100.244,196.174C100.411,196.119 100.578,196.064 100.745,196.009C100.577,195.955 100.409,195.901 100.244,196.174M50.248,102.173C50.413,102.118 50.578,102.064 50.744,102.009C50.577,101.956 50.411,101.903 50.248,102.173M49.266,195.818C49.379,195.973 49.492,196.129 49.605,196.284C49.582,196.068 49.559,195.852 49.266,195.818M104.926,102.988C105.139,103.094 105.352,103.2 105.565,103.307C105.662,103.009 105.759,102.712 105.857,102.415C105.482,102.381 105.107,102.347 104.926,102.988M51.264,193.817C51.377,193.973 51.491,194.13 51.604,194.286C51.581,194.069 51.559,193.851 51.264,193.817M96.188,169.254C96.027,169.371 95.867,169.489 95.706,169.606C95.93,169.582 96.153,169.558 96.188,169.254M78.829,156.249C78.883,156.412 78.937,156.576 78.991,156.739C79.044,156.575 79.097,156.41 78.829,156.249M89.524,216.636C89.47,216.844 89.416,217.051 89.363,217.259C89.494,217.125 89.626,216.992 89.524,216.636M100.527,206.624C100.472,206.836 100.418,207.048 100.363,207.26C100.498,207.124 100.632,206.987 100.527,206.624M52.475,190.37C52.529,190.159 52.584,189.948 52.638,189.737C52.505,189.873 52.371,190.009 52.475,190.37M56.593,222.518C56.593,222.518 56.478,222.588 56.593,222.518M73.517,224.413C73.517,224.413 73.581,224.522 73.517,224.413M106.597,110.519C106.597,110.519 106.477,110.592 106.597,110.519M76.516,156.417C76.516,156.417 76.577,156.522 76.516,156.417M97.583,165.515C97.583,165.515 97.477,165.577 97.583,165.515M93.52,167.405C93.52,167.405 93.593,167.524 93.52,167.405z"/><path fill="#eaeaea" d="M19.9,210.036C20.978,208.422 22.057,206.807 23.144,204.65C23.201,204.033 23.326,203.98 23.528,203.936C25.1,204.202 26.663,204.576 28.247,204.735C31.273,205.041 34.311,205.224 37.378,206.464C32.097,206.215 29.5,213.624 23.177,210.737C21.689,210.316 20.794,210.176 19.9,210.036z"/><path fill="#dedfe0" d="M111.515,46.729C112.568,45.13 113.647,43.556 114.54,42.253C116.21,50.256 107.524,60.906 99.309,59.252C100.341,58.121 101.11,57.279 101.796,55.961C101.713,55.485 101.834,55.462 102.231,55.666C105.573,52.883 108.518,49.897 111.464,46.911C111.464,46.911 111.541,46.753 111.515,46.729z"/><path fill="#0a0a0a" d="M111.221,46.474C108.518,49.897 105.573,52.883 102.271,55.659C101.59,54.963 100.942,54.086 100.987,54.049C104.282,51.336 107.633,48.689 111.221,46.474z"/><path fill="#0e0e0e" d="M125.652,192.086C126.171,196.002 124.024,196.075 120.76,194.872C121.325,192.969 122.292,191.138 123.236,189.35C123.99,190.367 124.637,191.24 125.652,192.086z"/><path fill="#0e0e0e" d="M40.197,194.262C39.742,195.447 39.31,196.266 38.698,197.424C37.719,195.947 36.915,194.735 36.083,193.189C36.654,191.919 37.253,190.984 38.447,189.118C39.216,191.189 39.718,192.543 40.197,194.262z"/><path fill="#0e0e0e" d="M132.568,197.04C131.329,196.903 130.511,196.466 129.45,196.027C133.076,194.363 133.076,194.363 132.568,197.04z"/><path fill="#0e0e0e" d="M45.997,119.006C45.954,118.592 45.911,118.177 45.769,117.145C45.671,116.527 45.744,116.502 45.759,116.468C46.058,117.259 46.342,118.085 46.313,118.956C46,119 45.997,119.006 45.997,119.006z"/><path fill="#0e0e0e" d="M147.341,212.953C147,212.471 147.003,212.044 147.006,211.298C147.613,211.326 148.218,211.675 148.823,212.023C148.443,212.352 148.063,212.68 147.341,212.953z"/><path fill="#0e0e0e" d="M41.551,64.44C41.549,64.597 41.404,64.999 41.151,65.26C41.165,64.975 41.286,64.83 41.551,64.44z"/><path fill="#0e0e0e" d="M41.015,48.79C41.026,49.472 40.983,49.964 40.597,51.115C40.173,51.61 40.094,51.446 40.015,51.282C40.055,50.595 40.095,49.909 40.225,48.713C40.613,48.198 40.83,48.329 41.015,48.79z"/><path fill="#0e0e0e" d="M35.201,33.677C34.978,33.99 34.761,33.987 34.218,33.972C34.331,33.76 34.769,33.561 35.201,33.677z"/><path fill="#0e0e0e" d="M113.532,110.19C113.751,110.588 113.81,110.975 113.766,112.112C113.663,112.864 113.21,112.852 113.21,112.852C113.18,112.435 113.151,112.018 113.107,110.973C113.093,110.346 113.37,110.178 113.532,110.19z"/><path fill="#e5e6e6" d="M110.115,73.881C110.128,74.14 110.155,74.429 110.586,74.864C110.989,75.011 110.979,75.03 110.979,75.03C110.892,74.688 110.804,74.345 110.43,73.942C110.142,73.881 110.13,73.911 110.115,73.881z"/><path fill="#0e0e0e" d="M134.254,183.274C134.635,183.23 134.765,183.425 134.895,183.62C134.598,183.584 134.301,183.549 134.254,183.274z"/><path fill="#0e0e0e" d="M30.477,185.541C30.649,185.056 30.821,184.571 30.942,184.604C30.753,185.262 30.615,185.401 30.477,185.541z"/><path fill="#0a0a0a" d="M31.091,184.906C31.545,185.145 31.798,185.6 32.052,186.054C31.639,186.139 31.226,186.223 30.645,185.924C30.615,185.401 30.753,185.262 31.091,184.906z"/><path fill="#0e0e0e" d="M43.209,50.582C42.987,50.67 42.613,50.476 42.083,49.995C42.303,49.906 42.68,50.103 43.209,50.582z"/><path fill="#f3f3f3" d="M73.007,57.002C74.382,55.672 75.775,54.359 77.13,53.009C81.021,49.133 83.603,49.018 89.819,53.09C89.746,56.485 91.82,57.274 93.82,58.437C93.854,59.14 93.874,59.542 93.706,60.228C93.677,60.675 93.836,60.838 93.996,61C94.098,62.769 94.2,64.537 94.316,66.561C89.282,66.635 89.382,69.219 90.755,72.73C91.286,74.087 91.063,75.738 90.821,77.471C90.272,77.39 90.085,77.091 89.818,76.469C85.13,68.653 79.591,71.412 73.769,74.815C74.232,75.5 74.663,76.136 74.965,77.089C74.17,78.294 73.503,79.182 72.501,80.002C71.404,80.287 70.643,80.64 69.662,80.749C69.557,79.196 69.672,77.885 69.838,76.211C67.768,72.892 65.679,69.871 61.262,71.774C59.478,72.543 57.689,73.301 55.903,74.063C56.584,72.049 57.266,70.034 57.895,67.582C57.842,67.144 57.901,67.153 58.004,66.896C58.024,66.101 57.942,65.563 57.859,64.692C57.507,63.571 57.157,62.784 56.807,61.996C58.478,54.327 64.169,50.066 73.585,49.214C73.119,51.536 72.638,53.935 72.18,56.913C72.471,57.33 72.739,57.166 73.007,57.002z"/><path fill="#eeeeef" d="M79.333,120.13C79.439,123.138 79.186,126.226 79.83,129.114C80.084,130.253 82.337,130.947 83.74,131.884C79.715,130.849 78.665,140.269 72.01,135.096C70.886,135.731 70.455,136.364 70.024,136.997C69.835,137.083 69.646,137.168 69.225,137.832C68.36,139.607 67.726,140.805 67.092,142.002C67.009,142.15 66.926,142.299 66.58,142.701C66.317,142.956 65.86,143.079 65.564,143.154C64.869,143.885 64.47,144.541 64.071,145.197C63.452,144.799 62.833,144.402 62.539,143.532C62.708,142.675 62.552,142.292 62.396,141.909C61.932,141.711 61.469,141.514 60.437,141.145C58.395,140.602 56.921,140.232 55.447,139.862C55.431,138.931 55.416,138 55.499,136.376C58.709,135.781 61.821,135.878 65.304,135.976C66.619,135.771 67.564,135.566 68.508,135.36C68.492,135.06 68.475,134.76 68.459,134.46C67.31,134.307 66.161,134.153 64.778,133.732C63.037,131.667 61.53,129.87 59.986,127.679C59.906,127.025 59.862,126.764 59.818,126.504C60.261,125.015 60.704,123.527 61.253,121.687C57.548,121.488 54.152,121.307 50.13,121.127C49.332,121.088 49.16,121.046 48.987,121.005C49.732,118.342 50.359,115.639 51.246,113.024C53.017,107.805 56.883,104.781 61.944,102.956C64.818,109.057 71.474,107.44 76.397,110.468C77.661,110.806 78.357,110.973 79.052,111.139C79.823,111.054 80.593,110.969 81.886,111.191C82.527,111.661 82.644,111.823 82.6,112.277C81.604,114.036 80.769,115.504 79.935,116.971C79.522,117.919 79.109,118.868 79.051,119.963C79.406,120.11 79.333,120.13 79.333,120.13M75.988,123.833C72.205,119.484 68.176,121.36 64.186,123.348C64.454,124.583 64.757,125.805 64.979,127.041C65.518,130.05 70.601,133.121 73.737,131.949C77.289,130.621 78.174,127.913 75.988,123.833z"/><path fill="#eaeaea" d="M69.786,76.575C69.672,77.885 69.557,79.196 69.644,81.12C69.238,84.284 68.631,86.835 67.708,90.714C70.207,89.463 71.114,88.661 72.045,88.631C73.237,88.593 74.448,89.179 75.651,89.496C75.639,88.076 75.963,86.543 75.535,85.262C74.925,83.435 73.763,81.792 72.837,80.071C73.503,79.182 74.17,78.294 75.308,77.245C76.772,80.357 78.051,83.368 81.849,84.171C80.836,85.565 80.017,86.666 79.198,87.767C80.149,88.183 81.101,88.599 82.052,89.016C81.444,90.441 80.836,91.866 80.124,93.853C79.98,94.584 79.941,94.752 79.902,94.921C79.902,94.921 79.988,94.967 79.592,95.004C78.105,95.349 77.013,95.657 75.922,95.966C75.532,96.958 75.143,97.949 74.258,98.548C73.764,97.133 73.764,96.111 73.764,94.799C72.348,95.027 71.167,95.216 69.987,95.406C69.849,95.263 69.711,95.121 69.02,95.015C68.409,95.361 68.35,95.67 68.291,95.979C68.087,96.965 67.884,97.951 67.574,99.451C66.83,97.496 66.312,96.133 65.217,94.726C64.641,94.682 64.281,94.862 64.281,94.862C64.085,93.117 63.89,91.372 63.67,89.413C62.436,88.974 61.111,88.504 59.209,87.739C57.764,87.272 56.896,87.097 56.028,86.923C55.687,85.18 55.129,83.444 55.072,81.692C55.026,80.318 55.599,78.923 56.3,77.273C57.45,79.538 56.163,83.906 60.436,83.536C63.646,83.259 68.902,83.78 68.282,77.572C68.254,77.292 69.261,76.91 69.786,76.575z"/><path fill="#e7e7e7" d="M41.745,212.723C44.992,211.059 48.321,207.933 50.791,208.507C54.915,209.464 58.519,212.742 62.262,215.166C62.798,215.512 62.89,216.542 63.318,217.569C58.841,215.355 53.393,217.93 49.71,223.615C49.019,218.984 43.431,219.052 35.666,219.899C37.591,217.573 39.517,215.248 41.745,212.723z"/><path fill="#e5e6e6" d="M67.961,168.765C72.216,169.469 76.453,170.372 80.737,170.785C82.672,170.972 84.714,169.851 86.686,169.923C88.829,170.001 90.947,170.776 93.07,171.946C93.041,173.092 93.019,173.54 92.997,173.988C90.572,171.653 89.035,173.995 86.975,175.209C86.692,175.341 86.489,175.354 86.264,175.259C85.758,175.276 85.477,175.387 85.195,175.498C85.423,175.704 85.65,175.91 85.915,176.464C86.486,178.611 87.018,180.411 87.55,182.21C87.55,182.21 87.363,182.315 87.056,182.488C86.477,183.052 86.206,183.443 85.935,183.833C84.74,182.53 83.607,181.164 82.336,179.942C80.876,178.538 79.488,176.545 77.729,176.071C73.364,174.895 70.237,172.795 68.524,168.452C68.028,168.597 67.961,168.765 67.961,168.765z"/><path fill="#e1e1e1" d="M102.001,157.968C96.542,156.461 90.064,157.234 85.861,150.724C91.941,151.246 97.182,151.921 102.438,152.053C105.059,152.119 107.69,151.005 110.346,150.792C111.656,150.687 113.032,151.416 115.487,152.056C112.476,153.869 110.67,154.957 108.863,156.044C106.699,158.924 114.338,157.929 110.083,161.043C109.394,161.415 109.313,161.7 109.231,161.985C107.726,161.004 106.22,160.022 104.24,158.728C103.178,158.266 102.589,158.117 102.001,157.968z"/><path fill="#080808" d="M69.838,76.211C69.261,76.91 68.254,77.292 68.282,77.572C68.902,83.78 63.646,83.259 60.436,83.536C56.163,83.906 57.45,79.538 56.317,76.864C55.953,76.339 55.977,75.958 56.033,75.029C56.069,74.307 56.072,74.131 56.076,73.956C56.076,73.956 55.978,73.992 55.941,74.028C57.689,73.301 59.478,72.543 61.262,71.774C65.679,69.871 67.768,72.892 69.838,76.211z"/><path fill="#e0e1e1" d="M99.273,108.751C99.273,108.751 99.115,108.666 98.76,108.598C98.272,108.68 98.14,108.83 97.692,108.897C96.947,108.863 96.517,108.912 95.926,108.629C94.393,103.945 90.239,104.599 87.077,103.468C84.86,100.923 86.746,99.741 88.8,99.946C93.063,100.371 97.259,102.21 101.114,98.41C101.591,97.94 104.04,99.471 105.676,100.115C103.946,103.111 97.087,100.879 100.139,107.267C99.829,107.991 99.551,108.371 99.273,108.751z"/><path fill="#e7e7e7" d="M47.099,150.821C44.615,151.817 42.131,152.813 39.648,153.81C39.325,153.455 39.001,153.1 38.678,152.746C39.836,151.721 40.994,150.696 42.615,149.261C41.375,148.303 40.101,147.319 38.826,146.335C38.768,145.849 38.709,145.363 38.651,144.878C40.216,144.746 41.859,144.251 43.331,144.564C45.946,145.118 48.408,146.578 51.025,146.889C53.857,147.225 55.739,147.963 55.522,151.515C53.393,151.98 51.69,151.992 49.967,151.72C49.633,151.306 49.32,151.176 48.778,150.934C48.067,150.822 47.583,150.821 47.099,150.821z"/><path fill="#e5e6e6" d="M110.997,75.008C112.236,75.463 113.468,75.922 115.101,76.531C112.952,80.398 114.946,82.453 120.194,82.797C118.42,83.883 117.876,84.43 117.653,84.321C110.634,80.884 106.443,86.784 100.773,89.541C100.26,89.242 100.196,88.647 100.494,87.889C100.243,87.525 99.63,87.323 98.759,87.094C98.333,87.104 98.165,87.143 97.996,87.181C99.455,86.116 100.777,84.723 102.398,84.051C106.514,82.346 110.537,80.714 111.243,75.346C110.979,75.03 110.989,75.011 110.997,75.008z"/><path fill="#ebebeb" d="M77.347,216.229C76.755,215.913 76.163,215.597 75.4,214.735C74.161,213.79 73.093,213.39 72.025,212.99C74.206,210.775 76.388,208.56 79.045,206.06C79.695,205.759 79.87,205.743 80.045,205.726C82.073,206.941 84.102,208.155 86.136,209.883C86.083,210.561 86.022,210.725 85.962,210.889C84.496,212.238 82.996,213.552 81.575,214.948C80.754,215.755 80.06,216.693 79.09,216.997C78.363,216.358 77.855,216.293 77.347,216.229z"/><path fill="#e9e9e9" d="M51.605,96.813C47.255,96.407 42.906,96 39.129,95.647C39.563,95.406 41.044,94.584 43.354,93.302C41.615,92.044 40.336,91.119 37.848,89.319C39.812,88.661 41.421,87.506 42.57,87.856C45.731,88.82 48.723,90.364 51.735,91.779C53.631,92.67 55.442,93.742 57.635,95.292C56.094,95.992 54.208,96.132 52.323,96.272C52.122,96.277 51.922,96.282 51.645,96.573C51.568,96.859 51.605,96.813 51.605,96.813z"/><path fill="#e3e3e4" d="M78.163,203.026C76.34,203.428 76.296,203.427 76.325,201.683C76.429,195.392 76.566,189.102 77.046,182.353C77.779,182.211 78.156,182.526 78.534,182.841C78.939,186.308 79.344,189.774 79.749,193.241C80.264,193.243 80.779,193.245 81.294,193.246C81.636,191.16 81.979,189.074 82.321,186.988C82.847,186.989 83.372,186.99 83.897,186.992C83.897,190.68 83.897,194.369 83.535,198.529C82.446,199.294 81.718,199.588 80.99,199.881C80.667,200.371 80.345,200.861 79.725,201.793C79.005,202.499 78.584,202.762 78.163,203.026M80.19,195.932C80.44,196.54 80.689,197.149 80.938,197.758C81.258,197.482 81.888,197.024 81.849,196.958C81.534,196.418 81.093,195.951 80.19,195.932z"/><path fill="#e5e6e5" d="M82.391,88.856C81.101,88.599 80.149,88.183 79.198,87.767C80.017,86.666 80.836,85.565 82.238,84.197C88.232,84.576 88.605,80.229 89.898,76.793C90.085,77.091 90.272,77.39 90.68,77.834C91.808,80.296 92.714,82.613 92.996,85.133C91.978,86.226 91.586,87.115 91.194,88.003C90.007,88.285 88.831,88.728 87.63,88.809C86.006,88.918 84.364,88.748 82.391,88.856z"/><path fill="#c3c3c3" d="M71.054,31.691C70.864,30.011 70.674,28.332 70.362,25.944C70.091,24.489 69.943,23.742 69.794,22.995C69.536,19.38 69.278,15.764 69.11,11.724C69.2,11.3 69.236,11.293 69.487,11.245C69.899,11.144 70.06,11.09 70.546,11.007C71.304,11.016 71.736,11.055 72.169,11.093C72.827,17.068 73.486,23.043 73.718,29.222C72.546,30.181 71.8,30.936 71.054,31.691z"/><path fill="#e3e3e4" d="M120.352,212.056C119.707,212.558 119.062,213.061 117.817,213.835C116.468,214.308 115.719,214.51 114.969,214.711C113.01,214.618 111.05,214.525 108.004,214.38C108.53,212.99 108.685,210.965 109.767,210.102C111.334,208.85 113.684,207.632 115.495,207.883C117.518,208.164 119.311,210.101 121.171,211.499C120.816,211.68 120.554,211.805 120.352,212.056z"/><path fill="#e9e9e9" d="M39.701,51.14C40.094,51.446 40.173,51.61 40.515,51.851C43.262,53.569 45.747,55.21 48.585,57.29C48.928,58.412 48.919,59.096 48.911,59.779C47.517,59.557 46.123,59.335 44.197,58.837C43.108,58.437 42.552,58.312 41.996,58.187C36.361,55.998 35.535,50.302 33.345,45.432C34.117,45.031 34.546,45.049 34.975,45.067C36.446,47.044 37.917,49.02 39.701,51.14z"/><path fill="#2d2d2e" d="M62.508,200.085C62.109,201.206 61.709,202.328 61.134,202.958C60.264,202.395 59.568,202.324 58.873,202.253C59.15,200.311 59.428,198.369 60.251,196.255C61.044,196.207 61.282,196.37 61.545,196.439C61.657,196.468 61.92,196.323 61.945,196.217C62.742,192.831 63.517,189.44 64.481,186.065C64.666,186.08 65.037,186.107 65.061,186.397C65.463,187.068 65.841,187.45 66.219,187.832C66.648,188.759 67.077,189.687 67.002,190.819C66.23,191.181 65.963,191.338 65.695,191.495C66.13,191.663 66.565,191.831 67,191.999C67,191.999 67.037,192.497 67.026,192.991C67.015,193.485 66.971,193.977 66.971,193.977C66.298,194.849 65.625,195.721 64.323,196.824C63.299,198.065 62.904,199.075 62.508,200.085z"/><path fill="#0e0e0e" d="M82.999,149.001C80.431,150.619 77.909,152.319 75.265,153.803C74.532,154.215 73.439,153.987 72.327,152.966C73.455,152.164 74.583,151.361 76.216,150.224C79.799,146.966 77.235,146.014 74.995,144.949C76.947,143.9 78.898,142.851 81.19,141.619C81.936,144.362 82.469,146.322 83.001,148.641C83,149 82.999,149.001 82.999,149.001M79.741,147.832C79.581,147.885 79.421,147.938 79.261,147.991C79.422,148.043 79.583,148.096 79.741,147.832z"/><path fill="#e3e3e4" d="M45.997,119.002C44.41,121.759 42.826,124.514 40.784,127.674C39.899,128.443 39.471,128.806 39.042,129.17C38.682,128.731 37.925,128.16 38.02,127.873C39.612,123.082 39.635,123.09 34.894,120.944C36.557,120.412 38.189,119.714 39.891,119.392C41.632,119.062 43.442,119.099 45.609,118.991C45.997,119.006 46,119 45.997,119.002z"/><path fill="#dadbdb" d="M50.347,76.501C46.998,73.821 43.919,71.386 40.389,68.595C43.466,66.679 45.323,65.241 47.008,68.974C47.694,70.495 49.597,71.468 51.598,73.281C51.771,74.082 52.164,75.892 52.681,78.274C51.651,77.512 51.133,77.13 50.347,76.501z"/><path fill="#191919" d="M64.933,135.975C61.821,135.878 58.709,135.781 55.289,136.157C54.982,136.631 54.96,136.616 55.609,136.601C56.171,135.863 56.084,135.139 56.016,134.457C56.034,134.499 56.016,134.588 56.374,134.845C57.292,133.99 57.851,132.878 58.617,131.491C59.223,130.169 59.623,129.121 60.022,128.073C61.53,129.87 63.037,131.667 64.751,134.06C64.949,135.096 64.941,135.535 64.933,135.975z"/><path fill="#e0e1e1" d="M112.869,112.949C113.21,112.852 113.663,112.864 113.816,112.696C115.738,112.529 117.507,112.529 119.882,112.529C117.669,115.098 116.326,116.658 115.014,118.915C115.019,120.039 114.993,120.467 114.718,120.969C114.312,121.113 114.153,121.183 113.995,121.252C111.746,118.33 109.496,115.408 106.596,111.641C109.039,112.22 110.783,112.633 112.869,112.949z"/><path fill="#fafafa" d="M98.018,190.945C99.184,193.5 99.533,195.666 94.605,195.884C95.242,188.895 95.865,182.045 96.489,175.195C96.917,175.177 97.346,175.159 97.775,175.141C97.943,179.811 98.112,184.481 97.875,189.621C97.652,190.376 97.835,190.66 98.018,190.945z"/><path fill="#e5e6e5" d="M128.999,208.027C126.812,206.783 124.625,205.538 122.449,204.3C126.968,198.988 131.015,203.442 136.035,205.842C134.071,206.491 132.759,206.924 130.888,207.672C129.886,208 129.443,208.014 128.999,208.027z"/><path fill="#e5e6e5" d="M100.744,221.995C99.135,221.486 97.909,221.072 96.659,220.65C100.205,215.5 101.643,215.395 110.114,220.523C106.36,221.177 103.743,221.633 100.744,221.995z"/><path fill="#e7e7e7" d="M68.019,168.288C67.961,168.765 68.028,168.597 68.021,168.549C66.938,169.946 65.862,171.391 64.786,172.836C63.82,171.286 62.86,169.732 61.882,168.191C61.634,167.8 61.323,167.449 60.504,167.168C59.967,167.257 59.963,167.21 59.963,167.21C61.362,166.452 62.761,165.693 65.066,164.444C65.773,165.234 66.925,166.523 68.019,168.288z"/><path fill="#0e0e0e" d="M113.362,189.436C111.772,187.996 110.416,186.301 108.814,184.3C108.739,185.446 108.651,186.787 108.563,188.128C108.271,188.304 107.979,188.48 107.686,188.655C106.697,186.933 105.707,185.21 104.738,183.524C106.837,182.028 108.446,180.882 110.448,179.455C111.467,182.603 112.531,185.892 113.362,189.436z"/><path fill="#cccccc" d="M93.972,139.116C91.627,140.18 89.282,141.244 86.56,142.479C86.005,141.779 85.068,140.598 84.271,139.594C87.302,137.709 90.188,135.913 93.075,134.122C93.818,134.823 94.561,135.518 95.675,136.562C96.036,137.209 96.025,137.509 95.718,137.857C95.244,138.236 95.063,138.566 94.881,138.896C94.881,138.896 94.958,138.857 94.683,138.894C94.409,138.93 93.972,139.116 93.972,139.116z"/><path fill="#d6d7d7" d="M96.012,137.808C96.025,137.509 96.036,137.209 96.031,136.684C98.47,135.274 100.924,134.088 103.425,132.88C102.891,131.937 102.524,131.291 102.402,130.751C103.062,131.047 103.479,131.238 103.896,131.429C105.481,133.214 107.067,134.999 107.998,136.952C106.891,137.123 106.439,137.127 105.986,137.13C103.273,137.46 100.56,137.789 97.166,138.092C96.327,137.979 96.169,137.894 96.012,137.808z"/><path fill="#0e0e0e" d="M52.962,165.011C50.719,165.231 48.477,165.45 46.234,165.67C46.101,165.133 45.968,164.597 45.834,164.06C48.594,163.105 52.163,162.934 51.37,158.636C51.304,158.274 53.305,157.045 53.485,157.202C54.746,158.306 55.782,159.669 56.599,161.395C55.582,161.908 54.856,161.974 53.876,162.161C53.395,162.782 53.168,163.281 52.856,164.09C52.834,164.603 52.898,164.807 52.962,165.011z"/><path fill="#e0e1e1" d="M64.296,186.05C63.517,189.44 62.742,192.831 61.945,196.217C61.92,196.323 61.657,196.468 61.545,196.439C61.282,196.37 61.044,196.207 60.456,195.946C60.422,190.37 60.728,184.931 61.075,178.768C62.039,180.289 62.527,181.057 63.285,182.446C63.777,183.702 63.999,184.338 64.197,185.246C64.214,185.695 64.255,185.872 64.296,186.05z"/><path fill="#e3e3e4" d="M81.997,20.191C81.658,18.484 81.319,16.778 80.86,14.474C80.177,14.145 78.696,13.433 77.488,12.371C78.509,11.233 79.258,10.443 80.006,9.653C82.256,11.411 84.506,13.169 86,15.021C84.162,16.807 83.08,18.499 81.997,20.191z"/><path fill="#0e0e0e" d="M45.831,198.279C44.39,200.825 43.137,203.107 41.884,205.39C41.696,205.281 41.508,205.171 41.32,205.062C43.065,199.91 44.81,194.757 46.557,189.596C49.393,192.155 49.344,192.896 45.831,198.279z"/><path fill="#d6d7d7" d="M54.129,162.04C54.856,161.974 55.582,161.908 56.657,161.732C58.885,162.615 62.194,162.656 60.039,166.749C59.963,167.21 59.967,167.257 59.967,167.208C56.385,171.152 55.866,165.535 53.32,165.083C52.898,164.807 52.834,164.603 53.181,164.117C53.771,163.237 53.95,162.639 54.129,162.04z"/><path fill="#eeeeef" d="M58.411,131.766C57.851,132.878 57.292,133.99 56.115,134.637C54.692,134.28 53.887,134.387 53.082,134.494C49.517,134.947 48.596,132.95 49.163,129.374C49.68,128.826 49.854,128.795 50.028,128.765C52.401,129.186 54.774,129.607 57.647,130.463C58.234,131.187 58.323,131.477 58.411,131.766z"/><path fill="#dadbdb" d="M72.411,11.08C71.736,11.055 71.304,11.016 70.464,10.717C69.724,10.251 69.391,10.046 68.967,9.619C68.452,9.18 68.027,8.965 67.602,8.75C67.189,8.304 66.776,7.857 65.422,6.392C69.012,6.93 71.537,7.308 74.331,8.091C74.607,8.927 74.612,9.358 74.618,9.789C73.963,10.215 73.308,10.641 72.411,11.08z"/><path fill="#0e0e0e" d="M80.428,221.352C80.733,222.716 80.7,223.91 80.667,225.103C78.665,224.453 76.662,223.803 74.659,223.153C74.761,222.651 74.863,222.148 74.965,221.646C76.674,221.491 78.382,221.336 80.428,221.352z"/><path fill="#1b1a1b" d="M98.007,108.979C98.14,108.83 98.272,108.68 98.682,108.643C98.96,110.679 98.96,112.603 98.96,114.527C98.487,114.821 98.013,115.115 97.54,115.409C96.057,113.85 94.573,112.291 93.396,110.358C94.156,109.948 94.61,109.912 95.392,109.901C96.483,109.61 97.245,109.294 98.007,108.979z"/><path fill="#0e0e0e" d="M116.003,196.655C115.668,197.513 115.341,197.998 115.015,198.484C112.675,196.465 111.939,194.161 113.018,191.533C113.527,191.408 114.035,191.284 114.544,191.159C115.033,192.867 115.522,194.575 116.003,196.655z"/><path fill="#0e0e0e" d="M52.259,96.669C54.208,96.132 56.094,95.992 57.953,95.439C59.118,95.268 60.31,95.51 61.501,95.751C58.474,98.467 55.587,100.876 52.259,96.669z"/><path fill="#171717" d="M102.146,119.029C107.175,118.455 105.882,122.024 105.951,125.123C104.464,124.02 103.184,123.071 101.436,121.72C101.362,120.555 101.754,119.792 102.146,119.029z"/><path fill="#0e0e0e" d="M95.063,109.877C94.61,109.912 94.156,109.948 93.362,110.007C91.863,108.687 90.762,107.286 89.521,106.022C88.836,105.324 87.917,104.856 87.091,103.876C90.239,104.599 94.393,103.945 95.71,108.727C95.372,109.326 95.175,109.566 95.063,109.877z"/><path fill="#0e0e0e" d="M79.627,164.883C79.041,163.309 78.542,162.061 78.042,160.813C78.445,160.612 78.847,160.411 79.25,160.21C80.647,162.233 82.044,164.255 83.44,166.277C83.261,166.639 83.082,167.001 82.903,167.362C81.84,166.644 80.777,165.927 79.627,164.883z"/><path fill="#ebebeb" d="M101.967,118.651C101.754,119.792 101.362,120.555 101.113,121.666C100.771,122.674 100.285,123.334 99.416,123.636C98.947,122.858 98.862,122.438 98.708,121.747C98.149,121.237 97.658,120.996 97.083,120.498C96.697,120.065 96.395,119.891 96.108,119.426C96.077,118.756 96.033,118.375 95.988,117.994C97.921,118.088 99.854,118.181 101.967,118.651z"/><path fill="#0e0e0e" d="M47.125,151.274C47.583,150.821 48.067,150.822 48.888,151.143C49.425,151.72 49.679,151.9 49.987,152.004C51.69,151.992 53.393,151.98 55.517,151.904C53.506,154.969 50.183,154.927 47.125,151.274z"/><path fill="#0e0e0e" d="M74.769,10.214C74.612,9.358 74.607,8.927 74.561,8.283C76.274,8.357 78.027,8.642 79.893,9.291C79.258,10.443 78.509,11.233 77.427,12.028C76.369,11.569 75.644,11.104 74.769,10.214z"/><path fill="#0e0e0e" d="M71.713,213.139C73.093,213.39 74.161,213.79 75.238,214.586C73.458,215.93 71.669,216.877 69.88,217.823C69.563,217.572 69.246,217.321 68.929,217.069C69.753,215.809 70.578,214.548 71.713,213.139z"/><path fill="#0e0e0e" d="M48.933,60.143C48.919,59.096 48.928,58.412 48.911,57.386C50.138,57.564 51.78,57.79 52.49,58.724C52.878,59.233 51.686,60.943 51.206,62.112C50.456,61.577 49.705,61.042 48.933,60.143z"/><path fill="#0e0e0e" d="M69.982,95.773C71.167,95.216 72.348,95.027 73.764,94.799C73.764,96.111 73.764,97.133 73.897,98.573C71.242,100.082 69.45,99.759 69.982,95.773z"/><path fill="#0e0e0e" d="M82.06,20.486C83.08,18.499 84.162,16.807 85.625,15.177C85.955,17.958 86.569,21.143 82.06,20.486z"/><path fill="#0e0e0e" d="M103.466,68.847C104.626,69.541 105.482,70.389 106.338,71.238C105.465,71.744 104.593,72.251 103.72,72.758C103.534,71.506 103.348,70.254 103.466,68.847z"/><path fill="#e5e6e6" d="M55.287,140.169C56.921,140.232 58.395,140.602 60.178,141.093C60.339,142.308 60.192,143.403 59.809,146.241C57.756,143.713 56.442,142.094 55.287,140.169z"/><path fill="#373737" d="M74.747,145.14C77.235,146.014 79.799,146.966 76.367,149.925C75.224,149.669 74.436,149.377 73.296,148.786C72.956,148.299 72.969,148.11 72.982,147.921C73.487,147.058 73.993,146.194 74.747,145.14z"/><path fill="#0e0e0e" d="M87.961,117.051C86.551,114.727 85.141,112.404 83.732,110.08C84.376,109.774 85.021,109.468 85.665,109.162C86.456,111.5 87.247,113.838 88.023,116.587C88.009,116.998 87.961,117.051 87.961,117.051z"/><path fill="#0e0e0e" d="M100.133,88.051C100.196,88.647 100.26,89.242 100.637,89.856C100.749,90.87 100.547,91.865 100.346,92.86C99.377,92 98.226,91.264 97.524,90.224C97.211,89.761 97.805,88.686 97.991,87.535C98.165,87.143 98.333,87.104 98.894,87.303C99.521,87.79 99.803,87.96 100.133,88.051z"/><path fill="#0e0e0e" d="M67.684,16.583C67.163,17.788 66.777,18.654 66.391,19.519C65.972,19.455 65.554,19.391 65.135,19.327C65.313,17.347 65.492,15.366 65.67,13.385C66.215,13.38 66.76,13.374 67.305,13.369C67.476,14.327 67.648,15.285 67.684,16.583z"/><path fill="#0e0e0e" d="M97.02,144.15C97.692,145.872 98.365,147.594 99.038,149.316C98.298,149.52 97.558,149.723 96.818,149.926C96.541,148.238 96.263,146.55 96.247,144.465C96.678,144.096 96.849,144.123 97.02,144.15z"/><path fill="#0e0e0e" d="M86.489,175.354C86.489,175.354 86.692,175.341 86.712,175.338C87.817,177.397 88.925,179.448 89.899,181.56C89.939,181.647 88.724,182.314 87.822,182.461C87.018,180.411 86.486,178.611 86.081,176.283C86.209,175.755 86.489,175.354 86.489,175.354z"/><path fill="#0e0e0e" d="M58.664,202.494C59.568,202.324 60.264,202.395 60.972,202.738C59.824,204.695 58.663,206.381 57.502,208.068C57.054,207.851 56.607,207.635 56.159,207.419C56.924,205.857 57.69,204.295 58.664,202.494z"/><path fill="#0e0e0e" d="M66.58,202.845C66.539,205.171 66.221,207.361 65.903,209.551C65.222,209.374 64.542,209.197 63.861,209.02C64.675,206.917 65.489,204.814 66.58,202.845z"/><path fill="#0e0e0e" d="M62.446,152.997C61.887,152.36 61.719,151.734 61.551,151.108C63.885,151.33 66.218,151.551 68.552,151.772C68.535,152.184 68.518,152.596 68.501,153.008C66.613,153.008 64.725,153.008 62.446,152.997z"/><path fill="#0e0e0e" d="M93.805,58.136C91.82,57.274 89.746,56.485 90.077,53.344C91.707,54.396 93.313,55.794 94.661,57.58C94.203,58.024 94.004,58.08 93.805,58.136z"/><path fill="#141414" d="M80.247,117.108C80.769,115.504 81.604,114.036 82.608,112.259C82.777,111.948 82.806,111.921 82.806,111.921C82.967,113.785 83.127,115.648 83.321,117.897C82.239,117.641 81.399,117.442 80.247,117.108z"/><path fill="#0e0e0e" d="M41.655,73.674C42.226,75.042 42.561,76.171 42.896,77.301C42.296,77.455 41.695,77.609 41.095,77.763C40.629,75.893 40.163,74.023 39.484,71.298C40.548,72.18 40.821,72.338 40.995,72.57C41.185,72.823 41.282,73.145 41.655,73.674z"/><path fill="#0e0e0e" d="M49.806,186.769C46.93,187.139 46.93,187.139 48.024,182.183C48.955,184.267 49.435,185.339 49.806,186.769z"/><path fill="#0e0e0e" d="M76.191,96.179C77.013,95.657 78.105,95.349 79.569,94.961C79.65,96.463 79.358,98.044 79.066,99.626C78.713,99.677 78.36,99.729 78.007,99.78C77.491,98.651 76.975,97.522 76.191,96.179z"/><path fill="#0e0e0e" d="M67.486,142C67.726,140.805 68.36,139.607 69.159,138.136C70.141,138.583 70.958,139.304 71.775,140.025C70.476,140.682 69.178,141.34 67.486,142z"/><path fill="#0e0e0e" d="M50.479,178.659C50.423,179.859 50.116,180.787 49.809,181.715C49.248,181.312 48.687,180.909 48.126,180.506C48.827,179.8 49.528,179.093 50.479,178.659z"/><path fill="#373737" d="M97.168,120.756C97.658,120.996 98.149,121.237 98.482,121.965C98.237,123.055 98.151,123.656 98.065,124.258C96.907,124.162 95.748,124.066 93.972,123.962C92.944,123.917 92.533,123.88 92.121,123.843C92.121,123.843 92.114,123.499 92.457,123.274C94.256,122.285 95.712,121.52 97.168,120.756z"/><path fill="#0e0e0e" d="M67.608,31.914C67.828,33.581 67.828,34.971 67.828,36.361C67.215,36.311 66.603,36.26 65.99,36.209C66.456,34.685 66.922,33.16 67.608,31.914z"/><path fill="#0e0e0e" d="M56.518,62.048C57.157,62.784 57.507,63.571 57.641,64.923C57.583,66.042 57.742,66.598 57.901,67.153C57.901,67.153 57.842,67.144 57.871,67.161C56.917,67.073 55.934,66.968 54.314,66.795C55.017,65.072 55.623,63.586 56.518,62.048z"/><path fill="#0e0e0e" d="M69.437,23.004C69.943,23.742 70.091,24.489 70.19,25.615C68.918,25.86 67.694,25.726 66.471,25.591C66.364,25.23 66.258,24.869 66.151,24.508C67.127,24.01 68.103,23.511 69.437,23.004z"/><path fill="#0e0e0e" d="M97.083,120.498C95.712,121.52 94.256,122.285 92.439,123.103C92.219,122.245 92.36,121.333 93.069,120.346C94.455,120.086 95.275,119.901 96.094,119.716C96.395,119.891 96.697,120.065 97.083,120.498z"/><path fill="#0e0e0e" d="M114.975,215.036C115.719,214.51 116.468,214.308 117.609,214.085C117.407,215.248 116.813,216.433 116.219,217.617C115.806,216.865 115.394,216.113 114.975,215.036z"/><path fill="#0e0e0e" d="M52.789,186.75C51.971,185.833 51.493,184.848 51.016,183.864C51.627,183.682 52.239,183.499 52.851,183.316C52.944,184.439 53.036,185.561 52.789,186.75z"/><path fill="#0e0e0e" d="M97.444,66.137C96.832,65.022 96.507,64.039 96.182,63.055C96.826,62.944 97.471,62.833 98.116,62.722C97.987,63.904 97.858,65.087 97.444,66.137z"/><path fill="#262526" d="M64.22,184.974C63.999,184.338 63.777,183.702 63.45,182.746C64.004,182.055 64.663,181.686 65.661,181.158C66,181 66.012,180.995 66.012,180.995C66.03,182.995 66.049,184.995 66.143,187.414C65.841,187.45 65.463,187.068 64.998,186.16C64.767,185.323 64.536,185.104 64.22,184.974z"/><path fill="#0e0e0e" d="M68.712,157.331C68.044,157.026 67.651,156.558 67.257,156.09C68.214,155.847 69.172,155.605 70.13,155.363C69.749,155.964 69.367,156.566 68.712,157.331z"/><path fill="#0e0e0e" d="M86.004,211.232C86.022,210.725 86.083,210.561 86.311,210.196C87.382,210.904 88.286,211.813 89.189,212.723C88.777,213.105 88.366,213.487 87.954,213.87C87.318,213.105 86.682,212.34 86.004,211.232z"/><path fill="#0e0e0e" d="M93.144,161.934C96.984,160.04 94.397,163.586 94.93,164.648C94.349,163.85 93.768,163.052 93.144,161.934z"/><path fill="#0e0e0e" d="M129.005,208.388C129.443,208.014 129.886,208 130.663,207.979C131.302,209.096 131.608,210.221 131.914,211.346C131.479,211.523 131.043,211.7 130.608,211.878C130.075,210.835 129.543,209.792 129.005,208.388z"/><path fill="#0e0e0e" d="M67.209,8.811C68.027,8.965 68.452,9.18 68.986,9.985C69.142,10.813 69.189,11.053 69.236,11.293C69.236,11.293 69.2,11.3 69.223,11.306C67.695,11.056 66.144,10.801 63.223,10.32C65.257,9.5 66.037,9.186 67.209,8.811z"/><path fill="#0e0e0e" d="M98.623,162.456C99.647,161.902 100.477,161.605 101.307,161.308C101.424,161.88 101.54,162.452 101.656,163.024C100.581,162.92 99.505,162.817 98.623,162.456z"/><path fill="#0e0e0e" d="M67.533,161.927C68.13,161.272 69.041,160.661 69.951,160.05C70.163,160.479 70.374,160.907 70.585,161.336C69.673,161.548 68.76,161.759 67.533,161.927z"/><path fill="#0e0e0e" d="M80.227,95.073C79.941,94.752 79.98,94.584 80.171,94.205C81.47,93.675 82.616,93.353 83.763,93.032C83.907,93.48 84.052,93.928 84.196,94.376C82.981,94.659 81.767,94.943 80.227,95.073z"/><path fill="#0e0e0e" d="M19.663,210.234C20.794,210.176 21.689,210.316 22.787,210.73C21.883,211.525 20.775,212.046 19.667,212.567C19.587,211.855 19.507,211.143 19.663,210.234z"/><path fill="#171717" d="M99.411,128.435C98.503,128.255 97.845,127.833 97.187,127.411C97.596,127.007 98.006,126.603 98.415,126.199C98.83,126.864 99.246,127.528 99.411,128.435z"/><path fill="#0e0e0e" d="M50.204,128.495C49.854,128.795 49.68,128.826 49.249,128.916C48.995,128.486 48.86,127.94 49.03,127.517C49.357,126.703 49.823,125.935 50.333,125.22C50.387,125.143 51.109,125.543 51.522,125.721C51.141,126.556 50.761,127.39 50.204,128.495z"/><path fill="#0e0e0e" d="M78.654,182.469C78.156,182.526 77.779,182.211 77.028,181.882C76.719,181.058 76.782,180.247 76.845,179.437C77.488,180.323 78.131,181.21 78.654,182.469z"/><path fill="#0e0e0e" d="M98.09,77.062C97.649,77.98 97.208,78.899 96.767,79.817C96.309,79.511 95.852,79.205 95.394,78.898C96.019,78.276 96.643,77.655 97.639,77.014C98.01,76.995 98.09,77.062 98.09,77.062z"/><path fill="#1e1e1e" d="M114.967,120.895C114.993,120.467 115.019,120.039 115.108,119.296C116.008,119.569 116.846,120.156 117.684,120.744C117.025,121.163 116.365,121.582 115.344,121.717C114.977,121.254 114.972,121.075 114.967,120.895z"/><path fill="#1b1a1b" d="M97.278,143.914C96.849,144.123 96.678,144.096 96.25,144.045C96.007,142.962 96.022,141.903 96.281,140.431C96.525,140.018 97.001,139.998 97.001,139.998C97.179,141.224 97.358,142.451 97.278,143.914z"/><path fill="#0e0e0e" d="M34.976,44.707C34.546,45.049 34.117,45.031 33.371,45.071C33.068,44.156 33.082,43.184 33.096,42.211C33.723,42.923 34.35,43.635 34.976,44.707z"/><path fill="#0e0e0e" d="M92.852,174.222C93.019,173.54 93.041,173.092 93.152,172.32C93.587,172.789 94.345,173.7 94.162,174.343C93.982,174.978 92.849,175.343 92.134,175.826C92.325,175.369 92.516,174.913 92.852,174.222z"/><path fill="#171717" d="M92.125,124.185C92.533,123.88 92.944,123.917 93.665,123.963C94.37,125.282 94.764,126.592 95.159,127.902C94.933,127.978 94.708,128.054 94.483,128.13C93.698,126.929 92.914,125.728 92.125,124.185z"/><path fill="#0e0e0e" d="M60.674,221.545C60.849,220.22 61.25,219.105 61.652,217.989C62.294,218.732 62.936,219.474 63.579,220.216C62.686,220.729 61.793,221.241 60.674,221.545z"/><path fill="#0e0e0e" d="M37.299,211.494C36.945,210.718 36.852,210.076 36.76,209.434C37.294,209.653 37.827,209.873 38.361,210.092C38.094,210.604 37.827,211.116 37.299,211.494z"/><path fill="#0e0e0e" d="M71.215,32.018C71.8,30.936 72.546,30.181 73.63,29.526C73.796,31.193 74.471,33.567 71.215,32.018z"/><path fill="#0e0e0e" d="M105.289,177.183C106.005,177.695 106.416,178.252 106.826,178.808C106.443,178.945 106.06,179.082 105.676,179.219C105.445,178.555 105.214,177.891 105.289,177.183z"/><path fill="#0e0e0e" d="M72.954,147.644C72.969,148.11 72.956,148.299 72.957,148.772C72.446,149.149 71.922,149.241 71.397,149.333C71.458,148.593 71.518,147.852 71.579,147.111C72.028,147.197 72.477,147.282 72.954,147.644z"/><path fill="#373737" d="M96.108,119.426C95.275,119.901 94.455,120.086 93.344,120.131C93.817,119.329 94.581,118.666 95.667,117.999C96.033,118.375 96.077,118.756 96.108,119.426z"/><path fill="#0e0e0e" d="M64.017,95.008C64.281,94.862 64.641,94.682 64.819,94.777C64.905,96.081 64.815,97.289 64.724,98.496C64.4,98.514 64.077,98.531 63.753,98.549C63.753,97.417 63.753,96.285 64.017,95.008z"/><path fill="#0e0e0e" d="M78.383,203.234C78.584,202.762 79.005,202.499 79.714,202.119C80.112,203.075 80.222,204.147 80.189,205.472C79.87,205.743 79.695,205.759 79.258,205.795C78.864,205.024 78.734,204.233 78.383,203.234z"/><path fill="#0e0e0e" d="M73.653,41.89C73.397,40.962 73.351,40.25 73.306,39.539C73.732,39.566 74.157,39.592 74.583,39.618C74.343,40.448 74.104,41.278 73.653,41.89z"/><path fill="#c3c3c3" d="M81.296,199.979C81.718,199.588 82.446,199.294 83.48,198.981C83.846,199.927 83.906,200.894 84.015,202.645C82.904,201.463 82.253,200.77 81.296,199.979z"/><path fill="#0e0e0e" d="M68.017,197.01C67.923,198.091 67.83,199.172 67.737,200.253C67.318,200.199 66.9,200.145 66.481,200.091C66.761,199.092 67.041,198.093 67.66,197.046C67.998,196.998 68.017,197.01 68.017,197.01z"/><path fill="#0e0e0e" d="M51.413,174.483C50.561,174.789 49.877,174.841 49.194,174.893C49.296,174.451 49.398,174.009 49.5,173.567C50.194,173.788 50.887,174.009 51.413,174.483z"/><path fill="#0e0e0e" d="M48.741,121.195C49.16,121.046 49.332,121.088 49.756,121.218C49.673,122.056 49.34,122.805 49.007,123.554C48.836,122.831 48.665,122.108 48.741,121.195z"/><path fill="#0e0e0e" d="M42.002,58.506C42.552,58.312 43.108,58.437 43.823,58.818C43.692,59.577 43.401,60.079 43.11,60.582C42.743,59.996 42.376,59.41 42.002,58.506z"/><path fill="#141414" d="M79.607,120.381C79.333,120.13 79.406,120.11 79.379,120.086C80.379,120.503 81.406,120.944 82.432,121.385C82.209,121.811 81.985,122.238 81.761,122.664C81.134,121.987 80.508,121.309 79.607,120.381z"/><path fill="#0e0e0e" d="M53.234,134.616C53.887,134.387 54.692,134.28 55.756,134.38C56.016,134.588 56.034,134.499 55.731,134.573C55.254,134.757 55.08,134.866 54.906,134.975C54.399,134.896 53.893,134.817 53.234,134.616z"/><path fill="#0e0e0e" d="M39.086,129.473C39.471,128.806 39.899,128.443 40.65,128.004C40.71,128.792 40.446,129.655 40.183,130.518C39.832,130.271 39.481,130.024 39.086,129.473z"/><path fill="#0e0e0e" d="M85.486,28.182C85.074,27.837 84.906,27.373 84.739,26.908C85.277,26.811 85.816,26.714 86.354,26.617C86.147,27.099 85.939,27.58 85.486,28.182z"/><path fill="#0e0e0e" d="M61.177,175.089C61.666,174.761 62.079,174.704 62.492,174.646C62.299,175.177 62.105,175.707 61.912,176.238C61.642,175.945 61.371,175.652 61.177,175.089z"/><path fill="#0e0e0e" d="M120.606,212.368C120.554,211.805 120.816,211.68 121.349,211.762C122.221,212.212 122.883,212.581 123.545,212.949C123.42,213.197 123.295,213.446 123.17,213.694C122.401,213.356 121.631,213.018 120.606,212.368z"/><path fill="#0e0e0e" d="M91.499,87.957C91.586,87.115 91.978,86.226 92.692,85.36C92.61,86.224 92.206,87.067 91.499,87.957z"/><path fill="#0e0e0e" d="M102.238,208.739C102.499,209.263 102.51,209.834 102.456,210.399C102.453,210.431 101.917,210.412 101.629,210.416C101.744,209.872 101.859,209.328 102.238,208.739z"/><path fill="#0e0e0e" d="M67.234,194.185C66.971,193.977 67.015,193.485 67.047,193.24C67.563,194.183 68.048,195.372 68.275,196.785C68.017,197.01 67.998,196.998 67.99,196.99C67.82,196.119 67.658,195.256 67.234,194.185z"/><path fill="#0e0e0e" d="M96.276,203.992C96.429,204.619 96.381,205.053 96.333,205.486C95.957,205.309 95.582,205.132 95.206,204.955C95.496,204.57 95.786,204.185 96.276,203.992z"/><path fill="#e5e6e6" d="M58.617,131.491C58.323,131.477 58.234,131.187 58.073,130.45C58.436,128.986 58.871,127.971 59.562,126.73C59.862,126.764 59.906,127.025 59.986,127.679C59.623,129.121 59.223,130.169 58.617,131.491z"/><path fill="#0e0e0e" d="M56.052,87.235C56.896,87.097 57.764,87.272 58.816,87.723C58.026,87.849 57.051,87.698 56.052,87.235z"/><path fill="#0e0e0e" d="M85.664,36.882C85.331,36.032 85.212,34.992 85.092,33.951C85.354,33.937 85.615,33.922 85.876,33.908C85.876,34.836 85.876,35.763 85.664,36.882z"/><path fill="#0e0e0e" d="M97.869,208.37C97.585,208.953 97.275,209.265 96.965,209.576C96.779,209.21 96.593,208.844 96.407,208.478C96.885,208.351 97.364,208.225 97.869,208.37z"/><path fill="#0e0e0e" d="M64.284,145.415C64.47,144.541 64.869,143.885 65.581,143.505C66.023,144.469 66.152,145.155 66.28,145.842C65.686,145.772 65.092,145.702 64.284,145.415z"/><path fill="#0e0e0e" d="M83,149C83.506,149.74 84.012,150.481 84.518,151.221C84.297,151.354 84.076,151.488 83.856,151.621C83.572,150.956 83.288,150.29 83.002,149.312C82.999,149.001 83,149 83,149z"/><path fill="#0e0e0e" d="M86.132,184.096C86.206,183.443 86.477,183.052 86.975,182.559C86.912,183.09 86.62,183.724 86.132,184.096z"/><path fill="#0e0e0e" d="M54.537,179.832C54.119,180.342 53.557,180.652 52.994,180.963C52.888,180.734 52.782,180.506 52.676,180.277C53.247,180.063 53.819,179.848 54.537,179.832z"/><path fill="#0e0e0e" d="M78.844,110.854C78.357,110.973 77.661,110.806 76.795,110.386C77.295,110.278 77.965,110.423 78.844,110.854z"/><path fill="#0e0e0e" d="M99.606,200.52C100.058,200.636 100.335,200.92 100.591,201.221C100.597,201.229 100.37,201.435 100.252,201.549C99.977,201.263 99.702,200.976 99.606,200.52z"/><path fill="#0e0e0e" d="M48.256,201.995C48.254,201.354 48.365,200.901 48.56,200.487C48.583,200.439 49.078,200.615 49.354,200.687C49.034,201.189 48.714,201.691 48.256,201.995z"/><path fill="#0e0e0e" d="M109.993,199.005C109.487,198.699 108.98,198.392 108.473,198.086C108.656,197.878 108.838,197.67 109.02,197.462C109.324,197.785 109.628,198.107 109.966,198.715C110,199 109.993,199.005 109.993,199.005z"/><path fill="#0e0e0e" d="M88.056,124.037C87.736,124.541 87.417,125.045 87.097,125.548C86.883,125.37 86.669,125.191 86.456,125.012C86.764,124.691 87.072,124.369 87.688,124.019C87.995,123.991 88.056,124.037 88.056,124.037z"/><path fill="#0e0e0e" d="M66.002,180.994C66.308,180.483 66.612,179.979 66.916,179.474C67.123,179.655 67.331,179.837 67.538,180.018C67.218,180.321 66.898,180.625 66.295,180.962C66.012,180.995 66,181 66.002,180.994z"/><path fill="#0e0e0e" d="M47.4,157.479C46.943,157.361 46.662,157.073 46.403,156.768C46.397,156.76 46.626,156.552 46.746,156.437C47.024,156.728 47.301,157.018 47.4,157.479z"/><path fill="#484a49" d="M93.82,58.437C94.004,58.08 94.203,58.024 94.707,57.911C95.17,58.515 95.329,59.175 94.961,59.937C94.255,60.007 94.074,59.975 93.894,59.943C93.874,59.542 93.854,59.14 93.82,58.437z"/><path fill="#1b1a1b" d="M106.007,137.426C106.439,137.127 106.891,137.123 107.681,137.157C107.355,137.37 106.692,137.546 106.007,137.426z"/><path fill="#1b1a1b" d="M93.853,139.37C93.972,139.116 94.409,138.93 94.641,138.885C94.714,139.676 94.555,140.512 94.395,141.349C94.174,140.774 93.954,140.2 93.853,139.37z"/><path fill="#0e0e0e" d="M82.388,161.956C82.75,161.664 83.111,161.624 83.471,161.585C83.468,161.842 83.465,162.098 83.463,162.355C83.104,162.306 82.745,162.258 82.388,161.956z"/><path fill="#0e0e0e" d="M102.03,158.261C102.589,158.117 103.178,158.266 103.878,158.723C103.346,158.872 102.703,158.713 102.03,158.261z"/><path fill="#9c9c9d" d="M62.92,200.03C62.904,199.075 63.299,198.065 64.113,197.012C64.132,197.972 63.732,198.973 62.92,200.03z"/><path fill="#0e0e0e" d="M110.002,198.998C110.151,199.522 110.3,200.046 110.424,200.576C110.426,200.585 110.132,200.662 109.977,200.707C109.925,200.298 109.873,199.889 109.907,199.243C109.993,199.005 110,199 110.002,198.998z"/><path fill="#0e0e0e" d="M101.537,203.486C101.611,203.908 101.528,204.167 101.444,204.427C101.162,204.138 100.879,203.849 100.596,203.559C100.858,203.481 101.119,203.402 101.537,203.486z"/><path fill="#0e0e0e" d="M82.526,107.504C82.598,107.909 82.517,108.158 82.436,108.408C82.163,108.129 81.89,107.85 81.618,107.571C81.869,107.497 82.121,107.423 82.526,107.504z"/><path fill="#0e0e0e" d="M97,139.699C97.001,139.998 96.525,140.018 96.288,140.034C95.825,139.757 95.598,139.464 95.126,139.033C95.063,138.566 95.244,138.236 95.718,137.857C96.169,137.894 96.327,137.979 96.745,138.135C97.003,138.604 97.001,139.002 97,139.699z"/><path fill="#0e0e0e" d="M70.274,136.891C70.455,136.364 70.886,135.731 71.651,135.156C71.498,135.738 71.011,136.262 70.274,136.891z"/><path fill="#1b1a1b" d="M101.36,139.884C101.63,140.152 101.741,140.552 101.796,140.961C101.806,141.033 101.579,141.138 101.461,141.227C101.368,140.825 101.275,140.422 101.36,139.884z"/><path fill="#171717" d="M96.566,132.587C96.11,132.569 95.838,132.37 95.565,132.171C95.766,131.974 95.967,131.777 96.168,131.579C96.361,131.855 96.555,132.131 96.566,132.587z"/><path fill="#0e0e0e" d="M107.654,78.203C108.03,78.042 108.353,78.09 108.676,78.137C108.318,78.229 107.96,78.32 107.654,78.203z"/><path fill="#c3c3c3" d="M66.567,145.661C66.152,145.155 66.023,144.469 65.877,143.43C65.86,143.079 66.317,142.956 66.553,142.955C66.811,143.796 66.833,144.638 66.567,145.661z"/><path fill="#262526" d="M68.902,143.314C69.47,143.283 69.87,143.411 70.27,143.538C70.16,143.644 70.026,143.857 69.942,143.839C69.533,143.75 69.136,143.6 68.902,143.314z"/><path fill="#0e0e0e" d="M114.718,120.969C114.972,121.075 114.977,121.254 114.995,121.703C114.866,122.36 114.724,122.748 114.581,123.136C114.387,122.691 114.192,122.245 113.996,121.526C114.153,121.183 114.312,121.113 114.718,120.969z"/><path fill="#0e0e0e" d="M92.296,95.138C92.607,94.946 92.949,94.971 93.291,94.996C93.218,95.234 93.145,95.472 93.072,95.71C92.824,95.592 92.576,95.473 92.296,95.138z"/><path fill="#0e0e0e" d="M83.598,156.79C83.461,157.209 83.193,157.464 82.907,157.698C82.896,157.707 82.717,157.511 82.616,157.41C82.899,157.148 83.182,156.886 83.598,156.79z"/><path fill="#0e0e0e" d="M87.967,123.965C88.091,123.521 88.242,123.103 88.393,122.685C88.411,123.045 88.429,123.405 88.251,123.902C88.056,124.037 87.995,123.991 87.967,123.965z"/><path fill="#0e0e0e" d="M51.288,96.817C51.605,96.813 51.568,96.859 51.596,96.869C51.116,97.047 50.609,97.215 50.103,97.383C50.392,97.196 50.682,97.009 51.288,96.817z"/><path fill="#484a49" d="M98.324,124.178C98.151,123.656 98.237,123.055 98.55,122.235C98.862,122.438 98.947,122.858 99.066,123.606C98.927,123.988 98.755,124.043 98.324,124.178z"/><path fill="#0e0e0e" d="M116.603,201.282C116.439,201.153 116.415,200.929 116.391,200.705C116.508,200.866 116.626,201.027 116.603,201.282z"/><path fill="#0e0e0e" d="M100.242,196.01C100.409,195.901 100.577,195.955 100.745,196.009C100.578,196.064 100.411,196.119 100.242,196.01z"/><path fill="#0e0e0e" d="M50.246,102.011C50.411,101.903 50.577,101.956 50.744,102.009C50.578,102.064 50.413,102.118 50.246,102.011z"/><path fill="#0e0e0e" d="M49.401,195.727C49.559,195.852 49.582,196.068 49.605,196.284C49.492,196.129 49.379,195.973 49.401,195.727z"/><path fill="#e0e1e1" d="M104.829,102.651C105.107,102.347 105.482,102.381 105.857,102.415C105.759,102.712 105.662,103.009 105.565,103.307C105.352,103.2 105.139,103.094 104.829,102.651z"/><path fill="#0e0e0e" d="M51.4,193.725C51.559,193.851 51.581,194.069 51.604,194.286C51.491,194.13 51.377,193.973 51.4,193.725z"/><path fill="#0e0e0e" d="M108.939,192.061C108.522,191.906 108.105,191.75 107.689,191.595C108.054,191.586 108.419,191.577 108.889,191.788C108.995,192.009 108.939,192.061 108.939,192.061z"/><path fill="#0e0e0e" d="M96.282,169.394C96.153,169.558 95.93,169.582 95.706,169.606C95.867,169.489 96.027,169.371 96.282,169.394z"/><path fill="#0e0e0e" d="M78.989,156.247C79.097,156.41 79.044,156.575 78.991,156.739C78.937,156.576 78.883,156.412 78.989,156.247z"/><path fill="#0e0e0e" d="M89.641,216.747C89.626,216.992 89.494,217.125 89.363,217.259C89.416,217.051 89.47,216.844 89.641,216.747z"/><path fill="#0e0e0e" d="M100.647,206.738C100.632,206.987 100.498,207.124 100.363,207.26C100.418,207.048 100.472,206.836 100.647,206.738z"/><path fill="#0e0e0e" d="M52.357,190.257C52.371,190.009 52.505,189.873 52.638,189.737C52.584,189.948 52.529,190.159 52.357,190.257z"/><path fill="#e5e6e6" d="M62.329,142.108C62.552,142.292 62.708,142.675 62.615,143.097C62.257,142.868 62.222,142.593 62.329,142.108z"/><path fill="#0e0e0e" d="M67.001,191.753C66.565,191.831 66.13,191.663 65.695,191.495C65.963,191.338 66.23,191.181 66.75,191.02C67.003,191.017 67.002,191.508 67.001,191.753z"/><path fill="#0e0e0e" d="M109.025,191.986C109.171,192.413 109.287,192.864 109.403,193.314C109.269,193.052 109.136,192.79 108.971,192.294C108.939,192.061 108.995,192.009 109.025,191.986z"/><path fill="#0e0e0e" d="M77.699,216.491C77.855,216.293 78.363,216.358 78.881,216.711C78.61,216.917 78.33,216.835 77.699,216.491z"/><path fill="#0e0e0e" d="M56.536,222.553C56.478,222.588 56.593,222.518 56.536,222.553z"/><path fill="#1b1a1b" d="M99.686,108.708C99.551,108.371 99.829,107.991 100.409,107.421C100.507,107.708 100.303,108.186 99.686,108.708z"/><path fill="#0e0e0e" d="M73.549,224.467C73.581,224.522 73.517,224.413 73.549,224.467z"/><path fill="#f3f3f3" d="M55.733,73.8C56.072,74.131 56.069,74.307 56.034,74.743C55.797,74.55 55.594,74.097 55.733,73.8z"/><path fill="#0e0e0e" d="M106.537,110.555C106.477,110.592 106.597,110.519 106.537,110.555z"/><path fill="#0e0e0e" d="M82.776,111.715C82.806,111.921 82.777,111.948 82.769,111.967C82.644,111.823 82.527,111.661 82.272,111.233C82.408,111.069 82.612,111.25 82.776,111.715z"/><path fill="#0e0e0e" d="M88.036,116.975C88.169,117.115 88.275,117.277 88.381,117.44C88.287,117.398 88.194,117.355 88.031,117.182C87.961,117.051 88.009,116.998 88.036,116.975z"/><path fill="#0e0e0e" d="M68.449,95.872C68.35,95.67 68.409,95.361 68.731,95.084C68.925,95.368 68.796,95.585 68.449,95.872z"/><path fill="#171717" d="M103.783,131.061C103.479,131.238 103.062,131.047 102.45,130.571C102.726,130.422 103.198,130.557 103.783,131.061z"/><path fill="#eeeeef" d="M54.912,135.366C55.08,134.866 55.254,134.757 55.712,134.532C56.084,135.139 56.171,135.863 55.605,136.563C54.94,136.279 54.929,136.018 54.912,135.366z"/><path fill="#0e0e0e" d="M97.976,76.956C98.078,76.914 98.214,76.912 98.22,76.986C98.09,77.062 98.01,76.995 97.976,76.956z"/><path fill="#0e0e0e" d="M108.402,74.67C108.283,74.887 108.115,75.108 107.946,75.329C107.95,75.142 107.954,74.955 108.158,74.672C108.359,74.575 108.353,74.675 108.402,74.67z"/><path fill="#0e0e0e" d="M76.547,156.469C76.577,156.522 76.516,156.417 76.547,156.469z"/><path fill="#0e0e0e" d="M98.014,190.725C97.835,190.66 97.652,190.376 97.745,190.078C98.022,190.065 98.009,190.505 98.014,190.725z"/><path fill="#0e0e0e" d="M109.395,161.892C109.313,161.7 109.394,161.415 109.732,161.16C109.903,161.433 109.759,161.636 109.395,161.892z"/><path fill="#0e0e0e" d="M97.53,165.546C97.477,165.577 97.583,165.515 97.53,165.546z"/><path fill="#0e0e0e" d="M93.557,167.465C93.593,167.524 93.52,167.405 93.557,167.465z"/><path fill="#0e0e0e" d="M93.706,60.228C94.074,59.975 94.255,60.007 94.705,60.093C94.852,60.429 94.662,60.653 94.2,60.91C93.836,60.838 93.677,60.675 93.706,60.228z"/><path fill="#0e0e0e" d="M72.837,56.995C72.739,57.166 72.471,57.33 72.266,57.243C72.329,56.991 72.668,56.987 72.837,56.995z"/><path fill="#0c0c0c" d="M89.818,76.469C88.605,80.229 88.232,84.576 82.432,83.904C78.051,83.368 76.772,80.357 75.435,76.928C74.663,76.136 74.232,75.5 73.769,74.815C79.591,71.412 85.13,68.653 89.818,76.469z"/><path fill="#171717" d="M72.501,80.002C73.763,81.792 74.925,83.435 75.535,85.262C75.963,86.543 75.639,88.076 75.651,89.496C74.448,89.179 73.237,88.593 72.045,88.631C71.114,88.661 70.207,89.463 67.708,90.714C68.631,86.835 69.238,84.284 69.863,81.363C70.643,80.64 71.404,80.287 72.501,80.002z"/><path fill="#0a0a0a" d="M58.004,66.896C57.742,66.598 57.583,66.042 57.643,65.256C57.942,65.563 58.024,66.101 58.004,66.896z"/><path fill="#0e0e0e" d="M76.256,124.143C78.174,127.913 77.289,130.621 73.737,131.949C70.601,133.121 65.518,130.05 64.979,127.041C64.757,125.805 64.454,124.583 64.186,123.348C68.176,121.36 72.205,119.484 76.256,124.143z"/><path fill="#e5e6e6" d="M65.304,135.976C64.941,135.535 64.949,135.096 64.984,134.328C66.161,134.153 67.31,134.307 68.459,134.46C68.475,134.76 68.492,135.06 68.508,135.36C67.564,135.566 66.619,135.771 65.304,135.976z"/><path fill="#0e0e0e" d="M86.043,175.936C85.65,175.91 85.423,175.704 85.195,175.498C85.477,175.387 85.758,175.276 86.264,175.259C86.489,175.354 86.209,175.755 86.043,175.936z"/><path fill="#0a0a0a" d="M95.392,109.901C95.175,109.566 95.372,109.326 95.871,109.059C96.517,108.912 96.947,108.863 97.692,108.897C97.245,109.294 96.483,109.61 95.392,109.901z"/><path fill="#0a0a0a" d="M49.967,151.72C49.679,151.9 49.425,151.72 49.115,151.255C49.32,151.176 49.633,151.306 49.967,151.72z"/><path fill="#0a0a0a" d="M100.494,87.889C99.803,87.96 99.521,87.79 99.152,87.331C99.63,87.323 100.243,87.525 100.494,87.889z"/><path fill="#c3c3c3" d="M80.44,195.697C81.093,195.951 81.534,196.418 81.849,196.958C81.888,197.024 81.258,197.482 80.938,197.758C80.689,197.149 80.44,196.54 80.44,195.697z"/><path fill="#0a0a0a" d="M69.487,11.245C69.189,11.053 69.142,10.813 69.076,10.208C69.391,10.046 69.724,10.251 70.139,10.745C70.06,11.09 69.899,11.144 69.487,11.245z"/><path fill="#484a49" d="M64.197,185.246C64.536,185.104 64.767,185.323 64.974,185.869C65.037,186.107 64.666,186.08 64.481,186.065C64.255,185.872 64.214,185.695 64.197,185.246z"/><path fill="#0a0a0a" d="M79.743,147.99C79.583,148.096 79.422,148.043 79.261,147.991C79.421,147.938 79.581,147.885 79.743,147.99z"/><path fill="#0a0a0a" d="M53.876,162.161C53.95,162.639 53.771,163.237 53.266,163.808C53.168,163.281 53.395,162.782 53.876,162.161z"/></svg>