<svg xmlns="http://www.w3.org/2000/svg" viewBox="0 0 226 181" xml:space="preserve"><path fill="#0a0a0a" d="M89.001,172.006C90.198,171.561 91.395,171.116 93.482,170.34C89.18,169.185 85.68,168.246 81.701,167.178C82.512,165.966 83.18,164.967 84.709,162.681C79.113,164.549 74.899,165.956 70.685,167.363C70.513,166.919 70.34,166.475 70.167,166.031C71.371,165.323 72.574,164.616 73.777,163.909C73.699,163.61 73.621,163.311 73.543,163.011C69.621,163.443 65.7,163.874 61.778,164.305C61.614,163.864 61.45,163.423 61.286,162.982C62.78,162.103 64.274,161.224 66.166,160.111C63.593,160.111 61.52,160.111 58.24,160.111C59.917,163.57 61.304,166.431 62.951,169.829C54.23,167.128 44.512,173.38 35.042,167.635C38.214,164.236 41.352,160.873 44.644,157.346C44.214,157.261 43.536,157.126 42.519,156.855C42.181,156.718 42.237,156.721 42.237,156.721C42.237,155.597 42.237,154.473 42.237,154.186C35.829,154.69 29.717,155.17 23.604,155.651C23.484,155.277 23.363,154.904 23.243,154.53C24.124,153.82 25.005,153.11 25.823,152.451C18.653,152.451 11.518,152.451 4.384,152.451C4.294,152.027 4.203,151.604 4.113,151.181C9.439,149.263 14.766,147.345 20.57,145.256C19.064,143.921 17.557,142.585 15.106,140.412C18.359,141.137 20.474,141.609 24.136,142.425C20.336,136.711 17.076,131.808 13.585,126.558C18.142,128.386 22.144,130.897 25.523,135.343C26.168,135.933 26.445,136.134 26.722,136.335C26.617,135.763 26.511,135.191 26.406,134.619C24.782,127.79 23.157,120.961 21.236,112.881C27.007,117.74 27.583,124.301 30.588,129.645C31.027,126.601 31.431,123.805 31.835,121.01C32.202,120.987 32.569,120.963 32.936,120.94C33.687,124.051 34.437,127.162 35.187,130.273C35.487,130.34 35.787,130.407 36.086,130.474C39.766,117.806 43.468,105.144 47.079,92.457C47.347,91.516 47.323,89.725 46.821,89.451C42.355,87.005 44.762,82.644 44.456,79.458C44.164,76.415 46.602,73.109 48.219,68.943C44.567,64.385 48.343,58.679 49.081,52.936C50.236,43.951 51.483,34.979 53.722,25.975C59.634,41.319 65.546,56.663 72.008,73.432C73.517,71.256 75.043,69.945 75.408,68.366C76.62,63.13 82.097,59.429 80.761,53.326C80.693,53.016 80.927,52.624 80.825,52.339C77.692,43.518 82.972,36.427 85.639,28.797C88.408,20.876 91.149,12.945 94.939,5.215C96.339,13.705 97.544,22.233 99.195,30.674C100.878,39.272 102.589,47.606 100.138,56.551C98.941,60.917 100.591,66.063 101.023,71.79C108.097,67.49 103.016,60.709 105.818,55.324C107.782,57.518 109.349,59.267 110.903,61.003C117.162,57.563 116.225,51.794 116.1,46.157C116.047,43.789 116.405,41.22 117.319,39.056C121.057,30.198 125.012,21.428 129.07,12.711C129.756,11.237 131.341,10.182 132.511,8.933C133.164,10.154 134.268,11.328 134.4,12.602C135.446,22.725 136.304,32.867 137.235,43.001C137.296,43.661 137.797,44.468 137.56,44.939C133.126,53.746 133.121,63.067 135.298,72.661C134.891,72.721 134.485,72.781 134.079,72.842C135.728,73.653 137.376,74.464 140.135,75.822C138.541,71.274 138.835,68.949 142.876,67.478C144.451,66.905 145.586,63.178 145.677,60.839C145.933,54.263 147.898,48.632 151.448,42.993C156.827,34.447 161.173,25.25 166.643,15.052C166.857,17.643 167.033,18.958 167.064,20.275C167.338,32.091 167.676,43.907 167.757,55.724C167.77,57.718 166.821,59.797 166.001,61.701C163.833,66.737 160.033,71.447 163.539,77.398C163.916,78.038 164.074,79.343 163.69,79.812C159.499,84.925 163.641,87.997 166.475,91.528C171.447,89.362 174.372,85.938 174.25,80.145C174.216,78.488 174.932,76.562 175.903,75.182C179.917,69.477 184.162,63.934 188.879,58.335C189.654,58.958 189.871,59.578 190.017,60.529C186.119,66.457 182.293,72.052 177.829,78.58C180.097,78.15 181.657,77.855 183.048,77.591C182.944,78.815 182.833,80.134 182.721,81.452C183.17,81.56 183.62,81.669 184.069,81.778C187.905,74.622 190.306,66.909 192.226,58.684C192.798,57.946 193.166,57.455 193.533,56.964C192.219,56.895 190.905,56.826 189.59,56.757C191.74,53.451 193.89,50.145 196.039,46.839C196.429,46.929 196.819,47.019 197.209,47.108C196.674,52.858 196.043,58.602 195.628,64.36C195.175,70.65 195.011,76.961 194.518,83.246C194.399,84.754 193.707,86.343 192.881,87.643C190.627,91.194 186.976,93.991 189.853,99.274C190.799,101.01 189.813,104.965 188.309,106.667C181.796,114.041 183.801,121.91 186.001,129.95C186.264,130.911 186.471,131.887 186.135,133.311C185.383,133.836 185.2,133.907 185.009,133.62C184.488,131.93 183.977,130.598 183.465,129.266C182.928,129.56 182.392,129.854 181.855,130.148C182.898,131.438 183.94,132.727 184.98,134.441C185.098,136.796 185.22,138.728 185.341,140.66C185.708,140.626 186.075,140.591 186.441,140.557C186.311,138.185 186.181,135.813 186.051,133.441C186.384,133.671 186.716,133.901 187.017,134.817C187.68,135.397 188.374,135.292 189.069,135.188C189.622,136.116 190.175,137.044 190.972,138.382C192.989,134.858 194.87,131.572 197.338,128.392C198.19,128.67 198.456,128.844 198.721,129.018C197.215,133.183 195.642,137.325 194.25,141.528C193.903,142.576 194.121,143.819 194.115,144.972C194.101,147.389 194.111,149.807 194.111,153.377C194.137,153.394 195.395,154.215 196.709,155.074C198.992,153.722 201.414,152.287 203.836,150.853C204.16,151.314 204.484,151.776 204.808,152.238C204.051,153.364 203.293,154.491 201.835,156.659C205.538,158.811 209.172,160.923 213.84,163.636C204.249,164.338 195.465,164.981 186.682,165.624C186.653,165.922 186.624,166.22 186.596,166.518C190.106,167.829 193.617,169.14 197.128,170.451C197.047,171.013 196.966,171.576 196.886,172.139C193.128,172.139 189.371,172.139 185.324,172.139C185.992,171.132 186.447,170.447 186.901,169.762C179.9,172.267 173.035,173.956 165.091,171.074C162.08,170.181 159.806,169.416 156.902,168.44C157.24,171.165 157.386,172.338 157.574,173.854C159.899,173.271 162.452,172.631 165.004,171.991C165.972,173.239 166.94,174.487 168.033,175.897C162.122,177.504 156.439,179.538 150.458,174.387C147.261,175.66 143.224,177.315 139.141,178.847C138.43,179.114 137.476,179.029 136.715,178.816C132.327,177.587 127.962,176.272 123.322,174.907C123.458,174.664 123.918,173.84 124.652,172.526C122.359,172.526 120.41,172.526 117.339,172.526C118.824,171.174 119.466,170.589 120.108,170.004C119.995,169.588 119.882,169.172 119.768,168.756C110.038,172.162 100.397,176.214 89.427,173.619C88.984,172.879 88.993,172.443 89.001,172.006M114.709,74.007C114.865,73.472 115.02,72.937 115.175,72.403C114.752,72.913 114.329,73.424 113.528,74.227C113.546,74.599 113.563,74.972 113.58,75.344C113.768,74.941 113.957,74.538 114.709,74.007M135.989,108.691C135.97,109.454 135.951,110.217 135.253,111.224C135.486,112.46 135.72,113.696 135.964,115.006C135.964,115.006 136.021,115.055 136.17,115.457C136.341,115.693 136.554,115.882 136.693,116.618C136.618,116.805 136.544,116.993 136.113,117.553C136.433,118.209 136.754,118.865 137.859,119.743C138.676,119.618 139.494,119.494 140.312,119.37C140.227,119.019 140.143,118.668 140.058,118.317C139.075,118.722 138.092,119.127 137.413,118.671C137.58,118.1 137.747,117.528 138.041,116.98C138.041,116.98 138.149,117.052 138.555,116.727C138.667,116.409 138.779,116.091 139.024,115.034C139.039,114.365 139.053,113.696 139.002,113C139.002,113 139.044,113.057 139.766,113.162C139.523,112.447 139.279,111.732 138.408,111.003C137.99,110.983 137.573,110.963 136.917,110.857C136.917,110.857 136.767,111.06 137.048,110.518C137.104,110.117 137.159,109.715 137.757,108.722C137.489,107.475 137.222,106.228 136.223,104.99C135.741,105.044 135.259,105.098 134.304,105.539C134.509,106.345 134.714,107.151 135.377,108.017C135.377,108.017 135.837,108.063 136.074,108.175C136.074,108.175 136.235,107.968 135.989,108.691M118.821,127.55C119.178,128.096 119.535,128.642 119.892,129.188C120.565,128.441 121.237,127.693 122.526,126.736C122.965,125.998 123.403,125.26 124.186,124.26C124.186,124.26 124.565,124.053 124.565,124.053C124.565,124.053 124.976,124.187 124.982,124.825C125.045,125.604 125.108,126.384 125.136,126.73C129.825,125.054 132.225,121.898 131.071,116.129C131.145,109.706 124.02,105.428 117.724,108.342C115.159,109.529 110.816,111.512 113.643,116.799C114.406,118.558 115.168,120.318 116.064,122.726C116.974,123.161 117.884,123.595 118.826,124.639C118.825,125.232 118.823,125.825 118.694,126.559C118.694,126.559 118.759,126.738 118.821,127.55M120.509,50.668C120.122,49.841 119.735,49.014 119.348,48.187C118.99,48.423 118.632,48.659 118.274,48.895C118.833,49.581 119.392,50.267 119.4,51.058C119.089,51.368 118.779,51.677 118.468,51.986C118.674,52.166 118.88,52.347 119.087,52.527C119.409,52.036 119.73,51.545 120.509,50.668M49.833,86.078C51.551,85.944 53.269,85.809 54.987,85.675C54.899,85.22 54.811,84.765 54.724,84.31C52.755,84.821 50.787,85.332 48.541,86.075C48.755,86.119 48.968,86.162 49.833,86.078M56.143,48.181C55.677,45.563 55.211,42.945 54.746,40.326C54.402,40.332 54.059,40.337 53.715,40.342C53.472,43.228 53.228,46.115 52.661,49.729C52.445,51.487 52.23,53.244 51.74,55.639C51.286,58.465 50.833,61.29 50.379,64.115C50.818,64.292 51.256,64.469 51.695,64.646C52.654,62.874 53.613,61.103 54.454,59.55C55.051,61.376 55.684,63.308 56.317,65.24C57.006,65.05 57.695,64.861 58.384,64.671C57.887,60.788 57.389,56.904 56.848,52.304C56.563,51.202 56.279,50.101 56.143,48.181M144.039,86.507C144.344,86.769 144.649,87.03 144.954,87.292C145.087,87.013 145.22,86.735 145.353,86.456C144.901,86.305 144.45,86.153 143.974,85.252C143.139,84.604 142.303,83.957 141.468,83.309C140.494,85.175 139.519,87.041 138.545,88.907C138.927,89.031 139.308,89.155 139.689,89.279C141.126,88.186 142.564,87.092 144.039,86.507M139.64,97.132C138.516,97.666 137.391,98.2 136.053,98.836C138.706,99.958 140.967,100.915 143.705,102.074C142.589,100.086 141.806,98.693 141.757,97.17C142.933,95.306 144.109,93.442 145.975,90.483C142.786,91.175 140.779,91.288 139.087,92.076C137.658,92.742 135.999,94.184 139.291,95.664C139.524,95.855 139.79,95.964 140.243,96.424C140.243,96.424 140.309,96.878 139.64,97.132M144.848,80.021C145.765,81.736 146.682,83.451 147.599,85.166C148.131,85.055 148.662,84.945 149.193,84.834C148.802,82.298 148.544,79.729 147.945,77.243C147.739,76.388 146.68,75.737 146.011,74.993C145.673,75.994 145.335,76.995 144.408,77.892C143.683,77.601 142.958,77.31 142.234,77.02C142.096,77.354 141.958,77.688 141.821,78.022C142.814,78.45 143.808,78.878 144.848,80.021M105.048,123.997C105.048,123.997 105.076,123.914 104.644,124.508C101.474,127.826 101.986,131.628 103.836,135.697C104.832,131.651 105.827,127.604 106.783,122.788C108.099,118.539 109.415,114.289 110.459,110.915C110.321,108.901 110.223,107.463 110.657,106.265C111.235,106.281 111.812,106.297 112.389,106.313C111.546,105.276 110.702,104.238 109.858,103.2C109.302,103.96 108.746,104.72 108.137,106.243C106.945,111.549 105.754,116.855 104.216,122.522C104.519,122.999 104.822,123.477 105.048,123.997M174.322,98.863C173.207,97.325 172.092,95.787 170.429,93.494C169.884,96.291 169.553,97.992 169.222,99.693C169.588,99.483 169.955,99.273 170.322,99.063C172.431,101.381 174.541,103.699 177.177,106.596C176.294,103.524 175.643,101.258 175.707,99.046C176.767,98.849 177.827,98.651 178.887,98.453C178.496,97.445 178.327,95.755 177.675,95.542C173.983,94.335 175.379,97.414 174.322,98.863M115.735,89.983C115.489,89.32 115.244,88.658 114.561,87.78C114.283,87.585 114.096,87.325 114.779,86.993C115.868,86.49 116.958,85.987 118.048,85.484C117.826,84.974 117.604,84.464 117.382,83.954C115.927,84.341 114.472,84.727 112.279,85.012C111.286,85.001 110.293,84.99 109.244,84.14C108.341,83.865 107.267,83.14 106.569,83.406C104.958,84.019 103.53,85.112 101.323,85.914C100.305,85.915 99.286,85.916 98.267,85.917C98.3,86.681 98.333,87.446 98.366,88.21C99.563,88.142 100.759,88.073 102.526,88.202C102.756,88.746 102.987,89.291 102.427,89.951C98.93,90.671 100.058,92.132 100.516,93.486C101.146,93.602 101.776,93.718 102.407,93.835C102.659,92.484 102.912,91.132 103.69,89.934C104.132,90.24 104.574,90.546 105.111,91.539C108.567,93.963 112.024,96.387 115.481,98.812C115.957,98.033 116.433,97.254 116.909,96.475C113.516,94.609 110.124,92.743 107.011,90.36C107.392,89.911 107.772,89.462 108.825,89.099C110.995,89.162 112.391,93.728 115.735,89.983M36.724,134.698C35.629,138.338 34.534,141.979 33.438,145.619C34.134,145.839 34.83,146.058 35.526,146.278C36.988,142.849 38.451,139.419 40.387,135.395C40.977,131.928 41.568,128.461 42.158,124.994C41.579,124.867 40.999,124.741 40.419,124.614C39.296,127.752 38.173,130.89 36.724,134.698M79.093,120.064C79.093,116.834 79.093,113.603 79.093,110.372C78.609,110.334 78.125,110.297 77.641,110.259C76.719,117.818 75.798,125.378 74.181,133.302C73.166,138.42 72.151,143.539 71.131,148.681C72.762,149.145 74.222,149.561 75.793,150.009C76.19,148.053 76.322,146.379 76.875,144.857C78.941,139.171 77.683,132.112 83.903,128.065C84.637,127.587 84.741,125.634 84.599,124.428C84.323,122.083 83.664,119.784 83.09,116.828C82.715,116.362 82.339,115.896 81.963,115.43C81.704,116.411 81.446,117.393 81.192,119.034C81.066,119.679 80.941,120.324 80.305,120.95C79.965,120.951 79.624,120.952 79.093,120.064M124.81,40.348C124.891,41.876 124.972,43.404 125.053,44.932C125.532,45.03 126.012,45.129 126.492,45.228C127.098,43.189 127.704,41.15 128.639,38.488C128.722,37.324 128.804,36.161 129.124,34.269C129.109,33.512 129.093,32.755 129.319,31.21C129.53,27.508 129.742,23.807 130.151,19.593C130.121,19.19 130.091,18.787 130.061,18.384C129.711,18.966 129.36,19.548 128.921,20.837C127.599,24.517 126.277,28.198 124.341,32.108C124.137,32.711 123.934,33.315 123.236,34.402C122.516,35.851 121.579,37.237 121.142,38.766C120.777,40.04 121,41.481 120.962,42.848C121.992,41.947 123.022,41.047 124.81,40.348M122.057,150.054C122.214,150.188 122.37,150.321 122.365,151.252C121.794,155.075 121.223,158.897 120.652,162.72C121.155,162.795 121.658,162.87 122.161,162.945C123.34,158.723 124.337,154.439 125.745,150.295C127.55,144.983 125.862,140.407 123.506,135.398C121.51,141.817 119.671,147.731 117.831,153.645C118.152,153.769 118.473,153.893 118.794,154.017C119.727,152.56 120.661,151.103 122.057,150.054M47.01,126.414C46.319,128.537 45.627,130.66 44.546,133.976C49.02,131.712 52.47,129.966 56.011,128.174C55.129,120.774 54.247,113.373 53.365,105.972C51.74,109.168 50.839,112.342 49.954,115.52C49.018,118.881 48.099,122.246 47.01,126.414M106.679,155.915C100.022,150.28 94.724,151.656 89.364,160.078C96.626,165.141 102.977,162.675 108.776,156.902C108.471,156.692 107.954,156.337 106.679,155.915M181.34,147.856C182.077,147.373 183.511,146.759 183.448,146.427C181.993,138.716 180.376,131.035 178.524,122.064C176.028,128.795 173.986,134.302 172.166,139.211C174.564,140.269 177.222,140.72 178.532,142.294C179.296,143.212 177.904,145.925 177.452,147.966C178.211,147.897 179.34,147.795 181.34,147.856M92.782,34.274C92.782,29.058 92.782,23.842 92.782,17.374C89.407,26.666 86.452,34.806 83.273,43.56C85.084,42.774 86.463,42.176 87.78,41.605C87.958,42.922 88.167,44.465 88.436,46.456C93.375,43.582 92.083,39.04 92.782,34.274M99.037,112.455C99.357,115.045 99.676,117.635 99.996,120.225C100.613,120.217 101.231,120.209 101.848,120.201C103.342,113.427 104.837,106.652 106.158,100.662C103.866,99.255 102.19,98.225 99.603,96.637C99.105,99.029 98.367,101.075 98.326,103.136C98.27,105.931 98.748,108.737 99.037,112.455M159.937,34.258C156.652,40.168 153.367,46.077 149.587,52.878C151.963,51.966 153.256,51.47 154.795,50.88C154.912,51.832 154.988,52.451 155.063,53.07C155.144,53.739 155.224,54.409 155.341,55.388C158.687,52.426 163.308,36.422 162.052,33.019C162.036,32.976 160.869,33.358 159.937,34.258M158.016,137.79C157.362,137.772 156.226,137.539 156.125,137.767C154.039,142.439 152.065,147.16 150.101,151.885C150.004,152.118 150.198,152.471 150.328,153.126C151.255,152.785 152.106,152.473 152.682,152.261C153.073,154.463 153.419,156.406 153.764,158.349C154.313,158.375 154.861,158.401 155.41,158.427C155.96,155.869 155.921,152.961 157.188,150.828C159.619,146.736 158.709,142.712 158.016,137.79M158.001,109.136C155.444,107.979 155.253,109.571 155.258,111.464C155.272,117.454 155.263,123.443 155.263,129.433C157.896,124.776 160.198,120.095 161.551,115.155C161.961,113.655 159.751,111.438 158.001,109.136M131.264,80.225C130.272,84.133 129.281,88.041 128.271,92.023C131.163,93.07 133.963,96.207 135.412,91.146C136.233,88.276 136.666,85.294 137.244,82.51C136.026,81.399 134.785,80.098 133.35,79.068C132.952,78.783 131.976,79.303 131.264,80.225M144.526,167.954C142.19,165.692 140.113,162.092 137.44,161.575C135.148,161.131 132.173,164.213 129.153,165.933C131.429,167.188 132.823,167.725 133.921,168.624C135.11,169.597 136.023,170.908 137.024,172.034C139.365,170.651 141.555,169.358 144.526,167.954M62.925,135.548C54.879,131.619 51.33,132.726 49.177,139.392C51.282,140.977 53.222,142.438 54.038,143.053C57.574,140.767 60.712,138.746 63.826,136.687C63.896,136.641 63.688,136.175 62.925,135.548M110.023,74.107C109.659,73.359 109.221,71.937 108.943,71.968C106.514,72.236 104.075,72.617 101.715,73.251C98.789,74.037 97.849,77.924 100.121,80.007C101.076,80.883 103.128,82.011 103.691,81.615C106.18,79.867 110.079,79.233 110.023,74.107M162.982,95.591C161.83,93.82 160.677,92.048 159.525,90.276C159.025,90.697 158.524,91.119 158.024,91.54C157.203,94.277 156.383,97.014 155.494,99.979C158.757,101.008 161.62,101.912 164.457,102.807C166.23,99.979 166.935,97.696 162.982,95.591M76.497,97.21C75.787,96.003 75.076,94.796 74.376,93.606C71.164,95.936 71.196,105.148 74.925,111.206C75.504,106.528 76.034,102.252 76.497,97.21M172.822,160.248C168.99,159.176 166.891,161.015 165.548,163.926C167.904,165.133 169.887,166.148 171.993,167.226C173.555,166.169 175.586,164.794 177.592,163.436C176.15,162.506 174.777,161.621 172.822,160.248M72.398,77.611C68.712,78.76 70.679,81.303 71.282,83.189C71.536,83.985 73.175,84.34 74.185,84.895C75.564,82.03 76.943,79.164 78.322,76.298C77.852,75.986 77.382,75.674 76.912,75.362C75.638,75.965 74.365,76.567 72.398,77.611M62.361,149.638C58.864,150.311 56.029,151.778 54.528,156.596C58.765,155.238 62.122,154.162 66.17,152.865C64.648,151.449 63.833,150.69 62.361,149.638M88.686,91.911C88.543,91.283 88.486,90.145 88.244,90.104C85.244,89.602 82.218,89.26 79.106,88.865C79.019,89.913 78.861,91.094 78.928,91.107C82.786,91.848 86.662,92.492 90.536,93.146C90.156,92.774 89.776,92.401 88.686,91.911M50.187,160.277C47.78,160.932 45.374,161.587 42.967,162.242C43,162.809 43.034,163.376 43.067,163.943C46.317,164.116 49.566,164.289 52.816,164.462C53.197,163.638 53.577,162.814 53.957,161.99C52.948,161.488 51.938,160.986 50.187,160.277M116.152,70.137C116.987,71.772 117.822,73.406 118.657,75.04C118.794,71.204 118.09,67.505 117.143,63.869C117.034,63.449 115.579,63.38 114.169,62.986C114.721,65.606 115.147,67.626 116.152,70.137M127.187,106.794C130.58,107.601 132.759,106.892 132.189,102.773C130.773,102.292 129.347,101.807 127.38,101.139C127.087,102.941 126.808,104.654 127.187,106.794M168.755,108.793C167.244,108.961 165.733,109.129 164.222,109.297C164.524,110.14 164.827,110.982 165.129,111.824C166.394,111.054 167.658,110.283 168.755,108.793M80.905,106.319C80.905,105.116 80.905,103.914 80.905,102.711C80.391,102.613 79.878,102.514 79.364,102.416C78.935,103.865 78.506,105.315 78.077,106.764C78.95,106.861 79.824,106.957 80.905,106.319M171.57,104.635C170.87,104.634 170.171,104.633 169.472,104.633C169.905,106.363 170.337,108.092 170.77,109.822C171.12,109.728 171.47,109.634 171.82,109.54C171.82,108.104 171.82,106.667 171.57,104.635M54.472,80.2C53.315,83.57 55.967,82.774 57.005,83.743C57.323,83.371 57.64,82.999 57.958,82.627C57.002,81.91 56.047,81.193 54.472,80.2M176.559,90.598C177.038,89.359 177.516,88.12 177.995,86.882C177.497,86.774 176.999,86.666 176.502,86.558C176.317,87.947 176.132,89.336 176.559,90.598M83.382,113.907C83.752,113.374 84.123,112.84 84.493,112.307C83.825,112.082 83.156,111.857 82.488,111.633C82.569,112.339 82.65,113.045 83.382,113.907M180.646,87.356C180.144,88.34 179.642,89.325 179.14,90.309C179.629,90.482 180.117,90.655 180.606,90.828C180.831,89.666 181.057,88.503 180.646,87.356M51.134,88.765C50.888,89.668 50.642,90.57 50.395,91.473C50.898,91.523 51.401,91.572 51.903,91.621C51.812,90.528 51.721,89.434 51.134,88.765M172.678,112.31C171.979,112.028 171.279,111.746 170.58,111.464C170.508,112.049 170.436,112.633 170.364,113.218C171.043,113.116 171.722,113.014 172.678,112.31M188.697,78.544C188.59,79.503 188.483,80.462 188.376,81.421C188.845,81.398 189.314,81.375 189.783,81.352C189.64,80.419 189.497,79.485 188.697,78.544M47.637,80.014C47.999,80.628 48.361,81.241 48.723,81.855C49.11,81.432 49.497,81.01 49.884,80.587C49.293,80.229 48.701,79.87 47.637,80.014M144.015,73.751C143.807,72.923 143.599,72.095 143.39,71.267C143.034,71.387 142.678,71.506 142.322,71.626C142.691,72.321 143.06,73.016 144.015,73.751M178.879,109.365C178.574,109.05 178.268,108.734 177.963,108.419C177.785,108.788 177.606,109.157 177.428,109.526C177.899,109.654 178.371,109.781 178.879,109.365M166.232,104.672C166.651,104.951 167.069,105.229 167.488,105.507C167.628,105.066 167.767,104.626 167.906,104.185C167.43,104.165 166.953,104.146 166.232,104.672M147.995,64.608C148.136,65.205 148.277,65.802 148.418,66.399C148.698,66.278 148.978,66.157 149.257,66.036C148.858,65.321 148.459,64.606 147.995,64.608M149.779,60.964C150.214,60.844 150.648,60.724 151.083,60.605C150.997,60.376 150.912,60.148 150.827,59.92C150.304,60.24 149.781,60.559 149.779,60.964M161.624,136.135C161.339,135.772 161.053,135.408 160.767,135.045C160.558,135.836 160.349,136.626 160.141,137.417C160.521,137.204 160.901,136.991 161.624,136.135M175.621,114.324C175.392,114.014 175.162,113.704 174.933,113.394C174.738,113.584 174.543,113.773 174.347,113.962C174.646,114.207 174.944,114.452 175.621,114.324M112.611,82.531C112.877,82.819 113.144,83.107 113.41,83.396C113.511,83.292 113.71,83.11 113.699,83.097C113.463,82.806 113.204,82.534 112.611,82.531M138.823,77.729C138.979,77.617 139.136,77.505 139.292,77.393C139.075,77.415 138.857,77.437 138.823,77.729M119.586,46.519C119.586,46.519 119.478,46.583 119.586,46.519M113.518,67.412C113.518,67.412 113.587,67.527 113.518,67.412z"/><path fill="#202121" d="M37.465,156.695C38.435,161.313 34.605,161.328 32.05,161.737C27.631,162.442 23.103,162.502 18.615,162.703C17.512,162.752 16.387,162.299 15.202,161.557C18.923,159.893 21.485,155.771 27.029,158.745C29.343,159.987 33.532,157.732 37.192,156.906C37.516,156.746 37.465,156.695 37.465,156.695z"/><path fill="#242424" d="M71.412,175.332C72.39,176.195 73.084,176.832 74.988,178.58C69.747,178.918 65.819,179.172 60.668,179.504C63.956,174.743 66.961,173.347 71.412,175.332z"/><path fill="#d9dbd9" d="M165.072,171.829C162.452,172.631 159.899,173.271 157.574,173.854C157.386,172.338 157.24,171.165 156.902,168.44C159.806,169.416 162.08,170.181 164.7,171.138C165.044,171.329 165.139,171.667 165.072,171.829z"/><path fill="#313131" d="M88.586,171.991C88.993,172.443 88.984,172.879 88.985,173.644C86.025,175.18 83.072,177.531 79.115,173.515C82.64,172.916 85.405,172.446 88.586,171.991z"/><path fill="#141414" d="M189.407,56.822C190.905,56.826 192.219,56.895 193.533,56.964C193.166,57.455 192.798,57.946 191.936,58.752C190.99,59.444 190.539,59.821 190.088,60.197C189.871,59.578 189.654,58.958 189.159,58.153C188.995,57.607 189.109,57.247 189.407,56.822z"/><path fill="#202121" d="M41.869,156.903C42.237,156.721 42.181,156.718 42.188,156.707C40.885,156.663 39.574,156.631 37.864,156.647C37.465,156.695 37.516,156.746 37.519,156.713C38.848,156.815 40.174,156.95 41.869,156.903z"/><path fill="#242424" d="M188.734,135.391C188.374,135.292 187.68,135.397 187.019,135.194C187.502,135.122 187.95,135.358 188.734,135.391z"/><path fill="#1c1b1b" d="M198.884,128.704C198.456,128.844 198.19,128.67 197.602,128.147C197.663,127.197 198.046,126.597 199.047,125.032C199.047,126.97 199.047,127.681 198.884,128.704z"/><path fill="#e7e7e7" d="M47.091,126.012C48.099,122.246 49.018,118.881 49.954,115.52C50.839,112.342 51.74,109.168 53.365,105.972C54.247,113.373 55.129,120.774 56.011,128.174C52.47,129.966 49.02,131.712 44.546,133.976C45.627,130.66 46.319,128.537 47.091,126.012z"/><path fill="#ececec" d="M113.953,116.193C110.816,111.512 115.159,109.529 117.724,108.342C124.02,105.428 131.145,109.706 130.681,116.578C129.866,117.005 129.441,116.983 128.863,116.655C127.085,117.234 125.46,118.119 123.548,119.036C123.069,119.088 122.877,119.109 122.315,119.11C121.258,119.057 120.571,119.024 119.766,118.636C119.229,115.213 118.089,113.624 114.741,116.048C114.301,116.119 114.127,116.156 113.953,116.193z"/><path fill="#e3e3e3" d="M107.058,155.949C107.954,156.337 108.471,156.692 108.776,156.902C102.977,162.675 96.626,165.141 89.364,160.078C94.724,151.656 100.022,150.28 107.058,155.949z"/><path fill="#e4e4e4" d="M180.904,147.774C179.34,147.795 178.211,147.897 177.452,147.966C177.904,145.925 179.296,143.212 178.532,142.294C177.222,140.72 174.564,140.269 172.166,139.211C173.986,134.302 176.028,128.795 178.524,122.064C180.376,131.035 181.993,138.716 183.448,146.427C183.511,146.759 182.077,147.373 180.904,147.774z"/><path fill="#eaebeb" d="M92.743,34.739C92.083,39.04 93.375,43.582 88.436,46.456C88.167,44.465 87.958,42.922 87.78,41.605C86.463,42.176 85.084,42.774 83.273,43.56C86.452,34.806 89.407,26.666 92.782,17.374C92.782,23.842 92.782,29.058 92.743,34.739z"/><path fill="#e6e6e6" d="M83.164,117.465C83.664,119.784 84.323,122.083 84.599,124.428C84.741,125.634 84.637,127.587 83.903,128.065C77.683,132.112 78.941,139.171 76.875,144.857C76.322,146.379 76.19,148.053 75.793,150.009C74.222,149.561 72.762,149.145 71.131,148.681C72.151,143.539 73.166,138.42 74.795,133.307C75.825,134.028 76.241,134.743 77.113,136.242C77.882,132.939 78.444,130.522 79.28,127.843C79.974,125.377 80.394,123.173 80.815,120.969C80.941,120.324 81.066,119.679 81.563,118.637C82.344,117.982 82.754,117.724 83.164,117.465z"/><path fill="#e8e9e8" d="M99.017,111.996C98.748,108.737 98.27,105.931 98.326,103.136C98.367,101.075 99.105,99.029 99.603,96.637C102.19,98.225 103.866,99.255 106.158,100.662C104.837,106.652 103.342,113.427 101.848,120.201C101.231,120.209 100.613,120.217 99.996,120.225C99.676,117.635 99.357,115.045 99.017,111.996z"/><path fill="#dedede" d="M160.088,33.9C160.869,33.358 162.036,32.976 162.052,33.019C163.308,36.422 158.687,52.426 155.341,55.388C155.224,54.409 155.144,53.739 155.063,53.07C154.988,52.451 154.912,51.832 154.795,50.88C153.256,51.47 151.963,51.966 149.587,52.878C153.367,46.077 156.652,40.168 160.088,33.9z"/><path fill="#e3e3e3" d="M158.094,138.179C158.709,142.712 159.619,146.736 157.188,150.828C155.921,152.961 155.96,155.869 155.41,158.427C154.861,158.401 154.313,158.375 153.764,158.349C153.419,156.406 153.073,154.463 152.682,152.261C152.106,152.473 151.255,152.785 150.328,153.126C150.198,152.471 150.004,152.118 150.101,151.885C152.065,147.16 154.039,142.439 156.125,137.767C156.226,137.539 157.362,137.772 158.094,138.179z"/><path fill="#e2e3e2" d="M121.594,149.647C120.661,151.103 119.727,152.56 118.794,154.017C118.473,153.893 118.152,153.769 117.831,153.645C119.671,147.731 121.51,141.817 123.506,135.398C125.862,140.407 127.55,144.983 125.745,150.295C124.337,154.439 123.34,158.723 122.161,162.945C121.658,162.87 121.155,162.795 120.652,162.72C121.223,158.897 121.794,155.075 122.621,150.603C122.878,149.392 122.878,148.831 122.878,147.284C122.132,148.657 121.863,149.152 121.594,149.647z"/><path fill="#e4e4e4" d="M190.017,60.529C190.539,59.821 190.99,59.444 191.731,58.999C190.306,66.909 187.905,74.622 184.069,81.778C183.62,81.669 183.17,81.56 182.721,81.452C182.833,80.134 182.944,78.815 183.048,77.591C181.657,77.855 180.097,78.15 177.829,78.58C182.293,72.052 186.119,66.457 190.017,60.529z"/><path fill="#e2e2e2" d="M158.371,109.342C159.751,111.438 161.961,113.655 161.551,115.155C160.198,120.095 157.896,124.776 155.263,129.433C155.263,123.443 155.272,117.454 155.258,111.464C155.253,109.571 155.444,107.979 158.371,109.342z"/><path fill="#e2e3e2" d="M131.265,79.839C131.976,79.303 132.952,78.783 133.35,79.068C134.785,80.098 136.026,81.399 137.244,82.51C136.666,85.294 136.233,88.276 135.412,91.146C133.963,96.207 131.163,93.07 128.271,92.023C129.281,88.041 130.272,84.133 131.265,79.839z"/><path fill="#e5e5e5" d="M144.136,168.009C141.555,169.358 139.365,170.651 137.024,172.034C136.023,170.908 135.11,169.597 133.921,168.624C132.823,167.725 131.429,167.188 129.153,165.933C132.173,164.213 135.148,161.131 137.44,161.575C140.113,162.092 142.19,165.692 144.136,168.009z"/><path fill="#edeeee" d="M63.268,135.727C63.688,136.175 63.896,136.641 63.826,136.687C60.712,138.746 57.574,140.767 54.038,143.053C53.222,142.438 51.282,140.977 49.177,139.392C51.33,132.726 54.879,131.619 63.268,135.727z"/><path fill="#edeeee" d="M110.01,74.556C110.079,79.233 106.18,79.867 103.691,81.615C103.128,82.011 101.076,80.883 100.121,80.007C97.849,77.924 98.789,74.037 101.715,73.251C104.075,72.617 106.514,72.236 108.943,71.968C109.221,71.937 109.659,73.359 110.01,74.556z"/><path fill="#e7e7e7" d="M128.886,34.997C128.804,36.161 128.722,37.324 128.128,38.736C126.689,38.46 125.763,37.936 124.497,37.22C124.318,38.395 124.185,39.27 124.052,40.146C123.022,41.047 121.992,41.947 120.962,42.848C121,41.481 120.777,40.04 121.142,38.766C121.579,37.237 122.516,35.851 123.78,34.027C124.535,33.06 124.745,32.469 124.955,31.878C126.277,28.198 127.599,24.517 129.199,20.409C129.477,19.981 129.953,20.105 129.953,20.105C129.742,23.807 129.53,27.508 128.864,31.647C128.568,33.054 128.727,34.026 128.886,34.997z"/><path fill="#e4e4e4" d="M163.278,95.832C166.935,97.696 166.23,99.979 164.457,102.807C161.62,101.912 158.757,101.008 155.494,99.979C156.383,97.014 157.203,94.277 158.024,91.54C158.524,91.119 159.025,90.697 159.525,90.276C160.677,92.048 161.83,93.82 163.278,95.832z"/><path fill="#ddddde" d="M76.531,97.593C76.034,102.252 75.504,106.528 74.925,111.206C71.196,105.148 71.164,95.936 74.376,93.606C75.076,94.796 75.787,96.003 76.531,97.593z"/><path fill="#dcdbdc" d="M79.006,128.106C78.444,130.522 77.882,132.939 77.113,136.242C76.241,134.743 75.825,134.028 75.143,133.125C75.798,125.378 76.719,117.818 77.641,110.259C78.125,110.297 78.609,110.334 79.093,110.372C79.093,113.603 79.093,116.834 79.157,120.9C79.149,123.859 79.078,125.983 79.006,128.106z"/><path fill="#f3f3f3" d="M56.892,53.021C57.389,56.904 57.887,60.788 58.384,64.671C57.695,64.861 57.006,65.05 56.317,65.24C55.684,63.308 55.051,61.376 54.454,59.55C53.613,61.103 52.654,62.874 51.695,64.646C51.256,64.469 50.818,64.292 50.379,64.115C50.833,61.29 51.286,58.465 52.221,55.31C54.099,54.327 55.495,53.674 56.892,53.021z"/><path fill="#e4e4e4" d="M173.113,160.492C174.777,161.621 176.15,162.506 177.592,163.436C175.586,164.794 173.555,166.169 171.993,167.226C169.887,166.148 167.904,165.133 165.548,163.926C166.891,161.015 168.99,159.176 173.113,160.492z"/><path fill="#e6e6e6" d="M72.745,77.39C74.365,76.567 75.638,75.965 76.912,75.362C77.382,75.674 77.852,75.986 78.322,76.298C76.943,79.164 75.564,82.03 74.185,84.895C73.175,84.34 71.536,83.985 71.282,83.189C70.679,81.303 68.712,78.76 72.745,77.39z"/><path fill="#c0c1c1" d="M104.562,122.161C105.754,116.855 106.945,111.549 108.424,105.851C109.182,105.647 109.653,105.836 110.124,106.024C110.223,107.463 110.321,108.901 110.459,110.915C109.415,114.289 108.099,118.539 106.51,123.226C105.85,123.747 105.463,123.831 105.076,123.914C105.076,123.914 105.048,123.997 105.183,123.73C105.066,123.029 104.814,122.595 104.562,122.161z"/><path fill="#e2e2e2" d="M62.689,149.784C63.833,150.69 64.648,151.449 66.17,152.865C62.122,154.162 58.765,155.238 54.528,156.596C56.029,151.778 58.864,150.311 62.689,149.784z"/><path fill="#ddddde" d="M102.028,86.011C103.53,85.112 104.958,84.019 106.569,83.406C107.267,83.14 108.341,83.865 109.114,84.876C108.707,86.746 108.43,87.879 108.152,89.013C107.772,89.462 107.392,89.911 106.587,90.572C105.781,90.806 105.398,90.83 105.016,90.853C104.574,90.546 104.132,90.24 103.38,89.931C103.071,89.929 103.218,89.835 103.218,89.835C102.987,89.291 102.756,88.746 102.174,87.771C101.891,86.896 101.959,86.454 102.028,86.011z"/><path fill="#a8a9a9" d="M37.051,134.028C38.173,130.89 39.296,127.752 40.419,124.614C40.999,124.741 41.579,124.867 42.158,124.994C41.568,128.461 40.977,131.928 39.827,135.697C38.529,135.343 37.79,134.686 37.051,134.028z"/><path fill="#d9dbd9" d="M89.041,91.97C89.776,92.401 90.156,92.774 90.536,93.146C86.662,92.492 82.786,91.848 78.928,91.107C78.861,91.094 79.019,89.913 79.106,88.865C82.218,89.26 85.244,89.602 88.244,90.104C88.486,90.145 88.543,91.283 89.041,91.97z"/><path fill="#eaebeb" d="M36.887,134.363C37.79,134.686 38.529,135.343 39.59,135.995C38.451,139.419 36.988,142.849 35.526,146.278C34.83,146.058 34.134,145.839 33.438,145.619C34.534,141.979 35.629,138.338 36.887,134.363z"/><path fill="#e8e9e8" d="M50.558,160.38C51.938,160.986 52.948,161.488 53.957,161.99C53.577,162.814 53.197,163.638 52.816,164.462C49.566,164.289 46.317,164.116 43.067,163.943C43.034,163.376 43,162.809 42.967,162.242C45.374,161.587 47.78,160.932 50.558,160.38z"/><path fill="#171717" d="M105.063,91.196C105.398,90.83 105.781,90.806 106.447,90.83C110.124,92.743 113.516,94.609 116.909,96.475C116.433,97.254 115.957,98.033 115.481,98.812C112.024,96.387 108.567,93.963 105.063,91.196z"/><path fill="#171717" d="M108.489,89.056C108.43,87.879 108.707,86.746 109.142,85.296C110.293,84.99 111.286,85.001 112.741,85.313C113.468,86.076 113.734,86.538 114,87C114.096,87.325 114.283,87.585 114.783,88.255C115.064,89.217 115.122,89.704 115.179,90.19C112.391,93.728 110.995,89.162 108.489,89.056z"/><path fill="#1e1e1f" d="M174.992,98.992C175.643,101.258 176.294,103.524 177.177,106.596C174.541,103.699 172.431,101.381 170.322,99.063C169.955,99.273 169.588,99.483 169.222,99.693C169.553,97.992 169.884,96.291 170.429,93.494C172.092,95.787 173.207,97.325 174.661,98.932C175,99 174.992,98.992 174.992,98.992z"/><path fill="#171717" d="M104.86,124.211C105.463,123.831 105.85,123.747 106.53,123.61C105.827,127.604 104.832,131.651 103.836,135.697C101.986,131.628 101.474,127.826 104.86,124.211z"/><path fill="#282727" d="M129.015,116.961C129.441,116.983 129.866,117.005 130.587,116.896C132.225,121.898 129.825,125.054 125.136,126.73C125.108,126.384 125.045,125.604 125.272,124.363C125.363,122.939 125.165,121.976 125.367,121.01C129.113,121.475 128.933,119.113 129.015,116.961z"/><path fill="#141414" d="M115.862,69.891C115.147,67.626 114.721,65.606 114.169,62.986C115.579,63.38 117.034,63.449 117.143,63.869C118.09,67.505 118.794,71.204 118.657,75.04C117.822,73.406 116.987,71.772 115.862,69.891z"/><path fill="#1d1c1c" d="M144.996,77.996C145.335,76.995 145.673,75.994 146.011,74.993C146.68,75.737 147.739,76.388 147.945,77.243C148.544,79.729 148.802,82.298 149.193,84.834C148.662,84.945 148.131,85.055 147.599,85.166C146.682,83.451 145.765,81.736 144.927,79.502C145.007,78.982 145.231,78.672 145.371,78.624C145.561,78.24 145.392,78.05 145.002,78.002C145,78 144.996,77.996 144.996,77.996M146.506,80.549C146.506,80.549 146.454,80.449 146.506,80.549z"/><path fill="#d1d2d2" d="M126.858,106.58C126.808,104.654 127.087,102.941 127.38,101.139C129.347,101.807 130.773,102.292 132.189,102.773C132.759,106.892 130.58,107.601 126.858,106.58z"/><path fill="#c7c7c8" d="M139.012,95.329C135.999,94.184 137.658,92.742 139.087,92.076C140.779,91.288 142.786,91.175 145.975,90.483C144.109,93.442 142.933,95.306 141.249,97.066C140.74,96.963 140.309,96.878 140.309,96.878C140.309,96.878 140.243,96.424 140.2,95.87C139.776,95.321 139.394,95.325 139.012,95.329z"/><path fill="#eaebeb" d="M124.431,40.247C124.185,39.27 124.318,38.395 124.497,37.22C125.763,37.936 126.689,38.46 127.963,39.047C127.704,41.15 127.098,43.189 126.492,45.228C126.012,45.129 125.532,45.03 125.053,44.932C124.972,43.404 124.891,41.876 124.431,40.247z"/><path fill="#1d1c1c" d="M144.001,85.999C142.564,87.092 141.126,88.186 139.689,89.279C139.308,89.155 138.927,89.031 138.545,88.907C139.519,87.041 140.494,85.175 141.468,83.309C142.303,83.957 143.139,84.604 143.987,85.626C144,86 144.001,85.999 144.001,85.999z"/><path fill="#e2e2e2" d="M56.87,52.662C55.495,53.674 54.099,54.327 52.358,54.991C52.23,53.244 52.445,51.487 53.199,49.374C54.489,49.013 55.242,49.006 55.994,48.999C56.279,50.101 56.563,51.202 56.87,52.662z"/><path fill="#f3f3f3" d="M56.069,48.59C55.242,49.006 54.489,49.013 53.361,49.011C53.228,46.115 53.472,43.228 53.715,40.342C54.059,40.337 54.402,40.332 54.746,40.326C55.211,42.945 55.677,45.563 56.069,48.59z"/><path fill="#1e1e1f" d="M175.004,99.004C175.379,97.414 173.983,94.335 177.675,95.542C178.327,95.755 178.496,97.445 178.887,98.453C177.827,98.651 176.767,98.849 175.349,99.019C174.992,98.992 175,99 175.004,99.004z"/><path fill="#1d1c1c" d="M139.975,97.005C140.309,96.878 140.74,96.963 140.882,97.131C141.806,98.693 142.589,100.086 143.705,102.074C140.967,100.915 138.706,99.958 136.053,98.836C137.391,98.2 138.516,97.666 139.975,97.005z"/><path fill="#1e1e1f" d="M168.839,109.153C167.658,110.283 166.394,111.054 165.129,111.824C164.827,110.982 164.524,110.14 164.222,109.297C165.733,109.129 167.244,108.961 168.839,109.153z"/><path fill="#282727" d="M80.801,106.686C79.824,106.957 78.95,106.861 78.077,106.764C78.506,105.315 78.935,103.865 79.364,102.416C79.878,102.514 80.391,102.613 80.905,102.711C80.905,103.914 80.905,105.116 80.801,106.686z"/><path fill="#282727" d="M79.28,127.843C79.078,125.983 79.149,123.859 79.253,121.345C79.624,120.952 79.965,120.951 80.56,120.959C80.394,123.173 79.974,125.377 79.28,127.843z"/><path fill="#1e1e1f" d="M171.695,104.933C171.82,106.667 171.82,108.104 171.82,109.54C171.47,109.634 171.12,109.728 170.77,109.822C170.337,108.092 169.905,106.363 169.472,104.633C170.171,104.633 170.87,104.634 171.695,104.933z"/><path fill="#f3f3f3" d="M118.821,126.417C118.823,125.825 118.825,125.232 118.914,124.005C119.341,123.134 119.68,122.898 120.221,122.91C121.207,123.364 121.99,123.571 123.028,123.98C123.47,124.296 123.656,124.409 123.842,124.522C123.403,125.26 122.965,125.998 122.116,126.787C121.707,126.837 121.56,127.013 121.294,126.73C120.292,126.437 119.557,126.427 118.821,126.417z"/><path fill="#282727" d="M120.019,122.662C119.68,122.898 119.341,123.134 118.898,123.7C117.884,123.595 116.974,123.161 116.031,122.361C115.998,121.995 116.059,121.912 116.292,121.766C117.207,121.071 117.89,120.521 118.743,120.218C119.254,120.593 119.595,120.721 119.955,121.151C119.988,121.856 120.004,122.259 120.019,122.662z"/><path fill="#1c1b1b" d="M114.389,86.996C113.734,86.538 113.468,86.076 113.11,85.363C114.472,84.727 115.927,84.341 117.382,83.954C117.604,84.464 117.826,84.974 118.048,85.484C116.958,85.987 115.868,86.49 114.389,86.996z"/><path fill="#171717" d="M103.117,89.855C102.912,91.132 102.659,92.484 102.407,93.835C101.776,93.718 101.146,93.602 100.516,93.486C100.058,92.132 98.93,90.671 102.823,89.893C103.218,89.835 103.071,89.929 103.117,89.855z"/><path fill="#171717" d="M101.675,85.962C101.959,86.454 101.891,86.896 101.889,87.672C100.759,88.073 99.563,88.142 98.366,88.21C98.333,87.446 98.3,86.681 98.267,85.917C99.286,85.916 100.305,85.915 101.675,85.962z"/><path fill="#282727" d="M113.798,116.496C114.127,116.156 114.301,116.119 114.745,116.433C115.363,118.494 115.711,120.203 116.059,121.912C116.059,121.912 115.998,121.995 115.964,122.036C115.168,120.318 114.406,118.558 113.798,116.496z"/><path fill="#242424" d="M54.782,80.338C56.047,81.193 57.002,81.91 57.958,82.627C57.64,82.999 57.323,83.371 57.005,83.743C55.967,82.774 53.315,83.57 54.782,80.338z"/><path fill="#171717" d="M110.391,106.145C109.653,105.836 109.182,105.647 108.45,105.47C108.746,104.72 109.302,103.96 109.858,103.2C110.702,104.238 111.546,105.276 112.389,106.313C111.812,106.297 111.235,106.281 110.391,106.145z"/><path fill="#242424" d="M48.819,85.843C50.787,85.332 52.755,84.821 54.724,84.31C54.811,84.765 54.899,85.22 54.987,85.675C53.269,85.809 51.551,85.944 49.419,86.049C49.005,86.019 48.819,85.843 48.819,85.843z"/><path fill="#242424" d="M184.983,134.017C183.94,132.727 182.898,131.438 181.855,130.148C182.392,129.854 182.928,129.56 183.465,129.266C183.977,130.598 184.488,131.93 185.001,133.63C185.001,133.999 184.983,134.017 184.983,134.017z"/><path fill="#f3f3f3" d="M124.967,121.014C125.165,121.976 125.363,122.939 125.269,124.044C124.976,124.187 124.565,124.053 124.565,124.053C124.565,124.053 124.186,124.26 124.014,124.391C123.656,124.409 123.47,124.296 123.117,123.597C122.861,121.717 122.773,120.424 122.686,119.13C122.877,119.109 123.069,119.088 123.651,119.335C124.35,120.074 124.658,120.544 124.967,121.014z"/><path fill="#202121" d="M137.155,110.943C137.573,110.963 137.99,110.983 138.621,111.365C138.791,111.886 138.683,112.059 138.716,112.199C138.787,112.495 138.93,112.772 139.044,113.057C139.044,113.057 139.002,113 138.718,112.903C138.014,113.565 137.595,114.324 136.886,115.08C136.405,115.07 136.213,115.062 136.021,115.055C136.021,115.055 135.964,115.006 135.98,114.619C136.383,113.135 136.769,112.039 137.155,110.943z"/><path fill="#242424" d="M185.999,133.475C186.181,135.813 186.311,138.185 186.441,140.557C186.075,140.591 185.708,140.626 185.341,140.66C185.22,138.728 185.098,136.796 184.98,134.441C184.983,134.017 185.001,133.999 185.009,133.989C185.2,133.907 185.383,133.836 185.813,133.605C186.061,133.446 185.947,133.509 185.999,133.475z"/><path fill="#1e1e1f" d="M176.253,90.661C176.132,89.336 176.317,87.947 176.502,86.558C176.999,86.666 177.497,86.774 177.995,86.882C177.516,88.12 177.038,89.359 176.253,90.661z"/><path fill="#282727" d="M83.057,113.829C82.65,113.045 82.569,112.339 82.488,111.633C83.156,111.857 83.825,112.082 84.493,112.307C84.123,112.84 83.752,113.374 83.057,113.829z"/><path fill="#1e1e1f" d="M180.965,87.348C181.057,88.503 180.831,89.666 180.606,90.828C180.117,90.655 179.629,90.482 179.14,90.309C179.642,89.325 180.144,88.34 180.965,87.348z"/><path fill="#242424" d="M51.382,88.553C51.721,89.434 51.812,90.528 51.903,91.621C51.401,91.572 50.898,91.523 50.395,91.473C50.642,90.57 50.888,89.668 51.382,88.553z"/><path fill="#1e1e1f" d="M172.54,112.611C171.722,113.014 171.043,113.116 170.364,113.218C170.436,112.633 170.508,112.049 170.58,111.464C171.279,111.746 171.979,112.028 172.54,112.611z"/><path fill="#141414" d="M189.025,78.548C189.497,79.485 189.64,80.419 189.783,81.352C189.314,81.375 188.845,81.398 188.376,81.421C188.483,80.462 188.59,79.503 189.025,78.548z"/><path fill="#242424" d="M47.874,79.763C48.701,79.87 49.293,80.229 49.884,80.587C49.497,81.01 49.11,81.432 48.723,81.855C48.361,81.241 47.999,80.628 47.874,79.763z"/><path fill="#1d1c1c" d="M143.722,73.731C143.06,73.016 142.691,72.321 142.322,71.626C142.678,71.506 143.034,71.387 143.39,71.267C143.599,72.095 143.807,72.923 143.722,73.731z"/><path fill="#141414" d="M119.951,50.953C119.392,50.267 118.833,49.581 118.274,48.895C118.632,48.659 118.99,48.423 119.348,48.187C119.735,49.014 120.122,49.841 120.256,50.836C120.002,51.003 119.951,50.953 119.951,50.953z"/><path fill="#282727" d="M83.127,117.147C82.754,117.724 82.344,117.982 81.561,118.307C81.446,117.393 81.704,116.411 81.963,115.43C82.339,115.896 82.715,116.362 83.127,117.147z"/><path fill="#eaebeb" d="M129.005,34.633C128.727,34.026 128.568,33.054 128.744,32.04C129.093,32.755 129.109,33.512 129.005,34.633z"/><path fill="#282727" d="M137.109,119.531C138.092,119.127 139.075,118.722 140.058,118.317C140.143,118.668 140.227,119.019 140.312,119.37C139.494,119.494 138.676,119.618 137.495,119.639C137.132,119.535 137.109,119.531 137.109,119.531z"/><path fill="#c0c1c1" d="M121.56,127.013C121.56,127.013 121.707,126.837 121.808,126.891C121.237,127.693 120.565,128.441 119.892,129.188C119.535,128.642 119.178,128.096 119.254,127.223C120.311,126.935 120.936,126.974 121.56,127.013z"/><path fill="#d1d2d2" d="M136.954,104.98C137.222,106.228 137.489,107.475 137.337,108.782C136.69,108.55 136.462,108.259 136.235,107.968C136.235,107.968 136.074,108.175 136.144,107.839C136.461,106.662 136.707,105.821 136.954,104.98z"/><path fill="#1d1c1c" d="M144.904,79.144C143.808,78.878 142.814,78.45 141.821,78.022C141.958,77.688 142.096,77.354 142.234,77.02C142.958,77.31 143.683,77.601 144.702,77.944C144.996,77.996 145,78 145.045,78.174C145.09,78.347 145.231,78.672 145.231,78.672C145.231,78.672 145.007,78.982 144.904,79.144z"/><path fill="#c7c7c8" d="M137.175,115.083C137.595,114.324 138.014,113.565 138.751,112.917C139.053,113.696 139.039,114.365 138.714,115.531C138.319,116.369 138.234,116.71 138.149,117.052C138.149,117.052 138.041,116.98 137.614,117.008C136.948,117.084 136.709,117.132 136.47,117.18C136.544,116.993 136.618,116.805 136.9,116.108C137.13,115.427 137.153,115.255 137.175,115.083z"/><path fill="#e4e4e4" d="M137.036,110.9C136.769,112.039 136.383,113.135 135.975,114.582C135.72,113.696 135.486,112.46 135.803,111.101C136.353,110.977 136.767,111.06 136.767,111.06C136.767,111.06 136.917,110.857 137.036,110.9z"/><path fill="#1e1e1f" d="M178.861,109.637C178.371,109.781 177.899,109.654 177.428,109.526C177.606,109.157 177.785,108.788 177.963,108.419C178.268,108.734 178.574,109.05 178.861,109.637z"/><path fill="#a8a9a9" d="M136.292,117.367C136.709,117.132 136.948,117.084 137.551,116.996C137.747,117.528 137.58,118.1 137.261,119.101C137.109,119.531 137.132,119.535 137.103,119.528C136.754,118.865 136.433,118.209 136.292,117.367z"/><path fill="#282727" d="M136.589,104.985C136.707,105.821 136.461,106.662 136.026,107.783C135.837,108.063 135.377,108.017 135.204,107.635C134.947,106.552 134.862,105.852 134.777,105.152C135.259,105.098 135.741,105.044 136.589,104.985z"/><path fill="#1e1e1f" d="M166.354,104.399C166.953,104.146 167.43,104.165 167.906,104.185C167.767,104.626 167.628,105.066 167.488,105.507C167.069,105.229 166.651,104.951 166.354,104.399z"/><path fill="#141414" d="M120.027,51.029C119.73,51.545 119.409,52.036 119.087,52.527C118.88,52.347 118.674,52.166 118.468,51.986C118.779,51.677 119.089,51.368 119.675,51.006C119.951,50.953 120.002,51.003 120.027,51.029z"/><path fill="#141414" d="M113.906,73.934C114.329,73.424 114.752,72.913 115.175,72.403C115.02,72.937 114.865,73.472 114.369,74.019C114.028,74.031 113.906,73.934 113.906,73.934z"/><path fill="#e2e3e2" d="M148.028,64.25C148.459,64.606 148.858,65.321 149.257,66.036C148.978,66.157 148.698,66.278 148.418,66.399C148.277,65.802 148.136,65.205 148.028,64.25z"/><path fill="#202121" d="M149.519,60.922C149.781,60.559 150.304,60.24 150.827,59.92C150.912,60.148 150.997,60.376 151.083,60.605C150.648,60.724 150.214,60.844 149.519,60.922z"/><path fill="#d9dbd9" d="M161.453,136.457C160.901,136.991 160.521,137.204 160.141,137.417C160.349,136.626 160.558,135.836 160.767,135.045C161.053,135.408 161.339,135.772 161.453,136.457z"/><path fill="#1c1b1b" d="M115.457,90.087C115.122,89.704 115.064,89.217 115.002,88.363C115.244,88.658 115.489,89.32 115.457,90.087z"/><path fill="#1e1e1f" d="M175.432,114.51C174.944,114.452 174.646,114.207 174.347,113.962C174.543,113.773 174.738,113.584 174.933,113.394C175.162,113.704 175.392,114.014 175.432,114.51z"/><path fill="#d1d2d2" d="M134.54,105.345C134.862,105.852 134.947,106.552 134.975,107.605C134.714,107.151 134.509,106.345 134.54,105.345z"/><path fill="#1d1c1c" d="M144,86C144.45,86.153 144.901,86.305 145.353,86.456C145.22,86.735 145.087,87.013 144.954,87.292C144.649,87.03 144.344,86.769 144.02,86.253C144.001,85.999 144,86 144,86z"/><path fill="#f3f3f3" d="M136.908,110.789C136.767,111.06 136.353,110.977 136.143,110.978C135.951,110.217 135.97,109.454 136.112,108.33C136.462,108.259 136.69,108.55 137.066,109.077C137.159,109.715 137.104,110.117 136.908,110.789z"/><path fill="#141414" d="M130.052,19.849C129.953,20.105 129.477,19.981 129.243,20.056C129.36,19.548 129.711,18.966 130.061,18.384C130.091,18.787 130.121,19.19 130.052,19.849z"/><path fill="#1c1b1b" d="M112.78,82.395C113.204,82.534 113.463,82.806 113.699,83.097C113.71,83.11 113.511,83.292 113.41,83.396C113.144,83.107 112.877,82.819 112.78,82.395z"/><path fill="#171717" d="M104.389,122.342C104.814,122.595 105.066,123.029 105.221,123.709C104.822,123.477 104.519,122.999 104.389,122.342z"/><path fill="#5f5b5f" d="M121.294,126.73C120.936,126.974 120.311,126.935 119.223,126.817C118.759,126.738 118.694,126.559 118.757,126.488C119.557,126.427 120.292,126.437 121.294,126.73z"/><path fill="#141414" d="M114.086,74.083C113.957,74.538 113.768,74.941 113.58,75.344C113.563,74.972 113.546,74.599 113.717,74.081C113.906,73.934 114.028,74.031 114.086,74.083z"/><path fill="#1d1c1c" d="M138.731,77.594C138.857,77.437 139.075,77.415 139.292,77.393C139.136,77.505 138.979,77.617 138.731,77.594z"/><path fill="#eaebeb" d="M124.648,31.993C124.745,32.469 124.535,33.06 124.027,33.785C123.934,33.315 124.137,32.711 124.648,31.993z"/><path fill="#c7c7c8" d="M139.405,113.11C138.93,112.772 138.787,112.495 138.716,112.199C138.683,112.059 138.791,111.886 138.935,111.372C139.279,111.732 139.523,112.447 139.405,113.11z"/><path fill="#f9f9f9" d="M26.251,134.763C26.511,135.191 26.617,135.763 26.722,136.335C26.445,136.134 26.168,135.933 25.837,135.463C25.785,135.192 26.095,134.906 26.251,134.763z"/><path fill="#242424" d="M49.093,86.112C48.968,86.162 48.755,86.119 48.68,85.959C48.819,85.843 49.005,86.019 49.093,86.112z"/><path fill="#141414" d="M119.532,46.551C119.478,46.583 119.586,46.519 119.532,46.551z"/><path fill="#141414" d="M113.552,67.469C113.587,67.527 113.518,67.412 113.552,67.469z"/><path fill="#1d1c1c" d="M139.152,95.496C139.394,95.325 139.776,95.321 140.123,95.654C139.79,95.964 139.524,95.855 139.152,95.496z"/><path fill="#313131" d="M136.886,115.08C137.153,115.255 137.13,115.427 136.958,115.812C136.554,115.882 136.341,115.693 136.095,115.256C136.213,115.062 136.405,115.07 136.886,115.08z"/><path fill="#202121" d="M138.352,116.889C138.234,116.71 138.319,116.369 138.648,115.9C138.779,116.091 138.667,116.409 138.352,116.889z"/><path fill="#0a0a0a" d="M116.292,121.766C115.711,120.203 115.363,118.494 115.01,116.4C118.089,113.624 119.229,115.213 119.806,118.646C119.966,119.011 119.973,118.928 119.628,118.852C119.046,119.174 118.809,119.572 118.572,119.97C117.89,120.521 117.207,121.071 116.292,121.766z"/><path fill="#0a0a0a" d="M125.367,121.01C124.658,120.544 124.35,120.074 123.938,119.304C125.46,118.119 127.085,117.234 128.863,116.655C128.933,119.113 129.113,121.475 125.367,121.01z"/><path fill="#1e1e1f" d="M122.315,119.11C122.773,120.424 122.861,121.717 122.861,123.394C121.99,123.571 121.207,123.364 120.221,122.91C120.004,122.259 119.988,121.856 120.042,120.804C120.177,120.01 120.321,119.847 120.293,119.722C120.232,119.448 120.085,119.192 119.973,118.928C119.973,118.928 119.966,119.011 119.925,119.002C120.571,119.024 121.258,119.057 122.315,119.11z"/><path fill="#0a0a0a" d="M121.826,149.85C121.863,149.152 122.132,148.657 122.878,147.284C122.878,148.831 122.878,149.392 122.702,150.204C122.37,150.321 122.214,150.188 121.826,149.85z"/><path fill="#0a0a0a" d="M145.371,78.624C145.231,78.672 145.09,78.347 145.047,78.176C145.392,78.05 145.561,78.24 145.371,78.624z"/><path fill="#0a0a0a" d="M146.48,80.499C146.454,80.449 146.506,80.549 146.48,80.499z"/><path fill="#ececec" d="M119.628,118.852C120.085,119.192 120.232,119.448 120.293,119.722C120.321,119.847 120.177,120.01 120.024,120.502C119.595,120.721 119.254,120.593 118.743,120.218C118.809,119.572 119.046,119.174 119.628,118.852z"/></svg>