<svg xmlns="http://www.w3.org/2000/svg" viewBox="0 0 234 103" xml:space="preserve"><path fill="#060607" d="M207.121 82.34c-8.178.556-16.356 1.11-25.2 1.793-1.52-.238-2.347-.708-3.236-.95-3.9-1.057-7.924-1.76-11.692-3.162-2.634-.98-4.033-2.581-3.407-6.434 1.442-8.888 1.677-17.972 2.47-27.828-11.41-3.367-23.317-1.3-35.523-1.663-7.477.04-14.495.171-21.789.236-.766.176-1.256.418-2.124.608-1.119.103-1.86.258-3.026.329-5.354-.47-10.286-1.18-15.216-1.166-7.286.02-14.57.589-21.858.84-1.636.055-3.583.282-4.875-.46-7.454-4.28-10.891-10.934-10.732-19.49.494-1.083.987-2.166 2.002-3.622 1.043-1.709 1.565-3.044 2.087-4.38 6.25-.577 12.492-1.373 18.755-1.62 2.474-.097 4.995 1.03 8.063 2.013.178 6.441-.377 12.468-.44 18.5-.01 1.021 1.952 2.618 3.263 2.966 1.92.51 4.074.131 6.325.131 0-5.609.187-10.403-.09-15.17C90.764 21.843 89.656 19.934 89 18c-.702-4.636.628-7.795 5.935-7.735 9.44.106 18.879.317 28.779.873 1.09 2.68 1.938 4.936 2.307 7.267.793 5.015.72 10.268 2.255 15.019.735 2.275 4.195 3.855 6.7 5.246.635.351 3.335-1.15 3.398-1.936.501-6.255 2.251-12.663-1.214-18.67 1.577-4.199 5.206-4.938 9.593-4.985 1.468.027 2.369-.313 3.27-.654 8.794 1.156 18.23-.63 25.96 6.386.045 1.23.038 1.728-.176 2.525-3.835 2.489-3.8 5.985-3.872 9.668-.217 10.966-.293 10.984 10.89 11.007h.497c5.741.031 7.969 2.04 8.695 7.78.56 4.422.826 8.92 1.867 13.227.635 2.628 2.491 4.96 3.799 7.426l1.638-.726c-.384-8.6-.98-17.198-1.047-25.8-.027-3.377-1.338-5.351-3.708-6.988 3-3.488 9.754-1.298 10.548-7.388-3.341-1.95-5.697-1.237-7.799 1.715-1.498 2.103-3.492 3.854-5.628 5.862-4.414.436-8.465.772-13.101 1.157 0-3.775-.124-6.874.039-9.957.13-2.459.61-4.899 1.084-7.538.2-.665.253-1.14.306-1.614 6.514 1.034 13.126 1.66 19.517 3.202 8.36 2.015 11.387 6.945 11.815 16.505.364 8.125 1.117 16.233 1.764 24.343.264 3.297 1.792 5.431 5.34 6.143 3.527.706 6.95 1.931 10.418 2.929l-.06 1.628h-33.468l-.428 2.635c3.762 1.14 7.523 2.28 11.761 3.795.466.916.457 1.455.447 1.994M65.506 24.568l-1.27-4.455-3.162 4.446c1.518.504 3.036 1.007 4.667 2.24l-3.224 10.959c7.228 2.61 7.488 2.428 7.533-4.409.018-2.76.003-5.52.003-8.33-1.702 0-2.861 0-4.547-.451M171.558 61.23c.414 2.596.82 5.194 1.243 7.788.577 3.533 2.618 4.632 5.686 3.756.745-2.312 1.867-4.334 1.964-6.403.194-4.165-.78-8.448-.17-12.517 1.138-7.598 1.466-7.563-6.467-7.763-.902-.023-1.811.233-2.25.294 0 4.933 0 9.458-.006 14.845M103.97 28.767l1.641 11.943c4.92-1.32 6.697-3.648 6.446-7.805-.257-4.244-.057-8.515-.057-13.24H98.2c4.522 1.178 5.65 4.317 5.77 9.102m46.782-2.361c.266 2.463.779 4.929.743 7.387-.065 4.551 2.395 5.456 6.575 5.057l.89-13.954c-2.995.193-5.708.368-8.208 1.51m3.636-6.155 6.368.9c-.753-1.976-3.379-2.998-10.65-3.8 1.176.92 2.352 1.84 4.282 2.9m-96.64 4.403c.693-.386 2.025-.973 1.977-1.124-.32-1.01-.933-1.927-1.451-2.874l-1.323 1.252c.097.754.195 1.508.796 2.746"/><path fill="#080808" d="M117.978 86.953c-16.4 3.195-32.6 3.647-48.434-2.988-2.191-.918-4.87-.78-7.334-.922-8.103-.468-16.212-.846-24.319-1.247-3.413-.169-5.42-1.538-5.838-5.308-.495-4.446-2.443-7.71-7.905-6.53-1.107.24-2.39.213-3.476-.097-3.686-1.052-7.149-2.055-6.667-7.359 1.06-11.671 1.684-23.383 2.507-35.384 6.598-1.996 12.615-4.044 18.765-5.549 2.02-.494 4.383.42 6.715 1.453 1.039 3.672 2.381 6.54 2.672 9.51.132 1.349-1.751 4.055-2.842 4.12-2.282.138-5.63-.33-6.781-1.866-2.979-3.974-6.793-2.458-10.32-2.55-.868-.023-2.517 1.705-2.556 2.678-.238 6.012-.12 12.039-.12 18.06l2.314.153c.55-3.6.942-7.234 1.729-10.781.293-1.323 1.508-2.441 2.303-3.653.861 1.094 2.202 2.078 2.486 3.307.605 2.614.66 5.354.942 8.043 1.23-4.797 2.482-9.542 8.376-9.913 3.4-.214 6.977.207 10.281 1.075 8.44 2.22 10.002 4.58 10.063 13.211.027 3.81.19 7.625.486 11.423.454 5.812 3.673 10.34 7.925 10.961 1.02-6.833 1.768-13.728 3.18-20.485.705-3.376-.15-8.787 4.725-9.166 8.039-.626 16.177.03 24.284.56 2.507 12.068 5.004 23.72 7.501 35.373l1.096-1.049zM94.029 72.332 92.977 51.2H80.099l-3.417 25.62h4.62l2.947-5.5c3.02 3.736.703 10.76 8.49 9.499.441-2.488.89-5.02 1.29-8.488M49.994 53.477V45.27h-9.676c-1.751 7.597-3.576 14.966-5.041 22.406-.244 1.242.788 3.754 1.722 4.033 4.387 1.311 8.946 2.047 14.23 3.153-.476-7.89-.855-14.155-1.235-21.386"/><path fill="#060606" d="M171.993 89.924c-11.712.347-23.429 1.035-35.135.88-4.947-.066-9.87-1.907-15.224-3.315 2.882-13.642 6.184-26.912 9.934-40.299 5.413-.159 10.385-.043 15.339-.29 4.06-.203 5.722 1.856 6.069 5.491.706 7.398 1.196 14.82 2.097 22.194.557 4.558.497 9.831 7.064 10.963.188.906.238 1.59.285 2.222h10.837s-.212.245-.272.387c-.37.683-.682 1.225-.994 1.767m-36.967-33.428c-.999 2.52-3.508 5.863-2.678 7.388 1.646 3.025.297 4.912-.477 7.283-.703 2.152-1.274 4.347-1.902 6.523 8.042-6.84 8.945-16.272 11.083-25.255-3.887-1.42-4.903.878-6.026 4.061"/><path fill="#fbfbfb" d="M131.119 47.308c-3.301 13.27-6.603 26.539-9.854 40.192-.907.263-1.864.142-3.054-.263-2.98-1.924-5.727-3.564-8.475-5.204l-1.096 1.049c-2.497-11.653-4.994-23.305-7.126-35.439a35 35 0 0 1 2.504-2.29c.742-.155 1.483-.31 2.741-.186 1.098-.07 1.68-.42 2.261-.768 7.018-.132 14.036-.263 21.514.088.502 1.262.544 2.041.585 2.821"/><path fill="#f0f0f0" d="M103.594 45.269c-.289.686-1.001 1.29-2.09 1.959-8.472-.05-16.61-.705-24.649-.08-4.875.38-4.02 5.79-4.726 9.167-1.411 6.757-2.158 13.652-3.179 20.485-4.252-.621-7.471-5.15-7.925-10.96a162 162 0 0 1-.486-11.424c-.06-8.63-1.623-10.992-10.063-13.21-3.304-.87-6.88-1.29-10.28-1.076-5.895.37-7.148 5.116-8.377 9.913-.281-2.689-.337-5.43-.942-8.043-.284-1.229-1.625-2.213-2.486-3.307-.795 1.212-2.01 2.33-2.303 3.653-.787 3.547-1.18 7.181-1.73 10.781l-2.313-.152c0-6.022-.118-12.049.12-18.06.04-.974 1.688-2.702 2.556-2.68 3.527.093 7.341-1.423 10.32 2.551 1.152 1.537 4.5 2.004 6.781 1.867 1.091-.066 2.974-2.772 2.842-4.12-.29-2.971-1.633-5.839-2.529-9.146 2.674.27 5.33.939 8.381 1.607.238 8.555 3.675 15.21 11.129 19.49 1.292.741 3.24.514 4.875.458 7.288-.25 14.572-.82 21.858-.84 4.93-.012 9.862.697 15.216 1.167"/><path fill="#f4f5f5" d="M131.568 47.19c-.49-.662-.532-1.441-.574-2.612 11.745-.12 23.651-2.186 35.062 1.181-.793 9.856-1.028 18.94-2.47 27.828-.626 3.853.773 5.454 3.407 6.434 3.768 1.401 7.793 2.105 11.692 3.163.889.24 1.715.71 2.895 1.235a35 35 0 0 1-7.987 1.251c-1.501-.737-2.56-1.125-3.978-1.583-1.46.252-2.56.575-4.057.901a124 124 0 0 0-3.56.339c-6.428-.91-6.368-6.184-6.925-10.742-.901-7.373-1.391-14.796-2.097-22.194-.347-3.635-2.01-5.694-6.07-5.491-4.953.247-9.925.131-15.338.29"/><path fill="#f2f3f2" d="M136.754 18.048c3.871 6.023 2.121 12.431 1.62 18.686-.063.785-2.763 2.287-3.397 1.936-2.506-1.39-5.966-2.97-6.701-5.246-1.534-4.751-1.462-10.004-2.255-15.019-.37-2.331-1.217-4.588-1.885-7.288 1.255.186 3.71.886 3.667 1.363-.666 7.47 4.163 6.112 8.95 5.568"/><path fill="#f3f4f3" d="M88.596 17.998c1.06 1.937 2.168 3.846 2.282 5.812.277 4.768.09 9.562.09 15.171-2.251 0-4.406.378-6.325-.13-1.311-.35-3.273-1.946-3.263-2.967.063-6.032.618-12.059.834-18.491 1.877-.069 3.927.267 6.382.605"/><path fill="#242424" d="M162.137 85.548c.915-.333 1.97-.444 3.74-.442 1.844-.24 2.971-.594 4.098-.948 1.058.387 2.117.775 3.263 1.51-.038.577-.198.796-.277 1.042-.035.11.093.272.222.735-3.62.325-7.317.325-10.761.325-.047-.631-.097-1.316-.285-2.222"/><path fill="#f4f5f5" d="M207.385 82.558c-.254-.756-.245-1.295-.297-2.234 1.515.092 3.092.584 4.67 1.075l-.224 1.377c-1.295 0-2.59 0-4.149-.218"/><path fill="#2e2f2f" d="M54.754 16.757c-.274 1.57-.796 2.905-1.641 4.306-.635-1.154-.945-2.373-1.299-3.764.92-.265 1.805-.52 2.94-.542"/><path fill="#242424" d="M172.384 90.012c-.079-.63.233-1.172.702-1.983.836-.166 1.515-.063 2.5.35a4 4 0 0 1 .393 1.613c-1.068.036-2.136.072-3.595.02"/><path fill="#181818" d="M176.013 21.036c.008-.497.015-.994.048-1.863 1.085-.357 2.144-.341 3.579-.166.322.635.27 1.11-.368 1.674a133 133 0 0 1-3.259.355"/><path fill="#121212" d="M149.717 12.336c-.595.43-1.496.77-2.568.857.64-.484 1.45-.715 2.568-.857"/><path fill="#f4f5f5" d="M176.308 89.978c-.357-.42-.386-.856-.52-1.61.752-.15 1.608.022 2.465.193-.539.468-1.078.935-1.945 1.417"/><path fill="#f3f3f3" d="M175.807 21.336c1.097-.388 1.988-.476 3.317-.464.112 2.548-.369 4.988-.499 7.447-.163 3.083-.04 6.182-.04 9.957 4.637-.385 8.688-.721 13.468-1.145 1.219-.076 1.708-.065 2.197-.054 2.686 1.49 3.997 3.464 4.024 6.84.068 8.603.663 17.2 1.047 25.8l-1.638.727c-1.308-2.466-3.164-4.798-3.799-7.426-1.041-4.308-1.308-8.805-1.867-13.227-.726-5.74-2.954-7.749-8.695-7.78h-.498c-11.182-.023-11.106-.041-10.89-11.007.073-3.683.038-7.18 3.873-9.668"/><path fill="#f3f3f3" d="M171.561 60.8c.004-4.956.004-9.48.004-14.414.438-.06 1.347-.317 2.249-.294 7.933.2 7.605.165 6.466 7.763-.61 4.069.365 8.352.17 12.517-.096 2.07-1.218 4.09-1.963 6.403-3.068.876-5.11-.223-5.686-3.756a298 298 0 0 1-1.24-8.22"/><path fill="#f1f1f1" d="M103.962 28.33c-.113-4.348-1.24-7.487-5.763-8.665H112c0 4.725-.199 8.996.058 13.24.251 4.157-1.526 6.484-6.446 7.805a1025 1025 0 0 1-1.649-12.38"/><path fill="#eff0f0" d="M150.645 25.922c2.607-.658 5.32-.833 8.316-1.026l-.891 13.954c-4.18.4-6.64-.506-6.575-5.057.036-2.458-.477-4.924-.85-7.87"/><path fill="#f5f5f5" d="M66.032 25.019h4.02c0 2.81.016 5.57-.002 8.33-.045 6.837-.305 7.018-7.533 4.409 1.064-3.617 2.144-7.288 3.284-11.58.116-.801.174-.98.231-1.16"/><path fill="#e6e6e6" d="M194.566 36.93c-.805.136-1.294.125-2.15.101 1.407-1.92 3.401-3.67 4.9-5.774 2.101-2.952 4.457-3.665 7.798-1.715-.794 6.09-7.547 3.9-10.548 7.388"/><path fill="#121212" d="M154.01 20.18c-1.552-.99-2.728-1.91-3.903-2.829 7.27.802 9.896 1.824 10.649 3.8a900 900 0 0 1-6.745-.97"/><path fill="#2e2f2f" d="M65.77 24.793c.205.405.147.584-.026 1.02-1.634-.247-3.152-.75-4.67-1.254l3.162-4.446c.675 2.366.972 3.41 1.533 4.68m-8.274-.381c-.35-.996-.447-1.75-.544-2.504l1.323-1.252c.518.947 1.132 1.864 1.451 2.874.048.15-1.284.738-2.23.882"/><path fill="#f0f0f0" d="M108.744 44.332c-.306.416-.887.764-1.608.887.352-.469.842-.711 1.608-.887"/><path fill="#fafafa" d="M94.054 72.8c-.425 3-.874 5.532-1.315 8.02-7.787 1.261-5.47-5.763-8.49-9.499l-2.947 5.5h-4.62l3.417-25.62h12.878c.348 6.998.7 14.064 1.077 21.598"/><path fill="#f8f9f9" d="M49.995 53.96c.38 6.748.758 13.013 1.235 20.903-5.285-1.106-9.844-1.842-14.231-3.153-.934-.279-1.966-2.791-1.722-4.033 1.465-7.44 3.29-14.81 5.041-22.406h9.676z"/><path fill="#efefef" d="M135.12 56.115c1.029-2.802 2.045-5.1 5.932-3.68-2.138 8.983-3.041 18.416-11.083 25.255.628-2.176 1.2-4.371 1.902-6.523.774-2.371 2.123-4.258.477-7.283-.83-1.525 1.679-4.867 2.772-7.769"/><path fill="#060606" d="M169.615 84.087c-.767.425-1.894.78-3.34 1.016.78-.441 1.88-.764 3.34-1.016"/></svg>