<svg xmlns="http://www.w3.org/2000/svg" viewBox="0 0 260 156" xml:space="preserve"><path fill="#070707" d="M234.358,50.871C234.358,52.131 234.358,53.392 234.358,55.829C231.347,57.379 227.188,59.519 221.936,62.221C224.96,63.367 227.096,64.264 229.288,64.988C232.114,65.921 235.201,66.316 237.766,67.701C239.748,68.771 242.77,72.026 242.449,72.551C240.915,75.065 242.392,79.504 237.586,80.136C232.235,80.84 226.91,81.968 221.689,83.346C218.23,84.26 214.972,85.938 211.625,87.274C211.734,88.064 211.843,88.855 211.952,89.646C215.898,90.41 219.94,90.855 223.768,92.008C230.499,94.035 238.817,93.64 241.291,103.318C235.752,108.763 227.995,109.496 220.329,110.393C218.042,110.661 215.687,110.405 213.42,110.759C212.493,110.904 210.89,112.431 210.995,112.647C213.201,117.175 208.983,117.614 206.906,118.127C201.361,119.496 195.624,120.08 189.968,121.003C185.998,121.651 182.035,122.344 178.069,123.017C178.087,123.466 178.105,123.916 178.123,124.366C179.651,124.999 181.416,125.341 182.644,126.341C184.055,127.491 186.22,129.636 185.89,130.623C185.083,133.036 186.651,136 182.614,137.947C168.549,144.728 154.087,148.898 138.41,147.576C131.876,147.025 125.342,146.011 118.937,144.614C116.58,144.1 114.595,141.876 112.441,140.432C113.891,138.366 115.342,136.3 117.206,133.645C113.928,133.645 110.546,133.589 107.167,133.657C101.41,133.772 95.614,134.411 89.915,133.914C87.501,133.703 83.407,134.274 82.856,129.348C82.768,128.565 77.12,128.033 74.041,128.027C66.297,128.013 60.906,123.558 55.284,119.575C57.787,113.074 61.447,108.543 67.557,106.579C73.092,104.8 78.723,103.32 84.188,101.053C78.876,97.838 73.514,97.652 67.871,98.661C60.433,99.991 53.532,98.389 45.898,93.686C48.097,92.404 49.498,91.587 50.899,90.77C50.766,90.355 50.633,89.941 50.499,89.526C40.454,88.226 30.409,86.927 19.273,85.486C20.83,83.131 21.391,82.282 21.364,82.323C20.08,80.102 18.018,78.12 18.39,76.848C19.145,74.263 20.673,71.019 22.841,69.892C30.128,66.105 37.54,62.282 46.288,62.899C48.998,63.09 51.785,62.187 54.535,61.786C53.65,55.792 55.427,53.732 61.785,52.407C64.265,51.89 66.688,51.104 69.137,50.44C69.157,49.883 69.177,49.326 69.198,48.769C66.634,47.936 64.08,47.073 61.505,46.276C57.706,45.1 53.836,44.127 50.104,42.77C47.222,41.723 47.518,40.024 48.881,37.382C52.719,29.946 59.702,29.984 66.439,29.192C66.925,29.135 67.499,29.424 67.919,29.261C77.511,25.548 87.576,28.892 97.302,27.268C97.788,27.187 98.563,27.41 98.747,27.158C103.747,20.316 112.107,23.096 118.625,20.482C121.335,19.395 125.521,21.947 129.022,22.896C130.008,23.163 130.994,24.019 131.896,23.909C136.771,23.317 141.61,22.43 146.481,21.797C149.718,21.376 153.1,20.543 156.221,21.064C163.024,22.201 169.76,23.881 176.391,25.796C178.206,26.32 180.364,28.2 180.931,29.929C181.873,32.8 179.916,34.674 176.982,35.533C173.922,36.429 170.942,37.601 167.928,38.652C168.023,39.256 168.118,39.859 168.213,40.462C171.816,40.462 175.46,40.801 179.013,40.381C184.051,39.785 188.497,39.8 193.331,42.537C196.314,44.226 201.011,42.658 204.887,43.057C210.768,43.663 216.644,44.499 222.445,45.634C226.656,46.457 230.741,47.921 234.839,49.693C234.65,50.481 234.504,50.676 234.358,50.871M41.721,70.967C44.13,70.242 46.539,69.517 49.736,68.825C55.494,67.078 62.028,67.183 67.082,61.819C65.286,60.881 64.068,60.244 63.697,60.05C61.667,61.776 60.449,63.449 58.828,64.064C54.863,65.571 50.712,66.588 45.878,67.738C43.721,68.377 41.565,69.015 38.739,69.626C37.496,70.108 36.252,70.59 34.351,71.134C33.555,72.386 32.759,73.639 31.216,74.998C30.465,75.162 29.126,75.195 29.057,75.509C28.6,77.573 28.707,79.483 32.212,79.796C32.898,80.772 33.584,81.749 34.214,82.1C33.997,82.063 33.78,82.026 33.562,81.989C33.801,82.203 34.039,82.416 34.915,81.931C38.606,81.863 42.297,81.796 46.803,81.703C51.346,83.112 55.89,84.521 61.09,86.133C58.967,87.985 57.813,88.992 56.392,90.231C62.072,94.036 67.852,93.293 73.571,92.59C81.095,91.665 88.064,93.01 94.653,97.875C93.856,102.196 91.081,104.695 87.053,105.919C83.739,106.927 80.321,107.623 77.068,108.789C76.03,109.161 75.373,110.596 74.541,111.545C81.315,110.439 87.105,108.668 92.74,106.497C95.735,105.342 98.463,103.494 102.046,102.009C105.493,98.188 104.996,96.216 99.889,94.272C91.879,91.468 83.788,89.533 75.147,90.553C71.179,91.021 67.11,90.632 62.162,90.632C63.34,88.011 63.887,86.795 64.65,85.097C62.379,84.189 60.488,83.141 58.465,82.685C54.344,81.757 50.152,81.148 45.279,80.08C43.243,79.431 41.175,78.867 39.181,78.109C36.772,77.193 35.775,75.589 37.821,72.913C38.872,72.239 39.923,71.566 41.721,70.967M166.273,133.869C165.54,133.226 164.806,132.582 163.945,131.827C163.218,133.554 162.65,134.903 161.953,135.662C158.41,133.673 155.523,136.863 152.236,136.901C152.088,136.902 151.942,137.039 150.895,136.953C144.464,136.949 138.033,136.982 131.602,136.923C128.935,136.899 126.466,136.561 130.016,133.03C130.91,130.519 127.746,125.689 124.223,125.399C118.187,124.902 112.09,125.144 105.095,125.066C101.716,124.829 95.808,125.44 95.395,124.208C93.607,118.877 89.133,120.25 85.808,119.096C81.751,117.688 77.519,116.788 73.363,115.668C73.105,116.43 72.848,117.193 72.59,117.956C77.189,123.852 85.733,119.586 91.254,123.532C91.068,124.508 90.87,125.545 90.422,127.894C96.347,127.509 101.673,127.162 107.93,126.804C114.353,126.697 120.943,125.862 126.027,131.722C124.449,133.411 122.871,135.1 120.852,137.261C124.173,137.944 127.345,139.075 130.545,139.158C137.676,139.344 144.821,139.006 152.402,139.495C156.004,139.887 160.055,141.85 162.738,136.782C164.178,136.392 165.618,136.003 167.786,135.37C169.201,134.85 170.616,134.33 172.703,133.742C173.148,133.162 173.594,132.582 173.914,131.476C173.631,131.261 173.348,131.045 173.06,130.05C172.967,129.07 173.25,127.735 172.716,127.17C170.372,124.682 167.793,122.416 165.059,119.844C172.956,117.523 179.723,115.533 186.49,113.544C177.25,112.337 168.771,114.253 161.221,119.329C160.48,119.827 160.616,123.594 161.411,124.073C164.949,126.203 168.193,128.225 168.028,133.508C167.684,133.667 167.339,133.826 166.273,133.869M201.635,109.202C205.467,107.404 209.298,105.606 213.129,103.808C207.547,104.261 201.442,104.64 196.976,107.543C194.113,109.404 191.597,111.362 188.215,112.102C187.796,112.194 187.506,112.872 186.23,114.354C190.681,113.909 193.869,113.591 197.826,113.35C199.909,113.162 201.978,112.958 201.635,109.202M162.868,35.295C165.333,34.312 167.797,33.329 170.588,32.217C165.539,26.789 159.626,26.691 152.159,27.187C157.296,28.434 161.134,29.365 165.888,30.52C164.094,32.184 163.055,33.149 161.299,34.14C158.505,35.559 155.711,36.979 151.523,39.107C154.411,41.389 156.44,43.692 158.988,44.824C161.965,46.146 165.396,46.447 168.63,47.19C168.777,46.62 168.924,46.05 169.071,45.48C167.263,44.979 165.326,44.735 163.68,43.91C161.71,42.921 159.99,41.435 158.161,40.165C159.484,38.622 160.807,37.08 162.868,35.295M74.773,45.903C75.855,47.415 76.938,48.927 77.75,50.061C78.722,48.909 79.484,48.007 80.064,47.319C79.647,46.768 78.96,45.859 77.951,44.26C75.478,43.314 72.941,42.503 70.558,41.368C69.228,40.735 68.156,39.563 66.967,38.634C68.23,37.71 69.375,36.488 70.783,35.932C72.814,35.13 75.035,34.812 77.84,34.123C69.615,31.276 64.455,36.18 57.131,38.955C63.988,41.437 69.256,43.343 74.773,45.903M208.757,50.214C211.384,51.16 213.953,52.362 216.655,52.978C219.096,53.535 221.683,53.453 224.206,53.652C224.243,53.097 224.279,52.542 224.315,51.986C212.548,45.255 199.831,48.215 187.371,48.579C190.055,49.442 192.792,49.814 195.539,49.91C199.65,50.055 203.767,50.007 208.757,50.214M166.517,88.908C166.726,84.226 162.834,85.28 160.09,83.767C161.142,87.601 163.516,91.423 162.488,93.723C161.176,96.658 157.114,98.363 154.238,100.599C154.44,100.993 154.642,101.388 154.845,101.783C159.492,99.621 164.139,97.459 168.132,95.601C167.142,92.759 166.559,91.086 166.517,88.908M106.12,47.388C103.688,47.976 101.255,48.564 97.57,49.455C102.656,53.751 98.487,55.168 96.519,57.892C99.177,59.156 101.533,60.277 103.888,61.398C104.035,61.137 104.181,60.876 104.328,60.615C103.413,59.275 102.498,57.936 101.462,56.419C103.091,55.347 104.38,54.498 105.651,53.661C101.713,51.528 101.891,49.649 106.12,47.388M210.477,58.898C208.169,60.163 206.956,62.122 209.459,63.843C212.044,65.62 215.236,66.515 218.162,67.796C216.89,65.113 214.355,63.509 214.189,61.69C214.029,59.926 216.304,57.941 218.094,55.137C215.335,56.478 213.228,57.502 210.477,58.898M93.352,32.069C89.069,32.259 84.786,32.449 80.503,32.64C89.548,33.526 98.821,35.851 107.18,30.175C102.883,30.806 98.585,31.437 93.352,32.069M133.493,30.018C136.839,29.672 140.185,29.327 143.531,28.981C143.492,28.8 143.452,28.619 143.413,28.438C133.961,27.58 124.509,26.722 115.057,25.865C115.023,26.372 114.988,26.88 114.953,27.388C120.828,28.265 126.702,29.142 133.493,30.018M115.091,110.945C119.492,111.764 123.894,112.584 128.295,113.403C125.716,111.099 123.055,109.081 120.086,108.39C117.996,107.903 115.486,109.219 113.164,109.731C113.576,110.098 113.988,110.466 115.091,110.945M180.814,84.641C179.389,83.956 177.963,83.27 175.95,82.302C178.755,86.437 180.982,89.719 183.209,93.001C183.601,92.768 183.994,92.534 184.386,92.3C183.415,89.885 182.443,87.469 180.814,84.641M118.07,64.74C115.999,63.686 113.927,62.633 111.856,61.577C112.192,66.533 115.405,67.923 124.811,66.465C122.11,65.772 120.47,65.352 118.07,64.74z"/><path fill="#131312" d="M31.41,94.308C36.658,96.06 42.512,95.927 44.74,102.016C37.785,109.105 18.991,108.667 11.296,102.166C16.145,95.103 23.286,93.985 31.41,94.308M25.825,101.139C27.622,101.106 29.451,101.271 31.208,100.986C32.979,100.699 34.679,99.967 36.921,99.27C30.582,95.89 24.957,96.318 19.245,99.524C21.277,100.067 23.118,100.559 25.825,101.139z"/><path fill="#131312" d="M190.915,18.924C182.645,22.2 175.436,19.37 167.968,16.953C172.877,9.293 189.347,8.717 196.823,16.423C194.766,17.357 193.046,18.137 190.915,18.924z"/><path fill="#131313" d="M102.273,12.471C105.618,13.657 108.559,14.704 112.07,15.954C105.434,22.225 91.121,22.691 82.058,17.359C88.057,12.1 94.765,11.532 102.273,12.471z"/><path fill="#171717" d="M235.306,114.116C240.561,114.274 245.333,114.598 248.353,119.245C242.731,124.809 231.361,124.929 225.04,119.571C226.855,115.108 231.087,115.016 235.306,114.116z"/><path fill="#161616" d="M204.319,126.343C209.046,126.818 213.678,126.786 216.202,131.476C209.075,136.273 200.901,136.479 194.844,132.016C196.41,127.776 200.285,127.295 204.319,126.343z"/><path fill="#101010" d="M31.311,53.87C30.785,52.762 30.165,51.501 30.555,50.935C34.132,45.745 45.086,46.784 48.365,52.83C42.945,55.781 37.405,55.882 31.311,53.87z"/><path fill="#131312" d="M49.941,134.982C47.945,134.316 46.335,133.722 44.612,133.085C49.072,125.977 56.47,125.889 62.091,133.606C57.699,134.147 54.013,134.6 49.941,134.982z"/><path fill="#161616" d="M203.559,30.757C206.744,31.353 209.556,32.017 213.234,32.887C207.875,37.471 203.263,37.659 196.225,33.846C199.038,32.626 201.112,31.726 203.559,30.757z"/><path fill="#1b1a1a" d="M241.859,86.868C246.942,83.88 251.197,84.574 255.267,88.638C251.311,92.202 246.966,91.722 242.674,90.502C242.038,90.321 241.924,88.308 241.859,86.868z"/><path fill="#292829" d="M82.682,140.408C85.674,139.991 88.338,139.746 91.943,139.415C88.401,143.478 84.354,143.994 81.389,141.644C81.711,141.29 82.033,140.935 82.682,140.408z"/><path fill="#070707" d="M235.034,50.01C235.563,50.208 235.854,50.682 236.145,51.156C235.648,51.243 235.151,51.329 234.507,51.143C234.504,50.676 234.65,50.481 235.034,50.01z"/><path fill="#dcdddd" d="M45.989,80.408C50.152,81.148 54.344,81.757 58.465,82.685C60.488,83.141 62.379,84.189 64.65,85.097C63.887,86.795 63.34,88.011 62.162,90.632C67.11,90.632 71.179,91.021 75.147,90.553C83.788,89.533 91.879,91.468 99.976,94.947C98.538,95.475 97.012,95.327 95.322,95.164C95.584,95.823 95.815,96.405 95.642,97.033C94.971,97.115 94.703,97.153 94.435,97.191C88.064,93.01 81.095,91.665 73.571,92.59C67.852,93.293 62.072,94.036 56.392,90.231C57.813,88.992 58.967,87.985 61.09,86.133C55.89,84.521 51.346,83.112 46.378,81.496C45.937,80.994 45.948,80.7 45.989,80.408z"/><path fill="#e2e3e3" d="M168.16,132.953C168.193,128.225 164.949,126.203 161.411,124.073C160.616,123.594 160.48,119.827 161.221,119.329C168.771,114.253 177.25,112.337 186.49,113.544C179.723,115.533 172.956,117.523 165.059,119.844C167.793,122.416 170.372,124.682 172.716,127.17C173.25,127.735 172.967,129.07 173.142,130.695C173.495,131.561 173.767,131.781 174.039,132.001C173.594,132.582 173.148,133.162 172.383,133.412C171.694,131.584 171.326,130.086 170.73,127.668C169.565,130.064 168.862,131.508 168.16,132.953z"/><path fill="#dadada" d="M107,126.816C101.673,127.162 96.347,127.509 90.422,127.894C90.87,125.545 91.068,124.508 91.254,123.532C85.733,119.586 77.189,123.852 72.59,117.956C72.848,117.193 73.105,116.43 73.363,115.668C77.519,116.788 81.751,117.688 85.808,119.096C89.133,120.25 93.607,118.877 95.395,124.208C95.808,125.44 101.716,124.829 105.649,125.304C106.469,125.967 106.735,126.391 107,126.816z"/><path fill="#cfcfcf" d="M208.319,50.127C203.767,50.007 199.65,50.055 195.539,49.91C192.792,49.814 190.055,49.442 187.371,48.579C199.831,48.215 212.548,45.255 224.315,51.986C224.279,52.542 224.243,53.097 224.206,53.652C221.683,53.453 219.096,53.535 216.655,52.978C213.953,52.362 211.384,51.16 208.319,50.127z"/><path fill="#dddddd" d="M94.544,97.533C94.703,97.153 94.971,97.115 95.994,97.289C96.749,99 96.749,100.5 96.749,101.959C98.488,101.959 99.9,101.959 101.311,101.959C98.463,103.494 95.735,105.342 92.74,106.497C87.105,108.668 81.315,110.439 74.541,111.545C75.373,110.596 76.03,109.161 77.068,108.789C80.321,107.623 83.739,106.927 87.053,105.919C91.081,104.695 93.856,102.196 94.544,97.533z"/><path fill="#f6f7f6" d="M151.96,138.882C144.821,139.006 137.676,139.344 130.545,139.158C127.345,139.075 124.173,137.944 120.852,137.261C122.871,135.1 124.449,133.411 126.41,131.421C127.617,131.781 128.442,132.442 129.266,133.103C126.466,136.561 128.935,136.899 131.602,136.923C138.033,136.982 144.464,136.949 151.379,137.328C151.895,138.095 151.927,138.488 151.96,138.882z"/><path fill="#dbdbdb" d="M166.247,89.161C166.559,91.086 167.142,92.759 168.132,95.601C164.139,97.459 159.492,99.621 154.845,101.783C154.642,101.388 154.44,100.993 154.238,100.599C157.114,98.363 161.176,96.658 162.488,93.723C163.516,91.423 161.142,87.601 160.09,83.767C162.834,85.28 166.726,84.226 166.247,89.161z"/><path fill="#e5e6e5" d="M74.523,45.249C69.256,43.343 63.988,41.437 57.131,38.955C64.455,36.18 69.615,31.276 77.84,34.123C75.035,34.812 72.814,35.13 70.783,35.932C69.375,36.488 68.23,37.71 66.967,38.634C68.156,39.563 69.228,40.735 70.558,41.368C72.941,42.503 75.478,43.314 77.641,44.61C76.396,45.057 75.459,45.153 74.523,45.249z"/><path fill="#dbdbdb" d="M162.13,35.537C160.807,37.08 159.484,38.622 158.161,40.165C159.99,41.435 161.71,42.921 163.68,43.91C165.326,44.735 167.263,44.979 169.071,45.48C168.924,46.05 168.777,46.62 168.63,47.19C165.396,46.447 161.965,46.146 158.988,44.824C156.44,43.692 154.411,41.389 151.523,39.107C155.711,36.979 158.505,35.559 161.693,34.482C162.101,35.062 162.116,35.299 162.13,35.537z"/><path fill="#eeefee" d="M129.641,133.067C128.442,132.442 127.617,131.781 126.474,131.062C120.943,125.862 114.353,126.697 107.465,126.81C106.735,126.391 106.469,125.967 106.111,125.309C112.09,125.144 118.187,124.902 124.223,125.399C127.746,125.689 130.91,130.519 129.641,133.067z"/><path fill="#dedfde" d="M197.056,113.273C193.869,113.591 190.681,113.909 186.23,114.354C187.506,112.872 187.796,112.194 188.215,112.102C191.597,111.362 194.113,109.404 196.976,107.543C201.442,104.64 207.547,104.261 213.129,103.808C209.298,105.606 205.467,107.404 201.223,109.591C198.89,110.316 195.577,109.064 197.056,113.273z"/><path fill="#d5d6d6" d="M105.87,47.604C101.891,49.649 101.713,51.528 105.651,53.661C104.38,54.498 103.091,55.347 101.462,56.419C102.498,57.936 103.413,59.275 104.328,60.615C104.181,60.876 104.035,61.137 103.888,61.398C101.533,60.277 99.177,59.156 96.519,57.892C98.487,55.168 102.656,53.751 97.57,49.455C101.255,48.564 103.688,47.976 105.87,47.604z"/><path fill="#e5e6e5" d="M45.634,80.244C45.948,80.7 45.937,80.994 45.971,81.508C42.297,81.796 38.606,81.863 34.578,82.301C34.241,82.672 34.27,82.726 34.27,82.726C33.584,81.749 32.898,80.772 32.217,79.324C32.136,77.532 32.05,76.212 31.963,74.892C32.759,73.639 33.555,72.386 34.734,71.437C35.818,72.192 36.519,72.645 37.22,73.098C35.775,75.589 36.772,77.193 39.181,78.109C41.175,78.867 43.243,79.431 45.634,80.244z"/><path fill="#d2d3d3" d="M210.799,58.712C213.228,57.502 215.335,56.478 218.094,55.137C216.304,57.941 214.029,59.926 214.189,61.69C214.355,63.509 216.89,65.113 218.162,67.796C215.236,66.515 212.044,65.62 209.459,63.843C206.956,62.122 208.169,60.163 210.799,58.712z"/><path fill="#d2d3d3" d="M93.82,32.069C98.585,31.437 102.883,30.806 107.18,30.175C98.821,35.851 89.548,33.526 80.503,32.64C84.786,32.449 89.069,32.259 93.82,32.069z"/><path fill="#e9e9e8" d="M133.035,30.019C126.702,29.142 120.828,28.265 114.953,27.388C114.988,26.88 115.023,26.372 115.057,25.865C124.509,26.722 133.961,27.58 143.413,28.438C143.452,28.619 143.492,28.8 143.531,28.981C140.185,29.327 136.839,29.672 133.035,30.019z"/><path fill="#d5d6d6" d="M46.636,67.802C50.712,66.588 54.863,65.571 58.828,64.064C60.449,63.449 61.667,61.776 63.697,60.05C64.068,60.244 65.286,60.881 67.082,61.819C62.028,67.183 55.494,67.078 49.107,68.589C47.865,68.17 47.251,67.986 46.636,67.802z"/><path fill="#292829" d="M101.678,101.984C99.9,101.959 98.488,101.959 96.749,101.959C96.749,100.5 96.749,99 96.397,97.244C95.815,96.405 95.584,95.823 95.322,95.164C97.012,95.327 98.538,95.475 100.163,95.275C104.996,96.216 105.493,98.188 101.678,101.984z"/><path fill="#eeefee" d="M162.499,35.416C162.116,35.299 162.101,35.062 162.051,34.469C163.055,33.149 164.094,32.184 165.888,30.52C161.134,29.365 157.296,28.434 152.159,27.187C159.626,26.691 165.539,26.789 170.588,32.217C167.797,33.329 165.333,34.312 162.499,35.416z"/><path fill="#292829" d="M152.181,139.188C151.927,138.488 151.895,138.095 151.829,137.407C151.942,137.039 152.088,136.902 152.236,136.901C155.523,136.863 158.41,133.673 162.079,136.076C162.206,136.49 162.083,136.731 162.083,136.731C160.055,141.85 156.004,139.887 152.181,139.188z"/><path fill="#c6c6c6" d="M114.745,110.889C113.988,110.466 113.576,110.098 113.164,109.731C115.486,109.219 117.996,107.903 120.086,108.39C123.055,109.081 125.716,111.099 128.295,113.403C123.894,112.584 119.492,111.764 114.745,110.889z"/><path fill="#dedfde" d="M181.143,84.847C182.443,87.469 183.415,89.885 184.386,92.3C183.994,92.534 183.601,92.768 183.209,93.001C180.982,89.719 178.755,86.437 175.95,82.302C177.963,83.27 179.389,83.956 181.143,84.847z"/><path fill="#c9cac9" d="M118.45,64.836C120.47,65.352 122.11,65.772 124.811,66.465C115.405,67.923 112.192,66.533 111.856,61.578C113.927,62.633 115.999,63.686 118.45,64.836z"/><path fill="#c9cac9" d="M74.648,45.576C75.459,45.153 76.396,45.057 77.802,44.955C78.96,45.859 79.647,46.768 80.064,47.319C79.484,48.007 78.722,48.909 77.75,50.061C76.938,48.927 75.855,47.415 74.648,45.576z"/><path fill="#c6c6c6" d="M168.094,133.23C168.862,131.508 169.565,130.064 170.73,127.668C171.326,130.086 171.694,131.584 172.047,133.446C170.616,134.33 169.201,134.85 167.369,135.086C166.966,134.53 166.98,134.257 166.994,133.985C167.339,133.826 167.684,133.667 168.094,133.23z"/><path fill="#f9f9f9" d="M31.59,74.945C32.05,76.212 32.136,77.532 31.956,79.022C28.707,79.483 28.6,77.573 29.057,75.509C29.126,75.195 30.465,75.162 31.59,74.945z"/><path fill="#dadada" d="M197.441,113.312C195.577,109.064 198.89,110.316 201.164,109.981C201.978,112.958 199.909,113.162 197.441,113.312z"/><path fill="#e5e6e5" d="M46.257,67.77C47.251,67.986 47.865,68.17 48.714,68.573C46.539,69.517 44.13,70.242 41.138,70.666C40.172,70.127 39.79,69.891 39.408,69.654C41.565,69.015 43.721,68.377 46.257,67.77z"/><path fill="#9b9b9a" d="M166.634,133.927C166.98,134.257 166.966,134.53 167.005,135.208C165.618,136.003 164.178,136.392 162.41,136.756C162.083,136.731 162.206,136.49 162.144,136.371C162.65,134.903 163.218,133.554 163.945,131.827C164.806,132.582 165.54,133.226 166.634,133.927z"/><path fill="#f9f9f9" d="M39.074,69.64C39.79,69.891 40.172,70.127 40.764,70.628C39.923,71.566 38.872,72.239 37.521,73.006C36.519,72.645 35.818,72.192 35.063,71.406C36.252,70.59 37.496,70.108 39.074,69.64z"/><path fill="#d5d6d6" d="M173.977,131.738C173.767,131.781 173.495,131.561 173.144,131.085C173.348,131.045 173.631,131.261 173.977,131.738z"/><path fill="#e5e6e5" d="M34.259,82.651C34.039,82.416 33.801,82.203 33.562,81.989C33.78,82.026 33.997,82.063 34.242,82.413C34.27,82.726 34.241,82.672 34.259,82.651z"/><path fill="#e9e9e8" d="M25.392,101.095C23.118,100.559 21.277,100.067 19.245,99.524C24.957,96.318 30.582,95.89 36.921,99.27C34.679,99.967 32.979,100.699 31.208,100.986C29.451,101.271 27.622,101.106 25.392,101.095z"/></svg>