<svg xmlns="http://www.w3.org/2000/svg" viewBox="0 0 208 190" xml:space="preserve"><path fill="#0f0f10" d="M43.892,114.74C43.725,109.106 43.409,103.47 43.435,97.837C43.459,92.5 39.977,88.35 34.498,88.033C30.851,87.822 27.182,87.993 23.529,87.993C23.7,89.254 23.854,90.395 24.027,91.675C19.293,90.821 17.644,92.346 17.58,97.009C17.525,101.006 17.176,105.003 17.249,108.995C17.296,111.584 17.867,114.164 18.224,116.905C17.305,116.612 15.82,116.139 14.054,115.576C14.054,108.535 13.964,101.546 14.136,94.564C14.167,93.281 14.959,91.689 15.922,90.814C19.798,87.293 22.51,83.367 21.925,77.619C20.538,77.505 19.213,77.54 17.956,77.265C14.126,76.427 12.713,73.831 13.628,70.211C14.563,66.514 17.092,66.359 20.6,66.93C30.21,68.494 39.89,69.949 49.591,70.394C51.892,70.499 54.837,66.806 56.702,64.282C62.332,56.663 67.623,48.789 72.908,40.922C73.502,40.038 73.508,38.502 73.281,37.37C72.453,33.248 72.447,29.518 76.134,26.539C80.016,23.402 83.186,25.562 86.608,27.434C100.19,34.861 114.433,40.379 130.178,39.962C135.903,39.81 141.604,38.164 147.27,36.978C148.29,36.765 149.903,35.406 149.848,34.683C149.508,30.247 149.364,25.649 148.014,21.473C146.156,15.725 148.369,10.765 154.282,9.68C156.902,9.2 159.538,8.812 162.16,8.341C164.747,7.877 167.169,7.637 168.065,11.001C168.191,11.472 168.801,11.918 169.293,12.167C170.87,12.967 173.709,13.467 173.874,14.449C174.34,17.234 173.84,20.217 173.484,23.092C173.274,24.785 172.202,26.427 172.218,28.084C172.342,40.73 172.603,53.374 172.932,66.016C172.969,67.422 173.398,69.009 174.161,70.174C178.432,76.701 182.911,83.091 187.205,89.603C188.465,91.513 190.725,94.391 190.113,95.548C189.054,97.55 186.109,98.554 182.982,100.62C182.982,104.444 182.982,109.852 182.982,115.574C186.146,116.469 189.689,117.629 188.087,122.045C187.284,124.259 185.428,126.091 184.049,128.096C183.62,127.871 183.192,127.647 182.764,127.422C182.764,138.711 182.764,150.001 182.764,161.761C184.982,162.427 187.263,163.112 189.545,163.797C189.56,164.113 189.575,164.429 189.59,164.745C183.433,165.852 177.276,166.963 171.118,168.063C165.214,169.118 159.005,168.831 153.716,172.556C152.7,173.271 150.567,173.221 149.334,172.668C143.831,170.199 139.561,173.883 134.72,174.989C129.462,176.191 123.907,176.936 118.546,176.656C109.957,176.206 101.55,175.025 93.013,177.891C89.918,178.93 86.007,177.368 82.46,177.261C73.804,177.001 65.143,176.931 56.485,176.712C53.35,176.633 50.219,176.347 46.831,176.139C47.111,174.901 47.299,174.066 47.452,173.39C44.938,171.605 40.317,175.698 39.204,170.134C39.156,169.893 36.752,170.038 35.457,170.146C30.647,170.547 25.842,171.007 21.034,171.445C20.921,170.861 20.808,170.277 20.695,169.693C23.726,168.629 26.757,167.565 29.483,166.608C30.642,161.72 31.717,156.881 32.943,152.081C34.921,144.329 37.552,143.058 45.165,145.988C46.223,146.395 47.315,146.713 49.149,147.325C49.149,128.56 49.149,110.302 49.149,92.044C48.758,91.928 48.367,91.812 47.976,91.696C47.553,93.154 46.806,94.602 46.763,96.071C46.595,101.732 46.764,107.404 46.537,113.06C46.487,114.306 45.327,115.507 44.328,116.294C43.949,115.486 43.921,115.113 43.892,114.74M139.094,170.341C139.198,170.385 139.302,170.429 139.405,170.473C139.286,170.303 139.166,170.133 139.039,168.942C139.187,167.933 139.334,166.924 140.056,166.269C140.848,166.313 142.29,166.54 142.336,166.375C143.005,163.989 143.488,161.551 144.145,158.523C139.093,159.346 135.104,159.995 131.119,160.643C131.119,164.354 131.119,167.901 131.119,171.96C133.396,171.22 135.233,170.622 137.701,170.02C138.121,170.03 138.541,170.039 139.094,170.341M96.07,103.055C94.498,103.142 92.926,103.23 91.354,103.317C91.39,103.799 91.427,104.28 91.463,104.762C92.983,104.762 94.503,104.762 96.906,104.915C99.301,104.888 101.697,104.86 104.681,104.951C106.113,105.657 107.604,107.038 108.963,106.919C111.33,106.711 113.615,105.578 116.614,104.848C116.366,104.36 116.118,103.873 114.985,103.296C112.009,103.302 109.032,103.308 105.172,103.079C102.437,103.116 99.702,103.152 96.07,103.055M161.733,62.63C163.222,65.537 164.24,63.914 164.79,62.154C165.742,59.101 163.331,56.996 159.88,57.245C159.88,58.913 159.88,60.436 159.263,62.272C153.869,72.665 148.476,83.058 142.887,93.826C144.089,93.826 145.399,94.097 145.555,93.787C150.85,83.27 156.036,72.698 161.733,62.63M167.246,156.155C167.246,158.96 167.246,161.765 167.246,163.14C171.546,162.654 174.969,162.267 178.939,161.818C178.939,159.625 178.939,156.882 178.766,153.594C178.191,153.114 177.615,152.633 177.818,151.888C178.11,148.596 178.401,145.304 178.877,141.174C178.877,139.285 178.877,137.396 178.877,135.507C178.694,135.48 178.511,135.454 178.328,135.428C177.844,137.603 177.36,139.777 176.082,141.955C174.206,140.552 172.331,139.148 170.471,137.757C170.839,137.044 171.491,135.783 172.143,134.522C170.627,134.02 169.125,133.155 167.592,133.096C164.825,132.988 162.038,133.362 158.735,133.568C159.137,139.659 159.506,145.261 159.865,150.717C155.008,151.344 150.658,151.906 146.433,152.452C146.433,146.549 146.433,141.058 146.433,135.152C140.686,135.741 135.186,136.381 131.816,130.603C128.702,135.727 127.641,150.524 129.562,157.808C134.851,157.453 140.113,157.1 143.737,156.857C145.505,160.51 146.182,163.868 148.233,165.556C150.02,167.027 153.36,166.98 156.008,166.957C161.091,166.914 158.977,161.771 160.902,158.482C161.657,160.502 162.098,161.682 162.54,162.862C163.007,162.862 163.475,162.862 163.943,162.862C164.594,159.888 165.246,156.914 166.453,154.264C166.694,154.613 166.935,154.962 167.246,156.155M83.913,104.878C86.155,104.878 88.397,104.878 90.639,104.878C90.643,104.427 90.647,103.975 90.65,103.524C89.24,103.257 87.829,102.991 86.298,102.702C86.995,102.047 87.508,101.566 88.885,100.904C90.019,100.142 92.109,99.415 92.138,98.613C92.396,91.558 92.288,84.49 92.288,77.494C89.484,77.494 87.558,77.494 85.238,77.494C85.791,81.214 82.958,85.361 86.634,87.019C86.025,89.821 85.652,92.021 85.035,94.152C84.767,95.08 84,95.863 83.459,96.712C82.963,95.837 82.282,95.016 82.007,94.076C81.352,91.836 80.888,89.54 80.313,87.127C84.034,84.795 81.291,80.891 81.763,76.965C79.232,77.442 77.208,77.824 74.784,78.28C74.784,84.2 74.718,89.825 74.809,95.448C74.862,98.754 76.103,101.179 79.948,101.911C74.521,102.321 69.095,102.746 63.666,103.136C60.902,103.335 58.133,103.471 55.366,103.635C55.396,104.23 55.427,104.825 55.457,105.42C63.96,106.355 72.466,106.785 81.663,104.928C82.113,104.872 82.564,104.816 83.913,104.878M71.173,123.738C65.789,127.249 67.935,133.18 67.089,137.928C66.058,143.713 66.924,149.818 66.745,155.778C66.631,159.578 68.503,159.198 71.097,158.384C71.097,155.024 70.982,151.878 71.119,148.742C71.454,141.099 69.615,133.134 74.957,125.898C76.651,124.836 78.345,123.775 80.872,122.902C89.801,122.795 94.58,128.217 94.132,137.167C93.761,144.595 94.056,152.056 94.056,159.809C95.78,159.809 97.158,159.809 99.062,159.809C99.062,152.274 99.16,144.837 98.952,137.408C98.922,136.343 97.418,135.318 96.592,134.27C99.375,132.346 99.409,131.118 96.746,126.19C93.187,119.606 84.51,116.25 77.301,119.115C75.502,120.641 73.703,122.167 71.173,123.738M124.225,104.785C123.812,101.249 124.403,97.26 119.738,95.021C120.75,108.026 118.42,120.806 123.382,132.979C123.886,127.912 124.39,122.845 125.778,117.841C125.981,113.629 126.185,109.417 126.388,105.205C125.897,105.211 125.406,105.217 124.225,104.785M59.23,127.976C57.258,127.596 55.286,127.216 52.99,126.773C52.838,134.318 57.418,130.494 60.488,131.388C59.392,132.119 58.219,133.549 57.216,133.438C54.999,133.192 53.148,132.662 53.149,135.845C53.153,142.274 53.15,148.702 53.15,155.502C57.072,155.502 60.278,155.502 63.876,155.502C63.876,148.181 63.746,141.201 63.903,134.228C64.214,120.417 79.16,109.3 92.192,116.961C99.371,121.18 102.471,127.574 102.712,135.515C102.932,142.789 102.758,150.075 102.758,157.756C108.061,157.756 112.795,157.756 117.585,157.756C117.585,147.653 117.585,137.575 117.585,127.34C115.73,127.144 113.993,126.96 112.256,126.775C112.287,126.556 112.317,126.336 112.348,126.117C114.077,125.845 115.807,125.574 117.352,125.332C117.352,120.12 117.352,115.244 117.352,110.455C113.364,109.923 109.646,109.045 108.841,114.443C108.434,113.075 108.027,111.706 107.618,110.33C90.334,110.33 73.081,110.33 55.868,110.33C54.879,119.852 54.889,119.846 60.195,126.624C60.405,126.893 60.093,127.569 59.23,127.976M167.613,25.906C167.191,27.587 166.478,29.257 166.404,30.954C166.226,35.048 166.346,39.154 166.346,43.256C165.702,43.261 165.058,43.266 164.414,43.271C164.414,35.772 164.414,28.272 164.414,20.525C160.272,21.175 157.036,21.682 153.857,22.18C153.857,27.096 153.693,31.52 153.915,35.925C154.063,38.872 154.265,41.988 155.336,44.672C156.642,47.946 158.789,53.364 160.739,53.437C166.637,53.658 166.468,57.21 167.064,60.969C167.359,62.826 167.874,64.648 168.244,66.284C168.244,53.075 168.244,39.803 167.613,25.906M107.178,73.309C113.667,80.543 120.156,87.776 126.645,95.01C127.35,94.661 128.055,94.312 128.759,93.963C128.338,92.455 128.345,90.58 127.422,89.502C123.321,84.713 118.691,80.364 114.737,75.465C105.19,63.639 95.913,51.594 86.527,39.637C86.105,39.714 85.683,39.79 85.261,39.867C85.496,41.505 85.195,43.528 86.05,44.719C92.826,54.15 99.822,63.423 107.178,73.309M102.086,96.917C101.7,98.195 101.314,99.473 100.954,100.664C106.858,100.664 112.27,100.664 117.35,100.664C120.189,91.933 113.262,87.919 109.425,82.139C106.975,87.009 104.672,91.589 102.086,96.917M92.338,34.128C90.09,33.274 87.842,32.42 85.593,31.566C85.379,31.941 85.165,32.316 84.95,32.691C85.981,33.525 86.885,34.7 88.064,35.139C96.756,38.38 105.341,42.079 114.272,44.461C125.692,47.507 137.319,46.95 148.632,43.196C150.296,42.644 151.73,41.395 153.271,40.468C145.39,41.221 138.201,43.33 130.94,43.613C117.584,44.135 105.072,39.977 92.338,34.128M75.287,168.309C78.927,168.48 82.566,168.715 86.208,168.807C93.092,168.98 93.093,168.946 96.436,162.477C88.621,162.477 81.073,162.477 73.06,162.477C74.61,163.231 75.695,163.759 76.779,164.287C76.676,164.794 76.572,165.302 76.469,165.809C70.935,165.809 65.402,165.809 59.868,165.809C59.885,166.406 59.902,167.003 59.919,167.601C64.723,167.826 69.527,168.052 75.287,168.309M67.244,170.38C62.551,171.126 57.214,168.061 51.965,173.312C63.7,174.015 74.276,174.475 84.814,175.378C88.402,175.685 89.588,174.12 90.75,170.352C82.822,170.352 75.502,170.352 67.244,170.38M117.135,172.111C117.135,168.572 117.135,165.033 117.135,161.545C112.197,161.255 107.889,161.002 103.674,160.754C103.884,164.721 104.057,167.987 104.227,171.202C108.52,171.764 112.558,172.293 117.135,172.111M135.957,103.818C135.378,98.855 132.025,100.347 129.148,100.524C129.148,106.562 129.148,112.253 129.148,118.095C131.728,118.095 133.973,118.095 136.849,118.095C136.591,113.447 136.348,109.061 135.957,103.818M64.19,92.336C62.784,89.579 61.378,86.821 59.939,83.997C53.483,88.8 56.315,95.093 55.721,100.64C60.103,100.64 63.904,100.64 68.07,100.64C66.755,97.741 65.672,95.354 64.19,92.336M148.763,114.193C148.882,115.624 149,117.055 149.136,118.702C151.023,118.441 152.459,118.243 154.367,117.979C154.367,109.936 154.367,102.074 154.367,94.194C152.716,94.194 150.974,94.194 148.767,94.194C148.767,100.72 148.767,106.987 148.763,114.193M142.525,118.599C143.738,118.599 144.951,118.599 146.135,118.599C146.135,111.522 146.135,104.94 146.135,98.357C145.215,101.962 143.179,102.796 139.832,100.989C139.832,106.63 139.769,111.697 139.913,116.759C139.931,117.383 141.055,117.976 142.525,118.599M163.665,81.899C162.523,79.866 161.38,77.833 159.589,74.647C156.737,79.872 154.45,84.06 152.433,87.755C157.201,92.17 161.608,91.115 166.181,88.031C165.46,86.259 164.717,84.435 163.665,81.899M168.025,94.813C166.424,94.52 164.823,94.228 163.202,93.931C163.202,102.24 163.202,109.839 163.202,117.811C164.979,117.718 166.524,117.638 168.18,117.552C168.18,110.012 168.18,102.882 168.025,94.813M77.222,46.673C77.553,45.161 77.883,43.649 78.214,42.137C77.805,42.12 77.396,42.103 76.987,42.087C70.32,51.49 63.654,60.894 56.988,70.298C60.134,69.018 62.892,67.244 64.753,64.789C69.034,59.142 72.879,53.164 77.222,46.673M92.684,60.842C90.962,58.77 89.24,56.698 87.388,54.47C86.945,59.477 86.54,64.058 86.14,68.588C90.449,68.588 94.263,68.588 98.7,68.588C96.537,65.818 94.822,63.621 92.684,60.842M59.719,159.077C55.618,159.077 51.518,159.077 47.152,159.077C47.152,162.459 47.152,165.716 47.152,169.907C49.838,168.802 52.477,168.337 54.247,166.842C56.837,164.655 58.803,161.729 61.036,159.118C60.871,159.095 60.706,159.071 59.719,159.077M121.291,161.791C120.691,165.423 120.091,169.056 119.492,172.688C128.819,173.898 129.697,172.444 127.531,160.969C125.756,161.184 123.966,161.4 121.291,161.791M155.529,121.003C152.215,121.003 148.9,121.003 145.48,121.003C145.48,122.84 145.48,124.323 145.48,126.306C152.359,124.606 160.004,127.174 166.145,122.79C166.047,122.175 165.95,121.561 165.852,120.946C162.734,120.946 159.616,120.946 155.529,121.003M94.984,86.392C94.984,88.857 94.984,91.322 94.984,93.787C95.41,93.827 95.836,93.866 96.262,93.905C98.911,88.474 101.56,83.043 104.383,77.253C100.932,77.253 98.098,77.253 94.981,77.253C94.981,80.177 94.981,82.809 94.984,86.392M69.908,67.703C69.739,67.941 69.534,68.164 69.42,68.425C69.373,68.534 69.521,68.861 69.582,68.862C72.835,68.883 76.088,68.881 79.603,68.881C79.603,64.251 79.603,59.793 79.603,54.352C76.144,59.134 73.263,63.117 69.908,67.703M173.57,113.468C173.316,117.991 176.263,116.681 178.695,116.771C179.092,100.811 179.297,99.81 173.585,101.457C173.585,105.079 173.585,108.853 173.57,113.468M160.708,12.26C157.555,12.842 154.403,13.423 151.289,13.998C151.289,15.804 151.289,17.223 151.289,19.219C155.115,18.645 158.712,18.346 162.164,17.474C163.616,17.107 164.763,15.529 166.048,14.502C164.549,13.713 163.05,12.923 160.708,12.26M72.323,82.503C72.195,80.616 72.067,78.729 71.931,76.737C69.334,76.9 67.381,77.022 64.122,77.225C66.636,82.665 68.879,87.517 71.122,92.37C71.524,92.291 71.927,92.213 72.329,92.135C72.329,89.241 72.329,86.348 72.323,82.503M142.106,124.33C142.316,123.345 142.526,122.36 142.843,120.874C138.768,120.874 135.14,121.011 131.527,120.835C128.075,120.667 127.023,121.893 128.631,125.725C133.181,125.5 137.848,125.269 142.106,124.33M25.171,82.308C25.895,83.045 26.564,84.34 27.353,84.418C30.048,84.682 32.784,84.519 35.613,84.519C35.613,82.535 35.613,80.496 35.613,77.744C31.972,79.437 26.714,74.095 25.171,82.308M176.963,91.714C173.132,83.12 169.302,74.525 164.931,64.719C164.449,66.757 164.019,67.474 164.213,67.917C167.731,75.942 171.298,83.945 174.97,91.9C175.17,92.332 176.38,92.299 176.963,91.714M88.535,71.201C83.359,71.411 78.089,71.063 73.249,73.239C84.051,75.537 95.793,74.324 97.856,71.277C95.076,71.277 92.285,71.277 88.535,71.201M76.53,32.017C77.483,34.191 78.436,36.365 79.389,38.539C80.782,37.683 83.263,36.922 83.348,35.952C83.54,33.756 82.55,31.458 82.04,29.201C80.318,29.906 78.596,30.61 76.53,32.017M120.787,153.694C121.204,155.515 121.621,157.336 122.037,159.157C122.594,159.031 123.151,158.905 123.708,158.778C123.708,153.588 123.708,148.398 123.708,143.208C122.054,143.735 120.729,144.75 120.576,145.919C120.281,148.175 120.648,150.518 120.787,153.694M38.393,162.824C42.136,164.278 41.289,161.019 41.704,159.403C42.347,156.903 42.6,154.304 43.06,151.755C43.22,150.873 43.868,149.361 43.671,149.251C42.664,148.688 41.44,148.199 40.317,148.249C39.26,148.295 38.233,149.044 37.193,149.484C37.705,149.582 38.218,149.68 38.73,149.778C38.603,153.881 38.475,157.984 38.393,162.824M43.929,88.211C49.469,88.259 50.455,83.342 53.372,80.134C49.627,79.089 46.236,81.865 43.929,88.211M41.829,83.272C43.144,82.057 44.46,80.843 46.309,79.135C43.715,78.82 41.939,78.057 40.893,78.63C39.84,79.206 39.159,81.06 38.963,82.445C38.75,83.942 39.223,85.666 41.829,83.272M99.893,105.961C96.267,106.122 92.642,106.284 89.016,106.445C89.046,106.894 89.075,107.343 89.104,107.792C93.768,107.792 98.431,107.792 104.234,107.792C102.397,106.876 101.556,106.457 99.893,105.961M38.021,165.597C37.833,166.295 37.644,166.994 37.142,168.852C38.569,167.569 39.264,166.944 39.959,166.318C39.336,165.848 38.713,165.377 38.021,165.597z"/><path fill="#141414" d="M22.879,103.751C23.607,101.494 24.28,99.568 25.248,97.805C26.947,94.711 29.216,92.456 32.865,95.105C35.21,96.808 38.013,98.532 39.255,100.944C40.947,104.231 38.942,107.095 36.185,109.522C35.409,110.205 36.067,112.519 36.067,114.648C32.249,114.648 28.305,114.648 24.54,114.648C23.978,110.922 23.467,107.539 22.879,103.751z"/><path fill="#171718" d="M43.561,114.859C43.921,115.113 43.949,115.486 43.951,116.139C42.988,121.415 39.822,123.92 34.895,123.859C30.473,123.804 26.044,123.37 21.65,122.834C20.958,122.75 20.439,121.24 19.841,120.389C20.773,120.084 21.896,119.279 22.609,119.55C30.531,122.562 37.438,121.388 43.561,114.859z"/><path fill="#f3f4f4" d="M60.025,128.056C60.093,127.569 60.405,126.893 60.195,126.624C54.889,119.846 54.879,119.852 55.868,110.33C73.081,110.33 90.334,110.33 107.618,110.33C108.027,111.706 108.434,113.075 108.841,114.443C109.646,109.045 113.364,109.923 117.352,110.455C117.352,115.244 117.352,120.12 117.352,125.332C115.807,125.574 114.077,125.845 112.348,126.117C112.317,126.336 112.287,126.556 112.256,126.775C113.993,126.96 115.73,127.144 117.585,127.34C117.585,137.575 117.585,147.653 117.585,157.756C112.795,157.756 108.061,157.756 102.758,157.756C102.758,150.075 102.932,142.789 102.712,135.515C102.471,127.574 99.371,121.18 92.192,116.961C79.16,109.3 64.214,120.417 63.903,134.228C63.746,141.201 63.876,148.181 63.876,155.502C60.278,155.502 57.072,155.502 53.15,155.502C53.15,148.702 53.153,142.274 53.149,135.845C53.148,132.662 54.999,133.192 57.216,133.438C58.219,133.549 59.392,132.119 60.289,130.77C60.068,129.454 60.047,128.755 60.025,128.056z"/><path fill="#f4f5f5" d="M165.897,153.941C165.246,156.914 164.594,159.888 163.943,162.862C163.475,162.862 163.007,162.862 162.54,162.862C162.098,161.682 161.657,160.502 160.902,158.482C158.977,161.771 161.091,166.914 156.008,166.957C153.36,166.98 150.02,167.027 148.233,165.556C146.182,163.868 145.505,160.51 143.737,156.857C140.113,157.1 134.851,157.453 129.562,157.808C127.641,150.524 128.702,135.727 131.816,130.603C135.186,136.381 140.686,135.741 146.433,135.152C146.433,141.058 146.433,146.549 146.433,152.452C150.658,151.906 155.008,151.344 159.865,150.717C159.506,145.261 159.137,139.659 158.735,133.568C162.038,133.362 164.825,132.988 167.592,133.096C169.125,133.155 170.627,134.02 172.143,134.522C171.491,135.783 170.839,137.044 170.471,137.757C172.331,139.148 174.206,140.552 176.782,141.969C177.885,141.993 178.289,142.002 178.693,142.012C178.401,145.304 178.11,148.596 177.051,151.961C175.524,151.993 174.764,151.952 174.003,151.544C173.915,150.156 173.828,149.134 173.741,148.113C173.492,148.13 173.244,148.148 172.996,148.165C172.996,149.406 172.996,150.647 172.639,152.019C170.153,152.747 168.025,153.344 165.897,153.941M171.649,144.335C171.531,144.58 171.414,144.826 171.296,145.071C171.531,145.142 171.766,145.213 172.001,145.285C172.027,144.947 172.053,144.61 171.649,144.335z"/><path fill="#eeeeee" d="M167.929,26.219C168.244,39.803 168.244,53.075 168.244,66.284C167.874,64.648 167.359,62.826 167.064,60.969C166.468,57.21 166.637,53.658 160.739,53.437C158.789,53.364 156.642,47.946 155.336,44.672C154.265,41.988 154.063,38.872 153.915,35.925C153.693,31.52 153.857,27.096 153.857,22.18C157.036,21.682 160.272,21.175 164.414,20.525C164.414,28.272 164.414,35.772 164.414,43.271C165.058,43.266 165.702,43.261 166.346,43.256C166.346,39.154 166.226,35.048 166.404,30.954C166.478,29.257 167.191,27.587 167.929,26.219z"/><path fill="#eeefef" d="M79.989,101.042C76.103,101.179 74.862,98.754 74.809,95.448C74.718,89.825 74.784,84.2 74.784,78.28C77.208,77.824 79.232,77.442 81.763,76.965C81.291,80.891 84.034,84.795 80.313,87.127C80.888,89.54 81.352,91.836 82.007,94.076C82.282,95.016 82.963,95.837 83.459,96.712C84,95.863 84.767,95.08 85.035,94.152C85.652,92.021 86.025,89.821 86.634,87.019C82.958,85.361 85.791,81.214 85.238,77.494C87.558,77.494 89.484,77.494 92.288,77.494C92.288,84.49 92.396,91.558 92.138,98.613C92.109,99.415 90.019,100.142 88.188,100.709C84.99,100.69 82.49,100.866 79.989,101.042z"/><path fill="#ececed" d="M106.964,73.026C99.822,63.423 92.826,54.15 86.05,44.719C85.195,43.528 85.496,41.505 85.261,39.867C85.683,39.79 86.105,39.714 86.527,39.637C95.913,51.594 105.19,63.639 114.737,75.465C118.691,80.364 123.321,84.713 127.422,89.502C128.345,90.58 128.338,92.455 128.759,93.963C128.055,94.312 127.35,94.661 126.645,95.01C120.156,87.776 113.667,80.543 106.964,73.026z"/><path fill="#ededed" d="M77.962,118.926C84.51,116.25 93.187,119.606 96.746,126.19C99.409,131.118 99.375,132.346 96.592,134.27C97.418,135.318 98.922,136.343 98.952,137.408C99.16,144.837 99.062,152.274 99.062,159.809C97.158,159.809 95.78,159.809 94.056,159.809C94.056,152.056 93.761,144.595 94.132,137.167C94.58,128.217 89.801,122.795 80.463,122.476C79.356,121.009 78.659,119.967 77.962,118.926z"/><path fill="#f4f4f4" d="M102.227,96.543C104.672,91.589 106.975,87.009 109.425,82.139C113.262,87.919 120.189,91.933 117.35,100.664C112.27,100.664 106.858,100.664 100.954,100.664C101.314,99.473 101.7,98.195 102.227,96.543z"/><path fill="#e3e4e3" d="M92.677,34.304C105.072,39.977 117.584,44.135 130.94,43.613C138.201,43.33 145.39,41.221 153.271,40.468C151.73,41.395 150.296,42.644 148.632,43.196C137.319,46.95 125.692,47.507 114.272,44.461C105.341,42.079 96.756,38.38 88.064,35.139C86.885,34.7 85.981,33.525 84.95,32.691C85.165,32.316 85.379,31.941 85.593,31.566C87.842,32.42 90.09,33.274 92.677,34.304z"/><path fill="#e7e7e7" d="M74.809,168.293C69.527,168.052 64.723,167.826 59.919,167.601C59.902,167.003 59.885,166.406 59.868,165.809C65.402,165.809 70.935,165.809 76.469,165.809C76.572,165.302 76.676,164.794 76.779,164.287C75.695,163.759 74.61,163.231 73.06,162.477C81.073,162.477 88.621,162.477 96.436,162.477C93.093,168.946 93.092,168.98 86.208,168.807C82.566,168.715 78.927,168.48 74.809,168.293z"/><path fill="#e8e8e8" d="M67.712,170.366C75.502,170.352 82.822,170.352 90.75,170.352C89.588,174.12 88.402,175.685 84.814,175.378C74.276,174.475 63.7,174.015 51.965,173.312C57.214,168.061 62.551,171.126 67.712,170.366z"/><path fill="#f0f0f0" d="M116.866,172.467C112.558,172.293 108.52,171.764 104.227,171.202C104.057,167.987 103.884,164.721 103.674,160.754C107.889,161.002 112.197,161.255 117.135,161.545C117.135,165.033 117.135,168.572 116.866,172.467z"/><path fill="#eeeeee" d="M124.893,117.778C124.39,122.845 123.886,127.912 123.382,132.979C118.42,120.806 120.75,108.026 119.738,95.021C124.403,97.26 123.812,101.249 124.564,105.438C124.9,109.987 124.897,113.883 124.893,117.778z"/><path fill="#eeefef" d="M74.326,126.108C69.615,133.134 71.454,141.099 71.119,148.742C70.982,151.878 71.097,155.024 71.097,158.384C68.503,159.198 66.631,159.578 66.745,155.778C66.924,149.818 66.058,143.713 67.089,137.928C67.935,133.18 65.789,127.249 71.62,124.086C72.82,124.991 73.573,125.549 74.326,126.108z"/><path fill="#f0f1f1" d="M136.031,104.246C136.348,109.061 136.591,113.447 136.849,118.095C133.973,118.095 131.728,118.095 129.148,118.095C129.148,112.253 129.148,106.562 129.148,100.524C132.025,100.347 135.378,98.855 136.031,104.246z"/><path fill="#f6f6f6" d="M64.39,92.652C65.672,95.354 66.755,97.741 68.07,100.64C63.904,100.64 60.103,100.64 55.721,100.64C56.315,95.093 53.483,88.8 59.939,83.997C61.378,86.821 62.784,89.579 64.39,92.652z"/><path fill="#f3f3f3" d="M148.765,113.724C148.767,106.987 148.767,100.72 148.767,94.194C150.974,94.194 152.716,94.194 154.367,94.194C154.367,102.074 154.367,109.936 154.367,117.979C152.459,118.243 151.023,118.441 149.136,118.702C149,117.055 148.882,115.624 148.765,113.724z"/><path fill="#ebecec" d="M142.096,118.591C141.055,117.976 139.931,117.383 139.913,116.759C139.769,111.697 139.832,106.63 139.832,100.989C143.179,102.796 145.215,101.962 146.135,98.357C146.135,104.94 146.135,111.522 146.135,118.599C144.951,118.599 143.738,118.599 142.096,118.591z"/><path fill="#e8e8e8" d="M163.82,82.255C164.717,84.435 165.46,86.259 166.181,88.031C161.608,91.115 157.201,92.17 152.433,87.755C154.45,84.06 156.737,79.872 159.589,74.647C161.38,77.833 162.523,79.866 163.82,82.255z"/><path fill="#f3f4f4" d="M168.103,95.283C168.18,102.882 168.18,110.012 168.18,117.552C166.524,117.638 164.979,117.718 163.202,117.811C163.202,109.839 163.202,102.24 163.202,93.931C164.823,94.228 166.424,94.52 168.103,95.283z"/><path fill="#ebecec" d="M137.071,170.025C135.233,170.622 133.396,171.22 131.119,171.96C131.119,167.901 131.119,164.354 131.119,160.643C135.104,159.995 139.093,159.346 144.145,158.523C143.488,161.551 143.005,163.989 142.336,166.375C142.29,166.54 140.848,166.313 139.749,166.102C139.442,165.935 139.465,165.901 139.316,165.644C138.239,165.045 137.311,164.703 136.383,164.361C136.622,165.238 136.86,166.115 137.074,167.371C137.057,168.508 137.064,169.266 137.071,170.025z"/><path fill="#b7b9b9" d="M79.969,101.476C82.49,100.866 84.99,100.69 87.755,100.799C87.508,101.566 86.995,102.047 86.298,102.702C87.829,102.991 89.24,103.257 90.65,103.524C90.647,103.975 90.643,104.427 90.639,104.878C88.397,104.878 86.155,104.878 83.416,104.544C82.275,104.411 81.631,104.611 80.988,104.811C72.466,106.785 63.96,106.355 55.457,105.42C55.427,104.825 55.396,104.23 55.366,103.635C58.133,103.471 60.902,103.335 63.666,103.136C69.095,102.746 74.521,102.321 79.969,101.476z"/><path fill="#e1e1e2" d="M77.061,46.997C72.879,53.164 69.034,59.142 64.753,64.789C62.892,67.244 60.134,69.018 56.988,70.298C63.654,60.894 70.32,51.49 76.987,42.087C77.396,42.103 77.805,42.12 78.214,42.137C77.883,43.649 77.553,45.161 77.061,46.997z"/><path fill="#dadada" d="M178.939,154.139C178.939,156.882 178.939,159.625 178.939,161.818C174.969,162.267 171.546,162.654 167.246,163.14C167.246,161.765 167.246,158.96 167.619,155.606C171.642,154.75 175.29,154.444 178.939,154.139z"/><path fill="#f0f0f0" d="M92.895,61.133C94.822,63.621 96.537,65.818 98.7,68.588C94.263,68.588 90.449,68.588 86.14,68.588C86.54,64.058 86.945,59.477 87.388,54.47C89.24,56.698 90.962,58.77 92.895,61.133z"/><path fill="#e2e2e3" d="M161.238,62.134C156.036,72.698 150.85,83.27 145.555,93.787C145.399,94.097 144.089,93.826 142.887,93.826C148.476,83.058 153.869,72.665 159.912,62.148C160.787,62.06 161.013,62.097 161.238,62.134z"/><path fill="#f3f3f3" d="M60.13,159.062C60.706,159.071 60.871,159.095 61.036,159.118C58.803,161.729 56.837,164.655 54.247,166.842C52.477,168.337 49.838,168.802 47.152,169.907C47.152,165.716 47.152,162.459 47.152,159.077C51.518,159.077 55.618,159.077 60.13,159.062z"/><path fill="#f4f5f5" d="M121.733,161.704C123.966,161.4 125.756,161.184 127.531,160.969C129.697,172.444 128.819,173.898 119.492,172.688C120.091,169.056 120.691,165.423 121.733,161.704z"/><path fill="#eeefef" d="M156.013,120.975C159.616,120.946 162.734,120.946 165.852,120.946C165.95,121.561 166.047,122.175 166.145,122.79C160.004,127.174 152.359,124.606 145.48,126.306C145.48,124.323 145.48,122.84 145.48,121.003C148.9,121.003 152.215,121.003 156.013,120.975z"/><path fill="#f3f3f3" d="M94.983,85.916C94.981,82.809 94.981,80.177 94.981,77.253C98.098,77.253 100.932,77.253 104.383,77.253C101.56,83.043 98.911,88.474 96.262,93.905C95.836,93.866 95.41,93.827 94.984,93.787C94.984,91.322 94.984,88.857 94.983,85.916z"/><path fill="#f0f1f1" d="M70.145,67.402C73.263,63.117 76.144,59.134 79.603,54.352C79.603,59.793 79.603,64.251 79.603,68.881C76.088,68.881 72.835,68.883 69.582,68.862C69.521,68.861 69.373,68.534 69.42,68.425C69.534,68.164 69.739,67.941 70.145,67.402z"/><path fill="#ebecec" d="M173.578,113.047C173.585,108.853 173.585,105.079 173.585,101.457C179.297,99.81 179.092,100.811 178.695,116.771C176.263,116.681 173.316,117.991 173.578,113.047z"/><path fill="#e3e4e3" d="M161.13,12.197C163.05,12.923 164.549,13.713 166.048,14.502C164.763,15.529 163.616,17.107 162.164,17.474C158.712,18.346 155.115,18.645 151.289,19.219C151.289,17.223 151.289,15.804 151.289,13.998C154.403,13.423 157.555,12.842 161.13,12.197z"/><path fill="#f3f3f3" d="M72.326,82.978C72.329,86.348 72.329,89.241 72.329,92.135C71.927,92.213 71.524,92.291 71.122,92.37C68.879,87.517 66.636,82.665 64.122,77.225C67.381,77.022 69.334,76.9 71.931,76.737C72.067,78.729 72.195,80.616 72.326,82.978z"/><path fill="#ededed" d="M142.311,124.684C137.848,125.269 133.181,125.5 128.631,125.725C127.023,121.893 128.075,120.667 131.527,120.835C135.14,121.011 138.768,120.874 142.843,120.874C142.526,122.36 142.316,123.345 142.311,124.684z"/><path fill="#ececed" d="M25.245,81.902C26.714,74.095 31.972,79.437 35.613,77.744C35.613,80.496 35.613,82.535 35.613,84.519C32.784,84.519 30.048,84.682 27.353,84.418C26.564,84.34 25.895,83.045 25.245,81.902z"/><path fill="#dadada" d="M177.041,92.098C176.38,92.299 175.17,92.332 174.97,91.9C171.298,83.945 167.731,75.942 164.213,67.917C164.019,67.474 164.449,66.757 164.931,64.719C169.302,74.525 173.132,83.12 177.041,92.098z"/><path fill="#e3e4e3" d="M89.015,71.239C92.285,71.277 95.076,71.277 97.856,71.277C95.793,74.324 84.051,75.537 73.249,73.239C78.089,71.063 83.359,71.411 89.015,71.239z"/><path fill="#ededed" d="M76.702,31.665C78.596,30.61 80.318,29.906 82.04,29.201C82.55,31.458 83.54,33.756 83.348,35.952C83.263,36.922 80.782,37.683 79.389,38.539C78.436,36.365 77.483,34.191 76.702,31.665z"/><path fill="#e3e4e3" d="M120.764,153.26C120.648,150.518 120.281,148.175 120.576,145.919C120.729,144.75 122.054,143.735 123.708,143.208C123.708,148.398 123.708,153.588 123.708,158.778C123.151,158.905 122.594,159.031 122.037,159.157C121.621,157.336 121.204,155.515 120.764,153.26z"/><path fill="#ebecec" d="M38.37,162.455C38.475,157.984 38.603,153.881 38.73,149.778C38.218,149.68 37.705,149.582 37.193,149.484C38.233,149.044 39.26,148.295 40.317,148.249C41.44,148.199 42.664,148.688 43.671,149.251C43.868,149.361 43.22,150.873 43.06,151.755C42.6,154.304 42.347,156.903 41.704,159.403C41.289,161.019 42.136,164.278 38.37,162.455z"/><path fill="#ededed" d="M43.846,87.837C46.236,81.865 49.627,79.089 53.372,80.134C50.455,83.342 49.469,88.259 43.846,87.837z"/><path fill="#ebecec" d="M106.056,103.313C109.032,103.308 112.009,103.302 115.396,103.583C115.894,104.185 115.937,104.506 115.934,104.833C113.615,105.578 111.33,106.711 108.963,106.919C107.604,107.038 106.113,105.657 104.527,104.678C104.934,104.041 105.495,103.677 106.056,103.313z"/><path fill="#d4d5d6" d="M74.641,126.003C73.573,125.549 72.82,124.991 71.986,124.063C73.703,122.167 75.502,120.641 77.632,119.021C78.659,119.967 79.356,121.009 80.046,122.382C78.345,123.775 76.651,124.836 74.641,126.003z"/><path fill="#c8c9c8" d="M59.627,128.016C60.047,128.755 60.068,129.454 60.066,130.502C57.418,130.494 52.838,134.318 52.99,126.773C55.286,127.216 57.258,127.596 59.627,128.016z"/><path fill="#aeafaf" d="M125.336,117.809C124.897,113.883 124.9,109.987 124.909,105.657C125.406,105.217 125.897,105.211 126.388,105.205C126.185,109.417 125.981,113.629 125.336,117.809z"/><path fill="#e7e7e7" d="M161.486,62.382C161.013,62.097 160.787,62.06 160.221,61.991C159.88,60.436 159.88,58.913 159.88,57.245C163.331,56.996 165.742,59.101 164.79,62.154C164.24,63.914 163.222,65.537 161.486,62.382z"/><path fill="#e1e1e2" d="M41.568,83.509C39.223,85.666 38.75,83.942 38.963,82.445C39.159,81.06 39.84,79.206 40.893,78.63C41.939,78.057 43.715,78.82 46.309,79.135C44.46,80.843 43.144,82.057 41.568,83.509z"/><path fill="#4c4e4b" d="M100.304,106C101.556,106.457 102.397,106.876 104.234,107.792C98.431,107.792 93.768,107.792 89.104,107.792C89.075,107.343 89.046,106.894 89.016,106.445C92.642,106.284 96.267,106.122 100.304,106z"/><path fill="#2c2c2c" d="M178.853,153.866C175.29,154.444 171.642,154.75 167.585,155.184C166.935,154.962 166.694,154.613 166.175,154.102C168.025,153.344 170.153,152.747 172.889,152.099C173.665,152.002 173.834,151.957 174.004,151.911C174.764,151.952 175.524,151.993 176.662,152.093C177.615,152.633 178.191,153.114 178.853,153.866z"/><path fill="#aeafaf" d="M105.614,103.196C105.495,103.677 104.934,104.041 104.233,104.618C101.697,104.86 99.301,104.888 96.571,104.635C96.479,103.966 96.723,103.577 96.966,103.189C99.702,103.152 102.437,103.116 105.614,103.196z"/><path fill="#eeeeee" d="M178.785,141.593C178.289,142.002 177.885,141.993 177.179,141.968C177.36,139.777 177.844,137.603 178.328,135.428C178.511,135.454 178.694,135.48 178.877,135.507C178.877,137.396 178.877,139.285 178.785,141.593z"/><path fill="#b7b9b9" d="M96.518,103.122C96.723,103.577 96.479,103.966 96.129,104.558C94.503,104.762 92.983,104.762 91.463,104.762C91.427,104.28 91.39,103.799 91.354,103.317C92.926,103.23 94.498,103.142 96.518,103.122z"/><path fill="#e8e8e8" d="M38.055,165.252C38.713,165.377 39.336,165.848 39.959,166.318C39.264,166.944 38.569,167.569 37.142,168.852C37.644,166.994 37.833,166.295 38.055,165.252z"/><path fill="#1c1c1c" d="M137.386,170.022C137.064,169.266 137.057,168.508 137.515,167.298C138.476,166.531 138.97,166.216 139.465,165.901C139.465,165.901 139.442,165.935 139.462,165.925C139.334,166.924 139.187,167.933 139.02,169.472C139.001,170.003 138.96,170.049 138.96,170.049C138.541,170.039 138.121,170.03 137.386,170.022z"/><path fill="#aeafaf" d="M81.325,104.869C81.631,104.611 82.275,104.411 82.967,104.485C82.564,104.816 82.113,104.872 81.325,104.869z"/><path fill="#aeafaf" d="M116.274,104.84C115.937,104.506 115.894,104.185 115.838,103.628C116.118,103.873 116.366,104.36 116.274,104.84z"/><path fill="#1c1c1c" d="M139.024,169.983C139.166,170.133 139.286,170.303 139.405,170.473C139.302,170.429 139.198,170.385 139.027,170.195C138.96,170.049 139.001,170.003 139.024,169.983z"/><path fill="#eeeeee" d="M174.003,151.544C173.834,151.957 173.665,152.002 173.246,151.968C172.996,150.647 172.996,149.406 172.996,148.165C173.244,148.148 173.492,148.13 173.741,148.113C173.828,149.134 173.915,150.156 174.003,151.544z"/><path fill="#eeeeee" d="M171.864,144.304C172.053,144.61 172.027,144.947 172.001,145.285C171.766,145.213 171.531,145.142 171.296,145.071C171.414,144.826 171.531,144.58 171.864,144.304z"/><path fill="#0f0f10" d="M139.316,165.644C138.97,166.216 138.476,166.531 137.539,166.919C136.86,166.115 136.622,165.238 136.383,164.361C137.311,164.703 138.239,165.045 139.316,165.644z"/></svg>