<svg xmlns="http://www.w3.org/2000/svg" viewBox="0 0 206 215" xml:space="preserve"><path fill="#020202" d="M23.806,203.37C18.666,203.262 13.526,203.169 8.388,203.018C8.009,203.007 7.641,202.578 6.65,201.955C8.624,200.972 10.152,200.211 12.031,199.276C12.031,194.91 12.031,190.299 12.031,185.334C15.02,185.062 17.734,184.814 20.829,184.532C20.829,177.554 20.829,170.81 20.829,163.665C23.666,163.133 26.175,162.661 28.854,162.158C28.854,158.083 28.854,153.965 28.854,149.323C30.294,148.871 31.729,148.421 33.581,148.391C33.993,149.741 33.986,150.672 33.763,151.915C33.546,155.696 33.546,159.164 33.546,162.276C36.072,162.589 37.796,162.803 39.066,163.411C38.409,164.549 38.205,165.293 37.54,165.998C33.181,165.961 29.283,165.961 25.021,165.961C25.021,170.034 25.021,172.99 25.008,176.306C25.011,177.146 25.026,177.625 25.014,178.543C24.986,180.907 24.986,182.832 24.986,185.075C26.939,184.944 28.475,184.84 30.321,184.716C30.187,182.297 30.072,180.204 29.979,177.773C30.012,176.987 30.021,176.537 30.066,175.74C30.153,174.933 30.204,174.472 30.631,173.999C31.505,173.929 32.003,173.872 32.6,174.16C34.279,175.029 35.859,175.552 38.044,176.275C38.263,172.456 38.421,169.691 39.007,166.965C39.719,167.034 40.004,167.062 40.311,167.514C40.891,170.603 41.448,173.269 42.004,176.271C42.002,177.057 42,177.506 41.56,178.069C38.526,178.184 35.928,178.184 33.152,178.184C33.152,180.76 33.152,182.815 33.152,185.102C34.544,185.031 35.671,184.974 37.234,184.942C39.885,184.721 43.184,186.335 43.077,181.56C43.814,180.223 44.429,179.215 45.032,177.922C45.012,177.064 45.003,176.492 45.261,175.75C46.612,175.023 47.696,174.466 49.14,173.93C54.752,172.907 49.86,170.721 50.27,168.784C52.624,167.969 54.752,167.476 56.881,166.983C56.822,166.608 56.763,166.233 56.704,165.858C51.805,165.858 46.906,165.858 41.941,165.352C41.591,164.233 41.307,163.62 41.473,162.922C45.18,162.838 48.437,162.838 51.888,162.838C52.121,160.88 52.291,159.453 52.694,158.036C53.235,158.022 53.545,158.011 53.936,158.431C54.28,160.09 54.543,161.328 54.806,162.566C55.253,162.556 55.699,162.546 56.146,162.536C57.133,158.984 58.12,155.431 59.379,150.901C57,151.754 55.295,152.366 53.532,152.958C53.475,152.938 53.362,152.981 53.109,152.597C47.24,151.983 41.624,151.753 36.012,151.172C36.01,149.882 36.005,148.943 36,148.004C41.448,138.915 39.985,128.762 40.445,118.913C40.682,113.816 39.32,109.615 35.366,105.76C33.773,104.206 34.018,99.527 35.06,96.924C35.811,95.047 39.264,94.252 41.511,92.975C41.9,93.797 42.289,94.62 42.035,95.65C40.448,97.29 39.505,98.722 38.43,100.35C38.506,100.921 38.713,101.297 38.921,101.673C39.301,101.207 39.682,100.741 40.449,100.194C41.878,100.027 42.923,99.941 44.044,100.24C46.098,101.072 48.077,101.517 50.48,101.974C54.465,101.159 60.119,105.67 61.006,98.024C61.668,96.926 62.329,95.828 63.496,94.368C67.799,94.262 66.863,91.46 67.36,89.279C70.511,86.912 73.309,84.62 76.429,82.2C83.961,76.101 91.207,70.172 98.342,64.112C99.436,63.183 100.018,61.65 100.902,60.024C100.989,59.401 101.01,59.15 101.367,59.06C103.123,59.44 104.541,59.659 106.032,60.105C106.251,60.629 106.482,60.835 106.816,61.304C110.216,64.443 113.594,67.227 117.12,70.314C123.498,75.73 129.642,80.956 136.011,85.892C137.978,87.416 140.557,88.152 142.917,89.674C143.775,90.786 144.572,91.473 145.191,92.576C145.013,94.747 145.013,96.501 145.013,98.207C153.213,98.207 160.848,98.207 169.601,98.207C165.727,95.306 162.579,93.413 160.018,90.919C156.534,87.525 152.421,86.721 147.206,89.185C145.747,89.053 144.772,88.99 143.889,88.546C145.416,83.602 139.783,84.576 138.781,81.45C137.462,80.972 136.338,80.815 134.934,80.438C133.878,78.888 133.368,77.257 132.275,76.279C128.642,73.03 124.799,70.015 120.89,66.607C116.872,63.22 113,60.136 108.891,57.023C108.653,56.994 108.174,57.032 108.158,56.654C106.552,54.855 104.962,53.433 103.371,52.011C102.301,53.99 101.231,55.969 99.882,57.959C99.417,57.975 99.231,57.979 98.694,57.891C91.67,63.188 84.982,68.56 78.33,73.976C76.402,75.546 74.577,77.242 72.525,78.864C72.345,78.848 71.985,78.844 71.851,78.589C71.113,77.879 70.509,77.424 70.076,76.613C70.826,75.486 71.856,74.748 71.913,73.941C72.344,67.848 72.583,61.742 72.896,55.34C71.276,55.106 69.758,54.888 68.386,54.69C67.539,57.023 66.812,59.025 65.716,61.02C64.606,61.007 63.865,61.002 63.125,60.997C63.606,58.11 64.088,55.224 64.287,51.695C64.026,49.978 64.047,48.903 64.526,47.912C74.263,47.975 83.542,47.953 93.205,47.947C94.099,47.96 94.611,47.957 95.512,48.022C101.061,48.128 106.222,48.272 111.374,48.106C112.264,48.078 113.113,46.741 114.121,45.652C114.837,43.578 115.413,41.862 115.982,40.469C115.994,41.225 116.015,41.656 116.081,42.521C116.126,44.545 116.126,46.136 116.126,48.091C122.483,48.091 128.256,48.091 134.294,48.368C137.349,48.519 140.14,48.392 142.991,48.575C143.367,49.879 143.682,50.873 143.996,51.867C144.965,56.344 145.934,60.821 146.57,65.746C145.7,66.829 145.161,67.464 144.32,67.806C142.482,63.009 142.068,57.9 136.984,53.907C136.984,61.475 136.891,67.843 137.076,74.202C137.107,75.263 138.344,76.289 139.011,77.556C138.997,77.781 139.339,78.074 139.339,78.074C139.339,78.074 139.779,77.979 139.903,78.316C143.245,81.94 147,83.322 151.706,82.761C154.788,82.394 157.976,82.907 161.108,83.472C161.504,84.664 161.909,85.411 162.314,86.157C164.795,88.902 166.93,92.11 169.837,94.287C174.518,97.793 174.847,102.557 171.076,107.073C169.103,109.435 167.988,113.112 167.823,116.264C167.45,123.393 167.538,130.599 168.188,137.705C168.493,141.033 170.535,144.201 171.92,147.777C173.739,147.868 175.86,147.974 178.669,148.114C178.669,152.823 178.669,157.423 178.365,162.649C176.98,163.356 175.899,163.437 174.831,163.138C174.476,159.237 174.107,155.714 173.713,151.945C171.843,151.755 169.437,151.51 167.021,150.943C167.009,149.755 167.005,148.89 167.251,147.769C166.307,140.311 160.817,144.995 157.406,144.079C156.463,143.826 154.936,145.749 153.677,146.673C153.992,147.068 154.306,147.463 154.621,147.858C155.746,147.956 156.871,148.054 157.997,148.475C157.99,149.659 157.981,150.52 157.648,151.542C156.848,151.776 156.371,151.849 155.727,151.809C155.561,151.696 155.202,151.88 154.85,151.75C152.291,151.62 150.086,151.62 148.031,151.62C149.231,154.881 150.155,157.748 151.406,160.465C151.634,160.96 153.194,160.842 154.524,160.957C155.159,160.84 155.41,160.774 155.772,161.038C157.254,161.952 158.625,162.537 159.995,163.458C159.994,164.465 159.994,165.137 159.548,165.884C156.161,165.96 153.219,165.96 150.278,165.96C150.253,166.42 150.228,166.879 150.203,167.338C151.98,167.716 153.758,168.093 155.768,168.52C155.221,170.782 154.703,172.928 154.077,175.517C155.844,175.644 157.188,175.74 158.657,175.846C158.87,173.922 159.031,172.467 159.458,171.032C159.901,171.058 160.078,171.063 160.341,171.453C161.353,173.225 162.299,174.599 163.197,176.003C163.619,176.663 163.949,177.382 163.895,178.243C161.103,177.982 160.562,178.706 161.426,181.041C162.901,185.029 166.179,185.042 169.372,185.741C169.253,187.132 169.27,187.934 169.278,188.823C169.27,188.908 169.135,189.016 168.802,188.991C167.657,188.614 166.845,188.262 165.839,187.706C165.098,188.001 164.551,188.501 164,189.417C164,191.22 164.003,192.606 164.045,194.311C164.71,195.092 165.336,195.554 165.931,196.367C164.987,198.841 164.921,200.424 168.359,199.966C168.961,199.9 169.2,199.866 169.705,199.79C170.311,199.848 170.653,199.948 170.895,200.296C170.865,201.375 170.934,202.206 171.004,203.037C167.709,203.198 164.415,203.359 160.719,203.539C161.235,209.388 157.402,209.299 153.341,209.117C150.191,208.975 147.028,209.169 143.873,209.094C142.759,209.067 141.035,209.056 140.645,208.405C138.122,204.2 134.134,205.235 130.434,205.214C122.792,205.171 115.15,205.219 107.509,205.117C105.946,205.096 104.391,204.576 103.089,203.251C114.341,202.215 125.337,202.215 135.969,202.215C137.299,197.558 135.841,196.603 132.613,196.605C126.829,196.608 121.045,196.255 115.302,195.481C121.632,193.962 127.92,193.013 134.442,192.029C135.302,188.753 133.227,188.202 130.31,188.191C120.393,188.154 110.474,188.104 100.562,187.842C99.235,187.807 97.94,186.531 97.122,185.512C109.015,185.195 120.416,185.195 132.208,185.195C131.97,182.911 131.828,181.543 131.653,179.858C116.163,179.858 101.074,179.858 85.67,179.576C83.929,179.369 82.502,179.443 80.97,178.758C82.765,177.659 84.662,177.042 86.564,177.023C99.525,176.895 112.487,176.955 125.447,176.766C127.051,176.743 128.639,175.607 130.235,174.986C128.557,174.241 126.929,173.033 125.191,172.842C120.759,172.355 116.277,172.323 111.924,171.499C116.444,170.492 120.879,170.251 125.253,169.598C126.475,169.415 127.516,168.019 128.64,167.179C112.261,166.028 96.788,165.988 81.316,166.127C80.378,166.135 79.453,167.57 78.521,168.341C78.762,168.861 79.002,169.382 79.242,169.902C83.712,169.902 88.198,169.682 92.645,170.005C94.579,170.146 96.432,171.404 97.682,172.396C92.784,172.692 88.527,172.751 84.27,172.799C76.432,172.889 76.432,172.886 79.119,178.676C78.29,179.014 77.931,179.474 77.253,180.005C76.632,181.69 76.332,183.303 76.023,185.319C76.014,186.524 76.012,187.328 75.719,188.257C74.615,188.588 73.803,188.793 72.683,188.838C73.059,184.107 73.572,179.501 74.487,174.976C75.177,171.565 77.98,168.214 74.134,164.673C74.444,163.571 74.777,162.789 75.469,161.997C77.008,160.918 78.188,159.849 79.368,158.779C79.108,158.516 78.848,158.254 78.588,157.991C77.767,158.288 76.947,158.585 76.129,158.454C76.818,155.575 77.505,153.124 78.299,150.286C76.109,150.43 74.425,150.847 72.853,150.586C68.48,149.858 66.878,152.246 65.554,155.893C61.172,167.969 56.524,179.949 51.95,192.038C55.161,192.038 58.276,191.754 61.312,192.121C64.133,192.462 65.63,191.326 66.799,189.385C67.618,190.19 68.296,190.604 68.857,191.296C68.677,192.176 68.615,192.776 68.552,193.377C68.959,193.284 69.365,193.19 69.772,193.097C69.521,192.394 69.269,191.691 69.055,190.678C70.336,190.248 71.579,190.129 72.905,190.434C73.952,194.777 77.333,193.122 79.444,193.194C89.735,193.546 100.044,193.323 110.34,193.585C112.153,193.631 115.414,191.995 115.021,196.106C101.348,196.367 88.244,196.707 75.139,196.715C71.465,196.717 70.426,197.911 71.589,201.991C80.569,201.991 89.68,201.939 98.788,202.047C100.178,202.063 101.559,202.821 102.943,203.236C101.81,203.87 100.687,205.031 99.541,205.055C90.895,205.233 82.239,205.054 73.596,205.315C71.695,205.372 69.84,206.757 67.953,207.504C66.501,208.079 65.056,208.996 63.566,209.089C59.921,209.319 56.251,209.099 52.593,209.174C48.943,209.249 45.984,208.688 47.272,203.301C44.731,203.301 42.77,203.301 40.539,202.76C39.942,201.483 39.614,200.747 39.63,199.763C40.179,196.322 40.386,193.129 40.903,189.955C41.503,189.767 41.794,189.56 42.085,189.353C41.537,189.302 40.99,189.251 40.223,188.863C35.299,188.381 30.586,187.997 25.893,188.171C22.62,188.293 19.375,189.178 16.078,190.101C16.026,190.986 16.013,191.493 15.975,192.452C15.951,195.038 15.951,197.171 15.951,198.162C19.096,200.247 21.451,201.808 23.806,203.37M134.71,178.945C134.886,179.624 135.062,180.303 135.226,181.542C135.5,182.029 135.773,182.516 136.028,183.577C136.339,183.792 136.65,184.008 136.724,184.656C137.081,185.108 137.438,185.56 138.134,186.519C138.04,186.699 137.947,186.88 137.321,187.47C137.982,190.542 139.311,193.655 139.126,196.676C138.915,200.115 140.554,200.072 142.977,200.858C142.977,202.301 142.977,203.745 142.977,205.282C147.636,205.282 151.847,205.282 156.274,205.282C156.495,201.728 156.697,198.488 156.988,194.498C156.43,193.327 155.873,192.157 155.064,190.278C150.989,179.616 146.558,169.071 142.993,158.241C141.238,152.91 139.03,149.523 133.028,149.228C133.092,148.647 133.156,148.067 134.093,147.624C137.029,147.624 139.964,147.624 143.572,147.624C142.401,145.787 141.485,144.348 141.001,142.076C141.001,126.344 141.001,110.611 141.001,96.343C138.125,95.156 136.151,94.342 134.088,93.491C134.088,108.963 134.093,124.533 134.079,140.104C134.078,141.568 133.951,143.032 133.779,143.516C132.743,143.05 131.707,142.585 130.349,141.217C130.342,131.385 130.346,121.553 130.324,111.721C130.311,106.191 129.343,105.431 123.475,106.236C123.475,120.737 123.475,135.239 123.475,149.982C125.954,148.777 127.947,147.809 129.964,147.625C129.976,148.41 129.988,149.194 129.415,150.351C130.302,153.903 131.188,157.455 131.365,161.115C131.132,162.187 130.525,163.344 130.746,164.312C131.178,166.197 132.074,167.976 132.376,170.167C132.879,171.789 133.382,173.411 133.914,175.726C134.171,176.565 134.427,177.404 134.71,178.945M73.41,144.303C73.615,144.166 73.832,144.054 74.796,143.988C75.775,143.995 76.754,144.002 78.002,144.734C79.906,146.548 81.809,148.361 84.561,150.983C84.561,135.103 84.561,120.612 84.561,105.956C82.619,106.092 81.15,106.195 79.834,105.12C82.036,104.157 84.237,103.194 86.439,102.232C86.3,101.881 86.161,101.531 86.021,101.181C82.993,101.181 79.966,101.181 76.685,101.181C77.764,103.195 78.578,104.714 78.379,106.385C78.026,115.914 77.672,125.443 76.68,134.982C75.828,134.987 74.977,134.992 73.959,134.072C73.959,120.493 73.959,106.913 73.959,93.334C73.348,93.101 72.737,92.869 72.126,92.637C71.089,94.209 70.052,95.782 69.166,97.126C68.835,96.815 68.231,96.249 67.097,95.187C67.097,111.584 67.097,127.127 67.097,142.929C68.65,142.768 69.889,142.64 71.029,143.187C71.01,143.642 70.991,144.096 70.128,144.696C64.958,144.75 64.958,144.75 65.068,148.174C68.301,147.831 71.522,147.489 74.743,147.147C75.13,146.589 75.518,146.03 75.905,145.472C74.972,145.151 74.039,144.83 73.41,144.303M112.019,79.206C112.015,78.841 112.012,78.476 112.517,77.548C113.327,74.423 112.467,72.991 108.68,73.551C107.782,73.366 106.884,73.181 105.974,72.247C105.374,71.38 104.774,70.514 104.174,69.647C103.68,69.716 103.185,69.785 102.691,69.855C102.691,71.897 102.691,73.939 102.031,75.99C101.594,76.033 101.157,76.077 99.983,76.008C99.293,75.214 98.604,74.421 97.044,72.625C96.24,75.234 95.664,77.102 94.589,79.41C95.326,79.779 96.062,80.149 96.944,81.003C96.894,81.331 96.843,81.66 96.165,82.131C95.952,82.499 95.74,82.866 95.527,83.234C96.235,83.284 96.944,83.334 98.066,83.745C98.187,83.883 98.308,84.02 97.707,84.618C95.155,87.925 97.765,87.822 100.352,88.618C101.904,89.79 103.455,90.962 104.273,92.801C95.332,92.801 86.391,92.801 77.412,92.801C77.15,94.722 76.95,96.187 76.654,98.36C82.756,98.36 88.372,98.36 94,99.052C94.334,100.383 94.668,101.713 94.523,103.527C93.637,104.865 93.02,106.556 91.815,107.472C88.499,109.991 88.419,113.292 88.497,117.017C90.118,116.425 91.336,115.98 92.747,116.747C91.824,119.447 90.322,122.097 90.09,124.854C89.486,132.021 89.556,139.243 89.121,146.428C88.917,149.785 90.144,150.489 93.173,149.53C93.173,142.044 93.246,134.743 93.152,127.444C93.067,120.883 97.946,115.083 104.027,114.75C109.88,114.43 115.229,120.674 115.126,127.561C115.032,133.869 114.936,140.185 115.174,146.484C115.217,147.64 116.852,148.735 118.337,150.903C116.79,151.416 115.252,152.344 113.696,152.374C104.439,152.558 95.177,152.466 85.921,152.669C84.768,152.694 83.641,153.916 82.503,154.583C82.765,154.906 83.028,155.23 83.291,155.553C87.978,155.996 92.666,156.439 97.284,158.189C92.887,158.471 88.492,158.897 84.09,158.982C81.125,159.04 80.135,159.996 81.302,162.678C96.486,162.678 111.492,162.678 126.498,162.678C126.736,162.103 126.974,161.527 127.212,160.951C126.129,160.33 125.052,159.697 123.96,159.091C122.596,158.334 121.22,157.599 121.015,156.17C122.354,156.118 123.693,156.065 125.536,156.045C125.838,155.94 126.14,155.834 126.443,155.728C126.122,155.473 125.802,155.217 125.275,154.084C123.779,153.591 122.185,153.279 120.814,152.549C119.612,151.91 118.658,150.802 118.577,149.613C118.379,138.634 120.921,127.436 115.959,116.821C115.841,116.569 116.581,115.917 117.654,115.788C118.192,115.635 118.73,115.482 119.269,115.328C117.802,111.664 116.335,108 114.943,103.336C114.88,101.667 114.817,99.999 115.579,98.143C120.852,98.143 126.126,98.143 131.572,98.143C131.368,96.076 131.225,94.629 131.053,92.894C128.119,92.894 125.312,92.976 122.511,92.877C116.641,92.67 110.774,92.368 104.503,91.27C105.324,90.453 106.146,89.636 107.657,88.709C113.02,85.866 114.059,83.729 112.019,79.206M167.821,103.011C168.527,102.666 169.233,102.32 169.939,101.974C169.86,101.686 169.781,101.397 169.702,101.109C162.479,101.109 155.256,101.109 148.033,101.109C148,101.461 147.966,101.814 147.932,102.167C150.613,102.493 153.295,102.819 155.661,104.093C156.316,104.722 156.971,105.351 156.985,106.671C156.557,107.631 156.129,108.59 155.701,109.549C158.936,109.592 162.171,109.635 165.407,109.678C165.256,108.622 165.106,107.566 165.753,106.148C166.172,105.15 166.59,104.152 167.821,103.011M48.378,112.785C46.961,113.467 44.335,114.11 44.311,114.838C44.025,123.519 44.127,132.214 44.127,141.155C46.735,141.014 48.81,140.901 50.844,140.791C50.844,132.68 50.963,125.05 50.756,117.429C50.707,115.625 49.565,113.85 48.578,111.096C50.1,110.037 51.622,108.978 53.144,107.92C52.93,107.641 52.716,107.363 52.502,107.085C48.976,107.085 45.451,107.085 41.925,107.085C41.795,107.556 41.664,108.028 41.534,108.499C42.908,108.987 44.333,109.369 45.642,109.993C46.836,110.561 47.905,111.392 48.378,112.785M156.949,125.525C156.949,130.596 156.949,135.666 156.949,140.734C159.835,140.734 161.903,140.734 163.848,140.734C163.848,131.415 163.848,122.388 163.848,113.176C161.624,113.176 159.844,113.176 157.566,113.176C157.353,117.006 157.144,120.772 156.949,125.525M50.902,199.448C50.902,201.379 50.902,203.31 50.902,205.186C55.676,205.186 59.879,205.186 64.022,205.186C64.022,201.547 64.022,198.327 64.022,195.199C59.471,195.199 55.257,195.199 50.907,195.199C50.907,196.517 50.907,197.504 50.902,199.448M45.546,147.919C47.368,147.919 49.194,147.853 51.012,147.934C54.375,148.083 54.474,146.515 53.378,144.106C40.275,144.17 40.275,144.17 40.227,147.931C41.678,147.931 43.137,147.931 45.546,147.919M130.591,102.32C130.799,101.911 131.008,101.502 131.217,101.093C127.96,100.977 124.703,100.861 121.447,100.744C121.541,101.59 121.635,102.435 121.681,102.853C124.855,102.853 127.512,102.853 130.591,102.32M53.178,174.048C53.272,174.457 53.366,174.866 53.46,175.276C53.581,175.186 53.814,175.081 53.804,175.009C53.748,174.594 53.635,174.186 53.178,174.048M46.429,189.525C46.186,189.464 45.943,189.404 45.7,189.344C45.857,189.495 46.014,189.646 46.429,189.525M77.413,163.485C77.413,163.485 77.523,163.42 77.413,163.485z"/><path fill="#070707" d="M64.067,47.827C64.047,48.903 64.026,49.978 64.005,51.456C62.748,51.033 60.482,50.29 60.405,49.366C60.029,44.823 60.234,40.232 60.234,36.063C61.488,35.549 61.859,35.251 62.047,35.34C67.463,37.895 71.503,35.612 75.694,32.148C81.959,26.97 88.647,22.305 94.442,17.957C94.063,13.253 93.734,9.164 93.374,4.691C100.679,4.691 107.227,4.691 114.403,4.691C114.169,9.073 113.957,13.058 113.692,18.022C120.853,23.46 128.859,29.956 137.372,35.7C139.39,37.062 143.109,35.902 146.277,35.902C148.934,40.97 148.284,49.31 144.378,51.904C143.682,50.873 143.367,49.879 143.27,48.302C143.622,46.72 143.757,45.722 143.78,44.323C143.668,42.591 143.668,41.259 143.668,40.623C139.93,41.412 136.445,42.147 132.781,42.649C131.486,42.396 130.368,42.376 128.848,42.486C124.967,42.394 121.488,42.174 118.171,41.714C118.881,40.96 119.43,40.445 119.931,39.556C117.674,38.461 115.435,37.063 113.261,37.156C107.813,37.39 102.482,38.944 96.9,37.444C94.657,36.841 91.927,37.331 89.593,37.966C86.707,38.75 87.729,39.735 89.907,40.737C89.965,41.497 89.986,41.802 89.623,42.272C82.163,42.528 75.086,42.617 67.948,42.403C67.07,41.342 66.252,40.583 65.05,39.468C65.05,41.185 65.05,42.158 65.158,43.451C66.119,44.159 66.974,44.546 67.713,44.881C65.829,46.404 64.948,47.116 64.067,47.827M81.999,35C81.999,35 82.043,35.022 82.565,35.005C82.739,34.992 82.912,34.979 83.822,35.041C87.211,32.686 90.599,30.33 94.641,27.726C96.292,25.387 97.942,23.049 99.593,20.71C99.131,20.322 98.67,19.934 98.208,19.545C96.125,21.311 94.042,23.077 91.286,25.024C88.112,27.353 84.937,29.682 81.446,32.146C81.242,32.273 81.101,32.45 80.377,32.924C78.126,34.707 75.876,36.49 73.034,38.57C72.774,38.92 72.513,39.27 72.253,39.621C72.836,39.7 73.419,39.78 74.784,39.989C77.89,40.246 80.469,39.475 81.969,35.711C81.987,35.488 82.004,35.266 81.999,35M111.993,21.479C110.714,20.656 109.435,19.833 107.818,18.321C105.922,17.542 104.065,16.602 102.096,16.127C101.719,16.037 100.899,17.783 100.284,18.681C101.971,19.645 103.656,20.614 105.351,21.565C105.477,21.635 105.675,21.574 106.344,21.828C106.897,21.913 107.45,21.999 108.175,22.462C108.331,22.701 108.54,22.877 108.945,23.622C109.473,24.143 110.001,24.664 110.888,25.784C116.33,29.851 121.632,34.128 127.284,37.878C129.505,39.351 132.508,39.644 135.155,40.475C135.324,39.977 135.494,39.48 135.664,38.982C131.767,36.206 127.871,33.43 123.771,30.34C123.593,30.155 123.38,30.031 122.703,29.406C122.299,29.517 121.896,29.627 121.349,29.649C121.349,29.649 121.261,29.506 121.69,28.878C119.144,26.91 116.598,24.943 113.769,22.442C113.187,22.324 112.606,22.205 111.993,21.479M107.006,12.511C111.176,13.172 110.174,10.429 110.267,8.318C105.809,8.318 101.745,8.318 97.419,8.318C97.646,9.941 97.821,11.191 98.004,12.498C100.892,12.498 103.513,12.498 107.006,12.511z"/><path fill="#ebecec" d="M102.952,203.207C101.559,202.821 100.178,202.063 98.788,202.047C89.68,201.939 80.569,201.991 71.589,201.991C70.426,197.911 71.465,196.717 75.139,196.715C88.244,196.707 101.348,196.367 114.988,196.071C115.524,195.99 115.261,196.051 115.261,196.051C121.045,196.255 126.829,196.608 132.613,196.605C135.841,196.603 137.299,197.558 135.969,202.215C125.337,202.215 114.341,202.215 103.192,202.726C103.039,203.238 102.962,203.178 102.952,203.207z"/><path fill="#ececec" d="M40.593,189.937C40.386,193.129 40.179,196.322 39.333,199.669C36.287,199.814 33.878,199.715 31.477,199.821C29.367,199.913 28.028,200.696 29.488,203.075C27.592,203.157 25.697,203.239 23.803,203.345C21.451,201.808 19.096,200.247 15.951,198.162C15.951,197.171 15.951,195.038 16.272,192.402C16.971,192.023 17.35,192.148 17.873,192.515C18.284,192.732 18.551,192.704 18.819,192.677C18.669,192.329 18.52,191.981 18.252,191.345C17.461,190.612 16.789,190.167 16.118,189.723C19.375,189.178 22.62,188.293 25.893,188.171C30.586,187.997 35.299,188.381 40.168,189.066C40.332,189.607 40.593,189.937 40.593,189.937z"/><path fill="#eeefef" d="M170.994,200.047C170.653,199.948 170.311,199.848 169.614,199.413C169.098,198.068 168.937,197.059 168.766,195.607C168.882,193.115 169.009,191.066 169.135,189.016C169.135,189.016 169.27,188.908 169.654,188.773C171.026,188.424 172.013,188.209 173.393,188.09C179.693,188.179 185.6,188.173 191.552,188.473C191.227,189.476 190.858,190.172 190.277,191.112C190.977,192.068 191.889,192.779 192.735,193.768C192.688,194.804 192.705,195.561 192.443,196.553C191.278,197.885 190.392,198.981 189.507,200.078C187.734,200.517 185.962,200.956 183.838,200.714C179.322,200.038 175.158,200.043 170.994,200.047z"/><path fill="#070707" d="M67.005,89.354C66.863,91.46 67.799,94.262 63.622,94.006C61.937,92.138 60.63,90.269 58.819,87.679C56.008,88.002 52.522,88.403 48.304,88.916C47.085,89.016 46.599,89.002 46.113,88.988C46.128,88.496 46.313,87.649 46.133,87.563C37.905,83.615 42.843,76.633 41.283,69.686C52.187,74.659 59.564,72.722 62.986,61.339C63.865,61.002 64.606,61.007 65.74,61.338C65.687,63.437 65.238,65.209 64.471,67.046C63.8,67.824 63.448,68.536 62.902,69.511C60.473,71.845 58.238,73.919 55.97,76.405C55.929,77.095 55.921,77.371 55.534,77.724C53.117,77.71 51.079,77.618 49.037,77.253C48.703,76.578 48.373,76.175 48.006,75.552C47.811,75.104 47.653,74.876 47.494,74.649C47.315,75.024 47.136,75.399 46.717,75.941C46.31,76.65 46.142,77.192 45.723,77.866C45.32,78.318 45.169,78.638 44.998,79.364C45.09,80.972 45.202,82.173 45.345,83.705C47.023,83.305 48.351,82.989 50.098,82.659C55.012,82.433 59.507,82.221 64.025,82.313C64.387,83.087 64.726,83.557 64.811,84.322C63.041,87.4 63.742,89.039 67.005,89.354z"/><path fill="#020202" d="M191.508,188.166C185.6,188.173 179.693,188.179 173.393,187.736C173.002,186.576 173.003,185.867 173.353,185.035C173.999,182.751 174.297,180.59 174.639,178.109C170.39,178.109 167.168,178.109 163.768,177.679C165.007,176.478 166.422,175.707 168.119,174.958C168.779,174.993 169.157,175.007 169.835,175.307C171.736,175.743 173.336,175.893 175.144,176.062C175.495,173.817 175.783,171.975 176.071,170.132C176.393,170.147 176.716,170.163 177.039,170.178C177.039,172.085 177.039,173.992 177.028,176.295C177.048,177.219 177.078,177.747 177.122,178.666C177.286,180.97 177.436,182.883 177.594,184.903C179.648,184.903 181.242,184.903 183.127,184.903C183.127,182.484 183.127,180.218 183.371,177.772C183.42,176.732 183.225,175.87 183.079,174.561C183.233,171.413 183.336,168.714 183.777,166.013C185.015,166.01 185.915,166.008 186.816,166.005C186.816,172.123 186.816,178.24 186.816,185.02C189.617,185.02 191.87,185.02 194.665,185.296C195.392,185.792 195.624,185.935 195.904,186.001C195.996,186.446 196.088,186.89 195.633,187.668C193.893,188.056 192.7,188.111 191.508,188.166z"/><path fill="#f0f0f0" d="M177.039,175.899C177.039,173.992 177.039,172.085 177.039,170.178C176.716,170.163 176.393,170.147 176.071,170.132C175.783,171.975 175.495,173.817 175.144,176.062C173.336,175.893 171.736,175.743 169.87,174.882C170.036,170.432 167.92,165.699 173.739,163.961C174.211,163.791 174.514,163.654 174.817,163.517C175.899,163.437 176.98,163.356 178.437,163.107C179.865,162.933 180.917,162.928 182.266,163.251C182.741,163.717 182.919,163.856 183.099,164.34C183.214,165.129 183.327,165.572 183.44,166.014C183.336,168.714 183.233,171.413 182.785,174.61C181.964,175.456 181.488,175.804 180.619,176.075C179.164,175.965 178.101,175.932 177.039,175.899z"/><path fill="#020202" d="M147.958,67.131C149.411,68.464 150.88,69.779 152.314,71.133C154.465,73.164 156.29,73.784 159.457,72.155C165.776,68.904 166.844,69.878 166.859,77.122C166.861,78.112 166.852,79.103 166.367,80.541C164.843,81.024 163.801,81.058 162.446,80.9C162.514,78.879 162.893,77.051 163.273,75.223C162.882,75.006 162.491,74.789 162.1,74.572C161.472,75.319 160.844,76.067 160.03,76.978C159.844,77.141 159.854,77.635 159.516,77.685C156.834,77.701 154.491,77.668 152.227,77.485C152.306,77.336 152.066,77.1 152.174,76.796C150.489,74.41 148.695,72.328 146.943,69.917C147.309,68.768 147.633,67.949 147.958,67.131z"/><path fill="#020202" d="M192.723,196.318C192.705,195.561 192.688,194.804 192.794,193.356C192.942,192.111 192.966,191.556 193.363,191.001C194.486,191 195.234,191 195.982,191.001C196.111,193.65 196.24,196.299 196.379,199.163C197.935,199.956 199.599,200.802 201.262,201.649C201.18,202.057 201.098,202.466 201.016,202.874C197.151,202.702 193.132,205.102 190.078,200.747C191.356,198.885 192.04,197.602 192.723,196.318z"/><path fill="#070707" d="M170.895,200.296C175.158,200.043 179.322,200.038 183.504,200.551C182.976,201.799 182.467,203.125 181.877,203.162C178.564,203.369 175.232,203.265 171.455,203.152C170.934,202.206 170.865,201.375 170.895,200.296z"/><path fill="#292929" d="M60.613,97.918C60.119,105.67 54.465,101.159 50.463,101.661C50.02,100.917 50.019,100.499 50.421,100.054C52.434,99.602 54.043,99.177 55.653,98.752C57.175,98.439 58.698,98.126 60.613,97.918z"/><path fill="#070707" d="M162.758,81.093C163.801,81.058 164.843,81.024 166.277,80.989C167.371,84.046 166.784,86.229 162.694,86.227C161.909,85.411 161.504,84.664 161.35,83.391C161.987,82.274 162.373,81.684 162.758,81.093z"/><path fill="#0d0d0d" d="M29.963,203.175C28.028,200.696 29.367,199.913 31.477,199.821C33.878,199.715 36.287,199.814 38.99,199.918C39.614,200.747 39.942,201.483 40.126,202.649C36.802,203.144 33.62,203.209 29.963,203.175z"/><path fill="#0d0d0d" d="M50.018,100.08C50.019,100.499 50.02,100.917 50.039,101.649C48.077,101.517 46.098,101.072 44.096,99.924C44.093,99.007 44.114,98.794 44.136,98.58C45.795,98.576 47.454,98.571 49.544,98.998C49.989,99.646 50.003,99.863 50.018,100.08z"/><path fill="#292929" d="M43.903,98.286C44.114,98.794 44.093,99.007 44.02,99.537C42.923,99.941 41.878,100.027 40.074,100.147C39.064,100.171 38.813,100.163 38.562,100.154C39.505,98.722 40.448,97.29 41.713,95.857C42.58,96.569 43.126,97.281 43.903,98.286z"/><path fill="#070707" d="M196.09,190.633C195.234,191 194.486,191 192.946,190.991C191.6,190.944 191.044,190.906 190.489,190.867C190.858,190.172 191.227,189.476 191.552,188.473C192.7,188.111 193.893,188.056 195.532,188C196.052,188.755 196.125,189.51 196.09,190.633z"/><path fill="#070707" d="M183.777,166.013C183.327,165.572 183.214,165.129 183.295,164.251C183.728,163.642 183.897,163.415 183.997,163.136C184.99,163.841 185.984,164.546 186.897,165.628C185.915,166.008 185.015,166.01 183.777,166.013z"/><path fill="#020202" d="M50.421,100.054C50.003,99.863 49.989,99.646 49.947,99.103C51.612,98.759 53.305,98.741 55.325,98.737C54.043,99.177 52.434,99.602 50.421,100.054z"/><path fill="#070707" d="M147.929,66.863C147.633,67.949 147.309,68.768 146.685,69.833C145.797,69.419 145.21,68.758 144.622,68.098C145.161,67.464 145.7,66.829 146.657,66.085C147.351,66.182 147.625,66.389 147.929,66.863z"/><path fill="#101010" d="M192.443,196.553C192.04,197.602 191.356,198.885 190.036,200.176C189.4,200.183 189.445,200.102 189.476,200.09C190.392,198.981 191.278,197.885 192.443,196.553z"/><path fill="#0d0d0d" d="M33.98,151.602C33.986,150.672 33.993,149.741 33.997,148.461C34.438,148.042 34.882,147.972 35.663,147.953C36.005,148.943 36.01,149.882 35.683,151.281C34.894,151.695 34.437,151.649 33.98,151.602z"/><path fill="#191919" d="M46.12,89.309C46.599,89.002 47.085,89.016 47.933,89.081C47.572,89.298 46.85,89.464 46.12,89.309z"/><path fill="#101010" d="M183.69,163.065C183.897,163.415 183.728,163.642 183.293,163.905C182.919,163.856 182.741,163.717 182.66,163.254C182.965,162.952 183.174,162.973 183.69,163.065z"/><path fill="#101010" d="M195.933,185.73C195.624,185.935 195.392,185.792 195.107,185.39C195.325,185.292 195.643,185.376 195.933,185.73z"/><path fill="#f5f5f5" d="M132.996,150.103C139.03,149.523 141.238,152.91 142.993,158.241C146.558,169.071 150.989,179.616 154.982,191.019C152.596,191.941 150.292,192.122 147.568,192.215C145.451,192.038 143.754,191.95 142.051,191.498C140.648,189.776 139.251,188.418 137.853,187.06C137.947,186.88 138.04,186.699 137.992,185.952C137.554,184.998 137.258,184.611 136.962,184.224C136.65,184.008 136.339,183.792 136.353,183.146C138.405,181.866 140.423,181.103 137.814,178.587C136.619,174.701 135.401,171.188 134.182,167.401C133.478,165.087 132.776,163.047 132.075,161.008C131.188,157.455 130.302,153.903 130.071,150.286C131.484,150.182 132.24,150.142 132.996,150.103z"/><path fill="#f7f7f7" d="M75.111,162.007C74.777,162.789 74.444,163.571 73.962,165.009C71.429,173.442 69.044,181.219 66.658,188.995C65.63,191.326 64.133,192.462 61.312,192.121C58.276,191.754 55.161,192.038 51.95,192.038C56.524,179.949 61.172,167.969 65.554,155.893C66.878,152.246 68.48,149.858 72.853,150.586C74.425,150.847 76.109,150.43 78.299,150.286C77.505,153.124 76.818,155.575 75.982,158.694C75.592,160.243 75.351,161.125 75.111,162.007z"/><path fill="#eaeaea" d="M115.302,195.481C115.261,196.051 115.524,195.99 115.556,196.024C115.414,191.995 112.153,193.631 110.34,193.585C100.044,193.323 89.735,193.546 79.444,193.194C77.333,193.122 73.952,194.777 72.98,190.187C72.98,189.343 72.986,189.171 72.992,188.999C73.803,188.793 74.615,188.588 76.155,188.378C79.586,188.279 82.29,188.185 85.446,188.202C89.039,188.211 92.187,188.186 95.313,187.916C95.753,187.878 96.088,186.634 96.493,185.9C96.515,185.851 96.63,185.829 96.63,185.829C97.94,186.531 99.235,187.807 100.562,187.842C110.474,188.104 120.393,188.154 130.31,188.191C133.227,188.202 135.302,188.753 134.442,192.029C127.92,193.013 121.632,193.962 115.302,195.481z"/><path fill="#e3e3e4" d="M116.92,115.451C116.581,115.917 115.841,116.569 115.959,116.821C120.921,127.436 118.379,138.634 118.114,149.774C117.651,149.935 117.752,149.858 117.752,149.858C116.852,148.735 115.217,147.64 115.174,146.484C114.936,140.185 115.032,133.869 115.126,127.561C115.229,120.674 109.88,114.43 104.027,114.75C97.946,115.083 93.067,120.883 93.152,127.444C93.246,134.743 93.173,142.044 93.173,149.53C90.144,150.489 88.917,149.785 89.121,146.428C89.556,139.243 89.486,132.021 90.09,124.854C90.322,122.097 91.824,119.447 92.662,116.126C93.037,115.158 93.496,114.812 94.294,114.705C95.517,114.34 96.4,113.735 97.647,113.094C102.065,110.899 106.047,111.237 110.156,113.076C111.228,113.556 112.747,113.035 114.035,112.99C114.01,113.005 114.019,112.947 113.558,113.219C113.654,114.233 114.21,114.975 115.137,116.022C116.029,116.051 116.552,115.775 117.025,115.523C116.975,115.548 116.92,115.451 116.92,115.451z"/><path fill="#efefef" d="M133.882,144.496C133.951,143.032 134.078,141.568 134.079,140.104C134.093,124.533 134.088,108.963 134.088,93.491C136.151,94.342 138.125,95.156 141.001,96.343C141.001,110.611 141.001,126.344 140.437,142.48C139.181,142.963 138.49,143.042 137.378,143.076C135.61,143.405 132.854,141.321 133.482,145.045C133.532,145.038 133.533,144.936 133.633,144.89C133.734,144.844 133.882,144.496 133.882,144.496z"/><path fill="#eeeeee" d="M71.129,142.512C69.889,142.64 68.65,142.768 67.097,142.929C67.097,127.127 67.097,111.584 67.097,95.187C68.231,96.249 68.835,96.815 69.166,97.126C70.052,95.782 71.089,94.209 72.126,92.637C72.737,92.869 73.348,93.101 73.959,93.334C73.959,106.913 73.959,120.493 73.957,134.961C73.94,138.161 73.926,140.471 73.559,142.879C72.513,142.821 71.821,142.666 71.129,142.512z"/><path fill="#f7f7f7" d="M79.681,106.297C81.15,106.195 82.619,106.092 84.561,105.956C84.561,120.612 84.561,135.103 84.561,150.983C81.809,148.361 79.906,146.548 77.881,143.918C77.613,140.392 77.466,137.682 77.318,134.973C77.672,125.443 78.026,115.914 78.913,106.338C79.447,106.291 79.681,106.297 79.681,106.297z"/><path fill="#f7f7f7" d="M129.94,146.841C127.947,147.809 125.954,148.777 123.475,149.982C123.475,135.239 123.475,120.737 123.479,106.233C129.343,105.431 130.311,106.191 130.324,111.721C130.346,121.553 130.342,131.385 130.323,142.027C130.178,144.171 130.059,145.506 129.94,146.841z"/><path fill="#f5f5f5" d="M97.122,185.512C96.63,185.829 96.515,185.851 96.26,185.508C92.338,185.124 88.671,185.085 84.564,184.938C81.427,184.86 78.729,184.889 76.032,184.917C76.332,183.303 76.632,181.69 77.659,180.074C78.752,179.725 79.118,179.378 79.639,179.207C80.357,179.607 80.921,179.831 81.935,180.059C83.585,179.994 84.785,179.926 85.985,179.858C101.074,179.858 116.163,179.858 131.653,179.858C131.828,181.543 131.97,182.911 132.208,185.195C120.416,185.195 109.015,185.195 97.122,185.512z"/><path fill="#f6f6f6" d="M93.987,98.36C88.372,98.36 82.756,98.36 76.654,98.36C76.95,96.187 77.15,94.722 77.412,92.801C86.391,92.801 95.332,92.801 104.629,92.428C104.985,92.056 104.906,92.105 104.906,92.105C110.774,92.368 116.641,92.67 122.511,92.877C125.312,92.976 128.119,92.894 131.053,92.894C131.225,94.629 131.368,96.076 131.572,98.143C126.126,98.143 120.852,98.143 114.784,98.141C107.322,98.213 100.655,98.287 93.987,98.36z"/><path fill="#f2f2f2" d="M81.485,180.055C80.921,179.831 80.357,179.607 79.666,179.173C79.54,178.964 79.59,178.799 79.59,178.799C76.432,172.886 76.432,172.889 84.27,172.799C88.527,172.751 92.784,172.692 97.64,172.364C98.981,172.078 99.724,172.066 100.851,172.248C104.674,172.312 108.113,172.182 111.61,172.08C111.668,172.108 111.815,172.109 111.815,172.109C116.277,172.323 120.759,172.355 125.191,172.842C126.929,173.033 128.557,174.241 130.235,174.986C128.639,175.607 127.051,176.743 125.447,176.766C112.487,176.955 99.525,176.895 86.564,177.023C84.662,177.042 82.765,177.659 80.941,178.763C81.079,179.794 81.235,179.971 81.485,180.055z"/><path fill="#edeeed" d="M111.924,171.499C111.815,172.109 111.668,172.108 111.749,171.544C108.127,170.703 104.424,170.417 100.717,170.227C100.665,170.224 100.551,171.419 100.467,172.055C99.724,172.066 98.981,172.078 98.28,172.122C96.432,171.404 94.579,170.146 92.645,170.005C88.198,169.682 83.712,169.902 79.242,169.902C79.002,169.382 78.762,168.861 78.521,168.341C79.453,167.57 80.378,166.135 81.316,166.127C96.788,165.988 112.261,166.028 128.64,167.179C127.516,168.019 126.475,169.415 125.253,169.598C120.879,170.251 116.444,170.492 111.924,171.499z"/><path fill="#f0f0f0" d="M33.763,151.915C34.437,151.649 34.894,151.695 35.68,151.633C41.624,151.753 47.24,151.983 52.902,152.915C52.786,155.087 52.624,156.557 52.461,158.027C52.291,159.453 52.121,160.88 51.888,162.838C48.437,162.838 45.18,162.838 41.302,162.926C40.293,163.015 39.907,163.016 39.52,163.017C37.796,162.803 36.072,162.589 33.546,162.276C33.546,159.164 33.546,155.696 33.763,151.915z"/><path fill="#ececec" d="M117.287,115.619C116.92,115.451 116.975,115.548 116.959,115.206C116.29,114.33 115.637,113.795 114.783,113.061C114.393,112.89 114.206,112.918 114.019,112.947C114.019,112.947 114.01,113.005 113.942,112.638C106.028,107.11 102.316,107.054 94.517,112.144C94.033,113.023 93.994,113.745 93.955,114.466C93.496,114.812 93.037,115.158 92.566,115.519C91.336,115.98 90.118,116.425 88.497,117.017C88.419,113.292 88.499,109.991 91.815,107.472C93.02,106.556 93.637,104.865 95.225,103.353C102.241,103.564 108.555,103.95 114.868,104.336C116.335,108 117.802,111.664 119.269,115.328C118.73,115.482 118.192,115.635 117.287,115.619z"/><path fill="#f6f6f6" d="M174.831,163.138C174.514,163.654 174.211,163.791 173.427,163.611C168.63,163.236 164.313,163.179 159.996,163.122C158.625,162.537 157.254,161.952 155.851,160.655C155.767,158.642 155.716,157.341 155.832,155.732C155.964,154.256 155.929,153.089 155.894,151.922C156.371,151.849 156.848,151.776 158.091,151.652C161.582,151.489 164.306,151.377 167.03,151.265C169.437,151.51 171.843,151.755 173.713,151.945C174.107,155.714 174.476,159.237 174.831,163.138z"/><path fill="#e5e6e6" d="M119.849,156.855C121.22,157.599 122.596,158.334 123.96,159.091C125.052,159.697 126.129,160.33 127.212,160.951C126.974,161.527 126.736,162.103 126.498,162.678C111.492,162.678 96.486,162.678 81.302,162.678C80.135,159.996 81.125,159.04 84.09,158.982C88.492,158.897 92.887,158.471 97.286,157.533C97.287,156.877 97.495,156.956 97.364,157.526C104.59,158.367 111.946,158.642 119.304,158.83C119.348,158.831 119.424,157.611 119.534,156.921C119.584,156.882 119.849,156.855 119.849,156.855z"/><path fill="#f4f4f4" d="M48.926,112.062C49.565,113.85 50.707,115.625 50.756,117.429C50.963,125.05 50.844,132.68 50.844,140.791C48.81,140.901 46.735,141.014 44.127,141.155C44.127,132.214 44.025,123.519 44.311,114.838C44.335,114.11 46.961,113.467 48.692,112.413C49.006,112.041 48.926,112.062 48.926,112.062z"/><path fill="#f6f6f6" d="M156.942,125.032C157.144,120.772 157.353,117.006 157.566,113.176C159.844,113.176 161.624,113.176 163.848,113.176C163.848,122.388 163.848,131.415 163.848,140.734C161.903,140.734 159.835,140.734 156.949,140.734C156.949,135.666 156.949,130.596 156.942,125.032z"/><path fill="#f0f0f0" d="M56.003,75.992C58.238,73.919 60.473,71.845 63.18,69.71C63.938,70.303 64.222,70.959 64.506,71.614C64.865,71.527 65.224,71.441 65.583,71.354C65.319,69.896 65.054,68.439 64.79,66.981C65.238,65.209 65.687,63.437 66.11,61.346C66.812,59.025 67.539,57.023 68.386,54.69C69.758,54.888 71.276,55.106 72.896,55.34C72.583,61.742 72.344,67.848 71.913,73.941C71.856,74.748 70.826,75.486 69.809,76.685C68.926,77.414 68.48,77.714 67.727,77.88C65.01,77.494 62.601,77.243 59.976,76.679C58.508,76.241 57.256,76.117 56.003,75.992z"/><path fill="#f0f0f0" d="M147.69,89.253C152.421,86.721 156.534,87.525 160.018,90.919C162.579,93.413 165.727,95.306 169.601,98.207C160.848,98.207 153.213,98.207 145.013,98.207C145.013,96.501 145.013,94.747 145.36,92.649C145.708,92.305 145.991,92.067 146.345,92.09C146.896,91.724 147.094,91.334 147.49,90.707C147.689,90.065 147.689,89.659 147.69,89.253z"/><path fill="#f2f2f2" d="M144.32,67.806C145.21,68.758 145.797,69.419 146.643,70.163C148.695,72.328 150.489,74.41 151.748,76.746C147.15,77.111 143.087,77.221 139.024,77.332C138.344,76.289 137.107,75.263 137.076,74.202C136.891,67.843 136.984,61.475 136.984,53.907C142.068,57.9 142.482,63.009 144.32,67.806z"/><path fill="#ececec" d="M100.836,60.397C100.018,61.65 99.436,63.183 98.342,64.112C91.207,70.172 83.961,76.101 76.399,81.826C75.951,80.653 75.856,79.726 75.769,78.879C74.595,78.879 73.649,78.879 72.704,78.879C74.577,77.242 76.402,75.546 78.33,73.976C84.982,68.56 91.67,63.188 98.726,58.206C99.684,59.208 100.26,59.802 100.836,60.397z"/><path fill="#ebecec" d="M120.432,156.512C119.849,156.855 119.584,156.882 119.287,156.53C116.994,156.155 114.993,156.039 113.002,156.127C107.831,156.355 102.664,156.673 97.495,156.956C97.495,156.956 97.287,156.877 97.32,156.88C92.666,156.439 87.978,155.996 83.291,155.553C83.028,155.23 82.765,154.906 82.503,154.583C83.641,153.916 84.768,152.694 85.921,152.669C95.177,152.466 104.439,152.558 113.696,152.374C115.252,152.344 116.79,151.416 118.044,150.381C117.752,149.858 117.651,149.935 117.623,149.918C118.658,150.802 119.612,151.91 120.814,152.549C122.185,153.279 123.779,153.591 125.241,154.775C125.148,155.648 125.09,155.83 125.032,156.012C123.693,156.065 122.354,156.118 120.432,156.512z"/><path fill="#e5e6e6" d="M121.037,66.91C124.799,70.015 128.642,73.03 132.275,76.279C133.368,77.257 133.878,78.888 135.199,80.656C136.819,81.319 137.897,81.545 138.974,81.771C139.783,84.576 145.416,83.602 143.713,88.536C143.19,88.92 142.994,89.033 142.856,89.248C140.557,88.152 137.978,87.416 136.011,85.892C129.642,80.956 123.498,75.73 117.414,70.173C118.719,68.79 119.878,67.85 121.037,66.91z"/><path fill="#ebecec" d="M156.9,195.247C156.697,198.488 156.495,201.728 156.274,205.282C151.847,205.282 147.636,205.282 142.977,205.282C142.977,203.745 142.977,202.301 142.987,200.026C143.026,197.806 143.054,196.419 143.49,194.987C145.262,194.886 146.625,194.831 148.431,194.865C151.549,195.051 154.224,195.149 156.9,195.247z"/><path fill="#f2f2f2" d="M68.008,42.707C75.086,42.617 82.163,42.528 89.88,42.337C90.677,42.156 90.834,42.076 91.242,42.016C91.823,42.035 92.152,42.034 92.61,42.437C92.767,44.538 92.794,46.234 92.822,47.931C83.542,47.953 74.263,47.975 64.526,47.912C64.948,47.116 65.829,46.404 67.713,44.881C66.974,44.546 66.119,44.159 65.526,43.379C66.528,42.893 67.268,42.8 68.008,42.707z"/><path fill="#f2f2f2" d="M50.905,198.97C50.907,197.504 50.907,196.517 50.907,195.199C55.257,195.199 59.471,195.199 64.022,195.199C64.022,198.327 64.022,201.547 64.022,205.186C59.879,205.186 55.676,205.186 50.902,205.186C50.902,203.31 50.902,201.379 50.905,198.97z"/><path fill="#eeefef" d="M118.009,41.953C121.488,42.174 124.967,42.394 128.884,42.849C130.534,43.016 131.747,42.949 132.96,42.882C136.445,42.147 139.93,41.412 143.668,40.623C143.668,41.259 143.668,42.591 143.422,44.472C140.127,46.044 137.078,47.067 134.03,48.091C128.256,48.091 122.483,48.091 116.126,48.091C116.126,46.136 116.126,44.545 116.404,42.432C117.124,41.923 117.567,41.938 118.009,41.953z"/><path fill="#eaeaea" d="M104.704,91.687C104.906,92.105 104.985,92.056 104.996,92.095C103.455,90.962 101.904,89.79 100.265,87.979C99.594,86.279 99.011,85.218 98.428,84.157C98.308,84.02 98.187,83.883 97.682,83.351C97.13,82.634 96.961,82.311 96.792,81.989C96.843,81.66 96.894,81.331 96.716,80.505C96.022,79.662 95.555,79.316 95.088,78.97C95.664,77.102 96.24,75.234 97.044,72.625C98.604,74.421 99.293,75.214 100.538,76.372C101.625,76.485 102.158,76.233 102.691,75.981C102.691,73.939 102.691,71.897 102.691,69.855C103.185,69.785 103.68,69.716 104.174,69.647C104.774,70.514 105.374,71.38 105.656,72.792C105.232,74.542 105.127,75.748 104.973,77.336C105.937,79.812 106.95,81.906 107.647,84.043C105.37,85.523 104.915,87.075 106.967,88.819C106.146,89.636 105.324,90.453 104.704,91.687z"/><path fill="#e8e8e8" d="M167.837,174.937C166.422,175.707 165.007,176.478 163.831,177.673C164.071,178.097 164.32,178.075 164.32,178.075C163.949,177.382 163.619,176.663 163.197,176.003C162.299,174.599 161.353,173.225 160.549,171.241C160.437,170.177 160.201,169.71 159.965,169.244C159.708,169.833 159.45,170.422 159.193,171.012C159.031,172.467 158.87,173.922 158.657,175.846C157.188,175.74 155.844,175.644 154.077,175.517C154.703,172.928 155.221,170.782 155.768,168.52C153.758,168.093 151.98,167.716 150.203,167.338C150.228,166.879 150.253,166.42 150.278,165.96C153.219,165.96 156.161,165.96 159.981,165.956C167.831,166.129 167.83,166.129 167.806,172.961C167.803,173.62 167.826,174.278 167.837,174.937z"/><path fill="#e2e2e2" d="M162.446,80.9C162.373,81.684 161.987,82.274 161.359,82.945C157.976,82.907 154.788,82.394 151.706,82.761C147,83.322 143.245,81.94 140.381,78.346C144.539,77.904 148.343,77.769 152.147,77.634C154.491,77.668 156.834,77.701 159.789,77.774C160.338,77.48 160.277,77.147 160.216,76.815C160.844,76.067 161.472,75.319 162.1,74.572C162.491,74.789 162.882,75.006 163.273,75.223C162.893,77.051 162.514,78.879 162.446,80.9z"/><path fill="#f0f0f0" d="M25.021,175.947C25.021,172.99 25.021,170.034 25.021,165.961C29.283,165.961 33.181,165.961 37.585,166.178C38.16,166.659 38.323,166.835 38.579,166.925C38.421,169.691 38.263,172.456 38.044,176.275C35.859,175.552 34.279,175.029 32.647,173.791C30.77,171.333 28.945,169.591 27.12,167.849C26.747,168.233 26.373,168.618 26,169.003C27.418,170.673 28.837,172.342 30.255,174.012C30.204,174.472 30.153,174.933 29.647,175.759C27.802,176.066 26.411,176.006 25.021,175.947z"/><path fill="#c3c4c4" d="M92.481,42.033C92.152,42.034 91.823,42.035 91.248,41.74C90.624,41.057 90.247,40.669 89.869,40.281C87.729,39.735 86.707,38.75 89.593,37.966C91.927,37.331 94.657,36.841 96.9,37.444C102.482,38.944 107.813,37.39 113.261,37.156C115.435,37.063 117.674,38.461 119.534,39.608C118.119,40.072 117.054,40.109 115.989,40.145C115.413,41.862 114.837,43.578 113.81,45.766C112.894,44.779 112.431,43.319 111.948,41.487C111.708,40.561 111.479,39.524 111.265,39.527C105.539,39.614 99.811,39.751 94.094,40.071C93.521,40.103 93.017,41.35 92.481,42.033z"/><path fill="#f7f7f7" d="M111.968,41.859C112.431,43.319 112.894,44.779 113.669,46.124C113.113,46.741 112.264,48.078 111.374,48.106C106.222,48.272 101.061,48.128 95.504,47.587C95.34,45.239 95.575,43.394 95.77,41.859C101.625,41.859 106.796,41.859 111.968,41.859z"/><path fill="#070707" d="M114.906,103.836C108.555,103.95 102.241,103.564 95.464,103.111C94.668,101.713 94.334,100.383 93.994,98.706C100.655,98.287 107.322,98.213 114.372,98.235C114.817,99.999 114.88,101.667 114.906,103.836z"/><path fill="#ebecec" d="M42.005,175.935C41.448,173.269 40.891,170.603 40.549,167.39C41.178,166.515 41.592,166.186 42.007,165.858C46.906,165.858 51.805,165.858 56.704,165.858C56.763,166.233 56.822,166.608 56.881,166.983C54.752,167.476 52.624,167.969 49.972,168.869C49.225,170.82 49.003,172.364 48.781,173.908C47.696,174.466 46.612,175.023 44.891,175.665C43.505,175.811 42.755,175.873 42.005,175.935z"/><path fill="#e3e3e4" d="M163.895,178.243C164.32,178.075 164.071,178.097 164.008,178.103C167.168,178.109 170.39,178.109 174.639,178.109C174.297,180.59 173.999,182.751 173.066,184.957C171.456,185.053 170.482,185.103 169.507,185.153C166.179,185.042 162.901,185.029 161.426,181.041C160.562,178.706 161.103,177.982 163.895,178.243z"/><path fill="#0d0d0d" d="M72.683,188.838C72.986,189.171 72.98,189.343 72.899,189.763C71.579,190.129 70.336,190.248 69.044,190.685C68.997,191.003 68.975,191.018 68.975,191.018C68.296,190.604 67.618,190.19 66.799,189.385C69.044,181.219 71.429,173.442 73.986,165.329C77.98,168.214 75.177,171.565 74.487,174.976C73.572,179.501 73.059,184.107 72.683,188.838z"/><path fill="#efefef" d="M120.89,66.607C119.878,67.85 118.719,68.79 117.267,69.87C113.594,67.227 110.216,64.443 107.124,61.153C107.983,59.45 108.556,58.251 109.129,57.053C113,60.136 116.872,63.22 120.89,66.607z"/><path fill="#e3e3e4" d="M72.525,78.864C73.649,78.879 74.595,78.879 75.769,78.879C75.856,79.726 75.951,80.653 76.076,81.953C73.309,84.62 70.511,86.912 67.36,89.279C63.742,89.039 63.041,87.4 65.171,84.329C66.872,83.566 67.959,83.089 69.118,82.927C69.902,82.186 70.612,81.129 71.474,79.893C71.772,79.434 71.892,79.145 71.985,78.844C71.985,78.844 72.345,78.848 72.525,78.864z"/><path fill="#dddede" d="M36.799,184.916C35.671,184.974 34.544,185.031 33.152,185.102C33.152,182.815 33.152,180.76 33.152,178.184C35.928,178.184 38.526,178.184 41.862,178.213C43.415,178.231 44.23,178.219 45.044,178.207C44.429,179.215 43.814,180.223 42.769,181.688C41.525,182.538 40.198,183.459 39.974,183.242C37.012,180.369 37.228,183.213 36.799,184.916z"/><path fill="#e5e6e6" d="M157.995,148.151C156.871,148.054 155.746,147.956 154.621,147.858C154.306,147.463 153.992,147.068 153.677,146.673C154.936,145.749 156.463,143.826 157.406,144.079C160.817,144.995 166.307,140.311 166.802,147.725C163.401,148.009 160.698,148.08 157.995,148.151z"/><path fill="#eaeaea" d="M45.071,147.925C43.137,147.931 41.678,147.931 40.227,147.931C40.275,144.17 40.275,144.17 53.378,144.106C54.474,146.515 54.375,148.083 51.012,147.934C49.194,147.853 47.368,147.919 45.071,147.925z"/><path fill="#070707" d="M111.948,41.487C106.796,41.859 101.625,41.859 95.77,41.859C95.575,43.394 95.34,45.239 95.113,47.519C94.611,47.957 94.099,47.96 93.205,47.947C92.794,46.234 92.767,44.538 92.61,42.437C93.017,41.35 93.521,40.103 94.094,40.071C99.811,39.751 105.539,39.614 111.265,39.527C111.479,39.524 111.708,40.561 111.948,41.487z"/><path fill="#070707" d="M168.119,174.958C167.826,174.278 167.803,173.62 167.806,172.961C167.83,166.129 167.831,166.129 160.427,165.88C159.994,165.137 159.994,164.465 159.995,163.458C164.313,163.179 168.63,163.236 173.259,163.643C167.92,165.699 170.036,170.432 169.569,174.595C169.157,175.007 168.779,174.993 168.119,174.958z"/><path fill="#ececec" d="M105.96,59.879C104.541,59.659 103.123,59.44 101.329,58.821C100.789,58.095 100.525,57.937 100.161,57.948C101.231,55.969 102.301,53.99 103.371,52.011C104.962,53.433 106.552,54.855 107.875,56.784C107.059,58.155 106.51,59.017 105.96,59.879z"/><path fill="#eaeaea" d="M164.956,106.511C165.106,107.566 165.256,108.622 165.407,109.678C162.171,109.635 158.936,109.592 155.701,109.549C156.129,108.59 156.557,107.631 157.318,106.332C157.651,105.992 157.934,106.003 157.934,106.003C157.934,106.003 158.211,105.976 158.534,106.329C160.889,106.625 162.922,106.568 164.956,106.511z"/><path fill="#0d0d0d" d="M143.082,195.032C143.054,196.419 143.026,197.806 142.915,199.602C140.554,200.072 138.915,200.115 139.126,196.676C139.311,193.655 137.982,190.542 137.587,187.265C139.251,188.418 140.648,189.776 141.935,191.8C142.244,193.321 142.663,194.177 143.082,195.032z"/><path fill="#f0f0f0" d="M154.139,161.008C153.194,160.842 151.634,160.96 151.406,160.465C150.155,157.748 149.231,154.881 148.031,151.62C150.086,151.62 152.291,151.62 154.745,152.115C154.718,153.766 154.443,154.922 154.133,156.489C154.111,158.269 154.125,159.638 154.139,161.008z"/><path fill="#e3e3e4" d="M155.976,103.146C153.295,102.819 150.613,102.493 147.932,102.167C147.966,101.814 148,101.461 148.033,101.109C155.256,101.109 162.479,101.109 169.702,101.109C169.781,101.397 169.86,101.686 169.939,101.974C169.233,102.32 168.527,102.666 166.984,102.993C164.096,103.032 162.046,103.088 159.598,103.069C158.125,103.044 157.051,103.095 155.976,103.146z"/><path fill="#101010" d="M168.802,188.991C169.009,191.066 168.882,193.115 168.541,195.867C168.217,197.712 168.107,198.855 167.997,199.998C164.921,200.424 164.987,198.841 165.902,196.044C165.271,194.912 164.639,194.452 164.006,193.992C164.003,192.606 164,191.22 164.307,189.392C165.089,188.604 165.561,188.257 166.033,187.911C166.845,188.262 167.657,188.614 168.802,188.991z"/><path fill="#d1d1d1" d="M107.962,83.999C106.95,81.906 105.937,79.812 105.313,77.449C106.822,76.166 107.941,75.152 109.061,74.138C112.467,72.991 113.327,74.423 111.895,77.8C109.949,78.619 108.625,79.187 107.301,79.756C107.874,80.244 108.446,80.733 109.18,81.477C109.801,82.611 110.26,83.49 111.158,85.208C109.43,84.554 108.696,84.277 107.962,83.999z"/><path fill="#ececec" d="M48.752,111.579C48.926,112.062 49.006,112.041 49.017,112.074C47.905,111.392 46.836,110.561 45.642,109.993C44.333,109.369 42.908,108.987 41.534,108.499C41.664,108.028 41.795,107.556 41.925,107.085C45.451,107.085 48.976,107.085 52.502,107.085C52.716,107.363 52.93,107.641 53.144,107.92C51.622,108.978 50.1,110.037 48.752,111.579z"/><path fill="#c3c4c4" d="M133.533,144.936C133.533,144.936 133.532,145.038 133.849,144.916C135.377,144.237 136.588,143.679 137.799,143.122C138.49,143.042 139.181,142.963 140.22,142.897C141.485,144.348 142.401,145.787 143.572,147.624C139.964,147.624 137.029,147.624 133.579,147.225C133.221,146.196 133.377,145.566 133.533,144.936z"/><path fill="#e3e3e4" d="M53.589,152.978C55.295,152.366 57,151.754 59.379,150.901C58.12,155.431 57.133,158.984 56.146,162.536C55.699,162.546 55.253,162.556 54.806,162.566C54.543,161.328 54.28,160.09 54.01,158.012C53.866,155.774 53.727,154.376 53.589,152.978z"/><path fill="#070707" d="M157.997,148.475C160.698,148.08 163.401,148.009 166.552,147.982C167.005,148.89 167.009,149.755 167.021,150.943C164.306,151.377 161.582,151.489 158.415,151.491C157.981,150.52 157.99,149.659 157.997,148.475z"/><path fill="#f5f5f5" d="M29.956,178.11C30.072,180.204 30.187,182.297 30.321,184.716C28.475,184.84 26.939,184.944 24.986,185.075C24.986,182.832 24.986,180.907 25.418,178.455C27.219,177.989 28.587,178.049 29.956,178.11z"/><path fill="#070707" d="M76.999,134.978C77.466,137.682 77.613,140.392 77.747,143.555C76.754,144.002 75.775,143.995 74.392,143.68C73.962,143.176 73.937,142.979 73.912,142.782C73.926,140.471 73.94,138.161 74.04,135.423C74.977,134.992 75.828,134.987 76.999,134.978z"/><path fill="#d5d5d6" d="M79.757,105.708C79.681,106.297 79.447,106.291 79.419,106.262C78.578,104.714 77.764,103.195 76.685,101.181C79.966,101.181 82.993,101.181 86.021,101.181C86.161,101.531 86.3,101.881 86.439,102.232C84.237,103.194 82.036,104.157 79.757,105.708z"/><path fill="#e2e2e2" d="M107.647,84.043C108.696,84.277 109.43,84.554 111.158,85.208C110.26,83.49 109.801,82.611 109.482,81.3C110.42,80.496 111.217,80.125 112.015,79.753C114.059,83.729 113.02,85.866 107.312,88.764C104.915,87.075 105.37,85.523 107.647,84.043z"/><path fill="#d1d1d1" d="M73.107,144.509C74.039,144.83 74.972,145.151 75.905,145.472C75.518,146.03 75.13,146.589 74.743,147.147C71.522,147.489 68.301,147.831 65.068,148.174C64.958,144.75 64.958,144.75 70.904,144.711C72.155,144.653 72.631,144.581 73.107,144.509z"/><path fill="#0d0d0d" d="M156.944,194.872C154.224,195.149 151.549,195.051 148.429,194.556C147.985,193.539 147.987,192.921 147.988,192.303C150.292,192.122 152.596,191.941 155.108,191.373C155.873,192.157 156.43,193.327 156.944,194.872z"/><path fill="#0d0d0d" d="M69.045,82.612C67.959,83.089 66.872,83.566 65.425,84.035C64.726,83.557 64.387,83.087 64.18,82.033C65.552,80.304 66.793,79.159 68.034,78.015C68.48,77.714 68.926,77.414 69.639,77.042C70.509,77.424 71.113,77.879 71.851,78.589C71.892,79.145 71.772,79.434 71.144,79.907C70.123,80.937 69.584,81.775 69.045,82.612z"/><path fill="#151515" d="M130.38,102.586C127.512,102.853 124.855,102.853 121.681,102.853C121.635,102.435 121.541,101.59 121.447,100.744C124.703,100.861 127.96,100.977 131.217,101.093C131.008,101.502 130.799,101.911 130.38,102.586z"/><path fill="#0d0d0d" d="M76.023,185.319C78.729,184.889 81.427,184.86 84.56,185.319C84.995,186.568 84.994,187.33 84.993,188.091C82.29,188.185 79.586,188.279 76.447,188.252C76.012,187.328 76.014,186.524 76.023,185.319z"/><path fill="#505151" d="M152.227,77.485C148.343,77.769 144.539,77.904 140.257,78.009C139.779,77.979 139.339,78.074 139.339,78.074C139.339,78.074 138.997,77.781 139.011,77.556C143.087,77.221 147.15,77.111 151.64,77.05C152.066,77.1 152.306,77.336 152.227,77.485z"/><path fill="#070707" d="M133.633,144.89C133.377,145.566 133.221,146.196 133.143,147.157C133.156,148.067 133.092,148.647 133.012,149.665C132.24,150.142 131.484,150.182 130.364,150.1C129.988,149.194 129.976,148.41 129.952,147.233C130.059,145.506 130.178,144.171 130.484,142.477C131.707,142.585 132.743,143.05 133.831,144.006C133.882,144.496 133.734,144.844 133.633,144.89z"/><path fill="#0d0d0d" d="M134.294,48.368C137.078,47.067 140.127,46.044 143.534,44.872C143.757,45.722 143.622,46.72 143.208,47.992C140.14,48.392 137.349,48.519 134.294,48.368z"/><path fill="#0d0d0d" d="M159.996,103.145C162.046,103.088 164.096,103.032 166.578,103.064C166.59,104.152 166.172,105.15 165.354,106.329C162.922,106.568 160.889,106.625 159.095,106.028C159.555,104.631 159.775,103.888 159.996,103.145z"/><path fill="#0d0d0d" d="M30.631,173.999C28.837,172.342 27.418,170.673 26,169.003C26.373,168.618 26.747,168.233 27.12,167.849C28.945,169.591 30.77,171.333 32.548,173.445C32.003,173.872 31.505,173.929 30.631,173.999z"/><path fill="#151515" d="M131.72,161.061C132.776,163.047 133.478,165.087 133.997,167.775C133.518,168.896 133.222,169.368 132.886,169.839C132.847,169.837 132.778,169.799 132.778,169.799C132.074,167.976 131.178,166.197 130.746,164.312C130.525,163.344 131.132,162.187 131.72,161.061z"/><path fill="#0d0d0d" d="M37.234,184.942C37.228,183.213 37.012,180.369 39.974,183.242C40.198,183.459 41.525,182.538 42.648,182.018C43.184,186.335 39.885,184.721 37.234,184.942z"/><path fill="#0d0d0d" d="M108.87,73.844C107.941,75.152 106.822,76.166 105.362,77.066C105.127,75.748 105.232,74.542 105.661,73.167C106.884,73.181 107.782,73.366 108.87,73.844z"/><path fill="#0d0d0d" d="M49.14,173.93C49.003,172.364 49.225,170.82 49.746,169.191C49.86,170.721 54.752,172.907 49.14,173.93z"/><path fill="#070707" d="M169.372,185.741C170.482,185.103 171.456,185.053 172.718,185.08C173.003,185.867 173.002,186.576 173,187.64C172.013,188.209 171.026,188.424 169.663,188.687C169.27,187.934 169.253,187.132 169.372,185.741z"/><path fill="#070707" d="M142.917,89.674C142.994,89.033 143.19,88.92 143.621,88.917C144.772,88.99 145.747,89.053 147.206,89.185C147.689,89.659 147.689,90.065 147.216,90.823C146.493,91.473 146.242,91.77 145.991,92.067C145.991,92.067 145.708,92.305 145.538,92.232C144.572,91.473 143.775,90.786 142.917,89.674z"/><path fill="#0d0d0d" d="M75.469,161.997C75.351,161.125 75.592,160.243 75.979,159.121C76.947,158.585 77.767,158.288 78.588,157.991C78.848,158.254 79.108,158.516 79.368,158.779C78.188,159.849 77.008,160.918 75.469,161.997z"/><path fill="#0d0d0d" d="M112.017,79.479C111.217,80.125 110.42,80.496 109.321,81.045C108.446,80.733 107.874,80.244 107.301,79.756C108.625,79.187 109.949,78.619 111.64,78.081C112.012,78.476 112.015,78.841 112.017,79.479z"/><path fill="#0d0d0d" d="M41.941,165.352C41.592,166.186 41.178,166.515 40.526,166.967C40.004,167.062 39.719,167.034 39.007,166.965C38.323,166.835 38.16,166.659 38.047,166.216C38.205,165.293 38.409,164.549 39.066,163.411C39.907,163.016 40.293,163.015 40.851,163.01C41.307,163.62 41.591,164.233 41.941,165.352z"/><path fill="#0d0d0d" d="M29.979,177.773C28.587,178.049 27.219,177.989 25.446,178.017C25.026,177.625 25.011,177.146 25.008,176.306C26.411,176.006 27.802,176.066 29.611,176.107C30.021,176.537 30.012,176.987 29.979,177.773z"/><path fill="#0d0d0d" d="M98.068,84.388C99.011,85.218 99.594,86.279 100.06,87.672C97.765,87.822 95.155,87.925 98.068,84.388z"/><path fill="#d1d1d1" d="M137.792,178.96C140.423,181.103 138.405,181.866 136.362,182.859C135.773,182.516 135.5,182.029 135.453,181.249C135.681,180.957 136.124,180.949 136.35,180.792C136.981,180.076 137.387,179.518 137.792,178.96z"/><path fill="#070707" d="M159.598,103.069C159.775,103.888 159.555,104.631 158.773,105.675C158.211,105.976 157.934,106.003 157.934,106.003C157.934,106.003 157.651,105.992 157.638,105.986C156.971,105.351 156.316,104.722 155.818,103.62C157.051,103.095 158.125,103.044 159.598,103.069z"/><path fill="#c3c4c4" d="M133.886,175.033C133.382,173.411 132.879,171.789 132.577,169.983C132.778,169.799 132.847,169.837 133.174,169.959C133.938,171.731 134.373,173.382 134.578,175.031C134.347,175.029 133.886,175.033 133.886,175.033z"/><path fill="#0d0d0d" d="M45.032,177.922C44.23,178.219 43.415,178.231 42.299,178.099C42,177.506 42.002,177.057 42.004,176.271C42.755,175.873 43.505,175.811 44.625,175.834C45.003,176.492 45.012,177.064 45.032,177.922z"/><path fill="#0d0d0d" d="M53.532,152.958C53.727,154.376 53.866,155.774 53.929,157.591C53.545,158.011 53.235,158.022 52.694,158.036C52.624,156.557 52.786,155.087 53.155,153.299C53.362,152.981 53.475,152.938 53.532,152.958z"/><path fill="#0d0d0d" d="M106.032,60.105C106.51,59.017 107.059,58.155 107.892,57.162C108.174,57.032 108.653,56.994 108.891,57.023C108.556,58.251 107.983,59.45 107.102,60.799C106.482,60.835 106.251,60.629 106.032,60.105z"/><path fill="#595a5a" d="M154.168,156.078C154.443,154.922 154.718,153.766 155.097,152.245C155.202,151.88 155.561,151.696 155.727,151.809C155.929,153.089 155.964,154.256 155.457,155.747C154.666,156.074 154.417,156.076 154.168,156.078z"/><path fill="#0d0d0d" d="M115.982,40.469C117.054,40.109 118.119,40.072 119.582,39.983C119.43,40.445 118.881,40.96 118.171,41.714C117.567,41.938 117.124,41.923 116.358,41.998C116.015,41.656 115.994,41.225 115.982,40.469z"/><path fill="#0d0d0d" d="M69.007,190.995C69.269,191.691 69.521,192.394 69.772,193.097C69.365,193.19 68.959,193.284 68.552,193.377C68.615,192.776 68.677,192.176 68.857,191.296C68.975,191.018 68.997,191.003 69.007,190.995z"/><path fill="#0d0d0d" d="M81.935,180.059C81.235,179.971 81.079,179.794 81.045,179.522C82.502,179.443 83.929,179.369 85.67,179.576C84.785,179.926 83.585,179.994 81.935,180.059z"/><path fill="#0d0d0d" d="M138.781,81.45C137.897,81.545 136.819,81.319 135.477,80.875C136.338,80.815 137.462,80.972 138.781,81.45z"/><path fill="#0d0d0d" d="M154.133,156.489C154.417,156.076 154.666,156.074 155.29,156.056C155.716,157.341 155.767,158.642 155.739,160.326C155.41,160.774 155.159,160.84 154.524,160.957C154.125,159.638 154.111,158.269 154.133,156.489z"/><path fill="#0d0d0d" d="M73.258,144.406C72.631,144.581 72.155,144.653 71.326,144.638C70.991,144.096 71.01,143.642 71.079,142.849C71.821,142.666 72.513,142.821 73.559,142.879C73.937,142.979 73.962,143.176 74.025,143.669C73.832,144.054 73.615,144.166 73.258,144.406z"/><path fill="#070707" d="M168.359,199.966C168.107,198.855 168.217,197.712 168.552,196.309C168.937,197.059 169.098,198.068 169.349,199.454C169.2,199.866 168.961,199.9 168.359,199.966z"/><path fill="#0d0d0d" d="M16.078,190.101C16.789,190.167 17.461,190.612 18.091,191.504C18.049,191.952 17.729,192.272 17.729,192.272C17.35,192.148 16.971,192.023 16.296,191.949C16.013,191.493 16.026,190.986 16.078,190.101z"/><path fill="#0d0d0d" d="M96.479,82.06C96.961,82.311 97.13,82.634 97.476,83.171C96.944,83.334 96.235,83.284 95.527,83.234C95.74,82.866 95.952,82.499 96.479,82.06z"/><path fill="#0d0d0d" d="M165.839,187.706C165.561,188.257 165.089,188.604 164.31,188.976C164.551,188.501 165.098,188.001 165.839,187.706z"/><path fill="#070707" d="M164.045,194.311C164.639,194.452 165.271,194.912 165.933,195.693C165.336,195.554 164.71,195.092 164.045,194.311z"/><path fill="#0d0d0d" d="M38.43,100.35C38.813,100.163 39.064,100.171 39.689,100.227C39.682,100.741 39.301,101.207 38.921,101.673C38.713,101.297 38.506,100.921 38.43,100.35z"/><path fill="#0d0d0d" d="M94.839,79.19C95.555,79.316 96.022,79.662 96.643,80.263C96.062,80.149 95.326,79.779 94.839,79.19z"/><path fill="#0d0d0d" d="M159.458,171.032C159.45,170.422 159.708,169.833 159.965,169.244C160.201,169.71 160.437,170.177 160.464,170.855C160.078,171.063 159.901,171.058 159.458,171.032z"/><path fill="#0d0d0d" d="M136.843,184.44C137.258,184.611 137.554,184.998 137.823,185.699C137.438,185.56 137.081,185.108 136.843,184.44z"/><path fill="#0d0d0d" d="M53.359,173.912C53.635,174.186 53.748,174.594 53.804,175.009C53.814,175.081 53.581,175.186 53.46,175.276C53.366,174.866 53.272,174.457 53.359,173.912z"/><path fill="#dddede" d="M133.9,175.379C133.886,175.033 134.347,175.029 134.671,175.352C135.182,176.316 135.37,176.956 135.339,177.756C134.975,178.026 134.829,178.134 134.684,178.243C134.427,177.404 134.171,176.565 133.9,175.379z"/><path fill="#0d0d0d" d="M99.882,57.959C100.525,57.937 100.789,58.095 100.992,58.66C101.01,59.15 100.989,59.401 100.902,60.024C100.26,59.802 99.684,59.208 99.077,58.299C99.231,57.979 99.417,57.975 99.882,57.959z"/><path fill="#dddede" d="M136.124,180.949C136.124,180.949 135.681,180.957 135.459,180.97C135.062,180.303 134.886,179.624 134.697,178.594C134.829,178.134 134.975,178.026 135.481,178.071C135.937,179.132 136.03,180.041 136.124,180.949z"/><path fill="#0d0d0d" d="M79.119,178.676C79.59,178.799 79.54,178.964 79.512,178.998C79.118,179.378 78.752,179.725 77.979,180.003C77.931,179.474 78.29,179.014 79.119,178.676z"/><path fill="#151515" d="M125.284,156.029C125.09,155.83 125.148,155.648 125.344,155.213C125.802,155.217 126.122,155.473 126.443,155.728C126.14,155.834 125.838,155.94 125.284,156.029z"/><path fill="#0d0d0d" d="M102.361,75.986C102.158,76.233 101.625,76.485 100.906,76.429C101.157,76.077 101.594,76.033 102.361,75.986z"/><path fill="#0d0d0d" d="M46.299,189.661C46.014,189.646 45.857,189.495 45.7,189.344C45.943,189.404 46.186,189.464 46.299,189.661z"/><path fill="#0d0d0d" d="M40.903,189.955C40.593,189.937 40.332,189.607 40.387,189.404C40.99,189.251 41.537,189.302 42.085,189.353C41.794,189.56 41.503,189.767 40.903,189.955z"/><path fill="#0d0d0d" d="M77.468,163.452C77.523,163.42 77.413,163.485 77.468,163.452z"/><path fill="#ececec" d="M121.492,29.738C121.896,29.627 122.299,29.517 122.842,29.96C123.312,30.56 123.643,30.607 123.974,30.653C127.871,33.43 131.767,36.206 135.664,38.982C135.494,39.48 135.324,39.977 135.155,40.475C132.508,39.644 129.505,39.351 127.284,37.878C121.632,34.128 116.33,29.851 111.071,25.438C112.187,24.386 113.12,23.681 114.053,22.975C116.598,24.943 119.144,26.91 121.298,29.336C120.908,29.994 120.911,30.195 120.914,30.395C121.107,30.176 121.299,29.957 121.492,29.738z"/><path fill="#ebecec" d="M81.763,32.011C84.937,29.682 88.112,27.353 91.662,25.256C92.688,26.318 93.338,27.146 93.988,27.975C90.599,30.33 87.211,32.686 83.396,34.749C82.661,34.645 82.352,34.833 82.043,35.022C82.043,35.022 81.999,35 81.745,35.074C81.613,35.556 81.734,35.963 81.855,36.371C80.469,39.475 77.89,40.246 74.324,39.522C73.784,38.794 73.704,38.533 73.625,38.273C75.876,36.49 78.126,34.707 80.93,32.868C81.864,32.646 81.957,32.379 81.763,32.011z"/><path fill="#d5d5d6" d="M106.57,12.504C103.513,12.498 100.892,12.498 98.004,12.498C97.821,11.191 97.646,9.941 97.419,8.318C101.745,8.318 105.809,8.318 110.267,8.318C110.174,10.429 111.176,13.172 106.57,12.504z"/><path fill="#e5e6e6" d="M105.84,21.574C105.675,21.574 105.477,21.635 105.351,21.565C103.656,20.614 101.971,19.645 100.284,18.681C100.899,17.783 101.719,16.037 102.096,16.127C104.065,16.602 105.922,17.542 107.926,18.916C107.974,19.674 107.914,19.836 107.514,20.061C106.729,20.608 106.284,21.091 105.84,21.574z"/><path fill="#d5d5d6" d="M94.314,27.85C93.338,27.146 92.688,26.318 91.998,25.166C94.042,23.077 96.125,21.311 98.208,19.545C98.67,19.934 99.131,20.322 99.593,20.71C97.942,23.049 96.292,25.387 94.314,27.85z"/><path fill="#e2e2e2" d="M106.092,21.701C106.284,21.091 106.729,20.608 107.633,20.387C109.403,21.128 110.714,21.607 112.024,22.086C112.606,22.205 113.187,22.324 113.911,22.709C113.12,23.681 112.187,24.386 110.891,25.138C110.001,24.664 109.473,24.143 108.921,23.031C108.599,22.321 108.301,22.203 108.003,22.084C107.45,21.999 106.897,21.913 106.092,21.701z"/><path fill="#0d0d0d" d="M112.008,21.783C110.714,21.607 109.403,21.128 107.974,20.323C107.914,19.836 107.974,19.674 108.095,19.261C109.435,19.833 110.714,20.656 112.008,21.783z"/><path fill="#0d0d0d" d="M67.948,42.403C67.268,42.8 66.528,42.893 65.419,43.058C65.05,42.158 65.05,41.185 65.05,39.468C66.252,40.583 67.07,41.342 67.948,42.403z"/><path fill="#0d0d0d" d="M132.781,42.649C131.747,42.949 130.534,43.016 129.286,42.72C130.368,42.376 131.486,42.396 132.781,42.649z"/><path fill="#e3e3e4" d="M73.33,38.421C73.704,38.533 73.784,38.794 73.932,39.457C73.419,39.78 72.836,39.7 72.253,39.621C72.513,39.27 72.774,38.92 73.33,38.421z"/><path fill="#0d0d0d" d="M89.907,40.737C90.247,40.669 90.624,41.057 90.996,41.72C90.834,42.076 90.677,42.156 90.263,42.171C89.986,41.802 89.965,41.497 89.907,40.737z"/><path fill="#0d0d0d" d="M123.873,30.497C123.643,30.607 123.312,30.56 123.057,30.24C123.38,30.031 123.593,30.155 123.873,30.497z"/><path fill="#0d0d0d" d="M108.089,22.273C108.301,22.203 108.599,22.321 108.849,22.715C108.54,22.877 108.331,22.701 108.089,22.273z"/><path fill="#0d0d0d" d="M81.604,32.079C81.957,32.379 81.864,32.646 81.252,32.744C81.101,32.45 81.242,32.273 81.604,32.079z"/><path fill="#0d0d0d" d="M82.304,35.013C82.352,34.833 82.661,34.645 83.028,34.712C82.912,34.979 82.739,34.992 82.304,35.013z"/><path fill="#0d0d0d" d="M81.912,36.041C81.734,35.963 81.613,35.556 81.756,35.096C82.004,35.266 81.987,35.488 81.912,36.041z"/><path fill="#0d0d0d" d="M18.21,191.793C18.52,191.981 18.669,192.329 18.819,192.677C18.551,192.704 18.284,192.732 17.873,192.515C17.729,192.272 18.049,191.952 18.21,191.793z"/><path fill="#101010" d="M190.277,191.112C191.044,190.906 191.6,190.944 192.572,190.992C192.966,191.556 192.942,192.111 192.86,193.078C191.889,192.779 190.977,192.068 190.277,191.112z"/><path fill="#e8e8e8" d="M67.727,77.88C66.793,79.159 65.552,80.304 64.157,81.728C59.507,82.221 55.012,82.433 49.898,82.333C47.86,81 46.439,79.979 45.017,78.959C45.169,78.638 45.32,78.318 46.11,77.892C47.513,77.699 48.277,77.612 49.041,77.526C51.079,77.618 53.117,77.71 55.856,77.82C57.769,77.556 58.98,77.274 60.191,76.993C62.601,77.243 65.01,77.494 67.727,77.88z"/><path fill="#191919" d="M44.998,79.364C46.439,79.979 47.86,81 49.48,82.347C48.351,82.989 47.023,83.305 45.345,83.705C45.202,82.173 45.09,80.972 44.998,79.364z"/><path fill="#191919" d="M59.976,76.679C58.98,77.274 57.769,77.556 56.236,77.743C55.921,77.371 55.929,77.095 55.97,76.405C57.256,76.117 58.508,76.241 59.976,76.679z"/><path fill="#191919" d="M64.471,67.046C65.054,68.439 65.319,69.896 65.583,71.354C65.224,71.441 64.865,71.527 64.506,71.614C64.222,70.959 63.938,70.303 63.375,69.449C63.448,68.536 63.8,67.824 64.471,67.046z"/><path fill="#191919" d="M49.037,77.253C48.277,77.612 47.513,77.699 46.362,77.76C46.142,77.192 46.31,76.65 46.989,75.975C47.681,75.819 47.862,75.796 48.043,75.772C48.373,76.175 48.703,76.578 49.037,77.253z"/><path fill="#0d0d0d" d="M48.006,75.552C47.862,75.796 47.681,75.819 47.229,75.809C47.136,75.399 47.315,75.024 47.494,74.649C47.653,74.876 47.811,75.104 48.006,75.552z"/><path fill="#ebecec" d="M183.127,177.952C183.127,180.218 183.127,182.484 183.127,184.903C181.242,184.903 179.648,184.903 177.594,184.903C177.436,182.883 177.286,180.97 177.523,178.59C179.264,178.017 180.619,177.911 182.258,177.864C182.738,177.934 182.933,177.943 183.127,177.952z"/><path fill="#070707" d="M181.973,177.804C180.619,177.911 179.264,178.017 177.509,178.199C177.078,177.747 177.048,177.219 177.028,176.295C178.101,175.932 179.164,175.965 180.723,176.29C181.47,176.99 181.721,177.397 181.973,177.804z"/><path fill="#101010" d="M182.258,177.864C181.721,177.397 181.47,176.99 181.115,176.368C181.488,175.804 181.964,175.456 182.735,175.058C183.225,175.87 183.42,176.732 183.371,177.772C182.933,177.943 182.738,177.934 182.258,177.864z"/><path fill="#505151" d="M160.03,76.978C160.277,77.147 160.338,77.48 160.127,77.724C159.854,77.635 159.844,77.141 160.03,76.978z"/><path fill="#2c2d2c" d="M136.35,180.792C136.03,180.041 135.937,179.132 135.701,177.91C135.37,176.956 135.182,176.316 134.902,175.355C134.373,173.382 133.938,171.731 133.214,169.96C133.222,169.368 133.518,168.896 133.999,168.05C135.401,171.188 136.619,174.701 137.814,178.587C137.387,179.518 136.981,180.076 136.35,180.792z"/><path fill="#020202" d="M147.568,192.215C147.987,192.921 147.985,193.539 147.986,194.467C146.625,194.831 145.262,194.886 143.49,194.987C142.663,194.177 142.244,193.321 141.94,192.163C143.754,191.95 145.451,192.038 147.568,192.215z"/><path fill="#020202" d="M85.446,188.202C84.994,187.33 84.995,186.568 84.999,185.426C88.671,185.085 92.338,185.124 96.238,185.556C96.088,186.634 95.753,187.878 95.313,187.916C92.187,188.186 89.039,188.211 85.446,188.202z"/><path fill="#020202" d="M94.961,111.987C102.316,107.054 106.028,107.11 113.968,112.623C112.747,113.035 111.228,113.556 110.156,113.076C106.047,111.237 102.065,110.899 97.349,112.967C96.112,112.58 95.536,112.283 94.961,111.987z"/><path fill="#070707" d="M94.517,112.144C95.536,112.283 96.112,112.58 96.985,113.004C96.4,113.735 95.517,114.34 94.294,114.705C93.994,113.745 94.033,113.023 94.517,112.144z"/><path fill="#0d0d0d" d="M114.985,113.26C115.637,113.795 116.29,114.33 117.008,115.182C116.552,115.775 116.029,116.051 115.23,115.615C114.964,114.355 114.974,113.808 114.985,113.26z"/><path fill="#020202" d="M114.783,113.061C114.974,113.808 114.964,114.355 114.86,115.309C114.21,114.975 113.654,114.233 113.558,113.219C114.206,112.918 114.393,112.89 114.783,113.061z"/><path fill="#151515" d="M137.378,143.076C136.588,143.679 135.377,144.237 133.799,144.923C132.854,141.321 135.61,143.405 137.378,143.076z"/><path fill="#020202" d="M100.851,172.248C100.551,171.419 100.665,170.224 100.717,170.227C104.424,170.417 108.127,170.703 111.691,171.516C108.113,172.182 104.674,172.312 100.851,172.248z"/><path fill="#020202" d="M97.364,157.526C102.664,156.673 107.831,156.355 113.002,156.127C114.993,156.039 116.994,156.155 119.237,156.57C119.424,157.611 119.348,158.831 119.304,158.83C111.946,158.642 104.59,158.367 97.364,157.526z"/><path fill="#020202" d="M146.345,92.09C146.242,91.77 146.493,91.473 147.018,91.06C147.094,91.334 146.896,91.724 146.345,92.09z"/><path fill="#2c2d2c" d="M69.118,82.927C69.584,81.775 70.123,80.937 70.992,80.086C70.612,81.129 69.902,82.186 69.118,82.927z"/><path fill="#e2e2e2" d="M121.421,29.693C121.299,29.957 121.107,30.176 120.914,30.395C120.911,30.195 120.908,29.994 121.083,29.65C121.261,29.506 121.349,29.649 121.421,29.693z"/></svg>