<svg xmlns="http://www.w3.org/2000/svg" viewBox="0 0 240 149" xml:space="preserve"><path fill="#070707" d="M53.135,128.055C54.085,127.833 55.035,127.611 56.427,127.608C58.419,129.469 59.636,129.845 60.004,127.002C64.764,127.445 66.741,124.11 68.466,120.613C71.096,115.281 73.503,109.84 76.146,104.515C81.741,93.243 91.95,85.989 100.456,76.793C100.683,76.532 100.706,76.546 100.962,76.486C101.512,76.018 101.806,75.61 102.398,75.05C103.804,73.269 104.911,71.638 106.019,70.007C108.597,61.784 109.092,53.435 107.581,44.954C107.349,43.653 107.246,42.325 107.15,41.005C106.532,32.486 105.933,23.965 105.325,15.401C111.837,12.291 111.806,12.319 117.225,18.219C117.752,18.793 119.01,19.049 119.849,18.921C123.6,18.35 127.605,18.238 130.996,16.759C138.3,13.574 145.131,14.874 151.424,18.51C156.396,21.383 160.49,25.738 165.253,29.03C167.722,30.736 170.799,31.563 174.197,33.048C167.013,33.488 160.254,33.903 153.131,34.34C155.398,40.106 161.28,41.718 167.18,45.654C157.694,46.472 149.752,46.809 142.448,42.514C138.664,40.289 135.629,39.236 132.027,43.105C130.429,44.82 127.364,45.455 124.84,45.968C116.714,47.621 113.969,52.259 113.646,60.418C113.298,69.214 119.866,71.334 125.453,75.477C126.124,76.031 126.316,76.307 126.549,76.54C137.592,87.541 150.269,97.061 156.754,112.102C157.879,114.71 160.262,116.909 160.417,120.113C162.462,122.097 164.436,124.162 166.568,126.049C171.648,130.546 176.803,134.959 182.193,139.636C176.595,142.057 171.3,140.781 167.834,137.503C165.769,135.55 162.857,134.494 160.326,133.034C160.064,133.387 159.801,133.741 159.539,134.094C160.186,135.33 160.833,136.566 161.785,138.382C156.594,138.955 151.784,139.846 146.958,139.949C135.728,140.187 124.489,139.962 113.258,140.151C111.67,140.177 110.141,141.579 108.514,142.135C107.188,142.588 105.707,143.113 104.378,142.947C93.597,141.597 82.812,140.235 72.082,138.541C69.124,138.074 65.119,137.511 66.358,131.725C64.529,133.068 62.709,134.424 60.867,135.749C58.643,137.35 56.454,139.853 53.918,135.369C53.929,133.682 53.936,132.781 53.944,131.88C53.689,131.113 53.435,130.347 53.124,129.063C53.068,128.546 53.135,128.055 53.135,128.055M146.016,109.421C145.006,107.176 144.155,104.838 142.911,102.731C142.385,101.842 141.003,100.866 140.058,100.912C133.504,101.231 126.964,101.81 120.42,102.305C121.513,105.028 122.712,107.682 123.654,110.425C125.838,116.787 127.401,123.415 130.146,129.517C133.037,135.942 133.51,135.729 139.812,133.494C138.42,126.594 137.047,119.782 135.673,112.97C136.497,112.711 137.32,112.452 138.144,112.192C141.186,119.215 144.227,126.238 147.339,133.424C150.871,129.462 152.428,125.504 150.897,120.999C149.636,117.286 147.846,113.754 146.016,109.421M128.889,96.878C130.82,96.408 132.75,95.937 134.201,95.584C127.082,88.151 119.938,80.691 112.934,73.378C105.786,81.37 99.023,88.932 91.827,96.977C104.243,96.977 116.121,96.977 128.889,96.878M99.662,105.19C95.645,114.125 91.628,123.06 87.558,132.112C95.369,134.013 97.506,133.113 100.433,126.864C101.955,123.615 103.23,120.252 104.615,116.94C106.605,112.179 108.593,107.418 110.582,102.657C110.104,102.242 109.627,101.828 109.149,101.414C106.322,103.384 101.692,98.04 99.662,105.19M79.591,132.997C81.921,133.362 82.866,132.454 83.667,130.078C85.047,125.982 87.142,122.115 89.085,118.224C91.677,113.033 94.409,107.912 97.232,102.469C86.515,100.37 84.932,101.287 82.029,110.262C80.113,116.19 78.235,122.133 76.179,128.013C75.221,130.749 75.523,132.507 79.591,132.997M112.927,45.236C113.056,45.338 113.175,45.458 113.317,45.535C113.413,45.587 113.621,45.627 113.644,45.59C116.129,41.519 115.323,32.76 111.149,29.208C111.705,34.96 112.164,39.718 112.927,45.236z"/><path fill="#070707" d="M156.14,92.069C160.621,87.518 165.494,83.281 169.48,78.331C173.961,72.766 177.641,66.556 181.953,60.211C197.163,78.089 206.074,101.98 228.786,114.217C223.677,115.655 219.086,116.786 214.635,118.323C213.641,118.667 212.321,121.199 212.537,121.43C214.629,123.67 213.013,125.035 211.314,125.423C209.426,125.855 206.404,126.057 205.443,124.972C202.013,121.095 198.115,119.948 193.048,119.851C183.306,119.663 173.581,118.664 163.314,117.586C163.744,111.401 161.991,106.58 157.491,102.891C153.995,100.024 153.375,95.853 156.14,92.069M175.009,88.54C172.248,94.711 169.328,100.82 166.858,107.106C166.357,108.38 167.018,111.036 168.068,111.829C172.286,115.01 174.823,114.162 175.95,108.762C177.4,101.819 178.038,94.707 179.013,87.666C179.343,85.277 179.632,82.882 179.94,80.49C179.668,80.463 179.395,80.436 179.122,80.408C177.804,82.872 176.486,85.335 175.009,88.54M193.353,91.069C196.197,96.482 199.06,101.886 201.88,107.311C204.658,112.657 205.667,112.974 211.408,110C204.681,100.837 197.978,91.705 191.274,82.572C190.901,82.82 190.529,83.067 190.157,83.315C191.119,85.668 192.081,88.021 193.353,91.069z"/><path fill="#060606" d="M33.698,125.86C32.356,126.426 31.015,126.993 28.9,127.886C28.9,124.808 28.9,122.063 28.9,119.249C21.766,118.755 14.521,118.253 6.133,117.672C22.158,103.257 33.665,86.337 45.193,68.168C50.802,74.038 55.995,79.6 61.341,85.009C63.827,87.525 66.612,89.745 69.785,92.381C70.633,93.781 70.957,94.899 71.281,96.018C67.814,103.864 64.347,111.711 60.769,119.807C57.209,112.765 58.045,104.293 52.884,98.424C52.119,98.654 51.355,98.885 50.59,99.115C51.452,103.832 52.024,108.627 53.25,113.248C54.766,118.967 54.584,119.563 48.591,120.57C45.51,121.088 42.432,121.62 38.768,122.532C36.688,123.899 35.193,124.88 33.698,125.86M51.396,93.752C51.282,95.409 51.169,97.065 51.056,98.722C51.719,98.768 52.382,98.814 53.044,98.861C52.814,96.855 52.583,94.849 52.229,92.335C51.926,92.183 51.624,92.031 51.321,91.879C51.37,92.26 51.418,92.641 51.396,93.752M31.786,106.432C34.949,100.06 38.112,93.689 41.275,87.317C40.832,87.064 40.389,86.811 39.946,86.559C34.117,94.184 27.427,101.225 23.494,110.645C29.342,111.237 29.342,111.237 31.786,106.432z"/><path fill="#080808" d="M97.168,75.322C90.673,80.206 84.177,85.089 77.027,89.975C75.924,89.982 75.474,89.986 75.025,89.991C75.58,89.028 76.134,88.065 76.016,88.271C71.044,84.49 65.871,81.072 61.347,76.942C58.033,73.917 59.007,69.861 61.532,66.644C65.702,61.33 70.195,56.27 75.576,49.89C82.427,57.244 89.086,64.33 95.637,71.514C96.338,72.282 96.413,73.62 97.066,74.98C97.355,75.265 97.168,75.322 97.168,75.322M83.838,75.765C82.338,72.208 80.838,68.651 79.338,65.095C77.796,71.302 80.098,75.742 83.838,75.765z"/><path fill="#0c0c0c" d="M129.197,73.561C132.657,68.99 136.005,64.323 139.719,59.969C140.185,59.421 143.021,60.038 144.006,60.94C147.989,64.586 151.892,68.373 155.364,72.497C156.69,74.072 156.874,76.667 157.373,78.845C157.526,79.512 156.71,80.382 156.824,81.08C157.542,85.487 157.588,85.479 152.116,86.06C151.293,86.362 151.121,86.667 150.948,86.971C150.948,86.971 151.001,86.997 150.663,87.06C149.72,87.292 148.866,87.809 148.544,87.579C142.058,82.958 135.634,78.251 129.197,73.561z"/><path fill="#f2f2f2" d="M128.974,73.9C135.634,78.251 142.058,82.958 148.544,87.579C148.866,87.809 149.72,87.292 150.646,87.036C152.481,88.561 153.995,90.173 155.825,91.927C153.375,95.853 153.995,100.024 157.491,102.891C161.991,106.58 163.744,111.401 162.913,117.509C162.43,118.571 161.813,119.295 160.807,120.066C160.262,116.909 157.879,114.71 156.754,112.102C150.269,97.061 137.592,87.541 126.549,76.54C126.316,76.307 126.124,76.031 125.799,75.452C126.706,74.831 127.728,74.535 128.974,73.9z"/><path fill="#f1f2f2" d="M33.99,126.044C35.193,124.88 36.688,123.899 38.547,122.86C40.228,123.357 41.804,123.639 42.778,124.559C43.491,125.232 43.414,126.744 43.137,127.677C41.725,127.315 40.863,127.157 40.002,126.999C38.572,127.26 37.142,127.52 35.254,127.864C35.218,127.802 34.75,127.015 33.99,126.044z"/><path fill="#f1f2f2" d="M74.694,90.117C75.474,89.986 75.924,89.982 76.692,90.084C77.365,93.829 76.683,96.591 71.676,96.019C70.957,94.899 70.633,93.781 70.148,92.352C71.444,91.443 72.903,90.843 74.694,90.117z"/><path fill="#f1f2f2" d="M97.745,75.557C97.168,75.322 97.355,75.265 97.317,75.272C99.928,73.516 102.576,71.753 105.622,69.998C104.911,71.638 103.804,73.269 102.2,74.786C101.371,75.298 101.038,75.922 100.706,76.546C100.706,76.546 100.683,76.532 100.683,76.546C99.896,76.303 99.109,76.047 97.745,75.557z"/><path fill="#f3f4f5" d="M40.044,127.324C40.863,127.157 41.725,127.315 42.792,127.734C42.028,127.88 41.057,127.765 40.044,127.324z"/><path fill="#f1f2f2" d="M59.57,126.987C59.636,129.845 58.419,129.469 56.701,127.5C57.4,127.105 58.268,127.039 59.57,126.987z"/><path fill="#242525" d="M53.588,131.914C53.936,132.781 53.929,133.682 53.842,135.028C52.904,134.809 52.047,134.143 51.009,133.338C51.733,132.886 52.483,132.417 53.588,131.914z"/><path fill="#f1f2f2" d="M52.753,128.033C53.135,128.055 53.068,128.546 52.977,128.776C51.623,129.007 50.361,129.007 49.099,129.007C49.091,128.75 49.082,128.493 49.073,128.237C50.172,128.162 51.271,128.087 52.753,128.033z"/><path fill="#f2f2f2" d="M151.165,86.907C151.121,86.667 151.293,86.362 151.731,86.126C151.862,86.478 151.658,86.694 151.165,86.907z"/><path fill="#f7f7f7" d="M146.153,109.781C147.846,113.754 149.636,117.286 150.897,120.999C152.428,125.504 150.871,129.462 147.339,133.424C144.227,126.238 141.186,119.215 138.144,112.192C137.32,112.452 136.497,112.711 135.673,112.97C137.047,119.782 138.42,126.594 139.812,133.494C133.51,135.729 133.037,135.942 130.146,129.517C127.401,123.415 125.838,116.787 123.654,110.425C122.712,107.682 121.513,105.028 120.42,102.305C126.964,101.81 133.504,101.231 140.058,100.912C141.003,100.866 142.385,101.842 142.911,102.731C144.155,104.838 145.006,107.176 146.153,109.781z"/><path fill="#f9f9f9" d="M128.444,96.928C116.121,96.977 104.243,96.977 91.827,96.977C99.023,88.932 105.786,81.37 112.934,73.378C119.938,80.691 127.082,88.151 134.201,95.584C132.75,95.937 130.82,96.408 128.444,96.928z"/><path fill="#f6f7f7" d="M99.814,104.836C101.692,98.04 106.322,103.384 109.149,101.414C109.627,101.828 110.104,102.242 110.582,102.657C108.593,107.418 106.605,112.179 104.615,116.94C103.23,120.252 101.955,123.615 100.433,126.864C97.506,133.113 95.369,134.013 87.558,132.112C91.628,123.06 95.645,114.125 99.814,104.836z"/><path fill="#f5f6f5" d="M79.16,132.961C75.523,132.507 75.221,130.749 76.179,128.013C78.235,122.133 80.113,116.19 82.029,110.262C84.932,101.287 86.515,100.37 97.232,102.469C94.409,107.912 91.677,113.033 89.085,118.224C87.142,122.115 85.047,125.982 83.667,130.078C82.866,132.454 81.921,133.362 79.16,132.961z"/><path fill="#cfd0d0" d="M112.775,44.856C112.164,39.718 111.705,34.96 111.149,29.208C115.323,32.76 116.129,41.519 113.644,45.59C113.621,45.627 113.413,45.587 113.317,45.535C113.175,45.458 113.056,45.338 112.775,44.856z"/><path fill="#fdfdfd" d="M100.962,76.486C101.038,75.922 101.371,75.298 101.902,74.938C101.806,75.61 101.512,76.018 100.962,76.486z"/><path fill="#f1f2f2" d="M175.089,88.169C176.486,85.335 177.804,82.872 179.122,80.408C179.395,80.436 179.668,80.463 179.94,80.49C179.632,82.882 179.343,85.277 179.013,87.666C178.038,94.707 177.4,101.819 175.95,108.762C174.823,114.162 172.286,115.01 168.068,111.829C167.018,111.036 166.357,108.38 166.858,107.106C169.328,100.82 172.248,94.711 175.089,88.169z"/><path fill="#edeeee" d="M193.198,90.722C192.081,88.021 191.119,85.668 190.157,83.315C190.529,83.067 190.901,82.82 191.274,82.572C197.978,91.705 204.681,100.837 211.408,110C205.667,112.974 204.658,112.657 201.88,107.311C199.06,101.886 196.197,96.482 193.198,90.722z"/><path fill="#eeefef" d="M31.541,106.729C29.342,111.237 29.342,111.237 23.494,110.645C27.427,101.225 34.117,94.184 39.946,86.559C40.389,86.811 40.832,87.064 41.275,87.317C38.112,93.689 34.949,100.06 31.541,106.729z"/><path fill="#fdfdfd" d="M52.353,92.844C52.583,94.849 52.814,96.855 53.044,98.861C52.382,98.814 51.719,98.768 51.056,98.722C51.169,97.065 51.282,95.409 51.659,93.376C51.923,93 52.353,92.844 52.353,92.844z"/><path fill="#f1f2f2" d="M52.291,92.59C52.353,92.844 51.923,93 51.695,93.011C51.418,92.641 51.37,92.26 51.321,91.879C51.624,92.031 51.926,92.183 52.291,92.59z"/><path fill="#cccdcc" d="M83.849,76.128C80.098,75.742 77.796,71.302 79.338,65.095C80.838,68.651 82.338,72.208 83.849,76.128z"/></svg>