<svg xmlns="http://www.w3.org/2000/svg" viewBox="0 0 272 120" xml:space="preserve"><path fill="#050505" d="M252.805,87.158C255.382,88.213 257.647,89.596 259.959,89.677C268.48,89.975 268.853,90.162 269.989,99.583C256.971,100.763 244.207,99.238 231.474,96.708C221.685,94.764 211.86,92.913 201.976,91.581C197.874,91.028 193.577,91.933 189.368,92.176C189.217,92.987 189.065,93.799 188.914,94.611C200.255,99.41 212.201,102.669 223.951,106.43C223.966,106.864 223.981,107.297 223.997,107.731C221.716,108.08 219.432,108.751 217.156,108.724C206.836,108.603 196.406,109.122 186.237,107.757C178.807,106.76 171.746,103.118 164.48,100.783C151.994,96.772 139.443,92.96 126.984,88.869C120.378,86.701 115.385,87.683 110.265,92.775C110.365,93.068 110.38,93.538 110.583,93.644C118.411,97.706 125.761,102.326 132.118,108.632C133.926,110.426 137.718,110.272 140.625,110.896C146.591,112.175 152.574,113.377 158.551,114.611C158.516,115.315 158.48,116.019 158.445,116.724C152.2,116.724 145.929,117.081 139.715,116.643C129.325,115.911 119.137,114.878 108.977,111.343C99.225,107.95 88.377,107.808 78.107,105.756C73.758,104.887 69.655,102.788 65.44,101.249C65.51,100.61 65.58,99.972 65.649,99.334C71.891,97.603 78.132,95.873 84.429,94.127C80.859,85.579 59.162,82.15 44.505,87.457C46.2,88.31 47.736,89.082 49.272,89.855C49.226,90.369 49.18,90.884 49.133,91.399C38.524,91.399 27.915,91.399 17.376,91.399C20.941,87.69 24.938,83.389 29.133,79.289C29.966,78.474 31.578,78.033 32.79,78.105C36.914,78.351 38.209,76.559 38.211,72.54C38.215,67.059 38.777,61.566 39.36,56.106C39.484,54.951 40.573,53.15 41.49,52.959C45.303,52.166 45.629,49.722 45.034,46.694C44.324,43.073 46.069,41.57 49.403,40.998C53.952,40.218 58.842,39.807 58.564,33.108C58.528,32.232 60.449,30.908 61.709,30.408C67.658,28.044 67.688,28.121 67.144,21.477C69.129,22.572 70.652,23.411 72.471,24.414C72.855,23.795 73.289,22.964 73.849,22.231C74.404,21.505 75.087,20.877 76.211,19.674C76.555,21.802 76.779,23.187 77.004,24.573C84.295,23.593 84.295,23.593 83.95,9.718C86.032,11.328 87.776,12.677 89.905,14.324C90.557,12.649 91.108,11.232 92.204,8.418C94.041,16.606 99.614,15.154 104.822,15.202C110.086,15.251 115.447,16.089 115.942,7.251C117.531,9.882 118.332,11.209 119.305,12.819C121.091,11.588 122.786,10.421 124.934,8.941C124.934,12.466 124.934,15.529 124.934,18.868C131.62,17.54 137.891,16.12 144.223,15.07C164.611,11.689 182.157,19.349 198.899,29.633C203.703,32.584 208.046,36.279 212.664,39.544C213.69,40.27 214.935,40.894 216.158,41.098C222.547,42.162 228.95,43.157 235.371,44.013C240.018,44.632 243.059,46.95 244.097,51.577C246.132,60.654 248.055,69.755 250.126,78.823C250.749,81.551 251.709,84.202 252.805,87.158M196.491,53.875C201.298,53.64 206.136,53.666 210.901,53.085C214.533,52.641 215.797,53.416 216.031,57.369C216.561,66.309 217.777,75.209 218.71,84.126C219.012,87.017 220.299,88.729 224.304,88.159C222.567,75.629 221.008,63.149 218.898,50.762C218.642,49.26 215.522,47.454 213.547,47.199C209.13,46.628 204.584,47.153 200.116,46.855C192.817,46.369 185.547,45.412 178.245,45.058C176.719,44.984 175.107,46.662 173.534,47.533C174.473,49.039 175.105,51.426 176.411,51.881C179.869,53.086 180.298,55.338 180.314,58.436C180.339,63.421 180.651,68.408 180.988,73.385C181.158,75.895 182.033,77.968 185.224,77.651C188.766,77.299 189.591,79.449 190.122,82.455C190.448,84.307 191.881,85.963 192.818,87.707C193.371,87.489 193.924,87.271 194.477,87.053C193.5,75.943 192.523,64.833 191.527,53.497C193.515,53.663 194.506,53.745 196.491,53.875M97.5,44.047C90.184,44.054 82.868,44.042 75.553,44.075C71.064,44.094 66.567,44.055 62.093,44.341C61.174,44.399 60.339,45.781 59.465,46.554C60.271,47.188 60.992,48.123 61.905,48.382C63.151,48.735 64.542,48.618 65.871,48.623C90.477,48.718 115.084,48.817 139.691,48.854C141.413,48.857 143.135,48.387 144.78,48.148C144.635,43.85 141.907,44.094 139.402,44.089C125.768,44.063 112.134,44.061 97.5,44.047M174.573,32.233C175.667,31.679 176.76,31.126 177.854,30.572C177.253,29.558 176.755,27.749 176.036,27.656C170.572,26.952 166.632,23.886 162.954,20.141C162.25,19.425 160.848,19.133 159.757,19.107C155.273,19.001 150.76,18.784 146.306,19.171C142.63,19.491 139.023,20.603 135.385,21.364C135.425,21.942 135.466,22.521 135.506,23.099C140.461,22.629 145.112,22.863 147.294,28.578C148.59,27.396 149.199,26.391 150.017,26.173C153.372,25.281 156.782,24.222 160.191,24.152C161.143,24.132 162.052,27.372 163.189,28.968C163.855,29.903 164.832,31.012 165.843,31.228C168.428,31.778 171.111,31.871 174.573,32.233M121.279,66.064C122.733,65.965 124.186,65.866 125.591,65.77C125.919,61.399 125.922,61.283 122.609,61.185C117.798,61.043 112.98,61.064 108.165,61.057C98.097,61.041 88.029,61.052 78.115,61.052C76.482,64.7 77.368,66.019 80.974,66.001C94.09,65.934 107.207,66.037 121.279,66.064M136.433,79.009C137.563,76.61 137.065,75.125 134.162,75.119C124.89,75.102 115.618,75.113 106.346,75.113C106.054,75.506 105.762,75.9 105.47,76.293C106.566,77.296 107.638,79.136 108.764,79.171C117.722,79.445 126.691,79.376 136.433,79.009M153.958,66.022C154.561,65.102 155.164,64.182 155.768,63.262C154.89,62.737 154.032,61.799 153.131,61.755C147.354,61.476 141.566,61.259 135.787,61.359C134.601,61.379 133.44,62.826 132.268,63.615C133.411,64.43 134.527,65.9 135.702,65.949C141.478,66.192 147.271,66.058 153.958,66.022M59.502,61.033C56.854,61.029 54.18,60.802 51.57,61.116C50.292,61.269 49.135,62.427 47.923,63.13C49.208,64.031 50.448,65.623 51.787,65.71C57.063,66.053 62.373,65.829 67.664,66.004C71.045,66.116 71.664,64.545 70.606,61.032C67.348,61.032 63.915,61.032 59.502,61.033M86.442,74.855C81.299,74.874 76.151,74.776 71.018,75.006C69.939,75.055 68.915,76.311 67.865,77.011C68.958,77.68 70.034,78.896 71.146,78.929C78.273,79.142 85.413,79.234 92.538,79.006C93.792,78.966 94.993,77.234 96.219,76.283C95.915,75.805 95.611,75.327 95.307,74.849C92.678,74.849 90.049,74.849 86.442,74.855M161.967,80.745C164.129,78.273 163.769,76.391 160.364,76.204C155.442,75.934 150.494,76.135 145.492,76.135C144.482,79.061 145.412,80.404 148.634,80.409C152.777,80.416 156.919,80.683 161.967,80.745M45.07,79.154C61.029,79.08 59.914,79.399 59.369,75.24C53.855,75.24 48.322,75.24 41.722,75.24C42.849,77.014 43.519,78.07 45.07,79.154M230.73,57.671C231.891,55.297 234.303,52.653 233.864,50.627C233.421,48.582 230.15,47.15 228.117,45.449C227.603,45.867 227.089,46.285 226.576,46.704C227.758,50.209 228.94,53.714 230.73,57.671z"/><path fill="#1a1b1a" d="M54.656,101.128C48.425,100.769 42.651,100.393 36.876,100.018C44.888,95.063 56.194,95.314 61.021,100.04C58.734,100.454 56.923,100.783 54.656,101.128z"/><path fill="#121212" d="M89.099,117.168C85.102,116.697 81.578,116.226 77.153,115.635C85.907,110.501 95.896,110.796 100.946,116.472C96.732,116.73 93.152,116.949 89.099,117.168z"/><path fill="#f2f2f2" d="M195.993,53.851C194.506,53.745 193.515,53.663 191.527,53.497C192.523,64.833 193.5,75.943 194.477,87.053C193.924,87.271 193.371,87.489 192.818,87.707C191.881,85.963 190.448,84.307 190.122,82.455C189.591,79.449 188.766,77.299 185.224,77.651C182.033,77.968 181.158,75.895 180.988,73.385C180.651,68.408 180.339,63.421 180.314,58.436C180.298,55.338 179.869,53.086 176.411,51.881C175.105,51.426 174.473,49.039 173.534,47.533C175.107,46.662 176.719,44.984 178.245,45.058C185.547,45.412 192.817,46.369 200.116,46.855C204.584,47.153 209.13,46.628 213.547,47.199C215.522,47.454 218.642,49.26 218.898,50.762C221.008,63.149 222.567,75.629 224.304,88.159C220.299,88.729 219.012,87.017 218.71,84.126C217.777,75.209 216.561,66.309 216.031,57.369C215.797,53.416 214.533,52.641 210.901,53.085C206.136,53.666 201.298,53.64 195.993,53.851z"/><path fill="#e1e1e1" d="M98,44.049C112.134,44.061 125.768,44.063 139.402,44.089C141.907,44.094 144.635,43.85 144.78,48.148C143.135,48.387 141.413,48.857 139.691,48.854C115.084,48.817 90.477,48.718 65.871,48.623C64.542,48.618 63.151,48.735 61.905,48.382C60.992,48.123 60.271,47.188 59.465,46.554C60.339,45.781 61.174,44.399 62.093,44.341C66.567,44.055 71.064,44.094 75.553,44.075C82.868,44.042 90.184,44.054 98,44.049z"/><path fill="#edeeee" d="M174.164,32.19C171.111,31.871 168.428,31.778 165.843,31.228C164.832,31.012 163.855,29.903 163.189,28.968C162.052,27.372 161.143,24.132 160.191,24.152C156.782,24.222 153.372,25.281 150.017,26.173C149.199,26.391 148.59,27.396 147.294,28.578C145.112,22.863 140.461,22.629 135.506,23.099C135.466,22.521 135.425,21.942 135.385,21.364C139.023,20.603 142.63,19.491 146.306,19.171C150.76,18.784 155.273,19.001 159.757,19.107C160.848,19.133 162.25,19.425 162.954,20.141C166.632,23.886 170.572,26.952 176.036,27.656C176.755,27.749 177.253,29.558 177.854,30.572C176.76,31.126 175.667,31.679 174.164,32.19z"/><path fill="#eeeeee" d="M120.802,66.07C107.207,66.037 94.09,65.934 80.974,66.001C77.368,66.019 76.482,64.7 78.115,61.052C88.029,61.052 98.097,61.041 108.165,61.057C112.98,61.064 117.798,61.043 122.609,61.185C125.922,61.283 125.919,61.399 125.591,65.77C124.186,65.866 122.733,65.965 120.802,66.07z"/><path fill="#efefef" d="M136.044,79.211C126.691,79.376 117.722,79.445 108.764,79.171C107.638,79.136 106.566,77.296 105.47,76.293C105.762,75.9 106.054,75.506 106.346,75.113C115.618,75.113 124.89,75.102 134.162,75.119C137.065,75.125 137.563,76.61 136.044,79.211z"/><path fill="#e4e5e4" d="M153.508,66.04C147.271,66.058 141.478,66.192 135.702,65.949C134.527,65.9 133.411,64.43 132.268,63.615C133.44,62.826 134.601,61.379 135.787,61.359C141.566,61.259 147.354,61.476 153.131,61.755C154.032,61.799 154.89,62.737 155.768,63.262C155.164,64.182 154.561,65.102 153.508,66.04z"/><path fill="#e5e6e5" d="M59.992,61.032C63.915,61.032 67.348,61.032 70.606,61.032C71.664,64.545 71.045,66.116 67.664,66.004C62.373,65.829 57.063,66.053 51.787,65.71C50.448,65.623 49.208,64.031 47.923,63.13C49.135,62.427 50.292,61.269 51.57,61.116C54.18,60.802 56.854,61.029 59.992,61.032z"/><path fill="#f5f5f4" d="M86.931,74.852C90.049,74.849 92.678,74.849 95.307,74.849C95.611,75.327 95.915,75.805 96.219,76.283C94.993,77.234 93.792,78.966 92.538,79.006C85.413,79.234 78.273,79.142 71.146,78.929C70.034,78.896 68.958,77.68 67.865,77.011C68.915,76.311 69.939,75.055 71.018,75.006C76.151,74.776 81.299,74.874 86.931,74.852z"/><path fill="#e7e7e7" d="M161.514,80.791C156.919,80.683 152.777,80.416 148.634,80.409C145.412,80.404 144.482,79.061 145.492,76.135C150.494,76.135 155.442,75.934 160.364,76.204C163.769,76.391 164.129,78.273 161.514,80.791z"/><path fill="#f1f1f1" d="M44.63,79.14C43.519,78.07 42.849,77.014 41.722,75.24C48.322,75.24 53.855,75.24 59.369,75.24C59.914,79.399 61.029,79.08 44.63,79.14z"/><path fill="#eaeaea" d="M230.426,57.445C228.94,53.714 227.758,50.209 226.576,46.704C227.089,46.285 227.603,45.867 228.117,45.449C230.15,47.15 233.421,48.582 233.864,50.627C234.303,52.653 231.891,55.297 230.426,57.445z"/></svg>