<svg xmlns="http://www.w3.org/2000/svg" viewBox="0 0 325 123" xml:space="preserve"><path fill="#040404" d="M29.252,99.718C27.757,93.672 26.262,87.626 24.767,81.579C25.276,81.31 25.786,81.041 26.295,80.772C29.975,85.923 33.655,91.075 37.66,96.682C38.936,91.286 40.123,86.268 41.612,79.969C43.195,83.822 44.341,86.612 45.781,90.119C47.641,86.645 51.223,84.599 47.725,80.432C46.059,78.448 48.415,75.279 51.073,74.747C52.757,74.41 54.861,73.664 55.77,72.386C60.038,66.386 64.17,60.457 71.308,57.318C72.69,56.71 73.16,54.071 74.1,52.397C74.69,51.347 75.158,50.078 76.05,49.374C79.144,46.93 82.565,44.885 85.568,42.341C109.568,22.004 136.725,10.297 168.71,11.921C190.075,13.006 208.533,21.883 225.529,34.118C237.823,42.969 247.598,54.335 255.917,66.918C257.833,69.815 259.642,71.685 263.431,71.107C264.765,70.903 266.3,72.015 268.803,72.902C266.516,74.324 265.256,75.107 263.669,76.094C265.473,79.418 267.266,82.721 269.571,86.969C270.845,82.733 271.835,79.436 272.826,76.139C273.212,76.113 273.597,76.087 273.983,76.061C275.326,81.184 276.669,86.308 278.096,91.754C282.964,85.556 287.628,79.619 292.291,73.681C292.737,73.923 293.182,74.164 293.627,74.405C294.362,82.526 288.951,89.024 286.952,97.019C294.08,94.099 300.935,91.292 307.79,88.485C308.279,89.141 308.767,89.797 309.256,90.454C304.78,94.085 300.303,97.717 295.289,101.785C304.931,105.45 313.163,108.58 321.395,111.709C321.327,112.144 321.259,112.579 321.19,113.015C320.222,113.315 319.261,113.855 318.285,113.882C303.154,114.296 287.925,115.804 272.929,114.546C264.755,113.86 256.715,108.967 249.086,105.053C239.49,100.129 230.376,94.265 220.523,88.444C219.631,88.178 219.27,88.276 218.91,88.374C219.167,88.688 219.424,89.003 219.682,89.317C223.213,93.49 226.849,97.579 230.248,101.857C233.915,106.472 237.36,111.262 240.295,116.618C223.762,113.629 211.946,103.149 199.529,92.459C198.723,92.196 198.446,92.261 198.169,92.325C198.355,92.641 198.541,92.957 198.727,93.273C204.312,101.099 209.897,108.925 215.621,116.945C199.679,113.542 188.947,102.22 177.684,91.548C180.012,103.388 185.9,112.986 194.491,121.109C194.206,121.527 193.921,121.944 193.636,122.362C176.126,120.643 158.616,118.925 141.106,117.206C141.108,116.927 141.11,116.648 141.112,116.369C148.447,114.584 155.781,112.798 163.115,111.013C163.114,110.396 163.113,109.779 163.112,109.163C160.535,108.473 157.961,107.195 155.381,107.186C131.888,107.105 108.393,107.244 84.899,107.333C84.439,107.335 83.979,107.517 82.737,107.782C89.794,117.909 101.488,115.75 111.708,119.723C76.721,123.553 43.554,117.694 10.261,113.75C10.161,113.236 10.06,112.723 9.959,112.209C13.916,110.556 17.872,108.902 22.113,107.129C18.271,102.625 14.381,98.065 10.492,93.506C10.865,92.948 11.238,92.391 11.612,91.834C17.152,94.593 22.693,97.352 28.622,100.343C29.234,100.593 29.459,100.612 29.684,100.63C29.54,100.326 29.396,100.022 29.252,99.718M105.94,83.515C105.958,81.849 105.94,80.182 106.002,78.517C106.14,74.816 104.479,70.299 110.687,69.433C111.374,69.337 111.85,65.712 111.856,63.723C111.858,62.894 110.394,61.374 109.554,61.343C103.804,61.131 98.044,61.232 91.669,61.232C91.669,74.73 91.669,87.606 91.669,100.459C96.385,100.459 100.924,100.459 105.932,100.459C105.932,94.8 105.932,89.654 105.94,83.515M140.944,100.897C145.03,100.897 149.116,100.897 153.018,100.897C153.018,87.174 153.018,73.989 153.018,61.027C147.419,61.027 142.6,60.912 137.789,61.062C133.446,61.197 131.277,64.168 133.257,67.835C134.133,69.458 136.866,70.078 139.05,71.321C139.05,78.123 138.958,85.267 139.097,92.406C139.15,95.144 139.728,97.871 140.944,100.897M118.534,49.825C125.547,48.751 131.943,49.536 137.603,54.575C139.236,56.029 142.329,55.844 145.603,56.608C141.711,47.447 129.286,42.476 117.84,44.277C108.496,45.746 102.624,50.082 102.052,56.921C104.219,56.263 106.145,55.913 107.855,55.107C111.209,53.525 114.443,51.689 118.534,49.825M64.354,103.857C66.925,101.09 69.495,98.323 72.065,95.556C71.786,95.145 71.506,94.735 71.227,94.325C62.684,99.034 54.142,103.743 44.999,108.783C53.433,112.384 59.288,110.568 64.354,103.857M200.569,67.037C201.937,67.417 203.306,67.797 204.674,68.177C195.876,58.453 184.763,54.441 172.311,53.502C181.492,57.922 190.673,62.342 200.569,67.037M241.351,92.178C243.679,94.062 246.007,95.945 248.334,97.829C246.218,92.295 234.184,81.434 230.084,82.288C233.666,85.421 237.249,88.553 241.351,92.178z"/><path fill="#242424" d="M241.716,111.096C241.653,110.257 241.951,109.196 242.003,109.208C246.446,110.227 250.294,112.164 252.804,116.039C252.477,116.57 252.15,117.1 251.823,117.631C248.536,115.546 245.249,113.46 241.716,111.096z"/><path fill="#f6f6f6" d="M105.936,84.011C105.932,89.654 105.932,94.8 105.932,100.459C100.924,100.459 96.385,100.459 91.669,100.459C91.669,87.606 91.669,74.73 91.669,61.232C98.044,61.232 103.804,61.131 109.554,61.343C110.394,61.374 111.858,62.894 111.856,63.723C111.85,65.712 111.374,69.337 110.687,69.433C104.479,70.299 106.14,74.816 106.002,78.517C105.94,80.182 105.958,81.849 105.936,84.011z"/><path fill="#f7f7f7" d="M140.506,100.75C139.728,97.871 139.15,95.144 139.097,92.406C138.958,85.267 139.05,78.123 139.05,71.321C136.866,70.078 134.133,69.458 133.257,67.835C131.277,64.168 133.446,61.197 137.789,61.062C142.6,60.912 147.419,61.027 153.018,61.027C153.018,73.989 153.018,87.174 153.018,100.897C149.116,100.897 145.03,100.897 140.506,100.75z"/><path fill="#eeefef" d="M118.131,49.892C114.443,51.689 111.209,53.525 107.855,55.107C106.145,55.913 104.219,56.263 102.052,56.921C102.624,50.082 108.496,45.746 117.84,44.277C129.286,42.476 141.711,47.447 145.603,56.608C142.329,55.844 139.236,56.029 137.603,54.575C131.943,49.536 125.547,48.751 118.131,49.892z"/><path fill="#ececec" d="M64.103,104.109C59.288,110.568 53.433,112.384 44.999,108.783C54.142,103.743 62.684,99.034 71.227,94.325C71.506,94.735 71.786,95.145 72.065,95.556C69.495,98.323 66.925,101.09 64.103,104.109z"/><path fill="#e6e6e6" d="M200.211,66.9C190.673,62.342 181.492,57.922 172.311,53.502C184.763,54.441 195.876,58.453 204.674,68.177C203.306,67.797 201.937,67.417 200.211,66.9z"/><path fill="#e8e9e9" d="M241.092,91.932C237.249,88.553 233.666,85.421 230.084,82.288C234.184,81.434 246.218,92.295 248.334,97.829C246.007,95.945 243.679,94.062 241.092,91.932z"/><path fill="#fcfcfc" d="M219.863,89.134C219.424,89.003 219.167,88.688 218.91,88.374C219.27,88.276 219.631,88.178 220.198,88.33C220.284,88.703 220.165,88.827 219.863,89.134z"/><path fill="#fcfcfc" d="M198.92,93.072C198.541,92.957 198.355,92.641 198.169,92.325C198.446,92.261 198.723,92.196 199.238,92.291C199.355,92.591 199.234,92.731 198.92,93.072z"/><path fill="#fcfcfc" d="M29.178,99.802C29.396,100.022 29.54,100.326 29.684,100.63C29.459,100.612 29.234,100.593 28.98,100.313C28.951,100.051 29.103,99.886 29.178,99.802z"/></svg>