<svg xmlns="http://www.w3.org/2000/svg" viewBox="0 0 237 187" xml:space="preserve"><path fill="#090909" d="M157.011,167.186C161.105,164.109 167.796,166.255 171.072,160.153C167.046,160.153 163.54,160.153 159.313,159.691C161.385,158.225 164.177,157.221 166.97,156.216C165.481,154.981 163.557,154.323 161.796,154.624C158.703,155.153 158.258,157.51 159.004,160.223C156.663,160.167 154.322,160.11 151.496,159.675C151.01,158.923 151.011,158.55 151.012,158.178C153.197,157.269 155.383,156.361 157.568,155.453C157.475,155.02 157.383,154.588 157.29,154.156C150.51,154.156 143.729,154.156 136.949,154.156C136.903,153.765 136.858,153.374 136.813,152.984C140.375,152.236 143.938,151.488 147.5,150.74C147.601,150.283 147.702,149.825 147.803,149.367C144.922,148.566 142.058,147.155 139.156,147.074C129.336,146.8 119.503,146.947 109.676,147.049C107.222,147.074 104.773,147.535 101.543,147.878C102.976,148.616 103.625,148.951 105.24,149.783C101.286,150.436 98.866,150.836 96.446,151.235C96.424,151.604 96.402,151.973 96.38,152.342C106.088,153.154 115.796,153.966 125.505,154.778C113.611,159.211 101.83,153.705 89.669,155.254C90.47,155.883 91.168,156.43 91.865,156.978C91.747,157.466 91.628,157.955 91.51,158.443C87.963,157.528 84.195,157.094 80.918,155.592C75.381,153.054 75.511,152.77 71.981,154.569C72.779,154.993 74.387,155.847 75.995,156.701C75.041,157.347 74.088,157.993 73.134,158.639C75.685,158.818 78.236,158.998 82.295,159.284C80.149,161.232 79.239,162.058 77.675,163.478C80.051,163.36 81.633,163.282 83.652,163.183C83.459,161.769 83.303,160.627 83.035,158.672C85.789,160.031 87.985,161.002 90.02,162.237C90.34,162.432 89.932,163.828 89.901,164.202C92.971,164.36 96.524,164.543 100.076,164.727C100.06,165.258 100.043,165.789 100.027,166.32C91.927,170.544 83.412,167.291 74.424,166.84C75.641,168.445 76.44,169.499 77.548,170.962C65.508,175.131 53.901,174.335 42.185,171.858C44.554,169.127 46.915,166.407 48.886,164.135C38.183,164.135 27.735,164.135 17.288,164.135C17.153,163.725 17.018,163.316 16.883,162.907C18.754,161.99 20.626,161.073 22.822,159.997C21.493,154.45 25.584,152.494 30.155,150.9C30.064,150.363 29.974,149.827 29.883,149.29C23.452,149.009 17.022,148.727 10.591,148.445C10.492,148.097 10.394,147.748 10.295,147.4C11.436,146.708 12.667,146.128 13.7,145.302C15.615,143.772 17.345,142.009 19.281,140.509C21.434,138.839 23.73,137.354 26.339,135.526C23.731,134.26 20.343,132.615 16.457,130.728C19.338,129.545 21.989,128.457 25.625,126.964C27.346,127.4 30.448,128.187 33.743,129.023C33.743,127.289 33.743,126.169 33.743,124.819C34.99,124.89 36.072,124.952 37.13,125.013C37.473,123.424 37.782,121.995 38.133,120.369C35.274,120.686 32.457,120.998 29.641,121.311C29.51,120.874 29.379,120.437 29.249,120C31.177,119.209 33.105,118.419 35.034,117.629C34.946,117.196 34.859,116.762 34.771,116.329C27.193,116.95 19.615,117.57 12.037,118.191C11.876,117.577 11.714,116.963 11.552,116.35C16.305,113.518 21.057,110.686 26.445,107.476C22.939,107.476 19.885,107.476 16.405,107.476C16.438,106.909 16.492,106.003 16.548,105.058C13.681,105.058 10.816,105.058 7.388,105.058C9.178,100.902 16.783,102.897 14.663,95.934C16.073,96.704 16.934,97.173 17.997,97.753C18.32,97.293 18.84,96.827 19.021,96.253C21.603,88.066 24.286,79.906 26.6,71.643C27.296,69.155 27.176,66.356 27.005,63.726C26.714,59.235 29.368,58.455 33.012,57.758C37.488,56.901 42.595,56.251 45.973,53.633C49.126,51.19 51.144,46.49 52.22,42.404C53.117,39 51.923,35.045 51.728,32.356C58.526,29.456 65.369,26.536 72.328,23.567C71.903,22.595 71.393,21.429 70.718,19.885C71.652,19.953 72.195,19.826 72.483,20.041C74.294,21.387 75.867,23.201 77.86,24.117C81.157,25.633 84.547,27.322 87.607,22.939C88.752,21.299 91.653,20.885 94.512,20.184C93.397,22.233 91.525,24.01 89.552,25.881C94.001,26.396 98.254,26.889 102.697,27.619C103.024,28.005 103.163,28.152 103.141,28.662C105.736,28.732 108.538,28.665 111.236,28.098C116.03,27.088 120.173,23.443 125.833,26.527C129.734,28.653 134.721,30.179 139.038,29.81C144.905,29.307 150.595,26.738 157.639,24.682C146.651,19.089 135.739,24.454 125.013,20.702C129.038,19.477 132.094,18.548 135.274,17.58C130.764,15.004 126.286,12.879 120.855,14.914C119.604,15.382 118.004,14.918 116.565,14.884C118.702,11.449 126.661,9.908 130.881,11.654C135.141,13.416 140.308,13.697 143.867,16.29C150.127,20.85 160.077,18.267 163.943,28.884C164.563,25.537 164.848,23.998 165.17,22.259C165.831,22.862 166.357,23.341 167.032,23.956C168.717,21.247 170.392,18.553 172.067,15.86C172.43,16.035 172.793,16.211 173.156,16.386C172.245,19.119 171.334,21.852 170.359,24.777C171.502,24.9 172.711,25.029 174.373,25.207C173.435,26.909 172.676,28.285 171.612,30.214C176.703,32.323 181.677,34.383 185.946,36.151C187.586,43.411 189.072,50.24 190.721,57.03C190.964,58.031 191.801,59.378 192.661,59.661C199.599,61.949 200.139,67.989 200.727,73.684C201.181,78.086 202.141,81.787 204.811,85.618C207.238,89.099 207.63,93.998 209.5,98.225C208.949,88.139 211.633,78.913 214.988,69.832C215.523,69.87 216.057,69.908 216.592,69.946C216.592,79.924 216.592,89.902 216.592,100.103C217.91,99.241 219.189,98.405 220.673,97.435C219.773,106.825 227.703,106.426 233.978,109.179C230.308,110.626 227.677,111.663 225.046,112.7C225.088,112.382 225.13,112.064 225.173,111.745C222.329,111.42 219.486,111.094 216.316,110.731C218.427,117.459 225.42,117.118 229.537,121.073C222.486,124.623 213.522,119.332 208.135,127.409C211.586,128.373 214.655,129.23 218.324,130.254C220.582,130.864 223.308,131.599 226.233,132.389C222.211,135.202 218.283,137.95 214.136,140.851C217.949,143.94 219.996,148.585 225.404,145.084C226.44,144.413 229.337,146.617 231.702,148.123C232.063,148.988 232.099,149.222 232.135,149.457C229.955,149.726 227.749,149.867 225.602,150.299C223.584,150.706 221.627,151.419 219.643,151.998C219.745,152.521 219.848,153.043 219.95,153.566C221.042,154.089 222.134,154.612 223.226,155.135C223.204,155.67 223.181,156.205 223.159,156.74C216.2,156.74 209.241,156.74 202.243,156.74C203.613,159.126 204.9,161.368 206.187,163.61C205.882,163.803 205.576,163.995 205.271,164.188C208.004,165.387 210.738,166.586 213.471,167.785C213.374,168.434 213.278,169.083 213.181,169.733C208.97,169.733 204.755,169.622 200.549,169.774C197.975,169.866 195.078,169.702 192.916,170.806C187.655,173.493 187.794,173.764 179.323,172.808C180.23,172.048 180.906,171.482 182.634,170.034C173.731,169.61 165.817,169.233 157.479,168.505C157.05,167.831 157.036,167.508 157.011,167.186M151.92,130.869C152.173,134.825 152.425,138.782 152.678,142.738C153.041,142.688 153.404,142.637 153.766,142.586C153.766,138.354 153.766,134.122 153.798,129.125C153.591,127.388 153.384,125.652 153.425,123.291C153.323,122.865 153.221,122.439 153.302,121.097C153.158,116.735 153.014,112.373 153.035,107.174C152.697,101.783 152.359,96.393 152.192,90.081C152.113,85.058 152.034,80.036 151.955,75.013C151.309,75.044 150.664,75.074 150.018,75.105C150.018,79.913 150.018,84.722 150.018,89.53C149.496,89.55 148.974,89.57 148.452,89.589C148.452,84.842 148.452,80.094 148.452,75.346C147.995,75.352 147.538,75.357 147.081,75.363C147.081,81.24 147.081,87.117 146.905,93.917C147.109,111.632 147.571,129.332 149.452,146.976C150.433,141.845 150.335,136.744 150.504,131.652C150.545,130.425 151.474,129.227 152.007,128.662C152.035,129.092 152.063,129.521 151.92,130.869M172.984,67.815C173.148,69.057 173.312,70.299 173.476,71.541C174.109,71.334 174.741,71.126 175.373,70.919C174.593,69.602 173.813,68.286 173.26,66.327C170.25,64.026 164.184,64.376 161.186,66.857C160.222,66.535 159.258,66.213 157.561,65.645C158.148,73.827 158.682,81.261 159.31,90.02C162.695,88.107 165.176,86.705 166.883,85.74C168.932,86.987 170.995,88.241 173.058,89.496C173.31,89.074 173.561,88.652 173.812,88.23C173.185,87.152 172.098,86.112 172.009,84.991C171.574,79.565 173.536,73.454 167.192,69.891C166.912,69.734 166.98,68.958 166.775,68.056C166.19,67.904 165.604,67.751 165.715,67.258C168.132,67.183 170.549,67.108 172.984,67.815M190.915,68.409C190.678,68.389 190.441,68.369 190.204,68.349C190.273,68.733 190.342,69.116 190.765,70.181C192.436,74.927 194.108,79.674 195.779,84.42C196.376,84.291 196.973,84.162 197.571,84.033C197.077,78.445 196.845,72.813 195.912,67.299C195.67,65.869 193.235,64.811 191.807,63.582C191.63,63.834 191.454,64.086 191.278,64.338C192.079,66.009 192.881,67.679 194.163,70.351C192.384,69.54 191.721,69.238 190.915,68.409M167.971,95.103C168.351,90.209 163.942,92.8 162.02,91.48C161.71,91.267 159.353,92.836 159.384,93.514C159.651,99.276 160.252,105.022 160.753,110.772C161.327,110.967 161.901,111.162 162.475,111.356C164.465,108.825 166.454,106.293 169.063,103.309C169.855,105.516 170.647,107.722 171.403,109.827C173.394,108.372 175.357,106.938 177.393,105.451C177.857,106.836 178.198,107.854 178.538,108.871C178.874,108.784 179.209,108.696 179.545,108.609C179.287,106.006 179.029,103.404 178.745,100.54C176.627,101.908 175.133,102.873 172.383,104.649C173.154,100.179 173.654,97.283 174.233,93.93C176.065,94.841 177.234,95.423 178.527,96.065C178.004,91.626 177.508,91.308 172.52,91.311C170.694,93.184 169.368,94.544 167.971,95.103M180.305,161.406C187.633,166.936 192.72,159.614 199.479,158.736C187.878,148.655 178.082,150.894 173.634,163.88C174.964,164.202 176.297,164.525 177.628,164.85C177.968,164.03 178.307,163.21 179.131,161.817C179.284,161.619 179.438,161.421 180.305,161.406M90.989,129.8C91.119,131.206 91.248,132.611 91.377,134.017C91.87,133.974 92.363,133.931 92.856,133.887C92.856,132.248 92.856,130.608 92.995,127.914C93.022,126.852 93.048,125.79 94.276,125.721C94.491,126.194 94.706,126.667 94.783,128.051C94.783,134.562 94.783,141.073 94.783,147.584C98.038,141.7 98.898,76.416 96.246,73.787C96.115,76.024 96.002,77.948 95.153,79.519C94.89,77.045 94.628,74.572 94.365,72.098C93.657,72.199 92.95,72.299 92.242,72.4C93.068,77.273 93.895,82.147 94.72,87.724C94.419,91.05 94.118,94.377 93.058,97.968C92.744,102.327 92.43,106.686 91.985,111.961C91.71,117.629 91.435,123.297 90.989,129.8M179.916,51.158C179.893,48.101 179.869,45.044 180.003,41.247C180.867,40.233 181.732,39.219 182.831,37.931C177.989,37.582 173.32,37.045 168.642,36.953C159.651,36.775 159.65,36.88 157.879,45.418C157.851,45.552 157.651,45.65 157.346,45.943C157.135,45.056 156.732,44.265 156.804,43.52C157.296,38.442 154.942,36.579 150.047,37.092C145.094,37.612 140.117,37.903 134.972,38.309C132.715,32.399 126.428,27.547 121.367,28.188C115.177,28.973 111.59,32.479 110.59,37.768C105.19,37.768 100.06,38.036 94.972,37.69C90.179,37.365 88.169,39.204 88.162,43.85C87.834,43.915 87.503,43.948 87.041,43.101C86.821,41.168 86.601,39.234 86.371,37.214C80.142,37.214 74.364,37.136 68.59,37.243C65.053,37.309 62.697,38.48 63.042,42.865C63.406,47.488 62.953,52.172 63.212,56.809C63.275,57.94 64.728,58.994 65.522,60.035C65.522,60.035 65.502,60.084 66.401,60.045C68.79,59.808 71.182,59.351 73.568,59.381C78.314,59.441 83.057,59.823 87.804,59.896C88.229,59.903 88.675,58.632 90.004,57.981C90.302,57.998 90.599,58.016 91.318,58.73C92.843,59.122 94.368,59.854 95.893,59.852C109.063,59.841 122.234,59.782 135.401,59.53C138.421,59.472 141.427,58.616 143.784,58.234C146.448,59.035 148.759,59.729 150.888,60.37C152.125,58.407 152.989,57.037 153.852,55.668C154.194,55.797 154.537,55.926 154.879,56.055C154.95,57.352 155.021,58.65 155.091,59.928C160.67,59.928 165.821,59.928 171.534,60.536C174.145,60.689 176.806,61.204 179.345,60.848C180.674,60.661 182.743,58.993 182.797,57.91C182.903,55.784 184.742,52.183 179.916,51.158M69.752,68.745C69.444,71.477 69.136,74.21 68.774,77.426C71.605,77.026 73.67,76.734 75.734,76.442C71.331,79.055 65.679,80.357 68.663,88.068C71.654,87.774 74.811,87.464 76.391,87.308C80.521,87.544 83.163,87.694 85.97,87.854C86.33,80.235 86.662,73.193 87.005,65.933C84.528,65.933 82.25,65.933 79.428,65.326C77.523,65.205 75.516,64.666 73.743,65.094C72.341,65.432 71.226,66.956 69.752,68.745M67.234,92.865C65.729,98.528 65.229,104.208 66.179,110.584C69.904,108.462 72.793,106.817 75.666,105.18C74.354,111.058 76.201,112.07 84.932,109.635C84.932,105.423 84.579,100.961 85.03,96.582C85.497,92.054 84.301,90.266 79.807,91.14C77.877,91.516 76.161,92.992 74.355,93.963C73.17,89.654 70.508,90.745 67.234,92.865M63.394,118.034C63.208,122.245 63.023,126.457 62.807,131.388C66.905,129.308 70.114,127.679 73.542,125.939C73.936,126.856 74.354,127.83 74.345,127.808C77.841,128.329 80.495,128.724 83.403,129.157C83.813,124.06 84.177,119.525 84.614,114.088C81.321,114.088 77.679,113.293 74.634,114.301C71.275,115.413 68.397,112.581 65.467,114.153C64.522,114.66 64.089,116.122 63.394,118.034M59.274,139.9C58.898,142.883 58.523,145.865 58.032,149.761C62.577,146.465 66.584,143.961 69.192,149.21C72.733,147.729 75.922,146.394 78.793,145.194C80.103,148.145 80.924,149.995 81.745,151.845C82.004,151.713 82.263,151.581 82.521,151.449C82.808,146.331 83.094,141.213 83.437,135.104C81.32,135.104 78.111,134.165 76.029,135.299C71.698,137.657 67.737,134.758 63.519,135.436C60.659,135.896 59.307,136.14 59.274,139.9M30.042,83.44C24.345,88.579 23.472,95.505 23.637,103.13C28.444,97.221 33.25,91.312 38.23,85.191C36.573,84.849 35.371,84.6 34.782,84.479C34.782,79.439 34.782,74.815 34.782,69.572C33.862,70.918 33.279,71.77 31.908,73.776C31.908,69.73 31.908,66.981 31.908,64.232C31.547,64.22 31.185,64.207 30.823,64.194C29.807,69.469 28.791,74.745 27.776,80.021C28.243,79.94 28.71,79.859 29.176,79.778C29.563,80.778 29.949,81.778 30.042,83.44M171.702,146.76C172.722,147.387 173.743,148.015 174.654,148.575C175.124,145.986 176.142,143.246 175.928,140.605C175.769,138.646 174.275,135.453 172.913,135.188C169.083,134.444 165.014,134.928 161.405,134.928C161.926,141.144 162.332,145.993 162.668,150.004C165.599,148.898 168.28,147.887 171.702,146.76M39.957,92.316C35.12,97.801 33.531,104.435 32.766,112.308C34.545,111.109 35.823,110.466 36.825,109.527C39.174,107.327 41.39,104.985 44.213,102.144C45.952,98.462 48.181,93.743 51.066,87.635C46.99,89.196 43.702,90.455 39.957,92.316M127.487,72.736C133.595,72.736 139.703,72.736 145.812,72.736C145.786,72.156 145.761,71.576 145.736,70.996C143.777,70.996 141.813,71.075 139.86,70.968C138.588,70.899 136.238,70.592 136.231,70.337C136.103,65.999 133.045,67.702 131.251,68.122C128.51,68.763 126.033,68.293 123.374,68.15C115.995,67.752 108.51,69.18 101.079,69.996C100.038,70.11 99.063,70.835 98.058,71.277C98.136,71.763 98.215,72.249 98.293,72.734C107.692,72.734 117.091,72.734 127.487,72.736M50.409,131.176C49.799,130.911 49.147,130.348 48.586,130.427C43.235,131.182 34.175,141.359 33.819,146.948C33.809,147.105 34.22,147.29 34.552,147.555C35.172,146.421 35.769,145.329 36.365,144.239C39.07,145.004 41.472,145.683 44.164,146.444C47.302,142.2 50.71,137.589 54.122,132.974C53.41,132.649 52.212,132.101 50.409,131.176M44.235,64.505C47.361,62.089 50.439,59.607 53.625,57.271C57.664,54.311 55.985,50.591 55.137,46.521C52.683,49.936 50.593,53.236 48.075,56.169C46.948,57.481 45.06,58.497 43.346,58.876C39.289,59.774 35.13,60.209 31.012,60.832C31.04,61.554 31.068,62.277 31.096,62.999C35.236,63.596 39.375,64.193 44.235,64.505M161.07,122.403C161.359,125.562 161.648,128.721 162.057,133.195C163.53,131.362 163.874,130.499 164.47,130.257C170.546,127.787 171.144,122.537 170.996,117.105C170.961,115.842 169.781,113.853 168.704,113.503C163.19,111.711 160.684,113.8 161.024,119.46C161.063,120.122 161.05,120.788 161.07,122.403M61.345,35.124C65.432,34.383 69.547,33.757 73.583,32.798C74.339,32.619 74.778,31.105 75.614,29.821C77.32,29.905 79.626,30.018 82.593,30.163C74.837,24.885 62.854,27.2 55.997,35.135C57.807,35.355 59.316,35.539 61.345,35.124M62.991,159.161C59.555,160.128 56.119,161.096 52.214,162.195C57.136,168.535 61.846,168.537 70.416,162.876C67.908,161.712 65.741,160.708 62.991,159.161M52.92,69.347C52.008,69.447 51.096,69.548 49.841,69.685C50.167,68.275 50.418,67.187 50.694,65.991C44.889,66.439 42.04,77.204 45.738,84.168C46.14,82.366 46.478,80.859 46.859,79.153C47.864,79.974 48.511,80.503 49.08,80.968C50.654,77.136 52.12,73.569 52.92,69.347M211.852,144.748C210.963,144.304 210.022,143.942 209.195,143.404C204.032,140.043 199.681,142.054 198.35,147.759C201.216,148.471 204.098,149.873 206.869,149.68C209.586,149.491 212.191,147.679 215.44,146.333C214.011,145.68 213.281,145.345 211.852,144.748M190.731,122.317C190.011,123.004 189.29,123.691 189.137,123.836C191.056,128.637 192.835,133.086 194.418,137.044C195.15,135.134 195.958,133.025 197.028,130.233C196.952,130.161 195.995,129.267 194.299,127.683C196.806,127.839 198.258,127.929 200.227,128.052C198.494,126.108 197.267,124.275 195.603,123.025C194.475,122.178 192.733,122.149 190.731,122.317M44.688,154.706C43.358,150.447 40.427,149.71 36.636,151.167C33.926,152.208 31.284,153.426 27.494,155.042C31.294,156.55 34.262,157.729 35.812,158.344C39.283,156.835 41.607,155.824 44.688,154.706M196.36,88.132C195.766,87.706 195.172,87.279 193.793,86.289C195.552,91.332 196.935,95.296 198.409,99.52C195.445,99.926 193.628,100.175 191.81,100.424C192.919,101.731 194.322,101.688 195.135,102.359C197.431,104.257 201.173,106.39 201.245,108.535C201.357,111.848 203.085,111.734 205.666,113.156C204.751,110.265 204.222,108.217 203.459,106.26C202.063,102.68 200.483,99.171 199.071,95.597C198.195,93.381 197.488,91.099 196.36,88.132M179.85,113.716C173.06,113.297 170.363,119.643 173.885,128.124C175.234,127.273 176.554,126.442 177.665,125.742C177.38,122.389 177.123,119.358 176.827,115.867C178.758,115.867 180.239,115.867 182.56,115.867C181.452,114.816 181.018,114.405 179.85,113.716M52.087,107.605C49.699,110.252 47.31,112.899 44.922,115.546C45.177,115.805 45.433,116.064 45.689,116.323C47.383,115.56 49.077,114.798 50.797,114.025C51.48,115.3 52.036,116.338 52.911,117.972C54.42,114.609 55.64,111.889 57.059,108.727C56.715,107.947 56.136,106.637 55.431,105.04C54.388,105.805 53.492,106.461 52.087,107.605M177.807,136.899C180.545,137.239 183.284,137.579 186.497,137.979C184.149,133.604 181.469,133.317 177.807,136.899z"/><path fill="#ecedec" d="M116.596,14.899C118.004,14.918 119.604,15.382 120.855,14.914C126.286,12.879 130.764,15.004 135.274,17.58C132.094,18.548 129.038,19.477 125.013,20.702C135.739,24.454 146.651,19.089 157.639,24.682C150.595,26.738 144.905,29.307 139.038,29.81C134.721,30.179 129.734,28.653 125.833,26.527C120.173,23.443 116.03,27.088 111.236,28.098C108.538,28.665 105.736,28.732 103.373,28.513C103.346,27.795 102.927,27.588 102.508,27.381C98.254,26.889 94.001,26.396 89.552,25.881C91.525,24.01 93.397,22.233 94.905,20.132C94.54,19.808 94.545,19.893 94.387,20.483C99.388,21.448 104.548,21.822 109.708,22.196C109.763,21.943 109.818,21.689 109.873,21.436C107.511,20.212 105.149,18.988 102.787,17.763C102.862,17.302 102.937,16.84 103.013,16.378C105.596,16.552 108.205,17.023 110.754,16.802C112.707,16.633 114.584,15.589 116.495,14.934C116.495,14.934 116.627,14.914 116.596,14.899M107.907,24.175C106.843,24.807 105.778,25.44 104.714,26.073C104.849,26.318 104.984,26.563 105.119,26.809C106.226,26.057 107.332,25.306 107.907,24.175M110.145,21.361C111.024,22.071 111.903,22.782 112.781,23.493C113.017,23.122 113.253,22.751 113.489,22.381C112.69,22.009 111.891,21.638 110.145,21.361z"/><path fill="#141414" d="M156.541,167.248C157.036,167.508 157.05,167.831 157.037,168.396C151.32,169.943 145.618,171.247 139.919,172.564C139.809,172.589 139.736,172.775 139.647,172.887C133.891,167.771 126.091,172.79 120.037,168.66C132.051,167.811 143.941,164.914 156.541,167.248z"/><path fill="#1c1c1c" d="M163.636,179.596C164.68,179.96 165.341,180.246 166.001,180.532C165.965,181.113 165.928,181.694 165.891,182.275C158.439,182.436 150.986,182.598 142.708,182.777C149.391,174.58 153.902,174.062 163.636,179.596z"/><path fill="#090909" d="M116.766,14.51C114.584,15.589 112.707,16.633 110.754,16.802C108.205,17.023 105.596,16.552 103.013,16.378C102.937,16.84 102.862,17.302 102.787,17.763C105.149,18.988 107.511,20.212 109.873,21.436C109.818,21.689 109.763,21.943 109.708,22.196C104.548,21.822 99.388,21.448 94.352,20.508C95.276,18.415 96.077,16.887 97.399,14.364C97.282,14.396 98.568,14.05 100.196,13.153C100.686,12.021 100.833,11.44 100.979,10.859C101.527,11.697 102.075,12.534 102.362,12.974C107.226,13.342 112.131,13.715 116.766,14.51z"/><path fill="#161616" d="M87.773,177.983C81.266,178.64 75.159,179.237 69.051,179.834C78.14,171.603 82.591,171.134 90.323,176.776C89.527,177.2 88.85,177.561 87.773,177.983z"/><path fill="#dcdcdc" d="M158.993,160.202C158.258,157.51 158.703,155.153 161.796,154.624C163.557,154.323 165.481,154.981 166.97,156.216C164.177,157.221 161.385,158.225 158.797,159.729C159.001,160.229 158.982,160.181 158.993,160.202z"/><path fill="#161616" d="M150.636,158.104C151.011,158.55 151.01,158.923 151.01,159.575C149.751,159.854 148.491,159.854 147.232,159.854C147.171,159.545 147.11,159.236 147.049,158.927C148.119,158.628 149.189,158.329 150.636,158.104z"/><path fill="#1b1b1b" d="M100.631,10.92C100.833,11.44 100.686,12.021 100.307,12.799C100.144,12.324 100.213,11.652 100.631,10.92z"/><path fill="#161616" d="M232.426,149.332C232.099,149.222 232.063,148.988 232.012,148.396C232.237,148.429 232.477,148.818 232.426,149.332z"/><path fill="#f0f0f0" d="M88.658,43.913C88.169,39.204 90.179,37.365 94.972,37.69C100.06,38.036 105.19,37.768 110.59,37.768C111.59,32.479 115.177,28.973 121.367,28.188C126.428,27.547 132.715,32.399 134.972,38.309C140.117,37.903 145.094,37.612 150.047,37.092C154.942,36.579 157.296,38.442 156.804,43.52C156.732,44.265 157.135,45.056 157.346,45.943C157.651,45.65 157.851,45.552 157.879,45.418C159.65,36.88 159.651,36.775 168.642,36.953C173.32,37.045 177.989,37.582 182.831,37.931C181.732,39.219 180.867,40.233 179.752,41.621C179.501,41.996 179.156,41.986 179.009,41.673C176.851,37.759 174.48,41.265 172.281,41.097C168.604,40.816 164.889,41.02 161.19,41.02C161.188,41.514 161.186,42.008 161.184,42.502C162.247,42.957 163.309,43.412 164.448,43.9C162.743,45.963 161.309,47.697 160.447,48.739C161.867,56.01 166.736,56.452 172.011,56.417C172.022,56.656 172.052,57.134 172.045,57.35C172.038,57.567 172.197,57.97 172.104,58.253C171.665,59 171.318,59.464 170.972,59.928C165.821,59.928 160.67,59.928 155.091,59.928C155.021,58.65 154.95,57.352 154.879,56.055C154.537,55.926 154.194,55.797 153.852,55.668C152.989,57.037 152.125,58.407 150.888,60.37C148.759,59.729 146.448,59.035 143.784,58.234C141.427,58.616 138.421,59.472 135.401,59.53C122.234,59.782 109.063,59.841 95.893,59.852C94.368,59.854 92.843,59.122 91.122,57.967C90.17,52.774 89.414,48.344 88.658,43.913M117.766,48.301C117.766,48.301 117.74,48.316 117.759,48.96C119.263,51.422 120.767,53.885 122.271,56.347C122.752,56.317 123.233,56.286 123.714,56.256C123.514,52.641 130.479,53.53 128.434,48.229C128.958,46.82 129.481,45.41 130.512,43.401C130.339,40.864 130.166,38.327 129.994,35.791C129.3,35.741 128.607,35.691 127.914,35.641C126.427,38.724 124.965,41.82 123.406,44.866C123.275,45.122 122.485,45.042 121.292,44.98C119.943,41.783 118.594,38.586 117.015,34.844C113.638,38.749 113.045,41.83 115.527,45.844C116.262,46.665 116.998,47.487 117.766,48.301M148.651,41.368C145.828,41.683 143.005,41.998 140.308,42.3C141.41,44.427 142.287,46.118 142.86,47.224C146.114,45.591 149.507,43.888 154.204,41.53C151.585,41.369 150.52,41.303 148.651,41.368M103.457,54.946C104.876,54.946 106.295,54.946 107.939,54.946C106.27,51.957 104.778,49.285 103.69,47.336C102.041,49.738 100.325,52.237 98.453,54.963C99.776,54.963 101.191,54.963 103.457,54.946z"/><path fill="#e5e5e5" d="M67.488,92.541C70.508,90.745 73.17,89.654 74.355,93.963C76.161,92.992 77.877,91.516 79.807,91.14C84.301,90.266 85.497,92.054 85.03,96.582C84.579,100.961 84.932,105.423 84.932,109.635C76.201,112.07 74.354,111.058 75.666,105.18C72.793,106.817 69.904,108.462 66.179,110.584C65.229,104.208 65.729,98.528 67.488,92.541z"/><path fill="#f0f0f0" d="M79.971,65.933C82.25,65.933 84.528,65.933 87.005,65.933C86.662,73.193 86.33,80.235 85.97,87.854C83.163,87.694 80.521,87.544 76.391,87.308C74.811,87.464 71.654,87.774 68.663,88.068C65.679,80.357 71.331,79.055 75.734,76.442C73.67,76.734 71.605,77.026 68.774,77.426C69.136,74.21 69.444,71.477 70.231,68.447C71.243,73.33 76.739,67.639 77.481,71.426C79.56,70.012 81.344,68.799 83.057,67.634C82.055,67.082 81.013,66.507 79.971,65.933z"/><path fill="#e6e6e6" d="M89.111,57.954C88.675,58.632 88.229,59.903 87.804,59.896C83.057,59.823 78.314,59.441 73.568,59.381C71.182,59.351 68.79,59.808 65.753,59.7C65.394,58.894 65.682,58.435 66.359,57.901C69.794,57.112 72.812,55.995 75.894,55.777C80.512,55.451 80.531,55.719 81.904,50.009C81.867,50.034 81.808,50.101 82.185,50.375C83.364,49.735 85.028,48.493 84.826,47.964C83.706,45.033 83.812,40.869 79.005,40.91C74.621,40.946 70.238,40.917 66.089,40.917C66.089,46.807 66.089,52.435 65.772,58.16C65.484,58.865 65.512,59.474 65.541,60.083C64.728,58.994 63.275,57.94 63.212,56.809C62.953,52.172 63.406,47.488 63.042,42.865C62.697,38.48 65.053,37.309 68.59,37.243C74.364,37.136 80.142,37.214 86.371,37.214C86.601,39.234 86.821,41.168 87.035,43.952C87.723,49.187 88.417,53.571 89.111,57.954z"/><path fill="#eaeaea" d="M63.407,117.59C64.089,116.122 64.522,114.66 65.467,114.153C68.397,112.581 71.275,115.413 74.634,114.301C77.679,113.293 81.321,114.088 84.614,114.088C84.177,119.525 83.813,124.06 83.403,129.157C80.495,128.724 77.841,128.329 74.345,127.808C74.354,127.83 73.936,126.856 73.542,125.939C70.114,127.679 66.905,129.308 62.807,131.388C63.023,126.457 63.208,122.245 63.407,117.59z"/><path fill="#ebecec" d="M59.286,139.48C59.307,136.14 60.659,135.896 63.519,135.436C67.737,134.758 71.698,137.657 76.029,135.299C78.111,134.165 81.32,135.104 83.437,135.104C83.094,141.213 82.808,146.331 82.521,151.449C82.263,151.581 82.004,151.713 81.745,151.845C80.924,149.995 80.103,148.145 78.793,145.194C75.922,146.394 72.733,147.729 69.192,149.21C66.584,143.961 62.577,146.465 58.032,149.761C58.523,145.865 58.898,142.883 59.286,139.48z"/><path fill="#141414" d="M172,56.179C166.736,56.452 161.867,56.01 160.447,48.739C161.309,47.697 162.743,45.963 164.448,43.9C163.309,43.412 162.247,42.957 161.184,42.502C161.186,42.008 161.188,41.514 161.19,41.02C164.889,41.02 168.604,40.816 172.281,41.097C174.48,41.265 176.851,37.759 178.95,42.096C179.025,46.559 179.013,50.287 178.978,54.354C178.834,55.61 178.713,56.528 178.592,57.445C178.944,57.478 179.295,57.511 179.647,57.543C179.73,56.254 179.813,54.965 179.845,53.388C179.9,52.731 180.007,52.362 180.113,51.994C184.742,52.183 182.903,55.784 182.797,57.91C182.743,58.993 180.674,60.661 179.345,60.848C176.806,61.204 174.145,60.689 171.253,60.232C171.318,59.464 171.665,59 172.277,58.156C172.76,57.609 172.907,57.395 173.322,57.044C174.209,56.809 174.759,56.662 176.563,56.179C174.155,56.179 173.077,56.179 172,56.179M166.352,45.546C161.768,49.207 166.091,50.703 168.095,53.129C168.749,51.765 169.223,50.676 169.783,49.633C170.634,48.05 171.546,46.5 172.431,44.935C170.598,44.969 168.764,45.002 166.352,45.546z"/><path fill="#edeeee" d="M166.885,68.471C166.98,68.958 166.912,69.734 167.192,69.891C173.536,73.454 171.574,79.565 172.009,84.991C172.098,86.112 173.185,87.152 173.812,88.23C173.561,88.652 173.31,89.074 173.058,89.496C170.995,88.241 168.932,86.987 166.883,85.74C165.176,86.705 162.695,88.107 159.31,90.02C158.682,81.261 158.148,73.827 157.561,65.645C159.258,66.213 160.222,66.535 161.736,67.226C162.903,68.381 163.521,69.166 164.274,70.361C165.001,71.159 165.591,71.548 166.181,71.938C166.416,70.782 166.651,69.626 166.885,68.471z"/><path fill="#e3e4e4" d="M30.188,83.109C29.949,81.778 29.563,80.778 29.176,79.778C28.71,79.859 28.243,79.94 27.776,80.021C28.791,74.745 29.807,69.469 30.823,64.194C31.185,64.207 31.547,64.22 31.908,64.232C31.908,66.981 31.908,69.73 31.908,73.776C33.279,71.77 33.862,70.918 34.782,69.572C34.782,74.815 34.782,79.439 34.782,84.479C35.371,84.6 36.573,84.849 38.23,85.191C33.25,91.312 28.444,97.221 23.637,103.13C23.472,95.505 24.345,88.579 30.188,83.109z"/><path fill="#f3f3f3" d="M93.075,124.728C93.048,125.79 93.022,126.852 92.643,128.46C91.914,128.993 91.536,128.979 91.159,128.965C91.435,123.297 91.71,117.629 92.297,111.692C93.387,111.405 94.627,111.694 94.872,111.323C97.074,107.997 96.443,100.942 93.816,97.704C94.118,94.377 94.419,91.05 95.137,87.254C95.665,84.479 95.778,82.175 95.89,79.871C96.002,77.948 96.115,76.024 96.246,73.787C98.898,76.416 98.038,141.7 94.783,147.584C94.783,141.073 94.783,134.562 94.956,127.231C94.702,124.89 94.274,123.368 93.846,121.847C93.589,121.906 93.332,121.965 93.075,122.024C93.075,122.926 93.075,123.827 93.075,124.728z"/><path fill="#e4e5e4" d="M151.994,128.016C151.474,129.227 150.545,130.425 150.504,131.652C150.335,136.744 150.433,141.845 149.452,146.976C147.571,129.332 147.109,111.632 147.347,93.459C149.199,92.335 150.61,91.668 152.021,91.002C152.359,96.393 152.697,101.783 152.57,107.695C151.733,111.559 151.134,114.901 151.104,118.248C151.092,119.497 152.408,120.758 153.119,122.014C153.221,122.439 153.323,122.865 153.006,123.829C152.39,125.584 152.192,126.8 151.994,128.016z"/><path fill="#ebecec" d="M178.647,162.391C178.307,163.21 177.968,164.03 177.629,164.849C176.297,164.525 174.964,164.202 173.634,163.88C178.082,150.894 187.878,148.655 199.479,158.736C192.72,159.614 187.633,166.936 179.711,161.098C178.445,160.8 177.773,160.81 177.1,160.82C177.616,161.343 178.131,161.867 178.647,162.391z"/><path fill="#ecedec" d="M171.332,146.818C168.28,147.887 165.599,148.898 162.668,150.004C162.332,145.993 161.926,141.144 161.405,134.928C165.014,134.928 169.083,134.444 172.913,135.188C174.275,135.453 175.769,138.646 175.928,140.605C176.142,143.246 175.124,145.986 174.654,148.575C173.743,148.015 172.722,147.387 171.332,146.818z"/><path fill="#e8e8e8" d="M40.186,92.015C43.702,90.455 46.99,89.196 51.066,87.635C48.181,93.743 45.952,98.462 44.213,102.144C41.39,104.985 39.174,107.327 36.825,109.527C35.823,110.466 34.545,111.109 32.766,112.308C33.531,104.435 35.12,97.801 40.186,92.015z"/><path fill="#f6f7f6" d="M126.989,72.735C117.091,72.734 107.692,72.734 98.293,72.734C98.215,72.249 98.136,71.763 98.058,71.277C99.063,70.835 100.038,70.11 101.079,69.996C108.51,69.18 115.995,67.752 123.374,68.15C126.033,68.293 128.51,68.763 131.251,68.122C133.045,67.702 136.103,65.999 136.231,70.337C136.238,70.592 138.588,70.899 139.86,70.968C141.813,71.075 143.777,70.996 145.736,70.996C145.761,71.576 145.786,72.156 145.812,72.736C139.703,72.736 133.595,72.736 126.989,72.735z"/><path fill="#eaeaea" d="M50.711,131.365C52.212,132.101 53.41,132.649 54.122,132.974C50.71,137.589 47.302,142.2 44.164,146.444C41.472,145.683 39.07,145.004 36.365,144.239C35.769,145.329 35.172,146.421 34.552,147.555C34.22,147.29 33.809,147.105 33.819,146.948C34.175,141.359 43.235,131.182 48.586,130.427C49.147,130.348 49.799,130.911 50.711,131.365z"/><path fill="#e3e4e4" d="M43.875,64.648C39.375,64.193 35.236,63.596 31.096,62.999C31.068,62.277 31.04,61.554 31.012,60.832C35.13,60.209 39.289,59.774 43.346,58.876C45.06,58.497 46.948,57.481 48.075,56.169C50.593,53.236 52.683,49.936 55.137,46.521C55.985,50.591 57.664,54.311 53.625,57.271C50.439,59.607 47.361,62.089 43.875,64.648z"/><path fill="#e8e8e8" d="M161.066,121.927C161.05,120.788 161.063,120.122 161.024,119.46C160.684,113.8 163.19,111.711 168.704,113.503C169.781,113.853 170.961,115.842 170.996,117.105C171.144,122.537 170.546,127.787 164.47,130.257C163.874,130.499 163.53,131.362 162.057,133.195C161.648,128.721 161.359,125.562 161.066,121.927z"/><path fill="#ecedec" d="M168.444,103.762C166.454,106.293 164.465,108.825 162.475,111.356C161.901,111.162 161.327,110.967 160.753,110.772C160.252,105.022 159.651,99.276 159.384,93.514C159.353,92.836 161.71,91.267 162.02,91.48C163.942,92.8 168.351,90.209 167.991,95.99C168.155,99.171 168.299,101.467 168.444,103.762z"/><path fill="#d7d8d8" d="M168.753,103.535C168.299,101.467 168.155,99.171 168.026,96.39C169.368,94.544 170.694,93.184 172.52,91.311C177.508,91.308 178.004,91.626 178.527,96.065C177.234,95.423 176.065,94.841 174.233,93.93C173.654,97.283 173.154,100.179 172.383,104.649C175.133,102.873 176.627,101.908 178.745,100.54C179.029,103.404 179.287,106.006 179.545,108.609C179.209,108.696 178.874,108.784 178.538,108.871C178.198,107.854 177.857,106.836 177.393,105.451C175.357,106.938 173.394,108.372 171.403,109.827C170.647,107.722 169.855,105.516 168.753,103.535z"/><path fill="#e3e3e3" d="M61.084,35.423C59.316,35.539 57.807,35.355 55.997,35.135C62.854,27.2 74.837,24.885 82.593,30.163C79.626,30.018 77.32,29.905 75.614,29.821C74.778,31.105 74.339,32.619 73.583,32.798C69.547,33.757 65.432,34.383 61.084,35.423z"/><path fill="#ebecec" d="M63.283,159.432C65.741,160.708 67.908,161.712 70.416,162.876C61.846,168.537 57.136,168.535 52.214,162.195C56.119,161.096 59.555,160.128 63.283,159.432z"/><path fill="#eaeaea" d="M53.252,69.675C52.12,73.569 50.654,77.136 49.08,80.968C48.511,80.503 47.864,79.974 46.859,79.153C46.478,80.859 46.14,82.366 45.738,84.168C42.04,77.204 44.889,66.439 50.694,65.991C50.418,67.187 50.167,68.275 49.841,69.685C51.096,69.548 52.008,69.447 53.252,69.675z"/><path fill="#e3e3e3" d="M212.201,144.879C213.281,145.345 214.011,145.68 215.44,146.333C212.191,147.679 209.586,149.491 206.869,149.68C204.098,149.873 201.216,148.471 198.35,147.759C199.681,142.054 204.032,140.043 209.195,143.404C210.022,143.942 210.963,144.304 212.201,144.879z"/><path fill="#dcdcdc" d="M191.058,68.936C191.721,69.238 192.384,69.54 194.163,70.351C192.881,67.679 192.079,66.009 191.278,64.338C191.454,64.086 191.63,63.834 191.807,63.582C193.235,64.811 195.67,65.869 195.912,67.299C196.845,72.813 197.077,78.445 197.571,84.033C196.973,84.162 196.376,84.291 195.779,84.42C194.108,79.674 192.436,74.927 190.757,69.708C190.749,69.234 191.058,68.936 191.058,68.936z"/><path fill="#e3e4e4" d="M190.998,122.036C192.733,122.149 194.475,122.178 195.603,123.025C197.267,124.275 198.494,126.108 200.227,128.052C198.258,127.929 196.806,127.839 194.299,127.683C195.995,129.267 196.952,130.161 197.028,130.233C195.958,133.025 195.15,135.134 194.418,137.044C192.835,133.086 191.056,128.637 189.137,123.836C189.29,123.691 190.011,123.004 190.998,122.036z"/><path fill="#e6e6e6" d="M44.309,154.76C41.607,155.824 39.283,156.835 35.812,158.344C34.262,157.729 31.294,156.55 27.494,155.042C31.284,153.426 33.926,152.208 36.636,151.167C40.427,149.71 43.358,150.447 44.309,154.76z"/><path fill="#e8e8e8" d="M196.533,88.489C197.488,91.099 198.195,93.381 199.071,95.597C200.483,99.171 202.063,102.68 203.459,106.26C204.222,108.217 204.751,110.265 205.666,113.156C203.085,111.734 201.357,111.848 201.245,108.535C201.173,106.39 197.431,104.257 195.135,102.359C194.322,101.688 192.919,101.731 191.81,100.424C193.628,100.175 195.445,99.926 198.409,99.52C196.935,95.296 195.552,91.332 193.793,86.289C195.172,87.279 195.766,87.706 196.533,88.489z"/><path fill="#dfe0e0" d="M180.217,113.855C181.018,114.405 181.452,114.816 182.56,115.867C180.239,115.867 178.758,115.867 176.827,115.867C177.123,119.358 177.38,122.389 177.665,125.742C176.554,126.442 175.234,127.273 173.885,128.124C170.363,119.643 173.06,113.297 180.217,113.855z"/><path fill="#dfe0e0" d="M52.341,107.362C53.492,106.461 54.388,105.805 55.431,105.04C56.136,106.637 56.715,107.947 57.059,108.727C55.64,111.889 54.42,114.609 52.911,117.972C52.036,116.338 51.48,115.3 50.797,114.025C49.077,114.798 47.383,115.56 45.689,116.323C45.433,116.064 45.177,115.805 44.922,115.546C47.31,112.899 49.699,110.252 52.341,107.362z"/><path fill="#1a1a19" d="M79.7,65.63C81.013,66.507 82.055,67.082 83.057,67.634C81.344,68.799 79.56,70.012 77.481,71.426C76.739,67.639 71.243,73.33 70.347,68.052C71.226,66.956 72.341,65.432 73.743,65.094C75.516,64.666 77.523,65.205 79.7,65.63z"/><path fill="#f3f3f3" d="M152.106,90.541C150.61,91.668 149.199,92.335 147.435,92.997C147.081,87.117 147.081,81.24 147.081,75.363C147.538,75.357 147.995,75.352 148.452,75.346C148.452,80.094 148.452,84.842 148.452,89.589C148.974,89.57 149.496,89.55 150.018,89.53C150.018,84.722 150.018,79.913 150.018,75.105C150.664,75.074 151.309,75.044 151.955,75.013C152.034,80.036 152.113,85.058 152.106,90.541z"/><path fill="#cccbcc" d="M93.437,97.836C96.443,100.942 97.074,107.997 94.872,111.323C94.627,111.694 93.387,111.405 92.362,111.233C92.43,106.686 92.744,102.327 93.437,97.836z"/><path fill="#959594" d="M95.522,79.695C95.778,82.175 95.665,84.479 95.137,86.902C93.895,82.147 93.068,77.273 92.242,72.4C92.95,72.299 93.657,72.199 94.365,72.098C94.628,74.572 94.89,77.045 95.522,79.695z"/><path fill="#3a3a3b" d="M89.558,57.968C88.417,53.571 87.723,49.187 87.098,44.377C87.503,43.948 87.834,43.915 88.41,43.882C89.414,48.344 90.17,52.774 90.911,57.619C90.599,58.016 90.302,57.998 89.558,57.968z"/><path fill="#f3f3f3" d="M153.21,121.555C152.408,120.758 151.092,119.497 151.104,118.248C151.134,114.901 151.733,111.559 152.488,108.113C153.014,112.373 153.158,116.735 153.21,121.555z"/><path fill="#1b1b1b" d="M164.138,69.952C163.521,69.166 162.903,68.381 162.145,67.286C164.184,64.376 170.25,64.026 173.13,66.664C172.999,67.001 172.966,67.033 172.966,67.033C170.549,67.108 168.132,67.183 165.341,67.766C164.691,68.834 164.415,69.393 164.138,69.952z"/><path fill="#d7d8d8" d="M177.544,136.585C181.469,133.317 184.149,133.604 186.497,137.979C183.284,137.579 180.545,137.239 177.544,136.585z"/><path fill="#9d9e9f" d="M153.766,129.89C153.766,134.122 153.766,138.354 153.766,142.586C153.404,142.637 153.041,142.688 152.678,142.738C152.425,138.782 152.173,134.825 152.281,130.49C153.017,130.037 153.391,129.964 153.766,129.89z"/><path fill="#dfe0e0" d="M179.001,54.015C179.013,50.287 179.025,46.559 179.097,42.408C179.156,41.986 179.501,41.996 179.673,41.991C179.869,45.044 179.893,48.101 180.015,51.576C180.007,52.362 179.9,52.731 179.606,53.432C179.417,53.764 179.001,54.015 179.001,54.015z"/><path fill="#f3f3f3" d="M153.782,129.508C153.391,129.964 153.017,130.037 152.366,130.031C152.063,129.521 152.035,129.092 152.001,128.339C152.192,126.8 152.39,125.584 152.882,124.141C153.384,125.652 153.591,127.388 153.782,129.508z"/><path fill="#cccbcc" d="M91.074,129.383C91.536,128.979 91.914,128.993 92.573,128.988C92.856,130.608 92.856,132.248 92.856,133.887C92.363,133.931 91.87,133.974 91.377,134.017C91.248,132.611 91.119,131.206 91.074,129.383z"/><path fill="#1b1b1b" d="M173.016,66.985C173.813,68.286 174.593,69.602 175.373,70.919C174.741,71.126 174.109,71.334 173.476,71.541C173.312,70.299 173.148,69.057 172.975,67.424C172.966,67.033 172.999,67.001 173.016,66.985z"/><path fill="#3a3a3b" d="M164.274,70.361C164.415,69.393 164.691,68.834 164.993,67.936C165.604,67.751 166.19,67.904 166.83,68.264C166.651,69.626 166.416,70.782 166.181,71.938C165.591,71.548 165.001,71.159 164.274,70.361z"/><path fill="#cccbcc" d="M93.676,125.225C93.075,123.827 93.075,122.926 93.075,122.024C93.332,121.965 93.589,121.906 93.846,121.847C94.274,123.368 94.702,124.89 95.025,126.776C94.706,126.667 94.491,126.194 93.676,125.225z"/><path fill="#121211" d="M65.532,60.059C65.512,59.474 65.484,58.865 65.742,58.138C66.029,58.02 65.971,57.975 65.971,57.975C65.682,58.435 65.394,58.894 65.304,59.719C65.502,60.084 65.522,60.035 65.532,60.059z"/><path fill="#dcdcdc" d="M190.58,69.367C190.342,69.116 190.273,68.733 190.204,68.349C190.441,68.369 190.678,68.389 190.986,68.672C191.058,68.936 190.749,69.234 190.58,69.367z"/><path fill="#e4e5e4" d="M108.173,24.365C107.332,25.306 106.226,26.057 105.119,26.809C104.984,26.563 104.849,26.318 104.714,26.073C105.778,25.44 106.843,24.807 108.173,24.365z"/><path fill="#090909" d="M110.618,21.314C111.891,21.638 112.69,22.009 113.489,22.381C113.253,22.751 113.017,23.122 112.781,23.493C111.903,22.782 111.024,22.071 110.618,21.314z"/><path fill="#090909" d="M102.697,27.619C102.927,27.588 103.346,27.795 103.533,28.15C103.163,28.152 103.024,28.005 102.697,27.619z"/><path fill="#1a1a19" d="M122.002,45.117C122.485,45.042 123.275,45.122 123.406,44.866C124.965,41.82 126.427,38.724 127.914,35.641C128.607,35.691 129.3,35.741 129.994,35.791C130.166,38.327 130.339,40.864 129.932,43.558C126.416,42.091 125.568,44.193 125.232,46.333C125.151,46.851 126.856,47.649 127.74,48.319C130.479,53.53 123.514,52.641 123.714,56.256C123.233,56.286 122.752,56.317 122.271,56.347C120.767,53.885 119.263,51.422 118.097,48.561C119.541,48.392 120.647,48.621 122.002,48.901C122.002,47.588 122.002,46.353 122.002,45.117z"/><path fill="#1c1c1c" d="M121.647,45.049C122.002,46.353 122.002,47.588 122.002,48.901C120.647,48.621 119.541,48.392 118.087,48.239C117.74,48.316 117.766,48.301 117.817,47.905C117.099,46.719 116.329,45.929 115.56,45.139C113.045,41.83 113.638,38.749 117.015,34.844C118.594,38.586 119.943,41.783 121.647,45.049z"/><path fill="#2b2b2b" d="M149.053,41.303C150.52,41.303 151.585,41.369 154.204,41.53C149.507,43.888 146.114,45.591 142.86,47.224C142.287,46.118 141.41,44.427 140.308,42.3C143.005,41.998 145.828,41.683 149.053,41.303z"/><path fill="#1c1c1c" d="M103.032,54.955C101.191,54.963 99.776,54.963 98.453,54.963C100.325,52.237 102.041,49.738 103.69,47.336C104.778,49.285 106.27,51.957 107.939,54.946C106.295,54.946 104.876,54.946 103.032,54.955z"/><path fill="#1c1c1c" d="M128.087,48.274C126.856,47.649 125.151,46.851 125.232,46.333C125.568,44.193 126.416,42.091 129.678,43.858C129.481,45.41 128.958,46.82 128.087,48.274z"/><path fill="#1a1a19" d="M115.543,45.491C116.329,45.929 117.099,46.719 117.801,47.908C116.998,47.487 116.262,46.665 115.543,45.491z"/><path fill="#efefef" d="M172.011,56.417C173.077,56.179 174.155,56.179 176.563,56.179C174.759,56.662 174.209,56.809 173.089,56.985C172.518,57.013 172.052,57.134 172.052,57.134C172.052,57.134 172.022,56.656 172.011,56.417z"/><path fill="#090909" d="M172.045,57.35C172.052,57.134 172.518,57.013 172.751,57.072C172.907,57.395 172.76,57.609 172.37,57.873C172.197,57.97 172.038,57.567 172.045,57.35z"/><path fill="#121211" d="M81.941,49.985C80.531,55.719 80.512,55.451 75.894,55.777C72.812,55.995 69.794,57.112 66.359,57.901C65.971,57.975 66.029,58.02 66.059,58.041C66.089,52.435 66.089,46.807 66.089,40.917C70.238,40.917 74.621,40.946 79.005,40.91C83.812,40.869 83.706,45.033 84.826,47.964C85.028,48.493 83.364,49.735 82.273,49.981C80.046,47.334 78.107,45.355 76.459,43.673C74.243,45.742 72.818,47.072 72.429,47.436C74.085,48.573 75.736,49.708 77.388,50.843C76.706,51.151 76.024,51.459 75.342,51.767C77.542,51.173 79.741,50.579 81.941,49.985z"/><path fill="#d7d8d8" d="M166.641,45.29C168.764,45.002 170.598,44.969 172.431,44.935C171.546,46.5 170.634,48.05 169.783,49.633C169.223,50.676 168.749,51.765 168.095,53.129C166.091,50.703 161.768,49.207 166.641,45.29z"/><path fill="#090909" d="M178.978,54.354C179.001,54.015 179.417,53.764 179.657,53.72C179.813,54.965 179.73,56.254 179.647,57.543C179.295,57.511 178.944,57.478 178.592,57.445C178.713,56.528 178.834,55.61 178.978,54.354z"/><path fill="#090909" d="M178.889,162.104C178.131,161.867 177.616,161.343 177.1,160.82C177.773,160.81 178.445,160.8 179.354,161.007C179.438,161.421 179.284,161.619 178.889,162.104z"/><path fill="#e3e3e3" d="M81.904,50.009C79.741,50.579 77.542,51.173 75.342,51.767C76.024,51.459 76.706,51.151 77.388,50.843C75.736,49.708 74.085,48.573 72.429,47.436C72.818,47.072 74.243,45.742 76.459,43.673C78.107,45.355 80.046,47.334 81.897,49.707C81.808,50.101 81.867,50.034 81.904,50.009z"/></svg>