<svg xmlns="http://www.w3.org/2000/svg" viewBox="0 0 199 105" xml:space="preserve"><path fill="#090909" d="M102.967 10.986c6.849-2.439 9.414-.433 8.284 6.573-1.358 8.422-2.799 16.83-4.204 25.245l2.196-.526 8.44 8.01c.626-8.255-5.227-18.582 8.84-19.19l2.84 4.9c2.693-2.33 3.835-10.168 9.213-2.75 2.682-1.34 5.261-5.464 8.066-.36 2.258-1.98 4.36-4.671 6.541.017.283.609 3.058.52 4.439.051 2.246-.763 4.295-2.109 7.392-3.706 0 12.106 0 22.476.053 33.755.036 10.405-.95 19.98 2.003 29.27.948-7.574.884-15.106.994-22.636.028-1.858.624-3.708.96-5.562.786.437 1.718.728 2.331 1.338 1.484 1.478 2.536 3.947 4.262 4.525 7.536 2.523 6.75 8.89 7.406 14.663.094.823.039 1.665.028 2.498-.061 4.868.908 8.876 6.861 9.564 1.784.206 3.467 1.28 6.682 2.537-3.52.844-5.584 1.767-7.65 1.772-48.302.112-96.603.138-144.904.144-10.497.002-20.994-.124-31.49-.223-2.102-.02-4.202-.182-6.302-.28l-.349-1.45c3.047-.902 6.046-2.281 9.152-2.593 4.767-.478 6.137-2.94 6.034-7.309-.423-17.919-.708-35.84-1.038-53.762-.024-1.293-.004-2.586-.004-4.211h8.366l1.534 4.62 1.04.012 1.297-5.053c2.854.91 7.819-3.377 8.17 5.308l10.139-5.591c8.428 2.447 8.428 2.447 9.749 16.926 1.35-1.088 3.27-1.897 3.304-2.78.266-6.806 1.71-14.158-.39-20.244-1.291-3.742-1.981-7.223-2.242-10.957-.24-3.413 1.089-4.794 4.874-3.9 2.173.513 4.955-1.165 6.972-.457 5.102 1.793 10.031 1.204 15.2.932 2.427-.127 4.714 2.148 7.424-.509.725-.71 3.74.916 5.916 1.786a10.3 10.3 0 0 1-2.5 2.872c-1.248.996-3.36 2.935-3.78 2.633-4.468-3.22-8.946 1.813-13.334-.182-.28-.128-1.34 1.07-1.726 1.814-.104.201.934 1.446 1.455 1.45 6.348.059 12.703.093 19.04-.205.904-.043 2.241-1.774 2.465-2.905.373-1.88.007-3.908-.049-5.874M31.856 86.827c.116.137.232.274-.035 1.029l-2.822 3.583c1.538.685 3.055 1.895 4.618 1.958 5.32.213 10.663.148 15.983-.096 1.529-.07 3.013-1.105 4.518-1.698l-.247-1.54-10.342-1.217 9.326-3.343V68.387l-6.112-1.205c2.504-1.24 5.804-1.99 5.94-3.122.298-2.478-1.008-5.148-1.443-6.884l.975-10.167c-7.174 0-13.489.01-19.803-.004-2.585-.005-3.977.896-3.864 3.837.187 4.901.05 9.815.05 14.447l6.563 1.433-.05.925-4.944 1.646c-.363 4.953-1.188 9.939 6.145 11.16-2.34.63-4.164.713-5.429 1.597-.966.674-1.224 2.362-1.797 3.598.81.254 1.622.507 2.77 1.18m55.332-7.066c8.079-4.66 14.372-1.17 14.865 8.153.11 2.067.69 4.109 1.143 6.673 5.436-2.972 12.013 1.928 16.563-3.97l-5.893-2.01 5.921-1.272c.096-7.724.09-7.703-6.687-9.74-.647-.195-1.156-.851-1.956-1.468 9.944-.375 9.944-.375 8.588-7.778H62.267c.345 6.837.536 13.297 1.053 19.73.25 3.129 1.876 5.155 5.548 4.966 3.648-.187 7.32-.06 10.976.074 2.803.102 4.085-.686 4.313-3.886.214-2.997 1.666-5.906 3.031-9.472m65.398-2.58c4.412-2.099 1.551-5.14 1.397-7.983l-6.06-.455c.897-1.534 2.217-1.907 3.259-2.664 1.045-.76 2.575-1.9 2.577-2.876.008-5.253-.393-10.506-.673-16.151-7.292 0-14.238-.101-21.174.117-.96.03-2.693 1.66-2.67 2.513.13 5.078.67 10.145 1.07 15.176l5.221.328c-4.008.714-5.245 3.008-5.176 6.748.115 6.255-.275 12.526.025 18.767.055 1.138 2.37 3.06 3.678 3.092 6.291.149 12.596-.177 18.889-.492.652-.032 1.252-1.106 2.013-1.827l-7.331-2.034.2-1.14 6.535-.52v-7.483l-6.443-.838.109-1.117c1.25-.333 2.499-.667 4.554-1.161m-72.04-12.81c10.994.153 21.989.208 32.978.495 6.94.181 7.788-.826 5.34-8.528-2.052.507-4.168 1.097-6.314 1.548-5.65 1.187-5.252-3.403-6.01-6.642-6.068-1.017-3.989 3.849-4.715 6.344h-6.503l-.81-7.867c-2.38 1.614-5.257 2.64-5.285 3.739-.133 5.341-3.139 4.907-5.665 4.43l-4.618-7.32-1.699.524-1.852 6.99h-6.22l-1.02-6.996c-6.499 2.507-7.788 5.45-5.804 13.282 5.628 0 11.422 0 18.198.002m-7.27-23.68 4.457-1.78c2.752 2.296 5.838 4.115 9.046 4.36 1.294.099 2.852-3.243 4.128-4.819 1.256 2.847 3.495 3.74 4.614 1.264 2.017-4.461 3.23-9.287 5.012-14.66-9.544 0-17.99-.083-26.427.112-.963.023-2.721 1.633-2.692 2.457.148 4.206.762 8.397 1.863 13.066m-3.98-20.7c5.134-.364 5.134-.364 5.296-4.092h-6.987c.264 1.378.513 2.682 1.691 4.091"/><path fill="#e4e4e4" d="M168.813 63.803c-.125 2.128-.721 3.978-.749 5.836-.11 7.53-.046 15.062-.994 22.637-2.953-9.292-1.967-18.866-1.904-28.833 1.176-.285 2.307-.1 3.647.36"/><path fill="#e1e1e1" d="M102.709 10.946c.314 2.006.68 4.033.307 5.914-.224 1.13-1.561 2.862-2.465 2.905-6.337.298-12.692.264-19.04.206-.52-.005-1.56-1.25-1.455-1.45.385-.744 1.445-1.943 1.726-1.815 4.388 1.995 8.866-3.038 13.334.182.42.302 2.532-1.637 3.78-2.633.968-.772 1.813-1.698 2.878-2.892.336-.377.506-.417.935-.417"/><path fill="#f9f9f8" d="M86.959 80.071c-1.136 3.257-2.588 6.166-2.802 9.163-.228 3.2-1.51 3.988-4.313 3.886-3.657-.133-7.328-.261-10.976-.074-3.672.19-5.297-1.837-5.548-4.965-.517-6.434-.708-12.894-1.053-19.731 19.417 0 38.441 0 57.466.002 1.355 7.401 1.355 7.401-8.589 7.776.8.617 1.309 1.273 1.956 1.467 6.777 2.038 6.783 2.017 6.687 9.74l-5.92 1.273 5.892 2.01c-4.55 5.898-11.127.998-16.563 3.97-.453-2.564-1.033-4.606-1.143-6.673-.493-9.323-6.786-12.814-15.094-7.844"/><path fill="#f7f8f7" d="M152.183 77.263c-1.652.413-2.901.747-4.151 1.08l-.109 1.117 6.443.838v7.483l-6.535.52-.2 1.14 7.33 2.034c-.76.72-1.36 1.795-2.012 1.827-6.293.315-12.598.64-18.889.492-1.308-.031-3.623-1.954-3.678-3.092-.3-6.24.09-12.512-.025-18.767-.069-3.74 1.168-6.034 5.176-6.748l-5.221-.328c-.4-5.031-.94-10.098-1.07-15.176-.023-.853 1.71-2.483 2.67-2.513 6.936-.218 13.882-.117 21.174-.117.28 5.645.681 10.898.673 16.15-.002.976-1.532 2.117-2.577 2.877-1.042.757-2.362 1.13-3.259 2.664l6.06.455c.154 2.842 3.015 5.884-1.8 8.064m-9.244-16.606c.65-1.924 1.606-3.815 1.816-5.786.102-.95-.99-2.561-1.924-2.947-1.029-.425-3.418-.11-3.611.443-.74 2.121-1.2 4.505-.97 6.708.076.733 2.532 1.219 4.69 1.582"/><path fill="#f7f7f7" d="m31.519 86.408-2.433-.76c.573-1.236.831-2.924 1.797-3.598 1.265-.884 3.09-.966 5.43-1.598-7.334-1.22-6.51-6.206-6.146-11.159l4.943-1.646.051-.925-6.562-1.433c0-4.632.136-9.546-.051-14.447-.113-2.941 1.279-3.842 3.864-3.837 6.314.013 12.629.004 19.803.004l-.975 10.167c.435 1.736 1.741 4.406 1.443 6.884-.136 1.131-3.436 1.882-5.94 3.122l6.112 1.205v17.116c-2.57.92-5.373 1.926-9.326 3.343l10.342 1.216.247 1.541c-1.505.593-2.99 1.627-4.518 1.698-5.32.244-10.663.309-15.983.096-1.563-.063-3.08-1.273-4.618-1.958.94-1.194 1.881-2.389 3.317-3.832a21 21 0 0 1 1.998-.708l-.125-.696zm11.69-30.902c-.538-1.335-.865-2.831-1.71-3.931-.379-.494-2.588-.367-2.617-.23-.526 2.434-.844 4.914-1.207 7.383l1.645 1.06c1.28-1.13 2.562-2.258 3.889-4.282"/><path fill="#f4f5f5" d="M80.056 64.372 62.35 64.37c-1.984-7.831-.695-10.775 5.803-13.282l1.022 6.995h6.22c.661-2.5 1.256-4.744 1.851-6.989l1.699-.524 4.618 7.32c2.526.477 5.532.911 5.665-4.43.028-1.098 2.905-2.125 5.286-3.739l.81 7.867h6.502c.726-2.495-1.353-7.361 4.715-6.344.758 3.24.36 7.829 6.01 6.642 2.146-.451 4.262-1.04 6.315-1.548 2.447 7.702 1.6 8.709-5.34 8.528-10.99-.287-21.985-.342-33.469-.495"/><path fill="#f5f5f4" d="M72.953 40.456c-.776-4.432-1.39-8.623-1.538-12.83-.03-.823 1.73-2.433 2.692-2.456 8.438-.195 16.883-.113 26.427-.113-1.781 5.374-2.995 10.2-5.012 14.661-1.12 2.476-3.358 1.583-4.614-1.264-1.276 1.576-2.834 4.918-4.128 4.819-3.208-.245-6.294-2.064-9.046-4.36-1.486.594-2.97 1.187-4.781 1.543"/><path fill="#f1f1f0" d="M68.834 19.94c-.714-1.357-.963-2.66-1.227-4.04h6.987c-.162 3.73-.162 3.73-5.76 4.04"/><path fill="#0e0e0e" d="M142.545 60.775c-1.763-.481-4.22-.967-4.295-1.7-.23-2.203.23-4.587.97-6.708.193-.553 2.582-.868 3.611-.443.934.386 2.026 1.996 1.924 2.947-.21 1.97-1.166 3.862-2.21 5.904"/><path fill="#0b0c0b" d="M43.186 55.954c-1.304 1.576-2.585 2.704-3.866 3.833l-1.645-1.059c.363-2.47.68-4.949 1.207-7.383.03-.137 2.238-.264 2.617.23.845 1.1 1.172 2.596 1.687 4.379"/><path fill="#090909" d="M31.687 86.617c.722-.277 1.612-.345 2.502-.414l.125.696c-.501.153-1.002.306-1.807.399-.42-.197-.535-.334-.82-.68"/></svg>