<svg xmlns="http://www.w3.org/2000/svg" viewBox="0 0 230 100" xml:space="preserve"><path fill="#080808" d="M101.728,31.912C101.216,34.256 101.161,36.776 97.534,36.677C96.404,36.646 95.142,38.149 94.103,39.123C93.141,40.025 92.321,41.107 91.57,42.2C86.532,49.526 80.194,53.926 70.725,52.251C68.723,51.897 66.507,52.749 64.324,53.055C64.324,54.896 64.324,56.615 64.324,59.191C69.894,54.292 75.982,56.596 81.675,56.084C83.968,55.878 85.66,55.875 87.25,53.439C90.121,49.036 93.792,45.139 97.287,41.171C97.891,40.485 99.284,40.19 100.3,40.217C109.627,40.465 118.953,40.763 128.271,41.219C129.622,41.285 131.226,41.951 132.204,42.877C136.674,47.108 140.897,51.599 145.357,55.841C146.691,57.11 148.503,57.875 150.904,59.376C150.904,55.44 150.904,52.871 150.904,50.173C141.659,50.73 139.066,42.857 133.674,37.453C138.005,31.892 142.183,26.378 146.58,21.045C147.244,20.24 148.93,19.994 150.149,19.98C158.313,19.883 166.48,19.826 174.64,20.003C176.025,20.033 177.649,20.97 178.703,21.972C181.231,24.373 183.536,27.018 185.834,29.649C188.193,32.35 191.054,33.93 194.627,33.132C203.557,31.137 207.336,36.998 211.084,43.593C209.036,44.18 207.18,44.712 205.359,45.235C204.165,57.069 204.695,59.432 208.582,59.748C209.852,50.511 209.852,50.511 218.481,51.206C218.608,52.595 218.764,54.048 218.867,55.504C218.972,56.989 219.025,58.478 219.112,60.203C221.756,61.039 224.369,61.866 226.982,62.693C226.976,63.119 226.97,63.545 226.964,63.971C221.217,64.597 215.406,64.872 209.735,65.913C190.781,69.393 171.699,68.015 152.641,67.872C151.097,67.86 149.549,68.431 146.542,69.015C156.876,74.39 166.95,73.387 176.666,75.472C176.666,76.759 176.666,78.179 176.666,79.6C172.873,82.359 165.964,79.626 164.304,87.168C153.945,85.745 143.574,84.377 133.234,82.802C132.329,82.664 131.253,81.293 130.925,80.278C130.437,78.77 130.545,77.069 130.356,74.966C126.634,75.448 123.396,75.868 119.949,76.315C119.599,78.859 119.286,81.123 118.969,83.422C113.475,85.039 115.972,80.173 114.492,78.164C111.198,79.803 105.581,78.259 105.846,84.908C105.854,85.1 104.028,85.807 103.431,85.513C97.608,82.652 91.963,84.356 89.763,90.129C83.946,89.365 78.033,88.588 71.72,87.758C71.602,85.523 71.495,83.484 71.385,81.378C76.212,82.021 80.455,82.586 84.699,83.152C84.872,82.587 85.045,82.023 85.219,81.459C81.436,80.117 77.654,78.775 72.506,76.949C76.446,75.647 77.023,71.385 82.014,74.613C85.642,76.96 84.433,71.813 85.152,68.733C78.519,70.363 72.593,71.738 66.735,73.359C66.003,73.562 65.612,75.056 65.097,75.971C64.344,77.308 63.622,78.662 62.887,80.008C61.961,78.76 61.034,77.513 59.403,75.315C56.738,76.526 53.224,78.273 49.584,79.697C48.287,80.204 46.608,80.26 45.23,79.953C36.794,78.069 28.388,76.047 19.994,73.984C19.238,73.798 18.635,72.987 18.021,71.518C31.339,74.008 44.204,73.661 56.022,67.61C39.846,66.463 23.186,65.282 7.026,64.137C8.649,61.028 10.027,58.389 11.707,55.17C12.414,55.212 13.889,55.533 15.286,55.325C17.083,55.057 18.817,54.366 20.578,53.857C19.296,52.779 18.025,51.688 16.724,50.633C16.353,50.333 15.896,50.138 15.707,50.028C19.778,45.675 23.741,41.273 27.921,37.087C28.938,36.069 30.653,35.26 32.073,35.217C38.732,35.013 45.406,34.949 52.06,35.212C53.717,35.278 55.674,36.402 56.877,37.638C60.751,41.619 64.337,45.878 68.878,49.346C67.975,45.904 67.072,42.463 66.117,38.819C64.298,38.56 62.372,38.286 59.693,37.905C60.293,35.951 60.616,34.248 61.349,32.744C61.835,31.748 63.13,31.164 63.686,30.182C70.187,18.686 81.259,22.15 90.874,22.591C93.819,22.726 96.561,27.542 99.366,30.244C100.033,30.887 100.581,31.652 101.49,32.146C101.796,31.931 101.728,31.912 101.728,31.912M150.623,36.184C144.12,36.574 144.12,36.574 144.152,40.229C146.061,40.229 147.972,40.229 149.639,40.229C150.306,38.746 150.858,37.517 151.665,35.775C151.528,35.615 151.391,35.454 151.255,35.293C151.339,35.64 151.424,35.987 150.623,36.184M134.602,69.731C135.397,68.645 136.669,67.656 136.912,66.459C138.64,57.962 132.284,53.388 127.91,47.827C120.848,53.685 116.484,60.282 119.719,69.599C125.564,71.142 123.204,65.977 124.427,63.712C126.647,63.712 128.726,63.712 129.918,63.712C131.429,66.087 132.587,67.908 134.602,69.731M103.378,56.4C101.219,56.359 99.03,56.093 96.914,56.376C95.925,56.508 94.362,57.638 94.293,58.425C94,61.719 94.076,65.061 94.263,68.371C94.3,69.016 95.435,69.599 96.064,70.211C96.566,69.482 97.396,68.801 97.509,68.017C97.831,65.775 97.862,63.491 98.025,60.962C99.951,61.05 101.508,61.122 103.042,61.192C103.207,64.577 103.351,67.517 103.503,70.624C106.176,70.624 108.443,70.624 111.168,70.624C111.401,66.046 111.624,61.639 111.864,56.917C109.212,56.75 106.758,56.594 103.378,56.4M48.199,45.256C40.744,46.117 39.921,48.102 42.231,58.798C47.099,58.798 51.816,58.798 56.507,58.798C57.016,50.582 55.848,48.485 48.199,45.256M176.726,28.789C175.752,27.744 174.779,26.7 173.32,25.134C170.29,30.715 164.742,34.211 165.156,40.854C169.922,43.127 169.535,39.034 170.295,37.21C173.831,36.869 176.884,36.574 180.855,36.191C179.292,33.385 178.192,31.408 176.726,28.789M155.542,47.774C155.542,50.022 155.542,52.269 155.542,55.178C157.368,54.636 159.552,54.292 159.553,53.938C159.568,50.607 161.879,50.389 163.866,51.117C165.104,51.571 165.773,53.574 167.054,55.385C167.793,55.418 169.195,55.48 170.565,55.54C171.444,46.854 171.444,46.828 163.511,46.814C161.045,46.81 158.579,46.988 155.542,47.774M82.127,39.46C82.127,37.718 82.127,35.976 82.127,34.223C77.454,34.223 73.45,34.223 69.311,34.223C69.311,36.733 69.311,38.787 69.311,41.53C73.729,41.14 77.87,40.775 82.127,39.46M186.868,55.655C182.806,55.655 178.744,55.655 174.174,55.655C174.331,57.531 174.47,59.196 174.592,60.662C179.461,60.662 183.689,60.662 188.31,60.662C188.075,58.851 187.89,57.422 186.868,55.655M24.618,55.619C24.736,57.058 24.854,58.498 24.973,59.95C28.195,59.95 31.084,59.95 34.096,59.95C34.096,56.962 34.096,54.235 34.096,51.087C31.82,51.087 29.863,51.205 27.926,51.059C25.186,50.852 24.416,52.258 24.618,55.619M194.122,43.041C191.524,43.041 188.926,43.041 186.197,43.041C186.197,44.979 186.197,46.373 186.197,47.818C189.808,47.818 193.178,47.818 197.867,47.818C196.569,45.653 195.793,44.358 194.122,43.041M142.859,78.635C148.145,79.5 153.432,80.366 158.719,81.231C158.823,80.627 158.927,80.022 159.03,79.418C151.528,78.033 144.026,76.647 135.377,75.051C136.436,76.807 136.547,77.239 136.746,77.285C138.504,77.682 140.277,78.011 142.859,78.635z"/><path fill="#070707" d="M101.82,31.956C101.771,30.451 101.697,28.92 101.624,27.39C101.962,27.442 102.3,27.494 102.638,27.545C103.137,23.958 104.313,20.305 103.977,16.797C103.464,11.456 105.911,10.048 110.466,10.082C116.11,10.124 121.754,10.092 128.127,10.092C125.991,18.534 131.47,22.406 138.924,25.021C135.422,29.243 132.663,32.724 129.699,36.02C129.047,36.746 127.664,37.147 126.623,37.137C120.467,37.075 114.253,37.275 108.188,36.442C106.089,36.153 104.361,33.161 102.096,31.658C101.728,31.912 101.796,31.931 101.82,31.956M113.795,16.431C113.053,19.132 112.31,21.832 111.481,24.85C114.585,24.85 116.458,24.85 119.284,24.85C116.768,21.948 122.112,16.25 113.795,16.431z"/><path fill="#232423" d="M141.706,89.234C136.493,88.213 131.711,87.255 126.929,86.296C127.052,85.681 127.175,85.067 127.298,84.452C135.309,83.404 142.522,86.731 149.757,90.206C147.217,89.903 144.677,89.599 141.706,89.234z"/><path fill="#f2f1f2" d="M134.174,69.729C132.587,67.908 131.429,66.087 129.918,63.712C128.726,63.712 126.647,63.712 124.427,63.712C123.204,65.977 125.564,71.142 119.719,69.599C116.484,60.282 120.848,53.685 127.91,47.827C132.284,53.388 138.64,57.962 136.912,66.459C136.669,67.656 135.397,68.645 134.174,69.729z"/><path fill="#e5e5e5" d="M103.841,56.419C106.758,56.594 109.212,56.75 111.864,56.917C111.624,61.639 111.401,66.046 111.168,70.624C108.443,70.624 106.176,70.624 103.503,70.624C103.351,67.517 103.207,64.577 103.042,61.192C101.508,61.122 99.951,61.05 98.025,60.962C97.862,63.491 97.831,65.775 97.509,68.017C97.396,68.801 96.566,69.482 96.064,70.211C95.435,69.599 94.3,69.016 94.263,68.371C94.076,65.061 94,61.719 94.293,58.425C94.362,57.638 95.925,56.508 96.914,56.376C99.03,56.093 101.219,56.359 103.841,56.419z"/><path fill="#efeff0" d="M48.587,45.265C55.848,48.485 57.016,50.582 56.507,58.798C51.816,58.798 47.099,58.798 42.231,58.798C39.921,48.102 40.744,46.117 48.587,45.265z"/><path fill="#ececed" d="M176.909,29.11C178.192,31.408 179.292,33.385 180.855,36.191C176.884,36.574 173.831,36.869 170.295,37.21C169.535,39.034 169.922,43.127 165.156,40.854C164.742,34.211 170.29,30.715 173.32,25.134C174.779,26.7 175.752,27.744 176.909,29.11z"/><path fill="#e7e8e8" d="M155.827,47.429C158.579,46.988 161.045,46.81 163.511,46.814C171.444,46.828 171.444,46.854 170.565,55.54C169.195,55.48 167.793,55.418 167.054,55.385C165.773,53.574 165.104,51.571 163.866,51.117C161.879,50.389 159.568,50.607 159.553,53.938C159.552,54.292 157.368,54.636 155.542,55.178C155.542,52.269 155.542,50.022 155.827,47.429z"/><path fill="#fafafa" d="M82.069,39.935C77.87,40.775 73.729,41.14 69.311,41.53C69.311,38.787 69.311,36.733 69.311,34.223C73.45,34.223 77.454,34.223 82.127,34.223C82.127,35.976 82.127,37.718 82.069,39.935z"/><path fill="#e6e6e6" d="M187.286,55.824C187.89,57.422 188.075,58.851 188.31,60.662C183.689,60.662 179.461,60.662 174.592,60.662C174.47,59.196 174.331,57.531 174.174,55.655C178.744,55.655 182.806,55.655 187.286,55.824z"/><path fill="#f9f9f9" d="M24.62,55.138C24.416,52.258 25.186,50.852 27.926,51.059C29.863,51.205 31.82,51.087 34.096,51.087C34.096,54.235 34.096,56.962 34.096,59.95C31.084,59.95 28.195,59.95 24.973,59.95C24.854,58.498 24.736,57.058 24.62,55.138z"/><path fill="#ececec" d="M194.569,43.052C195.793,44.358 196.569,45.653 197.867,47.818C193.178,47.818 189.808,47.818 186.197,47.818C186.197,46.373 186.197,44.979 186.197,43.041C188.926,43.041 191.524,43.041 194.569,43.052z"/><path fill="#dadada" d="M142.452,78.497C140.277,78.011 138.504,77.682 136.746,77.285C136.547,77.239 136.436,76.807 135.377,75.051C144.026,76.647 151.528,78.033 159.03,79.418C158.927,80.022 158.823,80.627 158.719,81.231C153.432,80.366 148.145,79.5 142.452,78.497z"/><path fill="#d9dada" d="M151.41,36.287C150.858,37.517 150.306,38.746 149.639,40.229C147.972,40.229 146.061,40.229 144.152,40.229C144.12,36.574 144.12,36.574 151.042,36.245C151.462,36.306 151.41,36.287 151.41,36.287z"/><path fill="#d9dada" d="M151.485,36.32C151.424,35.987 151.339,35.64 151.255,35.293C151.391,35.454 151.528,35.615 151.538,36.031C151.41,36.287 151.462,36.306 151.485,36.32z"/><path fill="#e0e0e0" d="M114.212,16.402C122.112,16.25 116.768,21.948 119.284,24.85C116.458,24.85 114.585,24.85 111.481,24.85C112.31,21.832 113.053,19.132 114.212,16.402z"/></svg>