<svg xmlns="http://www.w3.org/2000/svg" viewBox="0 0 260 82" xml:space="preserve"><path fill="#080808" d="M220.106,64.178C220.08,60.326 218.31,56.772 221.614,53.643C222.167,53.119 221.063,49.472 219.818,48.661C214.113,44.942 209.4,40.519 206.254,34.375C205.72,33.333 203.324,32.285 202.245,32.638C194.921,35.029 190.314,30.806 185.737,26.627C186.278,21.393 189.133,19.682 193.964,20.313C197.092,20.72 200.279,20.674 203.44,20.82C212.703,21.249 212.752,21.224 216.53,29.501C217.002,30.535 216.911,32.042 216.576,33.181C215.966,35.253 214.978,37.212 213.874,39.877C220.6,39.877 225.998,39.691 231.377,39.934C235.997,40.143 240.816,46.691 240.401,51.337C240.121,54.477 240.248,57.66 240.316,60.822C240.343,62.108 240.696,63.386 240.861,64.42C246.638,65.504 252.109,66.53 257.579,67.557C234.117,73.268 210.477,74.327 186.605,75.369C187.967,76.091 189.329,76.813 191.705,78.073C179.562,79.683 169.158,72.761 157.775,76.543C159.723,77.409 161.671,78.275 163.618,79.141C163.538,79.563 163.458,79.984 163.378,80.406C157.654,79.548 151.953,78.471 146.202,77.886C138.605,77.113 130.971,76.409 123.347,76.334C120.355,76.304 117.338,78.846 114.347,78.815C109.768,78.767 105.22,77.358 100.627,76.787C83.969,74.718 67.291,72.805 50.642,70.67C49.247,70.492 48.061,68.995 46.681,68.302C45.377,67.646 43.946,66.849 42.571,66.85C41.427,66.851 40.261,67.882 39.146,68.528C37.939,69.227 36.821,70.499 35.585,70.607C34.475,70.704 33.227,69.611 32.095,68.948C31.183,68.414 30.355,67.738 29.489,67.125C29.067,68.177 28.645,69.229 28,70.838C21.05,70.373 13.63,69.877 6.209,69.38C6.087,68.923 5.965,68.466 5.843,68.009C10.718,65.221 15.592,62.434 21.054,59.31C21.173,56.281 15.806,50.828 24.033,49.994C24.033,47.707 24.033,45.735 24.033,43.546C22.694,43.022 21.342,42.493 19.477,41.762C24.988,36.932 30.21,32.26 35.578,27.761C36.325,27.134 37.786,27.24 38.921,27.218C42.419,27.151 45.999,27.668 49.402,27.096C61.41,25.078 69.849,30.208 76.954,41.407C74.252,43.714 70.984,46.496 67.724,49.289C64.068,52.423 64.079,56.054 67.342,59.528C68.329,60.58 68.917,62.462 68.871,63.938C68.768,67.255 70.047,68.567 73.985,67.9C72.849,63.202 76.486,57.732 70.842,52.962C76.01,47.427 81.365,41.575 86.903,35.902C87.654,35.132 89.319,35.02 90.565,35.006C99.061,34.911 107.56,34.825 116.054,34.988C117.675,35.019 119.691,35.755 120.814,36.877C126.579,42.638 132.111,48.631 136.493,53.245C136.493,59.722 136.448,64.746 136.574,69.766C136.585,70.198 137.807,71.017 138.33,70.919C139.084,70.779 140.183,70.055 140.305,69.419C140.65,67.64 140.579,65.778 140.654,63.948C140.766,61.172 139.686,58.539 141.849,55.64C143.085,53.983 143.341,50.163 139.152,48.993C137.448,48.517 135.996,46.69 134.716,45.227C130.777,40.724 126.978,36.1 122.835,31.179C126.894,26.526 130.935,21.702 135.239,17.126C136.076,16.236 137.921,16.097 139.332,15.978C146.631,15.362 153.938,14.807 161.251,14.377C162.656,14.295 164.311,14.502 165.489,15.193C170.65,18.218 175.737,21.381 180.705,24.713C181.708,25.386 182.489,26.983 182.561,28.201C182.596,28.797 180.743,29.469 179.787,30.165C172.784,35.265 164.652,31.843 158.069,33.074C154.675,40.297 151.493,47.069 148.018,54.463C156.808,52.069 158.514,44.408 161.895,37.12C174.363,37.12 187.322,37.087 200.279,37.187C201.254,37.195 202.392,37.978 203.163,38.707C207.509,42.817 211.766,47.022 215.914,51.058C211.849,57.562 215.023,63.794 214.8,70.427C216.592,70.54 218.131,70.638 220.134,70.765C220.134,68.48 220.134,66.555 220.106,64.178M120.454,56.02C115.295,56.042 110.121,55.831 104.982,56.168C101.632,56.388 99.761,55.018 98.252,52.31C96.176,48.584 93.913,44.962 91.467,40.855C89.578,43.329 88.041,45.342 85.89,48.159C89.095,48.159 91.146,48.159 94.247,48.159C93.523,50.99 93.421,54.793 92.291,55.128C89.669,55.905 86.551,55.007 83.056,54.745C83.056,59.789 83.056,65.602 83.056,71.676C84.706,71.676 86.11,71.676 88.12,71.676C88.12,67.712 88.12,63.977 88.12,60.327C91.131,60.327 93.53,60.327 96.182,60.327C96.405,64.358 96.605,67.984 96.786,71.246C107.969,71.246 118.854,71.246 129.682,71.246C129.682,65.828 129.682,61.096 129.682,56.02C126.707,56.02 124.072,56.02 120.454,56.02M186.418,69.641C189.538,70.008 190.366,68.506 190.281,65.565C190.225,63.59 190.38,60.664 191.609,59.77C195.673,56.816 201.59,59.961 201.913,64.833C201.946,65.329 201.783,65.931 202.008,66.302C202.439,67.011 203.084,67.589 203.641,68.221C204.12,67.521 204.986,66.837 205.015,66.119C205.158,62.562 205.08,58.996 205.08,55.474C197.203,55.474 190.137,55.474 182.923,55.474C182.923,59.746 182.792,63.7 183.041,67.629C183.088,68.363 184.662,69 186.418,69.641M42.466,61.046C45.575,61.046 48.684,61.046 52.109,61.046C52.024,59.349 51.963,58.151 51.883,56.569C42.508,56.569 33.474,56.569 24.105,56.569C24.33,58.145 24.526,59.522 24.745,61.055C30.572,61.055 36.026,61.055 42.466,61.046M134.842,37.858C137.75,37.858 140.659,37.858 143.444,37.858C144.907,31.514 140.387,29.922 136.2,26.584C134.439,29.747 132.769,32.42 131.428,35.249C130.137,37.974 132.345,37.713 134.842,37.858M43.614,51.005C49.886,51.405 47.312,47.397 47.118,44.123C45.099,44.264 43.344,44.386 40.448,44.587C41.37,47.133 42.067,49.056 43.614,51.005M159.083,63.394C159.302,65.626 158.463,68.705 162.588,67.949C163.781,58.343 163.492,57.438 159.068,57.685C159.068,59.266 159.068,60.879 159.083,63.394M170.311,62.464C170.33,63.117 170.152,63.864 170.41,64.403C170.954,65.539 171.726,66.566 172.404,67.638C172.985,66.528 173.928,65.462 174.07,64.298C174.338,62.096 174.147,59.838 174.147,57.738C169.734,56.693 170.219,59.326 170.311,62.464M34.151,50.984C34.747,48.938 35.343,46.893 36.039,44.504C33.322,44.504 31.765,44.504 29.796,44.504C30.628,47.153 27.631,51.221 34.151,50.984M56.641,45.986C60.553,46.541 61.094,44.614 59.984,41.256C58.27,41.256 56.572,41.256 53.729,41.256C54.608,43.212 55.221,44.576 56.641,45.986M191.297,49.165C191.224,47.783 191.15,46.401 191.066,44.811C189.008,44.905 187.441,44.976 185.568,45.061C185.769,46.797 185.931,48.187 186.11,49.731C187.833,49.731 189.273,49.731 191.297,49.165z"/><path fill="#070707" d="M104.839,24.607C103.015,25.65 101.643,26.726 100.271,27.801C100.506,28.195 100.741,28.588 100.976,28.981C98.888,28.981 96.799,28.981 94.308,28.981C94.308,25.912 94.308,22.976 94.308,19.87C92.473,19.565 90.995,19.32 88.304,18.874C93.693,14.461 96.956,8.885 104.256,9.791C106.387,10.056 108.664,10.207 110.73,9.752C118.757,7.983 122.44,12.537 125.096,19.012C126.177,21.646 125.776,23.019 122.74,23.438C121.551,23.602 119.613,24.337 119.463,25.097C118.013,32.445 112.518,29.146 109.354,29.772C107.675,27.651 106.483,26.144 104.839,24.607z"/><path fill="#0a0a0a" d="M81.537,34.358C76.226,36.615 74.823,31.689 72.101,29.544C69.797,27.728 66.525,25.861 67.997,21.94C68.3,21.133 69.668,20.259 70.575,20.225C75.19,20.052 79.815,20.145 85.214,20.145C83.34,26.033 88.576,26.885 91.48,29.012C87.912,30.887 84.854,32.495 81.537,34.358z"/><path fill="#efefef" d="M120.946,56.02C124.072,56.02 126.707,56.02 129.682,56.02C129.682,61.096 129.682,65.828 129.682,71.246C118.854,71.246 107.969,71.246 96.786,71.246C96.605,67.984 96.405,64.358 96.182,60.327C93.53,60.327 91.131,60.327 88.12,60.327C88.12,63.977 88.12,67.712 88.12,71.676C86.11,71.676 84.706,71.676 83.056,71.676C83.056,65.602 83.056,59.789 83.056,54.745C86.551,55.007 89.669,55.905 92.291,55.128C93.421,54.793 93.523,50.99 94.247,48.159C91.146,48.159 89.095,48.159 85.89,48.159C88.041,45.342 89.578,43.329 91.467,40.855C93.913,44.962 96.176,48.584 98.252,52.31C99.761,55.018 101.632,56.388 104.982,56.168C110.121,55.831 115.295,56.042 120.946,56.02M104.017,63.658C103.795,69.527 108.366,67.369 110.696,66.983C115.03,66.265 112.917,62.999 112.535,60.053C109.526,61.294 105.576,57.635 104.017,63.658M118.642,61.12C118.642,63.038 118.642,64.956 118.642,67.3C120.806,67.3 122.788,67.3 124.733,67.3C125.422,59.84 125.422,59.84 118.642,61.12z"/><path fill="#efefef" d="M185.975,69.661C184.662,69 183.088,68.363 183.041,67.629C182.792,63.7 182.923,59.746 182.923,55.474C190.137,55.474 197.203,55.474 205.08,55.474C205.08,58.996 205.158,62.562 205.015,66.119C204.986,66.837 204.12,67.521 203.641,68.221C203.084,67.589 202.439,67.011 202.008,66.302C201.783,65.931 201.946,65.329 201.913,64.833C201.59,59.961 195.673,56.816 191.609,59.77C190.38,60.664 190.225,63.59 190.281,65.565C190.366,68.506 189.538,70.008 185.975,69.661z"/><path fill="#e8e8e8" d="M41.973,61.05C36.026,61.055 30.572,61.055 24.745,61.055C24.526,59.522 24.33,58.145 24.105,56.569C33.474,56.569 42.508,56.569 51.883,56.569C51.963,58.151 52.024,59.349 52.109,61.046C48.684,61.046 45.575,61.046 41.973,61.05z"/><path fill="#eeeeee" d="M134.404,37.838C132.345,37.713 130.137,37.974 131.428,35.249C132.769,32.42 134.439,29.747 136.2,26.584C140.387,29.922 144.907,31.514 143.444,37.858C140.659,37.858 137.75,37.858 134.404,37.838z"/><path fill="#d6d7d7" d="M43.189,50.992C42.067,49.056 41.37,47.133 40.448,44.587C43.344,44.386 45.099,44.264 47.118,44.123C47.312,47.397 49.886,51.405 43.189,50.992z"/><path fill="#dfdfe0" d="M159.076,62.943C159.068,60.879 159.068,59.266 159.068,57.685C163.492,57.438 163.781,58.343 162.588,67.949C158.463,68.705 159.302,65.626 159.076,62.943z"/><path fill="#d3d3d4" d="M170.303,62.043C170.219,59.326 169.734,56.693 174.147,57.738C174.147,59.838 174.338,62.096 174.07,64.298C173.928,65.462 172.985,66.528 172.404,67.638C171.726,66.566 170.954,65.539 170.41,64.403C170.152,63.864 170.33,63.117 170.303,62.043z"/><path fill="#dddddd" d="M33.724,50.972C27.631,51.221 30.628,47.153 29.796,44.504C31.765,44.504 33.322,44.504 36.039,44.504C35.343,46.893 34.747,48.938 33.724,50.972z"/><path fill="#deddde" d="M56.237,45.963C55.221,44.576 54.608,43.212 53.729,41.256C56.572,41.256 58.27,41.256 59.984,41.256C61.094,44.614 60.553,46.541 56.237,45.963z"/><path fill="#e9eae9" d="M191.005,49.448C189.273,49.731 187.833,49.731 186.11,49.731C185.931,48.187 185.769,46.797 185.568,45.061C187.441,44.976 189.008,44.905 191.066,44.811C191.15,46.401 191.224,47.783 191.005,49.448z"/><path fill="#0f0f0f" d="M104.032,63.214C105.576,57.635 109.526,61.294 112.535,60.053C112.917,62.999 115.03,66.265 110.696,66.983C108.366,67.369 103.795,69.527 104.032,63.214z"/><path fill="#222221" d="M118.917,60.808C125.422,59.84 125.422,59.84 124.733,67.3C122.788,67.3 120.806,67.3 118.642,67.3C118.642,64.956 118.642,63.038 118.917,60.808z"/></svg>