<svg xmlns="http://www.w3.org/2000/svg" viewBox="0 0 220 94" xml:space="preserve"><path fill="#090909" d="M172.439,71.162C173.791,68.771 175.144,66.38 177.201,62.743C178.944,63.794 181.037,65.056 183.685,66.654C184.139,65.302 184.808,63.312 185.552,61.094C186.997,61.094 188.608,61.094 190.457,61.094C190.772,62.893 191.07,64.595 191.367,66.298C191.867,66.344 192.367,66.391 192.867,66.438C193.185,63.262 193.602,60.089 193.674,56.908C193.681,56.579 190.743,55.772 190.676,55.911C189.062,59.258 186.271,57.932 183.74,57.971C182.832,57.985 181.988,59.098 181.028,59.506C179.795,60.032 178.186,61.034 177.248,60.634C174.589,59.502 172.555,59.229 171.117,62.223C170.993,62.481 170.408,62.816 170.349,62.763C166.187,59.07 161.58,62.311 157.223,61.873C156.969,61.847 156.655,61.213 156.53,61.263C151.831,63.154 146.453,60.156 142.574,61.748C137.056,64.013 137.362,61.501 137.155,57.997C137.108,57.201 137.241,56.394 137.295,55.526C139.664,54.914 141.819,54.358 143.974,53.802C134.287,54.093 130.878,43.732 121.316,42.002C126.74,35.201 131.38,29.269 136.202,23.489C136.766,22.812 138.33,22.774 139.431,22.771C148.759,22.743 158.09,22.677 167.413,22.92C169.153,22.965 171.115,24.02 172.532,25.158C177.563,29.197 182.497,33.369 187.267,37.711C189.167,39.442 190.543,41.749 192.81,44.619C193.188,43.491 193.598,42.269 194.341,40.054C196.73,43.255 198.034,45.003 199.56,47.048C200.236,46.697 201.151,46.221 203.303,45.102C203.921,54.863 204.501,64.026 205.107,73.605C207.59,74.731 210.256,75.94 213.065,77.214C188.455,85.328 154.858,89.217 113.104,86.938C114.021,85.877 114.732,85.054 115.041,84.697C108.736,84.697 102.071,84.697 95.407,84.697C95.39,84.99 95.374,85.284 95.358,85.577C96.016,85.86 96.674,86.142 97.667,86.568C97.005,86.767 96.634,86.955 96.251,86.982C74.531,88.526 53.019,86.453 31.533,83.462C23.801,82.386 16.056,81.705 7.457,76.813C17.525,77.108 15.696,70.98 15.847,65.867C16.056,58.786 16.424,51.711 16.767,43.607C18.949,44.823 19.934,45.371 21.129,46.037C23.605,44.746 23.01,36.052 29.407,42.855C30.101,40.623 30.708,38.67 31.256,36.904C33.508,37.658 35.63,38.284 37.69,39.074C41.494,40.534 45.034,42.107 44.391,47.396C44.248,48.572 45.83,49.959 46.619,51.248C47.176,50.991 47.734,50.734 48.292,50.477C48.292,46.539 48.292,42.6 48.292,38.488C46.673,37.832 44.914,37.119 42.607,36.184C48.531,30.782 53.853,25.613 59.579,20.938C60.952,19.817 63.667,20.149 65.767,20.14C81.78,20.067 81.869,20.031 90.612,32.809C91.885,34.669 91.832,37.436 92.394,39.787C79.848,42.558 71.817,50.67 70.454,61.986C65.768,61.63 60.773,60.19 56.322,61.185C50.903,62.395 46.178,59.861 41.083,60.257C40.116,60.332 39.04,59.797 38.117,59.336C37.615,59.085 37.081,57.925 36.985,57.976C32.229,60.493 30.323,54.774 25.913,54.709C23.706,53.52 22.187,52.045 19.517,49.453C19.751,53.37 19.932,56.393 20.06,58.533C22.342,57.953 24.164,57.491 25.985,57.028C26.374,59.955 26.763,62.881 27.151,65.807C27.453,65.841 27.754,65.874 28.055,65.907C28.53,64.313 29.006,62.72 29.532,60.955C31.029,60.955 32.487,60.955 34.237,60.955C34.721,62.649 35.224,64.406 35.61,65.758C37.905,64.452 39.937,63.295 42.422,61.88C43.356,64.858 43.909,66.622 44.936,69.894C46.225,67.361 46.868,66.097 47.625,64.609C51.625,63.589 53.156,65.413 52.976,69.514C52.828,72.91 52.946,76.317 52.946,79.719C53.655,79.749 54.364,79.778 55.074,79.807C55.383,75.094 55.693,70.382 56.007,65.587C60.441,63.984 62.168,65.477 62.112,70.007C62.068,73.528 62.576,77.055 62.839,80.58C63.473,80.584 64.107,80.587 64.741,80.591C64.898,77.112 64.783,73.589 65.328,70.172C65.599,68.469 66.853,65.821 68.057,65.581C71.318,64.932 70.841,67.957 71.027,69.997C71.333,73.37 71.551,76.75 71.806,80.128C72.36,80.131 72.915,80.134 73.47,80.137C73.677,76.607 73.644,73.038 74.208,69.566C74.434,68.173 75.97,66.992 76.909,65.715C77.831,66.968 79.312,68.119 79.561,69.493C80.126,72.6 80.082,75.817 80.286,78.989C80.832,78.976 81.378,78.963 81.925,78.95C82.367,73.49 82.809,68.03 83.288,62.123C80.61,61.959 78.209,61.811 74.374,61.576C75.559,58.648 75.992,55.86 77.551,54.036C82.771,47.931 89.453,44.636 97.716,44.882C103.039,45.04 108.386,45.159 113.694,44.837C120.004,44.453 124.862,47.373 129.575,50.884C133.184,53.574 133.924,57.262 133.375,61.823C130.568,61.968 127.998,62.1 124.74,62.268C125.06,68.158 125.371,73.862 125.681,79.567C126.183,79.582 126.684,79.598 127.186,79.613C127.506,75.19 127.827,70.767 128.163,66.127C129.716,66.127 131.101,66.127 132.828,66.127C133.285,70.926 133.72,75.493 134.155,80.06C134.632,80.117 135.108,80.173 135.584,80.229C136.021,75.576 136.459,70.924 136.914,66.082C138.601,65.963 140.049,65.86 142.101,65.715C142.417,70.572 142.721,75.245 143.025,79.918C143.679,79.978 144.333,80.038 144.988,80.098C145.475,75.694 145.963,71.289 146.51,66.354C148.174,66.243 149.904,66.127 152.324,65.965C152.669,71.02 152.998,75.83 153.326,80.64C153.924,80.679 154.522,80.718 155.12,80.758C155.468,75.74 155.816,70.723 156.185,65.404C158.128,65.404 159.849,65.404 161.747,65.404C162.149,70.51 162.549,75.593 162.948,80.677C163.582,80.657 164.217,80.636 164.851,80.616C165.105,75.485 165.359,70.354 165.622,65.054C167.831,65.054 169.618,65.054 171.487,65.054C172.043,66.838 172.57,68.533 172.676,71.047C172.393,74.37 172.533,76.874 172.673,79.377C176.07,74.825 175.663,72.435 172.439,71.162M88.164,73.473C88.164,76.243 88.164,79.012 88.164,81.616C93.473,81.616 98.048,81.616 102.582,81.616C102.582,74.961 102.582,68.746 102.582,62.6C97.552,62.6 92.991,62.6 88.164,62.6C88.164,66.211 88.164,69.359 88.164,73.473M113.872,67.794C114.496,72.067 115.12,76.341 115.876,81.517C117.196,80.513 119.039,79.708 118.985,79.06C118.181,69.368 123.251,58.168 112.218,50.943C104.705,57.096 103.672,59.831 105.692,67.462C108.229,67.462 110.652,67.462 113.872,67.794M58.087,32.557C55.114,36.89 54.283,41.574 55.709,46.867C59.498,46.867 63.214,46.867 66.795,46.867C68.97,39.026 63.899,34.03 60.853,27.704C59.787,29.562 59.127,30.711 58.087,32.557M138.139,33.719C137.029,36.677 135.919,39.635 134.521,43.36C139.744,43.36 143.835,43.36 149.691,43.36C147.348,39.215 145.657,36.043 143.792,32.977C142.066,30.138 140.271,30.6 138.139,33.719M160.708,44.074C160.592,46.672 160.475,49.271 160.346,52.156C163.109,52.156 165.356,52.156 167.754,52.156C167.754,49.128 167.754,46.247 167.754,42.963C165.327,43.086 163.221,43.193 160.708,44.074M176.569,45.789C176.679,48.164 176.79,50.538 176.9,52.91C179.371,52.91 181.286,52.91 183.341,52.91C183.341,49.494 183.341,46.3 183.341,41.722C180.652,42.994 178.628,43.952 176.569,45.789M76.853,43.713C77.785,42.301 78.718,40.889 80.259,38.557C76.79,38.751 75.163,38.842 72.119,39.013C73.876,41.08 74.953,42.346 76.853,43.713M35.141,69.66C35.325,72.508 35.51,75.357 35.694,78.205C36.38,78.155 37.066,78.104 37.751,78.054C37.751,75.666 37.919,73.259 37.653,70.9C37.569,70.149 36.333,69.528 35.141,69.66z"/><path fill="#0d0d0d" d="M101.231,39.753C98.089,40.204 96.714,39.421 96.967,36.375C97.2,33.577 97.017,30.744 95.842,28.45C94.679,26.393 93.517,24.336 92.264,22.118C97.564,18.131 102.18,14.659 107.157,10.915C111.77,14.444 116.338,17.938 120.219,20.906C119.902,27.467 119.626,33.186 119.309,39.752C113.287,39.752 107.496,39.752 101.231,39.753M106.338,29.91C110.264,30.383 110.695,28.354 109.603,24.794C108.227,24.794 106.791,24.766 105.356,24.802C103.946,24.838 102.539,24.94 100.995,25.019C100.911,26.147 100.818,26.943 100.804,27.74C100.792,28.357 100.878,28.976 100.945,29.935C102.542,29.935 103.971,29.935 106.338,29.91z"/><path fill="#cccccd" d="M26.026,56.691C24.164,57.491 22.342,57.953 20.06,58.533C19.932,56.393 19.751,53.37 19.517,49.453C22.187,52.045 23.706,53.52 25.613,54.997C26.022,55.451 26.044,55.903 26.026,56.691z"/><path fill="#c3c3c5" d="M172.482,71.149C175.663,72.435 176.07,74.825 172.673,79.377C172.533,76.874 172.393,74.37 172.419,71.467C172.585,71.067 172.526,71.136 172.482,71.149z"/><path fill="#f2f2f2" d="M88.164,72.99C88.164,69.359 88.164,66.211 88.164,62.6C92.991,62.6 97.552,62.6 102.582,62.6C102.582,68.746 102.582,74.961 102.582,81.616C98.048,81.616 93.473,81.616 88.164,81.616C88.164,79.012 88.164,76.243 88.164,72.99z"/><path fill="#f5f5f5" d="M113.473,67.628C110.652,67.462 108.229,67.462 105.692,67.462C103.672,59.831 104.705,57.096 112.218,50.943C123.251,58.168 118.181,69.368 118.985,79.06C119.039,79.708 117.196,80.513 115.876,81.517C115.12,76.341 114.496,72.067 113.473,67.628z"/><path fill="#f6f6f6" d="M58.277,32.209C59.127,30.711 59.787,29.562 60.853,27.704C63.899,34.03 68.97,39.026 66.795,46.867C63.214,46.867 59.498,46.867 55.709,46.867C54.283,41.574 55.114,36.89 58.277,32.209z"/><path fill="#eeeeef" d="M138.389,33.437C140.271,30.6 142.066,30.138 143.792,32.977C145.657,36.043 147.348,39.215 149.691,43.36C143.835,43.36 139.744,43.36 134.521,43.36C135.919,39.635 137.029,36.677 138.389,33.437z"/><path fill="#ececec" d="M160.911,43.686C163.221,43.193 165.327,43.086 167.754,42.963C167.754,46.247 167.754,49.128 167.754,52.156C165.356,52.156 163.109,52.156 160.346,52.156C160.475,49.271 160.592,46.672 160.911,43.686z"/><path fill="#ededec" d="M176.586,45.349C178.628,43.952 180.652,42.994 183.341,41.722C183.341,46.3 183.341,49.494 183.341,52.91C181.286,52.91 179.371,52.91 176.9,52.91C176.79,50.538 176.679,48.164 176.586,45.349z"/><path fill="#e2e2e2" d="M76.441,43.663C74.953,42.346 73.876,41.08 72.119,39.013C75.163,38.842 76.79,38.751 80.259,38.557C78.718,40.889 77.785,42.301 76.441,43.663z"/><path fill="#b0b0b1" d="M35.382,69.254C36.333,69.528 37.569,70.149 37.653,70.9C37.919,73.259 37.751,75.666 37.751,78.054C37.066,78.104 36.38,78.155 35.694,78.205C35.51,75.357 35.325,72.508 35.382,69.254z"/><path fill="#f4f4f4" d="M105.869,29.923C103.971,29.935 102.542,29.935 100.945,29.935C100.878,28.976 100.792,28.357 100.804,27.74C100.818,26.943 100.911,26.147 100.995,25.019C102.539,24.94 103.946,24.838 105.356,24.802C106.791,24.766 108.227,24.794 109.603,24.794C110.695,28.354 110.264,30.383 105.869,29.923z"/></svg>