<svg xmlns="http://www.w3.org/2000/svg" viewBox="0 0 189 100" xml:space="preserve"><path fill="#060606" d="M183.1,82.91C183.339,83.599 183.19,84.746 183.024,84.748C176.699,84.839 170.374,84.825 163.751,85.936C166.678,87.018 169.604,88.099 173.686,89.607C161.499,90.489 150.416,91.292 139.333,92.094C139.293,92.338 139.253,92.581 139.213,92.825C142.224,94.035 145.234,95.246 148.245,96.457C148.113,97.063 147.982,97.67 147.85,98.277C122.92,93.861 97.988,89.5 72.064,94.133C75.845,95.71 79.051,97.047 82.257,98.384C82.127,98.779 81.997,99.174 81.867,99.57C67.96,97.678 54.052,95.786 39.962,93.87C40.399,93.179 40.752,92.619 41.42,91.561C29.083,89.744 17.082,87.977 5.082,86.21C5.066,85.844 5.05,85.478 5.034,85.112C7.961,83.975 10.889,82.839 14.474,81.447C14.474,71.459 14.474,61.349 14.474,50.91C16.903,50.765 18.658,50.66 19.946,50.583C21.023,52.314 21.852,53.646 22.681,54.979C23.48,53.583 24.279,52.188 25.298,50.41C27.758,50.812 30.584,48.742 33.394,52.79C34.623,54.56 40.522,53.088 44.912,53.088C44.912,49.318 46.216,44.834 44.645,41.878C41.191,35.376 42.359,28.706 41.78,22.074C41.741,21.634 40.537,21.295 39.772,20.849C46.08,15.158 51.755,10.037 57.967,4.433C63.379,9.543 69.271,14.415 74.172,20.137C75.741,21.969 74.892,26.056 74.778,29.098C74.651,32.489 75.871,35.95 71.588,38.722C69.881,39.827 70.926,45.183 70.702,48.883C72.927,49.013 74.536,49.107 75.585,49.169C76.447,47.099 77.004,45.299 77.92,43.705C78.653,42.428 80.162,41.552 80.741,40.24C84.454,31.828 91.006,30.554 99.59,30.604C110.032,30.665 119.715,30.355 125.531,41.101C126.189,42.317 127.777,43.03 128.014,43.224C131.353,42.043 133.961,41.121 136.693,40.155C137.209,43.067 137.69,45.78 137.941,47.198C141.599,46.505 144.937,45.872 148.618,45.175C148.874,47.969 149.051,49.907 149.263,52.229C152.708,51.368 156.741,55.593 159.498,50.134C159.864,49.41 162.899,50.034 164.387,50.034C165.354,51.802 166.21,53.37 167.067,54.937C167.516,54.803 167.965,54.669 168.413,54.535C168.692,53.19 168.972,51.845 169.316,50.186C171.493,50.186 173.739,50.186 176.922,50.186C176.922,55.792 176.91,61.386 176.927,66.979C176.935,69.644 177.251,72.336 176.98,74.969C176.518,79.452 177.832,82.364 183.1,82.91M83.612,66.686C76.937,67.416 70.262,68.146 63.422,68.894C63.129,66.312 62.895,64.253 62.739,62.869C52.908,60.118 43.61,57.83 33.565,60.277C33.767,62.954 33.963,65.547 34.157,68.115C36.377,67.118 38.373,65.536 39.204,66.008C40.454,66.719 41.271,68.79 41.587,70.416C42.138,73.25 42.167,76.185 42.415,79.077C42.895,79.053 43.375,79.029 43.855,79.005C44.16,74.505 44.465,70.005 44.771,65.505C45.263,65.158 45.755,64.812 46.248,64.466C47.565,65.713 48.716,67.274 50.261,68.095C51.229,68.609 52.833,68.183 54.069,67.862C55.278,67.549 56.453,66.317 57.51,66.461C58.328,66.572 59.447,68.13 59.557,69.141C60.007,73.275 60.036,77.454 60.388,81.602C60.626,84.403 61.146,87.18 61.54,89.968C62.047,89.935 62.555,89.901 63.062,89.868C63.419,84.324 63.775,78.781 64.183,72.433C65.851,73.131 67.721,73.317 68.404,74.315C70.185,76.918 71.035,76.97 72.599,74.116C73.024,73.34 76.485,73.039 76.879,73.631C78.955,76.76 79.919,76.631 81.348,73.185C81.617,72.536 85.554,72.362 85.846,72.946C87.46,76.169 88.486,76.661 90.188,73.058C90.546,72.3 92.693,71.48 92.849,71.666C95.713,75.086 98.41,75.071 101.155,71.606C104.463,76.139 107.904,72.142 111.297,71.802C111.701,71.762 112.152,72.19 112.515,72.368C113.338,77.617 114.141,82.736 114.944,87.854C115.482,87.824 116.021,87.793 116.56,87.762C116.56,79.761 116.56,71.76 116.56,63.447C120.158,64.297 124.047,61.683 125.049,66.74C125.089,66.943 127.947,66.96 127.996,66.736C129.111,61.65 132.496,64.695 135.272,64.281C135.893,72.05 136.485,79.444 137.076,86.838C137.588,86.849 138.1,86.861 138.611,86.872C138.611,81.268 138.611,75.664 138.611,69.481C141.23,70.061 143.84,71.058 144.096,70.633C147.798,64.499 149.227,68.911 151.35,73.879C152.371,70.247 152.933,68.245 153.779,65.235C156.123,66.513 158.081,67.582 160.748,69.037C160.748,66.662 160.847,64.418 160.724,62.186C160.556,59.148 158.967,59.627 157.011,60.738C155.728,61.467 154.31,62.244 152.889,62.393C148.382,62.864 143.459,61.555 139.721,66.952C139.258,63.684 138.948,61.504 138.64,59.329C135.433,58.916 132.532,58.543 129.63,58.169C129.417,55.463 129.242,53.231 129.071,51.066C127.232,51.066 125.802,51.066 124,51.066C124,53.031 124,54.774 124,57.122C119.554,57.122 115.467,57.122 110.934,57.122C110.934,60.632 110.934,63.544 110.934,66.689C101.839,66.689 93.213,66.689 83.612,66.686M87.851,50.327C86.147,50.54 84.443,50.754 82.715,50.97C83.389,54.549 83.927,57.405 84.513,60.52C86.096,60.396 87.524,60.285 89.003,60.17C89.477,58.212 89.897,56.479 90.35,54.608C94.269,54.608 98.004,54.608 100.512,54.608C102.246,57.054 103.394,58.673 104.543,60.293C104.958,59.994 105.374,59.694 105.789,59.394C105.789,56.603 105.789,53.811 105.789,50.309C100.005,50.309 94.393,50.309 87.851,50.327M47.766,30.901C48.879,30.347 50.618,30.044 50.961,29.183C51.502,27.826 51.105,26.095 51.105,24.386C49.182,24.386 47.808,24.386 45.771,24.386C46.203,26.726 46.568,28.7 47.766,30.901M56.28,28.46C56.408,32.621 59.02,30.839 60.91,30.84C60.91,28.379 60.91,26.327 60.91,24.379C57.833,23.751 55.845,24.128 56.28,28.46M66.387,28.321C67.557,29.38 68.726,30.439 69.895,31.498C70.217,31.128 70.539,30.757 70.861,30.386C70.861,28.367 70.861,26.348 70.861,24.396C67.9,23.73 65.931,24.026 66.387,28.321z"/><path fill="#eeeeee" d="M84.1,66.688C93.213,66.689 101.839,66.689 110.934,66.689C110.934,63.544 110.934,60.632 110.934,57.122C115.467,57.122 119.554,57.122 124,57.122C124,54.774 124,53.031 124,51.066C125.802,51.066 127.232,51.066 129.071,51.066C129.242,53.231 129.417,55.463 129.63,58.169C132.532,58.543 135.433,58.916 138.64,59.329C138.948,61.504 139.258,63.684 139.721,66.952C143.459,61.555 148.382,62.864 152.889,62.393C154.31,62.244 155.728,61.467 157.011,60.738C158.967,59.627 160.556,59.148 160.724,62.186C160.847,64.418 160.748,66.662 160.748,69.037C158.081,67.582 156.123,66.513 153.779,65.235C152.933,68.245 152.371,70.247 151.35,73.879C149.227,68.911 147.798,64.499 144.096,70.633C143.84,71.058 141.23,70.061 138.611,69.481C138.611,75.664 138.611,81.268 138.611,86.872C138.1,86.861 137.588,86.849 137.076,86.838C136.485,79.444 135.893,72.05 135.272,64.281C132.496,64.695 129.111,61.65 127.996,66.736C127.947,66.96 125.089,66.943 125.049,66.74C124.047,61.683 120.158,64.297 116.56,63.447C116.56,71.76 116.56,79.761 116.56,87.762C116.021,87.793 115.482,87.824 114.944,87.854C114.141,82.736 113.338,77.617 112.515,72.368C112.152,72.19 111.701,71.762 111.297,71.802C107.904,72.142 104.463,76.139 101.155,71.606C98.41,75.071 95.713,75.086 92.849,71.666C92.693,71.48 90.546,72.3 90.188,73.058C88.486,76.661 87.46,76.169 85.846,72.946C85.554,72.362 81.617,72.536 81.348,73.185C79.919,76.631 78.955,76.76 76.879,73.631C76.485,73.039 73.024,73.34 72.599,74.116C71.035,76.97 70.185,76.918 68.404,74.315C67.721,73.317 65.851,73.131 64.183,72.433C63.775,78.781 63.419,84.324 63.062,89.868C62.555,89.901 62.047,89.935 61.54,89.968C61.146,87.18 60.626,84.403 60.388,81.602C60.036,77.454 60.007,73.275 59.557,69.141C59.447,68.13 58.328,66.572 57.51,66.461C56.453,66.317 55.278,67.549 54.069,67.862C52.833,68.183 51.229,68.609 50.261,68.095C48.716,67.274 47.565,65.713 46.248,64.466C45.755,64.812 45.263,65.158 44.771,65.505C44.465,70.005 44.16,74.505 43.855,79.005C43.375,79.029 42.895,79.053 42.415,79.077C42.167,76.185 42.138,73.25 41.587,70.416C41.271,68.79 40.454,66.719 39.204,66.008C38.373,65.536 36.377,67.118 34.157,68.115C33.963,65.547 33.767,62.954 33.565,60.277C43.61,57.83 52.908,60.118 62.739,62.869C62.895,64.253 63.129,66.312 63.422,68.894C70.262,68.146 76.937,67.416 84.1,66.688z"/><path fill="#e7e7e7" d="M88.316,50.318C94.393,50.309 100.005,50.309 105.789,50.309C105.789,53.811 105.789,56.603 105.789,59.394C105.374,59.694 104.958,59.994 104.543,60.293C103.394,58.673 102.246,57.054 100.512,54.608C98.004,54.608 94.269,54.608 90.35,54.608C89.897,56.479 89.477,58.212 89.003,60.17C87.524,60.285 86.096,60.396 84.513,60.52C83.927,57.405 83.389,54.549 82.715,50.97C84.443,50.754 86.147,50.54 88.316,50.318z"/><path fill="#d9dada" d="M47.35,30.787C46.568,28.7 46.203,26.726 45.771,24.386C47.808,24.386 49.182,24.386 51.105,24.386C51.105,26.095 51.502,27.826 50.961,29.183C50.618,30.044 48.879,30.347 47.35,30.787z"/><path fill="#dededf" d="M56.278,28.031C55.845,24.128 57.833,23.751 60.91,24.379C60.91,26.327 60.91,28.379 60.91,30.84C59.02,30.839 56.408,32.621 56.278,28.031z"/><path fill="#d5d4d5" d="M66.372,27.908C65.931,24.026 67.9,23.73 70.861,24.396C70.861,26.348 70.861,28.367 70.861,30.386C70.539,30.757 70.217,31.128 69.895,31.498C68.726,30.439 67.557,29.38 66.372,27.908z"/></svg>