<svg xmlns="http://www.w3.org/2000/svg" viewBox="0 0 191 88" xml:space="preserve"><path fill="#070707" d="M126.57,80.561C120.373,80.903 114.641,81.19 108.91,81.478C108.879,81.756 108.849,82.034 108.818,82.312C110.149,82.915 111.481,83.517 112.812,84.12C112.712,84.556 112.612,84.992 112.512,85.427C107.073,84.617 101.659,83.55 96.192,83.049C83.654,81.901 71.076,81.179 58.543,79.987C51.257,79.294 43.976,78.287 36.791,76.913C32.97,76.182 28.629,76.427 26.383,71.365C25.513,69.404 21.265,68.638 18.407,67.937C14.384,66.95 10.222,66.531 6.083,65.863C6.152,65.569 6.173,65.123 6.272,65.105C12.365,63.988 13.127,59.935 12.93,54.532C12.746,49.496 13.675,44.4 14.366,39.365C14.541,38.088 15.675,36.942 16.368,35.736C17.576,36.635 18.783,37.534 20.192,38.583C21.421,36.422 22.72,34.141 23.883,32.096C26.351,33.511 28.178,34.557 30.004,35.604C29.937,35.008 29.87,34.412 29.803,33.817C31.794,32.354 33.785,30.892 35.775,29.43C36.972,32.067 38.169,34.703 39.831,38.363C40.081,38.408 41.642,38.693 43.203,38.977C43.649,38.646 44.095,38.315 44.542,37.984C43.424,36.174 42.037,34.469 41.275,32.52C40.666,30.965 40.599,29.096 40.727,27.399C40.789,26.567 42.028,25.891 42.414,25.004C46.162,16.403 53.134,14.749 61.544,15.86C63.5,16.118 65.609,16.116 67.518,15.674C72.819,14.448 76.844,15.347 79.322,20.814C79.944,22.188 82.07,22.93 83.582,23.835C84.695,24.502 85.932,24.96 87.36,26.527C74.204,22.975 71.173,34.102 64.48,40.503C70.288,42.354 73.27,39.432 75.205,35.293C76.878,31.716 79.342,30.646 83.098,30.829C89.418,31.138 95.85,31.777 102.069,30.983C112.743,29.62 117.897,36.307 122.302,43.859C124.076,46.899 125.705,47.339 129.692,46.364C126.895,39.021 121.236,33.323 115.887,29.89C110.428,26.385 102.076,27.387 94.838,26.395C93.078,20.007 93.567,19.355 100.517,19.351C101.516,19.351 102.594,19.1 103.504,19.386C109.394,21.239 113.071,18.782 115.771,13.662C116.298,12.663 118.112,11.822 119.346,11.804C126.006,11.703 132.673,11.806 139.331,12.042C140.451,12.082 141.866,12.847 142.582,13.733C146.245,18.26 149.85,22.849 153.199,27.611C154.362,29.265 154.73,31.478 155.959,34.772C157.41,32.853 158.65,31.212 160.604,28.627C162.645,30.958 164.843,33.469 167.039,35.977C171.189,31.888 171.189,31.888 176.365,39.675C177.579,38.307 178.781,36.952 179.984,35.597C180.628,35.741 181.273,35.885 181.918,36.029C181.918,41.78 182.06,47.536 181.874,53.281C181.715,58.218 182.182,62.553 187.964,64.081C188.681,64.271 189.257,64.992 189.616,65.257C182.488,67.759 175.39,70.251 168.292,72.743C168.326,73.008 168.36,73.274 168.395,73.54C169.65,73.753 170.905,73.965 172.16,74.177C157.567,80.025 142.085,78.654 126.57,80.561M22.741,48.288C23.317,52.469 23.892,56.65 24.468,60.831C24.797,60.814 25.127,60.798 25.457,60.781C25.671,57.619 25.886,54.458 26.09,51.451C30.134,50.848 31.255,52.521 31.23,55.875C31.208,58.93 31.756,61.989 32.053,65.046C33.468,62.596 33.509,60.057 34.004,57.61C34.271,56.29 35.314,55.127 36.8,54.09C37.88,55.175 39.607,56.103 39.917,57.377C40.768,60.864 41.023,64.497 41.513,68.072C41.98,68.048 42.446,68.024 42.912,68C43.06,64.684 43.208,61.369 43.383,57.451C45.816,57.776 47.704,58.027 49.435,58.258C49.98,60.105 50.411,61.563 50.736,62.663C52.731,61.134 54.376,59.874 56.865,58.933C59.144,59.11 61.422,59.286 63.73,59.464C65.127,65.02 62.884,70.935 65.496,75.978C66.1,75.935 66.705,75.892 67.309,75.848C67.622,70.783 67.935,65.718 68.267,60.353C71.187,60.61 73.931,60.853 76.601,61.088C77.119,64.185 77.578,66.932 78.037,69.678C78.588,69.595 79.14,69.511 79.691,69.427C79.93,66.725 80.168,64.023 80.402,61.384C83.377,61.384 85.959,61.384 88.628,61.384C89.019,66.285 89.384,70.872 89.75,75.458C90.425,75.422 91.1,75.386 91.776,75.35C92.219,70.696 92.663,66.042 93.12,61.249C98.145,61.249 102.864,61.249 107.609,61.249C107.977,66.755 108.322,71.92 108.668,77.085C109.39,77.062 110.111,77.039 110.833,77.016C111.191,71.703 111.549,66.39 111.916,60.953C114.163,60.837 116.045,61.028 117.77,60.593C121.902,59.55 123.176,61.235 123.005,65.148C122.931,66.835 123.585,68.554 123.908,70.258C124.434,70.22 124.959,70.182 125.485,70.144C125.788,67.007 126.092,63.87 126.381,60.88C128.438,60.296 130.127,59.816 131.815,59.336C131.727,58.994 131.638,58.651 131.549,58.308C126.471,58.308 121.393,58.308 116.217,58.308C115.875,53.76 116.499,49.439 115.031,46.015C113.492,42.424 109.946,39.695 107.494,36.842C97.362,41.279 97.856,49.773 98.634,58.508C96.34,58.368 94.82,58.276 92.826,58.154C92.826,53.942 92.826,50.213 92.826,46.736C86.914,46.736 81.528,46.736 75.75,46.736C75.75,50.725 75.75,54.169 75.75,58.411C73.382,57.812 71.587,57.031 69.765,56.961C65.177,56.786 60.576,56.932 55.141,57.106C51.504,56.185 47.868,55.263 43.221,54.085C42.214,51.817 39.912,49.912 35.253,52.247C31.715,49.956 28.219,47.591 24.582,45.47C24.147,45.216 22.943,46.28 21.295,46.476C20.41,44.999 19.524,43.523 18.639,42.046C18.371,42.117 18.103,42.187 17.835,42.258C17.835,46.54 17.835,50.822 17.835,55.105C18.316,55.15 18.797,55.196 19.278,55.242C19.463,53.574 19.434,51.841 19.915,50.263C20.196,49.341 21.293,48.667 22.741,48.288M159.243,69.399C159.527,69.256 159.811,69.112 160.663,68.407C161.161,63.08 161.659,57.752 163.004,52.245C164.57,52.245 166.135,52.245 167.741,52.245C167.952,55.783 168.135,58.875 168.319,61.967C168.79,61.933 169.26,61.898 169.731,61.864C169.731,56.735 169.731,51.607 169.731,46.713C166.757,48.272 164.435,49.49 161.853,49.902C157.986,50.949 154.002,51.71 150.318,53.206C149.102,53.7 148.031,56.08 147.995,57.623C147.931,60.444 148.701,63.283 149.098,66.117C149.364,68.015 149.587,69.918 149.83,71.819C150.31,71.824 150.791,71.83 151.271,71.835C151.784,66.358 152.297,60.881 152.816,55.344C154.85,55.344 156.434,55.344 158.058,55.344C158.48,60.077 158.877,64.533 159.243,69.399M48.215,31.25C48.215,35.161 48.215,39.071 48.215,43.197C51.833,43.492 54.929,43.745 58.003,43.996C61.839,35.175 54.278,30.508 51.728,23.324C50.33,26.266 49.343,28.345 48.215,31.25M137.871,30.695C142.962,26.693 142.948,26.256 137.323,21.458C135.017,27.549 126.358,30.736 129.822,39.537C132.039,39.713 134.257,39.89 136.714,40.085C136.942,36.953 137.146,34.16 137.871,30.695M144.798,35.095C143.998,37.867 143.198,40.64 142.334,43.637C146.77,43.637 149.842,43.637 153.085,43.637C153.085,41.316 153.106,39.33 153.072,37.346C153.062,36.722 152.903,36.1 152.752,35.067C150.299,35.067 148.01,35.067 144.798,35.095M145.814,55.889C143.907,55.675 141.991,55.216 140.095,55.288C132.823,55.565 132.862,55.622 134.003,62.065C134.26,63.518 134.122,65.036 134.237,66.519C134.43,69.022 134.679,71.52 134.905,74.02C135.388,74.017 135.872,74.014 136.355,74.01C136.61,70.308 137.092,66.604 137.056,62.904C137.021,59.333 137.902,57.732 141.922,58.426C143.351,58.672 145.103,57.048 145.814,55.889M173.09,44.661C173.396,48.351 173.702,52.042 174.009,55.733C174.432,55.745 174.856,55.758 175.279,55.77C175.484,52.1 175.741,48.431 175.785,44.759C175.788,44.5 174.221,44.223 173.09,44.661z"/><path fill="#ececec" d="M55.981,56.949C60.576,56.932 65.177,56.786 69.765,56.961C71.587,57.031 73.382,57.812 75.75,58.411C75.75,54.169 75.75,50.725 75.75,46.736C81.528,46.736 86.914,46.736 92.826,46.736C92.826,50.213 92.826,53.942 92.826,58.154C94.82,58.276 96.34,58.368 98.634,58.508C97.856,49.773 97.362,41.279 107.494,36.842C109.946,39.695 113.492,42.424 115.031,46.015C116.499,49.439 115.875,53.76 116.217,58.308C121.393,58.308 126.471,58.308 131.549,58.308C131.638,58.651 131.727,58.994 131.815,59.336C130.127,59.816 128.438,60.296 126.381,60.88C126.092,63.87 125.788,67.007 125.485,70.144C124.959,70.182 124.434,70.22 123.908,70.258C123.585,68.554 122.931,66.835 123.005,65.148C123.176,61.235 121.902,59.55 117.77,60.593C116.045,61.028 114.163,60.837 111.916,60.953C111.549,66.39 111.191,71.703 110.833,77.016C110.111,77.039 109.39,77.062 108.668,77.085C108.322,71.92 107.977,66.755 107.609,61.249C102.864,61.249 98.145,61.249 93.12,61.249C92.663,66.042 92.219,70.696 91.776,75.35C91.1,75.386 90.425,75.422 89.75,75.458C89.384,70.872 89.019,66.285 88.628,61.384C85.959,61.384 83.377,61.384 80.402,61.384C80.168,64.023 79.93,66.725 79.691,69.427C79.14,69.511 78.588,69.595 78.037,69.678C77.578,66.932 77.119,64.185 76.601,61.088C73.931,60.853 71.187,60.61 68.267,60.353C67.935,65.718 67.622,70.783 67.309,75.848C66.705,75.892 66.1,75.935 65.496,75.978C62.884,70.935 65.127,65.02 63.73,59.464C61.422,59.286 59.144,59.11 56.445,58.496C56.01,57.689 55.995,57.319 55.981,56.949M87.492,56.228C87.408,54.595 87.324,52.961 87.244,51.407C84.949,51.407 83.044,51.407 80.944,51.407C80.944,53.836 80.944,55.94 80.944,59.459C83.496,58.518 85.477,57.787 87.492,56.228M109.449,50.946C107.372,50.946 105.296,50.946 103.187,50.946C103.187,53.447 103.187,55.374 103.187,57.586C105.681,57.342 107.915,57.124 110.466,56.874C110.344,54.863 110.246,53.242 109.449,50.946z"/><path fill="#f2f2f2" d="M48.285,30.837C49.343,28.345 50.33,26.266 51.728,23.324C54.278,30.508 61.839,35.175 58.003,43.996C54.929,43.745 51.833,43.492 48.215,43.197C48.215,39.071 48.215,35.161 48.285,30.837z"/><path fill="#efefef" d="M137.611,31.031C137.146,34.16 136.942,36.953 136.714,40.085C134.257,39.89 132.039,39.713 129.822,39.537C126.358,30.736 135.017,27.549 137.323,21.458C142.948,26.256 142.962,26.693 137.611,31.031z"/><path fill="#ececec" d="M162.158,52.425C161.659,57.752 161.161,63.08 160.242,68.679C159.638,68.954 159.456,68.966 159.274,68.988C158.877,64.533 158.48,60.077 158.058,55.344C156.434,55.344 154.85,55.344 152.816,55.344C152.297,60.881 151.784,66.358 151.271,71.835C150.791,71.83 150.31,71.824 149.83,71.819C149.587,69.918 149.364,68.015 149.098,66.117C148.701,63.283 147.931,60.444 147.995,57.623C148.031,56.08 149.102,53.7 150.318,53.206C154.002,51.71 157.986,50.949 161.98,50.734C162.124,51.853 162.141,52.139 162.158,52.425z"/><path fill="#d7d8d8" d="M36.007,53.892C35.314,55.127 34.271,56.29 34.004,57.61C33.509,60.057 33.468,62.596 32.053,65.046C31.756,61.989 31.208,58.93 31.23,55.875C31.255,52.521 30.134,50.848 26.09,51.451C25.886,54.458 25.671,57.619 25.457,60.781C25.127,60.798 24.797,60.814 24.468,60.831C23.892,56.65 23.317,52.469 22.375,47.892C22.091,47.248 22.12,46.994 22.095,46.733C22.943,46.28 24.147,45.216 24.582,45.47C28.219,47.591 31.715,49.956 35.643,52.589C36.007,53.251 35.998,53.571 36.007,53.892z"/><path fill="#e2e2e3" d="M36.403,53.991C35.998,53.571 36.007,53.251 36.028,52.69C39.912,49.912 42.214,51.817 43.221,54.085C47.868,55.263 51.504,56.185 55.561,57.028C55.995,57.319 56.01,57.689 56.023,58.336C54.376,59.874 52.731,61.134 50.736,62.663C50.411,61.563 49.98,60.105 49.435,58.258C47.704,58.027 45.816,57.776 43.383,57.451C43.208,61.369 43.06,64.684 42.912,68C42.446,68.024 41.98,68.048 41.513,68.072C41.023,64.497 40.768,60.864 39.917,57.377C39.607,56.103 37.88,55.175 36.403,53.991z"/><path fill="#f3f3f2" d="M145.259,35.081C148.01,35.067 150.299,35.067 152.752,35.067C152.903,36.1 153.062,36.722 153.072,37.346C153.106,39.33 153.085,41.316 153.085,43.637C149.842,43.637 146.77,43.637 142.334,43.637C143.198,40.64 143.998,37.867 145.259,35.081z"/><path fill="#ececec" d="M146.261,56.083C145.103,57.048 143.351,58.672 141.922,58.426C137.902,57.732 137.021,59.333 137.056,62.904C137.092,66.604 136.61,70.308 136.355,74.01C135.872,74.014 135.388,74.017 134.905,74.02C134.679,71.52 134.43,69.022 134.237,66.519C134.122,65.036 134.26,63.518 134.003,62.065C132.862,55.622 132.823,55.565 140.095,55.288C141.991,55.216 143.907,55.675 146.261,56.083z"/><path fill="#e8e8e8" d="M162.581,52.335C162.141,52.139 162.124,51.853 162.11,51.137C164.435,49.49 166.757,48.272 169.731,46.713C169.731,51.607 169.731,56.735 169.731,61.864C169.26,61.898 168.79,61.933 168.319,61.967C168.135,58.875 167.952,55.783 167.741,52.245C166.135,52.245 164.57,52.245 162.581,52.335z"/><path fill="#bababa" d="M21.695,46.605C22.12,46.994 22.091,47.248 22.016,47.689C21.293,48.667 20.196,49.341 19.915,50.263C19.434,51.841 19.463,53.574 19.278,55.242C18.797,55.196 18.316,55.15 17.835,55.105C17.835,50.822 17.835,46.54 17.835,42.258C18.103,42.187 18.371,42.117 18.639,42.046C19.524,43.523 20.41,44.999 21.695,46.605z"/><path fill="#cecfcf" d="M173.237,44.308C174.221,44.223 175.788,44.5 175.785,44.759C175.741,48.431 175.484,52.1 175.279,55.77C174.856,55.758 174.432,55.745 174.009,55.733C173.702,52.042 173.396,48.351 173.237,44.308z"/><path fill="#e5e5e6" d="M159.258,69.193C159.456,68.966 159.638,68.954 159.958,68.96C159.811,69.112 159.527,69.256 159.258,69.193z"/><path fill="#181818" d="M87.474,56.642C85.477,57.787 83.496,58.518 80.944,59.459C80.944,55.94 80.944,53.836 80.944,51.407C83.044,51.407 84.949,51.407 87.244,51.407C87.324,52.961 87.408,54.595 87.474,56.642z"/><path fill="#090909" d="M109.798,51.284C110.246,53.242 110.344,54.863 110.466,56.874C107.915,57.124 105.681,57.342 103.187,57.586C103.187,55.374 103.187,53.447 103.187,50.946C105.296,50.946 107.372,50.946 109.798,51.284z"/></svg>