<svg xmlns="http://www.w3.org/2000/svg" viewBox="0 0 216 113" xml:space="preserve"><path fill="#070707" d="M136.829,81.779C134.735,81.779 132.641,81.779 129.927,81.779C129.927,77.311 129.927,73.235 129.927,68.814C120.729,68.814 112.163,68.814 102.926,68.814C102.926,71.474 103.217,73.954 102.825,76.32C102.558,77.937 101.339,79.396 100.545,80.925C99.017,79.724 97.369,78.64 96.012,77.27C95.378,76.63 95.305,75.435 94.868,74.175C92.657,74.222 89.783,71.935 88.916,76.435C88.825,76.912 86.826,77.621 86.556,77.358C85.609,76.434 85.031,75.132 83.552,72.746C82.176,73.693 80.62,75.075 78.81,75.895C77.714,76.391 76.225,76.018 74.912,76.035C74.993,72.373 72.074,72.959 70.362,73.515C68.952,73.973 68.045,75.98 66.413,77.887C65.446,77.887 63.534,77.887 60.642,77.887C61.118,73.202 61.603,68.869 61.968,64.527C62.061,63.413 62.036,61.393 61.619,61.267C56.101,59.598 58.315,55.052 57.984,51.609C57.668,48.319 57.916,44.975 57.916,41.057C59.784,41.057 61.542,41.181 63.276,41.031C66.7,40.734 68.297,42.103 67.921,45.614C67.833,46.434 67.767,47.346 68.034,48.094C68.419,49.176 69.116,50.147 69.68,51.165C70.32,50.227 71.355,49.353 71.52,48.337C71.913,45.904 71.897,43.404 72.059,40.733C74.677,40.733 77.103,40.733 79.951,40.733C79.951,46.437 79.951,51.86 79.951,57.781C85.328,56.817 85.043,61.153 85.812,64.524C86.493,64.323 87.174,64.122 87.854,63.921C87.497,58.168 87.272,52.403 86.73,46.667C86.433,43.521 85.452,40.444 85.051,37.301C84.646,34.122 84.576,30.899 84.367,27.819C88.679,21.433 93.19,14.752 97.075,8.998C102.096,15.45 107.654,22.59 113.278,29.816C109.374,30.531 109.47,33.957 109.697,37.778C109.982,42.589 109.765,47.43 109.765,52.821C114.487,52.821 119.097,53.046 123.657,52.665C124.821,52.568 126.226,50.732 126.83,49.385C128.648,45.33 130.126,41.122 131.847,36.69C136.043,43.374 140.069,49.721 143.988,56.133C144.391,56.792 144.346,57.878 144.182,58.701C143.675,61.243 143.011,63.755 142.326,66.625C144.93,66.823 146.548,66.947 148.477,67.094C148.917,69.076 149.377,71.147 150.062,74.231C153.706,69.331 149.19,63.933 153.924,60.177C157.6,57.259 160.152,52.926 163.213,49.211C167.751,54.32 172.053,59.163 176.479,64.145C175.62,65.101 174.138,65.988 174.148,66.857C174.246,75.192 174.596,83.524 174.919,93.202C179.213,88.802 174.049,81.566 182.252,80.664C177.823,70.695 187.385,67.551 191.458,60.999C195.421,64.985 199.321,68.694 202.914,72.679C203.741,73.597 203.724,75.459 203.743,76.891C203.827,83.032 203.779,89.175 203.779,95.271C207.201,96.386 210.127,97.34 213.054,98.293C213.029,98.519 213.004,98.745 212.979,98.97C196.218,99.767 179.458,100.564 162.698,101.36C162.712,101.77 162.726,102.179 162.74,102.589C168.828,103.868 174.916,105.147 181.003,106.426C180.993,106.657 180.983,106.888 180.972,107.119C147.477,107.119 113.982,107.119 79.447,107.119C81.657,108.063 83.022,108.647 84.388,109.231C84.356,109.6 84.325,109.969 84.293,110.338C74.534,109.492 64.776,108.647 55.017,107.801C54.983,107.42 54.949,107.039 54.914,106.658C55.992,106.333 57.07,106.008 58.148,105.683C58.208,105.303 58.268,104.922 58.328,104.542C41.471,102.897 24.613,101.253 7.756,99.609C7.511,99.073 7.266,98.538 7.021,98.003C16.444,97.786 16.785,91.932 16.176,85.355C15.995,83.402 16.318,81.403 16.419,79.228C20.19,78.702 23.771,78.202 27.683,77.656C29.452,82.961 31.436,88.908 33.42,94.856C33.844,94.79 34.268,94.724 34.692,94.658C34.779,84.845 35.077,75.011 31.054,64.792C34.902,60.282 39.289,55.139 43.648,50.031C44.157,50.277 44.49,50.361 44.722,50.561C53.053,57.759 58.202,65.796 55.477,77.817C54.013,84.275 55.217,91.336 55.217,98.202C57.527,97.597 57.527,97.597 58.94,81.972C61.279,83.3 63.04,84.598 65.014,85.304C66.17,85.718 68.56,85.627 68.863,85.01C70.907,80.849 72.321,80.922 74.003,85.192C74.189,85.664 76.787,85.734 76.808,85.644C77.999,80.619 81.713,83.231 85.123,82.632C85.123,89.066 85.123,95.112 85.123,101.26C87.629,100.824 87.629,100.824 89.81,86.742C92.178,86.808 95.458,84.168 95.891,89.338C97.039,88.999 98.262,88.808 99.312,88.277C100.295,87.778 101.03,86.519 102,86.36C102.629,86.257 103.712,87.39 104.196,88.204C105.865,91.01 106.927,91.506 108.653,88.051C109.774,85.807 111.867,84.64 113.427,88.299C114.614,91.084 116.398,91.033 117.708,88.355C119.375,84.947 120.809,84.823 122.555,88.256C122.92,88.974 123.915,90.029 124.348,89.913C125.194,89.686 125.778,88.63 126.598,88.124C127.827,87.367 129.189,86.256 130.451,86.309C131.397,86.35 132.903,87.887 133.069,88.932C133.667,92.691 133.68,96.54 134.201,100.315C134.33,101.252 135.54,102.039 136.253,102.894C136.809,102.058 137.885,101.19 137.836,100.39C137.474,94.433 136.889,88.491 137.008,82.213C143.162,82.42 148.682,82.958 154.181,83.493C155.265,89.664 153.72,96.064 156.67,101.881C157.45,94.885 157.474,87.94 157.391,80.996C157.386,80.589 156.571,79.928 156.05,79.83C149.462,78.593 142.707,75.977 136.829,81.779M160.882,72.895C162.629,72.895 164.377,72.895 165.976,72.895C165.976,70.536 165.976,68.642 165.976,66.601C163.889,66.601 162.156,66.601 160.233,66.601C160.233,68.702 160.233,70.487 160.882,72.895M194.265,79.828C194.351,78.26 194.438,76.691 194.526,75.087C192.335,75.087 190.612,75.087 188.783,75.087C188.783,77.121 188.783,78.856 188.783,80.956C190.688,80.807 192.289,80.682 194.265,79.828M44.306,73.864C48.898,73.322 46.143,70.135 46.887,67.878C44.7,67.878 42.995,67.878 40.655,67.878C41.846,70.115 38.566,73.488 44.306,73.864M99.562,34.076C99.069,37.852 100.451,39.214 104.257,37.778C104.257,36.027 104.257,34.43 104.257,32.072C102.499,32.546 101.097,32.924 99.562,34.076M93.97,32.584C92.609,32.584 91.249,32.584 89.627,32.584C89.793,34.881 89.907,36.467 90.041,38.321C91.803,38.143 93.22,38 94.887,37.832C94.785,36.062 94.702,34.603 93.97,32.584z"/><path fill="#0c0c0b" d="M113.789,43.113C116.899,41.815 119.981,40.979 123.675,39.977C123.675,43.374 123.675,45.745 123.675,48.528C120.687,48.528 117.529,48.528 114.008,48.528C113.92,46.772 113.84,45.173 113.789,43.113z"/><path fill="#252526" d="M120.179,79.49C119.547,78.735 118.965,78.125 119.052,77.633C119.337,76.019 119.866,74.447 120.301,72.859C121.116,73.2 122.648,73.578 122.632,73.877C122.523,75.981 124.611,79.026 120.179,79.49z"/><path fill="#e4e4e4" d="M136.831,81.735C142.707,75.977 149.462,78.593 156.05,79.83C156.571,79.928 157.386,80.589 157.391,80.996C157.474,87.94 157.45,94.885 156.67,101.881C153.72,96.064 155.265,89.664 154.181,83.493C148.682,82.958 143.162,82.42 137.195,81.774C136.747,81.665 136.833,81.69 136.831,81.735z"/><path fill="#e5e6e6" d="M160.557,72.584C160.233,70.487 160.233,68.702 160.233,66.601C162.156,66.601 163.889,66.601 165.976,66.601C165.976,68.642 165.976,70.536 165.976,72.895C164.377,72.895 162.629,72.895 160.557,72.584z"/><path fill="#ececec" d="M194.077,80.193C192.289,80.682 190.688,80.807 188.783,80.956C188.783,78.856 188.783,77.121 188.783,75.087C190.612,75.087 192.335,75.087 194.526,75.087C194.438,76.691 194.351,78.26 194.077,80.193z"/><path fill="#e6e6e6" d="M43.853,73.866C38.566,73.488 41.846,70.115 40.655,67.878C42.995,67.878 44.7,67.878 46.887,67.878C46.143,70.135 48.898,73.322 43.853,73.866z"/><path fill="#e6e6e6" d="M99.628,33.689C101.097,32.924 102.499,32.546 104.257,32.072C104.257,34.43 104.257,36.027 104.257,37.778C100.451,39.214 99.069,37.852 99.628,33.689z"/><path fill="#e0e0e0" d="M94.294,32.864C94.702,34.603 94.785,36.062 94.887,37.832C93.22,38 91.803,38.143 90.041,38.321C89.907,36.467 89.793,34.881 89.627,32.584C91.249,32.584 92.609,32.584 94.294,32.864z"/></svg>