<svg xmlns="http://www.w3.org/2000/svg" viewBox="0 0 184 85" xml:space="preserve"><path fill="#090909" d="M137.9,73.063C136.687,73.565 135.364,74.013 135.246,74.674C134.933,76.437 135.14,78.291 135.14,80.042C131.316,80.673 131.316,80.673 130.613,71.963C129.605,71.694 128.526,71.333 127.418,71.13C126.287,70.923 125.128,70.873 123.92,70.747C122.317,72.71 124.672,77.76 119.238,76.524C118.77,73.511 118.445,70.408 117.682,67.417C117.539,66.856 115.65,66.74 113.858,66.208C115.916,73.867 110.864,74.524 105.807,74.841C101.251,75.127 96.669,75.091 92.102,75.016C91.313,75.003 90.54,74.088 88.735,72.936C98.312,67.846 107.136,63.157 115.905,58.497C114.026,54.96 111.042,54.075 107.191,54.613C104.243,55.025 101.049,56.037 98.649,52.81C98.223,52.236 96.432,52.763 95.291,52.62C92.131,52.224 88.202,55.236 85.923,50.356C85.633,49.735 83.039,49.852 81.621,50.147C66.855,53.214 52.11,56.381 37.363,59.542C36.287,59.772 35.246,60.169 33.952,60.56C33.373,58.838 32.92,57.487 32.347,55.78C28.87,57.141 23.839,53.954 21.665,59.967C23.879,60.705 25.611,61.282 27.343,61.859C27.307,62.321 27.272,62.784 27.236,63.246C23.934,63.585 20.632,63.924 17.029,64.294C16.688,61.399 16.402,58.968 16.116,56.537C15.812,56.783 15.509,57.03 15.205,57.277C12.605,54.268 10.005,51.26 7.405,48.252C7.75,47.794 8.095,47.336 8.44,46.878C9.97,47.114 11.5,47.351 13.324,47.632C13.598,46.7 13.939,45.539 14.492,43.659C16.259,45.16 17.675,46.364 19.14,47.609C25.936,44.501 25.936,44.501 24.733,36.321C23.271,36.105 21.7,35.872 18.987,35.471C24.565,29.329 29.584,23.744 34.71,18.259C35.147,17.792 36.292,17.929 37.113,17.891C43.431,17.595 49.755,17.096 56.069,17.186C58.019,17.213 60.449,18.405 61.789,19.863C65.488,23.888 68.727,28.336 73.11,33.82C66.089,34.929 59.885,35.908 53.68,36.887C53.79,37.467 53.899,38.046 54.009,38.625C57.505,38.625 61.001,38.625 64.716,38.625C64.99,41.406 65.212,43.658 65.445,46.018C67.447,46.018 69.241,46.018 71.26,46.018C71.783,42.916 72.278,39.975 72.864,36.492C76.664,39.246 79.708,41.453 83.683,44.335C83.683,37.767 83.683,32.807 83.683,29.366C87.161,26.994 90.288,25.787 92.028,23.516C99.651,13.573 109.361,12.124 120.594,15.488C121.849,15.864 123.23,15.977 124.549,15.959C133.52,15.833 141.025,18.639 146.4,26.247C147.723,28.121 149.673,29.551 150.584,30.447C150.322,36 150.095,40.791 149.861,45.731C152.038,46.166 153.779,46.513 155.166,46.789C155.96,44.371 156.736,42.008 157.512,39.646C158.076,39.705 158.641,39.764 159.205,39.823C159.833,42.29 160.462,44.756 161.225,47.755C161.99,47.988 163.296,48.384 164.166,48.648C165.203,45.67 166.122,43.032 167.041,40.395C167.642,40.433 168.242,40.47 168.843,40.508C169.296,43.733 169.749,46.959 170.265,50.63C172.927,53.323 178.533,52.995 181.617,58.571C176.449,58.571 172.561,58.571 168.439,58.571C167.948,60.498 167.601,61.86 167.34,62.886C170.897,64.457 174.194,65.913 177.49,67.37C177.313,67.984 177.136,68.599 176.959,69.214C173.508,68.796 170.057,68.379 165.828,67.867C165.828,69.691 166.134,71.498 165.743,73.14C165.345,74.816 164.264,76.33 163.481,77.915C162.709,76.274 161.697,74.697 161.24,72.973C160.869,71.574 161.165,69.999 161.165,67.656C149.892,67.656 138.756,67.656 127.888,67.656C134.156,68.94 140.753,70.29 147.559,71.684C147.645,73.231 147.965,74.564 147.714,75.777C147.485,76.877 146.634,77.848 146.057,78.875C145.329,78.039 144.022,77.236 143.97,76.359C143.722,72.204 140.332,73.94 137.9,73.063M128.89,36.133C133.766,36.133 138.643,36.133 143.52,36.133C143.792,35.448 144.065,34.763 144.337,34.079C141.207,30.408 138.077,26.737 135.121,23.27C125.825,29.065 116.776,34.543 121.959,47.508C123.396,47.508 125.006,47.508 126.635,47.508C127.094,43.657 127.533,39.972 128.89,36.133M104.705,31.847C101.408,31.465 98.116,30.876 94.811,30.785C93.147,30.739 91.457,31.596 89.779,32.045C91.029,33.009 92.279,33.973 93.937,35.251C94.061,37.618 94.215,40.559 94.369,43.512C96.304,44.053 97.982,44.523 100.169,45.135C100.169,42.118 100.169,39.462 100.169,36.555C102.424,36.816 104.207,37.023 106.714,37.314C106.156,40.036 105.657,42.466 105.078,45.291C106.906,45.584 109.303,45.967 111.982,46.396C111.982,41.836 111.982,37.572 111.982,33.025C109.773,32.649 107.68,32.293 104.705,31.847M37.637,26.737C32.954,32.831 29.554,39.188 32.845,46.917C33.338,47.006 33.831,47.095 34.325,47.184C34.654,44.319 34.984,41.455 35.314,38.588C37.025,38.588 38.42,38.588 39.906,38.588C40.108,41.461 40.292,44.056 40.539,47.559C43.312,46.726 47.017,46.532 47.398,45.306C48.179,42.79 48.009,39.251 46.726,36.984C44.568,33.169 41.237,30.017 37.637,26.737M152.44,63.358C154.847,63.358 157.253,63.358 159.905,63.358C159.798,60.966 159.728,59.393 159.672,58.118C151.767,58.118 144.334,58.118 136.631,58.118C136.476,59.951 136.36,61.335 136.189,63.363C141.538,63.363 146.498,63.363 152.44,63.358M134.026,43.102C133.789,45.277 133.552,47.451 133.31,49.663C136.339,49.663 138.579,49.663 140.702,49.663C140.702,47.257 140.702,45.185 140.702,42.896C138.525,42.896 136.709,42.896 134.026,43.102M117.912,59.31C120.965,60.572 124.019,61.834 127.683,63.348C127.683,60.738 127.683,59.518 127.683,57.763C124.326,58.009 121.246,58.234 117.912,59.31M121.055,65.03C120.626,65.501 120.197,65.972 119.768,66.442C121.678,66.933 123.588,67.423 125.498,67.913C125.657,67.321 125.816,66.73 125.976,66.139C124.59,65.758 123.204,65.378 121.055,65.03z"/><path fill="#111111" d="M48.562,67.703C63.975,61.043 79.86,57.762 95.848,54.897C96.06,55.388 96.272,55.879 96.484,56.37C95.183,57.07 93.946,57.943 92.573,58.44C81.533,62.442 70.506,66.482 59.392,70.268C55.416,71.622 51.387,71.49 48.562,67.703z"/><path fill="#0f1010" d="M65.38,71.452C80.128,66.077 94.126,59.593 109.22,56.497C109.437,56.871 109.654,57.244 109.872,57.618C109.008,58.335 108.244,59.258 107.264,59.738C97.321,64.604 87.526,69.856 77.275,73.966C73.681,75.407 68.942,73.994 64.725,73.884C64.837,73.147 64.949,72.41 65.38,71.452z"/><path fill="#131313" d="M70.79,53.905C75.712,53.364 80.198,52.874 84.683,52.384C84.77,52.984 84.856,53.584 84.943,54.184C68.977,56.048 54.516,64.264 38.155,64.59C47.403,56.415 59.246,56.31 70.79,53.905z"/><path fill="#f5f5f5" d="M128.431,36.21C127.533,39.972 127.094,43.657 126.635,47.508C125.006,47.508 123.396,47.508 121.959,47.508C116.776,34.543 125.825,29.065 135.121,23.27C138.077,26.737 141.207,30.408 144.337,34.079C144.065,34.763 143.792,35.448 143.52,36.133C138.643,36.133 133.766,36.133 128.431,36.21z"/><path fill="#efefef" d="M105.146,31.892C107.68,32.293 109.773,32.649 111.982,33.025C111.982,37.572 111.982,41.836 111.982,46.396C109.303,45.967 106.906,45.584 105.078,45.291C105.657,42.466 106.156,40.036 106.714,37.314C104.207,37.023 102.424,36.816 100.169,36.555C100.169,39.462 100.169,42.118 100.169,45.135C97.982,44.523 96.304,44.053 94.369,43.512C94.215,40.559 94.061,37.618 93.937,35.251C92.279,33.973 91.029,33.009 89.779,32.045C91.457,31.596 93.147,30.739 94.811,30.785C98.116,30.876 101.408,31.465 105.146,31.892z"/><path fill="#f1f1f1" d="M38.018,26.661C41.237,30.017 44.568,33.169 46.726,36.984C48.009,39.251 48.179,42.79 47.398,45.306C47.017,46.532 43.312,46.726 40.539,47.559C40.292,44.056 40.108,41.461 39.906,38.588C38.42,38.588 37.025,38.588 35.314,38.588C34.984,41.455 34.654,44.319 34.325,47.184C33.831,47.095 33.338,47.006 32.845,46.917C29.554,39.188 32.954,32.831 38.018,26.661z"/><path fill="#f4f4f4" d="M151.949,63.361C146.498,63.363 141.538,63.363 136.189,63.363C136.36,61.335 136.476,59.951 136.631,58.118C144.334,58.118 151.767,58.118 159.672,58.118C159.728,59.393 159.798,60.966 159.905,63.358C157.253,63.358 154.847,63.358 151.949,63.361z"/><path fill="#e7e7e7" d="M134.459,42.999C136.709,42.896 138.525,42.896 140.702,42.896C140.702,45.185 140.702,47.257 140.702,49.663C138.579,49.663 136.339,49.663 133.31,49.663C133.552,47.451 133.789,45.277 134.459,42.999z"/><path fill="#ededed" d="M118.039,58.885C121.246,58.234 124.326,58.009 127.683,57.763C127.683,59.518 127.683,60.738 127.683,63.348C124.019,61.834 120.965,60.572 118.039,58.885z"/><path fill="#161616" d="M121.437,65.014C123.204,65.378 124.59,65.758 125.976,66.139C125.816,66.73 125.657,67.321 125.498,67.913C123.588,67.423 121.678,66.933 119.768,66.442C120.197,65.972 120.626,65.501 121.437,65.014z"/></svg>