<svg xmlns="http://www.w3.org/2000/svg" viewBox="0 0 186 78" xml:space="preserve"><path fill="#070707" d="M114.968,12.625C118.942,12.624 122.422,12.624 126.085,12.624C126.496,10.912 126.912,9.174 127.358,7.316C130.723,6.57 133.127,6.317 133.355,11.099C133.468,13.47 135.235,15.986 136.795,18.022C141.012,23.529 145.519,28.814 150.521,34.933C147.679,35.586 145.705,36.04 143.421,36.565C143.421,38.593 143.421,40.697 143.421,43.133C153.208,45.041 163.155,46.981 173.103,48.921C173.086,49.398 173.069,49.874 173.052,50.351C172.405,50.564 171.738,51.009 171.114,50.955C162.365,50.198 153.594,48.503 144.886,48.791C134.81,49.123 124.79,51.185 114.746,52.495C114.57,53.332 114.394,54.168 114.218,55.004C116.778,56.318 119.404,57.522 121.879,58.983C123.742,60.083 125.411,61.512 127.167,62.794C125.52,64.408 124.082,67.073 122.188,67.451C114.427,68.999 106.546,70.017 98.67,70.887C94.885,71.305 91.016,70.959 86.954,70.153C90.106,69.076 93.596,68.529 96.326,66.788C99.783,64.584 105.005,61.554 105.182,58.62C105.466,53.937 99.357,53.837 95.502,52.692C92.659,51.848 89.692,51.418 86.012,50.642C86.739,48.182 87.322,45.9 88.091,43.684C89.203,40.476 88.774,37.606 85.904,35.699C81.51,32.779 81.99,30.098 84.847,26.036C94.166,12.788 93.988,12.663 109.974,12.634C111.474,12.631 112.973,12.629 114.968,12.625M95.654,28.237C91.316,33.337 91.334,39.078 92.632,45.007C93.173,45.098 93.714,45.189 94.255,45.28C94.667,42.016 95.078,38.752 95.478,35.579C98.098,35.579 100.364,35.579 102.852,35.579C103.093,39.189 103.318,42.544 103.559,46.163C106.057,46.045 107.963,45.956 109.718,45.873C112.579,35.202 105.022,29.227 100.632,21.404C98.792,23.885 97.412,25.747 95.654,28.237M136.138,43.159C136.138,41.208 136.138,39.258 136.138,36.933C133.654,37.068 131.776,37.17 129.855,37.274C129.855,40.306 129.855,42.855 129.855,46.282C132.343,45.382 134.207,44.708 136.138,43.159M115.064,41.562C115.143,43.002 115.223,44.442 115.321,46.204C117.15,46 118.539,45.845 119.819,45.702C119.819,42.67 119.819,40.062 119.819,37.486C115.618,37.108 115.618,37.108 115.064,41.562z"/><path fill="#060606" d="M43.856,66.113C37.074,65.717 30.762,65.371 24.453,64.975C18.22,64.584 11.991,64.144 5.484,62.554C10.522,60.934 15.561,59.313 20.625,57.684C20.625,54.819 20.625,52.024 20.625,48.945C19.128,48.769 17.633,48.977 16.639,48.367C15.693,47.787 14.469,45.729 14.735,45.387C19.789,38.908 25.046,32.587 30.418,26.041C32.3,28.425 33.488,29.931 34.082,30.684C36.216,28.476 37.608,25.897 39.656,25.175C42.92,24.022 46.706,23.904 48.898,28.693C49.107,24.262 49.315,19.83 49.537,15.085C51.739,15.085 53.625,15.085 55.769,15.085C55.975,17.85 56.167,20.44 56.404,23.631C72.717,18.906 76.587,33.318 85.932,40.959C84.026,41.975 83.25,42.526 82.386,42.811C81.471,43.113 80.472,43.163 79.575,43.312C78.076,52.085 78.838,53.288 87.127,55.529C89.366,56.135 91.71,56.511 93.809,57.438C96.772,58.748 97.032,61.146 94.207,62.556C91.486,63.914 88.266,64.664 85.211,64.87C79.578,65.251 73.399,63.611 68.364,65.396C60.133,68.313 52.317,66.147 43.856,66.113M51.403,48.458C48.75,45.386 45.902,42.459 43.5,39.202C41.128,35.986 38.613,36.345 35.834,38.205C28.162,43.339 26.435,47.828 28.529,57.291C30.216,57.209 31.943,57.126 34.008,57.026C34.008,53.692 34.008,50.788 34.008,47.741C37.6,47.554 40.829,47.387 44.225,47.21C44.62,50.692 44.949,53.581 45.274,56.448C47.583,56.448 49.477,56.448 51.534,56.448C51.534,53.823 51.534,51.539 51.403,48.458M66.264,54.919C71.664,52.591 67.354,48.677 68.46,45.115C65.881,45.543 64.016,45.852 61.971,46.191C61.971,48.383 61.568,50.47 62.118,52.264C62.464,53.391 64.239,54.08 66.264,54.919z"/><path fill="#111111" d="M156.613,63.328C151.117,61.777 146.038,60.331 140.968,58.856C135.64,57.306 130.32,55.727 124.784,54.099C132.44,50.557 159.065,54.988 167.785,62.553C164.201,62.843 160.617,63.132 156.613,63.328z"/><path fill="#1f201f" d="M151.243,50.616C160.941,51.714 170.278,52.655 178.707,57.1C178.577,57.676 178.447,58.251 178.317,58.827C167.97,56.468 157.623,54.109 146.329,51.534C148.429,51.105 149.635,50.859 151.243,50.616z"/><path fill="#f4f4f4" d="M95.843,27.923C97.412,25.747 98.792,23.885 100.632,21.404C105.022,29.227 112.579,35.202 109.718,45.873C107.963,45.956 106.057,46.045 103.559,46.163C103.318,42.544 103.093,39.189 102.852,35.579C100.364,35.579 98.098,35.579 95.478,35.579C95.078,38.752 94.667,42.016 94.255,45.28C93.714,45.189 93.173,45.098 92.632,45.007C91.334,39.078 91.316,33.337 95.843,27.923z"/><path fill="#eeeeee" d="M136.104,43.596C134.207,44.708 132.343,45.382 129.855,46.282C129.855,42.855 129.855,40.306 129.855,37.274C131.776,37.17 133.654,37.068 136.138,36.933C136.138,39.258 136.138,41.208 136.104,43.596z"/><path fill="#ececec" d="M115.069,41.112C115.618,37.108 115.618,37.108 119.819,37.486C119.819,40.062 119.819,42.67 119.819,45.702C118.539,45.845 117.15,46 115.321,46.204C115.223,44.442 115.143,43.002 115.069,41.112z"/><path fill="#efefef" d="M51.468,48.857C51.534,51.539 51.534,53.823 51.534,56.448C49.477,56.448 47.583,56.448 45.274,56.448C44.949,53.581 44.62,50.692 44.225,47.21C40.829,47.387 37.6,47.554 34.008,47.741C34.008,50.788 34.008,53.692 34.008,57.026C31.943,57.126 30.216,57.209 28.529,57.291C26.435,47.828 28.162,43.339 35.834,38.205C38.613,36.345 41.128,35.986 43.5,39.202C45.902,42.459 48.75,45.386 51.468,48.857z"/><path fill="#ebebeb" d="M65.819,54.942C64.239,54.08 62.464,53.391 62.118,52.264C61.568,50.47 61.971,48.383 61.971,46.191C64.016,45.852 65.881,45.543 68.46,45.115C67.354,48.677 71.664,52.591 65.819,54.942z"/></svg>