<svg xmlns="http://www.w3.org/2000/svg" viewBox="0 0 179 82" xml:space="preserve"><path fill="#080808" d="M166.503,59.68C150.035,60.449 134.181,59.307 116.994,55.565C118.519,53.584 119.287,51.779 120.647,50.977C124.243,48.856 124.778,46.787 121.76,43.501C116.816,38.12 111.747,32.854 106.218,26.995C111.508,22.261 116.52,17.776 121.792,13.058C121.052,11.97 120.17,10.674 119.301,9.398C122.209,4.54 124.207,9.127 125.762,9.63C127.997,9.078 129.57,8.69 131.143,8.301C131.296,9.544 131.198,10.893 131.67,11.999C132.198,13.238 133.049,14.5 134.095,15.33C140.871,20.705 147.787,25.905 154.541,31.308C156.078,32.538 157.16,34.338 158.452,35.875C156.788,37.16 155.124,38.445 153.228,39.91C153.228,43.458 153.228,47.662 153.228,51.865C153.622,51.906 154.016,51.948 154.41,51.989C154.687,49.392 154.964,46.796 155.267,43.953C157.498,44.504 159.536,45.007 160.955,45.358C163.242,47.153 159.729,53.351 166.332,50.501C166.897,57.311 173.295,55.242 177.597,57.899C173.698,58.533 170.328,59.081 166.503,59.68M134.519,41.503C134.519,45.249 134.519,48.996 134.519,53.098C137.011,52.971 138.904,52.874 140.962,52.768C140.962,48.672 140.962,44.937 140.962,40.833C138.84,40.833 136.916,40.833 134.519,41.503M131.35,29.17C129.96,27.232 128.569,25.293 127.063,23.193C123.893,28.107 121.066,32.489 118.239,36.87C119.026,37.582 119.812,38.295 120.599,39.007C122.634,35.908 124.67,32.81 126.62,29.842C129.81,32.403 132.536,34.591 135.262,36.779C135.592,36.387 135.922,35.994 136.251,35.601C134.771,33.641 133.291,31.682 131.35,29.17z"/><path fill="#070707" d="M49.84,15.5C52.638,15.718 55.437,15.92 58.231,16.18C58.5,16.205 58.946,16.576 58.958,16.805C59.45,26.324 69.324,28.335 73.384,34.955C74.092,36.111 73.939,37.796 73.822,39.751C72.306,41.733 71.152,43.199 69.998,44.666C69.479,45.635 68.452,46.651 68.535,47.566C68.828,50.785 69.501,53.969 69.753,57.714C69.314,58.679 69.153,59.096 68.991,59.513C51.735,64.622 34.332,64.772 16.407,60.664C16.001,59.892 16.001,59.523 16.001,59.154C19.686,58.246 23.37,57.337 27.424,56.338C27.424,53.4 27.699,50.39 27.283,47.48C27.126,46.378 25.374,45.505 24.168,43.808C23.95,42.612 23.912,42.136 23.873,41.659C31.554,35.474 39.276,29.337 46.879,23.058C48.226,21.944 49.081,20.234 50.072,17.993C49.934,16.625 49.887,16.062 49.84,15.5M58.039,57.473C58.346,53.459 58.653,49.445 58.964,45.371C56.053,45.371 54.002,45.371 51.924,45.371C51.924,49.595 51.924,53.49 51.924,57.48C53.936,57.568 55.578,57.64 58.039,57.473M60.601,33.877C59.005,31.38 57.409,28.882 55.813,26.385C55.575,35.579 60.52,43.137 65.929,43.597C64.286,40.568 62.643,37.539 60.601,33.877M34.082,45.817C34.082,49.23 34.082,52.643 34.082,56.298C35.924,56.298 37.421,56.298 38.798,56.298C38.798,52.409 38.798,48.85 38.798,45.076C37.215,45.076 35.929,45.076 34.082,45.817z"/><path fill="#070707" d="M76.001,40.21C81.527,33.328 89.552,28.426 92.702,19.198C94.563,19.198 96.678,19.198 97.387,19.198C99.855,22.757 101.569,25.787 103.815,28.351C108.31,33.481 113.134,38.321 117.739,43.356C119.034,44.773 120.039,46.454 121.465,48.409C119.323,49.056 117.801,49.516 116.111,50.027C116.111,53.893 116.111,57.687 116.111,61.396C118.8,62.871 121.449,64.325 124.099,65.778C123.984,66.249 123.869,66.72 123.754,67.191C103.915,67.191 84.076,67.191 62.605,67.191C66.714,65.741 69.549,64.512 72.505,63.761C75.567,62.983 76.903,61.517 76.514,58.219C76.188,55.459 76.447,52.629 76.447,49.83C76.03,50.04 75.614,50.251 75.197,50.461C73.805,48.91 72.412,47.359 71.388,45.362C73.172,43.348 74.587,41.779 76.001,40.21M88.093,43.813C93.039,44.157 97.984,44.501 104.329,44.943C100.751,40.487 98.135,37.227 95.055,33.391C92.568,36.921 90.409,39.986 88.093,43.813M100.297,57.284C100.445,59.012 100.594,60.74 100.765,62.732C103.122,62.618 104.867,62.533 106.66,62.446C106.66,57.837 106.66,53.669 106.66,49.372C104.494,49.372 102.726,49.372 100.295,49.372C100.295,51.831 100.295,54.109 100.297,57.284M88.832,58.185C88.832,55.268 88.832,52.351 88.832,49.06C86.795,49.266 85.439,49.403 84.083,49.54C84.083,52.969 83.868,55.962 84.197,58.895C84.315,59.948 85.743,60.854 86.574,61.827C87.312,60.91 88.05,59.993 88.832,58.185z"/><path fill="#080808" d="M75.678,40.149C74.587,41.779 73.172,43.348 71.425,44.945C70.904,44.94 70.717,44.906 70.264,44.769C71.152,43.199 72.306,41.733 73.753,40.124C74.482,40.017 74.919,40.053 75.678,40.149z"/><path fill="#080808" d="M15.673,59.116C16.001,59.523 16.001,59.892 16.001,60.538C15.213,60.815 14.425,60.815 12.564,60.815C14.055,59.884 14.7,59.481 15.673,59.116z"/><path fill="#080808" d="M23.605,41.79C23.912,42.136 23.95,42.612 23.994,43.447C23.779,43.178 23.557,42.549 23.605,41.79z"/><path fill="#080808" d="M69.258,59.49C69.153,59.096 69.314,58.679 69.669,58.141C69.751,58.502 69.638,58.984 69.258,59.49z"/><path fill="#080808" d="M49.55,15.676C49.887,16.062 49.934,16.625 49.984,17.611C49.745,17.307 49.502,16.58 49.55,15.676z"/><path fill="#ececec" d="M134.755,41.168C136.916,40.833 138.84,40.833 140.962,40.833C140.962,44.937 140.962,48.672 140.962,52.768C138.904,52.874 137.011,52.971 134.519,53.098C134.519,48.996 134.519,45.249 134.755,41.168z"/><path fill="#e9e9ea" d="M131.581,29.446C133.291,31.682 134.771,33.641 136.251,35.601C135.922,35.994 135.592,36.387 135.262,36.779C132.536,34.591 129.81,32.403 126.62,29.842C124.67,32.81 122.634,35.908 120.599,39.007C119.812,38.295 119.026,37.582 118.239,36.87C121.066,32.489 123.893,28.107 127.063,23.193C128.569,25.293 129.96,27.232 131.581,29.446z"/><path fill="#e8e8e8" d="M57.63,57.593C55.578,57.64 53.936,57.568 51.924,57.48C51.924,53.49 51.924,49.595 51.924,45.371C54.002,45.371 56.053,45.371 58.964,45.371C58.653,49.445 58.346,53.459 57.63,57.593z"/><path fill="#dfdfe0" d="M60.8,34.193C62.643,37.539 64.286,40.568 65.929,43.597C60.52,43.137 55.575,35.579 55.813,26.385C57.409,28.882 59.005,31.38 60.8,34.193z"/><path fill="#ececec" d="M34.363,45.446C35.929,45.076 37.215,45.076 38.798,45.076C38.798,48.85 38.798,52.409 38.798,56.298C37.421,56.298 35.924,56.298 34.082,56.298C34.082,52.643 34.082,49.23 34.363,45.446z"/><path fill="#e1e1e1" d="M88.172,43.431C90.409,39.986 92.568,36.921 95.055,33.391C98.135,37.227 100.751,40.487 104.329,44.943C97.984,44.501 93.039,44.157 88.172,43.431z"/><path fill="#e1e1e1" d="M100.296,56.836C100.295,54.109 100.295,51.831 100.295,49.372C102.726,49.372 104.494,49.372 106.66,49.372C106.66,53.669 106.66,57.837 106.66,62.446C104.867,62.533 103.122,62.618 100.765,62.732C100.594,60.74 100.445,59.012 100.296,56.836z"/><path fill="#d8d8d8" d="M88.81,58.63C88.05,59.993 87.312,60.91 86.574,61.827C85.743,60.854 84.315,59.948 84.197,58.895C83.868,55.962 84.083,52.969 84.083,49.54C85.439,49.403 86.795,49.266 88.832,49.06C88.832,52.351 88.832,55.268 88.81,58.63z"/></svg>