<svg xmlns="http://www.w3.org/2000/svg" viewBox="0 0 188 87" xml:space="preserve"><path fill="#090909" d="M189,63.667C175.542,64.304 162.076,64.423 148.633,65.052C145.527,65.197 142.503,67.086 139.442,68.173C139.539,68.827 139.636,69.482 139.734,70.136C151.309,70.136 162.884,70.136 174.459,70.136C174.471,70.968 174.482,71.801 174.494,72.633C163.423,72.893 152.353,73.256 141.28,73.383C129.973,73.513 118.664,73.412 106.941,73.412C106.565,76.3 106.254,78.689 105.895,81.45C104.249,81.45 102.555,81.45 100.532,81.45C100.361,78.984 100.204,76.704 100.002,73.77C97.781,73.954 95.566,74.138 93.945,74.272C92.511,77.108 91.299,79.505 90.087,81.902C88.839,80.111 87.592,78.321 85.924,75.927C84.747,76.093 82.657,76.388 79.988,76.765C79.988,78.912 80.327,80.936 79.872,82.762C79.553,84.04 78.149,85.047 77.23,86.175C76.302,85.079 74.974,84.119 74.545,82.854C73.984,81.195 74.133,79.296 73.958,77.289C69.838,76.998 65.889,76.719 61.561,76.413C61.254,78.183 60.959,79.884 60.607,81.909C58.888,81.909 57.191,81.909 55.639,81.909C55.347,81.272 55.11,80.988 55.097,80.693C54.727,72.373 54.553,72.219 46.295,71.811C40.851,71.542 35.411,71.191 29.526,70.422C29.009,69.235 28.935,68.503 28.861,67.77C35.186,67.603 41.514,67.502 47.833,67.199C48.831,67.152 49.786,66.195 50.761,65.659C49.761,65.134 48.772,64.177 47.759,64.151C35.435,63.829 23.107,63.664 10.781,63.399C9.147,63.364 7.521,63.007 5.891,62.798C5.951,62.253 6.011,61.708 6.072,61.163C24.656,61.163 43.241,61.163 61.837,61.163C61.517,63.92 61.216,66.515 60.872,69.484C63.273,69.484 65.205,69.484 67.641,69.484C67.805,67.396 67.981,65.154 68.171,62.734C73.249,62.734 78.198,62.734 83.458,62.734C83.759,64.64 84.034,66.373 84.401,68.696C86.426,68.552 88.487,68.406 90.592,68.256C90.872,66.587 91.11,65.164 91.386,63.524C95.991,63.165 100.409,62.82 105.074,62.456C104.965,60.144 104.881,58.365 104.786,56.357C102.2,55.883 99.819,55.447 96.956,54.923C97.156,56.574 97.322,57.943 97.627,60.461C93.941,60.056 89.676,60.808 87.219,59.042C83.223,56.171 79.616,56.644 75.511,57.36C73.119,57.777 70.667,57.848 68.009,57.271C69.03,56.704 70.052,56.138 71.438,55.368C70.616,54.864 70.112,54.285 69.602,54.28C58.109,54.157 46.449,52.879 35.175,54.42C26.479,55.609 18.057,56.093 9.47,55.115C8.024,54.95 6.719,53.556 5.349,52.73C6.722,51.612 7.939,50.034 9.511,49.499C11.331,48.879 13.463,49.178 15.919,49.055C15.919,45.85 15.919,42.628 15.919,38.972C14.395,38.625 12.555,38.206 10.45,37.726C16.212,31.884 21.842,26.277 27.324,20.528C28.375,19.426 29.539,17.717 29.445,16.373C29.16,12.302 32.683,11.971 34.259,12.684C41.742,16.074 49.062,13.305 56.278,12.435C61.166,11.845 64.308,12.584 67.348,16.499C71.217,21.482 75.766,25.934 79.939,30.688C80.711,31.567 81.092,32.788 81.653,33.851C80.646,34.276 79.671,34.814 78.626,35.1C77.029,35.537 75.384,35.8 73.433,36.204C73.286,37.839 73.142,39.44 72.924,41.867C87.953,45.57 102.833,49.236 117.713,52.902C117.613,53.476 117.513,54.05 117.413,54.624C114.561,55.603 111.709,56.582 108.431,57.707C112.348,59.657 112.348,59.657 128.935,53.87C128.935,52.109 128.935,50.316 128.935,48.428C127.093,47.939 125.397,47.489 123.558,47.001C128.56,40.839 133.268,34.873 138.218,29.115C138.988,28.219 140.862,27.943 142.226,27.942C150.556,27.933 158.887,28.048 167.215,28.227C168.464,28.254 170.148,28.425 170.87,29.22C174.854,33.609 178.603,38.211 182.432,42.741C181.87,42.788 181.308,42.835 180.746,42.882C179.897,44.733 179.032,46.577 178.214,48.442C178.091,48.723 178.187,49.101 178.182,49.434C178.016,59.647 178.015,59.647 188.611,62.119C189,62.444 189,62.889 189,63.667M23.041,41.658C23.041,44.435 23.041,47.212 23.041,50.333C25.817,50.192 27.887,50.087 30.463,49.957C30.463,45.01 30.463,40.585 30.463,35.828C34.904,35.828 38.804,35.828 42.813,35.828C43.005,40.09 43.181,44.016 43.37,48.228C45.213,48.038 46.598,47.896 47.416,47.813C51.341,35.554 42.259,30.048 35.755,22.767C32.656,25.875 29.925,28.995 26.795,31.643C23.855,34.13 22.501,36.964 23.041,41.658M150.184,42.335C148.114,40.018 146.044,37.702 144.084,35.508C136.829,41.771 133.86,49.064 136.729,58.69C142.077,56.254 138.339,50.978 140.431,47.676C142.762,47.676 145.17,47.676 148.18,47.676C148.18,51.202 148.18,54.408 148.18,57.941C151.051,57.541 153.277,57.231 155.186,56.964C157.278,50.722 155.421,46.287 150.184,42.335M120.591,68.045C119.813,68.463 119.036,68.881 117.616,69.645C125.012,69.645 131.529,69.645 139.32,69.645C135.016,68.161 132.051,67.138 129.086,66.115C129.159,65.757 129.232,65.399 129.305,65.042C126.657,65.994 124.01,66.946 120.591,68.045M61.022,38.821C60.042,40.859 59.062,42.897 57.815,45.49C61.222,45.49 63.054,45.49 65.796,45.49C63.459,43.184 68.524,38.194 61.022,38.821M59.367,30.174C56.661,28.334 55.398,23.842 49.257,25.293C52.751,28.382 55.245,30.757 57.956,32.85C58.547,33.306 59.913,32.759 60.922,32.674C60.562,32.013 60.202,31.352 59.367,30.174M163.395,46.9C158.357,48.124 161.691,51.624 160.988,54.433C167.331,53.775 164.723,49.949 163.395,46.9z"/><path fill="#070707" d="M89.4,31.836C91.1,31.587 92.396,31.42 93.933,31.22C93.933,28.646 93.933,26.213 93.933,23.457C91.461,23.151 88.932,22.838 85.048,22.358C90.145,18.272 94.919,15.443 98.358,11.46C103.802,5.154 110.3,3.954 117.872,5.133C118.688,5.26 119.531,5.215 120.361,5.258C136.665,6.11 137.802,6.666 147.702,19.17C148.451,20.116 148.739,21.426 149.908,24.08C138.176,19.499 132.99,26.592 129.248,34.152C125.339,42.051 119.838,41.842 112.759,40.416C105.122,38.877 97.299,38.277 89.579,37.12C88.127,36.902 86.78,35.991 85.384,35.4C86.588,34.239 87.792,33.078 89.4,31.836M104.267,18.86C99.884,25.829 100.018,32.188 104.765,32.832C105.008,30.587 105.25,28.342 105.52,25.843C107.517,25.93 109.258,26.007 110.941,26.081C111.237,28.891 111.494,31.333 111.754,33.81C114.256,33.81 116.455,33.81 119.338,33.81C118.854,30.567 119.228,27.249 117.841,25.032C115.165,20.755 111.494,17.101 108.096,13.02C107.016,14.681 105.855,16.467 104.267,18.86z"/><path fill="#141414" d="M113.282,48.825C101.445,46 90.018,43.264 78.776,40.572C88.317,37.362 120.118,43.665 122.521,49.971C119.378,49.595 116.534,49.255 113.282,48.825z"/><path fill="#151514" d="M122.573,76.454C134.982,76.307 147.003,76.417 159.025,76.527C159.094,77.079 159.164,77.632 159.233,78.184C158.525,78.564 157.826,79.254 157.105,79.277C146.457,79.623 135.806,79.912 125.154,80.134C122.985,80.179 120.916,79.805 122.573,76.454z"/><path fill="#1e1e1e" d="M124.274,85.98C119.901,85.327 115.995,84.703 111.578,83.997C115.918,81.316 140.705,81.801 145.538,85.684C138.606,85.793 131.674,85.901 124.274,85.98z"/><path fill="#4e4e4e" d="M28.447,67.624C28.935,68.503 29.009,69.235 29.096,70.339C26.992,70.504 24.875,70.299 22.757,70.093C22.766,69.473 22.775,68.852 22.785,68.231C24.534,67.98 26.283,67.73 28.447,67.624z"/><path fill="#f3f3f3" d="M23.043,41.198C22.501,36.964 23.855,34.13 26.795,31.643C29.925,28.995 32.656,25.875 35.755,22.767C42.259,30.048 51.341,35.554 47.416,47.813C46.598,47.896 45.213,48.038 43.37,48.228C43.181,44.016 43.005,40.09 42.813,35.828C38.804,35.828 34.904,35.828 30.463,35.828C30.463,40.585 30.463,45.01 30.463,49.957C27.887,50.087 25.817,50.192 23.041,50.333C23.041,47.212 23.041,44.435 23.043,41.198z"/><path fill="#f1f1f1" d="M150.428,42.6C155.421,46.287 157.278,50.722 155.186,56.964C153.277,57.231 151.051,57.541 148.18,57.941C148.18,54.408 148.18,51.202 148.18,47.676C145.17,47.676 142.762,47.676 140.431,47.676C138.339,50.978 142.077,56.254 136.729,58.69C133.86,49.064 136.829,41.771 144.084,35.508C146.044,37.702 148.114,40.018 150.428,42.6z"/><path fill="#f4f4f4" d="M120.977,67.972C124.01,66.946 126.657,65.994 129.305,65.042C129.232,65.399 129.159,65.757 129.086,66.115C132.051,67.138 135.016,68.161 139.32,69.645C131.529,69.645 125.012,69.645 117.616,69.645C119.036,68.881 119.813,68.463 120.977,67.972z"/><path fill="#eceded" d="M61.446,38.781C68.524,38.194 63.459,43.184 65.796,45.49C63.054,45.49 61.222,45.49 57.815,45.49C59.062,42.897 60.042,40.859 61.446,38.781z"/><path fill="#d8d7d8" d="M59.604,30.432C60.202,31.352 60.562,32.013 60.922,32.674C59.913,32.759 58.547,33.306 57.956,32.85C55.245,30.757 52.751,28.382 49.257,25.293C55.398,23.842 56.661,28.334 59.604,30.432z"/><path fill="#f6f7f7" d="M163.856,46.959C164.723,49.949 167.331,53.775 160.988,54.433C161.691,51.624 158.357,48.124 163.856,46.959z"/><path fill="#f0eff0" d="M104.481,18.556C105.855,16.467 107.016,14.681 108.096,13.02C111.494,17.101 115.165,20.755 117.841,25.032C119.228,27.249 118.854,30.567 119.338,33.81C116.455,33.81 114.256,33.81 111.754,33.81C111.494,31.333 111.237,28.891 110.941,26.081C109.258,26.007 107.517,25.93 105.52,25.843C105.25,28.342 105.008,30.587 104.765,32.832C100.018,32.188 99.884,25.829 104.481,18.556z"/></svg>