<svg xmlns="http://www.w3.org/2000/svg" viewBox="0 0 181 92" xml:space="preserve"><path fill="#090909" d="M182,65.6C161.906,66.358 141.812,66.699 121.719,67.097C119.614,67.139 117.515,67.52 115.413,67.743C115.311,68.228 115.209,68.713 115.107,69.197C119.773,70.45 124.439,71.703 129.105,72.956C129.058,73.269 129.01,73.582 128.962,73.895C123.999,74.65 119.035,75.405 114.071,76.16C114.037,76.583 114.003,77.007 113.969,77.43C124.473,79.083 134.977,80.735 145.481,82.388C115.853,85.907 86.38,83.204 56.844,80.764C71.414,75.25 87.504,75.766 101.96,70.045C102.232,69.349 102.503,68.653 102.774,67.957C100.508,66.665 98.243,65.374 95.106,63.587C103.862,60.928 110.792,58.823 118.014,56.63C118.014,54.879 118.014,53.14 118.014,51.358C116.487,50.836 114.981,50.322 112.448,49.456C119.363,40.896 125.882,32.827 132.34,24.833C150.913,30.954 159.773,36.947 170.511,50.766C168.766,51.022 167.263,51.243 165.578,51.49C165.578,53.193 165.578,54.751 165.578,55.767C171.113,58.089 176.184,60.217 181.628,62.172C182,63.067 182,64.133 182,65.6M124.869,57.38C125.068,60.234 123.901,64.354 130.052,62.136C130.052,58.76 130.052,55.219 130.052,51.816C133.095,51.816 135.476,51.816 138.353,51.816C138.353,55.752 138.353,59.315 138.353,62.642C141.094,62.642 143.32,62.642 145.399,62.642C148.574,50.55 139.273,44.064 134.34,34.804C129.921,42.069 123.321,47.399 124.869,57.38M157.912,52.62C156.313,52.62 154.715,52.62 153.087,52.62C153.087,55.764 153.087,58.49 153.087,61.42C155.06,61.221 156.667,61.058 158.462,60.877C158.462,58.164 158.462,55.716 157.912,52.62z"/><path fill="#090909" d="M30.372,39.375C33.553,32.108 39.067,31.346 46.089,30.845C56.611,30.094 63.8,33.004 68.709,42.485C70.126,45.22 71.38,50.43 77.456,47.436C75.646,44.048 74.012,40.509 71.94,37.247C69.809,33.893 67.249,30.809 64.918,27.663C68.72,21.127 68.73,21.105 75.097,24.052C79.319,26.006 83.639,27.801 87.657,30.116C89.948,31.435 91.72,33.654 94.551,36.215C94.551,32.809 94.551,30.62 94.551,28.456C90.979,27.352 87.391,26.244 83.255,24.966C84.423,22.395 85.35,20.353 86.371,18.103C92.241,18.103 98.299,17.045 103.806,18.335C113.583,20.627 117.21,27.7 115.534,39.027C106.42,39.027 97.186,39.027 87.951,39.027C87.796,39.508 87.641,39.989 87.485,40.469C88.876,41.209 90.216,42.073 91.667,42.663C95.202,44.099 98.905,45.176 102.304,46.872C103.861,47.649 104.86,49.543 106.113,50.93C104.587,52.227 103.198,54.413 101.513,54.671C92.81,56.002 84.031,56.835 75.28,57.852C73.248,58.088 71.221,58.368 69.192,58.627C69.096,59.108 69,59.588 68.904,60.068C73.066,61.875 77.228,63.681 81.39,65.488C81.285,65.95 81.181,66.413 81.076,66.875C56.949,70.918 32.799,71.445 7.105,66.779C9.439,65.586 10.493,64.989 11.593,64.495C16.702,62.204 21.824,59.941 27.384,57.471C27.819,54.296 29.644,50.48 24.057,48.518C26.231,45.359 28.19,42.51 30.372,39.375M51.645,54.95C51.645,56.902 51.645,58.855 51.645,60.783C55.38,60.903 55.38,60.903 56.523,52.57C60.544,51.215 60.2,54.057 60.335,56.529C60.564,60.714 60.595,60.713 63.788,60.776C64.799,51.218 64.799,51.218 56.505,38.431C54.651,44.37 53.135,49.226 51.645,54.95M33.073,52.648C33.073,55.1 33.073,57.552 33.073,60.004C33.597,60.332 34.122,60.661 34.646,60.99C35.699,59.831 37.533,58.75 37.656,57.499C38.003,53.978 39.602,54.376 41.787,55.284C41.923,57.124 42.04,58.705 42.175,60.531C43.976,60.44 45.397,60.369 46.859,60.296C46.859,56.935 46.859,53.889 46.859,50.728C42.617,50.728 38.666,50.69 34.718,50.771C34.177,50.782 33.648,51.381 33.073,52.648z"/><path fill="#f3f3f3" d="M124.865,56.915C123.321,47.399 129.921,42.069 134.34,34.804C139.273,44.064 148.574,50.55 145.399,62.642C143.32,62.642 141.094,62.642 138.353,62.642C138.353,59.315 138.353,55.752 138.353,51.816C135.476,51.816 133.095,51.816 130.052,51.816C130.052,55.219 130.052,58.76 130.052,62.136C123.901,64.354 125.068,60.234 124.865,56.915z"/><path fill="#e1e2e1" d="M158.187,52.944C158.462,55.716 158.462,58.164 158.462,60.877C156.667,61.058 155.06,61.221 153.087,61.42C153.087,58.49 153.087,55.764 153.087,52.62C154.715,52.62 156.313,52.62 158.187,52.944z"/><path fill="#f3f3f3" d="M51.632,54.516C53.135,49.226 54.651,44.37 56.505,38.431C64.799,51.218 64.799,51.218 63.788,60.776C60.595,60.713 60.564,60.714 60.335,56.529C60.2,54.057 60.544,51.215 56.523,52.57C55.38,60.903 55.38,60.903 51.645,60.783C51.645,58.855 51.645,56.902 51.632,54.516z"/><path fill="#ededed" d="M33.094,52.178C33.648,51.381 34.177,50.782 34.718,50.771C38.666,50.69 42.617,50.728 46.859,50.728C46.859,53.889 46.859,56.935 46.859,60.296C45.397,60.369 43.976,60.44 42.175,60.531C42.04,58.705 41.923,57.124 41.787,55.284C39.602,54.376 38.003,53.978 37.656,57.499C37.533,58.75 35.699,59.831 34.646,60.99C34.122,60.661 33.597,60.332 33.073,60.004C33.073,57.552 33.073,55.1 33.094,52.178z"/></svg>