<svg xmlns="http://www.w3.org/2000/svg" viewBox="0 0 213 157" xml:space="preserve"><path fill="#060606" d="M143.422 22.64c2.42.9 4.839 1.8 7.421 3.394.848 1.792 1.534 2.889 2.294 4.272.107.862.14 1.437.008 2.335-.772.651-1.378.98-2.277 1.131-3.822-2.114-7.35-4.053-11.07-6.185-.54-.266-.89-.338-1.536-.608-.069-1.634.161-3.069.306-3.972-6.238-8.714-15.353-6.851-23.786-6.864-3.533-.005-6.48 1.951-7.967 5.73-.66 1.676-2.273 3.065-3.681 4.333-1.198 1.078-3.096 1.506-4.036 2.723-3.716 4.813-5.282 9.437-1.711 15.727 3.91 6.886 6.044 14.78 8.952 22.235 1.055-2.097 1.48-4.549 1.384-6.98-.264-6.64-6.799-12.202-2.988-20.232 1.479 2.427 3.116 4.401 3.976 6.67 1.979 5.218 4.03 10.447 3.031 16.33-.191 1.127 1.458 2.568 2.258 3.863l1.935-.332c0-5.14 0-10.282.345-15.372 1.055-1.07 1.764-2.188 2.672-3.585-1.649-8.795 5.762-3.945 8.562-6.103.185 1.422-.034 2.604-.287 3.777-.255 1.18-.544 2.351-.818 3.526 1.364.098 2.837.574 4.072.22 3.217-.921 6.33-2.207 9.484-3.348-.715 1.768-1.977 2.656-3.063 3.722-3.34 3.28-6.612 6.627-9.911 9.948 0 0 .009.005-.334.14-1.662 4.293-1.797 7.987 3.382 9.586 1.08.424 2.16.849 3.74 1.587 1.753 1.737 3.005 3.16 4.256 4.583 6.192 9.647 11.36 20.042 20.141 28.031l4.301-2.516c14.689 10.188 27.234 23.744 45.555 28.659h-29.243c1.209 2.368 2.156 4.224 2.884 6.5-.22.417-.686.562-1.04.384-8.58-.74-16.809-1.269-25.03-1.881-3.32-.247-7.141.267-9.844-1.202-8.366-4.545-16.301-9.883-24.41-14.9-1.236-.765-2.512-1.465-3.77-2.195l-1.226 1.676c8.666 7.21 17.356 14.392 25.947 21.69.583.495.426 1.862.613 2.823-6.857.655-13.707 1.767-20.572 1.874-18.094.284-36.207.535-54.287-.03-8.168-.254-16.275-2.479-24.732-4.22-.32-1.075-.317-1.742.021-2.488 7.3.274 14.268.59 21.23.994 3.635.21 7.35.174 10.871.957 8.396 1.867 13.488.013 18.939-8.117-8.48-1.777-15.009 7.38-23.15 3.522l2.918-3.611-12.465 1.259 8-13.031-.904-.566c-3.53 2.125-7.061 4.25-10.665 6.006 1.199-4.01 2.471-7.651 3.743-11.292l-.761-.435-10.116 10.69c2.812.486 5.08.878 7.27 1.64-1.624 3.306-3.326 6.039-7.252 5.874-11.736.11-23.471.219-35.654.033-.403-.531-.36-.768-.317-1.005 7.3-2.927 14.693-5.641 21.874-8.834 8.653-3.848 15.69-9.897 21.66-17.213.734-.898 1.486-2.099 2.472-2.424 11.96-3.944 16.62-14.99 23.63-23.812 2.797-3.519 6.256-6.65 9.88-9.323 2.43-1.791 3.779-3.512 3.4-7.191-.561-2.222-1.111-3.726-1.661-5.23-1.82-3.141-3.19-6.113-8.135-5.797-2.79.178-5.77-2.635-8.942-4.652-.858-.883-1.438-1.215-2.018-1.546-.115-3.08-.23-6.158.153-9.692.836-1.522 1.176-2.589 1.516-3.656 2.82-6.705 9.348-6.18 14.866-7.71 2.202-.611 4.528-1.317 6.359-2.604 3.348-2.354 6.135-5.567 9.619-7.648 2.013-1.203 4.93-.894 7.86-.86a24 24 0 0 1 1.448 1.81l.95-1.455c12.35-2.202 18.945.495 23.353 10.233-.605.862-.688 1.253-.771 1.644zm-7.382 92.986.725.054c-.144-.343-.289-.685-.4-1.743l-11.57-18.822c-.286 9.077 3.562 15.64 11.245 20.511m-48.956-72.65 6.01 1.695 1.83-17.43c-2.803.462-4.891.596-6.85 1.172-4.78 1.406-7.207 9.824-3.753 14.134.694.1 1.388.2 2.763.43m7.164 43.789 4.066 7.993c2.544-5.119 4.469-9.367 6.79-13.386.558-.967 2.431-1.175 3.213-.978l-2.694 11.799 5.706-6.056c1.14 4.31 1.812 7.962 3.093 11.388 1.321 3.533 3.235 6.845 4.889 10.254 1.203-1.794 1.626-3.37 1.655-4.953.086-4.613-.193-9.242.11-13.836.117-1.786 1.406-3.496 2.161-5.24 1.877.825 4.081 1.278 5.55 2.569 1.866 1.641 3.136 3.961 4.664 5.989l1.522-1.186c.062-.913.365-1.888.147-2.727-1.023-3.932-1.554-8.195-3.53-11.603-1.287-2.222-4.998-4.746-7.19-4.398-5.326.845-10.4 3.287-16.28 5.373-1.01-.304-2.096-.46-3.02-.935-8.414-4.33-6.578-4.639-13.742 3.44L84.262 94.72l1.853 1.049c1.365-2.274 2.57-4.669 4.156-6.776.905-1.2 2.433-1.932 3.978-2.226m4.718 22.958-2.645 12.926c7.377-7.164 8.824-12.098 6.96-21.721-1.459 2.943-2.73 5.504-4.315 8.795m47.27 1.496c2.155 2.344 3.386 6.011 8.124 5.568l-12.433-17.166-1.804 1.166c1.95 3.25 3.898 6.5 6.112 10.432m-28.106 19.094-4.812 5.296.599 1.11 6.859-2.538c-.65-1.39-1.299-2.78-2.646-3.868M70.347 117.07c-.405.155-.842.264-1.195.499-.092.062.076.516.125.79.51-.19 1.021-.38 1.07-1.289"/><path fill="#f7f7f7" d="M127.404 58.996c2.886-3.322 6.158-6.67 9.498-9.95 1.086-1.065 2.348-1.953 3.063-3.72-3.154 1.14-6.267 2.426-9.484 3.347-1.235.354-2.708-.122-4.072-.22.274-1.175.563-2.347.818-3.526.253-1.173.472-2.355.287-3.777-2.8 2.158-10.21-2.692-8.82 6.25-1.274.312-2.092.2-2.96.081l.201 3.307V66.21l-1.935.332c-.8-1.295-2.45-2.736-2.258-3.863 1-5.883-1.052-11.112-3.03-16.33-.86-2.269-2.498-4.243-3.977-6.67-3.81 8.03 2.724 13.593 2.988 20.232.096 2.431-.329 4.883-1.384 6.98-2.908-7.455-5.042-15.349-8.952-22.235-3.571-6.29-2.005-10.914 1.711-15.727.94-1.217 2.838-1.645 4.036-2.723 1.408-1.268 3.021-2.657 3.681-4.334 1.487-3.778 4.434-5.734 7.967-5.729 8.433.013 17.548-1.85 23.786 6.864-.145.903-.375 2.338-.153 4.225.826.484 1.2.517 1.575.55 3.528 1.937 7.056 3.876 10.99 6.335 1.084 1.034 1.763 1.547 3.389 2.775l-1.058-4.573c-.033-.576-.067-1.151.025-2.054.125-.328.532-.311.532-.311 2.035.185 4.07.37 6.101 1.21.78 1.833 1.448 3.11 2.363 4.172 4.716 5.475 3.004 10.761-4.211 12.629-3.432.888-6.951 1.45-10.364 2.4-4.42 1.23-8.771 2.699-14.195 4.39l4.428 2.283c-3.391.653-6.783 1.305-10.586 1.958"/><path fill="#f1f1f1" d="M143.22 142.113c-.494-1.114-.337-2.481-.92-2.976-8.591-7.298-17.281-14.48-25.947-21.69l1.227-1.676c1.257.73 2.533 1.43 3.768 2.194 8.11 5.018 16.045 10.356 24.41 14.901 2.704 1.47 6.524.955 9.844 1.202 8.222.612 16.45 1.14 25.025 2.24.36 1.253.37 1.97.38 2.686-3.372.001-6.743.002-10.806-.28-1.638-.38-2.584-.476-3.899-.599-2.36.602-4.406 1.1-6.333 1.889-3.936 1.613-7.809 3.384-11.708 5.09a440 440 0 0 0-5.04-2.98"/><path fill="#0c0c0c" d="M138.458 57.023c-1.556-.545-2.644-1.106-4.896-2.267 5.424-1.692 9.776-3.161 14.195-4.391 3.413-.95 6.932-1.512 10.364-2.4 7.215-1.868 8.927-7.154 4.211-12.629-.915-1.063-1.584-2.339-2.333-3.878 4.463-.705 8.528-.45 11.388 3.85 4.965 7.466 1.186 18.278-7.774 19.802-8.102 1.378-16.448 1.322-25.155 1.913"/><path fill="#ededed" d="M50.988 131.387c3.94-.236 5.64-2.969 7.232-6.238.048-.33-.03-.27-.03-.27l10.592-6.376.904.566-8 13.03 12.465-1.258-2.917 3.61c8.14 3.86 14.669-5.298 23.149-3.521-5.451 8.13-10.543 9.984-18.939 8.117-3.521-.783-7.236-.746-10.871-.957-6.962-.405-13.93-.72-21.611-1.068a24 24 0 0 1-2.976-.492c2.646-.845 5.334-1.58 7.919-2.583 1.132-.44 2.053-1.423 3.083-2.56"/><path fill="#111" d="M148.34 145.51c3.82-2.122 7.693-3.893 11.63-5.506 1.926-.79 3.972-1.287 6.295-1.52a49 49 0 0 1 1.677 2.623l16.546 3.605c-10.046 4.972-22.458 7.345-36.07 4.424 0-.744 0-1.976-.078-3.625"/><path fill="#19191a" d="M72.713 54.025c-3.58-1.956-5.54-4.466-4.718-8.45 3.219-.126 6.918 2.923 10.145 8.545-1.905 0-3.495 0-5.427-.095"/><path fill="#f7f7f7" d="M130.192 68.46c-5.332-1.338-5.197-5.032-3.538-9.33.555 1.907.77 3.952 1.04 6.53l5.271-1.709c-1.261 2.045-1.94 3.146-2.773 4.509"/><path fill="#0f0e0f" d="M39.555 136.646c1.184.05 1.937.215 3.071.455.38.74.377 1.408.377 2.408-3.9-.236-7.804-.805-11.708-1.375l.108-.945c2.574-.143 5.148-.285 8.152-.543"/><path fill="#f7f7f7" d="M137.987 74.511c-1.203-1.043-2.455-2.466-3.845-4.207.472-2.659 1.586-3.002 2.695-.758.68 1.374.754 3.047 1.15 4.965"/><path fill="#dfdfdf" d="M181.4 138.995c-.404-.717-.414-1.434-.418-2.51.005-.358.471-.503.708-.562 1.441.583 2.645 1.225 5.004 2.482-2.35.283-3.625.436-5.294.59"/><path fill="#0f0f10" d="M153.825 29.615c.043.339-.364.322-.563.364-.885-1.056-1.57-2.153-2.252-3.633.926.722 1.849 1.826 2.815 3.27M96.284 56.358c.55 1.133 1.1 2.637 1.655 4.462-4.189.22-1.89-2.323-1.655-4.462"/><path fill="#ededed" d="M14.736 129.877c.251.374.208.61.136 1.208-.93-.025-1.829-.41-2.728-.794.766-.184 1.532-.367 2.592-.414"/><path fill="#0f0f10" d="M119.84 11.854c-.196.808-.512 1.293-.829 1.778-.343-.468-.687-.937-1.035-1.693.578-.328 1.162-.368 1.865-.085m-41.293 18.94c-.029.917-.369 1.984-1.065 3.131.014-.94.384-1.961 1.065-3.131"/><path fill="#dfdfdf" d="M168.066 140.83c-.572-.465-1.021-1.206-1.433-2.318.984-.274 1.93-.178 3.108.195-.363.8-.958 1.323-1.675 2.123"/><path fill="#0f0f10" d="M77.147 44.274c.623.05 1.203.38 1.83.978-.594-.055-1.234-.375-1.83-.978"/><path fill="#f6f7f7" d="M108.825 77.48c5.176-1.798 10.25-4.24 15.577-5.085 2.19-.348 5.902 2.176 7.19 4.398 1.975 3.408 2.506 7.671 3.529 11.603.218.84-.085 1.814-.147 2.727l-1.522 1.186c-1.528-2.028-2.798-4.348-4.665-5.99-1.468-1.29-3.672-1.743-5.549-2.568-.755 1.744-2.044 3.454-2.162 5.24-.302 4.594-.023 9.223-.109 13.836-.03 1.583-.452 3.16-1.655 4.953-1.654-3.409-3.568-6.72-4.889-10.254-1.28-3.426-1.953-7.079-3.093-11.388l-5.706 6.056c1.027-4.495 1.86-8.147 3.018-12.438.277-1.185.23-1.73.183-2.275"/><path fill="#f2f2f2" d="M108.473 77.625c.399.401.446.946.413 1.754-1.35.82-3.223 1.027-3.781 1.994-2.321 4.02-4.246 8.267-6.79 13.386-1.802-3.542-2.934-5.768-4.204-8.69.592-3.03.76-5.156-2.148-6.149 6.56-7.726 4.724-7.416 13.139-3.087.923.475 2.01.631 3.371.792"/><path fill="#efefef" d="M84.033 42.085c-3.165-3.848-.738-12.266 4.043-13.672 1.958-.576 4.046-.71 6.85-1.173l-1.831 17.43c-1.84-.518-3.925-1.106-6.5-2.06a16.4 16.4 0 0 1-1.687-1.962z"/><path fill="#e5e5e5" d="M135.929 115.075c-7.571-4.32-11.419-10.883-11.133-19.96 3.856 6.274 7.713 12.548 11.453 19.286-.117.463-.32.674-.32.674"/><path fill="#f1f2f2" d="M99.125 109.36c1.428-2.927 2.698-5.488 4.158-8.431 1.863 9.623.416 14.557-6.961 21.72 1.061-5.185 1.853-9.055 2.803-13.29"/><path fill="#f0f1f1" d="M146.104 110.88a771 771 0 0 0-5.98-10.092l1.804-1.166 12.433 17.166c-4.738.443-5.97-3.224-8.257-5.908"/><path fill="#e4e4e5" d="M91.66 80.097c3.21.816 3.043 2.943 2.303 5.648-1.259 1.315-2.787 2.046-3.692 3.247-1.586 2.107-2.79 4.502-4.156 6.776l-1.853-1.049c2.366-4.815 4.731-9.63 7.399-14.622"/><path fill="#f0f1f0" d="M58.3 124.78c-2.237-.43-4.505-.822-7.317-1.308l10.116-10.69.761.435c-1.272 3.641-2.544 7.282-3.743 11.292.073.37.15.31.183.271"/><path fill="#e9e9e9" d="M118.479 130.163c.998 1.238 1.648 2.629 2.297 4.02q-3.43 1.267-6.86 2.537l-.598-1.11c1.604-1.765 3.208-3.53 5.16-5.447"/><path fill="#f0eff0" d="M116.28 50.838c-.411-1.148-.478-2.245-.546-3.357.868.119 1.686.23 2.762.196a11.3 11.3 0 0 1-2.216 3.16"/><path fill="#0f0f10" d="M153.145 32.641c.433.83.7 1.984 1.224 4.251-1.626-1.228-2.305-1.74-3.096-2.599.494-.673 1.1-1.001 1.872-1.652m-68.967 9.675c.147-.71.439-1.19.73-1.668.4.531.799 1.063 1.347 1.897-.545.202-1.239.102-2.077-.23"/><path fill="#ededed" d="M70.578 117.429c-.28.549-.79.739-1.3.929-.05-.274-.218-.728-.126-.79.353-.235.79-.344 1.426-.14"/><path fill="#0f0f10" d="M143.353 22.624c-.224.488-.517.959-.81 1.43a5 5 0 0 1 .467-1.375c.217-.202.274-.072.343-.055"/><path fill="#e5e5e5" d="M136.232 114.758c.245.237.39.58.534.922-.242-.018-.483-.036-.781-.33-.056-.275.147-.486.247-.592"/><path fill="#0f0f10" d="M139.798 27.587c-.182.162-.557.129-1.084-.157.195-.18.544-.109 1.084.157"/></svg>