<svg xmlns="http://www.w3.org/2000/svg" viewBox="0 0 145 149" xml:space="preserve"><path fill="#080909" d="M87.991 95.164H71.943c0 6.52-.196 13.28.071 20.02.168 4.238-1.72 5.38-5.457 7.209-6.66 3.259-12.45 8.336-18.464 12.84-1.738 1.301-2.998 3.24-5.37 5.883l-9.76-.99c9.355-5.825 17.857-11.786 22.083-21.98.6-1.445-.644-3.653-1.221-6.396-6.695 6.27-12.591 12.06-18.81 17.48-2.367 2.062-5.454 3.313-8.255 4.855-1.415.779-2.883 1.5-4.4 2.045-3.881 1.397-7.803 2.682-11.709 4.011l-.772-1.39c.383-.756.568-1.803 1.182-2.222 3.283-2.245 6.525-4.625 10.055-6.42 10.456-5.314 13.523-14.88 14.825-25.372 1.633-13.158 2.944-26.356 4.404-39.536.07-.635.585-1.561.33-1.843-6.853-7.574-3.731-17.04-4.987-26.096H26.35l42.49-27.36 45.43 25.37-.323 1.477c-2.512.149-5.05.59-7.53.37-2.865-.251-3.64 1.065-3.392 3.463.545 5.28 1.127 10.556 1.816 15.818.437 3.336.432 6.136-3.521 7.629-1.166.44-2.457 2.699-2.355 4.02 1.372 17.675 3.435 35.298 9.349 52.1 1.095 3.111 4.921 5.69 8.055 7.567 6.682 4.006 13.736 7.39 20.74 12.285-14.073 1.017-28.146 2.034-42.774 2.67-3.11-2.722-5.827-4.913-8.177-7.444-2.743-2.956-5.167-3.141-7.835-.05-.904 1.047-1.995 1.932-3.992 3.837 3.856 0 6.678-.444 9.256.156 1.734.404 3.123 2.285 4.667 3.506-10.575.878-21.185 2.33-31.751-1.114 2.576-2.932 4.59-5.255 6.638-7.547 3.69-4.13 8.529-7.711 10.785-12.51 2.194-4.668 1.887-10.562 2.38-15.945.14-1.525-.764-3.146-.902-5.21 1.065-.942 1.843-1.395 2.62-1.848 3.106-.06 6.212-.12 9.942-.499 1.22-.886 1.817-1.454 2.414-2.021zm-3.155 25.372c6.243 8.487 15.15 15.106 18.983 14.082-4.902-9.358-12.037-16.5-21.908-21.368.806 2.25 1.612 4.499 2.925 7.286M51.552 30.097c8.546-5.18 18.084-3.03 28.476-3.792-4.817-3.113-8.478-7.645-13.583-6.12-7.152 2.135-13.842 5.818-20.729 8.839l.447 1.252c1.544 0 3.088 0 5.39-.179m27.613 54.308c3.553 5.968 3.553 5.968 10.017 4.698L73.035 73.895 71.7 74.987V89.81h6.1l-3.561-8.129.86-.694c1.203.937 2.406 1.874 4.067 3.417m7.073-6.232 6.982 7.854-1.578-23.803-12.093 9.87c3.217 2.928 4.677 4.257 6.69 6.079m-28.537 3.96c2.274-2.327 6.968-3.083 4.894-9.079-8.2 3.172-10.97 11.663-17.756 16.23 7.726 3.091 8.901-3.633 12.862-7.151m33.627 20.279-5.802 5.006 10.71 8.249 1.263-.904-1.947-14.728c-1.59.882-2.566 1.423-4.224 2.377m-48.474 3.722-2.732 12.014 11.504-10.497-8.689-9.19c0 2.936 0 4.88-.083 7.673m10.1-33.443-7.358-7.74-1.35 17.297 1.276.633c2.5-3.154 5-6.308 7.433-10.19m12.83-33.958-9.667-1 .604 8.68 9.212-1.075c0-2.43 0-4.073-.149-6.605m-2.337 58.13c-.067-.57-.126-1.639-.202-1.64-5.102-.079-10.205-.071-16.319-.071l6.178 6.592c3.669-1.654 6.698-3.02 10.343-4.88m-5.898 13.821 4.493 7.788 1.328-.358V103.68c-3.36.85-6.507 1.832-5.82 7.004m39.162-72.24-8.136-.532c.21 8.867.39 9.047 5.855 8.175 4.965-.793 2.499-4.507 2.28-7.643m-15.712 4.677.532-4.958h-9.519l.714 8.74c2.901-1.015 5.545-1.94 8.273-3.782m-36.455-5.054-2.393 7.901h8.422V38.08c-1.857 0-3.478 0-6.029-.013M61.083 65.3c-1.02-3.725-4.747-4.449-9.28-1.803 5.258 6.664 6.289 6.954 9.28 1.803m-9.93-12.034c.064-7.51-4.908-3-8.761-3.847.676 2.308.966 5.131 1.627 5.221 2.376.323 4.877-.278 7.134-1.374m12.818-4.23c-3.993-.124-8.358-.756-7.577 6.07 2.093-.153 4.231-.07 6.255-.513 3.044-.664 4.279-2.374 1.322-5.556m8.11 3.162c.583 7.042 5.59.49 8.192 4.042l-.427-7.143c-3.049.883-5.381 1.559-7.766 3.101M75.8 68.82l3.445-3.945-6.843-2.681-.992.979c1.48 1.827-2.29 6.099 4.39 5.647m13.867-18.83c.038 1.572-.288 4.362.176 4.5 1.765.524 3.822.391 5.681.038.446-.085.96-2.782.745-2.89-1.456-.733-3.096-1.107-4.687-1.56-.306-.088-.657-.015-1.915-.089M63.523 86.498l-.543-1.37-5.47 4.601c1.941-1.358 6.35 3.39 6.013-3.231"/><path fill="#eeefee" d="M88.53 142.831c-1.82-1.376-3.21-3.257-4.943-3.661-2.578-.6-5.4-.156-9.256-.156 1.997-1.905 3.088-2.79 3.992-3.837 2.668-3.091 5.092-2.906 7.835.05 2.35 2.531 5.067 4.722 7.738 7.397-1.62.343-3.355.353-5.367.207"/><path fill="#f3f3f3" d="M77.925 98.192c-.678.763-1.456 1.216-2.558 1.79-.246-1.685-.554-3.976 2.558-1.79m10.067-2.7c.795-.056 1.592.217 2.388.49-.597.567-1.193 1.135-2.092 1.755-.3-.604-.297-1.26-.296-2.245"/><path fill="#f4f4f4" d="M23.291 139.893c-.084-.299.008-.694.224-.78.174-.07.498.233.755.371-.25.149-.5.298-.979.41m4.156-.363c-.034-.056.034.057 0 0"/><path fill="#f2f2f2" d="M84.583 120.267c-1.06-2.518-1.866-4.768-2.672-7.017 9.871 4.868 17.006 12.01 21.908 21.368-3.833 1.024-12.74-5.595-19.236-14.351"/><path fill="#ededed" d="M51.174 30.186c-1.923.09-3.467.09-5.011.09l-.447-1.252c6.887-3.021 13.577-6.704 20.729-8.84 5.105-1.524 8.766 3.008 13.583 6.12-10.392.762-19.93-1.386-28.854 3.882"/><path fill="#e9e9e9" d="M78.937 84.102c-1.432-1.24-2.635-2.177-3.837-3.114l-.861.694 3.56 8.13h-6.1V74.986l1.336-1.092 16.148 15.208c-6.464 1.27-6.464 1.27-10.246-5.001"/><path fill="#f6f6f6" d="M85.963 77.926c-1.736-1.575-3.196-2.904-6.413-5.832l12.093-9.87 1.578 23.803c-2.967-3.338-4.974-5.596-7.258-8.101"/><path fill="#f0f0f0" d="M57.445 82.398c-3.703 3.253-4.878 9.977-12.604 6.887 6.787-4.568 9.557-13.06 17.756-16.23 2.074 5.995-2.62 6.75-5.152 9.343"/><path fill="#f2f3f2" d="M91.671 102.206a412 412 0 0 1 3.883-2.171l1.947 14.728-1.263.904-10.71-8.25c2.166-1.868 3.984-3.436 6.143-5.211"/><path fill="#eff0ef" d="M42.898 105.71c.041-2.368.041-4.313.041-7.25l8.689 9.19-11.504 10.498c1.083-4.762 1.907-8.388 2.774-12.438"/><path fill="#f4f4f4" d="M52.99 73.055c-2.465 3.518-4.966 6.672-7.466 9.826l-1.277-.633 1.35-17.296c3.095 3.254 5.227 5.496 7.394 8.103"/><path fill="#eeefef" d="M65.862 39.177c.074 2.088.074 3.732.074 6.16l-9.212 1.077-.604-8.68c3.31.341 6.488.67 9.742 1.443"/><path fill="#e8e9e8" d="M63.142 97.111c-3.337 1.614-6.366 2.98-10.035 4.633l-6.178-6.592c6.114 0 11.217-.008 16.319.07.076.002.135 1.07-.106 1.89"/><path fill="#f3f3f3" d="M57.327 110.364c-.461-4.85 2.686-5.832 6.046-6.683v14.434l-1.328.358a890 890 0 0 0-4.718-8.11"/><path fill="#eff0ef" d="M97.035 38.72c-.102 2.861 2.364 6.575-2.601 7.368-5.465.872-5.644.692-5.855-8.175 2.733.179 5.434.356 8.456.807"/><path fill="#f2f2f2" d="M80.96 43.58c-2.686 1.384-5.33 2.31-8.231 3.324l-.714-8.74h9.519a1372 1372 0 0 0-.574 5.416"/><path fill="#e9eae9" d="M45.013 38.075c2.085.006 3.706.006 5.563.006v7.888h-8.422c.836-2.758 1.614-5.33 2.859-7.894"/><path fill="#e4e4e4" d="M61.125 65.718c-3.033 4.734-4.064 4.444-9.323-2.22 4.534-2.646 8.26-1.922 9.323 2.22"/><path fill="#e9eae9" d="M51.251 53.69c-2.355.673-4.856 1.274-7.232.951-.66-.09-.95-2.913-1.627-5.221 3.853.847 8.825-3.663 8.86 4.27"/><path fill="#eff0f0" d="M64.363 49.176c2.565 3.044 1.33 4.754-1.714 5.418-2.024.442-4.162.36-6.255.514-.78-6.827 3.584-6.195 7.97-5.932"/><path fill="#eaeaea" d="M72.107 51.767c2.358-1.11 4.69-1.785 7.739-2.668l.427 7.143c-2.602-3.551-7.609 3-8.166-4.475"/><path fill="#ebecec" d="M75.421 68.924c-6.302.348-2.532-3.924-4.01-5.75l.99-.98 6.844 2.682c-1.389 1.59-2.417 2.768-3.824 4.048"/><path fill="#eceded" d="M90.13 50.027c.795.037 1.146-.036 1.452.052 1.591.453 3.23.827 4.687 1.56.215.108-.299 2.805-.745 2.89-1.859.353-3.916.486-5.681-.038-.464-.138-.138-2.928.288-4.464"/><path fill="#f1f2f1" d="M63.683 86.857c.178 6.261-4.232 1.514-6.173 2.872l5.47-4.6c-.02-.052.262.658.703 1.728"/></svg>