<svg xmlns="http://www.w3.org/2000/svg" viewBox="0 0 157 171" xml:space="preserve"><path fill="#0f0f0f" d="M28.182,140.01C26.987,138.562 25.791,137.115 24.596,135.668C24.087,135.937 23.579,136.206 23.071,136.475C23.866,140.128 24.661,143.78 25.556,147.893C21.81,145.965 18.219,144.116 14.304,141.786C13.793,141.074 13.608,140.843 13.422,140.612C13.27,141.043 13.119,141.475 12.968,141.906C12.539,142.866 12.11,143.825 11.288,144.236C10.403,142.8 9.911,141.911 9.42,141.023C8.343,139.702 7.266,138.38 6.189,137.058C6.452,136.697 6.715,136.335 6.978,135.973C8.892,136.64 10.806,137.306 13.803,138.35C11.853,133.647 10.19,129.638 8.527,125.63C8.792,125.312 9.057,124.994 9.322,124.676C12.114,127.462 14.905,130.247 17.911,133.247C18.556,129.561 19.569,125.546 19.89,121.477C20.242,117.009 20.156,112.479 19.897,107.998C19.613,103.101 18.688,98.237 18.502,93.342C18.425,91.33 18.9,88.387 20.246,87.404C24.22,84.504 23.684,80.651 23.685,76.754C23.685,62.771 23.685,48.788 23.685,34.822C16.821,31.598 16.287,25.357 22.116,20.075C23.162,19.127 23.537,16.911 23.438,15.33C23.2,11.529 25.237,9.368 28.455,9.115C32.092,8.829 36.521,8.561 39.263,10.347C41.203,11.611 40.91,16.302 41.749,20.067C52.291,20.573 63.456,22.745 74.028,21.103C82.643,19.765 90.284,23.428 98.564,22.257C104.712,21.388 111.081,22.086 117.407,22.086C118.875,18.576 115.793,13.729 120.745,11.398C125.773,9.031 130.689,9.564 135.676,11.609C135.676,15.281 135.676,18.81 135.676,22.146C142.229,24.561 144.554,32.838 139.581,36.572C136.375,38.98 136.031,41.734 135.987,44.725C135.798,57.378 134.667,70.21 136.414,82.62C137.329,89.118 139.229,95.594 138.998,102.29C138.799,108.019 137.858,113.731 137.804,119.455C137.763,123.911 138.581,128.374 139.07,133.365C142.788,129.838 145.859,126.926 148.93,124.013C149.258,124.293 149.585,124.573 149.913,124.853C148.023,129.33 146.133,133.807 144,138.862C146.762,137.997 149.001,137.295 151.619,136.981C151.997,137.576 151.997,137.783 151.997,137.991C150.986,139.449 149.975,140.906 148.736,142.693C150.955,143.089 152.867,143.43 155.897,143.971C151.344,146.539 148.018,148.713 144.275,145.405C145.206,144.171 145.849,143.402 146.492,142.632C146.057,142.325 145.621,142.017 145.186,141.709C144.455,142.737 143.725,143.766 142.995,144.794C141.682,144.484 140.37,144.174 139.027,143.857C138.591,145.892 137.844,149.269 132.831,147.53C132.103,147.278 130.201,148.119 130.118,148.653C129.151,154.81 124.026,150.437 121.405,152.219C121.205,151.653 121.006,151.086 120.788,150.466C118.451,150.36 116.547,155.385 113.978,152.225C111.221,153.417 108.439,154.621 104.568,156.295C106.403,152.384 107.52,150.002 108.544,147.819C110.232,146.898 112.007,145.929 113.782,144.96C113.532,144.544 113.282,144.128 113.032,143.712C104.926,144.65 96.819,145.589 88.712,146.524C87.396,146.676 86.077,146.929 84.759,146.931C78.377,146.94 77.454,148.276 79.462,155.833C80.577,152.35 87.171,156.417 85.218,149.343C89.879,151.944 93.89,154.182 98.419,156.709C97.06,156.987 96.169,157.169 94.627,157.255C93.499,157.439 93.022,157.718 92.5,157.601C91.135,156.182 89.817,155.16 88.498,154.138C87.428,156.052 86.357,157.966 84.859,159.944C84.149,160.061 83.866,160.114 83.583,160.167C79.432,159.186 75.28,158.205 70.625,157.105C73.579,155.778 77.476,154.745 75.793,150.418C75.224,148.954 73.635,147.087 72.275,146.867C66.584,145.947 60.802,145.593 55.056,145.012C52.588,144.762 50.774,145.136 50.842,148.292C50.898,150.863 51.6,153.821 54.365,152.978C59.945,151.278 62.614,156.35 67.146,156.622C67.132,157.214 67.119,157.806 67.106,158.398C62.192,159.19 57.278,159.982 52.364,160.774C52.25,160.318 52.136,159.861 52.023,159.405C53.322,158.556 54.622,157.707 56.542,156.453C53.093,155.655 50.267,155.001 47.255,153.72C47.05,152.761 47.036,152.429 47.23,151.75C49.188,146.187 47.278,143.453 41.883,142.517C38.638,141.953 35.541,140.575 32.317,139.822C31.601,139.654 30.631,140.574 29.574,140.876C28.974,140.509 28.578,140.259 28.182,140.01M122.956,126.028C122.956,126.028 122.897,126.074 122.983,126.896C123.065,128.263 123.147,129.63 123.174,131.666C123.088,132.101 123.003,132.535 122.165,133.344C122.169,135.895 122.174,138.446 122.069,141.641C122.689,142.435 123.309,143.229 124.009,144.815C124.739,146.195 125.468,147.575 126.198,148.956C126.471,148.723 126.744,148.491 127.017,148.259C127.017,137.505 127.017,126.752 127.158,115.493C127.1,115.328 127.043,115.163 127.232,114.109C127.322,92.46 127.246,70.809 127.629,49.166C127.715,44.309 126.238,42.187 120.514,42.175C121.142,68.502 121.769,94.802 122.186,121.972C122.404,122.481 122.622,122.991 122.536,123.788C122.466,124.139 122.607,124.343 122.28,124.458C122.516,125.004 122.752,125.55 122.956,126.028M70.539,70.321C70.088,73.173 68.633,76.387 69.49,78.769C70.232,80.835 73.594,81.96 76.011,83.65C76.011,79.559 76.092,76.476 75.922,73.406C75.897,72.957 74.675,72.575 73.35,72.052C72.574,71.682 71.798,71.312 70.539,70.321M68.262,63.174C66.723,65.823 66.956,66.781 70.076,68.212C75.742,70.81 81.418,70.308 87.047,67.671C85.582,67.043 84.088,67.134 82.61,67.025C78.847,66.746 75.052,66.588 71.356,65.909C70.333,65.722 69.613,63.882 68.867,62.713C68.867,62.713 68.97,62.925 68.97,62.925C68.97,62.925 68.883,62.728 68.262,63.174M104.72,84.115C109.023,85.212 113.326,86.31 117.707,87.427C117.707,85.835 117.707,84.278 117.707,81.98C112.946,81.98 108.476,81.98 104.012,81.383C104.057,80.89 104.154,79.968 104.141,79.967C101.508,79.651 98.848,79.102 96.237,79.277C94.968,79.361 93.79,80.803 92.57,81.63C92.796,82.084 93.023,82.537 93.249,82.99C96.837,83.248 100.425,83.507 104.72,84.115M66.9,28.987C69.166,28.858 71.432,28.729 73.958,28.586C73.958,27.186 73.958,25.99 73.958,23.429C64.089,23.429 54.523,23.367 44.96,23.519C43.935,23.536 42.381,24.615 42.068,25.539C41.749,26.477 42.663,27.834 42.425,29.428C42.565,29.859 42.703,30.667 42.846,30.669C50.743,30.729 58.641,30.722 66.242,30.722C66.142,29.885 66.08,29.364 66.9,28.987M113.737,29.916C114.686,31.112 115.634,32.307 116.583,33.502C116.928,33.314 117.274,33.125 117.619,32.937C117.619,30.612 117.619,28.288 117.619,25.339C116.084,26.432 114.985,27.215 113.215,27.421C112.611,26.834 112.028,25.76 111.401,25.734C102.628,25.374 93.849,25.022 85.072,25.046C83.718,25.05 82.369,26.94 81.017,27.958C81.263,28.515 81.509,29.071 81.755,29.628C86.155,29.82 90.554,30.013 95,30.877C99.023,32.174 103.046,33.471 106.047,34.439C107.123,32.172 107.572,31.226 108.866,30.183C110.23,30.035 111.593,29.888 113.737,29.916M90.87,140.993C93.409,143.723 96.638,143.671 99.806,142.835C104.243,141.665 103.487,137.855 103.29,134.65C103.096,131.492 101.21,130.525 98.102,131.321C95.118,132.085 92.038,132.476 88.17,132.55C81.415,132.389 74.657,132.293 67.905,132.041C64.57,131.917 63.847,134.11 64.103,136.526C64.392,139.253 62.293,143.648 67.256,143.975C73.676,144.398 80.155,144.201 86.591,143.899C87.789,143.843 88.905,142.027 90.87,140.993M43.259,81.09C42.867,82.124 42.475,83.158 41.176,84.122C38.448,84.237 35.55,83.819 33.04,84.617C30.501,85.425 28.345,87.439 26.042,89.01C26.042,89.01 25.883,89.045 25.05,88.568C18.54,92.808 27.817,93.783 26.848,97.189C25.8,96.732 24.931,96.354 23.815,95.39C23.415,95.575 23.015,95.759 22.446,96.813C22.865,105.139 25.816,108.192 34.056,108.82C35.943,98.292 35.943,98.292 38.778,98.415C34.291,104.754 36.583,111.098 43.966,112.64C46.402,113.149 48.871,113.524 51.339,113.851C59.946,114.991 59.948,114.973 60.051,106.203C60.06,105.377 60.087,104.55 60.106,103.723C60.806,103.816 61.506,103.908 62.029,104.863C62.143,107.184 61.94,109.584 62.493,111.795C62.819,113.098 64.223,114.946 65.35,115.108C76.076,116.651 86.815,115.633 97.533,114.703C98.364,114.631 99.444,113.887 99.859,113.147C102.27,108.85 98.216,100.105 93.203,100.048C83.808,99.942 74.401,100.828 64.269,100.996C56.844,99.665 49.419,98.333 41.942,96.37C41.62,95.953 41.299,95.536 40.389,94.749C39.143,93.587 37.896,92.424 35.49,90.181C40.762,88.244 44.832,86.76 48.893,85.25C50.642,84.599 52.371,83.892 54.884,82.998C58.863,82.998 62.843,82.998 68.481,82.998C66.37,80.988 65.288,79.149 64.371,79.227C60.457,79.562 56.04,78.267 52.099,82.008C49.403,81.769 46.707,81.53 43.259,81.09M57.265,76.635C60.066,76.275 62.866,75.915 65.188,75.616C67.615,70.418 59.854,63.52 68.886,60.352C68.949,60.33 68.884,60.027 68.935,59.873C69.746,57.42 69.867,54.248 71.515,52.654C76.438,47.89 75.746,42.105 75.854,34.933C66.897,34.933 58.117,34.93 49.337,34.934C45.326,34.936 41.206,38.232 41.142,42.219C40.946,54.347 41.071,66.48 41.071,78.685C46.463,77.961 51.455,77.29 57.265,76.635M117.966,50.572C117.962,48.741 117.97,46.911 117.952,45.08C117.896,39.318 115.85,37.246 109.994,37.043C107.166,36.945 104.336,36.925 101.51,36.8C95.777,36.546 90.046,36.245 82.795,35.889C84.107,41.462 84.348,46.301 86.367,50.227C90.09,57.466 97.722,63.136 94.236,72.885C93.95,73.685 94.298,74.712 94.338,75.4C102.396,76.544 110.023,77.627 117.967,78.755C117.967,69.505 117.967,60.528 117.966,50.572M54.938,128.878C61.452,129.427 67.965,129.976 74.393,130.518C74.941,127.051 75.33,124.59 75.719,122.13C77.66,130.008 79.5,131.628 86.914,129.834C93.731,128.185 88.742,122.874 90.833,118.472C84.907,119.123 80.319,119.627 77.25,119.964C67.791,118.842 59.592,117.869 50.956,116.845C51.131,121.453 47.892,126.27 54.938,128.878M42.076,128.439C40.891,129.278 38.63,130.235 38.707,130.934C39.039,133.959 39.347,138.972 40.949,139.522C47.335,141.717 54.202,142.514 61.171,143.883C61.477,141.325 61.707,140.03 61.775,138.727C62.119,132.11 61.752,131.786 55.41,130.92C51.198,130.345 47.028,129.464 42.076,128.439M97.617,99.296C103.227,102.171 103.692,107.138 103.05,112.576C103.019,112.841 103.329,113.146 104.071,114.552C108.85,113.035 115.656,112.852 118.373,109.426C120.838,106.317 120.201,99.435 117.104,95.648C110.382,96.906 104.381,98.029 97.617,99.296M26.861,38.945C26.861,53.538 26.861,68.13 26.861,83.331C29.223,82.056 30.974,81.11 32.622,80.22C32.622,66.756 32.622,53.613 32.622,40.68C30.661,39.752 28.916,38.926 26.861,38.945M99.232,117.798C97.278,117.988 95.324,118.178 93.043,118.4C92.881,120.24 92.694,121.851 92.605,123.468C92.309,128.824 93.061,129.548 98.433,128.987C100.733,128.747 103.01,128.255 105.314,128.074C113.66,127.417 114.131,126.95 114.024,118.569C114.012,117.638 113.801,116.71 113.655,115.561C108.967,116.332 104.549,117.059 99.232,117.798M36.89,124.584C39.051,125.318 41.175,126.435 43.387,126.653C44.895,126.802 47.932,125.35 47.895,125.197C47.158,122.17 50.478,117.747 45.733,116.188C40.46,114.455 34.931,113.5 29.523,112.209C28.134,121.311 28.283,121.598 36.89,124.584M125.188,15.075C121.487,14.401 119.512,15.531 119.971,19.698C120.47,24.23 120.814,28.783 121.064,33.336C121.142,34.772 120.698,36.236 120.403,38.316C123.293,39.165 126.666,40.156 130.04,41.147C130.325,40.772 130.61,40.398 130.896,40.023C125.776,37.123 127.204,32.448 126.975,28.176C126.75,23.975 126.286,19.786 125.188,15.075M107.507,141.32C119.744,139.454 119.964,137.133 118.007,127.886C115.782,128.301 113.555,128.802 111.302,129.119C104.882,130.021 102.806,135.363 107.507,141.32M27.613,134.857C30.233,135.949 32.853,137.041 36.07,138.382C36.07,134.005 36.07,130.6 36.07,127.411C31.937,125.56 28.085,123.835 23.909,121.964C24.336,126.399 21.417,131.348 27.613,134.857M26.571,23.371C26.652,25.365 26.927,27.373 26.772,29.348C26.497,32.857 28.258,34.264 32.602,34.962C32.602,29.446 32.62,24.392 32.597,19.337C32.574,14.109 32.557,14.109 26.552,14.088C26.552,16.882 26.552,19.681 26.571,23.371M82.923,51.828C77.65,51.156 74.037,52.796 73.425,58.8C77.972,58.8 82.502,58.8 87.846,58.8C86.247,56.308 84.947,54.281 82.923,51.828M135.92,31.335C136.358,29.743 136.796,28.151 137.234,26.558C136.795,26.137 136.356,25.715 135.917,25.293C134.343,26.363 132.192,27.117 131.375,28.603C130.721,29.793 131.689,31.873 131.938,33.558C133.245,33.093 134.553,32.628 135.92,31.335M23.583,116.308C24.375,117.689 25.168,119.07 26.551,121.478C27.78,111.772 27.541,110.865 23.629,109.326C23.629,111.432 23.629,113.409 23.583,116.308M141.834,139.144C141.065,139.31 140.296,139.476 139.527,139.642C139.698,140.02 139.868,140.399 140.039,140.778C140.648,140.439 141.256,140.1 141.834,139.144M141.888,135.671C141.521,135.965 141.153,136.26 140.786,136.554C141.077,136.671 141.56,136.954 141.627,136.877C141.943,136.514 142.144,136.052 141.888,135.671M143.406,133.48C143.406,133.48 143.524,133.407 143.406,133.48z"/><path fill="#151515" d="M28.056,140.409C28.578,140.259 28.974,140.509 29.637,141.207C30.108,143.37 30.312,145.084 30.572,147.272C36.183,141.591 34.908,149.518 37.653,149.506C37.894,149.243 38.383,148.709 39.138,147.884C40.373,152.16 43.489,152.57 47.027,152.096C47.036,152.429 47.05,152.761 47.08,153.343C42.983,153.717 38.871,153.777 34.767,153.986C30.688,154.194 26.616,154.553 22.262,154.309C21.99,153.533 21.995,153.295 22,153.056C24.796,152.465 27.591,151.874 30.613,151.234C25.474,149.005 28.161,144.563 28.056,140.409z"/><path fill="#1a1a1a" d="M92.546,157.998C93.022,157.718 93.499,157.439 94.261,157.184C95.314,158.567 96.081,159.926 97.547,162.522C92.428,161.948 88.149,161.469 83.727,160.578C83.866,160.114 84.149,160.061 85.258,159.904C88.238,159.199 90.392,158.599 92.546,157.998z"/><path fill="#2b2b2b" d="M9.301,141.412C9.911,141.911 10.403,142.8 10.925,143.944C8.47,148.38 5.766,145.066 3.159,145.106C3.073,144.627 2.987,144.148 2.9,143.668C4.994,143.046 7.088,142.423 9.301,141.412z"/><path fill="#151515" d="M143.219,144.878C143.725,143.766 144.455,142.737 145.186,141.709C145.621,142.017 146.057,142.325 146.492,142.632C145.849,143.402 145.206,144.171 144.239,144.984C143.916,145.028 143.442,144.963 143.219,144.878z"/><path fill="#1a1a1a" d="M13.23,141.888C13.119,141.475 13.27,141.043 13.422,140.612C13.608,140.843 13.793,141.074 13.996,141.549C13.839,141.818 13.666,141.844 13.23,141.888z"/><path fill="#151515" d="M152.278,137.893C151.997,137.783 151.997,137.576 152.009,137.057C152.2,137.096 152.379,137.445 152.278,137.893z"/><path fill="#161616" d="M21.674,153.087C21.995,153.295 21.99,153.533 21.962,154.129C21.742,154.031 21.545,153.574 21.674,153.087z"/><path fill="#fafafa" d="M56.856,76.627C51.455,77.29 46.463,77.961 41.071,78.685C41.071,66.48 40.946,54.347 41.142,42.219C41.206,38.232 45.326,34.936 49.337,34.934C58.117,34.93 66.897,34.933 75.854,34.933C75.746,42.105 76.438,47.89 71.515,52.654C69.867,54.248 69.746,57.42 68.935,59.873C68.884,60.027 68.949,60.33 68.886,60.352C59.854,63.52 67.615,70.418 65.188,75.616C62.866,75.915 60.066,76.275 56.856,76.627z"/><path fill="#fafafa" d="M117.966,51.062C117.967,60.528 117.967,69.505 117.967,78.755C110.023,77.627 102.396,76.544 94.338,75.4C94.298,74.712 93.95,73.685 94.236,72.885C97.722,63.136 90.09,57.466 86.367,50.227C84.348,46.301 84.107,41.462 82.795,35.889C90.046,36.245 95.777,36.546 101.51,36.8C104.336,36.925 107.166,36.945 109.994,37.043C115.85,37.246 117.896,39.318 117.952,45.08C117.97,46.911 117.962,48.741 117.966,51.062z"/><path fill="#f5f5f5" d="M62.207,104C61.506,103.908 60.806,103.816 60.106,103.723C60.087,104.55 60.06,105.377 60.051,106.203C59.948,114.973 59.946,114.991 51.339,113.851C48.871,113.524 46.402,113.149 43.966,112.64C36.583,111.098 34.291,104.754 38.778,98.415C35.943,98.292 35.943,98.292 34.056,108.82C25.816,108.192 22.865,105.139 22.893,96.397C23.58,95.98 23.821,95.978 24.062,95.976C24.931,96.354 25.8,96.732 26.848,97.189C27.817,93.783 18.54,92.808 25.521,89.238C27.507,93.317 29.386,92.335 32.434,89.802C29.639,89.419 27.83,89.172 26.021,88.924C28.345,87.439 30.501,85.425 33.04,84.617C35.55,83.819 38.448,84.237 41.839,84.369C43.004,83.508 43.508,82.4 44.012,81.291C46.707,81.53 49.403,81.769 52.76,82.13C53.65,82.572 53.88,82.892 54.109,83.211C52.371,83.892 50.642,84.599 48.893,85.25C44.832,86.76 40.762,88.244 35.49,90.181C37.896,92.424 39.143,93.587 40.549,95.202C40.513,96.48 40.316,97.305 40.004,98.614C40.995,97.812 41.495,97.407 41.994,97.002C49.419,98.333 56.844,99.665 64.593,101.454C64.013,102.608 63.11,103.304 62.207,104M28.396,98.188C28.795,98.189 29.195,98.196 29.592,98.171C29.609,98.17 29.605,97.86 29.612,97.695C29.21,97.692 28.807,97.69 28.396,98.188z"/><path fill="#e8e8e8" d="M122.178,140.998C122.174,138.446 122.169,135.895 122.836,133.135C123.862,132.648 124.218,132.37 124.574,132.092C124.126,131.727 123.677,131.362 123.229,130.997C123.147,129.63 123.065,128.263 123.221,126.357C123.938,124.973 124.417,124.126 124.874,122.882C124.034,122.023 123.215,121.563 122.396,121.103C121.769,94.802 121.142,68.502 120.514,42.175C126.238,42.187 127.715,44.309 127.629,49.166C127.246,70.809 127.322,92.46 126.84,114.45C125.678,115.045 124.908,115.297 124.138,115.549C124.261,115.927 124.384,116.305 124.507,116.684C125.344,116.455 126.18,116.227 127.017,115.998C127.017,126.752 127.017,137.505 127.017,148.259C126.744,148.491 126.471,148.723 126.198,148.956C125.468,147.575 124.739,146.195 124.305,144.363C125.132,142.993 125.661,142.075 126.45,140.708C124.407,140.846 123.293,140.922 122.178,140.998z"/><path fill="#f6f6f6" d="M62.118,104.432C63.11,103.304 64.013,102.608 64.958,101.606C74.401,100.828 83.808,99.942 93.203,100.048C98.216,100.105 102.27,108.85 99.859,113.147C99.444,113.887 98.364,114.631 97.533,114.703C86.815,115.633 76.076,116.651 65.35,115.108C64.223,114.946 62.819,113.098 62.493,111.795C61.94,109.584 62.143,107.184 62.118,104.432z"/><path fill="#f4f4f4" d="M54.525,128.823C47.892,126.27 51.131,121.453 50.956,116.845C59.592,117.869 67.791,118.842 77.25,119.964C80.319,119.627 84.907,119.123 90.833,118.472C88.742,122.874 93.731,128.185 86.914,129.834C79.5,131.628 77.66,130.008 75.719,122.13C75.33,124.59 74.941,127.051 74.393,130.518C67.965,129.976 61.452,129.427 54.525,128.823z"/><path fill="#f7f7f7" d="M90.059,141.023C88.905,142.027 87.789,143.843 86.591,143.899C80.155,144.201 73.676,144.398 67.256,143.975C62.293,143.648 64.392,139.253 64.103,136.526C63.847,134.11 64.57,131.917 67.905,132.041C74.657,132.293 81.415,132.389 88.584,133.22C89.352,136.268 89.705,138.646 90.059,141.023z"/><path fill="#f1f1f1" d="M42.458,128.579C47.028,129.464 51.198,130.345 55.41,130.92C61.752,131.786 62.119,132.11 61.775,138.727C61.707,140.03 61.477,141.325 61.171,143.883C54.202,142.514 47.335,141.717 40.949,139.522C39.347,138.972 39.039,133.959 38.707,130.934C38.63,130.235 40.891,129.278 42.458,128.579z"/><path fill="#f4f4f4" d="M97.998,99.224C104.381,98.029 110.382,96.906 117.104,95.648C120.201,99.435 120.838,106.317 118.373,109.426C115.656,112.852 108.85,113.035 104.071,114.552C103.329,113.146 103.019,112.841 103.05,112.576C103.692,107.138 103.227,102.171 97.998,99.224z"/><path fill="#e8e8e8" d="M27.016,38.523C28.916,38.926 30.661,39.752 32.622,40.68C32.622,53.613 32.622,66.756 32.622,80.22C30.974,81.11 29.223,82.056 26.861,83.331C26.861,68.13 26.861,53.538 27.016,38.523z"/><path fill="#f6f6f6" d="M99.682,117.792C104.549,117.059 108.967,116.332 113.655,115.561C113.801,116.71 114.012,117.638 114.024,118.569C114.131,126.95 113.66,127.417 105.314,128.074C103.01,128.255 100.733,128.747 98.433,128.987C93.061,129.548 92.309,128.824 92.605,123.468C92.694,121.851 92.881,120.24 93.043,118.4C95.324,118.178 97.278,117.988 99.682,117.792z"/><path fill="#f4f4f4" d="M36.486,124.618C28.283,121.598 28.134,121.311 29.523,112.209C34.931,113.5 40.46,114.455 45.733,116.188C50.478,117.747 47.158,122.17 47.895,125.197C47.932,125.35 44.895,126.802 43.387,126.653C41.175,126.435 39.051,125.318 36.486,124.618z"/><path fill="#efefef" d="M125.558,15.333C126.286,19.786 126.75,23.975 126.975,28.176C127.204,32.448 125.776,37.123 130.896,40.023C130.61,40.398 130.325,40.772 130.04,41.147C126.666,40.156 123.293,39.165 120.403,38.316C120.698,36.236 121.142,34.772 121.064,33.336C120.814,28.783 120.47,24.23 119.971,19.698C119.512,15.531 121.487,14.401 125.558,15.333z"/><path fill="#eceded" d="M94.954,30.205C90.554,30.013 86.155,29.82 81.755,29.628C81.509,29.071 81.263,28.515 81.017,27.958C82.369,26.94 83.718,25.05 85.072,25.046C93.849,25.022 102.628,25.374 111.401,25.734C112.028,25.76 112.611,26.834 113.591,27.709C113.967,27.997 113.977,27.915 113.503,27.768C112.996,28.166 112.962,28.711 112.905,29.379C112.883,29.502 112.957,29.74 112.957,29.74C111.593,29.888 110.23,30.035 107.989,30.128C103.059,30.117 99.006,30.161 94.954,30.205z"/><path fill="#efefef" d="M107.066,141.295C102.806,135.363 104.882,130.021 111.302,129.119C113.555,128.802 115.782,128.301 118.007,127.886C119.964,137.133 119.744,139.454 107.066,141.295z"/><path fill="#f5f5f5" d="M90.464,141.008C89.705,138.646 89.352,136.268 88.999,133.461C92.038,132.476 95.118,132.085 98.102,131.321C101.21,130.525 103.096,131.492 103.29,134.65C103.487,137.855 104.243,141.665 99.806,142.835C96.638,143.671 93.409,143.723 90.464,141.008z"/><path fill="#e9eaea" d="M43.037,29.008C42.663,27.834 41.749,26.477 42.068,25.539C42.381,24.615 43.935,23.536 44.96,23.519C54.523,23.367 64.089,23.429 73.958,23.429C73.958,25.99 73.958,27.186 73.958,28.586C71.432,28.729 69.166,28.858 66.397,28.622C64.375,28.241 62.8,27.951 61.347,28.254C55.272,29.518 48.979,25.121 43.037,29.008z"/><path fill="#f4f4f4" d="M27.303,134.617C21.417,131.348 24.336,126.399 23.909,121.964C28.085,123.835 31.937,125.56 36.07,127.411C36.07,130.6 36.07,134.005 36.07,138.382C32.853,137.041 30.233,135.949 27.303,134.617z"/><path fill="#e0e0e0" d="M26.561,22.926C26.552,19.681 26.552,16.882 26.552,14.088C32.557,14.109 32.574,14.109 32.597,19.337C32.62,24.392 32.602,29.446 32.602,34.962C28.258,34.264 26.497,32.857 26.772,29.348C26.927,27.373 26.652,25.365 26.561,22.926z"/><path fill="#f1f1f1" d="M47.23,151.75C43.489,152.57 40.373,152.16 39.138,147.884C38.383,148.709 37.894,149.243 37.653,149.506C34.908,149.518 36.183,141.591 30.572,147.272C30.312,145.084 30.108,143.37 29.84,141.324C30.631,140.574 31.601,139.654 32.317,139.822C35.541,140.575 38.638,141.953 41.883,142.517C47.278,143.453 49.188,146.187 47.23,151.75z"/><path fill="#e2e3e3" d="M83.284,52.041C84.947,54.281 86.247,56.308 87.846,58.8C82.502,58.8 77.972,58.8 73.425,58.8C74.037,52.796 77.65,51.156 83.284,52.041z"/><path fill="#d4d4d4" d="M42.731,29.218C48.979,25.121 55.272,29.518 61.347,28.254C62.8,27.951 64.375,28.241 65.956,28.551C66.08,29.364 66.142,29.885 66.242,30.722C58.641,30.722 50.743,30.729 42.846,30.669C42.703,30.667 42.565,29.859 42.731,29.218z"/><path fill="#e2e3e3" d="M104.007,81.98C108.476,81.98 112.946,81.98 117.707,81.98C117.707,84.278 117.707,85.835 117.707,87.427C113.326,86.31 109.023,85.212 104.368,83.642C104.013,82.773 104.01,82.376 104.007,81.98z"/><path fill="#d4d5d5" d="M68.754,62.801C69.613,63.882 70.333,65.722 71.356,65.909C75.052,66.588 78.847,66.746 82.61,67.025C84.088,67.134 85.582,67.043 87.047,67.671C81.418,70.308 75.742,70.81 70.076,68.212C66.956,66.781 66.723,65.823 68.552,62.989C68.841,62.804 68.754,62.801 68.754,62.801z"/><path fill="#dcdcdc" d="M54.497,83.105C53.88,82.892 53.65,82.572 53.165,82.102C56.04,78.267 60.457,79.562 64.371,79.227C65.288,79.149 66.37,80.988 68.481,82.998C62.843,82.998 58.863,82.998 54.497,83.105z"/><path fill="#e0e0e0" d="M74.007,72.162C74.675,72.575 75.897,72.957 75.922,73.406C76.092,76.476 76.011,79.559 76.011,83.65C73.594,81.96 70.232,80.835 69.49,78.769C68.633,76.387 70.088,73.173 70.78,71.085C71.123,74.508 71.224,77.167 71.325,79.825C72.219,79.827 73.113,79.829 74.007,79.832C74.007,77.275 74.007,74.718 74.007,72.162z"/><path fill="#d9dad9" d="M104.01,81.681C104.01,82.376 104.013,82.773 104.015,83.467C100.425,83.507 96.837,83.248 93.249,82.99C93.023,82.537 92.796,82.084 92.57,81.63C93.79,80.803 94.968,79.361 96.237,79.277C98.848,79.102 101.508,79.651 104.141,79.967C104.154,79.968 104.057,80.89 104.01,81.681z"/><path fill="#373737" d="M94.977,30.541C99.006,30.161 103.059,30.117 107.566,30.177C107.572,31.226 107.123,32.172 106.047,34.439C103.046,33.471 99.023,32.174 94.977,30.541z"/><path fill="#e6e7e6" d="M135.891,31.749C134.553,32.628 133.245,33.093 131.938,33.558C131.689,31.873 130.721,29.793 131.375,28.603C132.192,27.117 134.343,26.363 135.917,25.293C136.356,25.715 136.795,26.137 137.234,26.558C136.796,28.151 136.358,29.743 135.891,31.749z"/><path fill="#e2e3e3" d="M92.5,157.601C90.392,158.599 88.238,159.199 85.685,159.84C86.357,157.966 87.428,156.052 88.498,154.138C89.817,155.16 91.135,156.182 92.5,157.601z"/><path fill="#eceded" d="M23.606,115.847C23.629,113.409 23.629,111.432 23.629,109.326C27.541,110.865 27.78,111.772 26.551,121.478C25.168,119.07 24.375,117.689 23.606,115.847z"/><path fill="#cdcece" d="M113.347,29.828C112.957,29.74 112.883,29.502 113.263,29.344C113.755,28.763 113.866,28.339 113.977,27.915C113.977,27.915 113.967,27.997 113.926,27.998C114.985,27.215 116.084,26.432 117.619,25.339C117.619,28.288 117.619,30.612 117.619,32.937C117.274,33.125 116.928,33.314 116.583,33.502C115.634,32.307 114.686,31.112 113.347,29.828z"/><path fill="#d9dad9" d="M73.678,72.107C74.007,74.718 74.007,77.275 74.007,79.832C73.113,79.829 72.219,79.827 71.325,79.825C71.224,77.167 71.123,74.508 71.022,71.396C71.798,71.312 72.574,71.682 73.678,72.107z"/><path fill="#ededed" d="M26.032,88.967C27.83,89.172 29.639,89.419 32.434,89.802C29.386,92.335 27.507,93.317 25.937,89.476C25.883,89.045 26.042,89.01 26.032,88.967z"/><path fill="#e6e7e6" d="M122.123,141.32C123.293,140.922 124.407,140.846 126.45,140.708C125.661,142.075 125.132,142.993 124.266,143.967C123.309,143.229 122.689,142.435 122.123,141.32z"/><path fill="#ededed" d="M43.635,81.191C43.508,82.4 43.004,83.508 42.292,84.404C42.475,83.158 42.867,82.124 43.635,81.191z"/><path fill="#151515" d="M141.849,139.452C141.256,140.1 140.648,140.439 140.039,140.778C139.868,140.399 139.698,140.02 139.527,139.642C140.296,139.476 141.065,139.31 141.849,139.452z"/><path fill="#e6e7e6" d="M127.087,115.745C126.18,116.227 125.344,116.455 124.507,116.684C124.384,116.305 124.261,115.927 124.138,115.549C124.908,115.297 125.678,115.045 126.716,114.895C127.043,115.163 127.1,115.328 127.087,115.745z"/><path fill="#ededed" d="M41.968,96.686C41.495,97.407 40.995,97.812 40.004,98.614C40.316,97.305 40.513,96.48 40.843,95.387C41.299,95.536 41.62,95.953 41.968,96.686z"/><path fill="#9b9a9c" d="M124.896,123.28C124.417,124.126 123.938,124.973 123.178,125.946C122.897,126.074 122.956,126.028 122.928,125.639C122.92,124.967 122.939,124.684 122.959,124.401C122.607,124.343 122.466,124.139 123.015,123.504C123.961,123.24 124.429,123.26 124.896,123.28z"/><path fill="#151515" d="M142.137,135.648C142.144,136.052 141.943,136.514 141.627,136.877C141.56,136.954 141.077,136.671 140.786,136.554C141.153,136.26 141.521,135.965 142.137,135.648z"/><path fill="#e6e7e6" d="M124.874,122.882C124.429,123.26 123.961,123.24 123.167,123.36C122.622,122.991 122.404,122.481 122.291,121.537C123.215,121.563 124.034,122.023 124.874,122.882z"/><path fill="#e6e7e6" d="M123.202,131.332C123.677,131.362 124.126,131.727 124.574,132.092C124.218,132.37 123.862,132.648 123.212,132.948C123.003,132.535 123.088,132.101 123.202,131.332z"/><path fill="#151515" d="M143.465,133.443C143.524,133.407 143.406,133.48 143.465,133.443z"/><path fill="#ededed" d="M23.939,95.683C23.821,95.978 23.58,95.98 22.977,95.963C23.015,95.759 23.415,95.575 23.939,95.683z"/><path fill="#e6e7e6" d="M122.62,124.43C122.939,124.684 122.92,124.967 122.944,125.673C122.752,125.55 122.516,125.004 122.62,124.43z"/><path fill="#d4d5d5" d="M68.862,62.766C68.883,62.728 68.97,62.925 68.97,62.925C68.97,62.925 68.867,62.713 68.811,62.757C68.754,62.801 68.841,62.804 68.862,62.766z"/><path fill="#ededed" d="M28.401,97.938C28.807,97.69 29.21,97.692 29.612,97.695C29.605,97.86 29.609,98.17 29.592,98.171C29.195,98.196 28.795,98.189 28.401,97.938z"/><path fill="#0f0f0f" d="M113.503,27.768C113.866,28.339 113.755,28.763 113.286,29.222C112.962,28.711 112.996,28.166 113.503,27.768z"/></svg>