<svg xmlns="http://www.w3.org/2000/svg" viewBox="0 0 170 191" xml:space="preserve"><path fill="#0d0d0e" d="M102.878,180.458C95.953,180.043 89.031,179.566 82.102,179.232C76.149,178.945 70.188,178.822 64.299,178.628C64.741,179.225 65.601,180.383 66.75,181.93C62.859,181.93 59.452,181.93 54.553,181.93C57.26,180.201 58.903,179.152 60.903,177.875C60.156,176.522 59.472,175.282 58.304,173.49C50.37,168.555 44.681,170.426 44.092,177.321C47.018,178.386 49.908,179.438 52.798,180.489C52.53,180.989 52.268,181.92 51.993,181.924C46.152,182.008 40.309,181.987 34.467,181.987C34.35,181.562 34.233,181.137 34.116,180.711C36.152,179.995 38.189,179.28 40.225,178.564C40.223,178.166 40.221,177.768 40.219,177.37C38.078,177.261 35.907,177.335 33.805,176.991C31.733,176.653 29.73,175.893 27.908,176.571C25.036,176.89 22.163,177.209 18.169,177.653C19.336,176.019 19.569,175.341 19.888,175.298C27.543,174.267 29.166,168.123 30.346,162.216C31.511,156.379 34.965,153.096 40.329,153.042C43.563,153.009 46.822,155.506 50.069,156.866C50.076,157.467 50.084,158.068 50.091,158.669C51.162,157.492 52.974,156.437 53.192,155.119C55.842,139.119 58.257,123.081 59.763,106.465C57.644,109.031 55.505,111.581 53.41,114.166C49.748,118.683 46.107,123.216 42.471,127.754C37.758,133.634 36.841,133.541 33.052,126.427C33.026,126.086 33.067,126.117 33.329,126.054C33.616,125.675 33.64,125.359 33.83,124.748C35.388,125.357 36.782,126.26 37.895,126.981C41.312,123.051 44.379,119.116 47.889,115.625C50.34,113.187 50.198,111.31 48.041,108.879C48.452,108.411 48.744,108.196 49.327,108.162C50.874,108.487 52.748,109.229 53.286,108.675C56.38,105.487 59.212,102.036 61.979,98.551C62.361,98.07 61.886,96.908 62.061,95.941C62.546,95.535 62.777,95.248 63.375,95.102C66.383,92.837 69.026,90.432 72.57,87.207C69.769,86.026 68.27,85.395 66.698,84.385C65.803,82.602 64.981,81.197 64.066,79.634C61.784,81.751 59.781,83.122 58.474,84.982C57.518,86.343 57.475,88.346 56.743,90.333C54.92,90.605 52.738,89.962 51.96,90.735C49.804,92.873 45.321,93.93 46.869,98.42C43.196,96.243 42.345,99.236 40.619,101.028C40.113,101.346 39.869,101.599 39.303,101.967C37.025,103.937 35.07,105.793 32.901,107.851C33.867,108.918 34.608,109.735 34.796,110.725C29.755,108.135 28.11,112.489 25.589,114.088C27.262,116.063 28.839,117.925 29.84,119.106C32.4,118.612 34.112,118.282 35.493,118.269C33.785,120.753 32.408,122.919 31.031,125.085C28.864,123.033 26.665,121.014 24.538,118.923C19.952,114.415 19.994,114.431 25.011,110.037C36.631,99.858 48.221,89.645 60,79.291C58.847,79.175 57.685,79.057 56.328,78.92C60.416,73.153 64.44,67.476 68.222,62.14C65.572,60.318 63.302,59.027 61.344,57.366C49.027,46.924 36.831,36.338 24.468,25.951C21.803,23.712 21.316,22.164 24.131,19.677C28.342,15.957 32.264,11.911 36.771,8.328C36.474,10.834 35.715,13.016 34.633,16.13C34.701,16.271 35.37,17.667 35.636,19.009C30.212,15.429 29.348,20.68 26.505,22.681C28.536,24.327 30.176,25.656 31.777,26.954C33.079,26.213 34.202,25.573 35.761,24.685C33.755,29.662 35.621,32.257 41.235,33.228C42.809,35.679 44.146,37.816 45.395,39.813C47.299,39.054 48.448,38.595 49.58,38.501C48.613,42.43 51.051,45.164 55.908,46.142C57.405,47.649 58.764,48.842 60.38,50.32C62.112,52.591 63.585,54.576 65.058,56.562C65.632,56.459 66.205,56.355 66.778,56.252C66.882,54.716 66.986,53.181 67.145,51.159C69.191,50.141 71.182,49.61 74.608,48.695C71.215,46.008 69.12,44.35 66.974,42.341C65.537,41.305 64.151,40.619 62.823,39.607C62.861,38.842 62.84,38.404 62.879,37.629C62.526,36.5 62.114,35.709 61.979,34.791C62.491,34.34 62.727,34.016 62.962,33.692C67.749,38.454 72.535,43.216 77.473,48.129C79.57,45.63 82.452,42.252 85.267,38.82C86.724,37.043 88.344,35.954 90.106,38.159C91.774,40.246 95.773,41.487 93.444,45.329C92.346,47.14 90.766,48.658 89.295,50.442C90.215,50.961 91.094,51.456 91.038,51.425C92.984,50.608 94.242,50.08 95.817,50.014C96.419,50.518 96.702,50.561 96.986,50.603C98.1,51.065 99.213,51.527 100.648,52.401C101.721,54.249 102.472,55.686 103.275,57.221C104.237,56.5 104.697,56.268 105.004,55.907C107.085,53.461 108.912,50.747 111.254,48.59C113.576,46.45 116.405,44.862 119.268,42.878C119.998,42.095 120.472,41.466 121.317,40.832C123.239,39.227 124.79,37.627 126.503,35.91C126.811,35.434 126.958,35.076 127.444,34.853C130.514,32.656 133.245,30.323 136.33,27.904C138.983,26.118 141.284,24.419 144.53,22.021C141.333,20.129 138.685,18.562 135.611,16.839C134.207,14.027 133.23,11.37 132.253,8.713C131.598,8.748 130.942,8.782 130.287,8.817C129.075,11.214 127.863,13.612 126.419,16.313C123.431,19.413 120.674,22.21 117.711,25.131C117.253,25.476 117.093,25.75 116.693,26.129C115.125,28.114 113.889,30.046 112.481,32.259C112.217,32.737 112.125,32.936 111.679,33.109C109.237,35.729 107.148,38.373 105.058,41.018C103.92,41.962 102.858,43.025 101.619,43.809C100.704,44.388 99.56,44.602 98.517,44.979C98.227,44.094 97.761,43.219 97.712,42.321C97.683,41.775 98.218,41.124 98.637,40.639C108.873,28.817 119.125,17.008 129.391,5.213C129.706,4.85 130.21,4.652 131.504,3.795C136.557,9.571 141.781,15.409 146.748,21.458C147.17,21.972 146.243,24.31 145.333,25.09C138.087,31.298 130.638,37.266 123.369,43.447C119.164,47.023 115.177,50.857 110.462,55.149C116.415,62.83 122.252,70.249 127.938,77.783C129.224,79.487 131.083,81.878 130.675,83.424C130.28,84.922 127.305,85.739 124.505,87.437C125.189,88.356 125.96,90.016 127.245,91.01C134.615,96.704 142.038,102.334 149.59,107.782C152.534,109.905 152.677,111.567 150.059,114.049C144.881,118.957 139.89,124.062 134.43,129.475C130.701,125.52 127.129,121.731 123.556,117.943C123.282,118.096 123.008,118.25 122.734,118.403C124.707,129.745 126.679,141.086 128.685,152.618C132.159,150.846 135.097,149.336 138.046,147.845C140.959,146.372 142.822,147.601 143.924,150.312C144.67,152.146 145.372,154.036 145.764,155.968C146.536,159.767 146.249,163.38 150.394,166.379C153.038,168.292 153.596,173.284 157.869,174.551C153.757,175.462 149.646,176.372 145.532,177.283C146.267,181.296 145.297,181.867 138.579,180.853C143.688,179.59 141.468,176.811 140.095,173.732C138.647,174.511 137.405,175.178 136.074,175.559C135.383,175.028 134.793,174.739 134.169,174.594C134.085,174.575 133.833,175.279 133.658,175.648C134.386,175.828 135.113,176.007 135.865,176.469C135.907,177.504 135.926,178.257 135.945,179.01C130.019,180.467 124.457,184.083 117.861,181.553C116.433,181.006 114.453,181.901 112.271,181.679C111.814,179.325 111.814,177.425 111.814,175.524C114.064,170.834 116.87,165.476 123.377,163.969C123.748,163.86 123.892,163.713 124.352,163.429C125.939,162.541 127.137,161.72 129.482,160.112C118.985,162.089 110.074,163.767 101.095,165.458C101.452,168.925 101.81,172.404 102.189,176.084C104.147,174.882 105.688,173.936 107.431,172.833C108.024,172.134 108.415,171.593 109.108,171.373C110.031,172.928 110.653,174.16 110.901,174.651C107.867,176.847 105.373,178.653 102.878,180.458M139.435,105.233C138.687,104.614 137.939,103.995 136.856,102.903C135.907,102.262 134.957,101.622 133.642,100.382C132.167,100.415 130.644,100.227 129.232,100.541C127.743,100.871 126.361,101.679 124.922,101.556C126.721,100.494 128.52,99.431 130.319,98.369C129.882,97.737 129.444,97.104 129.006,96.471C127.143,95.244 125.28,94.016 122.922,92.173C121.943,92.129 120.963,92.086 119.449,91.431C119.658,86.859 115.716,86.623 112.664,84.545C110.377,82.061 108.09,79.576 105.217,76.456C103.927,79.103 102.969,81.069 101.279,83.05C100.028,84.02 98.777,84.99 96.558,86.712C99.324,89.066 101.657,91.05 104.134,93.611C104.745,94.103 105.356,94.596 106.24,95.756C108.256,97.323 109.356,100.852 113.499,99.637C113.6,100.786 113.702,101.936 113.989,103.633C114.568,104.121 115.146,104.609 116,105.748C119.127,110.883 121.278,104.98 123.913,105.742C122.862,107.125 121.812,108.507 120.475,110.268C123.422,112.985 126.192,115.539 129.007,118.805C130.746,120.658 132.484,122.511 134.334,124.483C136.325,122.368 138.124,120.457 140.008,118.456C138.632,116.964 137.301,115.52 136.124,113.209C136.18,112.921 136.236,112.633 136.89,112.762C138.507,114.056 140.124,115.349 141.904,116.773C143.733,114.703 145.319,112.908 147.543,110.392C144.983,109.388 142.463,108.399 139.933,106.896C139.786,106.59 139.639,106.285 139.435,105.233M66.69,130.061C66.859,130.052 67.027,130.044 67.244,130.807C66.724,133.151 67.363,134.77 69.949,135.578C69.949,135.578 69.999,135.995 69.182,136.25C66.285,135.965 63.388,135.681 60.064,135.355C59.035,142.179 57.877,148.814 57.164,155.497C57.028,156.773 58.351,159.018 59.515,159.459C62.44,160.567 65.658,160.9 67.711,161.326C69.432,158.164 70.658,155.91 72.075,155.162C71.737,161.129 71.454,167.1 71.038,173.061C70.83,176.056 71.694,177.464 75.401,176.136C75.401,170.636 75.266,165.006 75.457,159.388C75.556,156.471 75.656,153.325 76.779,150.724C78.562,146.594 82.254,145.203 86.715,146.176C91.243,147.163 93.692,150.278 93.892,156.106C94.097,162.078 94.037,168.068 93.862,174.043C93.754,177.712 95.443,177.693 98.201,176.706C98.201,170.909 98.062,165.273 98.234,159.646C98.488,151.323 95.626,145.078 87.478,141.818C86.607,141.47 86.239,139.866 86.706,139.028C99.512,141.538 101.578,151.036 100.951,163.037C108.183,161.196 114.576,159.569 121.784,157.668C122.561,156.696 124.017,155.703 123.986,154.758C123.897,152.062 123.203,149.386 122.676,146.29C121.574,146.935 120.776,147.401 119.469,147.713C119.312,147.795 119.154,147.878 118.303,147.893C117.862,148.038 117.42,148.184 116.265,148.116C115.089,148.016 113.914,147.917 112.739,147.817C112.689,147.445 112.639,147.072 112.589,146.7C115.926,145.856 119.264,145.013 123.005,144.068C122.868,142.687 122.714,141.144 122.5,138.983C120.707,139.435 119.36,139.773 117.271,140.072C116.775,140.073 116.279,140.075 115.685,139.248C117.566,138.27 119.447,137.292 121.312,136.322C118.766,128.633 118.766,128.633 111.282,125.435C112.935,124.973 114.528,124.527 116.359,124.015C111.807,116.31 107.158,109.205 103.3,101.693C99.552,94.397 94.52,90.718 86.086,92.391C83.694,92.865 81.103,92.233 78.624,92.408C77.469,92.489 75.804,92.964 75.324,93.806C69.871,103.348 62.614,112.143 62.212,124.301C63.918,124.819 65.69,125.217 67.317,125.939C67.776,126.143 67.811,127.3 67.388,128.007C66.954,127.992 66.52,127.978 65.19,127.732C62.956,127.235 61.137,126.967 60.864,130.294C60.566,133.919 62.717,133.773 65.29,133.912C65.611,132.523 65.898,131.28 66.69,130.061M46.031,158.57C44.678,155.944 42.79,155.107 39.931,156.381C37.504,157.462 35.921,157.897 35.916,161.761C35.912,165.347 32.313,168.928 29.939,173.147C33.379,173.871 35.406,174.298 37.444,174.727C38.133,173.147 38.709,171.827 39.351,170.355C40.113,171.415 40.743,172.292 40.984,172.626C44.115,170.777 46.98,169.085 50.107,167.239C48.983,164.771 47.724,162.006 46.031,158.57M130.968,169.308C122.438,166.43 120.159,167.445 114.822,177.105C118.228,178.295 121.491,179.435 125.14,180.71C126.31,176.915 126.772,173.434 131.118,172.985C132.416,172.851 134.59,171.317 130.968,169.308M89.039,62.576C84.421,59.507 80.614,60.057 78.196,64.142C76.106,67.671 77.351,71.891 81.605,73.336C83.504,73.981 86.489,73.406 88.188,72.235C91.461,69.977 91.949,66.588 89.039,62.576M60.799,170.581C63.155,171.912 65.51,173.242 68.259,174.796C68.563,171.957 69.008,169.344 69.023,166.729C69.028,165.908 67.996,164.505 67.239,164.352C63.557,163.607 59.807,163.195 56.082,162.665C55.754,163.131 55.426,163.597 55.098,164.063C56.771,166.132 58.444,168.2 60.799,170.581M135.512,153.032C129.986,161.068 130.204,166.07 136.2,168.634C137.481,164.418 138.817,160.217 140.01,155.976C140.378,154.671 140.357,153.257 140.514,151.893C139.023,152.095 137.533,152.297 135.512,153.032M75.19,74.369C69.258,80.833 69.258,80.833 71.081,83.536C73.161,81.359 75.311,79.357 77.071,77.056C77.417,76.604 76.256,74.999 75.19,74.369M92.917,61.224C94.74,59.156 96.563,57.089 98.983,54.346C92.963,52.327 92.241,58.016 88.501,59.535C90.196,60.466 91.302,61.073 92.917,61.224M141.429,172.247C146.414,176.055 144.268,167.019 149.027,169.628C145.26,165.05 142.553,166.826 140.098,168.884C139.713,169.206 140.469,170.889 141.429,172.247M97.359,76.258C96.228,75.316 95.206,74.143 93.917,73.533C93.328,73.255 92.214,74.085 91.338,74.413C93.212,76.418 94.958,78.574 97.033,80.344C97.728,80.936 99.264,80.544 100.415,80.602C100.709,80.027 101.004,79.451 101.298,78.875C100.178,78.178 99.059,77.48 97.359,76.258M78.263,85.336C83.15,85.589 88.036,85.842 92.922,86.095C92.93,85.538 92.938,84.982 92.946,84.426C88.058,84.426 83.17,84.426 78.263,85.336M77.778,60.953C76.538,56.955 73.956,54.682 69.263,55.098C71.918,57.204 74.574,59.31 77.778,60.953z"/><path fill="#e7e7e7" d="M119.012,43.032C116.405,44.862 113.576,46.45 111.254,48.59C108.912,50.747 107.085,53.461 105.004,55.907C104.697,56.268 104.237,56.5 103.275,57.221C102.472,55.686 101.721,54.249 100.97,52.45C102.137,50.799 103.304,49.51 105.154,48.104C108.044,46.114 110.252,44.24 112.459,42.367C112.115,41.97 111.772,41.572 111.428,41.174C109.938,41.804 108.448,42.434 106.958,43.064C106.958,43.064 106.987,43.014 107.343,42.746C106.775,41.978 105.852,41.479 104.929,40.979C104.929,40.979 105.009,40.951 105.034,40.985C107.148,38.373 109.237,35.729 111.708,33.451C113.076,34.566 114.061,35.313 115.046,36.06C115.37,35.614 115.694,35.167 116.019,34.721C114.897,33.807 113.774,32.893 112.652,31.979C113.889,30.046 115.125,28.114 117.063,26.272C117.816,25.91 117.866,25.458 117.917,25.006C120.674,22.21 123.431,19.413 126.707,16.375C128.152,17.354 129.077,18.575 129.673,19.962C127.501,22.721 125.658,25.314 123.473,28.084C121.937,29.419 120.745,30.577 120.096,31.207C122.861,33.341 124.601,34.684 126.341,36.028C124.79,37.627 123.239,39.227 121.177,40.545C119.718,39.535 118.769,38.808 117.821,38.08C117.633,38.329 117.445,38.577 117.257,38.825C117.842,40.227 118.427,41.63 119.012,43.032M118.379,35.708C118.509,35.438 118.638,35.169 118.768,34.899C118.509,34.822 118.251,34.746 117.992,34.669C117.964,35.037 117.935,35.405 118.379,35.708z"/><path fill="#ececed" d="M35.35,110.553C34.608,109.735 33.867,108.918 32.901,107.851C35.07,105.793 37.025,103.937 39.71,102.007C41.252,101.933 42.066,101.932 42.981,102.042C43.083,102.152 43.264,102.391 43.252,102.757C42.979,106.544 45.356,107.912 47.923,109.131C50.198,111.31 50.34,113.187 47.889,115.625C44.379,119.116 41.312,123.051 37.895,126.981C36.782,126.26 35.388,125.357 33.669,124.888C33.163,125.557 33.071,125.822 33.067,126.117C33.067,126.117 33.026,126.086 33.047,126.07C32.496,125.903 31.924,125.75 31.191,125.341C32.408,122.919 33.785,120.753 35.451,118.266C35.904,117.898 35.994,117.779 36.287,117.377C37.139,116.802 37.712,116.438 38.567,116C39.064,115.461 39.279,114.995 39.494,114.529C38.783,114.35 38.072,114.171 37.278,113.615C36.802,112.631 36.408,112.023 35.966,111.304C35.698,110.935 35.509,110.722 35.35,110.553M40.796,111.398C40.791,111.79 40.786,112.183 40.781,112.575C40.944,112.576 41.249,112.588 41.25,112.576C41.281,112.186 41.283,111.793 40.796,111.398z"/><path fill="#e8e8e8" d="M107.229,172.989C105.688,173.936 104.147,174.882 102.189,176.084C101.81,172.404 101.452,168.925 101.095,165.458C110.074,163.767 118.985,162.089 129.482,160.112C127.137,161.72 125.939,162.541 124.148,163.276C123.444,163.461 123.333,163.731 123.222,164.002C116.87,165.476 114.064,170.834 111.814,175.524C111.814,177.425 111.814,179.325 111.863,181.632C111.58,182.307 111.249,182.576 110.765,182.552C108.063,181.688 105.513,181.117 102.963,180.547C102.963,180.547 102.953,180.414 102.915,180.436C105.373,178.653 107.867,176.847 110.901,174.651C110.653,174.16 110.031,172.928 108.99,171.098C108.124,171.33 107.677,172.16 107.229,172.989z"/><path fill="#181919" d="M39.989,5.96C40.484,5.945 41.249,5.713 41.435,5.946C47.372,13.362 53.254,20.824 58.649,28.593C57.427,28.966 56.701,29.025 55.887,28.764C54.499,26.977 53.197,25.51 51.803,23.799C51.209,23.104 50.708,22.653 50.099,21.863C47.711,19.936 45.431,18.348 43.262,16.449C43.152,15.043 43.055,13.905 42.685,12.864C41.858,10.537 40.896,8.259 39.989,5.96z"/><path fill="#eeeeee" d="M52.881,180.12C49.908,179.438 47.018,178.386 44.092,177.321C44.681,170.426 50.37,168.555 57.964,173.272C56.392,175.655 54.678,177.703 52.881,180.12z"/><path fill="#f1f1f1" d="M39.973,5.698C40.896,8.259 41.858,10.537 42.685,12.864C43.055,13.905 43.152,15.043 43.218,16.538C43.062,16.94 42.92,17.079 42.591,17.154C40.203,17.965 38.895,21.478 35.967,18.973C35.985,19.008 36.039,19.063 36.039,19.063C35.37,17.667 34.701,16.271 34.633,16.13C35.715,13.016 36.474,10.834 37.121,8.308C37.993,7.121 38.975,6.278 39.973,5.698z"/><path fill="#1d1d1d" d="M136.164,175.846C137.405,175.178 138.647,174.511 140.095,173.732C141.468,176.811 143.688,179.59 138.254,180.695C137.582,180.393 137.146,179.822 136.328,179.131C135.926,178.257 135.907,177.504 135.943,176.381C135.997,176.011 136.164,175.846 136.164,175.846z"/><path fill="#282928" d="M106.786,43.363C108.448,42.434 109.938,41.804 111.428,41.174C111.772,41.572 112.115,41.97 112.459,42.367C110.252,44.24 108.044,46.114 105.459,47.982C105.592,46.538 106.103,45.1 106.786,43.363z"/><path fill="#0d0d0e" d="M102.589,180.796C105.513,181.117 108.063,181.688 110.574,182.652C107.852,183.073 105.166,183.126 102.485,183.041C102.374,183.038 102.304,181.74 102.589,180.796z"/><path fill="#d8d8d8" d="M62.961,33.374C62.727,34.016 62.491,34.34 61.665,34.68C60.389,33.124 59.703,31.553 59.011,29.989C59.004,29.996 58.989,30.011 58.989,30.011C60.313,31.026 61.637,32.042 62.961,33.374z"/><path fill="#d8d8d8" d="M55.974,29.084C56.701,29.025 57.427,28.966 58.532,28.835C58.928,28.971 58.947,29.178 58.978,29.699C58.989,30.011 59.004,29.996 58.655,30.018C57.842,30.152 57.378,30.263 56.681,30.221C56.291,29.74 56.132,29.412 55.974,29.084z"/><path fill="#282928" d="M105.026,41.29C105.852,41.479 106.775,41.978 107.317,42.76C106.332,42.561 105.728,42.081 105.026,41.29z"/><path fill="#eaeaeb" d="M96.907,50.436C96.702,50.561 96.419,50.518 96.156,50.213C96.435,49.973 96.652,50.08 96.907,50.436z"/><path fill="#f7f7f7" d="M118.014,140.112C119.36,139.773 120.707,139.435 122.5,138.983C122.714,141.144 122.868,142.687 123.005,144.068C119.264,145.013 115.926,145.856 112.589,146.7C112.639,147.072 112.689,147.445 112.739,147.817C113.914,147.917 115.089,148.016 116.676,148.503C117.724,148.58 118.36,148.27 118.997,147.96C119.154,147.878 119.312,147.795 119.735,148.192C120.088,150.875 120.174,153.08 120.003,155.141C119.31,154.926 118.875,154.855 118.44,154.785C118.625,155.522 118.811,156.259 118.758,157.011C118.247,157.144 117.974,157.261 117.701,157.379C117.788,157.502 117.875,157.624 117.962,157.747C118.309,157.499 118.655,157.251 119.312,156.975C119.823,156.898 120.025,156.848 120.402,156.949C120.716,157.377 120.846,157.658 120.969,157.942C114.576,159.569 108.183,161.196 100.951,163.037C101.578,151.036 99.512,141.538 86.042,138.952C84.756,138.9 84.135,138.924 83.082,139.018C81.111,139.664 79.465,140.069 78.096,140.92C77.672,141.182 78.002,142.657 77.873,143.604C77.759,143.63 77.54,144.023 77.836,143.63C77.081,143.157 76.03,143.079 74.679,143.154C74.424,143.529 74.47,143.75 74.302,143.936C73.715,144.095 73.34,144.288 72.817,144.837C71.761,147.258 70.819,149.312 70.041,151.426C69.999,151.539 71.334,152.159 71.985,152.689C71.883,153.219 71.863,153.492 71.884,153.657C70.658,155.91 69.432,158.164 67.711,161.326C65.658,160.9 62.44,160.567 59.515,159.459C58.351,159.018 57.028,156.773 57.164,155.497C57.877,148.814 59.035,142.179 60.064,135.355C63.388,135.681 66.285,135.965 69.851,136.142C70.335,135.743 70.152,135.451 69.968,135.159C67.363,134.77 66.724,133.151 67.457,130.257C67.794,129.144 67.917,128.581 68.041,128.019C67.811,127.3 67.776,126.143 67.317,125.939C65.69,125.217 63.918,124.819 62.212,124.301C62.614,112.143 69.871,103.348 75.324,93.806C75.804,92.964 77.469,92.489 78.624,92.408C81.103,92.233 83.694,92.865 86.086,92.391C94.52,90.718 99.552,94.397 103.3,101.693C107.158,109.205 111.807,116.31 116.359,124.015C114.528,124.527 112.935,124.973 111.282,125.435C118.766,128.633 118.766,128.633 121.312,136.322C119.447,137.292 117.566,138.27 115.525,139.851C115.957,141.234 116.549,142.012 117.767,143.614C117.903,141.685 117.959,140.899 118.014,140.112M90.066,106.117C87.919,105.086 85.557,102.99 83.696,103.367C82.25,103.66 80.731,106.955 80.479,109.063C79.979,113.242 80.331,117.523 80.331,121.687C83.627,121.687 87.186,121.687 90.19,121.687C90.19,116.532 90.19,111.77 90.066,106.117z"/><path fill="#f0f0f0" d="M71.979,154.409C71.863,153.492 71.883,153.219 72.169,152.347C73.322,149.988 74.353,148.154 75.058,146.203C75.16,145.918 73.702,145.069 72.966,144.481C73.34,144.288 73.715,144.095 74.271,143.934C74.453,143.967 74.402,143.932 75.171,144.476C76.474,144.688 77.007,144.356 77.54,144.023C77.54,144.023 77.759,143.63 78.247,143.419C79.988,142.826 81.467,142.727 82.423,141.968C83.136,141.403 83.174,139.986 83.513,138.948C84.135,138.924 84.756,138.9 85.508,138.861C86.239,139.866 86.607,141.47 87.478,141.818C95.626,145.078 98.488,151.323 98.234,159.646C98.062,165.273 98.201,170.909 98.201,176.706C95.443,177.693 93.754,177.712 93.862,174.043C94.037,168.068 94.097,162.078 93.892,156.106C93.692,150.278 91.243,147.163 86.715,146.176C82.254,145.203 78.562,146.594 76.779,150.724C75.656,153.325 75.556,156.471 75.457,159.388C75.266,165.006 75.401,170.636 75.401,176.136C71.694,177.464 70.83,176.056 71.038,173.061C71.454,167.1 71.737,161.129 71.979,154.409z"/><path fill="#eaeaeb" d="M46.248,158.906C47.724,162.006 48.983,164.771 50.107,167.239C46.98,169.085 44.115,170.777 40.984,172.626C40.743,172.292 40.113,171.415 39.351,170.355C38.709,171.827 38.133,173.147 37.444,174.727C35.406,174.298 33.379,173.871 29.939,173.147C32.313,168.928 35.912,165.347 35.916,161.761C35.921,157.897 37.504,157.462 39.931,156.381C42.79,155.107 44.678,155.944 46.248,158.906z"/><path fill="#f1f1f1" d="M128.962,118.092C126.192,115.539 123.422,112.985 120.475,110.268C121.812,108.507 122.862,107.125 123.955,105.371C123.998,105.001 124.039,104.957 124.285,105.063C124.664,104.206 124.799,103.242 124.933,102.279C126.361,101.679 127.743,100.871 129.232,100.541C130.644,100.227 132.167,100.415 133.781,101.06C133.628,103.478 133.336,105.217 132.889,107.402C132.71,108.163 132.685,108.477 132.33,108.601C131.22,107.945 130.441,107.478 129.662,107.012C129.421,107.276 129.181,107.541 128.94,107.805C130.976,109.864 133.011,111.924 134.737,114.134C132.606,115.554 130.784,116.823 128.962,118.092z"/><path fill="#f0f0f0" d="M131.317,169.499C134.59,171.317 132.416,172.851 131.118,172.985C126.772,173.434 126.31,176.915 125.14,180.71C121.491,179.435 118.228,178.295 114.822,177.105C120.159,167.445 122.438,166.43 131.317,169.499z"/><path fill="#f5f6f6" d="M55.887,28.764C56.132,29.412 56.291,29.74 56.529,30.382C56.073,30.981 55.537,31.267 54.71,31.761C53.088,33.171 51.712,34.33 50.475,35.621C50.306,35.797 50.825,36.633 50.836,37.391C50.297,37.79 49.947,37.963 49.598,38.136C48.448,38.595 47.299,39.054 45.395,39.813C44.146,37.816 42.809,35.679 41.197,33.257C40.922,32.972 40.945,33.065 41.334,33.17C41.836,32.832 41.95,32.39 42.01,31.952C41.956,31.957 41.948,32.064 42.345,32.179C42.848,31.841 42.954,31.388 43.005,30.944C42.951,30.952 42.947,31.063 43.274,31.18C43.733,30.865 43.866,30.433 44.281,29.815C47.007,27.768 49.451,25.906 51.895,24.044C53.197,25.51 54.499,26.977 55.887,28.764z"/><path fill="#efefef" d="M40.961,32.943C35.621,32.257 33.755,29.662 35.761,24.685C34.202,25.573 33.079,26.213 31.777,26.954C30.176,25.656 28.536,24.327 26.505,22.681C29.348,20.68 30.212,15.429 35.636,19.009C36.039,19.063 35.985,19.008 36.011,19.373C36.181,21.255 36.325,22.771 36.477,24.384C38.11,24.271 40.092,24.134 42.363,24.022C43.101,24.366 43.55,24.686 43.995,25.374C43.66,27.163 43.331,28.583 42.937,30.265C42.898,30.706 42.922,30.885 42.947,31.063C42.947,31.063 42.951,30.952 42.671,30.956C42.243,31.327 42.095,31.696 41.948,32.064C41.948,32.064 41.956,31.957 41.665,31.922C41.231,32.279 41.088,32.672 40.945,33.065C40.945,33.065 40.922,32.972 40.961,32.943z"/><path fill="#e8e8e8" d="M89.316,62.839C91.949,66.588 91.461,69.977 88.188,72.235C86.489,73.406 83.504,73.981 81.605,73.336C77.351,71.891 76.106,67.671 78.196,64.142C80.614,60.057 84.421,59.507 89.316,62.839M82.738,70.51C84.15,69.614 85.967,68.984 86.803,67.71C87.23,67.059 86.219,64.656 85.266,64.143C84.366,63.658 81.673,64.396 81.552,64.971C81.215,66.58 81.8,68.383 82.738,70.51z"/><path fill="#f3f2f3" d="M61.808,96.061C61.886,96.908 62.361,98.07 61.979,98.551C59.212,102.036 56.38,105.487 53.286,108.675C52.748,109.229 50.874,108.487 49.226,107.83C49.126,105.975 49.14,104.484 49.77,103.329C50.806,101.425 52.241,99.737 53.811,97.978C54.758,97.388 55.401,96.777 56.285,95.876C56.369,95.387 56.213,95.19 56.024,94.993C55.991,94.994 55.993,95.059 56.378,95.238C56.854,94.958 56.945,94.5 57.017,94.022C56.998,94.002 57.031,94.048 57.284,94.337C58.96,95.104 60.384,95.582 61.808,96.061z"/><path fill="#dcdddd" d="M60.458,170.425C58.444,168.2 56.771,166.132 55.098,164.063C55.426,163.597 55.754,163.131 56.082,162.665C59.807,163.195 63.557,163.607 67.239,164.352C67.996,164.505 69.028,165.908 69.023,166.729C69.008,169.344 68.563,171.957 68.259,174.796C65.51,173.242 63.155,171.912 60.458,170.425z"/><path fill="#f1f1f1" d="M135.778,152.766C137.533,152.297 139.023,152.095 140.514,151.893C140.357,153.257 140.378,154.671 140.01,155.976C138.817,160.217 137.481,164.418 136.196,168.633C130.204,166.07 129.986,161.068 135.778,152.766z"/><path fill="#fcfcfc" d="M55.002,31.552C55.537,31.267 56.073,30.981 56.761,30.535C57.378,30.263 57.842,30.152 58.662,30.011C59.703,31.553 60.389,33.124 61.388,34.806C62.114,35.709 62.526,36.5 62.567,37.669C60.288,38.246 58.379,38.447 56.279,38.668C56.665,39.961 57.255,41.941 57.48,44.032C56.666,44.704 56.218,45.265 55.77,45.827C51.051,45.164 48.613,42.43 49.58,38.501C49.947,37.963 50.297,37.79 51.201,37.493C55.058,37.642 55.058,37.642 55.002,31.552z"/><path fill="#dfdfe0" d="M102.01,83.035C102.969,81.069 103.927,79.103 105.217,76.456C108.09,79.576 110.377,82.061 112.597,85.141C112.021,87.147 111.511,88.556 110.852,90.138C110.494,90.533 110.291,90.76 109.738,91.025C108.245,92.402 107.106,93.745 105.967,95.089C105.356,94.596 104.745,94.103 104.082,92.981C105.119,90.871 106.208,89.392 106.792,88.599C105.075,86.601 103.542,84.818 102.01,83.035z"/><path fill="#e2e2e3" d="M36.009,117.586C35.994,117.779 35.904,117.898 35.782,117.949C34.112,118.282 32.4,118.612 29.84,119.106C28.839,117.925 27.262,116.063 25.589,114.088C28.11,112.489 29.755,108.135 34.796,110.725C35.509,110.722 35.698,110.935 35.456,111.671C35.332,113.962 35.67,115.774 36.009,117.586z"/><path fill="#f0f0f0" d="M136.037,16.994C138.685,18.562 141.333,20.129 144.53,22.021C141.284,24.419 138.983,26.118 136.032,27.752C134.552,26.375 133.724,25.063 132.825,23.377C132.854,22.002 132.953,21.001 133.024,19.998C132.996,19.994 133.001,20.052 133.261,20.036C133.697,19.739 133.873,19.458 134.302,19.059C134.73,18.625 134.903,18.309 135.028,17.99C134.979,17.988 134.968,18.085 135.251,18.015C135.717,17.62 135.9,17.295 136.059,16.956C136.035,16.943 136.037,16.994 136.037,16.994z"/><path fill="#f1f1f1" d="M113.804,103.085C113.702,101.936 113.6,100.786 113.218,99.304C112.938,98.972 112.958,99.058 113.36,99.205C113.86,98.884 113.959,98.416 114.011,97.953C113.965,97.959 113.961,98.051 114.237,98.241C114.671,98.272 114.828,98.115 115.343,97.794C116.679,97.676 117.659,97.722 118.169,97.745C118.519,96.179 118.801,94.917 119.387,93.456C119.815,92.835 119.939,92.412 120.028,91.981C119.994,91.973 119.984,92.042 119.984,92.042C120.963,92.086 121.943,92.129 122.838,92.709C122.03,95.642 121.307,98.038 120.5,100.711C121.55,101.971 122.795,103.464 124.039,104.957C124.039,104.957 123.998,105.001 123.978,105.022C121.278,104.98 119.127,110.883 116.249,105.39C117.241,104.441 117.986,103.851 118.73,103.26C117.088,103.202 115.446,103.144 113.804,103.085z"/><path fill="#f5f6f6" d="M132.895,23.752C133.724,25.063 134.552,26.375 135.678,27.838C133.245,30.323 130.514,32.656 127.37,34.544C126.31,32.411 125.662,30.722 125.31,28.867C128.036,27.052 130.466,25.402 132.895,23.752z"/><path fill="#e8e8e8" d="M56.044,96.167C55.401,96.777 54.758,97.388 53.469,97.995C51.811,98.437 50.8,98.881 49.464,99.245C48.515,98.968 47.892,98.772 47.268,98.576C45.321,93.93 49.804,92.873 51.96,90.735C52.738,89.962 54.92,90.605 56.739,90.298C57.017,89.995 56.949,90.008 56.775,90.277C56.758,90.69 56.915,90.834 57.135,91.374C57.142,92.528 57.087,93.288 57.031,94.048C57.031,94.048 56.998,94.002 56.667,93.903C56.221,94.222 56.107,94.64 55.993,95.059C55.993,95.059 55.991,94.994 55.688,94.954C55.605,95.332 55.824,95.749 56.044,96.167z"/><path fill="#f1f1f1" d="M139.943,107.411C142.463,108.399 144.983,109.388 147.543,110.392C145.319,112.908 143.733,114.703 141.904,116.773C140.124,115.349 138.507,114.056 136.598,112.208C136.224,111.086 136.142,110.518 136.032,109.971C136.004,109.992 135.948,110.037 136.361,110.232C136.861,109.935 136.949,109.443 137.015,108.973C136.995,108.995 136.951,109.036 137.364,109.23C137.863,108.933 137.949,108.442 138.015,107.973C137.995,107.995 137.951,108.036 138.364,108.23C138.863,107.933 138.949,107.442 139.016,106.967C138.998,106.985 138.956,107.015 139.133,107.289C139.52,107.512 139.732,107.462 139.943,107.411z"/><path fill="#ebebec" d="M130.002,19.797C129.077,18.575 128.152,17.354 126.939,16.071C127.863,13.612 129.075,11.214 130.287,8.817C130.942,8.782 131.598,8.748 132.253,8.713C133.23,11.37 134.207,14.027 135.611,16.839C136.037,16.994 136.035,16.943 135.633,16.751C135.143,17.067 135.055,17.576 134.968,18.085C134.968,18.085 134.979,17.988 134.784,17.697C134.359,17.516 134.13,17.626 133.543,17.928C133.124,18.765 133.062,19.408 133.001,20.052C133.001,20.052 132.996,19.994 132.739,19.662C131.656,19.486 130.829,19.641 130.002,19.797z"/><path fill="#f3f2f3" d="M128.985,118.449C130.784,116.823 132.606,115.554 134.969,114.144C135.511,114.003 135.969,114.076 135.969,114.076C137.301,115.52 138.632,116.964 140.008,118.456C138.124,120.457 136.325,122.368 134.334,124.483C132.484,122.511 130.746,120.658 128.985,118.449z"/><path fill="#f1f1f1" d="M66.771,84.763C68.27,85.395 69.769,86.026 72.57,87.207C69.026,90.432 66.383,92.837 63.259,94.79C62.492,92.567 62.207,90.797 62.225,88.946C63.942,87.498 65.357,86.131 66.771,84.763z"/><path fill="#dfe0e1" d="M66.698,84.385C65.357,86.131 63.942,87.498 61.875,89.009C60.137,89.472 59.054,89.793 57.738,89.866C57.32,89.749 57.135,89.879 56.949,90.008C56.949,90.008 57.017,89.995 57.021,90.029C57.475,88.346 57.518,86.343 58.474,84.982C59.781,83.122 61.784,81.751 64.066,79.634C64.981,81.197 65.803,82.602 66.698,84.385z"/><path fill="#eeeeee" d="M124.285,105.063C122.795,103.464 121.55,101.971 120.5,100.711C121.307,98.038 122.03,95.642 123.085,93.017C125.28,94.016 127.143,95.244 129.006,96.471C129.444,97.104 129.882,97.737 130.319,98.369C128.52,99.431 126.721,100.494 124.928,101.917C124.799,103.242 124.664,104.206 124.285,105.063z"/><path fill="#ebebec" d="M111.002,89.966C111.511,88.556 112.021,87.147 112.728,85.46C115.716,86.623 119.658,86.859 119.716,91.737C119.984,92.042 119.994,91.973 119.765,91.753C119.354,91.677 119.172,91.82 118.685,92.085C116.915,92.458 115.45,92.709 113.999,92.976C114.013,92.992 114.049,93.014 113.959,92.623C113.233,92.151 112.596,92.069 111.976,91.995C111.991,92.003 112.016,92.029 112.295,91.764C112.05,90.988 111.526,90.477 111.002,89.966z"/><path fill="#ebebec" d="M101.645,83.042C103.542,84.818 105.075,86.601 106.792,88.599C106.208,89.392 105.119,90.871 104.01,92.692C101.657,91.05 99.324,89.066 96.558,86.712C98.777,84.99 100.028,84.02 101.645,83.042z"/><path fill="#ebebec" d="M106.104,95.422C107.106,93.745 108.245,92.402 109.907,91.276C110.958,91.671 111.487,91.85 112.016,92.029C112.016,92.029 111.991,92.003 112.048,92.394C112.753,92.861 113.401,92.937 114.049,93.014C114.049,93.014 114.013,92.992 113.71,93.2C113.686,94.628 113.964,95.847 114.033,97.272C113.869,97.67 113.915,97.86 113.961,98.051C113.961,98.051 113.965,97.959 113.662,97.93C113.225,98.287 113.091,98.673 112.958,99.058C112.958,99.058 112.938,98.972 112.973,98.946C109.356,100.852 108.256,97.323 106.104,95.422z"/><path fill="#e7e7e7" d="M67.025,42.691C69.12,44.35 71.215,46.008 74.608,48.695C71.182,49.61 69.191,50.141 67.062,51.003C66.429,50.895 65.934,50.457 65.95,49.904C67.707,47.507 61.947,44.668 67.025,42.691z"/><path fill="#1f2020" d="M66.974,42.341C61.947,44.668 67.707,47.507 65.745,49.602C64.024,49.301 63.018,49.186 61.972,48.644C61.921,47.929 61.908,47.643 61.912,47.05C61.282,45.494 60.635,44.246 60.222,42.792C61.226,41.702 61.995,40.818 62.765,39.933C64.151,40.619 65.537,41.305 66.974,42.341z"/><path fill="#efefef" d="M62.012,49.072C63.018,49.186 64.024,49.301 65.235,49.717C65.934,50.457 66.429,50.895 67.007,51.489C66.986,53.181 66.882,54.716 66.778,56.252C66.205,56.355 65.632,56.459 65.058,56.562C63.585,54.576 62.112,52.591 60.34,50.306C60.042,50.007 60.015,50.088 60.405,50.258C60.891,49.965 60.987,49.503 61.047,49.028C61.011,49.015 61.036,49.086 61.283,49.275C61.69,49.334 61.851,49.203 62.012,49.072z"/><path fill="#2e2e2e" d="M49.789,99.326C50.8,98.881 51.811,98.437 53.165,97.975C52.241,99.737 50.806,101.425 49.77,103.329C49.14,104.484 49.126,105.975 48.936,107.648C48.744,108.196 48.452,108.411 48.041,108.879C45.356,107.912 42.979,106.544 43.467,102.972C47.932,105.503 48.126,101.136 49.789,99.326z"/><path fill="#cacbcb" d="M120.261,155.285C120.174,153.08 120.088,150.875 119.99,148.269C120.776,147.401 121.574,146.935 122.676,146.29C123.203,149.386 123.897,152.062 123.986,154.758C124.017,155.703 122.561,156.696 121.376,157.805C120.846,157.658 120.716,157.377 120.369,156.698C120.194,155.959 120.227,155.622 120.261,155.285z"/><path fill="#dcdddd" d="M75.49,74.148C76.256,74.999 77.417,76.604 77.071,77.056C75.311,79.357 73.161,81.359 71.081,83.536C69.258,80.833 69.258,80.833 75.49,74.148z"/><path fill="#e5e5e5" d="M92.662,61.452C91.302,61.073 90.196,60.466 88.501,59.535C92.241,58.016 92.963,52.327 98.983,54.346C96.563,57.089 94.74,59.156 92.662,61.452z"/><path fill="#e7e7e7" d="M141.063,172.095C140.469,170.889 139.713,169.206 140.098,168.884C142.553,166.826 145.26,165.05 149.027,169.628C144.268,167.019 146.414,176.055 141.063,172.095z"/><path fill="#eaeaeb" d="M97.649,76.521C99.059,77.48 100.178,78.178 101.298,78.875C101.004,79.451 100.709,80.027 100.415,80.602C99.264,80.544 97.728,80.936 97.033,80.344C94.958,78.574 93.212,76.418 91.338,74.413C92.214,74.085 93.328,73.255 93.917,73.533C95.206,74.143 96.228,75.316 97.649,76.521z"/><path fill="#d0d0d0" d="M59.987,42.997C60.635,44.246 61.282,45.494 61.615,47.264C61.212,48.219 61.124,48.653 61.036,49.086C61.036,49.086 61.011,49.015 60.709,48.944C60.276,49.279 60.145,49.683 60.015,50.088C60.015,50.088 60.042,50.007 60.082,50.021C58.764,48.842 57.405,47.649 55.908,46.142C56.218,45.265 56.666,44.704 57.766,43.963C58.941,43.521 59.464,43.259 59.987,42.997z"/><path fill="#ececed" d="M49.464,99.245C48.126,101.136 47.932,105.503 43.479,102.607C43.264,102.391 43.083,102.152 42.83,101.789C42.012,101.271 41.447,101.117 40.882,100.963C42.345,99.236 43.196,96.243 46.869,98.42C47.892,98.772 48.515,98.968 49.464,99.245z"/><path fill="#dfdfe0" d="M78.273,84.881C83.17,84.426 88.058,84.426 92.946,84.426C92.938,84.982 92.93,85.538 92.922,86.095C88.036,85.842 83.15,85.589 78.273,84.881z"/><path fill="#ececed" d="M66.185,130.037C65.898,131.28 65.611,132.523 65.29,133.912C62.717,133.773 60.566,133.919 60.864,130.294C61.137,126.967 62.956,127.235 65.647,128.195C66.131,129.118 66.158,129.577 66.185,130.037z"/><path fill="#262626" d="M125.015,29.033C125.662,30.722 126.31,32.411 127.031,34.409C126.958,35.076 126.811,35.434 126.503,35.91C124.601,34.684 122.861,33.341 120.096,31.207C120.745,30.577 121.937,29.419 123.73,28.204C124.559,28.442 124.787,28.737 125.015,29.033z"/><path fill="#d8d8d8" d="M77.504,61.184C74.574,59.31 71.918,57.204 69.263,55.098C73.956,54.682 76.538,56.955 77.504,61.184z"/><path fill="#282928" d="M57.97,90.113C59.054,89.793 60.137,89.472 61.572,89.089C62.207,90.797 62.492,92.567 62.893,94.65C62.777,95.248 62.546,95.535 62.061,95.941C60.384,95.582 58.96,95.104 57.284,94.337C57.087,93.288 57.142,92.528 57.323,91.273C57.691,90.609 57.865,90.388 57.97,90.113z"/><path fill="#d8d8d8" d="M60.222,42.792C59.464,43.259 58.941,43.521 58.132,43.852C57.255,41.941 56.665,39.961 56.279,38.668C58.379,38.447 60.288,38.246 62.508,38.005C62.84,38.404 62.861,38.842 62.823,39.607C61.995,40.818 61.226,41.702 60.222,42.792z"/><path fill="#181919" d="M136.047,113.643C135.969,114.076 135.511,114.003 135.279,113.993C133.011,111.924 130.976,109.864 128.94,107.805C129.181,107.541 129.421,107.276 129.662,107.012C130.441,107.478 131.22,107.945 132.497,108.807C134.017,109.452 135.038,109.7 136.06,109.949C136.142,110.518 136.224,111.086 136.3,112C136.236,112.633 136.18,112.921 136.047,113.643z"/><path fill="#f1f1f1" d="M136.032,109.971C135.038,109.7 134.017,109.452 132.827,108.997C132.685,108.477 132.71,108.163 133.267,107.406C134.93,105.767 136.06,104.572 137.191,103.377C137.939,103.995 138.687,104.614 139.187,105.791C138.945,106.571 138.951,106.793 138.956,107.015C138.956,107.015 138.998,106.985 138.68,106.942C138.226,107.279 138.089,107.657 137.951,108.036C137.951,108.036 137.995,107.995 137.676,107.935C137.222,108.262 137.087,108.649 136.951,109.036C136.951,109.036 136.995,108.995 136.68,108.934C136.227,109.262 136.087,109.649 135.948,110.037C135.948,110.037 136.004,109.992 136.032,109.971z"/><path fill="#eeeeee" d="M137.024,103.14C136.06,104.572 134.93,105.767 133.421,106.959C133.336,105.217 133.628,103.478 133.964,101.36C134.957,101.622 135.907,102.262 137.024,103.14z"/><path fill="#eeeeee" d="M113.896,103.359C115.446,103.144 117.088,103.202 118.73,103.26C117.986,103.851 117.241,104.441 116.111,105.064C115.146,104.609 114.568,104.121 113.896,103.359z"/><path fill="#dfe0e1" d="M112.481,32.259C113.774,32.893 114.897,33.807 116.019,34.721C115.694,35.167 115.37,35.614 115.046,36.06C114.061,35.313 113.076,34.566 112.062,33.477C112.125,32.936 112.217,32.737 112.481,32.259z"/><path fill="#dfe0e1" d="M119.268,42.878C118.427,41.63 117.842,40.227 117.257,38.825C117.445,38.577 117.633,38.329 117.821,38.08C118.769,38.808 119.718,39.535 120.806,40.55C120.472,41.466 119.998,42.095 119.268,42.878z"/><path fill="#e2e2e3" d="M117.643,140.092C117.959,140.899 117.903,141.685 117.767,143.614C116.549,142.012 115.957,141.234 115.574,140.265C116.279,140.075 116.775,140.073 117.643,140.092z"/><path fill="#1d1d1d" d="M135.919,176.099C135.113,176.007 134.386,175.828 133.658,175.648C133.833,175.279 134.085,174.575 134.169,174.594C134.793,174.739 135.383,175.028 136.074,175.559C136.164,175.846 135.997,176.011 135.919,176.099z"/><path fill="#eaeaeb" d="M118.65,147.927C118.36,148.27 117.724,148.58 117.033,148.61C117.42,148.184 117.862,148.038 118.65,147.927z"/><path fill="#313131" d="M66.438,130.049C66.158,129.577 66.131,129.118 66.095,128.311C66.52,127.978 66.954,127.992 67.714,128.013C67.917,128.581 67.794,129.144 67.433,129.871C67.027,130.044 66.859,130.052 66.438,130.049z"/><path fill="#1d1d1d" d="M107.431,172.833C107.677,172.16 108.124,171.33 108.689,170.776C108.415,171.593 108.024,172.134 107.431,172.833z"/><path fill="#e5e5e5" d="M40.619,101.028C41.447,101.117 42.012,101.271 42.728,101.679C42.066,101.932 41.252,101.933 40.032,101.893C39.869,101.599 40.113,101.346 40.619,101.028z"/><path fill="#1d1d1d" d="M123.377,163.969C123.333,163.731 123.444,163.461 123.759,163.343C123.892,163.713 123.748,163.86 123.377,163.969z"/><path fill="#111111" d="M117.711,25.131C117.866,25.458 117.816,25.91 117.395,26.22C117.093,25.75 117.253,25.476 117.711,25.131z"/><path fill="#313131" d="M69.958,135.368C70.152,135.451 70.335,135.743 70.259,136.015C69.999,135.995 69.949,135.578 69.958,135.368z"/><path fill="#eaeaeb" d="M33.329,126.054C33.071,125.822 33.163,125.557 33.505,125.183C33.64,125.359 33.616,125.675 33.329,126.054z"/><path fill="#181919" d="M139.133,107.289C138.951,106.793 138.945,106.571 139.216,106.164C139.639,106.285 139.786,106.59 139.938,107.153C139.732,107.462 139.52,107.512 139.133,107.289z"/><path fill="#313131" d="M125.31,28.867C124.787,28.737 124.559,28.442 124.074,28.027C125.658,25.314 127.501,22.721 129.673,19.962C130.829,19.641 131.656,19.486 132.768,19.666C132.953,21.001 132.854,22.002 132.825,23.377C130.466,25.402 128.036,27.052 125.31,28.867z"/><path fill="#dfe0e1" d="M118.143,35.74C117.935,35.405 117.964,35.037 117.992,34.669C118.251,34.746 118.509,34.822 118.768,34.899C118.638,35.169 118.509,35.438 118.143,35.74z"/><path fill="#0d0d0e" d="M36.287,117.377C35.67,115.774 35.332,113.962 35.504,111.783C36.408,112.023 36.802,112.631 37.233,113.916C37.608,115.086 37.947,115.58 38.286,116.073C37.712,116.438 37.139,116.802 36.287,117.377z"/><path fill="#eaeaeb" d="M38.567,116C37.947,115.58 37.608,115.086 37.315,114.292C38.072,114.171 38.783,114.35 39.494,114.529C39.279,114.995 39.064,115.461 38.567,116z"/><path fill="#eaeaeb" d="M41.043,111.399C41.283,111.793 41.281,112.186 41.25,112.576C41.249,112.588 40.944,112.576 40.781,112.575C40.786,112.183 40.791,111.79 41.043,111.399z"/><path fill="#f5f6f6" d="M43.999,25.006C43.55,24.686 43.101,24.366 42.114,23.626C42.024,21.163 42.472,19.121 42.92,17.079C42.92,17.079 43.062,16.94 43.106,16.85C45.431,18.348 47.711,19.936 49.762,22.113C47.689,23.47 45.844,24.238 43.999,25.006z"/><path fill="#eeeeee" d="M43.995,25.374C45.844,24.238 47.689,23.47 49.871,22.452C50.708,22.653 51.209,23.104 51.803,23.799C49.451,25.906 47.007,27.768 44.031,29.772C43.333,29.944 43.167,29.973 43.001,30.002C43.331,28.583 43.66,27.163 43.995,25.374z"/><path fill="#0d0d0e" d="M42.591,17.154C42.472,19.121 42.024,21.163 41.825,23.601C40.092,24.134 38.11,24.271 36.477,24.384C36.325,22.771 36.181,21.255 35.993,19.339C38.895,21.478 40.203,17.965 42.591,17.154z"/><path fill="#131413" d="M90.128,106.562C90.19,111.77 90.19,116.532 90.19,121.687C87.186,121.687 83.627,121.687 80.331,121.687C80.331,117.523 79.979,113.242 80.479,109.063C80.731,106.955 82.25,103.66 83.696,103.367C85.557,102.99 87.919,105.086 90.128,106.562M87.03,118.047C87.03,114.35 87.03,110.654 87.03,106.957C86.391,106.974 85.752,106.991 85.113,107.009C85.113,110.978 85.109,114.948 85.188,118.915C85.188,118.94 86.33,118.943 87.03,118.047z"/><path fill="#0d0d0e" d="M72.817,144.837C73.702,145.069 75.16,145.918 75.058,146.203C74.353,148.154 73.322,149.988 72.212,152.201C71.334,152.159 69.999,151.539 70.041,151.426C70.819,149.312 71.761,147.258 72.817,144.837z"/><path fill="#0d0d0e" d="M83.082,139.018C83.174,139.986 83.136,141.403 82.423,141.968C81.467,142.727 79.988,142.826 78.36,143.393C78.002,142.657 77.672,141.182 78.096,140.92C79.465,140.069 81.111,139.664 83.082,139.018z"/><path fill="#eaeaeb" d="M120.003,155.141C120.227,155.622 120.194,155.959 120.193,156.548C120.025,156.848 119.823,156.898 119.311,156.974C119,157 118.996,156.996 118.996,156.996C118.811,156.259 118.625,155.522 118.44,154.785C118.875,154.855 119.31,154.926 120.003,155.141z"/><path fill="#0d0d0e" d="M77.836,143.63C77.007,144.356 76.474,144.688 75.479,144.535C75.086,143.93 75.225,143.8 75.209,143.694C75.174,143.456 75.06,143.23 74.978,143C76.03,143.079 77.081,143.157 77.836,143.63z"/><path fill="#eaeaeb" d="M119.001,157.002C118.655,157.251 118.309,157.499 117.962,157.747C117.875,157.624 117.788,157.502 117.701,157.379C117.974,157.261 118.247,157.144 118.758,157.011C118.996,156.996 119,157 119.001,157.002z"/><path fill="#1d1d1d" d="M74.679,143.154C75.06,143.23 75.174,143.456 75.209,143.694C75.225,143.8 75.086,143.93 74.71,143.991C74.402,143.932 74.453,143.967 74.484,143.968C74.47,143.75 74.424,143.529 74.679,143.154z"/><path fill="#d8d8d8" d="M54.71,31.761C55.058,37.642 55.058,37.642 51.391,37.266C50.825,36.633 50.306,35.797 50.475,35.621C51.712,34.33 53.088,33.171 54.71,31.761z"/><path fill="#0d0d0e" d="M42.937,30.265C43.167,29.973 43.333,29.944 43.75,29.957C43.866,30.433 43.733,30.865 43.274,31.18C42.922,30.885 42.898,30.706 42.937,30.265z"/><path fill="#0d0d0e" d="M41.334,33.17C41.088,32.672 41.231,32.279 41.719,31.917C41.95,32.39 41.836,32.832 41.334,33.17z"/><path fill="#0d0d0e" d="M42.345,32.179C42.095,31.696 42.243,31.327 42.725,30.947C42.954,31.388 42.848,31.841 42.345,32.179z"/><path fill="#181919" d="M82.379,70.309C81.8,68.383 81.215,66.58 81.552,64.971C81.673,64.396 84.366,63.658 85.266,64.143C86.219,64.656 87.23,67.059 86.803,67.71C85.967,68.984 84.15,69.614 82.379,70.309z"/><path fill="#282928" d="M56.378,95.238C56.107,94.64 56.221,94.222 56.686,93.922C56.945,94.5 56.854,94.958 56.378,95.238z"/><path fill="#282928" d="M56.285,95.876C55.824,95.749 55.605,95.332 55.721,94.953C56.213,95.19 56.369,95.387 56.285,95.876z"/><path fill="#2e2e2e" d="M112.295,91.764C111.487,91.85 110.958,91.671 110.26,91.242C110.291,90.76 110.494,90.533 110.852,90.138C111.526,90.477 112.05,90.988 112.295,91.764z"/><path fill="#313131" d="M133.261,20.036C133.062,19.408 133.124,18.765 133.57,18.29C133.986,18.699 134.017,18.938 134.049,19.178C133.873,19.458 133.697,19.739 133.261,20.036z"/><path fill="#0d0d0e" d="M135.251,18.015C135.055,17.576 135.143,17.067 135.657,16.764C135.9,17.295 135.717,17.62 135.251,18.015z"/><path fill="#0d0d0e" d="M134.302,19.059C134.017,18.938 133.986,18.699 133.928,18.098C134.13,17.626 134.359,17.516 134.833,17.699C134.903,18.309 134.73,18.625 134.302,19.059z"/><path fill="#2e2e2e" d="M114.243,97.066C113.964,95.847 113.686,94.628 113.697,93.185C115.45,92.709 116.915,92.458 118.722,92.507C119.07,93.09 119.077,93.372 119.083,93.655C118.801,94.917 118.519,96.179 118.169,97.745C117.659,97.722 116.679,97.676 115.248,97.622C114.66,97.383 114.475,97.2 114.243,97.066z"/><path fill="#0d0d0e" d="M119.387,93.456C119.077,93.372 119.07,93.09 119.027,92.385C119.172,91.82 119.354,91.677 119.799,91.761C119.939,92.412 119.815,92.835 119.387,93.456z"/><path fill="#0d0d0e" d="M114.033,97.272C114.475,97.2 114.66,97.383 114.891,97.785C114.828,98.115 114.671,98.272 114.237,98.241C113.915,97.86 113.869,97.67 114.033,97.272z"/><path fill="#0d0d0e" d="M113.36,99.205C113.091,98.673 113.225,98.287 113.708,97.924C113.959,98.416 113.86,98.884 113.36,99.205z"/><path fill="#0d0d0e" d="M57.738,89.866C57.865,90.388 57.691,90.609 57.26,90.878C56.915,90.834 56.758,90.69 56.775,90.277C57.135,89.879 57.32,89.749 57.738,89.866z"/><path fill="#181919" d="M136.361,110.232C136.087,109.649 136.227,109.262 136.701,108.913C136.949,109.443 136.861,109.935 136.361,110.232z"/><path fill="#181919" d="M137.364,109.23C137.087,108.649 137.222,108.262 137.697,107.913C137.949,108.442 137.863,108.933 137.364,109.23z"/><path fill="#181919" d="M138.364,108.23C138.089,107.657 138.226,107.279 138.699,106.925C138.949,107.442 138.863,107.933 138.364,108.23z"/><path fill="#2e2e2e" d="M113.959,92.623C113.401,92.937 112.753,92.861 112.032,92.386C112.596,92.069 113.233,92.151 113.959,92.623z"/><path fill="#0d0d0e" d="M61.283,49.275C61.124,48.653 61.212,48.219 61.598,47.571C61.908,47.643 61.921,47.929 61.972,48.644C61.851,49.203 61.69,49.334 61.283,49.275z"/><path fill="#0d0d0e" d="M60.405,50.258C60.145,49.683 60.276,49.279 60.744,48.957C60.987,49.503 60.891,49.965 60.405,50.258z"/><path fill="#e2e2e3" d="M86.984,118.501C86.33,118.943 85.188,118.94 85.188,118.915C85.109,114.948 85.113,110.978 85.113,107.009C85.752,106.991 86.391,106.974 87.03,106.957C87.03,110.654 87.03,114.35 86.984,118.501z"/></svg>