<svg xmlns="http://www.w3.org/2000/svg" viewBox="0 0 113 240" xml:space="preserve"><path fill="#090909" d="M101.891,229.036C102.204,229.362 102.516,229.687 102.829,230.013C99.723,230.291 96.62,230.606 93.511,230.837C89.727,231.118 85.574,229.532 82.57,233.545C82.029,234.269 80.052,234.042 78.738,234.045C65.285,234.073 51.831,234.121 38.38,233.959C36.995,233.942 35.688,232.426 34.235,231.92C32.359,231.268 30.376,230.559 28.435,230.545C25.139,230.522 21.84,231.024 18.02,231.35C18.39,230.122 18.62,229.359 18.893,228.45C17.493,228.015 16.101,227.582 14.194,226.8C13.126,226.021 12.574,225.59 12.022,225.159C13.249,224.674 14.477,224.189 15.656,223.722C16.351,218.794 15.714,213.416 21.439,210.781C21.976,210.533 22.028,209.018 22.128,208.072C22.566,203.939 23.018,199.804 23.308,195.659C23.514,192.706 24.074,190.255 27.127,188.71C28.211,188.162 28.978,186.122 29.11,184.691C31.216,161.839 33.164,138.973 35.236,116.118C35.582,112.295 36.272,108.721 32.937,105.51C31.889,104.501 32.278,101.746 32.409,99.818C32.724,95.182 33.429,90.571 33.687,85.933C33.923,81.676 35.146,77.214 28.817,75.328C25.506,74.341 25.866,70.577 28.503,68.467C38.016,60.856 42.811,50.221 46.939,39.367C50.266,30.618 52.413,21.422 55.118,12.434C55.621,10.762 56.287,9.139 58.143,7.494C59.281,11.724 60.328,15.982 61.589,20.176C62.535,23.323 63.66,26.425 64.874,29.48C68.073,37.533 70.772,45.864 74.82,53.472C77.635,58.762 82.185,63.192 86.276,67.721C89.719,71.532 89.862,74.265 85.178,76.061C81.12,77.616 81.06,80.046 81.49,83.365C81.853,86.167 82.004,88.996 81.388,92.07C80.02,92.313 79.515,92.298 78.861,91.973C78.215,89.999 77.791,88.308 77.18,86.687C76.933,86.035 76.274,85.539 75.618,84.836C75.141,84.166 74.849,83.634 74.283,82.76C61.833,82.419 49.657,82.419 37.281,82.419C36.812,89.581 36.35,96.645 35.887,103.707C38.164,104.216 39.891,104.603 40.572,104.755C42.312,102.149 43.66,100.131 45.037,98.813C45.699,103.747 45.362,108.471 47.197,112.096C49.863,117.365 56.379,119.107 61.821,117.497C68.48,115.526 71.512,111.261 72.396,103.003C73.035,103.004 73.399,103.006 73.931,103.427C75.909,103.739 77.72,103.632 79.71,103.516C79.469,99.807 79.271,96.756 79.825,93.667C81.061,93.496 81.546,93.364 82.03,93.233C82.988,97.964 84.322,102.414 81.524,107.351C78.856,112.059 82.803,119.848 88.846,122.044C90.019,122.099 90.347,122.158 90.616,122.595C90.022,124.641 89.488,126.311 88.575,127.944C86.441,128.034 84.685,128.161 82.929,128.288C82.962,128.735 82.995,129.182 83.029,129.63C87.242,129.63 91.456,129.63 95.669,129.63C95.728,129.371 95.787,129.112 95.846,128.854C94.899,128.519 93.952,128.184 93.007,127.642C93.022,127.158 93.029,126.882 93.425,126.369C93.859,123.429 93.896,120.725 94.29,118.014C95.363,118.006 96.079,118.006 96.795,118.007C97.536,121.194 98.39,124.362 98.963,127.58C99.209,128.962 99.409,131.316 98.711,131.749C93.379,135.06 95.385,140.196 95.204,144.713C95.096,147.404 95.079,149.444 92.291,151.336C88.272,154.063 85.761,157.792 86.891,163.581C88.284,170.717 88.442,178.091 89.247,185.35C89.357,186.346 89.896,187.869 90.611,188.133C95.64,189.99 95.241,194.447 95.837,198.433C96.657,203.923 95.289,210.03 101.056,214.051C102.148,214.812 101.767,217.514 102.42,219.182C102.626,219.71 103.984,219.787 105.36,220.339C106.069,220.886 106.233,221.164 106.397,221.443C108.707,222.537 111.017,223.632 113.663,224.863C114,225 114,225.5 114,225.75C110.331,226.373 106.662,226.745 102.245,227.085C101.13,227.44 100.762,227.827 100.395,228.215C100.894,228.488 101.393,228.762 101.891,229.036M36.64,67.961C36.944,67.64 37.248,67.319 37.552,66.998C37.344,66.815 37.135,66.633 36.926,66.451C36.586,66.935 36.245,67.419 35.095,68.058C34.83,68.132 34.565,68.206 34.439,68.58C34.435,68.86 34.294,69 33.296,69.054C32.712,69.793 32.129,70.531 31.545,71.27C32.557,71.448 33.568,71.627 35.383,71.799C46.695,72.916 57.99,75.898 69.349,72.202C62.266,71.824 55.172,71.987 48.096,71.705C46.413,71.638 44.79,70.085 43.004,69.144C41.692,72.42 38.81,70.945 36.024,69.26C36.046,68.868 36.068,68.476 36.64,67.961M82.983,191.007C82.983,191.007 82.954,190.972 83.694,190.923C84.441,189.864 85.188,188.805 85.936,187.746C84.984,187.163 84.033,186.58 82.794,185.356C82.61,184.24 82.426,183.124 82.977,181.99C86.307,180.46 86.015,178.781 83.01,176.093C83.01,173.422 83.01,170.75 83.01,168.12C80.901,168.12 79.43,168.12 77.801,167.513C77.518,167.003 77.234,166.493 77.702,165.959C79.131,165.628 80.56,165.298 82.621,164.929C82.523,164.366 82.425,163.803 82.503,162.552C82.328,161.388 82.153,160.225 81.979,158.263C81.943,157.732 81.907,157.201 81.736,155.93C81.485,153.638 81.234,151.346 80.744,148.561C80.174,148.116 79.603,147.67 79.583,146.95C80.029,146.308 80.474,145.666 81.652,144.998C82.469,144.593 83.285,144.188 84.727,144.001C89.333,143.337 86.156,139.943 86.678,137.913C86.991,136.695 85.875,135.11 85.401,133.69C84.914,133.869 84.427,134.048 83.94,134.227C83.94,136.818 83.94,139.408 83.246,142.004C82.321,141.996 81.395,141.988 80.193,141.11C79.499,134.728 78.805,128.345 78.589,121.571C78.115,120.712 77.641,119.854 76.973,118.143C76.452,115.614 75.93,113.085 75.409,110.556C70.911,117.561 65.61,121.356 57.803,121.123C50.066,120.892 45.131,116.525 41.59,108.565C40.412,111.482 39.37,113.036 39.188,114.684C38.315,122.602 37.88,130.573 36.871,138.472C36.289,143.02 36.436,146.845 41.105,149.516C41.075,149.697 41.044,149.878 40.169,150.059C38.888,150.116 37.608,150.173 36.109,150.24C35.859,153.269 35.632,156.019 35.424,158.54C38.298,159.445 40.705,160.202 42.53,160.995C42.027,161.244 41.525,161.493 40.12,161.872C38.527,161.872 36.935,161.872 35.115,161.872C34.367,171.438 33.647,180.645 32.916,189.988C35.793,190.766 38.309,191.445 40.883,192.14C42.021,189.474 42.738,187.063 43.998,184.979C47.473,179.234 52.171,175.311 59.642,176.798C57.833,177.763 55.857,178.514 54.256,179.749C52.364,181.209 50.797,183.088 49.014,185.286C49.008,185.454 49.002,185.623 48.236,185.732C44.834,187.639 43.954,190.522 44.759,194.612C44.501,195.055 44.242,195.498 43.956,196.877C43.956,203.635 43.956,210.394 43.956,217.4C45.717,217.4 46.966,217.4 48.244,217.4C48.244,210.155 48.244,203.089 48.54,195.258C49.748,192.194 50.956,189.13 52.882,185.835C56.22,183.171 60.066,182.701 63.555,184.812C67.637,187.282 69.344,191.515 69.389,196.268C69.455,203.203 69.406,210.139 69.406,217.348C71.148,217.348 72.495,217.348 74.057,217.348C74.057,214.268 74.297,211.469 74.012,208.725C73.142,200.37 75.437,191.499 70.071,183.833C69.782,183.42 70.146,182.549 70.705,181.173C72.955,184.486 75.205,187.799 77.798,191.617C78.523,191.535 80.265,191.337 82.228,191.43C82.479,191.274 82.731,191.118 82.983,191.007M52.92,37.385C52.21,37.223 51.504,37.019 50.785,36.959C50.705,36.953 50.557,37.767 50.44,38.201C51.292,38.135 52.145,38.069 53.148,38.732C60.302,42.412 60.965,42.323 63.36,36.8C59.693,37.224 56.348,37.611 52.92,37.385M67.067,62.739C67.646,63.763 68.224,64.787 69.116,66.365C69.693,63.629 70.084,61.775 70.586,59.394C69.146,60.083 68.197,60.536 66.815,60.276C62.722,60.276 58.629,60.276 54.319,60.276C54.98,56.75 55.52,53.876 56.919,51.023C59.125,51.023 61.33,51.023 64.726,51.023C63.082,48.323 62.194,46.864 61.977,46.508C58.229,48.899 54.908,47.615 51.74,47.869C51.573,46.54 51.433,45.432 51.161,43.272C49.042,45.731 47.611,47.392 45.893,49.385C48.883,49.999 51.334,50.503 54.162,51.738C52.944,59.68 52.832,59.768 43.924,59.244C43.041,59.244 42.157,59.244 41.274,59.244C41.335,59.654 41.396,60.064 41.456,60.473C41.971,60.316 42.486,60.158 43.154,60.709C44.749,61.224 46.336,62.151 47.939,62.18C54.296,62.293 60.657,62.126 67.067,62.739M93.565,225.021C94.16,225.023 94.755,225.025 95.685,225.725C96.635,224.702 98.347,223.702 98.38,222.649C98.457,220.231 97.716,217.786 97.289,215.243C91.143,216.25 85.032,217.252 79.073,218.228C79.46,219.66 79.817,220.905 80.132,222.16C81.518,227.681 83.852,228.994 89.206,226.904C89.497,226.926 89.787,226.948 90.734,227.051C91.479,226.367 92.224,225.683 93.565,225.021M27.72,226.64C29.934,227.146 32.149,227.652 34.543,228.199C36.252,224.727 37.812,221.556 39.616,217.892C32.798,217.073 26.712,216.343 20.363,215.581C20.159,219.38 20.003,222.286 19.801,226.03C22.46,224.973 24.5,224.162 26.612,224.761C26.835,225.174 27.059,225.588 27.72,226.64M86.318,210C86.51,210.001 86.703,210.002 87.189,210.779C87.917,211.555 88.646,212.332 89.375,213.108C90.498,211.638 91.62,210.168 92.973,208.054C92.195,206.666 91.416,205.279 90.211,203.295C90.211,199.816 90.211,196.338 90.211,191.957C85.938,192.612 81.539,193.287 77.656,193.883C77.656,201.111 77.656,207.966 77.656,215.262C81.438,214.175 86.073,215.892 86.318,210M32.494,212.726C35.072,213.575 37.65,214.423 40.746,215.442C40.746,207.487 40.746,200.748 40.746,193.789C37.164,193.464 33.715,192.975 30.263,192.948C29.231,192.94 27.375,194.132 27.282,194.935C26.618,200.664 26.313,206.435 25.76,214.016C28.403,212.593 29.847,211.817 31.594,211.216C31.859,211.446 32.125,211.675 32.494,212.726M51.51,226.841C48.027,226.885 44.521,226.721 41.072,227.091C39.916,227.215 38.906,228.7 37.829,229.563C38.127,230.095 38.426,230.627 38.725,231.159C52.362,231.159 65.999,231.159 79.636,231.159C79.846,230.457 80.057,229.755 80.267,229.054C78.813,228.337 77.376,227.044 75.903,227.001C68.109,226.77 60.305,226.854 51.51,226.841M74.794,220.125C65.027,220.122 55.26,220.079 45.493,220.137C41.93,220.158 41.931,220.268 42.519,224.156C52.88,224.156 63.287,224.133 73.694,224.169C77.105,224.181 77.387,222.769 74.794,220.125M92.423,135.923C91.6,135.508 90.262,134.551 90.036,134.766C88.361,136.353 89.55,142.426 92.392,144.546C92.392,141.612 92.392,139.169 92.423,135.923M70.516,69.193C72.973,70.394 75.431,71.596 77.889,72.797C78.183,72.048 78.477,71.299 78.772,70.55C78.275,70.856 77.779,71.162 77.282,71.468C75.479,70.266 73.7,69.023 71.841,67.917C71.614,67.781 70.951,68.378 70.516,69.193M85.062,148.802C86.534,148.802 88.006,148.802 89.478,148.802C85.455,146.201 85.455,146.201 85.062,148.802M81.027,69.198C81.256,70.018 81.484,70.838 81.713,71.658C82.326,71.262 82.94,70.866 83.553,70.47C82.931,69.993 82.308,69.517 81.027,69.198M84.189,125.639C83.981,124.906 83.774,124.174 83.566,123.441C83.172,123.584 82.778,123.726 82.384,123.868C82.781,124.472 83.179,125.076 84.189,125.639M55.807,28.126C55.487,27.519 55.167,26.913 54.847,26.307C54.424,26.719 54,27.132 53.577,27.544C54.186,27.897 54.796,28.25 55.807,28.126M86.067,150.654C85.825,151.21 85.583,151.767 85.34,152.324C85.773,152.413 86.206,152.502 86.639,152.592C86.629,152.013 86.62,151.434 86.067,150.654M73.316,58.483C72.953,58.974 72.59,59.465 72.227,59.956C72.581,60.157 72.936,60.358 73.29,60.559C73.44,60.016 73.59,59.472 73.316,58.483M56.474,23.84C56.33,23.369 56.187,22.898 56.043,22.427C55.741,22.698 55.438,22.969 55.136,23.24C55.446,23.571 55.757,23.901 56.474,23.84M56.37,30.729C56.6,31.237 56.814,31.754 57.09,32.235C57.113,32.274 57.562,32.067 57.813,31.975C57.476,31.438 57.138,30.9 56.37,30.729M46.611,65.795C46.215,65.791 45.819,65.787 45.422,65.783C45.421,65.948 45.408,66.255 45.419,66.256C45.813,66.286 46.21,66.288 46.611,65.795M52.637,205.473C52.844,205.527 53.051,205.58 53.259,205.634C53.126,205.503 52.992,205.372 52.637,205.473M68.599,48.52C68.599,48.52 68.474,48.598 68.599,48.52z"/><path fill="#090909" d="M89.085,120.939C90.686,116.899 92.287,112.859 93.888,108.82C94.456,108.874 95.024,108.928 95.592,108.982C96.039,111.066 96.486,113.15 96.487,115.614C94.707,116.693 93.371,117.392 92.024,118.411C91.719,119.489 91.426,120.248 90.621,120.987C89.768,120.957 89.426,120.948 89.085,120.939z"/><path fill="#0f0f0f" d="M92.036,118.091C93.371,117.392 94.707,116.693 96.401,115.993C96.826,116.441 96.892,116.891 96.877,117.674C96.079,118.006 95.363,118.006 93.973,117.963C92.878,117.977 92.457,118.034 92.036,118.091z"/><path fill="#0f0f0f" d="M11.684,225.132C12.574,225.59 13.126,226.021 13.832,226.669C12.59,226.886 11.193,226.886 8.706,226.886C10.139,225.92 10.743,225.513 11.684,225.132z"/><path fill="#0f0f0f" d="M101.637,228.725C101.393,228.762 100.894,228.488 100.395,228.215C100.762,227.827 101.13,227.44 101.804,227.047C101.868,227.499 101.625,227.957 101.637,228.725z"/><path fill="#090909" d="M105.72,220.16C105.826,219.444 106.118,219.176 106.856,219.03C107.528,219.416 107.753,219.679 107.978,219.943C107.619,220.361 107.26,220.78 106.649,221.321C106.233,221.164 106.069,220.886 105.72,220.16z"/><path fill="#0f0f0f" d="M108.304,219.848C107.753,219.679 107.528,219.416 107.065,219.037C107.456,218.69 108.084,218.458 108.711,218.227C108.684,218.735 108.657,219.244 108.304,219.848z"/><path fill="#0f0f0f" d="M79.009,92.283C79.515,92.298 80.02,92.313 81.272,92.489C82.018,92.65 81.884,93.064 81.957,93.148C81.546,93.364 81.061,93.496 79.74,93.437C78.841,92.915 78.876,92.593 79.009,92.283z"/><path fill="#0f0f0f" d="M88.953,121.06C89.426,120.948 89.768,120.957 90.637,121.215C91.099,121.779 90.936,122.031 90.675,122.218C90.347,122.158 90.019,122.099 89.199,121.956C88.65,121.627 88.688,121.396 88.953,121.06z"/><path fill="#f9f9f9" d="M80.919,145.023C80.474,145.666 80.029,146.308 78.957,147.072C77.402,147.567 76.474,147.942 74.427,148.767C77.48,148.901 79.232,148.977 80.983,149.054C81.234,151.346 81.485,153.638 81.419,156.397C79.039,157.586 76.977,158.308 74.65,159.269C74.385,160.844 74.385,162.18 74.385,163.515C74.835,163.495 75.285,163.474 75.735,163.453C75.827,162.057 75.918,160.661 76.422,159.153C78.55,159.047 80.264,159.054 81.977,159.061C82.153,160.225 82.328,161.388 82.307,163.324C82.071,164.387 82.03,164.677 81.989,164.967C80.56,165.298 79.131,165.628 76.936,165.967C75.098,166.396 74.026,166.818 72.953,167.24C73.106,167.792 73.259,168.343 73.412,168.895C74.928,168.637 76.443,168.378 77.959,168.12C79.43,168.12 80.901,168.12 83.01,168.12C83.01,170.75 83.01,173.422 82.944,176.895C82.666,179.134 82.454,180.571 82.242,182.008C82.426,183.124 82.61,184.24 82.884,186.032C82.967,188.129 82.961,189.551 82.954,190.972C82.954,190.972 82.983,191.007 82.727,190.966C82.317,190.996 82.162,191.068 82.007,191.14C80.265,191.337 78.523,191.535 77.798,191.617C75.205,187.799 72.955,184.486 70.414,181.529C70.124,181.886 70.065,181.946 70.455,181.705C68.229,177.273 64.379,175.605 59.526,175.908C59.502,175.876 59.424,175.814 59.424,175.814C52.171,175.311 47.473,179.234 43.998,184.979C42.738,187.063 42.021,189.474 40.883,192.14C38.309,191.445 35.793,190.766 32.916,189.988C33.647,180.645 34.367,171.438 35.115,161.872C36.935,161.872 38.527,161.872 40.982,161.923C43.456,161.973 45.069,161.973 46.681,161.973C46.674,161.635 46.666,161.298 46.658,160.96C45.476,160.96 44.294,160.96 43.111,160.96C40.705,160.202 38.298,159.445 35.424,158.54C35.632,156.019 35.859,153.269 36.109,150.24C37.608,150.173 38.888,150.116 40.558,150.454C41.44,152.752 41.932,154.655 42.425,156.557C42.828,156.442 43.231,156.328 43.634,156.213C42.862,153.793 46.917,150.132 41.218,148.978C36.436,146.845 36.289,143.02 36.871,138.472C37.88,130.573 38.315,122.602 39.188,114.684C39.37,113.036 40.412,111.482 41.59,108.565C45.131,116.525 50.066,120.892 57.803,121.123C65.61,121.356 70.911,117.561 75.409,110.556C75.93,113.085 76.452,115.614 77,118.923C77.388,120.456 77.749,121.209 78.111,121.962C78.805,128.345 79.499,134.728 80.256,141.859C80.519,143.413 80.719,144.218 80.919,145.023M54.022,134.237C54.022,139.142 54.022,144.046 54.022,148.625C57.458,148.625 60.324,148.625 62.745,148.625C62.745,144.207 63.139,140.187 62.588,136.301C62.287,134.171 60.391,132.267 59.213,130.261C57.543,131.309 55.873,132.356 54.022,134.237z"/><path fill="#f3f3f3" d="M78.861,91.973C78.876,92.593 78.841,92.915 78.988,93.476C79.271,96.756 79.469,99.807 79.71,103.516C77.72,103.632 75.909,103.739 74.025,103.085C73.603,101.224 73.254,100.122 72.918,98.618C71.804,97.129 70.678,96.042 69.352,94.817C68.442,94.302 67.732,93.926 67.52,93.644C68.13,93.052 68.591,92.093 68.3,91.72C64.592,86.969 53.552,86.243 49.402,90.455C49.243,90.616 49.756,91.437 49.978,91.975C50,91.999 49.964,91.945 49.69,91.49C45.338,93.088 44.869,93.832 45.835,96.688C45.484,97.259 45.246,97.686 45.007,98.113C43.66,100.131 42.312,102.149 40.572,104.755C39.891,104.603 38.164,104.216 35.887,103.707C36.35,96.645 36.812,89.581 37.281,82.419C49.657,82.419 61.833,82.419 74.137,83.077C74.199,84.654 74.134,85.573 73.962,87.986C75.048,86.208 75.425,85.59 75.802,84.972C76.274,85.539 76.933,86.035 77.18,86.687C77.791,88.308 78.215,89.999 78.861,91.973z"/><path fill="#f3f4f4" d="M31.29,211.04C29.847,211.817 28.403,212.593 25.76,214.016C26.313,206.435 26.618,200.664 27.282,194.935C27.375,194.132 29.231,192.94 30.263,192.948C33.715,192.975 37.164,193.464 40.746,193.789C40.746,200.748 40.746,207.487 40.746,215.442C37.65,214.423 35.072,213.575 32.661,212.039C32.828,210.648 32.828,209.944 32.828,207.714C31.892,209.738 31.591,210.389 31.29,211.04z"/><path fill="#f0f0f0" d="M92.742,208.698C91.62,210.168 90.498,211.638 89.375,213.108C88.646,212.332 87.917,211.555 87.089,210.027C86.796,208.908 86.602,208.541 86.408,208.175C86.185,208.776 85.963,209.378 85.741,209.979C86.073,215.892 81.438,214.175 77.656,215.262C77.656,207.966 77.656,201.111 77.656,193.883C81.539,193.287 85.938,192.612 90.211,191.957C90.211,196.338 90.211,199.816 90.164,203.829C90.993,205.808 91.868,207.253 92.742,208.698z"/><path fill="#e5e5e5" d="M59.533,176.306C59.424,175.814 59.502,175.876 59.203,176.245C60.619,177.744 62.335,178.873 64.028,180.302C64.167,180.952 64.329,181.303 64.49,181.654C64.655,181.419 64.819,181.185 65.387,180.911C67.215,181.229 68.64,181.587 70.065,181.946C70.065,181.946 70.124,181.886 70.165,181.888C70.146,182.549 69.782,183.42 70.071,183.833C75.437,191.499 73.142,200.37 74.012,208.725C74.297,211.469 74.057,214.268 74.057,217.348C72.495,217.348 71.148,217.348 69.406,217.348C69.406,210.139 69.455,203.203 69.389,196.268C69.344,191.515 67.637,187.282 63.555,184.812C60.066,182.701 56.22,183.171 52.2,185.932C51.087,186.035 50.656,186.041 50.137,185.754C49.73,185.236 49.409,185.011 49.089,184.785C50.797,183.088 52.364,181.209 54.256,179.749C55.857,178.514 57.833,177.763 59.533,176.306z"/><path fill="#e6e6e7" d="M67.023,93.55C67.732,93.926 68.442,94.302 69.15,95.165C70.058,97.176 70.966,98.7 71.864,100.575C71.943,101.619 72.033,102.311 72.123,103.004C71.512,111.261 68.48,115.526 61.821,117.497C56.379,119.107 49.863,117.365 47.197,112.096C45.362,108.471 45.699,103.747 45.037,98.813C45.246,97.686 45.484,97.259 46.198,96.606C47.77,94.901 48.867,93.423 49.964,91.945C49.964,91.945 50,91.999 50.21,92.311C56.128,89.829 61.681,89.793 67.023,93.55M67.032,110.082C67.411,108.022 68.067,105.969 68.115,103.901C68.238,98.593 63.711,93.591 58.479,92.94C55.425,92.56 49.061,98.136 48.215,101.932C47.145,106.733 49.152,111.392 53.329,113.802C57.737,116.346 61.437,115.495 67.032,110.082z"/><path fill="#efefef" d="M52.008,226.834C60.305,226.854 68.109,226.77 75.903,227.001C77.376,227.044 78.813,228.337 80.267,229.054C80.057,229.755 79.846,230.457 79.636,231.159C65.999,231.159 52.362,231.159 38.725,231.159C38.426,230.627 38.127,230.095 37.829,229.563C38.906,228.7 39.916,227.215 41.072,227.091C44.521,226.721 48.027,226.885 52.008,226.834z"/><path fill="#f1f1f1" d="M26.539,223.352C24.5,224.162 22.46,224.973 19.801,226.03C20.003,222.286 20.159,219.38 20.363,215.581C26.712,216.343 32.798,217.073 39.616,217.892C37.812,221.556 36.252,224.727 34.543,228.199C32.149,227.652 29.934,227.146 27.7,226.021C27.671,224.559 27.661,223.717 27.651,222.874C27.281,223.033 26.91,223.192 26.539,223.352z"/><path fill="#eaeaea" d="M88.343,226.762C83.852,228.994 81.518,227.681 80.132,222.16C79.817,220.905 79.46,219.66 79.073,218.228C85.032,217.252 91.143,216.25 97.289,215.243C97.716,217.786 98.457,220.231 98.38,222.649C98.347,223.702 96.635,224.702 95.768,225.141C94.89,224.704 93.93,224.851 92.97,224.999C92.224,225.683 91.479,226.367 90.383,226.604C90.032,225.191 90.032,224.226 90.032,223.261C89.792,223.236 89.551,223.211 89.31,223.186C88.988,224.378 88.666,225.57 88.343,226.762z"/><path fill="#e5e6e6" d="M75.222,220.198C77.387,222.769 77.105,224.181 73.694,224.169C63.287,224.133 52.88,224.156 42.519,224.156C41.931,220.268 41.93,220.158 45.493,220.137C55.26,220.079 65.027,220.122 75.222,220.198z"/><path fill="#e1e2e2" d="M48.244,196.024C48.244,203.089 48.244,210.155 48.244,217.4C46.966,217.4 45.717,217.4 43.956,217.4C43.956,210.394 43.956,203.635 44.28,196.281C45.268,195.728 45.933,195.77 46.871,195.861C47.51,195.947 47.877,195.985 48.244,196.024z"/><path fill="#dddddd" d="M36.006,69.85C38.81,70.945 41.692,72.42 43.004,69.144C44.79,70.085 46.413,71.638 48.096,71.705C55.172,71.987 62.266,71.824 69.349,72.202C57.99,75.898 46.695,72.916 34.962,71.439C34.365,70.386 34.189,69.693 34.014,69C34.294,69 34.435,68.86 34.468,68.756C35.001,69.238 35.504,69.544 36.006,69.85z"/><path fill="#dfdfdf" d="M44.008,59.758C52.832,59.768 52.944,59.68 54.067,51.057C54.668,50.585 55.364,50.793 56.06,51.002C55.52,53.876 54.98,56.75 54.319,60.276C58.629,60.276 62.722,60.276 66.983,60.903C67.107,61.707 67.062,61.885 67.017,62.062C60.657,62.126 54.296,62.293 47.939,62.18C46.336,62.151 44.749,61.224 43.329,60.294C43.672,59.839 43.84,59.798 44.008,59.758z"/><path fill="#0f0f0f" d="M56.489,51.012C55.364,50.793 54.668,50.585 53.878,50.691C51.334,50.503 48.883,49.999 45.893,49.385C47.611,47.392 49.042,45.731 51.161,43.272C51.433,45.432 51.573,46.54 51.74,47.869C54.908,47.615 58.229,48.899 61.977,46.508C62.194,46.864 63.082,48.323 64.726,51.023C61.33,51.023 59.125,51.023 56.489,51.012z"/><path fill="#dfdfdf" d="M48.392,195.641C47.877,195.985 47.51,195.947 46.849,195.597C46.029,194.904 45.504,194.524 44.979,194.144C43.954,190.522 44.834,187.639 48.889,185.989C49.77,186.18 49.997,186.113 50.225,186.047C50.656,186.041 51.087,186.035 51.841,186.048C50.956,189.13 49.748,192.194 48.392,195.641z"/><path fill="#dadadb" d="M92.408,136.324C92.392,139.169 92.392,141.612 92.392,144.546C89.55,142.426 88.361,136.353 90.036,134.766C90.262,134.551 91.6,135.508 92.408,136.324z"/><path fill="#e0e1e1" d="M90.616,122.595C90.936,122.031 91.099,121.779 91.149,121.236C91.426,120.248 91.719,119.489 92.024,118.411C92.457,118.034 92.878,117.977 93.615,117.971C93.896,120.725 93.859,123.429 93.104,126.213C91.909,126.868 91.432,127.442 90.621,128.041C89.843,128.037 89.398,128.009 88.953,127.981C89.488,126.311 90.022,124.641 90.616,122.595z"/><path fill="#0f0f0f" d="M53.002,37.998C56.348,37.611 59.693,37.224 63.36,36.8C60.965,42.323 60.302,42.412 53.074,38.366C53,38 53.002,37.998 53.002,37.998z"/><path fill="#d5d6d5" d="M83.94,141.998C83.94,139.408 83.94,136.818 83.94,134.227C84.427,134.048 84.914,133.869 85.401,133.69C85.875,135.11 86.991,136.695 86.678,137.913C86.156,139.943 89.333,143.337 84.435,143.59C84.076,142.786 84.008,142.392 83.94,141.998z"/><path fill="#edeeed" d="M88.575,127.944C89.398,128.009 89.843,128.037 90.965,128.029C92.097,127.945 92.551,127.897 93.005,127.849C93.952,128.184 94.899,128.519 95.846,128.854C95.787,129.112 95.728,129.371 95.669,129.63C91.456,129.63 87.242,129.63 83.029,129.63C82.995,129.182 82.962,128.735 82.929,128.288C84.685,128.161 86.441,128.034 88.575,127.944z"/><path fill="#0f0f0f" d="M70.503,68.914C70.951,68.378 71.614,67.781 71.841,67.917C73.7,69.023 75.479,70.266 77.282,71.468C77.779,71.162 78.275,70.856 78.772,70.55C78.477,71.299 78.183,72.048 77.889,72.797C75.431,71.596 72.973,70.394 70.503,68.914z"/><path fill="#e4e4e4" d="M41.162,149.247C46.917,150.132 42.862,153.793 43.634,156.213C43.231,156.328 42.828,156.442 42.425,156.557C41.932,154.655 41.44,152.752 40.981,150.454C41.044,149.878 41.075,149.697 41.162,149.247z"/><path fill="#0f0f0f" d="M67.042,62.4C67.062,61.885 67.107,61.707 67.201,61.26C68.197,60.536 69.146,60.083 70.586,59.394C70.084,61.775 69.693,63.629 69.116,66.365C68.224,64.787 67.646,63.763 67.042,62.4z"/><path fill="#0f0f0f" d="M82.61,181.999C82.454,180.571 82.666,179.134 83.031,177.346C86.015,178.781 86.307,180.46 82.61,181.999z"/><path fill="#0f0f0f" d="M84.766,148.589C85.455,146.201 85.455,146.201 89.478,148.802C88.006,148.802 86.534,148.802 84.766,148.589z"/><path fill="#f3f3f3" d="M77.88,167.817C76.443,168.378 74.928,168.637 73.412,168.895C73.259,168.343 73.106,167.792 72.953,167.24C74.026,166.818 75.098,166.396 76.561,165.979C77.234,166.493 77.518,167.003 77.88,167.817z"/><path fill="#0f0f0f" d="M83.324,190.948C82.961,189.551 82.967,188.129 83.027,186.352C84.033,186.58 84.984,187.163 85.936,187.746C85.188,188.805 84.441,189.864 83.324,190.948z"/><path fill="#0f0f0f" d="M83.593,142.001C84.008,142.392 84.076,142.786 84.122,143.482C83.285,144.188 82.469,144.593 81.286,145.011C80.719,144.218 80.519,143.413 80.395,142.294C81.395,141.988 82.321,141.996 83.593,142.001z"/><path fill="#0f0f0f" d="M92.858,208.376C91.868,207.253 90.993,205.808 90.378,204.128C91.416,205.279 92.195,206.666 92.858,208.376z"/><path fill="#0f0f0f" d="M74.915,159.03C76.977,158.308 79.039,157.586 81.486,156.767C81.907,157.201 81.943,157.732 81.978,158.662C80.264,159.054 78.55,159.047 76.147,159.102C75.277,159.12 75.096,159.075 74.915,159.03z"/><path fill="#0f0f0f" d="M81.356,69.119C82.308,69.517 82.931,69.993 83.553,70.47C82.94,70.866 82.326,71.262 81.713,71.658C81.484,70.838 81.256,70.018 81.356,69.119z"/><path fill="#0f0f0f" d="M80.863,148.808C79.232,148.977 77.48,148.901 74.427,148.767C76.474,147.942 77.402,147.567 78.682,147.209C79.603,147.67 80.174,148.116 80.863,148.808z"/><path fill="#0f0f0f" d="M33.655,69.027C34.189,69.693 34.365,70.386 34.56,71.442C33.568,71.627 32.557,71.448 31.545,71.27C32.129,70.531 32.712,69.793 33.655,69.027z"/><path fill="#0f0f0f" d="M83.883,125.659C83.179,125.076 82.781,124.472 82.384,123.868C82.778,123.726 83.172,123.584 83.566,123.441C83.774,124.174 83.981,124.906 83.883,125.659z"/><path fill="#0f0f0f" d="M72.396,103.003C72.033,102.311 71.943,101.619 71.99,100.334C72.386,99.501 72.645,99.261 72.905,99.02C73.254,100.122 73.603,101.224 73.858,102.667C73.399,103.006 73.035,103.004 72.396,103.003z"/><path fill="#0f0f0f" d="M52.999,38.001C52.145,38.069 51.292,38.135 50.44,38.201C50.557,37.767 50.705,36.953 50.785,36.959C51.504,37.019 52.21,37.223 52.961,37.691C53.002,37.998 53,38 52.999,38.001z"/><path fill="#0f0f0f" d="M55.606,28.364C54.796,28.25 54.186,27.897 53.577,27.544C54,27.132 54.424,26.719 54.847,26.307C55.167,26.913 55.487,27.519 55.606,28.364z"/><path fill="#0f0f0f" d="M42.821,160.977C44.294,160.96 45.476,160.96 46.658,160.96C46.666,161.298 46.674,161.635 46.681,161.973C45.069,161.973 43.456,161.973 41.433,161.857C41.525,161.493 42.027,161.244 42.821,160.977z"/><path fill="#0f0f0f" d="M86.338,150.754C86.62,151.434 86.629,152.013 86.639,152.592C86.206,152.502 85.773,152.413 85.34,152.324C85.583,151.767 85.825,151.21 86.338,150.754z"/><path fill="#0f0f0f" d="M73.528,58.705C73.59,59.472 73.44,60.016 73.29,60.559C72.936,60.358 72.581,60.157 72.227,59.956C72.59,59.465 72.953,58.974 73.528,58.705z"/><path fill="#0f0f0f" d="M78.35,121.767C77.749,121.209 77.388,120.456 77.097,119.349C77.641,119.854 78.115,120.712 78.35,121.767z"/><path fill="#0f0f0f" d="M93.268,225.01C93.93,224.851 94.89,224.704 95.6,224.792C94.755,225.025 94.16,225.023 93.268,225.01z"/><path fill="#0f0f0f" d="M56.271,24.036C55.757,23.901 55.446,23.571 55.136,23.24C55.438,22.969 55.741,22.698 56.043,22.427C56.187,22.898 56.33,23.369 56.271,24.036z"/><path fill="#0f0f0f" d="M56.585,30.546C57.138,30.9 57.476,31.438 57.813,31.975C57.562,32.067 57.113,32.274 57.09,32.235C56.814,31.754 56.6,31.237 56.585,30.546z"/><path fill="#0f0f0f" d="M43.966,59.501C43.84,59.798 43.672,59.839 43.253,59.94C42.486,60.158 41.971,60.316 41.456,60.473C41.396,60.064 41.335,59.654 41.274,59.244C42.157,59.244 43.041,59.244 43.966,59.501z"/><path fill="#0f0f0f" d="M75.618,84.836C75.425,85.59 75.048,86.208 73.962,87.986C74.134,85.573 74.199,84.654 74.41,83.418C74.849,83.634 75.141,84.166 75.618,84.836z"/><path fill="#0f0f0f" d="M46.609,66.045C46.21,66.288 45.813,66.286 45.419,66.256C45.408,66.255 45.421,65.948 45.422,65.783C45.819,65.787 46.215,65.791 46.609,66.045z"/><path fill="#0f0f0f" d="M35.904,67.903C36.245,67.419 36.586,66.935 36.926,66.451C37.135,66.633 37.344,66.815 37.552,66.998C37.248,67.319 36.944,67.64 36.318,67.977C35.995,67.994 35.904,67.903 35.904,67.903z"/><path fill="#0f0f0f" d="M88.775,226.833C88.666,225.57 88.988,224.378 89.31,223.186C89.551,223.211 89.792,223.236 90.032,223.261C90.032,224.226 90.032,225.191 90.055,226.563C89.787,226.948 89.497,226.926 88.775,226.833z"/><path fill="#0f0f0f" d="M31.442,211.128C31.591,210.389 31.892,209.738 32.828,207.714C32.828,209.944 32.828,210.648 32.609,211.629C32.125,211.675 31.859,211.446 31.442,211.128z"/><path fill="#0f0f0f" d="M93.007,127.642C92.551,127.897 92.097,127.945 91.299,128.004C91.432,127.442 91.909,126.868 92.706,126.45C93.029,126.882 93.022,127.158 93.007,127.642z"/><path fill="#0f0f0f" d="M44.869,194.378C45.504,194.524 46.029,194.904 46.576,195.549C45.933,195.77 45.268,195.728 44.293,195.813C44.242,195.498 44.501,195.055 44.869,194.378z"/><path fill="#0f0f0f" d="M26.576,224.056C26.91,223.192 27.281,223.033 27.651,222.874C27.661,223.717 27.671,224.559 27.482,225.702C27.059,225.588 26.835,225.174 26.576,224.056z"/><path fill="#0f0f0f" d="M86.029,209.989C85.963,209.378 86.185,208.776 86.408,208.175C86.602,208.541 86.796,208.908 86.942,209.639C86.703,210.002 86.51,210.001 86.029,209.989z"/><path fill="#0f0f0f" d="M52.748,205.357C52.992,205.372 53.126,205.503 53.259,205.634C53.051,205.58 52.844,205.527 52.748,205.357z"/><path fill="#0f0f0f" d="M36.015,69.555C35.504,69.544 35.001,69.238 34.399,68.606C34.565,68.206 34.83,68.132 35.5,67.981C35.904,67.903 35.995,67.994 36.042,68.039C36.068,68.476 36.046,68.868 36.015,69.555z"/><path fill="#f3f3f3" d="M82.305,164.948C82.03,164.677 82.071,164.387 82.22,163.668C82.425,163.803 82.523,164.366 82.305,164.948z"/><path fill="#0f0f0f" d="M68.536,48.559C68.474,48.598 68.599,48.52 68.536,48.559z"/><path fill="#0f0f0f" d="M82.117,191.285C82.162,191.068 82.317,190.996 82.727,190.943C82.731,191.118 82.479,191.274 82.117,191.285z"/><path fill="#0f0f0f" d="M50.137,185.754C49.997,186.113 49.77,186.18 49.269,186.019C49.002,185.623 49.008,185.454 49.051,185.035C49.409,185.011 49.73,185.236 50.137,185.754z"/><path fill="#171717" d="M54.112,133.821C55.873,132.356 57.543,131.309 59.213,130.261C60.391,132.267 62.287,134.171 62.588,136.301C63.139,140.187 62.745,144.207 62.745,148.625C60.324,148.625 57.458,148.625 54.022,148.625C54.022,144.046 54.022,139.142 54.112,133.821z"/><path fill="#090909" d="M70.455,181.705C68.64,181.587 67.215,181.229 65.291,180.701C64.601,180.276 64.354,180.099 64.05,180.002C62.335,178.873 60.619,177.744 59.227,176.277C64.379,175.605 68.229,177.273 70.455,181.705z"/><path fill="#f3f3f3" d="M74.65,159.269C75.096,159.075 75.277,159.12 75.734,159.215C75.918,160.661 75.827,162.057 75.735,163.453C75.285,163.474 74.835,163.495 74.385,163.515C74.385,162.18 74.385,160.844 74.65,159.269z"/><path fill="#090909" d="M67.52,93.644C61.681,89.793 56.128,89.829 50.188,92.287C49.756,91.437 49.243,90.616 49.402,90.455C53.552,86.243 64.592,86.969 68.3,91.72C68.591,92.093 68.13,93.052 67.52,93.644z"/><path fill="#252526" d="M72.918,98.618C72.645,99.261 72.386,99.501 72.001,99.983C70.966,98.7 70.058,97.176 69.35,95.304C70.678,96.042 71.804,97.129 72.918,98.618z"/><path fill="#090909" d="M49.69,91.49C48.867,93.423 47.77,94.901 46.31,96.462C44.869,93.832 45.338,93.088 49.69,91.49z"/><path fill="#0f0f0f" d="M64.028,180.302C64.354,180.099 64.601,180.276 64.888,180.741C64.819,181.185 64.655,181.419 64.49,181.654C64.329,181.303 64.167,180.952 64.028,180.302z"/><path fill="#1b1b1b" d="M66.812,110.417C61.437,115.495 57.737,116.346 53.329,113.802C49.152,111.392 47.145,106.733 48.215,101.932C49.061,98.136 55.425,92.56 58.479,92.94C63.711,93.591 68.238,98.593 68.115,103.901C68.067,105.969 67.411,108.022 66.812,110.417z"/></svg>