<svg xmlns="http://www.w3.org/2000/svg" viewBox="0 0 225 129" xml:space="preserve"><path fill="#060606" d="M142.239,93.017C141.26,80.938 141.451,80.94 153.163,81.305C163.29,81.62 173.433,81.403 183.569,81.373C194.126,81.341 194.126,81.316 194.162,91.609C194.165,92.44 194.169,93.272 193.801,94.746C191.597,95.493 189.765,95.597 187.54,95.558C185.487,95.337 183.829,95.258 181.76,95.055C180.266,95.077 179.183,95.225 178.1,95.372C178.129,95.877 178.159,96.383 178.188,96.888C179.469,96.888 180.75,96.888 182.453,96.94C184.571,96.953 186.268,96.913 188.402,96.968C190.912,96.97 192.987,96.877 195.062,96.783C195.391,96.833 195.719,96.917 196.049,96.928C207.664,97.331 207.538,97.349 209.273,108.629C209.508,110.156 211.516,111.866 213.115,112.629C216.033,114.021 216.162,113.752 215.753,118.395C207.36,118.395 198.892,118.33 190.425,118.407C160.957,118.673 131.487,118.895 102.023,119.377C97.239,119.455 92.475,120.765 87.134,121.593C87.364,119.824 87.364,119.037 87.575,118.312C94.686,93.904 102.006,69.554 108.793,45.056C110.234,39.856 112.075,37.221 117.727,37.952C120.82,38.353 124.007,38.024 127.739,38.024C127.966,41.428 128.168,44.465 128.405,48.024C124.579,48.373 121.128,48.528 117.74,49.078C116.464,49.285 115.335,50.406 114.139,51.11C115.418,51.745 116.671,52.856 117.98,52.927C122.265,53.16 126.571,53.015 131.321,53.015C131.321,56.699 131.321,59.77 131.321,62.811C125.268,65.606 117.665,61.795 111.811,65.738C111.911,66.431 112.011,67.124 112.111,67.817C119.467,67.817 126.822,67.817 134.649,67.817C134.649,71.631 134.649,74.836 134.649,78.783C127.755,78.783 120.781,78.657 113.82,78.891C112.439,78.937 111.104,80.361 109.748,81.15C111.092,81.742 112.426,82.821 113.78,82.847C122.068,83.006 130.359,82.926 138.966,82.926C139.271,86.855 139.523,90.102 139.833,94.103C129.898,94.103 120.466,94.172 111.037,94.064C107.959,94.028 106.197,94.872 106.9,99.747C113.093,99.747 119.484,99.731 125.875,99.753C129.872,99.767 133.891,100.119 137.861,99.813C142.511,99.453 144.543,100.961 144.27,105.867C144.107,108.798 144.946,111.784 145.334,114.745C145.989,114.693 146.644,114.641 147.3,114.589C147.659,108.296 148.019,102.003 148.405,95.252C147.153,94.996 145.423,94.643 143.265,93.92C142.691,93.312 142.492,93.134 142.239,93.017M171.531,97.025C172.607,96.826 173.684,96.627 174.761,96.428C174.711,96.036 174.661,95.644 174.61,95.252C166.909,95.252 159.208,95.252 151.507,95.252C151.493,95.708 151.479,96.164 151.465,96.62C157.81,96.754 164.155,96.888 171.531,97.025z"/><path fill="#050505" d="M84.988,58.921C84.116,60.62 83.243,62.319 81.647,65.427C88.517,65.427 93.802,65.427 99.086,65.427C99.139,66.055 99.193,66.682 99.247,67.31C97.745,67.661 96.252,68.261 94.74,68.315C90.748,68.459 86.735,68.19 82.761,68.486C81.696,68.566 80.738,70.083 79.732,70.94C80.79,71.661 81.818,72.944 82.912,73.004C87.293,73.243 91.694,73.103 96.153,74.042C93.066,77.64 89.02,76.047 85.453,76.686C82.334,77.244 77.885,75.162 76.202,80.925C81.833,81.348 86.581,81.704 91.33,82.06C91.331,82.697 91.332,83.335 91.333,83.972C89.897,84.23 88.469,84.632 87.023,84.718C83.699,84.918 80.342,84.771 77.05,85.18C75.928,85.32 74.96,86.703 73.922,87.518C74.966,88.279 75.914,89.389 77.08,89.712C78.473,90.099 80.104,89.584 81.535,89.897C82.56,90.122 83.427,91.067 84.364,91.691C83.467,92.187 82.61,92.993 81.663,93.12C79.035,93.47 76.337,93.356 73.735,93.811C72.754,93.982 71.958,95.211 71.077,95.958C72.045,96.656 72.988,97.915 73.983,97.956C78.946,98.164 83.923,98.051 88.933,98.051C89.917,101.841 88.146,102.594 85.405,102.602C80.908,102.615 76.403,102.563 71.917,102.812C70.213,102.907 68.55,103.756 66.869,104.262C66.938,104.914 67.006,105.566 67.075,106.218C73.359,106.218 79.643,106.218 86.023,106.218C86.373,110.386 84.953,111.543 81.845,111.51C77.018,111.46 72.171,111.513 67.37,111.943C65.891,112.075 64.535,113.58 63.123,114.456C64.569,115.099 65.991,116.227 67.464,116.297C72.415,116.53 77.384,116.385 82.345,116.385C82.353,116.807 82.36,117.229 82.368,117.65C73.591,118.515 64.814,119.379 56.084,120.239C64.355,97.441 72.556,74.837 80.885,51.54C81.062,50.218 81.109,49.591 81.486,48.943C82.518,47.896 83.221,46.87 83.925,45.844C83.439,45.575 82.952,45.306 82.466,45.037C82.002,46.181 81.539,47.325 80.776,48.635C80.176,49.403 79.875,50.007 79.573,50.61C77.283,55.344 74.992,60.078 71.9,64.833C66.095,64.863 61.093,64.87 56.09,64.878C56.046,63.901 55.971,62.924 55.964,61.947C55.888,51.227 56.053,51.067 67.905,50.989C71.311,50.981 73.832,50.981 76.352,50.981C76.328,50.321 76.305,49.662 76.281,49.002C73.512,49.002 70.743,49.002 67.974,49.002C66.76,35.01 66.155,37.38 77.905,36.864C81.848,36.691 85.805,36.837 91.355,36.837C89.81,42.237 88.484,47.11 86.997,51.933C86.536,53.429 85.637,54.79 84.949,56.917C84.968,58.055 84.978,58.488 84.988,58.921z"/><path fill="#0b0b0b" d="M131.155,35.999C127.526,35.429 123.896,34.86 119.517,34.174C119.334,30.465 119.126,26.25 118.904,21.744C117.004,21.744 115.251,21.744 113.436,21.744C113.75,26.128 114.051,30.313 114.38,34.899C109.939,34.899 105.877,34.899 100.92,34.899C101.331,30.561 101.723,26.411 102.13,22.112C101.16,22.112 99.433,22.112 97.051,22.112C97.424,26.443 97.773,30.49 98.15,34.852C93.465,34.852 88.893,34.852 83.145,34.852C83.145,30.31 82.845,25.859 83.334,21.497C83.475,20.245 85.869,18.322 87.274,18.282C98.4,17.967 109.539,17.883 120.669,18.056C125.215,18.127 125.682,16.098 124.911,13.374C111.22,14.255 97.827,15.117 84.257,15.991C83.787,13.856 83.437,12.263 82.91,9.873C102.048,8.851 120.747,5.45 139.599,9.103C139.895,15.221 139.895,15.221 130.875,16.473C132.075,16.743 132.633,16.908 133.202,16.991C140.537,18.068 140.534,18.066 140.731,25.547C140.815,28.712 140.917,31.875 140.599,35.51C137.177,35.987 134.166,35.993 131.155,35.999z"/><path fill="#040404" d="M55.022,96.914C58.359,97.078 58.703,98.596 57.457,101.454C54.949,107.205 52.724,113.08 50.303,119.099C36.545,119.099 22.458,119.099 8.282,119.099C7.012,116.241 6.692,113.779 10.239,113.278C13.641,112.797 13.946,110.806 14.076,108.082C14.592,97.229 14.644,97.231 25.55,96.955C26.713,96.925 27.876,96.903 29.952,96.921C38.918,96.947 46.97,96.931 55.022,96.914z"/><path fill="#0a0a0a" d="M163.926,66.372C167.895,66.489 171.378,66.73 174.857,66.688C178.658,66.642 180.31,68.306 180.061,72.114C179.9,74.579 180.03,77.063 180.03,79.287C166,79.287 152.035,79.287 138.258,79.287C137.83,78.033 137.517,77.571 137.543,77.129C138.22,65.613 135.778,65.633 149.007,66.149C153.813,66.336 158.627,66.304 163.926,66.372z"/><path fill="#0a0a0a" d="M141.024,50.851C147.668,51.014 154.312,51.304 160.956,51.297C165.55,51.292 167.685,53.142 167.214,57.865C167.001,60 167.178,62.173 167.178,64.102C156.274,64.102 145.421,64.102 133.396,64.102C134.171,59.215 134.799,55.254 136.178,51.162C137.663,51.003 138.397,50.975 139.448,50.928C140.185,50.89 140.605,50.87 141.024,50.851z"/><path fill="#050504" d="M30.005,94.989C30.005,91.187 30.005,87.385 30.005,82.677C33.965,82.42 38.012,82.156 42.971,81.925C49.27,81.923 54.659,81.889 60.047,81.855C61.656,82.02 63.266,82.185 66.081,82.474C61.443,86.522 64.468,95.14 54.912,95.076C46.093,95.018 38.049,95.003 30.005,94.989z"/><path fill="#030303" d="M43.051,79.893C43.051,76.131 43.051,72.369 43.051,67.676C47.038,67.368 51.006,67.062 55.88,66.838C61.791,67.029 66.796,67.137 71.801,67.245C70.472,70.551 69.468,74.049 67.673,77.079C66.816,78.526 64.456,79.084 61.932,80.027C55.075,79.971 49.063,79.932 43.051,79.893z"/><path fill="#0c0c0c" d="M139.131,50.947C138.397,50.975 137.663,51.003 136.561,51.044C136.139,50.487 136.101,49.419 136.027,49.417C127.709,49.136 130.565,43.234 130.649,38.76C130.661,38.106 130.846,37.455 131.053,36.401C134.166,35.993 137.177,35.987 140.645,35.972C141.928,35.962 142.759,35.906 143.581,35.968C157.025,36.988 155.486,35.047 154.701,49.648C150.463,49.648 146.204,49.648 141.267,49.564C140.102,49.969 139.617,50.458 139.131,50.947z"/><path fill="#cecece" d="M29.977,95.281C38.049,95.003 46.093,95.018 54.597,95.147C55.06,95.629 55.063,95.996 55.044,96.639C46.97,96.931 38.918,96.947 30.405,96.854C29.945,96.353 29.947,95.963 29.977,95.281z"/><path fill="#222222" d="M85.356,59.118C84.978,58.488 84.968,58.055 84.985,57.297C90.399,56.973 95.787,56.973 101.174,56.973C101.222,57.615 101.27,58.256 101.318,58.898C96.356,61.121 90.983,59.718 85.356,59.118z"/><path fill="#222222" d="M103.705,50.963C98.984,51.109 94.586,51.037 90.187,50.965C90.206,50.108 90.224,49.25 90.242,48.393C94.708,48.393 99.176,48.37 103.639,48.492C103.789,48.496 103.898,49.962 103.705,50.963z"/><path fill="#dbdcdb" d="M43.03,80.203C49.063,79.932 55.075,79.971 61.55,80.096C61.46,80.598 60.909,81.015 60.202,81.643C54.659,81.889 49.27,81.923 43.422,81.853C42.978,81.338 42.993,80.925 43.03,80.203z"/><path fill="#acadac" d="M71.817,66.876C66.796,67.137 61.791,67.029 56.328,66.791C55.924,66.266 55.978,65.872 56.061,65.178C61.093,64.87 66.095,64.863 71.559,64.948C71.958,65.529 71.895,66.018 71.817,66.876z"/><path fill="#232423" d="M97.125,40.721C100.679,40.711 103.762,40.711 106.845,40.711C106.85,41.208 106.855,41.705 106.861,42.202C102.277,42.202 97.694,42.202 93.111,42.202C93.038,41.879 92.966,41.555 92.894,41.232C94.147,41.065 95.401,40.898 97.125,40.721z"/><path fill="#111111" d="M67.919,49.326C70.743,49.002 73.512,49.002 76.281,49.002C76.305,49.662 76.328,50.321 76.352,50.981C73.832,50.981 71.311,50.981 68.337,50.967C67.877,50.518 67.87,50.084 67.919,49.326z"/><path fill="#c4c4c4" d="M195.054,96.519C192.987,96.877 190.912,96.97 188.375,96.676C187.92,96.092 187.927,95.897 187.934,95.701C189.765,95.597 191.597,95.493 193.794,95.209C194.456,95.437 194.751,95.846 195.054,96.519z"/><path fill="#050505" d="M87.328,92.648C88.243,91.381 89.547,90.529 90.852,89.677C91.193,90.436 91.533,91.194 91.874,91.952C90.488,92.322 89.103,92.692 87.328,92.648z"/><path fill="#050505" d="M92.36,84.224C91.732,83.637 91.602,82.98 91.472,82.324C92.071,82.319 92.67,82.314 93.268,82.309C93.131,82.924 92.994,83.54 92.36,84.224z"/><path fill="#dddcdd" d="M139.448,50.928C139.617,50.458 140.102,49.969 140.81,49.655C141.039,50 141.046,50.17 141.038,50.596C140.605,50.87 140.185,50.89 139.448,50.928z"/><path fill="#080808" d="M142.17,93.28C142.492,93.134 142.691,93.312 142.915,93.737C142.697,93.797 142.399,93.669 142.17,93.28z"/><path fill="#f3f3f2" d="M171.016,97.024C164.155,96.888 157.81,96.754 151.465,96.62C151.479,96.164 151.493,95.708 151.507,95.252C159.208,95.252 166.909,95.252 174.61,95.252C174.661,95.644 174.711,96.036 174.761,96.428C173.684,96.627 172.607,96.826 171.016,97.024z"/><path fill="#c4c4c4" d="M182.031,96.888C180.75,96.888 179.469,96.888 178.188,96.888C178.159,96.383 178.129,95.877 178.1,95.372C179.183,95.225 180.266,95.077 181.71,95.481C182.058,96.317 182.045,96.603 182.031,96.888z"/><path fill="#f3f3f2" d="M182.453,96.94C182.045,96.603 182.058,96.317 182.121,95.606C183.829,95.258 185.487,95.337 187.54,95.558C187.927,95.897 187.92,96.092 187.939,96.581C186.268,96.913 184.571,96.953 182.453,96.94z"/><path fill="#111111" d="M81.075,48.47C81.539,47.325 82.002,46.181 82.466,45.037C82.952,45.306 83.439,45.575 83.925,45.844C83.221,46.87 82.518,47.896 81.369,48.835C80.924,48.748 81.075,48.47 81.075,48.47z"/><path fill="#fafafa" d="M79.872,50.834C79.875,50.007 80.176,49.403 80.776,48.635C81.075,48.47 80.924,48.748 81.041,48.856C81.109,49.591 81.062,50.218 80.912,51.145C80.596,51.317 80.384,51.187 79.872,50.834z"/></svg>