<svg xmlns="http://www.w3.org/2000/svg" viewBox="0 0 250 132" xml:space="preserve"><path fill="#070606" d="M32.285,82.494C35.693,80.169 38.896,78.179 42.012,76.06C43.056,75.351 44.131,74.461 44.75,73.396C46.586,70.239 48.65,67.104 49.803,63.684C51.653,58.2 54.743,55.311 60.779,54.744C62.643,54.568 65.152,51.151 65.671,48.838C66.817,43.733 69.889,42.465 74.458,42.032C84.075,41.12 84.077,40.974 85.314,31.358C85.59,29.216 85.763,27.057 85.89,24.9C86.261,18.618 89.272,15.101 95.481,14.211C105.357,12.795 115.249,11.472 125.155,10.289C126.69,10.106 128.337,10.888 129.936,11.205C136.455,12.497 142.945,13.983 149.509,14.985C152.783,15.485 154.71,16.88 155.401,20.032C156.505,25.061 157.72,30.072 158.608,35.139C159.097,37.93 160.239,39.342 163.185,38.981C169.243,38.237 172.49,41.449 174.138,46.858C174.93,49.454 176.019,51.345 179.411,50.689C180.6,50.459 182.399,51.245 183.326,52.165C187.801,56.604 193.353,60.598 196.086,65.986C199.363,72.449 204.425,75.689 210.005,79.142C211.504,80.069 212.828,82.566 212.848,84.356C212.911,90.22 214.622,93.149 220.515,92.7C229.727,91.999 232.96,100.724 239.752,103.637C240.272,103.86 240.464,105.078 240.627,105.871C241.686,111.019 242.695,116.177 243.852,121.991C234.939,122.962 225.614,124.73 216.271,124.835C197.8,125.043 179.319,124.332 160.843,123.99C160.52,123.984 160.121,123.675 159.888,123.784C147.234,129.748 133.963,124.9 121.094,125.298C89.363,126.28 57.55,124.624 25.77,124.058C20.866,123.971 15.959,124.046 9.539,124.046C11.844,121.316 12.927,119.678 14.347,118.421C18.103,115.099 19.279,111.825 16.962,106.711C14.846,102.041 18.812,97.807 22.326,96.245C27.925,93.756 30.597,90.256 31.072,84.485C31.12,83.893 31.708,83.346 32.285,82.494M66.839,82.277C64.903,78.521 62.377,78.992 60.585,82.017C58.937,84.797 58.193,88.111 57.05,91.19C57.61,91.572 58.169,91.954 58.729,92.335C60.406,90.847 62.219,89.483 63.721,87.835C65.119,86.301 66.186,84.465 67.651,83.566C61.615,95.991 55.579,108.416 49.371,121.196C54.532,122.76 55.075,119.175 56.103,116.963C64.301,99.337 72.355,81.644 80.398,63.947C80.898,62.847 80.936,61.536 81.189,60.323C78.458,63.053 76.926,66.276 75.18,69.38C72.627,73.92 69.92,78.375 66.839,82.277M91.003,57.359C90.984,57.79 90.965,58.222 90.192,58.906C89.262,61.029 88.333,63.152 86.977,66.247C95.317,66.247 102.004,66.247 108.69,66.247C108.835,66.785 108.979,67.323 109.124,67.861C107.568,68.437 106.025,69.463 104.455,69.505C99.298,69.646 94.132,69.346 88.97,69.376C84.725,69.4 83,71.458 84.343,76.236C91.129,76.236 97.837,76.236 104.544,76.236C104.706,76.802 104.867,77.368 105.029,77.935C103.531,78.563 102.061,79.644 100.53,79.737C95.713,80.033 90.87,79.886 86.044,80.066C84.42,80.126 82.65,80.342 81.258,81.077C80.31,81.578 79.318,83.179 79.441,84.15C79.541,84.935 81.222,85.972 82.293,86.093C84.927,86.389 87.614,86.232 90.28,86.239C93.79,86.249 97.301,86.241 100.812,86.241C100.942,87.068 101.072,87.895 101.202,88.722C99.318,89.42 97.462,90.612 95.544,90.723C90.062,91.039 84.534,90.659 79.072,91.124C77.445,91.263 75.978,93.286 74.438,94.446C75.976,95.271 77.433,96.426 79.074,96.831C80.808,97.258 82.717,96.988 84.55,96.993C88.582,97.004 92.614,96.997 96.646,96.997C96.802,97.746 96.959,98.496 97.115,99.246C95.494,99.949 93.901,101.172 92.246,101.264C86.102,101.605 79.922,101.36 73.792,101.823C72.156,101.947 69.499,103.636 69.306,104.909C68.778,108.388 71.807,107.969 74.119,107.969C80.328,107.968 86.537,107.969 92.746,107.969C92.925,108.682 93.103,109.395 93.282,110.108C91.514,110.913 89.783,112.297 87.969,112.417C81.659,112.834 75.315,112.69 68.996,113.002C64.902,113.205 63.001,115.291 64.452,119.793C71.373,119.793 78.211,119.384 84.973,119.923C90.352,120.351 92.578,117.951 94.2,113.355C100.395,95.805 106.726,78.301 113.21,60.855C115.491,54.718 118.358,48.799 121.876,42.87C128.552,42.619 135.265,42.641 141.772,41.139C141.716,40.633 141.66,40.128 141.604,39.622C134.718,40.18 127.831,40.737 120.127,41.357C111.928,42.065 103.728,42.772 95.26,43.503C93.929,47.779 92.538,52.252 91.003,57.359M133.302,95.78C130.736,102.589 136.672,100.154 138.335,100.834C139.367,102.973 139.668,104.943 140.754,105.586C143.661,107.307 146.572,106.172 147.855,103.346C148.692,101.502 148.013,98.971 148.013,95.411C152.484,93.295 159.998,92.276 161.33,83.909C159.802,81.956 158.019,79.774 156.346,77.512C154.844,75.48 153.604,73.138 150.431,75.013C147.4,76.805 145.397,78.946 147.381,82.671C149.19,86.067 147.683,87.684 144.556,89.142C140.831,90.878 137.378,93.198 133.302,95.78M41.604,107.214C48.177,105.818 48.327,105.537 47.914,98.193C47.868,97.386 48.669,96.503 49.15,95.7C51.321,92.075 50.477,89.701 46.607,87.872C45.025,87.125 43.76,85.708 42.182,84.947C40.777,84.27 38.634,83.283 37.725,83.862C36.447,84.675 35.148,86.953 35.383,88.347C35.91,91.47 37.377,94.435 38.674,98.057C35.67,101.356 36.706,104.59 41.604,107.214M136.664,69.326C137.35,68.529 138.035,67.731 138.954,66.663C140.354,68.695 141.456,70.293 142.584,71.929C145.817,70.797 148.901,69.718 152.017,68.627C151.129,64.49 150.339,60.805 149.423,56.538C143.145,57.369 137.138,58.164 131.087,58.965C131.087,63.554 131.087,67.629 131.087,72.745C133.248,71.545 134.719,70.727 136.664,69.326M56.264,62.446C54.124,66.487 51.984,70.529 49.845,74.57C50.096,74.923 50.348,75.276 50.599,75.629C52.984,74.773 55.645,74.328 57.685,72.958C60.177,71.284 62.222,70.986 64.983,72.191C66.357,72.791 69.385,72.711 69.761,71.972C71.717,68.122 73.06,63.962 75.01,58.884C68.009,60.018 62.396,60.928 56.264,62.446M195.843,111.775C198.201,119.688 203.083,123.242 211.428,120.778C211.713,120.694 211.933,120.387 213.197,119.361C212.039,117.85 211.112,115.964 209.619,114.813C204.158,110.602 198.5,106.646 192.934,102.57C191.779,101.723 190.699,100.772 189.585,99.869C189.322,100.171 189.059,100.473 188.796,100.776C191.001,104.244 193.205,107.712 195.843,111.775M129.103,27.643C128.321,26.725 127.558,25.046 126.754,25.027C123.883,24.958 120.998,25.452 117.821,25.762C118.255,30.277 118.628,34.158 119.046,38.508C122.55,38.201 125.702,37.924 129.108,37.625C129.108,34.193 129.108,31.395 129.103,27.643M127.887,85.433C127.887,87.292 127.887,89.15 127.887,91.422C131.104,89.658 133.433,88.065 135.991,87.046C140.649,85.191 142.494,82.33 140.306,77.531C136.249,77.864 132.208,78.196 127.891,78.55C127.891,80.9 127.891,82.709 127.887,85.433M93.071,28.936C93.071,32.153 93.071,35.37 93.071,38.624C96.35,38.624 99.122,38.624 102.288,38.624C102.762,34.701 103.219,30.912 103.768,26.37C100.046,26.978 96.707,27.523 93.071,28.936M180.113,61.974C180.113,59.199 180.113,56.425 180.113,53.088C176.532,53.688 173.776,54.15 171.657,54.506C173.14,58.466 175.483,61.835 175.4,65.144C175.258,70.817 179.937,71.579 182.479,74.568C182.052,70.426 175.508,67.899 180.113,61.974M116.429,19.95C120.903,19.523 125.377,19.096 129.851,18.669C129.793,18.026 129.735,17.384 129.677,16.741C118.723,16.245 107.929,18.093 97.098,19.405C97.128,19.976 97.158,20.547 97.189,21.118C103.288,20.74 109.387,20.361 116.429,19.95M126.238,104.582C126.687,103.211 127.298,101.859 127.465,100.454C127.503,100.135 125.841,99.124 125.249,99.316C123.789,99.79 121.475,100.62 121.324,101.589C120.827,104.784 121.137,108.104 121.137,112.594C123.112,109.24 124.358,107.123 126.238,104.582M212.477,98.013C214.434,100.409 216.392,102.806 218.739,105.679C218.585,96.299 213.14,91.543 204.345,92.311C206.887,94.039 209.429,95.766 212.477,98.013M132.876,47.238C131.918,48.07 130.96,48.903 130.003,49.735C131.071,50.203 132.127,51.027 133.21,51.065C135.687,51.153 138.256,51.171 140.627,50.575C141.71,50.303 142.412,48.515 144.096,46.396C139.352,46.73 136.549,46.928 132.876,47.238M73.839,48.856C70.094,48.627 70.223,50.992 70.383,53.928C74.295,52.667 78.753,53.814 82.058,48.833C78.874,48.833 76.803,48.833 73.839,48.856M21.056,103.553C21.594,104.916 22.131,106.279 22.683,107.68C25.047,105.142 26.913,103.14 28.776,101.139C25.861,97.833 25.064,98.016 21.056,103.553M151.863,48.289C152.184,49.499 152.506,50.71 152.967,52.448C155.018,49.078 156.552,46.556 158.179,43.884C154.79,42.661 151.73,41.997 151.863,48.289M51.908,84.955C55.897,85.533 55.735,82.695 56.297,79.679C53.185,79.991 50.528,80.257 47.872,80.523C47.757,80.927 47.643,81.33 47.529,81.734C48.741,82.699 49.952,83.664 51.908,84.955M143.967,30.679C143.967,32.796 143.967,34.912 143.967,37.029C144.635,37.04 145.303,37.051 145.971,37.063C146.437,33.671 146.903,30.279 147.369,26.888C146.884,26.716 146.399,26.545 145.915,26.373C145.293,27.505 144.67,28.637 143.967,30.679M174.099,95.419C174.085,99.2 174.085,99.2 177.48,99.113C176.255,97.434 175.294,96.118 174.099,95.419z"/><path fill="#f0f0f0" d="M120.957,42.781C118.358,48.799 115.491,54.718 113.21,60.855C106.726,78.301 100.395,95.805 94.2,113.355C92.578,117.951 90.352,120.351 84.973,119.923C78.211,119.384 71.373,119.793 64.452,119.793C63.001,115.291 64.902,113.205 68.996,113.002C75.315,112.69 81.659,112.834 87.969,112.417C89.783,112.297 91.514,110.913 93.282,110.108C93.103,109.395 92.925,108.682 92.746,107.969C86.537,107.969 80.328,107.968 74.119,107.969C71.807,107.969 68.778,108.388 69.306,104.909C69.499,103.636 72.156,101.947 73.792,101.823C79.922,101.36 86.102,101.605 92.246,101.264C93.901,101.172 95.494,99.949 97.115,99.246C96.959,98.496 96.802,97.746 96.646,96.997C92.614,96.997 88.582,97.004 84.55,96.993C82.717,96.988 80.808,97.258 79.074,96.831C77.433,96.426 75.976,95.271 74.438,94.446C75.978,93.286 77.445,91.263 79.072,91.124C84.534,90.659 90.062,91.039 95.544,90.723C97.462,90.612 99.318,89.42 101.202,88.722C101.072,87.895 100.942,87.068 100.812,86.241C97.301,86.241 93.79,86.249 90.28,86.239C87.614,86.232 84.927,86.389 82.293,86.093C81.222,85.972 79.541,84.935 79.441,84.15C79.318,83.179 80.31,81.578 81.258,81.077C82.65,80.342 84.42,80.126 86.044,80.066C90.87,79.886 95.713,80.033 100.53,79.737C102.061,79.644 103.531,78.563 105.029,77.935C104.867,77.368 104.706,76.802 104.544,76.236C97.837,76.236 91.129,76.236 84.343,76.236C83,71.458 84.725,69.4 88.97,69.376C94.132,69.346 99.298,69.646 104.455,69.505C106.025,69.463 107.568,68.437 109.124,67.861C108.979,67.323 108.835,66.785 108.69,66.247C102.004,66.247 95.317,66.247 86.977,66.247C88.333,63.152 89.262,61.029 90.964,58.941C97.63,59.36 103.521,59.875 109.42,60C110.37,60.02 111.356,58.303 112.326,57.389C108.271,56.232 104.839,56.168 101.411,56.25C97.988,56.332 94.567,56.56 91.146,56.725C92.538,52.252 93.929,47.779 95.26,43.503C103.728,42.772 111.928,42.065 120.499,41.572C120.872,42.121 120.901,42.452 120.957,42.781M102.648,50.816C106.997,50.068 111.968,52.5 116.218,48.669C109.253,48.669 102.911,48.669 96.568,48.669C96.557,49.184 96.546,49.699 96.534,50.214C98.256,50.415 99.978,50.617 102.648,50.816z"/><path fill="#f4f4f4" d="M133.555,95.522C137.378,93.198 140.831,90.878 144.556,89.142C147.683,87.684 149.19,86.067 147.381,82.671C145.397,78.946 147.4,76.805 150.431,75.013C153.604,73.138 154.844,75.48 156.346,77.512C158.019,79.774 159.802,81.956 161.33,83.909C159.998,92.276 152.484,93.295 148.013,95.411C148.013,98.971 148.692,101.502 147.855,103.346C146.572,106.172 143.661,107.307 140.754,105.586C139.668,104.943 139.367,102.973 138.335,100.834C136.672,100.154 130.736,102.589 133.555,95.522z"/><path fill="#f5f5f5" d="M41.2,107.233C36.706,104.59 35.67,101.356 38.674,98.057C37.377,94.435 35.91,91.47 35.383,88.347C35.148,86.953 36.447,84.675 37.725,83.862C38.634,83.283 40.777,84.27 42.182,84.947C43.76,85.708 45.025,87.125 46.607,87.872C50.477,89.701 51.321,92.075 49.15,95.7C48.669,96.503 47.868,97.386 47.914,98.193C48.327,105.537 48.177,105.818 41.2,107.233z"/><path fill="#f5f5f6" d="M136.427,69.618C134.719,70.727 133.248,71.545 131.087,72.745C131.087,67.629 131.087,63.554 131.087,58.965C137.138,58.164 143.145,57.369 149.423,56.538C150.339,60.805 151.129,64.49 152.017,68.627C148.901,69.718 145.817,70.797 142.584,71.929C141.456,70.293 140.354,68.695 138.954,66.663C138.035,67.731 137.35,68.529 136.427,69.618z"/><path fill="#e4e4e5" d="M67.279,82.867C69.92,78.375 72.627,73.92 75.18,69.38C76.926,66.276 78.458,63.053 81.189,60.323C80.936,61.536 80.898,62.847 80.398,63.947C72.355,81.644 64.301,99.337 56.103,116.963C55.075,119.175 54.532,122.76 49.371,121.196C55.579,108.416 61.615,95.991 67.501,83.197C67.351,82.828 67.279,82.867 67.279,82.867z"/><path fill="#f4f4f4" d="M56.523,62.142C62.396,60.928 68.009,60.018 75.01,58.884C73.06,63.962 71.717,68.122 69.761,71.972C69.385,72.711 66.357,72.791 64.983,72.191C62.222,70.986 60.177,71.284 57.685,72.958C55.645,74.328 52.984,74.773 50.599,75.629C50.348,75.276 50.096,74.923 49.845,74.57C51.984,70.529 54.124,66.487 56.523,62.142z"/><path fill="#efeff0" d="M195.626,111.478C193.205,107.712 191.001,104.244 188.796,100.776C189.059,100.473 189.322,100.171 189.585,99.869C190.699,100.772 191.779,101.723 192.934,102.57C198.5,106.646 204.158,110.602 209.619,114.813C211.112,115.964 212.039,117.85 213.197,119.361C211.933,120.387 211.713,120.694 211.428,120.778C203.083,123.242 198.201,119.688 195.626,111.478z"/><path fill="#f7f7f7" d="M129.106,28.12C129.108,31.395 129.108,34.193 129.108,37.625C125.702,37.924 122.55,38.201 119.046,38.508C118.628,34.158 118.255,30.277 117.821,25.762C120.998,25.452 123.883,24.958 126.754,25.027C127.558,25.046 128.321,26.725 129.106,28.12z"/><path fill="#f5f5f5" d="M127.889,84.976C127.891,82.709 127.891,80.9 127.891,78.55C132.208,78.196 136.249,77.864 140.306,77.531C142.494,82.33 140.649,85.191 135.991,87.046C133.433,88.065 131.104,89.658 127.887,91.422C127.887,89.15 127.887,87.292 127.889,84.976z"/><path fill="#f0f0f0" d="M93.219,28.503C96.707,27.523 100.046,26.978 103.768,26.37C103.219,30.912 102.762,34.701 102.288,38.624C99.122,38.624 96.35,38.624 93.071,38.624C93.071,35.37 93.071,32.153 93.219,28.503z"/><path fill="#ebebeb" d="M180.068,62.389C175.508,67.899 182.052,70.426 182.479,74.568C179.937,71.579 175.258,70.817 175.4,65.144C175.483,61.835 173.14,58.466 171.657,54.506C173.776,54.15 176.532,53.688 180.113,53.088C180.113,56.425 180.113,59.199 180.068,62.389z"/><path fill="#e6e7e7" d="M115.958,19.966C109.387,20.361 103.288,20.74 97.189,21.118C97.158,20.547 97.128,19.976 97.098,19.405C107.929,18.093 118.723,16.245 129.677,16.741C129.735,17.384 129.793,18.026 129.851,18.669C125.377,19.096 120.903,19.523 115.958,19.966z"/><path fill="#272727" d="M91.075,57.042C94.567,56.56 97.988,56.332 101.411,56.25C104.839,56.168 108.271,56.232 112.326,57.389C111.356,58.303 110.37,60.02 109.42,60C103.521,59.875 97.63,59.36 91.341,58.814C90.965,58.222 90.984,57.79 91.075,57.042z"/><path fill="#eceded" d="M67.375,82.795C66.186,84.465 65.119,86.301 63.721,87.835C62.219,89.483 60.406,90.847 58.729,92.335C58.169,91.954 57.61,91.572 57.05,91.19C58.193,88.111 58.937,84.797 60.585,82.017C62.377,78.992 64.903,78.521 67.059,82.572C67.279,82.867 67.351,82.828 67.375,82.795z"/><path fill="#e7e7e7" d="M125.921,104.794C124.358,107.123 123.112,109.24 121.137,112.594C121.137,108.104 120.827,104.784 121.324,101.589C121.475,100.62 123.789,99.79 125.249,99.316C125.841,99.124 127.503,100.135 127.465,100.454C127.298,101.859 126.687,103.211 125.921,104.794z"/><path fill="#e7e7e7" d="M212.224,97.753C209.429,95.766 206.887,94.039 204.345,92.311C213.14,91.543 218.585,96.299 218.739,105.679C216.392,102.806 214.434,100.409 212.224,97.753z"/><path fill="#ececec" d="M133.311,47.181C136.549,46.928 139.352,46.73 144.096,46.396C142.412,48.515 141.71,50.303 140.627,50.575C138.256,51.171 135.687,51.153 133.21,51.065C132.127,51.027 131.071,50.203 130.003,49.735C130.96,48.903 131.918,48.07 133.311,47.181z"/><path fill="#cccccc" d="M121.416,42.825C120.901,42.452 120.872,42.121 120.908,41.541C127.831,40.737 134.718,40.18 141.604,39.622C141.66,40.128 141.716,40.633 141.772,41.139C135.265,42.641 128.552,42.619 121.416,42.825z"/><path fill="#ededed" d="M74.286,48.844C76.803,48.833 78.874,48.833 82.058,48.833C78.753,53.814 74.295,52.667 70.383,53.928C70.223,50.992 70.094,48.627 74.286,48.844z"/><path fill="#e0e0e1" d="M21.17,103.206C25.064,98.016 25.861,97.833 28.777,101.138C26.913,103.14 25.047,105.142 22.683,107.68C22.131,106.279 21.594,104.916 21.17,103.206z"/><path fill="#e6e7e7" d="M151.853,47.878C151.73,41.997 154.79,42.661 158.179,43.884C156.552,46.556 155.018,49.078 152.967,52.448C152.506,50.71 152.184,49.499 151.853,47.878z"/><path fill="#e4e4e5" d="M51.535,84.792C49.952,83.664 48.741,82.699 47.529,81.734C47.643,81.33 47.757,80.927 47.872,80.523C50.528,80.257 53.185,79.991 56.297,79.679C55.735,82.695 55.897,85.533 51.535,84.792z"/><path fill="#e0e0e0" d="M144.007,30.224C144.67,28.637 145.293,27.505 145.915,26.373C146.399,26.545 146.884,26.716 147.369,26.888C146.903,30.279 146.437,33.671 145.971,37.063C145.303,37.051 144.635,37.04 143.967,37.029C143.967,34.912 143.967,32.796 144.007,30.224z"/><path fill="#3d3d3b" d="M174.216,95.11C175.294,96.118 176.255,97.434 177.48,99.113C174.085,99.2 174.085,99.2 174.216,95.11z"/><path fill="#2b2b2b" d="M102.174,50.817C99.978,50.617 98.256,50.415 96.534,50.214C96.546,49.699 96.557,49.184 96.568,48.669C102.911,48.669 109.253,48.669 116.218,48.669C111.968,52.5 106.997,50.068 102.174,50.817z"/></svg>